<?xml version="1.0" encoding="UTF-8" standalone="no"?>
<!-- This is a Stata 18.5 generated SVG file (http://www.stata.com) -->

<svg version="1.1" width="700px" height="509px" viewBox="0 0 3960 2880" xmlns="http://www.w3.org/2000/svg" xmlns:xlink="http://www.w3.org/1999/xlink">
	<desc>Stata Graph - Graph</desc>
	<rect x="0" y="0" width="3960" height="2880" style="fill:#FFFFFF;stroke:none"/>
	<rect x="0.00" y="0.00" width="3959.88" height="2880.00" style="fill:#FFFFFF"/>
	<rect x="2.88" y="2.88" width="3954.12" height="2874.24" style="fill:none;stroke:#FFFFFF;stroke-width:5.76"/>
	<rect x="63.36" y="237.98" width="1916.64" height="1196.08" style="fill:#FFFFFF"/>
	<rect x="65.52" y="240.14" width="1912.32" height="1191.76" style="fill:none;stroke:#FFFFFF;stroke-width:4.32"/>
	<line x1="412.71" y1="1141.01" x2="1904.39" y2="1141.01" style="stroke:#C0C0C0;stroke-opacity:0.50;stroke-width:4.32"/>
	<line x1="412.71" y1="1001.66" x2="1904.39" y2="1001.66" style="stroke:#C0C0C0;stroke-opacity:0.50;stroke-width:4.32"/>
	<line x1="412.71" y1="862.32" x2="1904.39" y2="862.32" style="stroke:#C0C0C0;stroke-opacity:0.50;stroke-width:4.32"/>
	<line x1="412.71" y1="723.09" x2="1904.39" y2="723.09" style="stroke:#C0C0C0;stroke-opacity:0.50;stroke-width:4.32"/>
	<line x1="412.71" y1="583.75" x2="1904.39" y2="583.75" style="stroke:#C0C0C0;stroke-opacity:0.50;stroke-width:4.32"/>
	<line x1="412.71" y1="444.40" x2="1904.39" y2="444.40" style="stroke:#C0C0C0;stroke-opacity:0.50;stroke-width:4.32"/>
	<line x1="412.71" y1="1141.01" x2="412.71" y2="444.40" style="stroke:#C0C0C0;stroke-opacity:0.50;stroke-width:4.32"/>
	<line x1="702.41" y1="1141.01" x2="702.41" y2="444.40" style="stroke:#C0C0C0;stroke-opacity:0.50;stroke-width:4.32"/>
	<line x1="992.10" y1="1141.01" x2="992.10" y2="444.40" style="stroke:#C0C0C0;stroke-opacity:0.50;stroke-width:4.32"/>
	<line x1="1281.80" y1="1141.01" x2="1281.80" y2="444.40" style="stroke:#C0C0C0;stroke-opacity:0.50;stroke-width:4.32"/>
	<line x1="1571.50" y1="1141.01" x2="1571.50" y2="444.40" style="stroke:#C0C0C0;stroke-opacity:0.50;stroke-width:4.32"/>
	<line x1="1861.20" y1="1141.01" x2="1861.20" y2="444.40" style="stroke:#C0C0C0;stroke-opacity:0.50;stroke-width:4.32"/>
	<defs>
		<path id="path_kzqfJFtm" d="M412.58 444.52 L412.58 444.52 L441.54 444.52 L470.62 444.52 L499.58 444.52 L528.54 444.52 L557.49 444.52 L586.45 444.52 L615.41 444.52 L644.37 444.52 L673.32 444.52 L702.28 444.52 L731.24 444.52 L760.20 444.52 L789.28 444.52 L818.24 444.52 L847.19 444.52 L876.15 444.52 L905.11 444.52 L934.07 444.52 L963.02 444.52 L991.98 444.52 L1020.94 444.52 L1049.90 444.52 L1078.98 444.52 L1107.93 444.52 L1136.89 444.52 L1165.85 444.52 L1194.81 444.52 L1223.76 444.52 L1252.72 444.52 L1281.68 444.52 L1310.64 444.52 L1339.59 444.52 L1368.55 444.52 L1397.63 444.52 L1426.59 444.52 L1455.55 444.52 L1484.51 444.52 L1513.46 444.52 L1542.42 444.52 L1571.38 444.52 L1600.34 444.52 L1629.29 444.52 L1658.25 444.52 L1687.21 444.52 L1716.29 444.52 L1745.25 444.52 L1774.20 444.52 L1803.16 444.52 L1832.12 444.52 L1861.08 444.52 L1861.08 1141.01 L412.58 1141.01 L412.58 444.52 Z" stroke-linejoin="round"/>
	</defs>
	<defs>
		<clipPath id="clipPath_adeZImEb">
			<use xlink:href="#path_kzqfJFtm"/>
		</clipPath>
	</defs>
	<use xlink:href="#path_kzqfJFtm" style="stroke:none;fill:#E94849;fill-opacity:0.30"/>
	<use xlink:href="#path_kzqfJFtm" style="fill:none;stroke:#E41A1C;stroke-opacity:0.30;stroke-width:12.96" clip-path="url(#clipPath_adeZImEb)"/>
	<defs>
		<path id="path_PoEtZHBr" d="M412.58 1141.01 L412.58 1141.01 L441.54 1137.67 L470.62 1133.96 L499.58 1131.23 L528.54 1129.01 L557.49 1127.15 L586.45 1125.67 L615.41 1124.30 L644.37 1122.94 L673.32 1121.71 L702.28 1120.47 L731.24 1119.23 L760.20 1118.12 L789.28 1116.88 L818.24 1115.76 L847.19 1114.53 L876.15 1113.29 L905.11 1112.18 L934.07 1110.94 L963.02 1109.70 L991.98 1108.46 L1020.94 1107.23 L1049.90 1105.99 L1078.98 1104.75 L1107.93 1103.39 L1136.89 1102.15 L1165.85 1100.79 L1194.81 1099.55 L1223.76 1098.19 L1252.72 1096.95 L1281.68 1095.59 L1310.64 1094.36 L1339.59 1092.99 L1368.55 1091.76 L1397.63 1090.52 L1426.59 1089.28 L1455.55 1087.92 L1484.51 1086.68 L1513.46 1085.45 L1542.42 1084.33 L1571.38 1083.09 L1600.34 1081.86 L1629.29 1080.62 L1658.25 1079.38 L1687.21 1078.14 L1716.29 1076.91 L1745.25 1075.67 L1774.20 1074.43 L1803.16 1073.19 L1832.12 1072.08 L1861.08 1070.84 L1861.08 1141.01 L412.58 1141.01 L412.58 1141.01 Z" stroke-linejoin="round"/>
	</defs>
	<defs>
		<clipPath id="clipPath_AwzfzWlx">
			<use xlink:href="#path_PoEtZHBr"/>
		</clipPath>
	</defs>
	<use xlink:href="#path_PoEtZHBr" style="stroke:none;fill:#5F98C6;fill-opacity:0.30"/>
	<use xlink:href="#path_PoEtZHBr" style="fill:none;stroke:#377EB8;stroke-opacity:0.30;stroke-width:12.96" clip-path="url(#clipPath_AwzfzWlx)"/>
	<defs>
		<path id="path_WrhzRIIt" d="M412.58 1141.01 L412.58 1141.01 L441.54 1140.76 L470.62 1140.39 L499.58 1140.02 L528.54 1139.65 L557.49 1139.40 L586.45 1139.03 L615.41 1138.66 L644.37 1138.41 L673.32 1138.04 L702.28 1137.67 L731.24 1137.30 L760.20 1136.93 L789.28 1136.56 L818.24 1136.31 L847.19 1135.94 L876.15 1135.57 L905.11 1135.19 L934.07 1134.82 L963.02 1134.45 L991.98 1134.20 L1020.94 1133.83 L1049.90 1133.46 L1078.98 1133.09 L1107.93 1132.72 L1136.89 1132.35 L1165.85 1131.98 L1194.81 1131.61 L1223.76 1131.23 L1252.72 1130.86 L1281.68 1130.37 L1310.64 1130.00 L1339.59 1129.63 L1368.55 1129.25 L1397.63 1128.88 L1426.59 1128.39 L1455.55 1128.02 L1484.51 1127.65 L1513.46 1127.15 L1542.42 1126.78 L1571.38 1126.41 L1600.34 1126.04 L1629.29 1125.54 L1658.25 1125.17 L1687.21 1124.68 L1716.29 1124.30 L1745.25 1123.81 L1774.20 1123.44 L1803.16 1122.94 L1832.12 1122.57 L1861.08 1122.08 L1861.08 1141.01 L412.58 1141.01 L412.58 1141.01 Z" stroke-linejoin="round"/>
	</defs>
	<defs>
		<clipPath id="clipPath_fUVPjbWa">
			<use xlink:href="#path_WrhzRIIt"/>
		</clipPath>
	</defs>
	<use xlink:href="#path_WrhzRIIt" style="stroke:none;fill:#71BF6E;fill-opacity:0.30"/>
	<use xlink:href="#path_WrhzRIIt" style="fill:none;stroke:#4DAF4A;stroke-opacity:0.30;stroke-width:12.96" clip-path="url(#clipPath_fUVPjbWa)"/>
	<line x1="412.71" y1="1141.01" x2="412.71" y2="444.40" style="stroke:#000000;stroke-width:4.32"/>
	<line x1="412.71" y1="1141.01" x2="382.64" y2="1141.01" style="stroke:#000000;stroke-width:4.32"/>
	<text x="367.66" y="1167.29" style="font-family:'Helvetica';font-size:74.99px;fill:#000000" text-anchor="end">0.0</text>
	<line x1="412.71" y1="1001.66" x2="382.64" y2="1001.66" style="stroke:#000000;stroke-width:4.32"/>
	<text x="367.66" y="1027.94" style="font-family:'Helvetica';font-size:74.99px;fill:#000000" text-anchor="end">0.2</text>
	<line x1="412.71" y1="862.32" x2="382.64" y2="862.32" style="stroke:#000000;stroke-width:4.32"/>
	<text x="367.66" y="888.60" style="font-family:'Helvetica';font-size:74.99px;fill:#000000" text-anchor="end">0.4</text>
	<line x1="412.71" y1="723.09" x2="382.64" y2="723.09" style="stroke:#000000;stroke-width:4.32"/>
	<text x="367.66" y="749.37" style="font-family:'Helvetica';font-size:74.99px;fill:#000000" text-anchor="end">0.6</text>
	<line x1="412.71" y1="583.75" x2="382.64" y2="583.75" style="stroke:#000000;stroke-width:4.32"/>
	<text x="367.66" y="610.03" style="font-family:'Helvetica';font-size:74.99px;fill:#000000" text-anchor="end">0.8</text>
	<line x1="412.71" y1="444.40" x2="382.64" y2="444.40" style="stroke:#000000;stroke-width:4.32"/>
	<text x="367.66" y="470.68" style="font-family:'Helvetica';font-size:74.99px;fill:#000000" text-anchor="end">1.0</text>
	<text x="206.38" y="792.77" style="font-family:'Helvetica';font-size:74.99px;fill:#000000" transform="rotate(-90 206.38,792.77)" text-anchor="middle">Probability</text>
	<line x1="412.71" y1="1141.01" x2="1904.39" y2="1141.01" style="stroke:#000000;stroke-width:4.32"/>
	<line x1="412.71" y1="1141.01" x2="412.71" y2="1170.96" style="stroke:#000000;stroke-width:4.32"/>
	<text x="412.71" y="1238.37" style="font-family:'Helvetica';font-size:74.99px;fill:#000000" text-anchor="middle">0</text>
	<line x1="702.41" y1="1141.01" x2="702.41" y2="1170.96" style="stroke:#000000;stroke-width:4.32"/>
	<text x="702.41" y="1238.37" style="font-family:'Helvetica';font-size:74.99px;fill:#000000" text-anchor="middle">1</text>
	<line x1="992.10" y1="1141.01" x2="992.10" y2="1170.96" style="stroke:#000000;stroke-width:4.32"/>
	<text x="992.10" y="1238.37" style="font-family:'Helvetica';font-size:74.99px;fill:#000000" text-anchor="middle">2</text>
	<line x1="1281.80" y1="1141.01" x2="1281.80" y2="1170.96" style="stroke:#000000;stroke-width:4.32"/>
	<text x="1281.80" y="1238.37" style="font-family:'Helvetica';font-size:74.99px;fill:#000000" text-anchor="middle">3</text>
	<line x1="1571.50" y1="1141.01" x2="1571.50" y2="1170.96" style="stroke:#000000;stroke-width:4.32"/>
	<text x="1571.50" y="1238.37" style="font-family:'Helvetica';font-size:74.99px;fill:#000000" text-anchor="middle">4</text>
	<line x1="1861.20" y1="1141.01" x2="1861.20" y2="1170.96" style="stroke:#000000;stroke-width:4.32"/>
	<text x="1861.20" y="1238.37" style="font-family:'Helvetica';font-size:74.99px;fill:#000000" text-anchor="middle">5</text>
	<text x="1158.55" y="1320.91" style="font-family:'Helvetica';font-size:74.99px;fill:#000000" text-anchor="middle">Years since Diagnosis</text>
	<text x="1158.55" y="399.98" style="font-family:'Helvetica';font-size:104.94px;fill:#000000" text-anchor="middle">Age 60</text>
	<rect x="1980.00" y="237.98" width="1916.52" height="1196.08" style="fill:#FFFFFF"/>
	<rect x="1982.16" y="240.14" width="1912.20" height="1191.76" style="fill:none;stroke:#FFFFFF;stroke-width:4.32"/>
	<line x1="2329.22" y1="1141.01" x2="3820.91" y2="1141.01" style="stroke:#C0C0C0;stroke-opacity:0.50;stroke-width:4.32"/>
	<line x1="2329.22" y1="1001.66" x2="3820.91" y2="1001.66" style="stroke:#C0C0C0;stroke-opacity:0.50;stroke-width:4.32"/>
	<line x1="2329.22" y1="862.32" x2="3820.91" y2="862.32" style="stroke:#C0C0C0;stroke-opacity:0.50;stroke-width:4.32"/>
	<line x1="2329.22" y1="723.09" x2="3820.91" y2="723.09" style="stroke:#C0C0C0;stroke-opacity:0.50;stroke-width:4.32"/>
	<line x1="2329.22" y1="583.75" x2="3820.91" y2="583.75" style="stroke:#C0C0C0;stroke-opacity:0.50;stroke-width:4.32"/>
	<line x1="2329.22" y1="444.40" x2="3820.91" y2="444.40" style="stroke:#C0C0C0;stroke-opacity:0.50;stroke-width:4.32"/>
	<line x1="2329.22" y1="1141.01" x2="2329.22" y2="444.40" style="stroke:#C0C0C0;stroke-opacity:0.50;stroke-width:4.32"/>
	<line x1="2618.92" y1="1141.01" x2="2618.92" y2="444.40" style="stroke:#C0C0C0;stroke-opacity:0.50;stroke-width:4.32"/>
	<line x1="2908.62" y1="1141.01" x2="2908.62" y2="444.40" style="stroke:#C0C0C0;stroke-opacity:0.50;stroke-width:4.32"/>
	<line x1="3198.32" y1="1141.01" x2="3198.32" y2="444.40" style="stroke:#C0C0C0;stroke-opacity:0.50;stroke-width:4.32"/>
	<line x1="3488.02" y1="1141.01" x2="3488.02" y2="444.40" style="stroke:#C0C0C0;stroke-opacity:0.50;stroke-width:4.32"/>
	<line x1="3777.72" y1="1141.01" x2="3777.72" y2="444.40" style="stroke:#C0C0C0;stroke-opacity:0.50;stroke-width:4.32"/>
	<defs>
		<path id="path_GmMBuLGN" d="M2329.22 444.52 L2329.22 444.52 L2358.18 444.52 L2387.14 444.52 L2416.09 444.52 L2445.05 444.52 L2474.01 444.52 L2502.97 444.52 L2532.05 444.52 L2561.01 444.52 L2589.96 444.52 L2618.92 444.52 L2647.88 444.52 L2676.84 444.52 L2705.79 444.52 L2734.75 444.52 L2763.71 444.52 L2792.67 444.52 L2821.62 444.52 L2850.71 444.52 L2879.66 444.52 L2908.62 444.52 L2937.58 444.52 L2966.54 444.52 L2995.49 444.52 L3024.45 444.52 L3053.41 444.52 L3082.37 444.52 L3111.32 444.52 L3140.40 444.52 L3169.36 444.52 L3198.32 444.52 L3227.28 444.52 L3256.23 444.52 L3285.19 444.52 L3314.15 444.52 L3343.11 444.52 L3372.06 444.52 L3401.02 444.52 L3429.98 444.52 L3459.06 444.52 L3488.02 444.52 L3516.98 444.52 L3545.93 444.52 L3574.89 444.52 L3603.85 444.52 L3632.81 444.52 L3661.76 444.52 L3690.72 444.52 L3719.68 444.52 L3748.64 444.52 L3777.72 444.52 L3777.72 1141.01 L2329.22 1141.01 L2329.22 444.52 Z" stroke-linejoin="round"/>
	</defs>
	<defs>
		<clipPath id="clipPath_fXhHpaiM">
			<use xlink:href="#path_GmMBuLGN"/>
		</clipPath>
	</defs>
	<use xlink:href="#path_GmMBuLGN" style="stroke:none;fill:#E94849;fill-opacity:0.30"/>
	<use xlink:href="#path_GmMBuLGN" style="fill:none;stroke:#E41A1C;stroke-opacity:0.30;stroke-width:12.96" clip-path="url(#clipPath_fXhHpaiM)"/>
	<defs>
		<path id="path_RmYVLqch" d="M2329.22 1141.01 L2329.22 1141.01 L2358.18 1136.06 L2387.14 1130.74 L2416.09 1126.53 L2445.05 1123.07 L2474.01 1120.10 L2502.97 1117.37 L2532.05 1114.90 L2561.01 1112.55 L2589.96 1110.32 L2618.92 1108.09 L2647.88 1105.86 L2676.84 1103.64 L2705.79 1101.53 L2734.75 1099.43 L2763.71 1097.33 L2792.67 1095.22 L2821.62 1093.24 L2850.71 1091.14 L2879.66 1089.16 L2908.62 1087.05 L2937.58 1085.07 L2966.54 1082.97 L2995.49 1080.99 L3024.45 1078.89 L3053.41 1076.91 L3082.37 1074.80 L3111.32 1072.70 L3140.40 1070.72 L3169.36 1068.61 L3198.32 1066.63 L3227.28 1064.65 L3256.23 1062.67 L3285.19 1060.69 L3314.15 1058.71 L3343.11 1056.73 L3372.06 1054.75 L3401.02 1052.77 L3429.98 1050.92 L3459.06 1049.06 L3488.02 1047.21 L3516.98 1045.23 L3545.93 1043.37 L3574.89 1041.39 L3603.85 1039.41 L3632.81 1037.43 L3661.76 1035.57 L3690.72 1033.59 L3719.68 1031.74 L3748.64 1029.88 L3777.72 1028.02 L3777.72 1141.01 L2329.22 1141.01 L2329.22 1141.01 Z" stroke-linejoin="round"/>
	</defs>
	<defs>
		<clipPath id="clipPath_zVrnafzk">
			<use xlink:href="#path_RmYVLqch"/>
		</clipPath>
	</defs>
	<use xlink:href="#path_RmYVLqch" style="stroke:none;fill:#5F98C6;fill-opacity:0.30"/>
	<use xlink:href="#path_RmYVLqch" style="fill:none;stroke:#377EB8;stroke-opacity:0.30;stroke-width:12.96" clip-path="url(#clipPath_zVrnafzk)"/>
	<defs>
		<path id="path_vnEUnJcU" d="M2329.22 1141.01 L2329.22 1141.01 L2358.18 1140.02 L2387.14 1139.03 L2416.09 1138.04 L2445.05 1137.05 L2474.01 1136.06 L2502.97 1135.07 L2532.05 1134.20 L2561.01 1133.09 L2589.96 1132.10 L2618.92 1131.11 L2647.88 1130.00 L2676.84 1129.01 L2705.79 1128.02 L2734.75 1126.90 L2763.71 1125.91 L2792.67 1124.92 L2821.62 1123.81 L2850.71 1122.82 L2879.66 1121.83 L2908.62 1120.84 L2937.58 1119.72 L2966.54 1118.73 L2995.49 1117.62 L3024.45 1116.63 L3053.41 1115.52 L3082.37 1114.40 L3111.32 1113.29 L3140.40 1112.18 L3169.36 1111.06 L3198.32 1109.95 L3227.28 1108.71 L3256.23 1107.60 L3285.19 1106.36 L3314.15 1105.25 L3343.11 1104.01 L3372.06 1102.89 L3401.02 1101.66 L3429.98 1100.54 L3459.06 1099.31 L3488.02 1098.19 L3516.98 1096.95 L3545.93 1095.72 L3574.89 1094.48 L3603.85 1093.12 L3632.81 1091.88 L3661.76 1090.64 L3690.72 1089.28 L3719.68 1088.04 L3748.64 1086.81 L3777.72 1085.57 L3777.72 1141.01 L2329.22 1141.01 L2329.22 1141.01 Z" stroke-linejoin="round"/>
	</defs>
	<defs>
		<clipPath id="clipPath_SblNjHtm">
			<use xlink:href="#path_vnEUnJcU"/>
		</clipPath>
	</defs>
	<use xlink:href="#path_vnEUnJcU" style="stroke:none;fill:#71BF6E;fill-opacity:0.30"/>
	<use xlink:href="#path_vnEUnJcU" style="fill:none;stroke:#4DAF4A;stroke-opacity:0.30;stroke-width:12.96" clip-path="url(#clipPath_SblNjHtm)"/>
	<line x1="2329.22" y1="1141.01" x2="2329.22" y2="444.40" style="stroke:#000000;stroke-width:4.32"/>
	<line x1="2329.22" y1="1141.01" x2="2299.28" y2="1141.01" style="stroke:#000000;stroke-width:4.32"/>
	<text x="2284.30" y="1167.29" style="font-family:'Helvetica';font-size:74.99px;fill:#000000" text-anchor="end">0.0</text>
	<line x1="2329.22" y1="1001.66" x2="2299.28" y2="1001.66" style="stroke:#000000;stroke-width:4.32"/>
	<text x="2284.30" y="1027.94" style="font-family:'Helvetica';font-size:74.99px;fill:#000000" text-anchor="end">0.2</text>
	<line x1="2329.22" y1="862.32" x2="2299.28" y2="862.32" style="stroke:#000000;stroke-width:4.32"/>
	<text x="2284.30" y="888.60" style="font-family:'Helvetica';font-size:74.99px;fill:#000000" text-anchor="end">0.4</text>
	<line x1="2329.22" y1="723.09" x2="2299.28" y2="723.09" style="stroke:#000000;stroke-width:4.32"/>
	<text x="2284.30" y="749.37" style="font-family:'Helvetica';font-size:74.99px;fill:#000000" text-anchor="end">0.6</text>
	<line x1="2329.22" y1="583.75" x2="2299.28" y2="583.75" style="stroke:#000000;stroke-width:4.32"/>
	<text x="2284.30" y="610.03" style="font-family:'Helvetica';font-size:74.99px;fill:#000000" text-anchor="end">0.8</text>
	<line x1="2329.22" y1="444.40" x2="2299.28" y2="444.40" style="stroke:#000000;stroke-width:4.32"/>
	<text x="2284.30" y="470.68" style="font-family:'Helvetica';font-size:74.99px;fill:#000000" text-anchor="end">1.0</text>
	<text x="2123.02" y="792.77" style="font-family:'Helvetica';font-size:74.99px;fill:#000000" transform="rotate(-90 2123.02,792.77)" text-anchor="middle">Probability</text>
	<line x1="2329.22" y1="1141.01" x2="3820.91" y2="1141.01" style="stroke:#000000;stroke-width:4.32"/>
	<line x1="2329.22" y1="1141.01" x2="2329.22" y2="1170.96" style="stroke:#000000;stroke-width:4.32"/>
	<text x="2329.22" y="1238.37" style="font-family:'Helvetica';font-size:74.99px;fill:#000000" text-anchor="middle">0</text>
	<line x1="2618.92" y1="1141.01" x2="2618.92" y2="1170.96" style="stroke:#000000;stroke-width:4.32"/>
	<text x="2618.92" y="1238.37" style="font-family:'Helvetica';font-size:74.99px;fill:#000000" text-anchor="middle">1</text>
	<line x1="2908.62" y1="1141.01" x2="2908.62" y2="1170.96" style="stroke:#000000;stroke-width:4.32"/>
	<text x="2908.62" y="1238.37" style="font-family:'Helvetica';font-size:74.99px;fill:#000000" text-anchor="middle">2</text>
	<line x1="3198.32" y1="1141.01" x2="3198.32" y2="1170.96" style="stroke:#000000;stroke-width:4.32"/>
	<text x="3198.32" y="1238.37" style="font-family:'Helvetica';font-size:74.99px;fill:#000000" text-anchor="middle">3</text>
	<line x1="3488.02" y1="1141.01" x2="3488.02" y2="1170.96" style="stroke:#000000;stroke-width:4.32"/>
	<text x="3488.02" y="1238.37" style="font-family:'Helvetica';font-size:74.99px;fill:#000000" text-anchor="middle">4</text>
	<line x1="3777.72" y1="1141.01" x2="3777.72" y2="1170.96" style="stroke:#000000;stroke-width:4.32"/>
	<text x="3777.72" y="1238.37" style="font-family:'Helvetica';font-size:74.99px;fill:#000000" text-anchor="middle">5</text>
	<text x="3075.06" y="1320.91" style="font-family:'Helvetica';font-size:74.99px;fill:#000000" text-anchor="middle">Years since Diagnosis</text>
	<text x="3075.06" y="399.98" style="font-family:'Helvetica';font-size:104.94px;fill:#000000" text-anchor="middle">Age 70</text>
	<rect x="63.36" y="1434.06" width="1916.64" height="1196.20" style="fill:#FFFFFF"/>
	<rect x="65.52" y="1436.22" width="1912.32" height="1191.89" style="fill:none;stroke:#FFFFFF;stroke-width:4.32"/>
	<line x1="412.71" y1="2337.09" x2="1904.39" y2="2337.09" style="stroke:#C0C0C0;stroke-opacity:0.50;stroke-width:4.32"/>
	<line x1="412.71" y1="2197.87" x2="1904.39" y2="2197.87" style="stroke:#C0C0C0;stroke-opacity:0.50;stroke-width:4.32"/>
	<line x1="412.71" y1="2058.52" x2="1904.39" y2="2058.52" style="stroke:#C0C0C0;stroke-opacity:0.50;stroke-width:4.32"/>
	<line x1="412.71" y1="1919.17" x2="1904.39" y2="1919.17" style="stroke:#C0C0C0;stroke-opacity:0.50;stroke-width:4.32"/>
	<line x1="412.71" y1="1779.95" x2="1904.39" y2="1779.95" style="stroke:#C0C0C0;stroke-opacity:0.50;stroke-width:4.32"/>
	<line x1="412.71" y1="1640.61" x2="1904.39" y2="1640.61" style="stroke:#C0C0C0;stroke-opacity:0.50;stroke-width:4.32"/>
	<line x1="412.71" y1="2337.09" x2="412.71" y2="1640.61" style="stroke:#C0C0C0;stroke-opacity:0.50;stroke-width:4.32"/>
	<line x1="702.41" y1="2337.09" x2="702.41" y2="1640.61" style="stroke:#C0C0C0;stroke-opacity:0.50;stroke-width:4.32"/>
	<line x1="992.10" y1="2337.09" x2="992.10" y2="1640.61" style="stroke:#C0C0C0;stroke-opacity:0.50;stroke-width:4.32"/>
	<line x1="1281.80" y1="2337.09" x2="1281.80" y2="1640.61" style="stroke:#C0C0C0;stroke-opacity:0.50;stroke-width:4.32"/>
	<line x1="1571.50" y1="2337.09" x2="1571.50" y2="1640.61" style="stroke:#C0C0C0;stroke-opacity:0.50;stroke-width:4.32"/>
	<line x1="1861.20" y1="2337.09" x2="1861.20" y2="1640.61" style="stroke:#C0C0C0;stroke-opacity:0.50;stroke-width:4.32"/>
	<defs>
		<path id="path_CrwngTak" d="M412.58 1640.61 L412.58 1640.61 L441.54 1640.61 L470.62 1640.61 L499.58 1640.61 L528.54 1640.61 L557.49 1640.61 L586.45 1640.61 L615.41 1640.61 L644.37 1640.61 L673.32 1640.61 L702.28 1640.61 L731.24 1640.61 L760.20 1640.61 L789.28 1640.61 L818.24 1640.61 L847.19 1640.61 L876.15 1640.61 L905.11 1640.61 L934.07 1640.61 L963.02 1640.61 L991.98 1640.61 L1020.94 1640.61 L1049.90 1640.61 L1078.98 1640.61 L1107.93 1640.61 L1136.89 1640.61 L1165.85 1640.61 L1194.81 1640.61 L1223.76 1640.61 L1252.72 1640.61 L1281.68 1640.61 L1310.64 1640.61 L1339.59 1640.61 L1368.55 1640.61 L1397.63 1640.61 L1426.59 1640.61 L1455.55 1640.61 L1484.51 1640.61 L1513.46 1640.61 L1542.42 1640.61 L1571.38 1640.61 L1600.34 1640.61 L1629.29 1640.61 L1658.25 1640.61 L1687.21 1640.61 L1716.29 1640.61 L1745.25 1640.61 L1774.20 1640.61 L1803.16 1640.61 L1832.12 1640.61 L1861.08 1640.61 L1861.08 2337.22 L412.58 2337.22 L412.58 1640.61 Z" stroke-linejoin="round"/>
	</defs>
	<defs>
		<clipPath id="clipPath_bmXoqvXA">
			<use xlink:href="#path_CrwngTak"/>
		</clipPath>
	</defs>
	<use xlink:href="#path_CrwngTak" style="stroke:none;fill:#E94849;fill-opacity:0.30"/>
	<use xlink:href="#path_CrwngTak" style="fill:none;stroke:#E41A1C;stroke-opacity:0.30;stroke-width:12.96" clip-path="url(#clipPath_bmXoqvXA)"/>
	<defs>
		<path id="path_eaFrCIHv" d="M412.58 2337.22 L412.58 2337.22 L441.54 2327.56 L470.62 2317.41 L499.58 2309.00 L528.54 2301.82 L557.49 2295.51 L586.45 2289.82 L615.41 2284.50 L644.37 2279.30 L673.32 2274.47 L702.28 2269.77 L731.24 2265.07 L760.20 2260.36 L789.28 2255.66 L818.24 2251.08 L847.19 2246.63 L876.15 2242.17 L905.11 2237.84 L934.07 2233.51 L963.02 2229.30 L991.98 2225.22 L1020.94 2220.89 L1049.90 2216.43 L1078.98 2212.10 L1107.93 2207.77 L1136.89 2203.56 L1165.85 2199.35 L1194.81 2195.27 L1223.76 2191.31 L1252.72 2187.35 L1281.68 2183.27 L1310.64 2178.93 L1339.59 2174.73 L1368.55 2170.52 L1397.63 2166.44 L1426.59 2162.35 L1455.55 2158.39 L1484.51 2154.43 L1513.46 2150.47 L1542.42 2146.51 L1571.38 2142.43 L1600.34 2138.34 L1629.29 2134.14 L1658.25 2130.05 L1687.21 2125.97 L1716.29 2121.88 L1745.25 2117.80 L1774.20 2113.96 L1803.16 2110.00 L1832.12 2106.17 L1861.08 2102.33 L1861.08 2337.22 L412.58 2337.22 L412.58 2337.22 Z" stroke-linejoin="round"/>
	</defs>
	<defs>
		<clipPath id="clipPath_JfnLnBMy">
			<use xlink:href="#path_eaFrCIHv"/>
		</clipPath>
	</defs>
	<use xlink:href="#path_eaFrCIHv" style="stroke:none;fill:#5F98C6;fill-opacity:0.30"/>
	<use xlink:href="#path_eaFrCIHv" style="fill:none;stroke:#377EB8;stroke-opacity:0.30;stroke-width:12.96" clip-path="url(#clipPath_JfnLnBMy)"/>
	<defs>
		<path id="path_BSwswAlQ" d="M412.58 2337.22 L412.58 2337.22 L441.54 2333.87 L470.62 2330.53 L499.58 2327.32 L528.54 2324.10 L557.49 2320.88 L586.45 2317.79 L615.41 2314.69 L644.37 2311.60 L673.32 2308.50 L702.28 2305.53 L731.24 2302.32 L760.20 2299.10 L789.28 2295.88 L818.24 2292.54 L847.19 2289.32 L876.15 2286.11 L905.11 2282.89 L934.07 2279.67 L963.02 2276.45 L991.98 2273.36 L1020.94 2270.02 L1049.90 2266.55 L1078.98 2263.09 L1107.93 2259.62 L1136.89 2256.28 L1165.85 2252.94 L1194.81 2249.60 L1223.76 2246.26 L1252.72 2243.04 L1281.68 2239.57 L1310.64 2235.98 L1339.59 2232.40 L1368.55 2228.81 L1397.63 2225.22 L1426.59 2221.63 L1455.55 2218.16 L1484.51 2214.70 L1513.46 2211.23 L1542.42 2207.65 L1571.38 2203.93 L1600.34 2200.22 L1629.29 2196.51 L1658.25 2192.79 L1687.21 2189.08 L1716.29 2185.37 L1745.25 2181.66 L1774.20 2178.07 L1803.16 2174.48 L1832.12 2171.01 L1861.08 2167.55 L1861.08 2337.22 L412.58 2337.22 L412.58 2337.22 Z" stroke-linejoin="round"/>
	</defs>
	<defs>
		<clipPath id="clipPath_CXJmvuGe">
			<use xlink:href="#path_BSwswAlQ"/>
		</clipPath>
	</defs>
	<use xlink:href="#path_BSwswAlQ" style="stroke:none;fill:#71BF6E;fill-opacity:0.30"/>
	<use xlink:href="#path_BSwswAlQ" style="fill:none;stroke:#4DAF4A;stroke-opacity:0.30;stroke-width:12.96" clip-path="url(#clipPath_CXJmvuGe)"/>
	<line x1="412.71" y1="2337.09" x2="412.71" y2="1640.61" style="stroke:#000000;stroke-width:4.32"/>
	<line x1="412.71" y1="2337.09" x2="382.64" y2="2337.09" style="stroke:#000000;stroke-width:4.32"/>
	<text x="367.66" y="2363.37" style="font-family:'Helvetica';font-size:74.99px;fill:#000000" text-anchor="end">0.0</text>
	<line x1="412.71" y1="2197.87" x2="382.64" y2="2197.87" style="stroke:#000000;stroke-width:4.32"/>
	<text x="367.66" y="2224.15" style="font-family:'Helvetica';font-size:74.99px;fill:#000000" text-anchor="end">0.2</text>
	<line x1="412.71" y1="2058.52" x2="382.64" y2="2058.52" style="stroke:#000000;stroke-width:4.32"/>
	<text x="367.66" y="2084.80" style="font-family:'Helvetica';font-size:74.99px;fill:#000000" text-anchor="end">0.4</text>
	<line x1="412.71" y1="1919.17" x2="382.64" y2="1919.17" style="stroke:#000000;stroke-width:4.32"/>
	<text x="367.66" y="1945.45" style="font-family:'Helvetica';font-size:74.99px;fill:#000000" text-anchor="end">0.6</text>
	<line x1="412.71" y1="1779.95" x2="382.64" y2="1779.95" style="stroke:#000000;stroke-width:4.32"/>
	<text x="367.66" y="1806.23" style="font-family:'Helvetica';font-size:74.99px;fill:#000000" text-anchor="end">0.8</text>
	<line x1="412.71" y1="1640.61" x2="382.64" y2="1640.61" style="stroke:#000000;stroke-width:4.32"/>
	<text x="367.66" y="1666.88" style="font-family:'Helvetica';font-size:74.99px;fill:#000000" text-anchor="end">1.0</text>
	<text x="206.38" y="1988.85" style="font-family:'Helvetica';font-size:74.99px;fill:#000000" transform="rotate(-90 206.38,1988.85)" text-anchor="middle">Probability</text>
	<line x1="412.71" y1="2337.09" x2="1904.39" y2="2337.09" style="stroke:#000000;stroke-width:4.32"/>
	<line x1="412.71" y1="2337.09" x2="412.71" y2="2367.16" style="stroke:#000000;stroke-width:4.32"/>
	<text x="412.71" y="2434.57" style="font-family:'Helvetica';font-size:74.99px;fill:#000000" text-anchor="middle">0</text>
	<line x1="702.41" y1="2337.09" x2="702.41" y2="2367.16" style="stroke:#000000;stroke-width:4.32"/>
	<text x="702.41" y="2434.57" style="font-family:'Helvetica';font-size:74.99px;fill:#000000" text-anchor="middle">1</text>
	<line x1="992.10" y1="2337.09" x2="992.10" y2="2367.16" style="stroke:#000000;stroke-width:4.32"/>
	<text x="992.10" y="2434.57" style="font-family:'Helvetica';font-size:74.99px;fill:#000000" text-anchor="middle">2</text>
	<line x1="1281.80" y1="2337.09" x2="1281.80" y2="2367.16" style="stroke:#000000;stroke-width:4.32"/>
	<text x="1281.80" y="2434.57" style="font-family:'Helvetica';font-size:74.99px;fill:#000000" text-anchor="middle">3</text>
	<line x1="1571.50" y1="2337.09" x2="1571.50" y2="2367.16" style="stroke:#000000;stroke-width:4.32"/>
	<text x="1571.50" y="2434.57" style="font-family:'Helvetica';font-size:74.99px;fill:#000000" text-anchor="middle">4</text>
	<line x1="1861.20" y1="2337.09" x2="1861.20" y2="2367.16" style="stroke:#000000;stroke-width:4.32"/>
	<text x="1861.20" y="2434.57" style="font-family:'Helvetica';font-size:74.99px;fill:#000000" text-anchor="middle">5</text>
	<text x="1158.55" y="2517.12" style="font-family:'Helvetica';font-size:74.99px;fill:#000000" text-anchor="middle">Years since Diagnosis</text>
	<text x="1158.55" y="1596.07" style="font-family:'Helvetica';font-size:104.94px;fill:#000000" text-anchor="middle">Age 80</text>
	<rect x="1980.00" y="1434.06" width="1916.52" height="1196.20" style="fill:#FFFFFF"/>
	<rect x="1982.16" y="1436.22" width="1912.20" height="1191.89" style="fill:none;stroke:#FFFFFF;stroke-width:4.32"/>
	<line x1="2329.22" y1="2337.09" x2="3820.91" y2="2337.09" style="stroke:#C0C0C0;stroke-opacity:0.50;stroke-width:4.32"/>
	<line x1="2329.22" y1="2197.87" x2="3820.91" y2="2197.87" style="stroke:#C0C0C0;stroke-opacity:0.50;stroke-width:4.32"/>
	<line x1="2329.22" y1="2058.52" x2="3820.91" y2="2058.52" style="stroke:#C0C0C0;stroke-opacity:0.50;stroke-width:4.32"/>
	<line x1="2329.22" y1="1919.17" x2="3820.91" y2="1919.17" style="stroke:#C0C0C0;stroke-opacity:0.50;stroke-width:4.32"/>
	<line x1="2329.22" y1="1779.95" x2="3820.91" y2="1779.95" style="stroke:#C0C0C0;stroke-opacity:0.50;stroke-width:4.32"/>
	<line x1="2329.22" y1="1640.61" x2="3820.91" y2="1640.61" style="stroke:#C0C0C0;stroke-opacity:0.50;stroke-width:4.32"/>
	<line x1="2329.22" y1="2337.09" x2="2329.22" y2="1640.61" style="stroke:#C0C0C0;stroke-opacity:0.50;stroke-width:4.32"/>
	<line x1="2618.92" y1="2337.09" x2="2618.92" y2="1640.61" style="stroke:#C0C0C0;stroke-opacity:0.50;stroke-width:4.32"/>
	<line x1="2908.62" y1="2337.09" x2="2908.62" y2="1640.61" style="stroke:#C0C0C0;stroke-opacity:0.50;stroke-width:4.32"/>
	<line x1="3198.32" y1="2337.09" x2="3198.32" y2="1640.61" style="stroke:#C0C0C0;stroke-opacity:0.50;stroke-width:4.32"/>
	<line x1="3488.02" y1="2337.09" x2="3488.02" y2="1640.61" style="stroke:#C0C0C0;stroke-opacity:0.50;stroke-width:4.32"/>
	<line x1="3777.72" y1="2337.09" x2="3777.72" y2="1640.61" style="stroke:#C0C0C0;stroke-opacity:0.50;stroke-width:4.32"/>
	<defs>
		<path id="path_vICIZCAN" d="M2329.22 1640.61 L2329.22 1640.61 L2358.18 1640.61 L2387.14 1640.61 L2416.09 1640.61 L2445.05 1640.61 L2474.01 1640.61 L2502.97 1640.61 L2532.05 1640.61 L2561.01 1640.61 L2589.96 1640.61 L2618.92 1640.61 L2647.88 1640.61 L2676.84 1640.61 L2705.79 1640.61 L2734.75 1640.61 L2763.71 1640.61 L2792.67 1640.61 L2821.62 1640.61 L2850.71 1640.61 L2879.66 1640.61 L2908.62 1640.61 L2937.58 1640.61 L2966.54 1640.61 L2995.49 1640.61 L3024.45 1640.61 L3053.41 1640.61 L3082.37 1640.61 L3111.32 1640.61 L3140.40 1640.61 L3169.36 1640.61 L3198.32 1640.61 L3227.28 1640.61 L3256.23 1640.61 L3285.19 1640.61 L3314.15 1640.61 L3343.11 1640.61 L3372.06 1640.61 L3401.02 1640.61 L3429.98 1640.61 L3459.06 1640.61 L3488.02 1640.61 L3516.98 1640.61 L3545.93 1640.61 L3574.89 1640.61 L3603.85 1640.61 L3632.81 1640.61 L3661.76 1640.61 L3690.72 1640.61 L3719.68 1640.61 L3748.64 1640.61 L3777.72 1640.61 L3777.72 2337.22 L2329.22 2337.22 L2329.22 1640.61 Z" stroke-linejoin="round"/>
	</defs>
	<defs>
		<clipPath id="clipPath_XDnCftqk">
			<use xlink:href="#path_vICIZCAN"/>
		</clipPath>
	</defs>
	<use xlink:href="#path_vICIZCAN" style="stroke:none;fill:#E94849;fill-opacity:0.30"/>
	<use xlink:href="#path_vICIZCAN" style="fill:none;stroke:#E41A1C;stroke-opacity:0.30;stroke-width:12.96" clip-path="url(#clipPath_XDnCftqk)"/>
	<defs>
		<path id="path_qkgciVRg" d="M2329.22 2337.22 L2329.22 2337.22 L2358.18 2312.96 L2387.14 2285.98 L2416.09 2264.32 L2445.05 2246.88 L2474.01 2232.02 L2502.97 2218.78 L2532.05 2206.90 L2561.01 2195.64 L2589.96 2185.00 L2618.92 2174.60 L2647.88 2163.84 L2676.84 2152.95 L2705.79 2142.55 L2734.75 2132.40 L2763.71 2122.50 L2792.67 2112.73 L2821.62 2103.32 L2850.71 2094.04 L2879.66 2085.01 L2908.62 2075.97 L2937.58 2066.32 L2966.54 2056.79 L2995.49 2047.51 L3024.45 2038.47 L3053.41 2029.56 L3082.37 2020.90 L3111.32 2012.49 L3140.40 2004.19 L3169.36 1996.15 L3198.32 1988.35 L3227.28 1980.19 L3256.23 1971.65 L3285.19 1963.23 L3314.15 1955.06 L3343.11 1947.14 L3372.06 1939.47 L3401.02 1932.05 L3429.98 1924.74 L3459.06 1917.69 L3488.02 1910.76 L3516.98 1903.71 L3545.93 1896.53 L3574.89 1889.35 L3603.85 1882.42 L3632.81 1875.49 L3661.76 1868.93 L3690.72 1862.50 L3719.68 1856.31 L3748.64 1850.24 L3777.72 1844.43 L3777.72 2337.22 L2329.22 2337.22 L2329.22 2337.22 Z" stroke-linejoin="round"/>
	</defs>
	<defs>
		<clipPath id="clipPath_iFZtsSdi">
			<use xlink:href="#path_qkgciVRg"/>
		</clipPath>
	</defs>
	<use xlink:href="#path_qkgciVRg" style="stroke:none;fill:#5F98C6;fill-opacity:0.30"/>
	<use xlink:href="#path_qkgciVRg" style="fill:none;stroke:#377EB8;stroke-opacity:0.30;stroke-width:12.96" clip-path="url(#clipPath_iFZtsSdi)"/>
	<defs>
		<path id="path_ewLdqPyY" d="M2329.22 2337.22 L2329.22 2337.22 L2358.18 2325.34 L2387.14 2313.95 L2416.09 2303.06 L2445.05 2292.42 L2474.01 2282.02 L2502.97 2272.00 L2532.05 2262.10 L2561.01 2252.32 L2589.96 2242.92 L2618.92 2233.51 L2647.88 2223.36 L2676.84 2213.21 L2705.79 2203.19 L2734.75 2193.54 L2763.71 2184.01 L2792.67 2174.73 L2821.62 2165.57 L2850.71 2156.66 L2879.66 2147.87 L2908.62 2139.09 L2937.58 2129.80 L2966.54 2120.40 L2995.49 2111.36 L3024.45 2102.58 L3053.41 2093.92 L3082.37 2085.50 L3111.32 2077.21 L3140.40 2069.04 L3169.36 2061.24 L3198.32 2053.45 L3227.28 2045.28 L3256.23 2036.99 L3285.19 2028.70 L3314.15 2020.53 L3343.11 2012.61 L3372.06 2005.06 L3401.02 1997.63 L3429.98 1990.33 L3459.06 1983.28 L3488.02 1976.35 L3516.98 1969.30 L3545.93 1962.24 L3574.89 1955.06 L3603.85 1948.01 L3632.81 1941.20 L3661.76 1934.52 L3690.72 1928.21 L3719.68 1922.02 L3748.64 1916.08 L3777.72 1910.14 L3777.72 2337.22 L2329.22 2337.22 L2329.22 2337.22 Z" stroke-linejoin="round"/>
	</defs>
	<defs>
		<clipPath id="clipPath_ChWbUfQw">
			<use xlink:href="#path_ewLdqPyY"/>
		</clipPath>
	</defs>
	<use xlink:href="#path_ewLdqPyY" style="stroke:none;fill:#71BF6E;fill-opacity:0.30"/>
	<use xlink:href="#path_ewLdqPyY" style="fill:none;stroke:#4DAF4A;stroke-opacity:0.30;stroke-width:12.96" clip-path="url(#clipPath_ChWbUfQw)"/>
	<line x1="2329.22" y1="2337.09" x2="2329.22" y2="1640.61" style="stroke:#000000;stroke-width:4.32"/>
	<line x1="2329.22" y1="2337.09" x2="2299.28" y2="2337.09" style="stroke:#000000;stroke-width:4.32"/>
	<text x="2284.30" y="2363.37" style="font-family:'Helvetica';font-size:74.99px;fill:#000000" text-anchor="end">0.0</text>
	<line x1="2329.22" y1="2197.87" x2="2299.28" y2="2197.87" style="stroke:#000000;stroke-width:4.32"/>
	<text x="2284.30" y="2224.15" style="font-family:'Helvetica';font-size:74.99px;fill:#000000" text-anchor="end">0.2</text>
	<line x1="2329.22" y1="2058.52" x2="2299.28" y2="2058.52" style="stroke:#000000;stroke-width:4.32"/>
	<text x="2284.30" y="2084.80" style="font-family:'Helvetica';font-size:74.99px;fill:#000000" text-anchor="end">0.4</text>
	<line x1="2329.22" y1="1919.17" x2="2299.28" y2="1919.17" style="stroke:#000000;stroke-width:4.32"/>
	<text x="2284.30" y="1945.45" style="font-family:'Helvetica';font-size:74.99px;fill:#000000" text-anchor="end">0.6</text>
	<line x1="2329.22" y1="1779.95" x2="2299.28" y2="1779.95" style="stroke:#000000;stroke-width:4.32"/>
	<text x="2284.30" y="1806.23" style="font-family:'Helvetica';font-size:74.99px;fill:#000000" text-anchor="end">0.8</text>
	<line x1="2329.22" y1="1640.61" x2="2299.28" y2="1640.61" style="stroke:#000000;stroke-width:4.32"/>
	<text x="2284.30" y="1666.88" style="font-family:'Helvetica';font-size:74.99px;fill:#000000" text-anchor="end">1.0</text>
	<text x="2123.02" y="1988.85" style="font-family:'Helvetica';font-size:74.99px;fill:#000000" transform="rotate(-90 2123.02,1988.85)" text-anchor="middle">Probability</text>
	<line x1="2329.22" y1="2337.09" x2="3820.91" y2="2337.09" style="stroke:#000000;stroke-width:4.32"/>
	<line x1="2329.22" y1="2337.09" x2="2329.22" y2="2367.16" style="stroke:#000000;stroke-width:4.32"/>
	<text x="2329.22" y="2434.57" style="font-family:'Helvetica';font-size:74.99px;fill:#000000" text-anchor="middle">0</text>
	<line x1="2618.92" y1="2337.09" x2="2618.92" y2="2367.16" style="stroke:#000000;stroke-width:4.32"/>
	<text x="2618.92" y="2434.57" style="font-family:'Helvetica';font-size:74.99px;fill:#000000" text-anchor="middle">1</text>
	<line x1="2908.62" y1="2337.09" x2="2908.62" y2="2367.16" style="stroke:#000000;stroke-width:4.32"/>
	<text x="2908.62" y="2434.57" style="font-family:'Helvetica';font-size:74.99px;fill:#000000" text-anchor="middle">2</text>
	<line x1="3198.32" y1="2337.09" x2="3198.32" y2="2367.16" style="stroke:#000000;stroke-width:4.32"/>
	<text x="3198.32" y="2434.57" style="font-family:'Helvetica';font-size:74.99px;fill:#000000" text-anchor="middle">3</text>
	<line x1="3488.02" y1="2337.09" x2="3488.02" y2="2367.16" style="stroke:#000000;stroke-width:4.32"/>
	<text x="3488.02" y="2434.57" style="font-family:'Helvetica';font-size:74.99px;fill:#000000" text-anchor="middle">4</text>
	<line x1="3777.72" y1="2337.09" x2="3777.72" y2="2367.16" style="stroke:#000000;stroke-width:4.32"/>
	<text x="3777.72" y="2434.57" style="font-family:'Helvetica';font-size:74.99px;fill:#000000" text-anchor="middle">5</text>
	<text x="3075.06" y="2517.12" style="font-family:'Helvetica';font-size:74.99px;fill:#000000" text-anchor="middle">Years since Diagnosis</text>
	<text x="3075.06" y="1596.07" style="font-family:'Helvetica';font-size:104.94px;fill:#000000" text-anchor="middle">Age 90</text>
	<text x="1980.00" y="178.60" style="font-family:'Helvetica';font-size:139.96px;fill:#000000" text-anchor="middle">Male, Stage 2, Deprivation Group 1, Diagnosed in 2011</text>
	<rect x="296.63" y="2664.79" width="3366.62" height="117.32" style="fill:#FFFFFF"/>
	<rect x="299.51" y="2667.67" width="3360.86" height="111.56" style="fill:none;stroke:#FFFFFF;stroke-width:5.76"/>
	<rect x="305.17" y="2673.45" width="199.98" height="99.99" style="fill:#E94849;fill-opacity:0.30"/>
	<rect x="309.49" y="2677.77" width="191.34" height="91.35" style="fill:none;stroke:#E41A1C;stroke-opacity:0.30;stroke-width:8.64"/>
	<rect x="921.07" y="2673.45" width="199.98" height="99.99" style="fill:#5F98C6;fill-opacity:0.30"/>
	<rect x="925.39" y="2677.77" width="191.34" height="91.35" style="fill:none;stroke:#377EB8;stroke-opacity:0.30;stroke-width:8.64"/>
	<rect x="2204.73" y="2673.45" width="199.98" height="99.99" style="fill:#71BF6E;fill-opacity:0.30"/>
	<rect x="2209.05" y="2677.77" width="191.34" height="91.35" style="fill:none;stroke:#4DAF4A;stroke-opacity:0.30;stroke-width:8.64"/>
	<text x="565.17" y="2758.48" style="font-family:'Helvetica';font-size:99.99px;fill:#000000">Alive</text>
	<text x="1181.07" y="2758.48" style="font-family:'Helvetica';font-size:99.99px;fill:#000000">Death from Cancer</text>
	<text x="2464.73" y="2758.48" style="font-family:'Helvetica';font-size:99.99px;fill:#000000">Death from Other Causes</text>
</svg>
