<?xml version="1.0" encoding="UTF-8" standalone="no"?>
<!-- This is a Stata 18.5 generated SVG file (http://www.stata.com) -->

<svg version="1.1" width="700px" height="509px" viewBox="0 0 3960 2880" xmlns="http://www.w3.org/2000/svg" xmlns:xlink="http://www.w3.org/1999/xlink">
	<desc>Stata Graph - Graph</desc>
	<rect x="0" y="0" width="3960" height="2880" style="fill:#FFFFFF;stroke:none"/>
	<rect x="0.00" y="0.00" width="3959.88" height="2880.00" style="fill:#FFFFFF"/>
	<rect x="2.88" y="2.88" width="3954.12" height="2874.24" style="fill:none;stroke:#FFFFFF;stroke-width:5.76"/>
	<rect x="63.36" y="63.36" width="1916.64" height="2753.28" style="fill:#FFFFFF"/>
	<rect x="65.52" y="65.52" width="1912.32" height="2748.96" style="fill:none;stroke:#FFFFFF;stroke-width:4.32"/>
	<line x1="412.71" y1="2523.59" x2="1904.39" y2="2523.59" style="stroke:#C0C0C0;stroke-width:4.32"/>
	<line x1="412.71" y1="2298.23" x2="1904.39" y2="2298.23" style="stroke:#C0C0C0;stroke-width:4.32"/>
	<line x1="412.71" y1="2072.75" x2="1904.39" y2="2072.75" style="stroke:#C0C0C0;stroke-width:4.32"/>
	<line x1="412.71" y1="1847.40" x2="1904.39" y2="1847.40" style="stroke:#C0C0C0;stroke-width:4.32"/>
	<line x1="412.71" y1="1622.04" x2="1904.39" y2="1622.04" style="stroke:#C0C0C0;stroke-width:4.32"/>
	<line x1="412.71" y1="1396.69" x2="1904.39" y2="1396.69" style="stroke:#C0C0C0;stroke-width:4.32"/>
	<line x1="412.71" y1="1171.33" x2="1904.39" y2="1171.33" style="stroke:#C0C0C0;stroke-width:4.32"/>
	<line x1="412.71" y1="945.97" x2="1904.39" y2="945.97" style="stroke:#C0C0C0;stroke-width:4.32"/>
	<line x1="412.71" y1="720.62" x2="1904.39" y2="720.62" style="stroke:#C0C0C0;stroke-width:4.32"/>
	<line x1="412.71" y1="495.26" x2="1904.39" y2="495.26" style="stroke:#C0C0C0;stroke-width:4.32"/>
	<line x1="412.71" y1="269.91" x2="1904.39" y2="269.91" style="stroke:#C0C0C0;stroke-width:4.32"/>
	<line x1="412.71" y1="2523.59" x2="412.71" y2="269.91" style="stroke:#C0C0C0;stroke-width:4.32"/>
	<line x1="702.41" y1="2523.59" x2="702.41" y2="269.91" style="stroke:#C0C0C0;stroke-width:4.32"/>
	<line x1="992.10" y1="2523.59" x2="992.10" y2="269.91" style="stroke:#C0C0C0;stroke-width:4.32"/>
	<line x1="1281.80" y1="2523.59" x2="1281.80" y2="269.91" style="stroke:#C0C0C0;stroke-width:4.32"/>
	<line x1="1571.50" y1="2523.59" x2="1571.50" y2="269.91" style="stroke:#C0C0C0;stroke-width:4.32"/>
	<line x1="1861.20" y1="2523.59" x2="1861.20" y2="269.91" style="stroke:#C0C0C0;stroke-width:4.32"/>
	<defs>
		<path id="path_NnPtOTSr" d="M412.58 269.91 L412.58 269.91 L427.31 270.03 L441.91 270.77 L456.51 272.38 L471.12 275.10 L485.84 279.06 L500.45 284.26 L515.05 290.82 L529.65 298.62 L544.25 307.53 L558.98 317.55 L573.58 328.57 L588.18 340.57 L602.79 353.19 L617.51 366.68 L632.12 380.79 L646.72 395.39 L661.32 410.49 L675.92 425.96 L690.65 441.80 L705.25 457.77 L719.85 473.98 L734.46 490.31 L749.18 506.77 L763.79 523.23 L778.39 539.57 L792.99 556.03 L807.72 572.24 L822.32 588.33 L836.92 604.41 L851.52 620.13 L866.13 635.85 L880.85 651.19 L895.46 666.41 L910.06 681.27 L924.66 695.99 L939.39 710.35 L953.99 724.58 L968.59 738.32 L983.19 751.93 L997.92 765.17 L1012.52 778.29 L1027.13 791.03 L1041.73 803.53 L1056.33 815.79 L1071.06 827.79 L1085.66 839.67 L1100.26 851.18 L1114.86 862.56 L1129.59 873.83 L1144.19 884.84 L1158.80 895.73 L1173.40 906.37 L1188.12 916.89 L1202.73 927.29 L1217.33 937.56 L1231.93 947.58 L1246.53 957.61 L1261.26 967.38 L1275.86 977.16 L1290.46 986.81 L1305.07 996.22 L1319.79 1005.62 L1334.40 1014.91 L1349.00 1024.06 L1363.60 1033.22 L1378.20 1042.13 L1392.93 1051.04 L1407.53 1059.83 L1422.14 1068.49 L1436.74 1077.15 L1451.46 1085.69 L1466.07 1094.11 L1480.67 1102.40 L1495.27 1110.69 L1510.00 1118.86 L1524.60 1127.03 L1539.20 1135.07 L1553.81 1142.99 L1568.41 1150.91 L1583.13 1158.71 L1597.74 1166.38 L1612.34 1174.05 L1626.94 1181.73 L1641.67 1189.27 L1656.27 1196.70 L1670.87 1204.13 L1685.48 1211.43 L1700.20 1218.73 L1714.80 1225.91 L1729.41 1233.08 L1744.01 1240.26 L1758.61 1247.32 L1773.34 1254.25 L1787.94 1261.18 L1802.54 1268.11 L1817.15 1274.91 L1831.87 1281.72 L1846.47 1288.40 L1861.08 1295.08 L1861.08 2523.59 L412.58 2523.59 L412.58 269.91 Z" stroke-linejoin="round"/>
	</defs>
	<defs>
		<clipPath id="clipPath_yLcDhqvA">
			<use xlink:href="#path_NnPtOTSr"/>
		</clipPath>
	</defs>
	<use xlink:href="#path_NnPtOTSr" style="stroke:none;fill:#E94849;fill-opacity:0.30"/>
	<use xlink:href="#path_NnPtOTSr" style="fill:none;stroke:#E41A1C;stroke-width:12.96" clip-path="url(#clipPath_yLcDhqvA)"/>
	<line x1="412.71" y1="2523.59" x2="412.71" y2="269.91" style="stroke:#000000;stroke-width:4.32"/>
	<line x1="412.71" y1="2523.59" x2="382.64" y2="2523.59" style="stroke:#000000;stroke-width:4.32"/>
	<text x="367.66" y="2549.87" style="font-family:'Helvetica';font-size:74.99px;fill:#000000" text-anchor="end">0.0</text>
	<line x1="412.71" y1="2298.23" x2="382.64" y2="2298.23" style="stroke:#000000;stroke-width:4.32"/>
	<text x="367.66" y="2324.51" style="font-family:'Helvetica';font-size:74.99px;fill:#000000" text-anchor="end">0.1</text>
	<line x1="412.71" y1="2072.75" x2="382.64" y2="2072.75" style="stroke:#000000;stroke-width:4.32"/>
	<text x="367.66" y="2099.03" style="font-family:'Helvetica';font-size:74.99px;fill:#000000" text-anchor="end">0.2</text>
	<line x1="412.71" y1="1847.40" x2="382.64" y2="1847.40" style="stroke:#000000;stroke-width:4.32"/>
	<text x="367.66" y="1873.68" style="font-family:'Helvetica';font-size:74.99px;fill:#000000" text-anchor="end">0.3</text>
	<line x1="412.71" y1="1622.04" x2="382.64" y2="1622.04" style="stroke:#000000;stroke-width:4.32"/>
	<text x="367.66" y="1648.32" style="font-family:'Helvetica';font-size:74.99px;fill:#000000" text-anchor="end">0.4</text>
	<line x1="412.71" y1="1396.69" x2="382.64" y2="1396.69" style="stroke:#000000;stroke-width:4.32"/>
	<text x="367.66" y="1422.97" style="font-family:'Helvetica';font-size:74.99px;fill:#000000" text-anchor="end">0.5</text>
	<line x1="412.71" y1="1171.33" x2="382.64" y2="1171.33" style="stroke:#000000;stroke-width:4.32"/>
	<text x="367.66" y="1197.61" style="font-family:'Helvetica';font-size:74.99px;fill:#000000" text-anchor="end">0.6</text>
	<line x1="412.71" y1="945.97" x2="382.64" y2="945.97" style="stroke:#000000;stroke-width:4.32"/>
	<text x="367.66" y="972.25" style="font-family:'Helvetica';font-size:74.99px;fill:#000000" text-anchor="end">0.7</text>
	<line x1="412.71" y1="720.62" x2="382.64" y2="720.62" style="stroke:#000000;stroke-width:4.32"/>
	<text x="367.66" y="746.90" style="font-family:'Helvetica';font-size:74.99px;fill:#000000" text-anchor="end">0.8</text>
	<line x1="412.71" y1="495.26" x2="382.64" y2="495.26" style="stroke:#000000;stroke-width:4.32"/>
	<text x="367.66" y="521.54" style="font-family:'Helvetica';font-size:74.99px;fill:#000000" text-anchor="end">0.9</text>
	<line x1="412.71" y1="269.91" x2="382.64" y2="269.91" style="stroke:#000000;stroke-width:4.32"/>
	<text x="367.66" y="296.19" style="font-family:'Helvetica';font-size:74.99px;fill:#000000" text-anchor="end">1.0</text>
	<text x="206.38" y="1396.69" style="font-family:'Helvetica';font-size:74.99px;fill:#000000" transform="rotate(-90 206.38,1396.69)" text-anchor="middle">S(t)</text>
	<line x1="412.71" y1="2523.59" x2="1904.39" y2="2523.59" style="stroke:#000000;stroke-width:4.32"/>
	<line x1="412.71" y1="2523.59" x2="412.71" y2="2553.54" style="stroke:#000000;stroke-width:4.32"/>
	<text x="412.71" y="2620.95" style="font-family:'Helvetica';font-size:74.99px;fill:#000000" text-anchor="middle">0</text>
	<line x1="702.41" y1="2523.59" x2="702.41" y2="2553.54" style="stroke:#000000;stroke-width:4.32"/>
	<text x="702.41" y="2620.95" style="font-family:'Helvetica';font-size:74.99px;fill:#000000" text-anchor="middle">2</text>
	<line x1="992.10" y1="2523.59" x2="992.10" y2="2553.54" style="stroke:#000000;stroke-width:4.32"/>
	<text x="992.10" y="2620.95" style="font-family:'Helvetica';font-size:74.99px;fill:#000000" text-anchor="middle">4</text>
	<line x1="1281.80" y1="2523.59" x2="1281.80" y2="2553.54" style="stroke:#000000;stroke-width:4.32"/>
	<text x="1281.80" y="2620.95" style="font-family:'Helvetica';font-size:74.99px;fill:#000000" text-anchor="middle">6</text>
	<line x1="1571.50" y1="2523.59" x2="1571.50" y2="2553.54" style="stroke:#000000;stroke-width:4.32"/>
	<text x="1571.50" y="2620.95" style="font-family:'Helvetica';font-size:74.99px;fill:#000000" text-anchor="middle">8</text>
	<line x1="1861.20" y1="2523.59" x2="1861.20" y2="2553.54" style="stroke:#000000;stroke-width:4.32"/>
	<text x="1861.20" y="2620.95" style="font-family:'Helvetica';font-size:74.99px;fill:#000000" text-anchor="middle">10</text>
	<text x="1158.55" y="2703.49" style="font-family:'Helvetica';font-size:74.99px;fill:#000000" text-anchor="middle">Years from surgery</text>
	<text x="1158.55" y="225.37" style="font-family:'Helvetica';font-size:104.94px;fill:#000000" text-anchor="middle">No treatment</text>
	<rect x="1980.00" y="63.36" width="1916.52" height="2753.28" style="fill:#FFFFFF"/>
	<rect x="1982.16" y="65.52" width="1912.20" height="2748.96" style="fill:none;stroke:#FFFFFF;stroke-width:4.32"/>
	<line x1="2329.22" y1="2523.59" x2="3820.91" y2="2523.59" style="stroke:#C0C0C0;stroke-width:4.32"/>
	<line x1="2329.22" y1="2298.23" x2="3820.91" y2="2298.23" style="stroke:#C0C0C0;stroke-width:4.32"/>
	<line x1="2329.22" y1="2072.75" x2="3820.91" y2="2072.75" style="stroke:#C0C0C0;stroke-width:4.32"/>
	<line x1="2329.22" y1="1847.40" x2="3820.91" y2="1847.40" style="stroke:#C0C0C0;stroke-width:4.32"/>
	<line x1="2329.22" y1="1622.04" x2="3820.91" y2="1622.04" style="stroke:#C0C0C0;stroke-width:4.32"/>
	<line x1="2329.22" y1="1396.69" x2="3820.91" y2="1396.69" style="stroke:#C0C0C0;stroke-width:4.32"/>
	<line x1="2329.22" y1="1171.33" x2="3820.91" y2="1171.33" style="stroke:#C0C0C0;stroke-width:4.32"/>
	<line x1="2329.22" y1="945.97" x2="3820.91" y2="945.97" style="stroke:#C0C0C0;stroke-width:4.32"/>
	<line x1="2329.22" y1="720.62" x2="3820.91" y2="720.62" style="stroke:#C0C0C0;stroke-width:4.32"/>
	<line x1="2329.22" y1="495.26" x2="3820.91" y2="495.26" style="stroke:#C0C0C0;stroke-width:4.32"/>
	<line x1="2329.22" y1="269.91" x2="3820.91" y2="269.91" style="stroke:#C0C0C0;stroke-width:4.32"/>
	<line x1="2329.22" y1="2523.59" x2="2329.22" y2="269.91" style="stroke:#C0C0C0;stroke-width:4.32"/>
	<line x1="2618.92" y1="2523.59" x2="2618.92" y2="269.91" style="stroke:#C0C0C0;stroke-width:4.32"/>
	<line x1="2908.62" y1="2523.59" x2="2908.62" y2="269.91" style="stroke:#C0C0C0;stroke-width:4.32"/>
	<line x1="3198.32" y1="2523.59" x2="3198.32" y2="269.91" style="stroke:#C0C0C0;stroke-width:4.32"/>
	<line x1="3488.02" y1="2523.59" x2="3488.02" y2="269.91" style="stroke:#C0C0C0;stroke-width:4.32"/>
	<line x1="3777.72" y1="2523.59" x2="3777.72" y2="269.91" style="stroke:#C0C0C0;stroke-width:4.32"/>
	<defs>
		<path id="path_yHfQLdYM" d="M2329.22 269.91 L2329.22 269.91 L2343.82 270.65 L2358.43 272.51 L2373.15 275.10 L2387.76 278.57 L2402.36 282.65 L2416.96 287.48 L2431.56 292.93 L2446.29 298.87 L2460.89 305.30 L2475.50 312.35 L2490.10 319.78 L2504.82 327.70 L2519.43 335.99 L2534.03 344.65 L2548.63 353.81 L2563.36 363.22 L2577.96 372.99 L2592.56 383.14 L2607.17 393.54 L2621.77 404.18 L2636.49 415.19 L2651.10 426.33 L2665.70 437.84 L2680.30 449.47 L2695.03 461.23 L2709.63 473.36 L2724.23 485.49 L2738.84 497.86 L2753.56 510.36 L2768.16 522.86 L2782.77 535.61 L2797.37 548.23 L2811.97 560.98 L2826.70 573.72 L2841.30 586.47 L2855.90 599.09 L2870.51 611.72 L2885.23 624.21 L2899.83 636.59 L2914.44 648.97 L2929.04 661.09 L2943.77 673.22 L2958.37 685.10 L2972.97 696.98 L2987.57 708.61 L3002.18 720.25 L3016.90 731.63 L3031.50 742.89 L3046.11 754.16 L3060.71 765.17 L3075.44 776.06 L3090.04 786.83 L3104.64 797.47 L3119.24 807.99 L3133.85 818.38 L3148.57 828.66 L3163.17 838.80 L3177.78 848.95 L3192.38 858.85 L3207.11 868.75 L3221.71 878.53 L3236.31 888.18 L3250.91 897.83 L3265.64 907.24 L3280.24 916.77 L3294.84 926.05 L3309.45 935.33 L3324.05 944.49 L3338.78 953.52 L3353.38 962.56 L3367.98 971.47 L3382.58 980.25 L3397.31 989.04 L3411.91 997.70 L3426.51 1006.37 L3441.12 1014.91 L3455.84 1023.32 L3470.45 1031.74 L3485.05 1040.15 L3499.65 1048.44 L3514.25 1056.61 L3528.98 1064.78 L3543.58 1072.82 L3558.18 1080.87 L3572.79 1088.91 L3587.51 1096.83 L3602.12 1104.63 L3616.72 1112.42 L3631.32 1120.22 L3645.92 1127.89 L3660.65 1135.57 L3675.25 1143.11 L3689.85 1150.66 L3704.46 1158.21 L3719.18 1165.64 L3733.79 1172.94 L3748.39 1180.36 L3762.99 1187.67 L3777.72 1194.84 L3777.72 2523.59 L2329.22 2523.59 L2329.22 269.91 Z" stroke-linejoin="round"/>
	</defs>
	<defs>
		<clipPath id="clipPath_RdoRvuQJ">
			<use xlink:href="#path_yHfQLdYM"/>
		</clipPath>
	</defs>
	<use xlink:href="#path_yHfQLdYM" style="stroke:none;fill:#5F98C6;fill-opacity:0.30"/>
	<use xlink:href="#path_yHfQLdYM" style="fill:none;stroke:#377EB8;stroke-width:12.96" clip-path="url(#clipPath_RdoRvuQJ)"/>
	<line x1="2329.22" y1="2523.59" x2="2329.22" y2="269.91" style="stroke:#000000;stroke-width:4.32"/>
	<line x1="2329.22" y1="2523.59" x2="2299.28" y2="2523.59" style="stroke:#000000;stroke-width:4.32"/>
	<text x="2284.30" y="2549.87" style="font-family:'Helvetica';font-size:74.99px;fill:#000000" text-anchor="end">0.0</text>
	<line x1="2329.22" y1="2298.23" x2="2299.28" y2="2298.23" style="stroke:#000000;stroke-width:4.32"/>
	<text x="2284.30" y="2324.51" style="font-family:'Helvetica';font-size:74.99px;fill:#000000" text-anchor="end">0.1</text>
	<line x1="2329.22" y1="2072.75" x2="2299.28" y2="2072.75" style="stroke:#000000;stroke-width:4.32"/>
	<text x="2284.30" y="2099.03" style="font-family:'Helvetica';font-size:74.99px;fill:#000000" text-anchor="end">0.2</text>
	<line x1="2329.22" y1="1847.40" x2="2299.28" y2="1847.40" style="stroke:#000000;stroke-width:4.32"/>
	<text x="2284.30" y="1873.68" style="font-family:'Helvetica';font-size:74.99px;fill:#000000" text-anchor="end">0.3</text>
	<line x1="2329.22" y1="1622.04" x2="2299.28" y2="1622.04" style="stroke:#000000;stroke-width:4.32"/>
	<text x="2284.30" y="1648.32" style="font-family:'Helvetica';font-size:74.99px;fill:#000000" text-anchor="end">0.4</text>
	<line x1="2329.22" y1="1396.69" x2="2299.28" y2="1396.69" style="stroke:#000000;stroke-width:4.32"/>
	<text x="2284.30" y="1422.97" style="font-family:'Helvetica';font-size:74.99px;fill:#000000" text-anchor="end">0.5</text>
	<line x1="2329.22" y1="1171.33" x2="2299.28" y2="1171.33" style="stroke:#000000;stroke-width:4.32"/>
	<text x="2284.30" y="1197.61" style="font-family:'Helvetica';font-size:74.99px;fill:#000000" text-anchor="end">0.6</text>
	<line x1="2329.22" y1="945.97" x2="2299.28" y2="945.97" style="stroke:#000000;stroke-width:4.32"/>
	<text x="2284.30" y="972.25" style="font-family:'Helvetica';font-size:74.99px;fill:#000000" text-anchor="end">0.7</text>
	<line x1="2329.22" y1="720.62" x2="2299.28" y2="720.62" style="stroke:#000000;stroke-width:4.32"/>
	<text x="2284.30" y="746.90" style="font-family:'Helvetica';font-size:74.99px;fill:#000000" text-anchor="end">0.8</text>
	<line x1="2329.22" y1="495.26" x2="2299.28" y2="495.26" style="stroke:#000000;stroke-width:4.32"/>
	<text x="2284.30" y="521.54" style="font-family:'Helvetica';font-size:74.99px;fill:#000000" text-anchor="end">0.9</text>
	<line x1="2329.22" y1="269.91" x2="2299.28" y2="269.91" style="stroke:#000000;stroke-width:4.32"/>
	<text x="2284.30" y="296.19" style="font-family:'Helvetica';font-size:74.99px;fill:#000000" text-anchor="end">1.0</text>
	<text x="2123.02" y="1396.69" style="font-family:'Helvetica';font-size:74.99px;fill:#000000" transform="rotate(-90 2123.02,1396.69)" text-anchor="middle">S(t)</text>
	<line x1="2329.22" y1="2523.59" x2="3820.91" y2="2523.59" style="stroke:#000000;stroke-width:4.32"/>
	<line x1="2329.22" y1="2523.59" x2="2329.22" y2="2553.54" style="stroke:#000000;stroke-width:4.32"/>
	<text x="2329.22" y="2620.95" style="font-family:'Helvetica';font-size:74.99px;fill:#000000" text-anchor="middle">0</text>
	<line x1="2618.92" y1="2523.59" x2="2618.92" y2="2553.54" style="stroke:#000000;stroke-width:4.32"/>
	<text x="2618.92" y="2620.95" style="font-family:'Helvetica';font-size:74.99px;fill:#000000" text-anchor="middle">2</text>
	<line x1="2908.62" y1="2523.59" x2="2908.62" y2="2553.54" style="stroke:#000000;stroke-width:4.32"/>
	<text x="2908.62" y="2620.95" style="font-family:'Helvetica';font-size:74.99px;fill:#000000" text-anchor="middle">4</text>
	<line x1="3198.32" y1="2523.59" x2="3198.32" y2="2553.54" style="stroke:#000000;stroke-width:4.32"/>
	<text x="3198.32" y="2620.95" style="font-family:'Helvetica';font-size:74.99px;fill:#000000" text-anchor="middle">6</text>
	<line x1="3488.02" y1="2523.59" x2="3488.02" y2="2553.54" style="stroke:#000000;stroke-width:4.32"/>
	<text x="3488.02" y="2620.95" style="font-family:'Helvetica';font-size:74.99px;fill:#000000" text-anchor="middle">8</text>
	<line x1="3777.72" y1="2523.59" x2="3777.72" y2="2553.54" style="stroke:#000000;stroke-width:4.32"/>
	<text x="3777.72" y="2620.95" style="font-family:'Helvetica';font-size:74.99px;fill:#000000" text-anchor="middle">10</text>
	<text x="3075.06" y="2703.49" style="font-family:'Helvetica';font-size:74.99px;fill:#000000" text-anchor="middle">Years from surgery</text>
	<text x="3075.06" y="225.37" style="font-family:'Helvetica';font-size:104.94px;fill:#000000" text-anchor="middle">Treatment</text>
</svg>
