<?xml version="1.0" encoding="UTF-8" standalone="no"?>
<!-- This is a Stata 18.5 generated SVG file (http://www.stata.com) -->

<svg version="1.1" width="700px" height="509px" viewBox="0 0 3960 2880" xmlns="http://www.w3.org/2000/svg" xmlns:xlink="http://www.w3.org/1999/xlink">
	<desc>Stata Graph - RS</desc>
	<rect x="0" y="0" width="3960" height="2880" style="fill:#FFFFFF;stroke:none"/>
	<rect x="0.00" y="0.00" width="3959.88" height="2880.00" style="fill:#FFFFFF"/>
	<rect x="2.88" y="2.88" width="3954.12" height="2874.24" style="fill:none;stroke:#FFFFFF;stroke-width:5.76"/>
	<line x1="465.80" y1="2489.19" x2="3859.02" y2="2489.19" style="stroke:#C0C0C0;stroke-opacity:0.50;stroke-width:5.76"/>
	<line x1="465.80" y1="2011.50" x2="3859.02" y2="2011.50" style="stroke:#C0C0C0;stroke-opacity:0.50;stroke-width:5.76"/>
	<line x1="465.80" y1="1533.81" x2="3859.02" y2="1533.81" style="stroke:#C0C0C0;stroke-opacity:0.50;stroke-width:5.76"/>
	<line x1="465.80" y1="1056.12" x2="3859.02" y2="1056.12" style="stroke:#C0C0C0;stroke-opacity:0.50;stroke-width:5.76"/>
	<line x1="465.80" y1="578.43" x2="3859.02" y2="578.43" style="stroke:#C0C0C0;stroke-opacity:0.50;stroke-width:5.76"/>
	<line x1="465.80" y1="100.86" x2="3859.02" y2="100.86" style="stroke:#C0C0C0;stroke-opacity:0.50;stroke-width:5.76"/>
	<line x1="465.80" y1="2489.19" x2="465.80" y2="100.86" style="stroke:#C0C0C0;stroke-opacity:0.50;stroke-width:5.76"/>
	<line x1="1132.93" y1="2489.19" x2="1132.93" y2="100.86" style="stroke:#C0C0C0;stroke-opacity:0.50;stroke-width:5.76"/>
	<line x1="1800.07" y1="2489.19" x2="1800.07" y2="100.86" style="stroke:#C0C0C0;stroke-opacity:0.50;stroke-width:5.76"/>
	<line x1="2467.20" y1="2489.19" x2="2467.20" y2="100.86" style="stroke:#C0C0C0;stroke-opacity:0.50;stroke-width:5.76"/>
	<line x1="3134.34" y1="2489.19" x2="3134.34" y2="100.86" style="stroke:#C0C0C0;stroke-opacity:0.50;stroke-width:5.76"/>
	<line x1="3801.48" y1="2489.19" x2="3801.48" y2="100.86" style="stroke:#C0C0C0;stroke-opacity:0.50;stroke-width:5.76"/>
	<defs>
		<path id="path_yRjwaLBu" d="M465.80 100.86 L465.80 100.86 L499.08 144.92 L532.50 205.56 L565.91 268.92 L599.20 331.17 L632.61 390.94 L665.90 447.37 L699.31 500.58 L732.60 550.70 L766.01 598.23 L799.30 643.40 L832.71 686.59 L866.00 727.92 L899.42 767.65 L932.83 805.64 L966.12 842.27 L999.53 877.29 L1032.82 910.95 L1066.23 943.25 L1099.52 974.44 L1132.93 1004.51 L1166.22 1034.58 L1199.63 1063.79 L1233.05 1092.13 L1266.33 1119.48 L1299.75 1146.08 L1333.04 1171.95 L1366.45 1196.95 L1399.74 1221.33 L1433.15 1244.84 L1466.44 1267.86 L1499.85 1290.13 L1533.26 1311.91 L1566.55 1333.08 L1599.96 1353.62 L1633.25 1373.79 L1666.67 1393.47 L1699.95 1412.65 L1733.37 1431.34 L1766.66 1449.78 L1800.07 1467.72 L1833.36 1486.41 L1866.77 1504.72 L1900.18 1522.67 L1933.47 1540.36 L1966.88 1557.69 L2000.17 1574.77 L2033.58 1591.60 L2066.87 1608.18 L2100.29 1624.39 L2133.57 1640.48 L2166.99 1656.32 L2200.40 1671.91 L2233.69 1687.26 L2267.10 1702.36 L2300.39 1717.33 L2333.80 1732.06 L2367.09 1746.66 L2400.50 1761.02 L2433.79 1775.25 L2467.20 1789.23 L2500.62 1804.08 L2533.91 1818.69 L2567.32 1833.17 L2600.61 1847.40 L2634.02 1861.63 L2667.31 1875.49 L2700.72 1889.35 L2734.01 1903.09 L2767.42 1916.58 L2800.71 1929.94 L2834.12 1943.18 L2867.54 1956.30 L2900.82 1969.30 L2934.24 1982.17 L2967.53 1994.91 L3000.94 2007.54 L3034.23 2020.03 L3067.64 2032.41 L3100.93 2044.79 L3134.34 2056.91 L3167.75 2069.91 L3201.04 2082.78 L3234.45 2095.52 L3267.74 2108.15 L3301.16 2120.77 L3334.44 2133.15 L3367.86 2145.40 L3401.15 2157.65 L3434.56 2169.78 L3467.97 2181.66 L3501.26 2193.54 L3534.67 2205.42 L3567.96 2217.05 L3601.37 2228.68 L3634.66 2240.07 L3668.07 2251.45 L3701.36 2262.84 L3734.78 2273.98 L3768.06 2285.12 L3801.48 2296.13 L3801.48 2226.95 L3768.06 2216.43 L3734.78 2205.79 L3701.36 2195.02 L3668.07 2184.26 L3634.66 2173.24 L3601.37 2162.23 L3567.96 2151.09 L3534.67 2139.83 L3501.26 2128.44 L3467.97 2116.93 L3434.56 2105.30 L3401.15 2093.67 L3367.86 2081.79 L3334.44 2069.78 L3301.16 2057.78 L3267.74 2045.53 L3234.45 2033.15 L3201.04 2020.65 L3167.75 2008.03 L3134.34 1995.28 L3100.93 1983.40 L3067.64 1971.40 L3034.23 1959.27 L3000.94 1946.90 L2967.53 1934.52 L2934.24 1921.90 L2900.82 1909.27 L2867.54 1896.40 L2834.12 1883.41 L2800.71 1870.29 L2767.42 1856.93 L2734.01 1843.56 L2700.72 1829.95 L2667.31 1816.21 L2634.02 1802.23 L2600.61 1788.24 L2567.32 1774.01 L2533.91 1759.53 L2500.62 1745.05 L2467.20 1730.33 L2433.79 1716.34 L2400.50 1702.23 L2367.09 1688.00 L2333.80 1673.52 L2300.39 1658.92 L2267.10 1644.19 L2233.69 1629.22 L2200.40 1614.00 L2166.99 1598.65 L2133.57 1583.06 L2100.29 1567.34 L2066.87 1551.38 L2033.58 1535.04 L2000.17 1518.58 L1966.88 1501.75 L1933.47 1484.68 L1900.18 1467.35 L1866.77 1449.65 L1833.36 1431.58 L1800.07 1413.15 L1766.66 1395.32 L1733.37 1377.26 L1699.95 1358.69 L1666.67 1339.64 L1633.25 1320.21 L1599.96 1300.28 L1566.55 1279.86 L1533.26 1258.82 L1499.85 1237.29 L1466.44 1215.26 L1433.15 1192.62 L1399.74 1169.47 L1366.45 1145.59 L1333.04 1121.09 L1299.75 1095.84 L1266.33 1069.85 L1233.05 1043.12 L1199.63 1015.40 L1166.22 986.69 L1132.93 957.11 L1099.52 927.54 L1066.23 896.84 L1032.82 865.04 L999.53 832.00 L966.12 797.84 L932.83 762.32 L899.42 725.45 L866.00 687.21 L832.71 647.36 L799.30 605.65 L766.01 561.84 L732.60 515.81 L699.31 467.29 L665.90 416.18 L632.61 362.48 L599.20 306.29 L565.91 248.00 L532.50 189.34 L499.08 134.77 L465.80 100.86 L465.80 100.86 Z" stroke-linejoin="round"/>
	</defs>
	<defs>
		<clipPath id="clipPath_lImqXDFz">
			<use xlink:href="#path_yRjwaLBu"/>
		</clipPath>
	</defs>
	<use xlink:href="#path_yRjwaLBu" style="stroke:none;fill:#E94849;fill-opacity:0.30"/>
	<use xlink:href="#path_yRjwaLBu" style="fill:none;stroke:#E41A1C;stroke-opacity:0.30;stroke-width:17.28" clip-path="url(#clipPath_lImqXDFz)"/>
	<path d=" M465.67 100.86 L499.08 139.97 L532.37 197.51 L565.79 258.52 L599.20 318.79 L632.49 376.71 L665.90 431.90 L699.19 484.13 L732.60 533.38 L765.89 580.16 L799.30 624.59 L832.59 667.03 L866.00 707.62 L899.42 746.61 L932.70 784.10 L966.12 820.12 L999.41 854.77 L1032.82 888.06 L1066.11 920.11 L1099.52 951.05 L1132.81 980.87 L1166.22 1010.82 L1199.63 1039.78 L1232.92 1067.75 L1266.33 1094.85 L1299.62 1121.09 L1333.04 1146.70 L1366.32 1171.45 L1399.74 1195.46 L1433.03 1218.98 L1466.44 1241.75 L1499.73 1263.90 L1533.14 1285.56 L1566.55 1306.59 L1599.84 1327.14 L1633.25 1347.18 L1666.54 1366.74 L1699.95 1385.80 L1733.24 1404.48 L1766.66 1422.67 L1799.94 1440.62 L1833.36 1459.18 L1866.77 1477.37 L1900.06 1495.19 L1933.47 1512.77 L1966.76 1529.97 L2000.17 1546.92 L2033.46 1563.51 L2066.87 1579.97 L2100.16 1596.05 L2133.57 1612.02 L2166.99 1627.73 L2200.28 1643.20 L2233.69 1658.43 L2266.98 1673.52 L2300.39 1688.37 L2333.68 1702.98 L2367.09 1717.58 L2400.38 1731.81 L2433.79 1746.04 L2467.08 1760.03 L2500.49 1774.75 L2533.91 1789.36 L2567.19 1803.84 L2600.61 1818.07 L2633.90 1832.18 L2667.31 1846.04 L2700.60 1859.90 L2734.01 1873.51 L2767.30 1887.00 L2800.71 1900.36 L2834.12 1913.48 L2867.41 1926.60 L2900.82 1939.47 L2934.11 1952.22 L2967.53 1964.96 L3000.81 1977.46 L3034.23 1989.84 L3067.52 2002.09 L3100.93 2014.34 L3134.34 2026.35 L3167.63 2039.22 L3201.04 2051.96 L3234.33 2064.59 L3267.74 2077.08 L3301.03 2089.46 L3334.44 2101.71 L3367.73 2113.84 L3401.15 2125.84 L3434.43 2137.72 L3467.85 2149.60 L3501.26 2161.24 L3534.55 2172.87 L3567.96 2184.38 L3601.25 2195.64 L3634.66 2206.90 L3667.95 2218.16 L3701.36 2229.18 L3734.65 2240.19 L3768.06 2251.08 L3801.48 2261.85" stroke-linejoin="round" style="fill:none;stroke:#E41A1C;stroke-width:8.64"/>
	<defs>
		<path id="path_kIWqEVqz" d="M465.80 100.86 L465.80 100.86 L499.08 150.98 L532.50 222.14 L565.91 296.64 L599.20 369.53 L632.61 438.34 L665.90 502.44 L699.31 561.72 L732.60 616.91 L766.01 668.77 L799.30 717.90 L832.71 764.80 L866.00 809.47 L899.42 852.29 L932.83 893.38 L966.12 932.86 L999.53 970.85 L1032.82 1007.48 L1066.23 1042.75 L1099.52 1076.91 L1132.93 1109.95 L1166.22 1142.74 L1199.63 1174.42 L1233.05 1205.12 L1266.33 1234.82 L1299.75 1263.53 L1333.04 1291.25 L1366.45 1318.10 L1399.74 1344.09 L1433.15 1369.21 L1466.44 1393.47 L1499.85 1417.11 L1533.26 1440.00 L1566.55 1462.28 L1599.96 1483.93 L1633.25 1505.09 L1666.67 1525.76 L1699.95 1545.93 L1733.37 1565.73 L1766.66 1585.04 L1800.07 1603.97 L1833.36 1623.28 L1866.77 1642.21 L1900.18 1660.90 L1933.47 1679.22 L1966.88 1697.16 L2000.17 1714.86 L2033.58 1732.18 L2066.87 1749.26 L2100.29 1766.09 L2133.57 1782.67 L2166.99 1799.01 L2200.40 1815.10 L2233.69 1830.94 L2267.10 1846.53 L2300.39 1861.88 L2333.80 1877.10 L2367.09 1891.95 L2400.50 1906.80 L2433.79 1921.28 L2467.20 1935.76 L2500.62 1950.61 L2533.91 1965.34 L2567.32 1979.94 L2600.61 1994.29 L2634.02 2008.53 L2667.31 2022.51 L2700.72 2036.37 L2734.01 2050.11 L2767.42 2063.72 L2800.71 2077.21 L2834.12 2090.45 L2867.54 2103.69 L2900.82 2116.69 L2934.24 2129.68 L2967.53 2142.43 L3000.94 2155.05 L3034.23 2167.67 L3067.64 2180.05 L3100.93 2192.42 L3134.34 2204.68 L3167.75 2217.42 L3201.04 2230.04 L3234.45 2242.67 L3267.74 2255.04 L3301.16 2267.42 L3334.44 2279.55 L3367.86 2291.67 L3401.15 2303.68 L3434.56 2315.56 L3467.97 2327.44 L3501.26 2339.07 L3534.67 2350.70 L3567.96 2362.21 L3601.37 2373.60 L3634.66 2384.86 L3668.07 2396.00 L3701.36 2407.14 L3734.78 2418.15 L3768.06 2429.04 L3801.48 2439.93 L3801.48 2340.43 L3768.06 2330.29 L3734.78 2320.01 L3701.36 2309.74 L3668.07 2299.35 L3634.66 2288.83 L3601.37 2278.18 L3567.96 2267.42 L3534.67 2256.53 L3501.26 2245.64 L3467.97 2234.50 L3434.56 2223.36 L3401.15 2211.98 L3367.86 2200.59 L3334.44 2188.96 L3301.16 2177.33 L3267.74 2165.45 L3234.45 2153.56 L3201.04 2141.44 L3167.75 2129.19 L3134.34 2116.81 L3100.93 2105.05 L3067.64 2093.05 L3034.23 2081.05 L3000.94 2068.79 L2967.53 2056.54 L2934.24 2044.04 L2900.82 2031.30 L2867.54 2018.55 L2834.12 2005.56 L2800.71 1992.44 L2767.42 1979.20 L2734.01 1965.83 L2700.72 1952.22 L2667.31 1938.48 L2634.02 1924.50 L2600.61 1910.39 L2567.32 1896.16 L2533.91 1881.68 L2500.62 1867.07 L2467.20 1852.22 L2433.79 1837.87 L2400.50 1823.51 L2367.09 1808.79 L2333.80 1793.94 L2300.39 1778.96 L2267.10 1763.74 L2233.69 1748.39 L2200.40 1732.68 L2166.99 1716.96 L2133.57 1700.87 L2100.29 1684.66 L2066.87 1668.20 L2033.58 1651.50 L2000.17 1634.42 L1966.88 1617.22 L1933.47 1599.64 L1900.18 1581.82 L1866.77 1563.63 L1833.36 1545.07 L1800.07 1526.13 L1766.66 1507.57 L1733.37 1488.64 L1699.95 1469.33 L1666.67 1449.41 L1633.25 1429.11 L1599.96 1408.20 L1566.55 1386.79 L1533.26 1364.76 L1499.85 1342.11 L1466.44 1318.72 L1433.15 1294.71 L1399.74 1270.09 L1366.45 1244.72 L1333.04 1218.48 L1299.75 1191.50 L1266.33 1163.53 L1233.05 1134.82 L1199.63 1105.00 L1166.22 1074.18 L1132.93 1042.26 L1099.52 1009.96 L1066.23 976.54 L1032.82 941.89 L999.53 906.00 L966.12 869.00 L932.83 830.76 L899.42 791.28 L866.00 750.32 L832.71 707.62 L799.30 662.95 L766.01 615.92 L732.60 566.17 L699.31 513.21 L665.90 456.65 L632.61 396.51 L599.20 332.77 L565.91 266.19 L532.50 198.75 L499.08 136.75 L465.80 100.86 L465.80 100.86 Z" stroke-linejoin="round"/>
	</defs>
	<defs>
		<clipPath id="clipPath_aoJrwRvq">
			<use xlink:href="#path_kIWqEVqz"/>
		</clipPath>
	</defs>
	<use xlink:href="#path_kIWqEVqz" style="stroke:none;fill:#5F98C6;fill-opacity:0.30"/>
	<use xlink:href="#path_kIWqEVqz" style="fill:none;stroke:#377EB8;stroke-opacity:0.30;stroke-width:17.28" clip-path="url(#clipPath_aoJrwRvq)"/>
	<path d=" M465.67 100.86 L499.08 143.93 L532.37 210.51 L565.79 281.54 L599.20 351.21 L632.49 417.55 L665.90 479.67 L699.19 537.59 L732.60 591.67 L765.89 642.53 L799.30 690.55 L832.59 736.34 L866.00 780.02 L899.42 821.97 L932.70 862.32 L966.12 901.18 L999.41 938.67 L1032.82 974.81 L1066.11 1009.83 L1099.52 1043.62 L1132.81 1076.29 L1166.22 1108.59 L1199.63 1139.90 L1232.92 1170.22 L1266.33 1199.42 L1299.62 1227.76 L1333.04 1255.11 L1366.32 1281.72 L1399.74 1307.34 L1433.03 1332.21 L1466.44 1356.34 L1499.73 1379.86 L1533.14 1402.63 L1566.55 1424.78 L1599.84 1446.31 L1633.25 1467.35 L1666.54 1487.89 L1699.95 1507.94 L1733.24 1527.49 L1766.66 1546.55 L1799.94 1565.36 L1833.36 1584.42 L1866.77 1603.23 L1900.06 1621.67 L1933.47 1639.74 L1966.76 1657.44 L2000.17 1675.01 L2033.46 1692.09 L2066.87 1709.04 L2100.16 1725.75 L2133.57 1742.08 L2166.99 1758.29 L2200.28 1774.26 L2233.69 1789.98 L2266.98 1805.45 L2300.39 1820.79 L2333.68 1835.89 L2367.09 1850.74 L2400.38 1865.47 L2433.79 1879.94 L2467.08 1894.30 L2500.49 1909.15 L2533.91 1923.88 L2567.19 1938.36 L2600.61 1952.71 L2633.90 1966.82 L2667.31 1980.80 L2700.60 1994.66 L2734.01 2008.40 L2767.30 2021.89 L2800.71 2035.26 L2834.12 2048.37 L2867.41 2061.49 L2900.82 2074.36 L2934.11 2087.23 L2967.53 2099.86 L3000.81 2112.35 L3034.23 2124.73 L3067.52 2136.98 L3100.93 2149.11 L3134.34 2161.11 L3167.63 2173.74 L3201.04 2186.24 L3234.33 2198.49 L3267.74 2210.74 L3301.03 2222.74 L3334.44 2234.75 L3367.73 2246.63 L3401.15 2258.26 L3434.43 2269.89 L3467.85 2281.40 L3501.26 2292.79 L3534.55 2304.05 L3567.96 2315.31 L3601.25 2326.33 L3634.66 2337.34 L3667.95 2348.23 L3701.36 2359.00 L3734.65 2369.64 L3768.06 2380.28 L3801.48 2390.68" stroke-linejoin="round" style="fill:none;stroke:#377EB8;stroke-width:8.64"/>
	<line x1="465.80" y1="2489.19" x2="465.80" y2="100.86" style="stroke:#000000;stroke-width:5.76"/>
	<line x1="465.80" y1="2489.19" x2="425.82" y2="2489.19" style="stroke:#000000;stroke-width:5.76"/>
	<text x="405.78" y="2524.21" style="font-family:'Helvetica';font-size:99.99px;fill:#000000" text-anchor="end">0.5</text>
	<line x1="465.80" y1="2011.50" x2="425.82" y2="2011.50" style="stroke:#000000;stroke-width:5.76"/>
	<text x="405.78" y="2046.52" style="font-family:'Helvetica';font-size:99.99px;fill:#000000" text-anchor="end">0.6</text>
	<line x1="465.80" y1="1533.81" x2="425.82" y2="1533.81" style="stroke:#000000;stroke-width:5.76"/>
	<text x="405.78" y="1568.83" style="font-family:'Helvetica';font-size:99.99px;fill:#000000" text-anchor="end">0.7</text>
	<line x1="465.80" y1="1056.12" x2="425.82" y2="1056.12" style="stroke:#000000;stroke-width:5.76"/>
	<text x="405.78" y="1091.14" style="font-family:'Helvetica';font-size:99.99px;fill:#000000" text-anchor="end">0.8</text>
	<line x1="465.80" y1="578.43" x2="425.82" y2="578.43" style="stroke:#000000;stroke-width:5.76"/>
	<text x="405.78" y="613.45" style="font-family:'Helvetica';font-size:99.99px;fill:#000000" text-anchor="end">0.9</text>
	<line x1="465.80" y1="100.86" x2="425.82" y2="100.86" style="stroke:#000000;stroke-width:5.76"/>
	<text x="405.78" y="135.89" style="font-family:'Helvetica';font-size:99.99px;fill:#000000" text-anchor="end">1.0</text>
	<text x="190.71" y="1294.96" style="font-family:'Helvetica';font-size:99.99px;fill:#000000" transform="rotate(-90 190.71,1294.96)" text-anchor="middle">Marginal All cause Survival</text>
	<line x1="465.80" y1="2489.19" x2="3859.02" y2="2489.19" style="stroke:#000000;stroke-width:5.76"/>
	<line x1="465.80" y1="2489.19" x2="465.80" y2="2529.16" style="stroke:#000000;stroke-width:5.76"/>
	<text x="465.80" y="2619.14" style="font-family:'Helvetica';font-size:99.99px;fill:#000000" text-anchor="middle">0</text>
	<line x1="1132.93" y1="2489.19" x2="1132.93" y2="2529.16" style="stroke:#000000;stroke-width:5.76"/>
	<text x="1132.93" y="2619.14" style="font-family:'Helvetica';font-size:99.99px;fill:#000000" text-anchor="middle">1</text>
	<line x1="1800.07" y1="2489.19" x2="1800.07" y2="2529.16" style="stroke:#000000;stroke-width:5.76"/>
	<text x="1800.07" y="2619.14" style="font-family:'Helvetica';font-size:99.99px;fill:#000000" text-anchor="middle">2</text>
	<line x1="2467.20" y1="2489.19" x2="2467.20" y2="2529.16" style="stroke:#000000;stroke-width:5.76"/>
	<text x="2467.20" y="2619.14" style="font-family:'Helvetica';font-size:99.99px;fill:#000000" text-anchor="middle">3</text>
	<line x1="3134.34" y1="2489.19" x2="3134.34" y2="2529.16" style="stroke:#000000;stroke-width:5.76"/>
	<text x="3134.34" y="2619.14" style="font-family:'Helvetica';font-size:99.99px;fill:#000000" text-anchor="middle">4</text>
	<line x1="3801.48" y1="2489.19" x2="3801.48" y2="2529.16" style="stroke:#000000;stroke-width:5.76"/>
	<text x="3801.48" y="2619.14" style="font-family:'Helvetica';font-size:99.99px;fill:#000000" text-anchor="middle">5</text>
	<text x="2162.41" y="2729.16" style="font-family:'Helvetica';font-size:99.99px;fill:#000000" text-anchor="middle">Years from diagnosis</text>
	<rect x="3089.30" y="135.39" width="735.20" height="257.28" style="fill:#FFFFFF"/>
	<rect x="3092.17" y="138.27" width="729.44" height="251.52" style="fill:none;stroke:#FFFFFF;stroke-width:5.76"/>
	<line x1="3097.96" y1="194.05" x2="3297.94" y2="194.05" style="stroke:#E41A1C;stroke-width:8.64"/>
	<line x1="3097.96" y1="334.01" x2="3297.94" y2="334.01" style="stroke:#377EB8;stroke-width:8.64"/>
	<text x="3357.96" y="229.07" style="font-family:'Helvetica';font-size:99.99px;fill:#000000">Country A</text>
	<text x="3357.96" y="369.04" style="font-family:'Helvetica';font-size:99.99px;fill:#000000">Country B</text>
</svg>
