<?xml version="1.0" encoding="UTF-8" standalone="no"?>
<!-- This is a Stata 18.5 generated SVG file (http://www.stata.com) -->

<svg version="1.1" width="700px" height="509px" viewBox="0 0 3960 2880" xmlns="http://www.w3.org/2000/svg" xmlns:xlink="http://www.w3.org/1999/xlink">
	<desc>Stata Graph - RS</desc>
	<rect x="0" y="0" width="3960" height="2880" style="fill:#FFFFFF;stroke:none"/>
	<rect x="0.00" y="0.00" width="3959.88" height="2880.00" style="fill:#FFFFFF"/>
	<rect x="2.88" y="2.88" width="3954.12" height="2874.24" style="fill:none;stroke:#FFFFFF;stroke-width:5.76"/>
	<line x1="465.80" y1="2489.19" x2="3859.02" y2="2489.19" style="stroke:#C0C0C0;stroke-opacity:0.50;stroke-width:5.76"/>
	<line x1="465.80" y1="2011.50" x2="3859.02" y2="2011.50" style="stroke:#C0C0C0;stroke-opacity:0.50;stroke-width:5.76"/>
	<line x1="465.80" y1="1533.81" x2="3859.02" y2="1533.81" style="stroke:#C0C0C0;stroke-opacity:0.50;stroke-width:5.76"/>
	<line x1="465.80" y1="1056.12" x2="3859.02" y2="1056.12" style="stroke:#C0C0C0;stroke-opacity:0.50;stroke-width:5.76"/>
	<line x1="465.80" y1="578.43" x2="3859.02" y2="578.43" style="stroke:#C0C0C0;stroke-opacity:0.50;stroke-width:5.76"/>
	<line x1="465.80" y1="100.86" x2="3859.02" y2="100.86" style="stroke:#C0C0C0;stroke-opacity:0.50;stroke-width:5.76"/>
	<line x1="465.80" y1="2489.19" x2="465.80" y2="100.86" style="stroke:#C0C0C0;stroke-opacity:0.50;stroke-width:5.76"/>
	<line x1="1132.93" y1="2489.19" x2="1132.93" y2="100.86" style="stroke:#C0C0C0;stroke-opacity:0.50;stroke-width:5.76"/>
	<line x1="1800.07" y1="2489.19" x2="1800.07" y2="100.86" style="stroke:#C0C0C0;stroke-opacity:0.50;stroke-width:5.76"/>
	<line x1="2467.20" y1="2489.19" x2="2467.20" y2="100.86" style="stroke:#C0C0C0;stroke-opacity:0.50;stroke-width:5.76"/>
	<line x1="3134.34" y1="2489.19" x2="3134.34" y2="100.86" style="stroke:#C0C0C0;stroke-opacity:0.50;stroke-width:5.76"/>
	<line x1="3801.48" y1="2489.19" x2="3801.48" y2="100.86" style="stroke:#C0C0C0;stroke-opacity:0.50;stroke-width:5.76"/>
	<defs>
		<path id="path_XDQgjUai" d="M465.80 100.86 L465.80 100.86 L499.08 144.79 L532.50 205.43 L565.91 268.79 L599.20 330.92 L632.61 390.69 L665.90 447.12 L699.31 500.34 L732.60 550.46 L766.01 597.85 L799.30 643.03 L832.71 686.22 L866.00 727.55 L899.42 767.27 L932.83 805.27 L966.12 841.90 L999.53 876.92 L1032.82 910.46 L1066.23 942.88 L1099.52 974.07 L1132.93 1004.14 L1166.22 1034.09 L1199.63 1063.05 L1233.05 1091.14 L1266.33 1118.36 L1299.75 1144.85 L1333.04 1170.46 L1366.45 1195.34 L1399.74 1219.47 L1433.15 1242.98 L1466.44 1265.75 L1499.85 1287.91 L1533.26 1309.56 L1566.55 1330.48 L1599.96 1351.02 L1633.25 1371.07 L1666.67 1390.50 L1699.95 1409.56 L1733.37 1428.24 L1766.66 1446.44 L1800.07 1464.38 L1833.36 1482.70 L1866.77 1500.64 L1900.18 1518.34 L1933.47 1535.79 L1966.88 1552.86 L2000.17 1569.57 L2033.58 1586.15 L2066.87 1602.49 L2100.29 1618.45 L2133.57 1634.29 L2166.99 1649.76 L2200.40 1665.11 L2233.69 1680.21 L2267.10 1695.18 L2300.39 1709.91 L2333.80 1724.39 L2367.09 1738.74 L2400.50 1752.97 L2433.79 1766.96 L2467.20 1780.69 L2500.62 1795.17 L2533.91 1809.41 L2567.32 1823.51 L2600.61 1837.50 L2634.02 1851.23 L2667.31 1864.85 L2700.72 1878.34 L2734.01 1891.70 L2767.42 1904.94 L2800.71 1917.94 L2834.12 1930.93 L2867.54 1943.68 L2900.82 1956.42 L2934.24 1969.05 L2967.53 1981.42 L3000.94 1993.80 L3034.23 2006.05 L3067.64 2018.18 L3100.93 2030.18 L3134.34 2042.06 L3167.75 2054.69 L3201.04 2067.18 L3234.45 2079.44 L3267.74 2091.69 L3301.16 2103.82 L3334.44 2115.94 L3367.86 2127.82 L3401.15 2139.70 L3434.56 2151.34 L3467.97 2162.97 L3501.26 2174.60 L3534.67 2185.99 L3567.96 2197.37 L3601.37 2208.64 L3634.66 2219.77 L3668.07 2230.79 L3701.36 2241.80 L3734.78 2252.69 L3768.06 2263.58 L3801.48 2274.22 L3801.48 2203.93 L3768.06 2193.78 L3734.78 2183.39 L3701.36 2172.99 L3668.07 2162.48 L3634.66 2151.96 L3601.37 2141.19 L3567.96 2130.42 L3534.67 2119.53 L3501.26 2108.52 L3467.97 2097.38 L3434.56 2086.12 L3401.15 2074.86 L3367.86 2063.35 L3334.44 2051.84 L3301.16 2040.08 L3267.74 2028.33 L3234.45 2016.45 L3201.04 2004.32 L3167.75 1992.19 L3134.34 1979.81 L3100.93 1968.18 L3067.64 1956.42 L3034.23 1944.54 L3000.94 1932.54 L2967.53 1920.41 L2934.24 1908.16 L2900.82 1895.79 L2867.54 1883.29 L2834.12 1870.54 L2800.71 1857.79 L2767.42 1844.80 L2734.01 1831.68 L2700.72 1818.44 L2667.31 1805.07 L2634.02 1791.46 L2600.61 1777.85 L2567.32 1763.99 L2533.91 1749.88 L2500.62 1735.77 L2467.20 1721.42 L2433.79 1707.68 L2400.50 1693.82 L2367.09 1679.71 L2333.80 1665.60 L2300.39 1651.12 L2267.10 1636.64 L2233.69 1621.92 L2200.40 1607.07 L2166.99 1591.97 L2133.57 1576.62 L2100.29 1561.16 L2066.87 1545.31 L2033.58 1529.35 L2000.17 1513.14 L1966.88 1496.68 L1933.47 1479.85 L1900.18 1462.77 L1866.77 1445.45 L1833.36 1427.62 L1800.07 1409.56 L1766.66 1391.98 L1733.37 1373.92 L1699.95 1355.48 L1666.67 1336.67 L1633.25 1317.36 L1599.96 1297.44 L1566.55 1277.14 L1533.26 1256.35 L1499.85 1235.06 L1466.44 1213.16 L1433.15 1190.64 L1399.74 1167.62 L1366.45 1143.86 L1333.04 1119.60 L1299.75 1094.48 L1266.33 1068.74 L1233.05 1042.01 L1199.63 1014.53 L1166.22 986.07 L1132.93 956.62 L1099.52 927.04 L1066.23 896.35 L1032.82 864.54 L999.53 831.63 L966.12 797.35 L932.83 761.83 L899.42 725.07 L866.00 686.83 L832.71 646.99 L799.30 605.28 L766.01 561.47 L732.60 515.56 L699.31 467.05 L665.90 415.94 L632.61 362.23 L599.20 306.04 L565.91 247.88 L532.50 189.22 L499.08 134.77 L465.80 100.86 L465.80 100.86 Z" stroke-linejoin="round"/>
	</defs>
	<defs>
		<clipPath id="clipPath_hfhbLhUm">
			<use xlink:href="#path_XDQgjUai"/>
		</clipPath>
	</defs>
	<use xlink:href="#path_XDQgjUai" style="stroke:none;fill:#E94849;fill-opacity:0.30"/>
	<use xlink:href="#path_XDQgjUai" style="fill:none;stroke:#E41A1C;stroke-opacity:0.30;stroke-width:17.28" clip-path="url(#clipPath_hfhbLhUm)"/>
	<path d=" M465.67 100.86 L499.08 139.84 L532.37 197.39 L565.79 258.40 L599.20 318.54 L632.49 376.46 L665.90 431.65 L699.19 483.75 L732.60 533.13 L765.89 579.79 L799.30 624.21 L832.59 666.66 L866.00 707.25 L899.42 746.24 L932.70 783.73 L966.12 819.75 L999.41 854.40 L1032.82 887.69 L1066.11 919.74 L1099.52 950.68 L1132.81 980.50 L1166.22 1010.20 L1199.63 1038.91 L1232.92 1066.76 L1266.33 1093.61 L1299.62 1119.85 L1333.04 1145.09 L1366.32 1169.72 L1399.74 1193.73 L1433.03 1217.00 L1466.44 1239.64 L1499.73 1261.67 L1533.14 1283.08 L1566.55 1303.99 L1599.84 1324.41 L1633.25 1344.34 L1666.54 1363.77 L1699.95 1382.70 L1733.24 1401.27 L1766.66 1419.33 L1799.94 1437.15 L1833.36 1455.35 L1866.77 1473.17 L1900.06 1490.74 L1933.47 1507.94 L1966.76 1524.90 L2000.17 1541.60 L2033.46 1557.94 L2066.87 1574.03 L2100.16 1589.99 L2133.57 1605.58 L2166.99 1621.05 L2200.28 1636.27 L2233.69 1651.25 L2266.98 1666.10 L2300.39 1680.70 L2333.68 1695.18 L2367.09 1709.41 L2400.38 1723.52 L2433.79 1737.50 L2467.08 1751.24 L2500.49 1765.60 L2533.91 1779.83 L2567.19 1793.94 L2600.61 1807.80 L2633.90 1821.53 L2667.31 1835.15 L2700.60 1848.64 L2734.01 1861.88 L2767.30 1874.99 L2800.71 1888.11 L2834.12 1900.98 L2867.41 1913.73 L2900.82 1926.35 L2934.11 1938.85 L2967.53 1951.23 L3000.81 1963.36 L3034.23 1975.48 L3067.52 1987.49 L3100.93 1999.49 L3134.34 2011.25 L3167.63 2023.62 L3201.04 2036.00 L3234.33 2048.13 L3267.74 2060.25 L3301.03 2072.26 L3334.44 2084.14 L3367.73 2095.90 L3401.15 2107.53 L3434.43 2119.04 L3467.85 2130.42 L3501.26 2141.81 L3534.55 2152.95 L3567.96 2164.08 L3601.25 2175.22 L3634.66 2186.11 L3667.95 2197.00 L3701.36 2207.65 L3734.65 2218.41 L3768.06 2228.93 L3801.48 2239.45" stroke-linejoin="round" style="fill:none;stroke:#E41A1C;stroke-width:8.64"/>
	<defs>
		<path id="path_dcvKAmtg" d="M465.80 100.86 L465.80 100.86 L499.08 150.98 L532.50 222.14 L565.91 296.64 L599.20 369.53 L632.61 438.34 L665.90 502.44 L699.31 561.72 L732.60 616.91 L766.01 668.77 L799.30 717.90 L832.71 764.80 L866.00 809.47 L899.42 852.29 L932.83 893.38 L966.12 932.86 L999.53 970.85 L1032.82 1007.48 L1066.23 1042.75 L1099.52 1076.91 L1132.93 1109.95 L1166.22 1142.74 L1199.63 1174.42 L1233.05 1205.12 L1266.33 1234.82 L1299.75 1263.53 L1333.04 1291.25 L1366.45 1318.10 L1399.74 1344.09 L1433.15 1369.21 L1466.44 1393.47 L1499.85 1417.11 L1533.26 1440.00 L1566.55 1462.28 L1599.96 1483.93 L1633.25 1505.09 L1666.67 1525.76 L1699.95 1545.93 L1733.37 1565.73 L1766.66 1585.04 L1800.07 1603.97 L1833.36 1623.28 L1866.77 1642.21 L1900.18 1660.90 L1933.47 1679.22 L1966.88 1697.16 L2000.17 1714.86 L2033.58 1732.18 L2066.87 1749.26 L2100.29 1766.09 L2133.57 1782.67 L2166.99 1799.01 L2200.40 1815.10 L2233.69 1830.94 L2267.10 1846.53 L2300.39 1861.88 L2333.80 1877.10 L2367.09 1891.95 L2400.50 1906.80 L2433.79 1921.28 L2467.20 1935.76 L2500.62 1950.61 L2533.91 1965.34 L2567.32 1979.94 L2600.61 1994.29 L2634.02 2008.53 L2667.31 2022.51 L2700.72 2036.37 L2734.01 2050.11 L2767.42 2063.72 L2800.71 2077.21 L2834.12 2090.45 L2867.54 2103.69 L2900.82 2116.69 L2934.24 2129.68 L2967.53 2142.43 L3000.94 2155.05 L3034.23 2167.67 L3067.64 2180.05 L3100.93 2192.42 L3134.34 2204.68 L3167.75 2217.42 L3201.04 2230.04 L3234.45 2242.67 L3267.74 2255.04 L3301.16 2267.42 L3334.44 2279.55 L3367.86 2291.67 L3401.15 2303.68 L3434.56 2315.56 L3467.97 2327.44 L3501.26 2339.07 L3534.67 2350.70 L3567.96 2362.21 L3601.37 2373.60 L3634.66 2384.86 L3668.07 2396.00 L3701.36 2407.14 L3734.78 2418.15 L3768.06 2429.04 L3801.48 2439.93 L3801.48 2340.43 L3768.06 2330.29 L3734.78 2320.01 L3701.36 2309.74 L3668.07 2299.35 L3634.66 2288.83 L3601.37 2278.18 L3567.96 2267.42 L3534.67 2256.53 L3501.26 2245.64 L3467.97 2234.50 L3434.56 2223.36 L3401.15 2211.98 L3367.86 2200.59 L3334.44 2188.96 L3301.16 2177.33 L3267.74 2165.45 L3234.45 2153.56 L3201.04 2141.44 L3167.75 2129.19 L3134.34 2116.81 L3100.93 2105.05 L3067.64 2093.05 L3034.23 2081.05 L3000.94 2068.79 L2967.53 2056.54 L2934.24 2044.04 L2900.82 2031.30 L2867.54 2018.55 L2834.12 2005.56 L2800.71 1992.44 L2767.42 1979.20 L2734.01 1965.83 L2700.72 1952.22 L2667.31 1938.48 L2634.02 1924.50 L2600.61 1910.39 L2567.32 1896.16 L2533.91 1881.68 L2500.62 1867.07 L2467.20 1852.22 L2433.79 1837.87 L2400.50 1823.51 L2367.09 1808.79 L2333.80 1793.94 L2300.39 1778.96 L2267.10 1763.74 L2233.69 1748.39 L2200.40 1732.68 L2166.99 1716.96 L2133.57 1700.87 L2100.29 1684.66 L2066.87 1668.20 L2033.58 1651.50 L2000.17 1634.42 L1966.88 1617.22 L1933.47 1599.64 L1900.18 1581.82 L1866.77 1563.63 L1833.36 1545.07 L1800.07 1526.13 L1766.66 1507.57 L1733.37 1488.64 L1699.95 1469.33 L1666.67 1449.41 L1633.25 1429.11 L1599.96 1408.20 L1566.55 1386.79 L1533.26 1364.76 L1499.85 1342.11 L1466.44 1318.72 L1433.15 1294.71 L1399.74 1270.09 L1366.45 1244.72 L1333.04 1218.48 L1299.75 1191.50 L1266.33 1163.53 L1233.05 1134.82 L1199.63 1105.00 L1166.22 1074.18 L1132.93 1042.26 L1099.52 1009.96 L1066.23 976.54 L1032.82 941.89 L999.53 906.00 L966.12 869.00 L932.83 830.76 L899.42 791.28 L866.00 750.32 L832.71 707.62 L799.30 662.95 L766.01 615.92 L732.60 566.17 L699.31 513.21 L665.90 456.65 L632.61 396.51 L599.20 332.77 L565.91 266.19 L532.50 198.75 L499.08 136.75 L465.80 100.86 L465.80 100.86 Z" stroke-linejoin="round"/>
	</defs>
	<defs>
		<clipPath id="clipPath_wqBlEzsK">
			<use xlink:href="#path_dcvKAmtg"/>
		</clipPath>
	</defs>
	<use xlink:href="#path_dcvKAmtg" style="stroke:none;fill:#5F98C6;fill-opacity:0.30"/>
	<use xlink:href="#path_dcvKAmtg" style="fill:none;stroke:#377EB8;stroke-opacity:0.30;stroke-width:17.28" clip-path="url(#clipPath_wqBlEzsK)"/>
	<path d=" M465.67 100.86 L499.08 143.93 L532.37 210.51 L565.79 281.54 L599.20 351.21 L632.49 417.55 L665.90 479.67 L699.19 537.59 L732.60 591.67 L765.89 642.53 L799.30 690.55 L832.59 736.34 L866.00 780.02 L899.42 821.97 L932.70 862.32 L966.12 901.18 L999.41 938.67 L1032.82 974.81 L1066.11 1009.83 L1099.52 1043.62 L1132.81 1076.29 L1166.22 1108.59 L1199.63 1139.90 L1232.92 1170.22 L1266.33 1199.42 L1299.62 1227.76 L1333.04 1255.11 L1366.32 1281.72 L1399.74 1307.34 L1433.03 1332.21 L1466.44 1356.34 L1499.73 1379.86 L1533.14 1402.63 L1566.55 1424.78 L1599.84 1446.31 L1633.25 1467.35 L1666.54 1487.89 L1699.95 1507.94 L1733.24 1527.49 L1766.66 1546.55 L1799.94 1565.36 L1833.36 1584.42 L1866.77 1603.23 L1900.06 1621.67 L1933.47 1639.74 L1966.76 1657.44 L2000.17 1675.01 L2033.46 1692.09 L2066.87 1709.04 L2100.16 1725.75 L2133.57 1742.08 L2166.99 1758.29 L2200.28 1774.26 L2233.69 1789.98 L2266.98 1805.45 L2300.39 1820.79 L2333.68 1835.89 L2367.09 1850.74 L2400.38 1865.47 L2433.79 1879.94 L2467.08 1894.30 L2500.49 1909.15 L2533.91 1923.88 L2567.19 1938.36 L2600.61 1952.71 L2633.90 1966.82 L2667.31 1980.80 L2700.60 1994.66 L2734.01 2008.40 L2767.30 2021.89 L2800.71 2035.26 L2834.12 2048.37 L2867.41 2061.49 L2900.82 2074.36 L2934.11 2087.23 L2967.53 2099.86 L3000.81 2112.35 L3034.23 2124.73 L3067.52 2136.98 L3100.93 2149.11 L3134.34 2161.11 L3167.63 2173.74 L3201.04 2186.24 L3234.33 2198.49 L3267.74 2210.74 L3301.03 2222.74 L3334.44 2234.75 L3367.73 2246.63 L3401.15 2258.26 L3434.43 2269.89 L3467.85 2281.40 L3501.26 2292.79 L3534.55 2304.05 L3567.96 2315.31 L3601.25 2326.33 L3634.66 2337.34 L3667.95 2348.23 L3701.36 2359.00 L3734.65 2369.64 L3768.06 2380.28 L3801.48 2390.68" stroke-linejoin="round" style="fill:none;stroke:#377EB8;stroke-width:8.64"/>
	<line x1="465.80" y1="2489.19" x2="465.80" y2="100.86" style="stroke:#000000;stroke-width:5.76"/>
	<line x1="465.80" y1="2489.19" x2="425.82" y2="2489.19" style="stroke:#000000;stroke-width:5.76"/>
	<text x="405.78" y="2524.21" style="font-family:'Helvetica';font-size:99.99px;fill:#000000" text-anchor="end">0.5</text>
	<line x1="465.80" y1="2011.50" x2="425.82" y2="2011.50" style="stroke:#000000;stroke-width:5.76"/>
	<text x="405.78" y="2046.52" style="font-family:'Helvetica';font-size:99.99px;fill:#000000" text-anchor="end">0.6</text>
	<line x1="465.80" y1="1533.81" x2="425.82" y2="1533.81" style="stroke:#000000;stroke-width:5.76"/>
	<text x="405.78" y="1568.83" style="font-family:'Helvetica';font-size:99.99px;fill:#000000" text-anchor="end">0.7</text>
	<line x1="465.80" y1="1056.12" x2="425.82" y2="1056.12" style="stroke:#000000;stroke-width:5.76"/>
	<text x="405.78" y="1091.14" style="font-family:'Helvetica';font-size:99.99px;fill:#000000" text-anchor="end">0.8</text>
	<line x1="465.80" y1="578.43" x2="425.82" y2="578.43" style="stroke:#000000;stroke-width:5.76"/>
	<text x="405.78" y="613.45" style="font-family:'Helvetica';font-size:99.99px;fill:#000000" text-anchor="end">0.9</text>
	<line x1="465.80" y1="100.86" x2="425.82" y2="100.86" style="stroke:#000000;stroke-width:5.76"/>
	<text x="405.78" y="135.89" style="font-family:'Helvetica';font-size:99.99px;fill:#000000" text-anchor="end">1.0</text>
	<text x="190.71" y="1294.96" style="font-family:'Helvetica';font-size:99.99px;fill:#000000" transform="rotate(-90 190.71,1294.96)" text-anchor="middle">Reference Adjusted All cause Survival</text>
	<line x1="465.80" y1="2489.19" x2="3859.02" y2="2489.19" style="stroke:#000000;stroke-width:5.76"/>
	<line x1="465.80" y1="2489.19" x2="465.80" y2="2529.16" style="stroke:#000000;stroke-width:5.76"/>
	<text x="465.80" y="2619.14" style="font-family:'Helvetica';font-size:99.99px;fill:#000000" text-anchor="middle">0</text>
	<line x1="1132.93" y1="2489.19" x2="1132.93" y2="2529.16" style="stroke:#000000;stroke-width:5.76"/>
	<text x="1132.93" y="2619.14" style="font-family:'Helvetica';font-size:99.99px;fill:#000000" text-anchor="middle">1</text>
	<line x1="1800.07" y1="2489.19" x2="1800.07" y2="2529.16" style="stroke:#000000;stroke-width:5.76"/>
	<text x="1800.07" y="2619.14" style="font-family:'Helvetica';font-size:99.99px;fill:#000000" text-anchor="middle">2</text>
	<line x1="2467.20" y1="2489.19" x2="2467.20" y2="2529.16" style="stroke:#000000;stroke-width:5.76"/>
	<text x="2467.20" y="2619.14" style="font-family:'Helvetica';font-size:99.99px;fill:#000000" text-anchor="middle">3</text>
	<line x1="3134.34" y1="2489.19" x2="3134.34" y2="2529.16" style="stroke:#000000;stroke-width:5.76"/>
	<text x="3134.34" y="2619.14" style="font-family:'Helvetica';font-size:99.99px;fill:#000000" text-anchor="middle">4</text>
	<line x1="3801.48" y1="2489.19" x2="3801.48" y2="2529.16" style="stroke:#000000;stroke-width:5.76"/>
	<text x="3801.48" y="2619.14" style="font-family:'Helvetica';font-size:99.99px;fill:#000000" text-anchor="middle">5</text>
	<text x="2162.41" y="2729.16" style="font-family:'Helvetica';font-size:99.99px;fill:#000000" text-anchor="middle">Years from diagnosis</text>
	<rect x="3089.30" y="135.39" width="735.20" height="257.28" style="fill:#FFFFFF"/>
	<rect x="3092.17" y="138.27" width="729.44" height="251.52" style="fill:none;stroke:#FFFFFF;stroke-width:5.76"/>
	<line x1="3097.96" y1="194.05" x2="3297.94" y2="194.05" style="stroke:#E41A1C;stroke-width:8.64"/>
	<line x1="3097.96" y1="334.01" x2="3297.94" y2="334.01" style="stroke:#377EB8;stroke-width:8.64"/>
	<text x="3357.96" y="229.07" style="font-family:'Helvetica';font-size:99.99px;fill:#000000">Country A</text>
	<text x="3357.96" y="369.04" style="font-family:'Helvetica';font-size:99.99px;fill:#000000">Country B</text>
</svg>
