<?xml version="1.0" encoding="UTF-8" standalone="no"?>
<!-- This is a Stata 18.5 generated SVG file (http://www.stata.com) -->

<svg version="1.1" width="700px" height="509px" viewBox="0 0 3960 2880" xmlns="http://www.w3.org/2000/svg" xmlns:xlink="http://www.w3.org/1999/xlink">
	<desc>Stata Graph - Graph</desc>
	<rect x="0" y="0" width="3960" height="2880" style="fill:#FFFFFF;stroke:none"/>
	<rect x="0.00" y="0.00" width="3959.88" height="2880.00" style="fill:#FFFFFF"/>
	<rect x="2.88" y="2.88" width="3954.12" height="2874.24" style="fill:none;stroke:#FFFFFF;stroke-width:5.76"/>
	<line x1="424.09" y1="2489.19" x2="3859.02" y2="2489.19" style="stroke:#C0C0C0;stroke-width:5.76"/>
	<line x1="424.09" y1="1935.76" x2="3859.02" y2="1935.76" style="stroke:#C0C0C0;stroke-width:5.76"/>
	<line x1="424.09" y1="1382.33" x2="3859.02" y2="1382.33" style="stroke:#C0C0C0;stroke-width:5.76"/>
	<line x1="424.09" y1="828.78" x2="3859.02" y2="828.78" style="stroke:#C0C0C0;stroke-width:5.76"/>
	<line x1="424.09" y1="275.35" x2="3859.02" y2="275.35" style="stroke:#C0C0C0;stroke-width:5.76"/>
	<line x1="424.09" y1="2489.19" x2="424.09" y2="275.35" style="stroke:#C0C0C0;stroke-width:5.76"/>
	<line x1="1099.64" y1="2489.19" x2="1099.64" y2="275.35" style="stroke:#C0C0C0;stroke-width:5.76"/>
	<line x1="1775.07" y1="2489.19" x2="1775.07" y2="275.35" style="stroke:#C0C0C0;stroke-width:5.76"/>
	<line x1="2450.50" y1="2489.19" x2="2450.50" y2="275.35" style="stroke:#C0C0C0;stroke-width:5.76"/>
	<line x1="3126.05" y1="2489.19" x2="3126.05" y2="275.35" style="stroke:#C0C0C0;stroke-width:5.76"/>
	<line x1="3801.48" y1="2489.19" x2="3801.48" y2="275.35" style="stroke:#C0C0C0;stroke-width:5.76"/>
	<path d=" M424.09 275.48 L424.09 275.48 L424.09 275.48 L542.40 275.48 L542.40 277.21 L603.41 277.21 L603.41 279.06 L610.83 279.06 L610.83 280.92 L684.83 280.92 L684.83 282.78 L703.27 282.78 L703.27 286.37 L706.98 286.37 L706.98 288.22 L727.40 288.22 L727.40 290.08 L767.99 290.08 L767.99 291.94 L790.27 291.94 L790.27 293.79 L801.28 293.79 L801.28 295.65 L812.42 295.65 L812.42 297.38 L816.13 297.38 L816.13 299.24 L821.70 299.24 L821.70 301.09 L825.41 301.09 L825.41 304.81 L836.43 304.81 L836.43 306.66 L845.71 306.66 L845.71 308.39 L851.28 308.39 L851.28 310.25 L853.13 310.25 L853.13 312.11 L866.00 312.11 L866.00 313.96 L895.58 313.96 L895.58 315.82 L897.44 315.82 L897.44 317.68 L906.72 317.68 L906.72 319.41 L916.00 319.41 L916.00 321.27 L927.01 321.27 L927.01 323.12 L928.87 323.12 L928.87 324.98 L930.72 324.98 L930.72 326.83 L943.72 326.83 L943.72 328.69 L954.86 328.69 L954.86 330.42 L971.44 330.42 L971.44 332.28 L975.15 332.28 L975.15 334.14 L977.01 334.14 L977.01 335.99 L990.00 335.99 L990.00 337.85 L991.86 337.85 L991.86 339.70 L997.30 339.70 L997.30 341.44 L1025.15 341.44 L1025.15 343.29 L1038.02 343.29 L1038.02 347.01 L1041.73 347.01 L1041.73 348.86 L1069.45 348.86 L1069.45 350.72 L1078.73 350.72 L1078.73 352.45 L1080.59 352.45 L1080.59 354.31 L1086.15 354.31 L1086.15 356.16 L1088.01 356.16 L1088.01 358.02 L1100.88 358.02 L1100.88 359.88 L1104.59 359.88 L1104.59 361.73 L1113.87 361.73 L1113.87 363.47 L1115.73 363.47 L1115.73 365.32 L1123.16 365.32 L1123.16 367.18 L1130.46 367.18 L1130.46 369.03 L1132.31 369.03 L1132.31 370.89 L1143.45 370.89 L1143.45 372.75 L1158.30 372.75 L1158.30 374.48 L1171.17 374.48 L1171.17 376.34 L1176.74 376.34 L1176.74 378.19 L1197.03 378.19 L1197.03 380.05 L1211.88 380.05 L1211.88 381.90 L1224.88 381.90 L1224.88 383.76 L1237.75 383.76 L1237.75 387.35 L1243.32 387.35 L1243.32 389.21 L1247.03 389.21 L1247.03 391.06 L1250.74 391.06 L1250.74 392.92 L1254.45 392.92 L1254.45 394.77 L1258.17 394.77 L1258.17 396.51 L1272.89 396.51 L1272.89 398.36 L1282.17 398.36 L1282.17 402.08 L1285.89 402.08 L1285.89 403.93 L1289.60 403.93 L1289.60 405.79 L1293.19 405.79 L1293.19 407.52 L1296.90 407.52 L1296.90 409.38 L1309.89 409.38 L1309.89 411.23 L1322.89 411.23 L1322.89 413.09 L1330.19 413.09 L1330.19 414.95 L1333.90 414.95 L1333.90 418.54 L1335.76 418.54 L1335.76 420.39 L1337.61 420.39 L1337.61 422.25 L1382.04 422.25 L1382.04 424.10 L1404.19 424.10 L1404.19 425.96 L1409.76 425.96 L1409.76 427.82 L1422.75 427.82 L1422.75 429.55 L1430.06 429.55 L1430.06 431.41 L1439.34 431.41 L1439.34 433.26 L1444.91 433.26 L1444.91 435.12 L1456.04 435.12 L1456.04 436.97 L1459.63 436.97 L1459.63 438.83 L1472.63 438.83 L1472.63 440.56 L1476.34 440.56 L1476.34 442.42 L1478.19 442.42 L1478.19 444.28 L1485.62 444.28 L1485.62 446.13 L1498.49 446.13 L1498.49 447.99 L1500.35 447.99 L1500.35 449.85 L1502.20 449.85 L1502.20 451.58 L1504.06 451.58 L1504.06 455.29 L1509.63 455.29 L1509.63 457.15 L1513.34 457.15 L1513.34 459.00 L1515.20 459.00 L1515.20 460.86 L1518.91 460.86 L1518.91 462.59 L1526.21 462.59 L1526.21 464.45 L1529.92 464.45 L1529.92 468.16 L1535.49 468.16 L1535.49 470.02 L1539.20 470.02 L1539.20 471.87 L1544.77 471.87 L1544.77 473.61 L1548.48 473.61 L1548.48 475.46 L1550.34 475.46 L1550.34 477.32 L1552.20 477.32 L1552.20 479.17 L1566.92 479.17 L1566.92 481.03 L1568.78 481.03 L1568.78 482.89 L1570.64 482.89 L1570.64 482.89 L1590.93 482.89 L1590.93 484.62 L1594.64 484.62 L1594.64 486.48 L1600.21 486.48 L1600.21 488.33 L1607.64 488.33 L1607.64 490.19 L1615.06 490.19 L1615.06 492.05 L1624.22 492.05 L1624.22 493.90 L1626.08 493.90 L1626.08 495.76 L1627.93 495.76 L1627.93 499.35 L1635.36 499.35 L1635.36 501.20 L1642.78 501.20 L1642.78 503.06 L1648.35 503.06 L1648.35 504.92 L1670.50 504.92 L1670.50 506.77 L1676.07 506.77 L1676.07 508.63 L1679.78 508.63 L1679.78 510.48 L1687.21 510.48 L1687.21 512.22 L1694.51 512.22 L1694.51 514.07 L1698.22 514.07 L1698.22 515.93 L1703.79 515.93 L1703.79 517.79 L1716.78 517.79 L1716.78 519.64 L1722.35 519.64 L1722.35 521.50 L1729.65 521.50 L1729.65 523.36 L1738.94 523.36 L1738.94 526.94 L1744.50 526.94 L1744.50 528.80 L1753.79 528.80 L1753.79 532.51 L1755.64 532.51 L1755.64 534.37 L1759.23 534.37 L1759.23 536.23 L1761.09 536.23 L1761.09 539.94 L1762.94 539.94 L1762.94 543.53 L1766.66 543.53 L1766.66 547.24 L1777.79 547.24 L1777.79 549.10 L1779.65 549.10 L1779.65 550.95 L1787.07 550.95 L1787.07 552.81 L1794.38 552.81 L1794.38 554.66 L1803.66 554.66 L1803.66 556.40 L1807.37 556.40 L1807.37 558.25 L1811.08 558.25 L1811.08 560.11 L1812.94 560.11 L1812.94 561.97 L1816.65 561.97 L1816.65 565.68 L1825.81 565.68 L1825.81 572.98 L1833.23 572.98 L1833.23 574.84 L1838.80 574.84 L1838.80 576.69 L1842.51 576.69 L1842.51 578.55 L1875.80 578.55 L1875.80 582.26 L1886.94 582.26 L1886.94 585.85 L1888.67 585.85 L1888.67 587.71 L1897.95 587.71 L1897.95 589.56 L1909.09 589.56 L1909.09 591.42 L1920.23 591.42 L1920.23 593.28 L1921.96 593.28 L1921.96 595.13 L1923.82 595.13 L1923.82 596.99 L1934.96 596.99 L1934.96 598.84 L1936.81 598.84 L1936.81 600.58 L1940.52 600.58 L1940.52 602.43 L1942.38 602.43 L1942.38 604.29 L1944.24 604.29 L1944.24 608.00 L1946.09 608.00 L1946.09 609.86 L1951.66 609.86 L1951.66 613.57 L1966.39 613.57 L1966.39 615.30 L1968.24 615.30 L1968.24 617.16 L1979.38 617.16 L1979.38 619.02 L1981.24 619.02 L1981.24 620.87 L1986.81 620.87 L1986.81 622.73 L1995.96 622.73 L1995.96 624.59 L1999.68 624.59 L1999.68 628.30 L2003.39 628.30 L2003.39 630.03 L2008.96 630.03 L2008.96 631.89 L2021.83 631.89 L2021.83 633.74 L2025.54 633.74 L2025.54 635.60 L2031.11 635.60 L2031.11 637.46 L2036.68 637.46 L2036.68 639.31 L2053.38 639.31 L2053.38 641.17 L2060.69 641.17 L2060.69 643.03 L2064.40 643.03 L2064.40 644.76 L2069.97 644.76 L2069.97 648.47 L2071.82 648.47 L2071.82 650.33 L2079.25 650.33 L2079.25 652.18 L2082.96 652.18 L2082.96 654.04 L2092.12 654.04 L2092.12 655.90 L2093.97 655.90 L2093.97 657.75 L2095.83 657.75 L2095.83 659.48 L2097.69 659.48 L2097.69 663.20 L2101.40 663.20 L2101.40 665.05 L2106.97 665.05 L2106.97 666.91 L2110.68 666.91 L2110.68 668.77 L2116.25 668.77 L2116.25 670.62 L2121.69 670.62 L2121.69 672.48 L2123.55 672.48 L2123.55 674.21 L2127.26 674.21 L2127.26 677.92 L2129.12 677.92 L2129.12 679.78 L2134.69 679.78 L2134.69 681.64 L2138.40 681.64 L2138.40 683.49 L2140.26 683.49 L2140.26 687.21 L2142.11 687.21 L2142.11 688.94 L2156.84 688.94 L2156.84 690.79 L2166.12 690.79 L2166.12 692.65 L2169.83 692.65 L2169.83 694.51 L2171.69 694.51 L2171.69 696.36 L2173.55 696.36 L2173.55 698.22 L2175.40 698.22 L2175.40 700.08 L2179.11 700.08 L2179.11 701.93 L2184.68 701.93 L2184.68 703.66 L2186.54 703.66 L2186.54 707.38 L2193.84 707.38 L2193.84 709.23 L2208.69 709.23 L2208.69 711.09 L2216.11 711.09 L2216.11 712.95 L2221.56 712.95 L2221.56 714.80 L2223.42 714.80 L2223.42 716.66 L2228.99 716.66 L2228.99 718.39 L2238.27 718.39 L2238.27 720.25 L2243.84 720.25 L2243.84 722.10 L2252.99 722.10 L2252.99 723.96 L2256.71 723.96 L2256.71 725.82 L2264.13 725.82 L2264.13 727.67 L2265.99 727.67 L2265.99 729.53 L2269.70 729.53 L2269.70 731.39 L2271.55 731.39 L2271.55 740.54 L2277.12 740.54 L2277.12 742.40 L2286.28 742.40 L2286.28 744.26 L2288.14 744.26 L2288.14 746.11 L2289.99 746.11 L2289.99 749.70 L2291.85 749.70 L2291.85 751.56 L2304.84 751.56 L2304.84 753.41 L2317.84 753.41 L2317.84 757.13 L2321.43 757.13 L2321.43 758.98 L2328.85 758.98 L2328.85 760.84 L2330.71 760.84 L2330.71 762.57 L2336.28 762.57 L2336.28 764.43 L2341.84 764.43 L2341.84 766.28 L2352.86 766.28 L2352.86 768.14 L2362.14 768.14 L2362.14 771.85 L2364.00 771.85 L2364.00 773.71 L2373.28 773.71 L2373.28 775.57 L2378.85 775.57 L2378.85 777.30 L2382.56 777.30 L2382.56 779.15 L2389.86 779.15 L2389.86 781.01 L2399.14 781.01 L2399.14 782.87 L2402.85 782.87 L2402.85 782.87 L2408.42 782.87 L2408.42 784.72 L2410.28 784.72 L2410.28 786.58 L2439.86 786.58 L2439.86 788.44 L2460.15 788.44 L2460.15 790.29 L2462.01 790.29 L2462.01 792.15 L2465.72 792.15 L2465.72 793.88 L2471.29 793.88 L2471.29 795.74 L2484.28 795.74 L2484.28 797.59 L2486.01 797.59 L2486.01 799.45 L2493.44 799.45 L2493.44 801.31 L2512.00 801.31 L2512.00 803.16 L2530.44 803.16 L2530.44 805.02 L2532.30 805.02 L2532.30 806.88 L2536.01 806.88 L2536.01 808.73 L2550.86 808.73 L2550.86 810.59 L2558.16 810.59 L2558.16 812.44 L2573.01 812.44 L2573.01 814.30 L2574.87 814.30 L2574.87 816.16 L2580.44 816.16 L2580.44 819.75 L2595.16 819.75 L2595.16 821.60 L2597.02 821.60 L2597.02 823.46 L2600.73 823.46 L2600.73 825.31 L2619.17 825.31 L2619.17 827.17 L2621.03 827.17 L2621.03 829.03 L2622.88 829.03 L2622.88 832.74 L2626.59 832.74 L2626.59 834.60 L2630.31 834.60 L2630.31 836.45 L2643.30 836.45 L2643.30 838.31 L2650.73 838.31 L2650.73 840.17 L2676.59 840.17 L2676.59 841.90 L2683.89 841.90 L2683.89 843.75 L2691.32 843.75 L2691.32 843.75 L2700.60 843.75 L2700.60 847.47 L2702.45 847.47 L2702.45 851.18 L2713.59 851.18 L2713.59 853.04 L2724.60 853.04 L2724.60 854.89 L2732.03 854.89 L2732.03 856.75 L2733.89 856.75 L2733.89 858.60 L2735.74 858.60 L2735.74 860.46 L2746.88 860.46 L2746.88 862.32 L2769.03 862.32 L2769.03 867.89 L2770.89 867.89 L2770.89 869.74 L2782.02 869.74 L2782.02 871.60 L2804.18 871.60 L2804.18 873.33 L2807.89 873.33 L2807.89 877.04 L2817.05 877.04 L2817.05 878.90 L2820.76 878.90 L2820.76 882.61 L2843.03 882.61 L2843.03 884.47 L2855.90 884.47 L2855.90 886.33 L2859.62 886.33 L2859.62 888.18 L2863.33 888.18 L2863.33 891.89 L2868.90 891.89 L2868.90 893.75 L2870.75 893.75 L2870.75 895.61 L2872.61 895.61 L2872.61 897.46 L2874.47 897.46 L2874.47 897.46 L2885.48 897.46 L2885.48 899.32 L2891.05 899.32 L2891.05 901.18 L2892.90 901.18 L2892.90 903.03 L2913.32 903.03 L2913.32 906.74 L2924.34 906.74 L2924.34 908.48 L2939.19 908.48 L2939.19 910.33 L2944.76 910.33 L2944.76 912.19 L2953.91 912.19 L2953.91 914.05 L2976.19 914.05 L2976.19 915.90 L2996.48 915.90 L2996.48 917.76 L2998.34 917.76 L2998.34 919.61 L3000.20 919.61 L3000.20 921.47 L3003.91 921.47 L3003.91 923.33 L3016.78 923.33 L3016.78 925.18 L3022.35 925.18 L3022.35 927.04 L3027.92 927.04 L3027.92 928.90 L3039.05 928.90 L3039.05 930.75 L3044.62 930.75 L3044.62 930.75 L3051.92 930.75 L3051.92 932.61 L3055.64 932.61 L3055.64 934.47 L3061.20 934.47 L3061.20 936.32 L3066.77 936.32 L3066.77 938.18 L3076.05 938.18 L3076.05 940.03 L3096.35 940.03 L3096.35 941.89 L3101.92 941.89 L3101.92 943.75 L3105.63 943.75 L3105.63 945.60 L3113.06 945.60 L3113.06 947.46 L3114.91 947.46 L3114.91 949.32 L3118.50 949.32 L3118.50 951.17 L3131.49 951.17 L3131.49 953.03 L3142.63 953.03 L3142.63 954.88 L3148.08 954.88 L3148.08 956.74 L3153.65 956.74 L3153.65 960.45 L3162.93 960.45 L3162.93 960.45 L3164.78 960.45 L3164.78 962.31 L3172.21 962.31 L3172.21 964.17 L3188.79 964.17 L3188.79 966.02 L3196.22 966.02 L3196.22 968.00 L3201.78 968.00 L3201.78 969.86 L3222.08 969.86 L3222.08 971.72 L3225.79 971.72 L3225.79 975.43 L3229.50 975.43 L3229.50 975.43 L3238.79 975.43 L3238.79 977.28 L3240.64 977.28 L3240.64 979.14 L3249.80 979.14 L3249.80 981.00 L3253.51 981.00 L3253.51 982.85 L3268.36 982.85 L3268.36 984.71 L3275.79 984.71 L3275.79 986.57 L3284.94 986.57 L3284.94 988.42 L3296.08 988.42 L3296.08 990.28 L3312.79 990.28 L3312.79 993.99 L3320.09 993.99 L3320.09 995.85 L3329.37 995.85 L3329.37 997.83 L3336.80 997.83 L3336.80 1001.54 L3349.67 1001.54 L3349.67 1003.40 L3351.52 1003.40 L3351.52 1003.40 L3368.23 1003.40 L3368.23 1005.25 L3375.65 1005.25 L3375.65 1007.11 L3379.37 1007.11 L3379.37 1008.97 L3382.95 1008.97 L3382.95 1010.82 L3384.81 1010.82 L3384.81 1012.68 L3395.95 1012.68 L3395.95 1014.53 L3399.66 1014.53 L3399.66 1016.39 L3410.80 1016.39 L3410.80 1018.37 L3421.81 1018.37 L3421.81 1020.23 L3429.24 1020.23 L3429.24 1022.08 L3436.66 1022.08 L3436.66 1025.80 L3464.38 1025.80 L3464.38 1027.65 L3466.24 1027.65 L3466.24 1029.51 L3473.66 1029.51 L3473.66 1031.36 L3480.96 1031.36 L3480.96 1035.20 L3490.25 1035.20 L3490.25 1035.20 L3493.96 1035.20 L3493.96 1037.06 L3512.52 1037.06 L3512.52 1038.91 L3516.11 1038.91 L3516.11 1040.77 L3517.97 1040.77 L3517.97 1044.48 L3523.53 1044.48 L3523.53 1044.48 L3527.25 1044.48 L3527.25 1044.48 L3530.96 1044.48 L3530.96 1046.34 L3538.38 1046.34 L3538.38 1048.20 L3543.95 1048.20 L3543.95 1048.20 L3547.54 1048.20 L3547.54 1050.18 L3556.82 1050.18 L3556.82 1052.03 L3562.39 1052.03 L3562.39 1052.03 L3566.10 1052.03 L3566.10 1053.89 L3569.82 1053.89 L3569.82 1055.74 L3580.83 1055.74 L3580.83 1057.60 L3591.97 1057.60 L3591.97 1057.60 L3606.82 1057.60 L3606.82 1057.60 L3608.67 1057.60 L3608.67 1059.58 L3610.53 1059.58 L3610.53 1061.44 L3617.83 1061.44 L3617.83 1063.29 L3621.54 1063.29 L3621.54 1065.15 L3627.11 1065.15 L3627.11 1067.13 L3628.97 1067.13 L3628.97 1068.99 L3634.54 1068.99 L3634.54 1070.84 L3638.25 1070.84 L3638.25 1070.84 L3640.11 1070.84 L3640.11 1072.70 L3643.82 1072.70 L3643.82 1072.70 L3645.55 1072.70 L3645.55 1074.68 L3649.26 1074.68 L3649.26 1076.53 L3654.83 1076.53 L3654.83 1076.53 L3660.40 1076.53 L3660.40 1078.39 L3669.68 1078.39 L3669.68 1080.37 L3684.41 1080.37 L3684.41 1082.23 L3701.12 1082.23 L3701.12 1082.23 L3715.84 1082.23 L3715.84 1084.08 L3721.41 1084.08 L3721.41 1084.08 L3725.12 1084.08 L3725.12 1084.08 L3734.40 1084.08 L3734.40 1084.08 L3739.97 1084.08 L3739.97 1084.08 L3741.83 1084.08 L3741.83 1087.92 L3743.69 1087.92 L3743.69 1089.78 L3752.84 1089.78 L3752.84 1091.76 L3756.56 1091.76 L3756.56 1093.61 L3775.12 1093.61 L3775.12 1095.59 L3776.97 1095.59 L3776.97 1095.59 L3778.71 1095.59 L3778.71 1097.45 L3782.42 1097.45 L3782.42 1099.31 L3784.28 1099.31 L3784.28 1101.29 L3786.13 1101.29 L3786.13 1103.14 L3801.48 1103.14 L3801.48 1103.14" stroke-linejoin="round" style="fill:none;stroke:#E41A1C;stroke-width:8.64"/>
	<path d=" M424.09 275.48 L424.09 275.48 L424.09 275.48 L507.25 275.48 L507.25 281.91 L560.96 281.91 L560.96 288.47 L610.83 288.47 L610.83 295.03 L657.11 295.03 L657.11 295.03 L751.41 295.03 L751.41 301.59 L877.14 301.59 L877.14 308.15 L995.45 308.15 L995.45 314.71 L1056.58 314.71 L1056.58 321.27 L1091.72 321.27 L1091.72 334.26 L1125.01 334.26 L1125.01 340.82 L1145.31 340.82 L1145.31 347.38 L1152.73 347.38 L1152.73 353.94 L1232.18 353.94 L1232.18 360.50 L1239.60 360.50 L1239.60 367.05 L1243.32 367.05 L1243.32 373.61 L1252.60 373.61 L1252.60 380.17 L1272.89 380.17 L1272.89 386.73 L1285.89 386.73 L1285.89 393.29 L1324.74 393.29 L1324.74 399.85 L1348.75 399.85 L1348.75 406.41 L1406.05 406.41 L1406.05 406.41 L1441.19 406.41 L1441.19 412.97 L1459.63 412.97 L1459.63 419.53 L1485.62 419.53 L1485.62 426.08 L1502.20 426.08 L1502.20 432.64 L1505.91 432.64 L1505.91 439.20 L1572.49 439.20 L1572.49 445.76 L1679.78 445.76 L1679.78 452.32 L1716.78 452.32 L1716.78 458.88 L1746.36 458.88 L1746.36 465.44 L1774.08 465.44 L1774.08 472.12 L1799.94 472.12 L1799.94 478.68 L1840.66 478.68 L1840.66 485.24 L1848.08 485.24 L1848.08 491.80 L1859.10 491.80 L1859.10 498.36 L1868.38 498.36 L1868.38 504.92 L1873.95 504.92 L1873.95 511.47 L1883.23 511.47 L1883.23 518.03 L1890.53 518.03 L1890.53 524.59 L1894.24 524.59 L1894.24 524.59 L1901.67 524.59 L1901.67 531.28 L1905.38 531.28 L1905.38 537.83 L1947.95 537.83 L1947.95 544.39 L1988.54 544.39 L1988.54 550.95 L1995.96 550.95 L1995.96 557.63 L1997.82 557.63 L1997.82 557.63 L1999.68 557.63 L1999.68 557.63 L2064.40 557.63 L2064.40 564.19 L2073.68 564.19 L2073.68 570.88 L2075.54 570.88 L2075.54 577.56 L2095.83 577.56 L2095.83 577.56 L2114.39 577.56 L2114.39 577.56 L2118.11 577.56 L2118.11 577.56 L2121.69 577.56 L2121.69 584.24 L2130.98 584.24 L2130.98 590.92 L2145.82 590.92 L2145.82 597.61 L2160.55 597.61 L2160.55 597.61 L2186.54 597.61 L2186.54 604.41 L2210.55 604.41 L2210.55 611.10 L2216.11 611.10 L2216.11 617.78 L2223.42 617.78 L2223.42 624.59 L2230.84 624.59 L2230.84 631.27 L2232.70 631.27 L2232.70 638.07 L2236.41 638.07 L2236.41 644.76 L2238.27 644.76 L2238.27 644.76 L2240.12 644.76 L2240.12 651.56 L2262.27 651.56 L2262.27 658.25 L2310.41 658.25 L2310.41 665.05 L2317.84 665.05 L2317.84 671.74 L2319.57 671.74 L2319.57 678.54 L2328.85 678.54 L2328.85 685.35 L2341.84 685.35 L2341.84 685.35 L2373.28 685.35 L2373.28 692.03 L2413.99 692.03 L2413.99 698.84 L2434.29 698.84 L2434.29 705.64 L2441.71 705.64 L2441.71 712.45 L2502.72 712.45 L2502.72 719.26 L2506.43 719.26 L2506.43 725.94 L2515.71 725.94 L2515.71 732.75 L2532.30 732.75 L2532.30 739.55 L2556.30 739.55 L2556.30 739.55 L2597.02 739.55 L2597.02 746.36 L2604.44 746.36 L2604.44 753.17 L2611.87 753.17 L2611.87 759.97 L2617.44 759.97 L2617.44 766.78 L2622.88 766.78 L2622.88 773.59 L2643.30 773.59 L2643.30 780.39 L2674.73 780.39 L2674.73 787.20 L2687.60 787.20 L2687.60 794.00 L2696.88 794.00 L2696.88 800.81 L2763.46 800.81 L2763.46 807.62 L2767.17 807.62 L2767.17 814.42 L2798.61 814.42 L2798.61 814.42 L2820.76 814.42 L2820.76 814.42 L2863.33 814.42 L2863.33 821.35 L2920.62 821.35 L2920.62 828.16 L2941.04 828.16 L2941.04 841.90 L2961.34 841.90 L2961.34 848.70 L2994.63 848.70 L2994.63 855.63 L3011.33 855.63 L3011.33 862.44 L3024.20 862.44 L3024.20 869.37 L3037.20 869.37 L3037.20 876.18 L3098.21 876.18 L3098.21 883.11 L3111.20 883.11 L3111.20 883.11 L3113.06 883.11 L3113.06 890.04 L3122.21 890.04 L3122.21 896.84 L3175.92 896.84 L3175.92 903.77 L3185.08 903.77 L3185.08 903.77 L3188.79 903.77 L3188.79 910.70 L3198.07 910.70 L3198.07 917.63 L3246.21 917.63 L3246.21 917.63 L3268.36 917.63 L3268.36 917.63 L3277.64 917.63 L3277.64 924.69 L3286.80 924.69 L3286.80 931.62 L3395.95 931.62 L3395.95 938.67 L3416.24 938.67 L3416.24 945.73 L3419.96 945.73 L3419.96 945.73 L3421.81 945.73 L3421.81 945.73 L3425.52 945.73 L3425.52 952.78 L3440.37 952.78 L3440.37 952.78 L3458.81 952.78 L3458.81 952.78 L3484.68 952.78 L3484.68 959.96 L3523.53 959.96 L3523.53 967.01 L3529.10 967.01 L3529.10 967.01 L3534.67 967.01 L3534.67 974.19 L3542.10 974.19 L3542.10 981.37 L3556.82 981.37 L3556.82 988.55 L3560.54 988.55 L3560.54 988.55 L3590.11 988.55 L3590.11 988.55 L3617.83 988.55 L3617.83 995.85 L3651.12 995.85 L3651.12 1003.15 L3652.98 1003.15 L3652.98 1010.45 L3664.11 1010.45 L3664.11 1010.45 L3671.54 1010.45 L3671.54 1017.75 L3680.70 1017.75 L3680.70 1025.05 L3689.98 1025.05 L3689.98 1025.05 L3693.69 1025.05 L3693.69 1032.48 L3695.55 1032.48 L3695.55 1032.48 L3701.12 1032.48 L3701.12 1039.78 L3702.97 1039.78 L3702.97 1039.78 L3708.54 1039.78 L3708.54 1047.33 L3712.13 1047.33 L3712.13 1047.33 L3730.69 1047.33 L3730.69 1047.33 L3749.13 1047.33 L3749.13 1047.33 L3750.99 1047.33 L3750.99 1047.33 L3760.27 1047.33 L3760.27 1054.88 L3778.71 1054.88 L3778.71 1062.55 L3793.56 1062.55 L3793.56 1062.55 L3797.27 1062.55 L3797.27 1070.22 L3801.48 1070.22 L3801.48 1070.22" stroke-linejoin="round" style="fill:none;stroke:#377EB8;stroke-width:8.64"/>
	<line x1="424.09" y1="2489.19" x2="424.09" y2="275.35" style="stroke:#000000;stroke-width:5.76"/>
	<line x1="424.09" y1="2489.19" x2="384.12" y2="2489.19" style="stroke:#000000;stroke-width:5.76"/>
	<text x="364.07" y="2524.21" style="font-family:'Helvetica';font-size:99.99px;fill:#000000" text-anchor="end">0.00</text>
	<line x1="424.09" y1="1935.76" x2="384.12" y2="1935.76" style="stroke:#000000;stroke-width:5.76"/>
	<text x="364.07" y="1970.79" style="font-family:'Helvetica';font-size:99.99px;fill:#000000" text-anchor="end">0.25</text>
	<line x1="424.09" y1="1382.33" x2="384.12" y2="1382.33" style="stroke:#000000;stroke-width:5.76"/>
	<text x="364.07" y="1417.36" style="font-family:'Helvetica';font-size:99.99px;fill:#000000" text-anchor="end">0.50</text>
	<line x1="424.09" y1="828.78" x2="384.12" y2="828.78" style="stroke:#000000;stroke-width:5.76"/>
	<text x="364.07" y="863.81" style="font-family:'Helvetica';font-size:99.99px;fill:#000000" text-anchor="end">0.75</text>
	<line x1="424.09" y1="275.35" x2="384.12" y2="275.35" style="stroke:#000000;stroke-width:5.76"/>
	<text x="364.07" y="310.38" style="font-family:'Helvetica';font-size:99.99px;fill:#000000" text-anchor="end">1.00</text>
	<line x1="424.09" y1="2489.19" x2="3859.02" y2="2489.19" style="stroke:#000000;stroke-width:5.76"/>
	<line x1="424.09" y1="2489.19" x2="424.09" y2="2529.16" style="stroke:#000000;stroke-width:5.76"/>
	<text x="424.09" y="2619.14" style="font-family:'Helvetica';font-size:99.99px;fill:#000000" text-anchor="middle">0</text>
	<line x1="1099.64" y1="2489.19" x2="1099.64" y2="2529.16" style="stroke:#000000;stroke-width:5.76"/>
	<text x="1099.64" y="2619.14" style="font-family:'Helvetica';font-size:99.99px;fill:#000000" text-anchor="middle">1</text>
	<line x1="1775.07" y1="2489.19" x2="1775.07" y2="2529.16" style="stroke:#000000;stroke-width:5.76"/>
	<text x="1775.07" y="2619.14" style="font-family:'Helvetica';font-size:99.99px;fill:#000000" text-anchor="middle">2</text>
	<line x1="2450.50" y1="2489.19" x2="2450.50" y2="2529.16" style="stroke:#000000;stroke-width:5.76"/>
	<text x="2450.50" y="2619.14" style="font-family:'Helvetica';font-size:99.99px;fill:#000000" text-anchor="middle">3</text>
	<line x1="3126.05" y1="2489.19" x2="3126.05" y2="2529.16" style="stroke:#000000;stroke-width:5.76"/>
	<text x="3126.05" y="2619.14" style="font-family:'Helvetica';font-size:99.99px;fill:#000000" text-anchor="middle">4</text>
	<line x1="3801.48" y1="2489.19" x2="3801.48" y2="2529.16" style="stroke:#000000;stroke-width:5.76"/>
	<text x="3801.48" y="2619.14" style="font-family:'Helvetica';font-size:99.99px;fill:#000000" text-anchor="middle">5</text>
	<text x="2141.62" y="2729.16" style="font-family:'Helvetica';font-size:99.99px;fill:#000000" text-anchor="middle">Analysis time</text>
	<line x1="2888.45" y1="403.07" x2="3088.43" y2="403.07" style="stroke:#E41A1C;stroke-width:8.64"/>
	<line x1="2888.45" y1="543.16" x2="3088.43" y2="543.16" style="stroke:#377EB8;stroke-width:8.64"/>
	<text x="3148.45" y="438.09" style="font-family:'Helvetica';font-size:99.99px;fill:#000000">hormon = no</text>
	<text x="3148.45" y="578.18" style="font-family:'Helvetica';font-size:99.99px;fill:#000000">hormon = yes</text>
	<text x="2141.62" y="215.98" style="font-family:'Helvetica';font-size:139.96px;fill:#000000" text-anchor="middle">Kaplan–Meier survival estimates</text>
</svg>
