<?xml version="1.0" encoding="UTF-8" standalone="no"?>
<!-- This is a Stata 18.5 generated SVG file (http://www.stata.com) -->

<svg version="1.1" width="700px" height="509px" viewBox="0 0 3960 2880" xmlns="http://www.w3.org/2000/svg" xmlns:xlink="http://www.w3.org/1999/xlink">
	<desc>Stata Graph - Graph</desc>
	<rect x="0" y="0" width="3960" height="2880" style="fill:#FFFFFF;stroke:none"/>
	<rect x="0.00" y="0.00" width="3959.88" height="2880.00" style="fill:#FFFFFF"/>
	<rect x="2.88" y="2.88" width="3954.12" height="2874.24" style="fill:none;stroke:#FFFFFF;stroke-width:5.76"/>
	<line x1="424.09" y1="2439.19" x2="3859.02" y2="2439.19" style="stroke:#C0C0C0;stroke-width:5.76"/>
	<line x1="424.09" y1="2069.29" x2="3859.02" y2="2069.29" style="stroke:#C0C0C0;stroke-width:5.76"/>
	<line x1="424.09" y1="1699.39" x2="3859.02" y2="1699.39" style="stroke:#C0C0C0;stroke-width:5.76"/>
	<line x1="424.09" y1="1329.49" x2="3859.02" y2="1329.49" style="stroke:#C0C0C0;stroke-width:5.76"/>
	<line x1="424.09" y1="959.59" x2="3859.02" y2="959.59" style="stroke:#C0C0C0;stroke-width:5.76"/>
	<line x1="424.09" y1="470.64" x2="3859.02" y2="470.64" style="stroke:#C0C0C0;stroke-width:5.76"/>
	<line x1="424.09" y1="100.86" x2="3859.02" y2="100.86" style="stroke:#C0C0C0;stroke-width:5.76"/>
	<line x1="424.09" y1="2489.19" x2="424.09" y2="100.86" style="stroke:#C0C0C0;stroke-width:5.76"/>
	<line x1="1099.64" y1="2489.19" x2="1099.64" y2="100.86" style="stroke:#C0C0C0;stroke-width:5.76"/>
	<line x1="1775.07" y1="2489.19" x2="1775.07" y2="100.86" style="stroke:#C0C0C0;stroke-width:5.76"/>
	<line x1="2450.50" y1="2489.19" x2="2450.50" y2="100.86" style="stroke:#C0C0C0;stroke-width:5.76"/>
	<line x1="3126.05" y1="2489.19" x2="3126.05" y2="100.86" style="stroke:#C0C0C0;stroke-width:5.76"/>
	<line x1="3801.48" y1="2489.19" x2="3801.48" y2="100.86" style="stroke:#C0C0C0;stroke-width:5.76"/>
	<defs>
		<path id="path_Bmgqhtyw" d="M458.25 2487.33 L458.25 2487.33 L492.40 2423.84 L526.43 2402.93 L560.59 2399.71 L594.74 2406.27 L628.77 2418.65 L662.93 2433.62 L697.08 2448.97 L731.12 2462.83 L765.27 2474.09 L799.43 2482.38 L833.46 2487.33 L867.61 2489.19 L901.77 2488.20 L935.80 2484.73 L969.95 2478.91 L1004.11 2471.24 L1038.14 2462.08 L1072.29 2451.44 L1106.45 2439.93 L1140.48 2427.80 L1174.64 2415.18 L1208.79 2402.43 L1242.82 2389.93 L1276.98 2377.81 L1311.13 2366.55 L1345.16 2356.15 L1379.32 2346.99 L1413.47 2339.20 L1447.50 2332.39 L1481.66 2326.33 L1515.81 2320.76 L1549.85 2315.56 L1584.00 2310.48 L1618.16 2305.53 L1652.19 2300.46 L1686.34 2295.51 L1720.50 2290.44 L1754.65 2285.24 L1788.68 2279.92 L1822.84 2274.47 L1856.99 2269.03 L1891.02 2263.46 L1925.18 2257.89 L1959.33 2252.32 L1993.37 2246.75 L2027.52 2241.43 L2061.68 2236.23 L2095.71 2231.41 L2129.86 2227.07 L2164.02 2223.11 L2198.05 2220.02 L2232.20 2217.55 L2266.36 2215.94 L2300.39 2215.19 L2334.54 2215.07 L2368.70 2215.69 L2402.73 2216.93 L2436.89 2218.66 L2471.04 2220.89 L2505.07 2223.49 L2539.23 2226.46 L2573.38 2229.67 L2607.41 2233.14 L2641.57 2236.73 L2675.72 2240.44 L2709.75 2244.28 L2743.91 2248.11 L2778.06 2251.95 L2812.10 2255.79 L2846.25 2259.62 L2880.41 2263.46 L2914.44 2267.29 L2948.59 2270.88 L2982.75 2274.60 L3016.90 2278.06 L3050.93 2281.53 L3085.09 2284.87 L3119.24 2288.21 L3153.27 2291.30 L3187.43 2294.40 L3221.58 2297.37 L3255.62 2300.21 L3289.77 2302.94 L3323.93 2305.53 L3357.96 2308.01 L3392.11 2310.36 L3426.27 2312.59 L3460.30 2314.82 L3494.45 2316.80 L3528.61 2318.78 L3562.64 2320.63 L3596.79 2322.37 L3630.95 2323.97 L3664.98 2325.46 L3699.14 2326.82 L3733.29 2328.18 L3767.32 2329.42 L3801.48 2330.53 L3801.48 1802.97 L3767.32 1805.45 L3733.29 1807.92 L3699.14 1810.52 L3664.98 1813.24 L3630.95 1816.09 L3596.79 1818.93 L3562.64 1821.90 L3528.61 1825.12 L3494.45 1828.34 L3460.30 1831.68 L3426.27 1835.15 L3392.11 1838.61 L3357.96 1842.32 L3323.93 1846.16 L3289.77 1850.00 L3255.62 1854.08 L3221.58 1858.16 L3187.43 1862.50 L3153.27 1866.83 L3119.24 1871.28 L3085.09 1875.98 L3050.93 1880.69 L3016.90 1885.39 L2982.75 1890.34 L2948.59 1895.29 L2914.44 1900.49 L2880.41 1905.56 L2846.25 1910.76 L2812.10 1916.08 L2778.06 1921.40 L2743.91 1926.72 L2709.75 1932.05 L2675.72 1937.37 L2641.57 1942.69 L2607.41 1947.76 L2573.38 1952.84 L2539.23 1957.66 L2505.07 1962.37 L2471.04 1966.70 L2436.89 1970.66 L2402.73 1974.25 L2368.70 1977.34 L2334.54 1979.94 L2300.39 1982.04 L2266.36 1983.53 L2232.20 1984.27 L2198.05 1984.52 L2164.02 1984.02 L2129.86 1983.65 L2095.71 1983.28 L2061.68 1983.16 L2027.52 1983.40 L1993.37 1984.15 L1959.33 1985.51 L1925.18 1987.49 L1891.02 1990.09 L1856.99 1993.67 L1822.84 1997.88 L1788.68 2003.08 L1754.65 2009.02 L1720.50 2015.95 L1686.34 2023.50 L1652.19 2031.79 L1618.16 2040.83 L1584.00 2050.48 L1549.85 2060.63 L1515.81 2071.39 L1481.66 2082.28 L1447.50 2093.42 L1413.47 2104.56 L1379.32 2115.20 L1345.16 2125.10 L1311.13 2133.76 L1276.98 2140.45 L1242.82 2145.64 L1208.79 2149.23 L1174.64 2151.46 L1140.48 2152.45 L1106.45 2152.33 L1072.29 2150.97 L1038.14 2148.61 L1004.11 2145.27 L969.95 2140.57 L935.80 2134.63 L901.77 2127.08 L867.61 2117.55 L833.46 2105.42 L799.43 2089.83 L765.27 2069.29 L731.12 2041.82 L697.08 2004.07 L662.93 1951.10 L628.77 1875.24 L594.74 1765.10 L560.59 1602.24 L526.43 1353.62 L492.40 946.35 L458.25 158.28 L458.25 2487.33 Z" stroke-linejoin="round"/>
	</defs>
	<defs>
		<clipPath id="clipPath_fYxlGNct">
			<use xlink:href="#path_Bmgqhtyw"/>
		</clipPath>
	</defs>
	<use xlink:href="#path_Bmgqhtyw" style="stroke:none;fill:#FF3333;fill-opacity:0.30"/>
	<use xlink:href="#path_Bmgqhtyw" style="fill:none;stroke:#FF0000;stroke-opacity:0.30;stroke-width:17.28" clip-path="url(#clipPath_fYxlGNct)"/>
	<path d=" M458.12 1322.81 L492.28 1685.16 L526.43 1878.34 L560.46 2001.10 L594.62 2085.75 L628.77 2147.01 L662.81 2192.42 L696.96 2226.58 L731.12 2252.44 L765.15 2271.75 L799.30 2286.11 L833.46 2296.38 L867.49 2303.43 L901.64 2307.76 L935.80 2309.74 L969.83 2309.87 L1003.98 2308.38 L1038.14 2305.41 L1072.29 2301.33 L1106.33 2296.13 L1140.48 2290.19 L1174.64 2283.38 L1208.67 2275.83 L1242.82 2267.79 L1276.98 2259.25 L1311.01 2250.22 L1345.16 2240.69 L1379.32 2231.16 L1413.35 2221.88 L1447.50 2212.97 L1481.66 2204.43 L1515.69 2196.14 L1549.85 2188.22 L1584.00 2180.54 L1618.03 2173.24 L1652.19 2166.19 L1686.34 2159.50 L1720.37 2153.19 L1754.53 2147.25 L1788.68 2141.56 L1822.71 2136.24 L1856.87 2131.41 L1891.02 2126.83 L1925.06 2122.75 L1959.21 2118.91 L1993.37 2115.57 L2027.40 2112.48 L2061.55 2109.76 L2095.71 2107.40 L2129.74 2105.42 L2163.89 2103.69 L2198.05 2102.33 L2232.08 2100.97 L2266.23 2099.86 L2300.39 2098.62 L2334.42 2097.63 L2368.57 2096.64 L2402.73 2095.65 L2436.89 2094.78 L2470.92 2093.79 L2505.07 2092.93 L2539.23 2092.18 L2573.26 2091.32 L2607.41 2090.57 L2641.57 2089.71 L2675.60 2088.97 L2709.75 2088.22 L2743.91 2087.48 L2777.94 2086.74 L2812.10 2086.00 L2846.25 2085.25 L2880.28 2084.63 L2914.44 2083.89 L2948.59 2083.15 L2982.62 2082.53 L3016.78 2081.79 L3050.93 2081.17 L3084.96 2080.43 L3119.12 2079.81 L3153.27 2079.19 L3187.31 2078.45 L3221.46 2077.83 L3255.62 2077.21 L3289.65 2076.59 L3323.80 2075.85 L3357.96 2075.23 L3391.99 2074.61 L3426.14 2073.99 L3460.30 2073.25 L3494.33 2072.63 L3528.48 2072.01 L3562.64 2071.39 L3596.67 2070.65 L3630.83 2070.03 L3664.98 2069.41 L3699.14 2068.79 L3733.17 2068.17 L3767.32 2067.43 L3801.48 2066.81" stroke-linejoin="round" style="fill:none;stroke:#FF0000;stroke-width:8.64"/>
	<line x1="424.09" y1="2489.19" x2="424.09" y2="100.86" style="stroke:#000000;stroke-width:5.76"/>
	<line x1="424.09" y1="2439.19" x2="384.12" y2="2439.19" style="stroke:#000000;stroke-width:5.76"/>
	<text x="364.07" y="2474.22" style="font-family:'Helvetica';font-size:99.99px;fill:#000000" text-anchor="end">0.5</text>
	<line x1="424.09" y1="2069.29" x2="384.12" y2="2069.29" style="stroke:#000000;stroke-width:5.76"/>
	<text x="364.07" y="2104.32" style="font-family:'Helvetica';font-size:99.99px;fill:#000000" text-anchor="end">1.0</text>
	<line x1="424.09" y1="1699.39" x2="384.12" y2="1699.39" style="stroke:#000000;stroke-width:5.76"/>
	<text x="364.07" y="1734.42" style="font-family:'Helvetica';font-size:99.99px;fill:#000000" text-anchor="end">2.0</text>
	<line x1="424.09" y1="1329.49" x2="384.12" y2="1329.49" style="stroke:#000000;stroke-width:5.76"/>
	<text x="364.07" y="1364.52" style="font-family:'Helvetica';font-size:99.99px;fill:#000000" text-anchor="end">4.0</text>
	<line x1="424.09" y1="959.59" x2="384.12" y2="959.59" style="stroke:#000000;stroke-width:5.76"/>
	<text x="364.07" y="994.62" style="font-family:'Helvetica';font-size:99.99px;fill:#000000" text-anchor="end">8.0</text>
	<line x1="424.09" y1="470.64" x2="384.12" y2="470.64" style="stroke:#000000;stroke-width:5.76"/>
	<text x="364.07" y="505.66" style="font-family:'Helvetica';font-size:99.99px;fill:#000000" text-anchor="end">20.0</text>
	<line x1="424.09" y1="100.86" x2="384.12" y2="100.86" style="stroke:#000000;stroke-width:5.76"/>
	<text x="364.07" y="135.89" style="font-family:'Helvetica';font-size:99.99px;fill:#000000" text-anchor="end">40.0</text>
	<line x1="424.09" y1="2489.19" x2="3859.02" y2="2489.19" style="stroke:#000000;stroke-width:5.76"/>
	<line x1="424.09" y1="2489.19" x2="424.09" y2="2529.16" style="stroke:#000000;stroke-width:5.76"/>
	<text x="424.09" y="2619.14" style="font-family:'Helvetica';font-size:99.99px;fill:#000000" text-anchor="middle">0</text>
	<line x1="1099.64" y1="2489.19" x2="1099.64" y2="2529.16" style="stroke:#000000;stroke-width:5.76"/>
	<text x="1099.64" y="2619.14" style="font-family:'Helvetica';font-size:99.99px;fill:#000000" text-anchor="middle">2</text>
	<line x1="1775.07" y1="2489.19" x2="1775.07" y2="2529.16" style="stroke:#000000;stroke-width:5.76"/>
	<text x="1775.07" y="2619.14" style="font-family:'Helvetica';font-size:99.99px;fill:#000000" text-anchor="middle">4</text>
	<line x1="2450.50" y1="2489.19" x2="2450.50" y2="2529.16" style="stroke:#000000;stroke-width:5.76"/>
	<text x="2450.50" y="2619.14" style="font-family:'Helvetica';font-size:99.99px;fill:#000000" text-anchor="middle">6</text>
	<line x1="3126.05" y1="2489.19" x2="3126.05" y2="2529.16" style="stroke:#000000;stroke-width:5.76"/>
	<text x="3126.05" y="2619.14" style="font-family:'Helvetica';font-size:99.99px;fill:#000000" text-anchor="middle">8</text>
	<line x1="3801.48" y1="2489.19" x2="3801.48" y2="2529.16" style="stroke:#000000;stroke-width:5.76"/>
	<text x="3801.48" y="2619.14" style="font-family:'Helvetica';font-size:99.99px;fill:#000000" text-anchor="middle">10</text>
	<text x="2141.62" y="2729.16" style="font-family:'Helvetica';font-size:99.99px;fill:#000000" text-anchor="middle">Years from surgery</text>
</svg>
