<?xml version="1.0" encoding="UTF-8" standalone="no"?>
<!-- This is a Stata 18.5 generated SVG file (http://www.stata.com) -->

<svg version="1.1" width="700px" height="509px" viewBox="0 0 3960 2880" xmlns="http://www.w3.org/2000/svg" xmlns:xlink="http://www.w3.org/1999/xlink">
	<desc>Stata Graph - cifs</desc>
	<rect x="0" y="0" width="3960" height="2880" style="fill:#FFFFFF;stroke:none"/>
	<rect x="0.00" y="0.00" width="3959.88" height="2880.00" style="fill:#FFFFFF"/>
	<rect x="2.88" y="2.88" width="3954.12" height="2874.24" style="fill:none;stroke:#FFFFFF;stroke-width:5.76"/>
	<line x1="524.08" y1="2489.19" x2="3859.02" y2="2489.19" style="stroke:#C0C0C0;stroke-width:5.76"/>
	<line x1="524.08" y1="1912.62" x2="3859.02" y2="1912.62" style="stroke:#C0C0C0;stroke-width:5.76"/>
	<line x1="524.08" y1="1335.92" x2="3859.02" y2="1335.92" style="stroke:#C0C0C0;stroke-width:5.76"/>
	<line x1="524.08" y1="759.23" x2="3859.02" y2="759.23" style="stroke:#C0C0C0;stroke-width:5.76"/>
	<line x1="524.08" y1="182.66" x2="3859.02" y2="182.66" style="stroke:#C0C0C0;stroke-width:5.76"/>
	<line x1="524.08" y1="2489.19" x2="524.08" y2="100.86" style="stroke:#C0C0C0;stroke-width:5.76"/>
	<line x1="1616.55" y1="2489.19" x2="1616.55" y2="100.86" style="stroke:#C0C0C0;stroke-width:5.76"/>
	<line x1="2709.01" y1="2489.19" x2="2709.01" y2="100.86" style="stroke:#C0C0C0;stroke-width:5.76"/>
	<line x1="3801.48" y1="2489.19" x2="3801.48" y2="100.86" style="stroke:#C0C0C0;stroke-width:5.76"/>
	<defs>
		<path id="path_xpNffXTo" d="M524.08 2489.19 L524.08 2489.19 L633.35 2475.57 L742.62 2457.38 L851.90 2440.80 L961.04 2426.19 L1070.31 2412.58 L1179.59 2398.47 L1288.86 2383.25 L1398.13 2367.66 L1507.28 2352.68 L1616.55 2338.70 L1725.82 2325.83 L1835.09 2313.95 L1944.36 2302.81 L2053.51 2292.66 L2162.78 2283.38 L2272.05 2274.84 L2381.32 2267.05 L2490.59 2259.99 L2599.74 2253.68 L2709.01 2247.99 L2818.28 2242.79 L2927.55 2238.21 L3036.70 2234.13 L3145.97 2230.42 L3255.24 2226.95 L3364.52 2223.98 L3473.79 2221.13 L3582.93 2218.66 L3692.21 2216.31 L3801.48 2214.20 L3801.48 2082.28 L3692.21 2087.60 L3582.93 2093.30 L3473.79 2099.11 L3364.52 2105.18 L3255.24 2111.61 L3145.97 2118.29 L3036.70 2125.23 L2927.55 2132.53 L2818.28 2140.20 L2709.01 2148.12 L2599.74 2156.53 L2490.59 2165.45 L2381.32 2174.85 L2272.05 2184.75 L2162.78 2195.52 L2053.51 2207.15 L1944.36 2219.77 L1835.09 2233.63 L1725.82 2248.86 L1616.55 2265.69 L1507.28 2283.63 L1398.13 2302.19 L1288.86 2321.00 L1179.59 2339.81 L1070.31 2358.62 L961.04 2377.56 L851.90 2396.74 L742.62 2420.13 L633.35 2451.07 L524.08 2489.19 L524.08 2489.19 Z" stroke-linejoin="round"/>
	</defs>
	<defs>
		<clipPath id="clipPath_LPnxDszm">
			<use xlink:href="#path_xpNffXTo"/>
		</clipPath>
	</defs>
	<use xlink:href="#path_xpNffXTo" style="stroke:none;fill:#FF3333;fill-opacity:0.30"/>
	<use xlink:href="#path_xpNffXTo" style="fill:none;stroke:#FF0000;stroke-opacity:0.30;stroke-width:17.28" clip-path="url(#clipPath_LPnxDszm)"/>
	<path d=" M524.08 2489.31 L633.35 2466.54 L742.50 2442.41 L851.77 2422.36 L961.04 2405.40 L1070.31 2389.19 L1179.46 2372.86 L1288.73 2355.78 L1398.00 2338.45 L1507.28 2321.75 L1616.55 2305.78 L1725.69 2291.18 L1834.97 2277.57 L1944.24 2265.19 L2053.51 2253.81 L2162.78 2243.41 L2271.93 2233.76 L2381.20 2224.97 L2490.47 2216.80 L2599.74 2209.38 L2709.01 2202.45 L2818.16 2196.01 L2927.43 2190.07 L3036.70 2184.50 L3145.97 2179.43 L3255.24 2174.60 L3364.39 2170.15 L3473.66 2165.94 L3582.93 2161.98 L3692.21 2158.27 L3801.48 2154.80" stroke-linejoin="round" style="fill:none;stroke:#FF0000;stroke-width:8.64"/>
	<defs>
		<path id="path_rxCMKQuV" d="M524.08 2489.19 L524.08 2489.19 L633.35 2202.94 L742.62 2031.17 L851.90 1898.88 L961.04 1771.66 L1070.31 1637.88 L1179.59 1499.53 L1288.86 1365.25 L1398.13 1239.39 L1507.28 1123.31 L1616.55 1017.01 L1725.82 920.98 L1835.09 835.09 L1944.36 758.86 L2053.51 691.54 L2162.78 632.38 L2272.05 580.41 L2381.32 534.74 L2490.59 494.52 L2599.74 459.00 L2709.01 427.57 L2818.28 399.72 L2927.55 374.97 L3036.70 352.82 L3145.97 333.02 L3255.24 315.20 L3364.52 299.24 L3473.79 284.88 L3582.93 271.89 L3692.21 260.13 L3801.48 249.49 L3801.48 100.86 L3692.21 112.49 L3582.93 125.24 L3473.79 139.47 L3364.52 155.06 L3255.24 172.51 L3145.97 191.69 L3036.70 213.23 L2927.55 237.11 L2818.28 263.84 L2709.01 293.79 L2599.74 327.21 L2490.59 364.70 L2381.32 406.78 L2272.05 453.93 L2162.78 506.77 L2053.51 566.17 L1944.36 632.75 L1835.09 707.50 L1725.82 791.53 L1616.55 886.08 L1507.28 991.89 L1398.13 1109.82 L1288.86 1238.16 L1179.59 1373.30 L1070.31 1510.54 L961.04 1646.79 L851.90 1782.92 L742.62 1925.98 L633.35 2114.83 L524.08 2489.19 L524.08 2489.19 Z" stroke-linejoin="round"/>
	</defs>
	<defs>
		<clipPath id="clipPath_oVYtULCk">
			<use xlink:href="#path_rxCMKQuV"/>
		</clipPath>
	</defs>
	<use xlink:href="#path_rxCMKQuV" style="stroke:none;fill:#3333FF;fill-opacity:0.30"/>
	<use xlink:href="#path_rxCMKQuV" style="fill:none;stroke:#0000FF;stroke-opacity:0.30;stroke-width:17.28" clip-path="url(#clipPath_oVYtULCk)"/>
	<path d=" M524.08 2489.31 L633.35 2161.98 L742.50 1981.30 L851.77 1843.56 L961.04 1711.89 L1070.31 1576.50 L1179.46 1438.39 L1288.73 1303.50 L1398.00 1176.28 L1507.28 1059.21 L1616.55 953.03 L1725.69 857.61 L1834.97 772.60 L1944.24 696.98 L2053.51 630.03 L2162.78 570.75 L2271.93 518.28 L2381.20 471.87 L2490.47 430.66 L2599.74 394.16 L2709.01 361.73 L2818.16 332.90 L2927.43 307.16 L3036.70 284.14 L3145.97 263.60 L3255.24 245.03 L3364.39 228.45 L3473.66 213.35 L3582.93 199.86 L3692.21 187.49 L3801.48 176.35" stroke-linejoin="round" style="fill:none;stroke:#0000FF;stroke-width:8.64"/>
	<line x1="524.08" y1="2489.19" x2="524.08" y2="100.86" style="stroke:#000000;stroke-width:5.76"/>
	<line x1="524.08" y1="2489.19" x2="484.11" y2="2489.19" style="stroke:#000000;stroke-width:5.76"/>
	<text x="464.06" y="2524.21" style="font-family:'Helvetica';font-size:99.99px;fill:#000000" text-anchor="end">0.00</text>
	<line x1="524.08" y1="1912.62" x2="484.11" y2="1912.62" style="stroke:#000000;stroke-width:5.76"/>
	<text x="464.06" y="1947.64" style="font-family:'Helvetica';font-size:99.99px;fill:#000000" text-anchor="end">0.20</text>
	<line x1="524.08" y1="1335.92" x2="484.11" y2="1335.92" style="stroke:#000000;stroke-width:5.76"/>
	<text x="464.06" y="1370.95" style="font-family:'Helvetica';font-size:99.99px;fill:#000000" text-anchor="end">0.40</text>
	<line x1="524.08" y1="759.23" x2="484.11" y2="759.23" style="stroke:#000000;stroke-width:5.76"/>
	<text x="464.06" y="794.26" style="font-family:'Helvetica';font-size:99.99px;fill:#000000" text-anchor="end">0.60</text>
	<line x1="524.08" y1="182.66" x2="484.11" y2="182.66" style="stroke:#000000;stroke-width:5.76"/>
	<text x="464.06" y="217.69" style="font-family:'Helvetica';font-size:99.99px;fill:#000000" text-anchor="end">0.80</text>
	<text x="190.71" y="1294.96" style="font-family:'Helvetica';font-size:99.99px;fill:#000000" transform="rotate(-90 190.71,1294.96)" text-anchor="middle">cause-specific CIF</text>
	<line x1="524.08" y1="2489.19" x2="3859.02" y2="2489.19" style="stroke:#000000;stroke-width:5.76"/>
	<line x1="524.08" y1="2489.19" x2="524.08" y2="2529.16" style="stroke:#000000;stroke-width:5.76"/>
	<text x="524.08" y="2619.14" style="font-family:'Helvetica';font-size:99.99px;fill:#000000" text-anchor="middle">0</text>
	<line x1="1616.55" y1="2489.19" x2="1616.55" y2="2529.16" style="stroke:#000000;stroke-width:5.76"/>
	<text x="1616.55" y="2619.14" style="font-family:'Helvetica';font-size:99.99px;fill:#000000" text-anchor="middle">10</text>
	<line x1="2709.01" y1="2489.19" x2="2709.01" y2="2529.16" style="stroke:#000000;stroke-width:5.76"/>
	<text x="2709.01" y="2619.14" style="font-family:'Helvetica';font-size:99.99px;fill:#000000" text-anchor="middle">20</text>
	<line x1="3801.48" y1="2489.19" x2="3801.48" y2="2529.16" style="stroke:#000000;stroke-width:5.76"/>
	<text x="3801.48" y="2619.14" style="font-family:'Helvetica';font-size:99.99px;fill:#000000" text-anchor="middle">30</text>
	<text x="2191.61" y="2729.16" style="font-family:'Helvetica';font-size:99.99px;fill:#000000" text-anchor="middle">Time from diagnosis (years)</text>
	<line x1="601.92" y1="228.57" x2="801.90" y2="228.57" style="stroke:#FF0000;stroke-width:8.64"/>
	<line x1="601.92" y1="368.54" x2="801.90" y2="368.54" style="stroke:#0000FF;stroke-width:8.64"/>
	<text x="861.80" y="263.60" style="font-family:'Helvetica';font-size:99.99px;fill:#000000">PCM</text>
	<text x="861.80" y="403.57" style="font-family:'Helvetica';font-size:99.99px;fill:#000000">Death</text>
</svg>
