<?xml version="1.0" encoding="UTF-8" standalone="no"?>
<!-- This is a Stata 18.5 generated SVG file (http://www.stata.com) -->

<svg version="1.1" width="700px" height="509px" viewBox="0 0 3960 2880" xmlns="http://www.w3.org/2000/svg" xmlns:xlink="http://www.w3.org/1999/xlink">
	<desc>Stata Graph - Graph</desc>
	<rect x="0" y="0" width="3960" height="2880" style="fill:#FFFFFF;stroke:none"/>
	<rect x="0.00" y="0.00" width="3959.88" height="2880.00" style="fill:#FFFFFF"/>
	<rect x="2.88" y="2.88" width="3954.12" height="2874.24" style="fill:none;stroke:#FFFFFF;stroke-width:5.76"/>
	<line x1="524.08" y1="2488.69" x2="3859.02" y2="2488.69" style="stroke:#C0C0C0;stroke-width:5.76"/>
	<line x1="524.08" y1="1692.71" x2="3859.02" y2="1692.71" style="stroke:#C0C0C0;stroke-width:5.76"/>
	<line x1="524.08" y1="896.72" x2="3859.02" y2="896.72" style="stroke:#C0C0C0;stroke-width:5.76"/>
	<line x1="524.08" y1="100.86" x2="3859.02" y2="100.86" style="stroke:#C0C0C0;stroke-width:5.76"/>
	<line x1="524.08" y1="2489.19" x2="524.08" y2="100.86" style="stroke:#C0C0C0;stroke-width:5.76"/>
	<line x1="1179.59" y1="2489.19" x2="1179.59" y2="100.86" style="stroke:#C0C0C0;stroke-width:5.76"/>
	<line x1="1835.09" y1="2489.19" x2="1835.09" y2="100.86" style="stroke:#C0C0C0;stroke-width:5.76"/>
	<line x1="2490.59" y1="2489.19" x2="2490.59" y2="100.86" style="stroke:#C0C0C0;stroke-width:5.76"/>
	<line x1="3145.97" y1="2489.19" x2="3145.97" y2="100.86" style="stroke:#C0C0C0;stroke-width:5.76"/>
	<line x1="3801.48" y1="2489.19" x2="3801.48" y2="100.86" style="stroke:#C0C0C0;stroke-width:5.76"/>
	<defs>
		<path id="path_NtjQyozo" d="M524.08 2488.69 L524.08 2488.69 L556.88 2488.94 L589.67 2489.19 L622.46 2488.69 L655.26 2487.08 L687.93 2484.48 L720.72 2480.65 L753.51 2475.94 L786.31 2470.37 L819.10 2464.06 L851.90 2457.13 L884.57 2449.71 L917.36 2441.91 L950.15 2433.62 L982.95 2425.20 L1015.74 2416.54 L1048.53 2407.63 L1081.20 2398.72 L1114.00 2389.81 L1146.79 2380.78 L1179.59 2371.87 L1212.38 2363.08 L1245.17 2354.42 L1277.97 2345.88 L1310.64 2337.59 L1343.43 2329.54 L1376.22 2321.62 L1409.02 2314.07 L1441.81 2306.90 L1474.61 2299.84 L1507.28 2293.16 L1540.07 2286.85 L1572.86 2280.78 L1605.66 2274.97 L1638.45 2269.52 L1671.24 2264.32 L1703.91 2259.37 L1736.71 2254.80 L1769.50 2250.46 L1802.30 2246.26 L1835.09 2242.42 L1867.88 2238.83 L1900.55 2235.37 L1933.35 2232.15 L1966.14 2229.18 L1998.93 2226.33 L2031.73 2223.73 L2064.52 2221.26 L2097.19 2218.91 L2129.99 2216.68 L2162.78 2214.70 L2195.57 2212.84 L2228.37 2211.11 L2261.16 2209.38 L2293.83 2207.89 L2326.62 2206.41 L2359.42 2205.17 L2392.21 2203.93 L2425.01 2202.82 L2457.80 2201.71 L2490.59 2200.84 L2523.26 2199.97 L2556.06 2199.11 L2588.85 2198.36 L2621.64 2197.74 L2654.44 2197.13 L2687.23 2196.63 L2719.90 2196.26 L2752.70 2195.89 L2785.49 2195.52 L2818.28 2195.27 L2851.08 2195.02 L2883.87 2194.90 L2916.54 2194.77 L2949.33 2194.77 L2982.13 2194.77 L3014.92 2194.77 L3047.72 2194.90 L3080.51 2195.02 L3113.18 2195.15 L3145.97 2195.39 L3178.77 2195.64 L3211.56 2195.89 L3244.35 2196.14 L3277.15 2196.51 L3309.82 2196.88 L3342.61 2197.25 L3375.41 2197.74 L3408.20 2198.24 L3440.99 2198.73 L3473.79 2199.23 L3506.46 2199.72 L3539.25 2200.34 L3572.04 2200.96 L3604.84 2201.58 L3637.63 2202.20 L3670.43 2202.82 L3703.22 2203.56 L3735.89 2204.18 L3768.68 2204.92 L3801.48 2205.67 L3801.48 499.59 L3768.68 498.11 L3735.89 496.75 L3703.22 495.39 L3670.43 494.27 L3637.63 493.41 L3604.84 492.54 L3572.04 491.92 L3539.25 491.43 L3506.46 491.06 L3473.79 490.81 L3440.99 490.81 L3408.20 491.06 L3375.41 491.43 L3342.61 491.92 L3309.82 492.66 L3277.15 493.65 L3244.35 494.77 L3211.56 496.25 L3178.77 497.86 L3145.97 499.72 L3113.18 501.82 L3080.51 504.05 L3047.72 506.65 L3014.92 509.62 L2982.13 512.71 L2949.33 516.18 L2916.54 519.89 L2883.87 523.97 L2851.08 528.31 L2818.28 533.01 L2785.49 538.08 L2752.70 543.40 L2719.90 549.22 L2687.23 555.41 L2654.44 561.97 L2621.64 568.90 L2588.85 576.32 L2556.06 584.12 L2523.26 592.41 L2490.59 601.32 L2457.80 610.60 L2425.01 620.38 L2392.21 630.77 L2359.42 641.79 L2326.62 653.30 L2293.83 665.55 L2261.16 678.42 L2228.37 691.91 L2195.57 706.26 L2162.78 721.24 L2129.99 737.08 L2097.19 753.78 L2064.52 771.48 L2031.73 790.04 L1998.93 809.60 L1966.14 830.14 L1933.35 851.92 L1900.55 874.69 L1867.88 898.82 L1835.09 924.32 L1802.30 951.17 L1769.50 979.39 L1736.71 1009.21 L1703.91 1040.52 L1671.24 1073.44 L1638.45 1108.09 L1605.66 1144.23 L1572.86 1182.10 L1540.07 1221.70 L1507.28 1262.91 L1474.61 1305.73 L1441.81 1350.28 L1409.02 1396.31 L1376.22 1443.84 L1343.43 1492.84 L1310.64 1543.21 L1277.97 1594.82 L1245.17 1647.41 L1212.38 1700.87 L1179.59 1755.08 L1146.79 1809.78 L1114.00 1864.85 L1081.20 1919.92 L1048.53 1974.62 L1015.74 2028.70 L982.95 2081.66 L950.15 2133.27 L917.36 2183.02 L884.57 2230.42 L851.90 2274.97 L819.10 2316.30 L786.31 2353.92 L753.51 2387.34 L720.72 2416.17 L687.93 2440.30 L655.26 2459.36 L622.46 2473.47 L589.67 2482.75 L556.88 2487.58 L524.08 2488.69 L524.08 2488.69 Z" stroke-linejoin="round"/>
	</defs>
	<defs>
		<clipPath id="clipPath_CEAWmtWc">
			<use xlink:href="#path_NtjQyozo"/>
		</clipPath>
	</defs>
	<use xlink:href="#path_NtjQyozo" style="stroke:none;fill:#FF3333;fill-opacity:0.25"/>
	<use xlink:href="#path_NtjQyozo" style="fill:none;stroke:#FF0000;stroke-opacity:0.25;stroke-width:17.28" clip-path="url(#clipPath_CEAWmtWc)"/>
	<path d=" M524.08 2488.81 L556.88 2488.32 L589.54 2486.09 L622.34 2481.14 L655.13 2473.34 L687.93 2462.45 L720.72 2448.47 L753.51 2431.64 L786.18 2412.21 L818.98 2390.31 L851.77 2366.17 L884.57 2340.06 L917.36 2312.46 L950.15 2283.51 L982.82 2253.43 L1015.62 2222.62 L1048.41 2191.19 L1081.20 2159.38 L1114.00 2127.33 L1146.79 2095.40 L1179.46 2063.60 L1212.26 2032.04 L1245.05 2000.98 L1277.84 1970.41 L1310.64 1940.46 L1343.43 1911.25 L1376.22 1882.79 L1408.89 1855.32 L1441.69 1828.59 L1474.48 1802.85 L1507.28 1778.10 L1540.07 1754.33 L1572.86 1731.44 L1605.53 1709.66 L1638.33 1688.87 L1671.12 1668.94 L1703.91 1650.01 L1736.71 1632.07 L1769.50 1614.99 L1802.17 1598.78 L1834.97 1583.43 L1867.76 1568.95 L1900.55 1555.09 L1933.35 1542.10 L1966.14 1529.72 L1998.81 1517.96 L2031.60 1506.95 L2064.40 1496.43 L2097.19 1486.41 L2129.99 1477.00 L2162.78 1468.09 L2195.45 1459.55 L2228.24 1451.51 L2261.04 1443.96 L2293.83 1436.78 L2326.62 1429.98 L2359.42 1423.54 L2392.09 1417.48 L2424.88 1411.66 L2457.68 1406.22 L2490.47 1401.14 L2523.26 1396.19 L2556.06 1391.74 L2588.85 1387.40 L2621.52 1383.32 L2654.31 1379.61 L2687.11 1376.02 L2719.90 1372.80 L2752.70 1369.71 L2785.49 1366.86 L2818.16 1364.14 L2850.95 1361.79 L2883.75 1359.44 L2916.54 1357.46 L2949.33 1355.48 L2982.13 1353.74 L3014.80 1352.26 L3047.59 1350.90 L3080.39 1349.66 L3113.18 1348.55 L3145.97 1347.56 L3178.77 1346.81 L3211.44 1346.07 L3244.23 1345.58 L3277.02 1345.20 L3309.82 1344.83 L3342.61 1344.71 L3375.41 1344.59 L3408.08 1344.71 L3440.87 1344.83 L3473.66 1345.08 L3506.46 1345.45 L3539.25 1345.95 L3572.04 1346.44 L3604.84 1347.06 L3637.51 1347.80 L3670.30 1348.67 L3703.10 1349.54 L3735.89 1350.53 L3768.68 1351.64 L3801.48 1352.75" stroke-linejoin="round" style="fill:none;stroke:#FF0000;stroke-width:8.64"/>
	<line x1="524.08" y1="2489.19" x2="524.08" y2="100.86" style="stroke:#000000;stroke-width:5.76"/>
	<line x1="524.08" y1="2488.69" x2="484.11" y2="2488.69" style="stroke:#000000;stroke-width:5.76"/>
	<text x="464.06" y="2523.72" style="font-family:'Helvetica';font-size:99.99px;fill:#000000" text-anchor="end">0.00</text>
	<line x1="524.08" y1="1692.71" x2="484.11" y2="1692.71" style="stroke:#000000;stroke-width:5.76"/>
	<text x="464.06" y="1727.73" style="font-family:'Helvetica';font-size:99.99px;fill:#000000" text-anchor="end">0.05</text>
	<line x1="524.08" y1="896.72" x2="484.11" y2="896.72" style="stroke:#000000;stroke-width:5.76"/>
	<text x="464.06" y="931.75" style="font-family:'Helvetica';font-size:99.99px;fill:#000000" text-anchor="end">0.10</text>
	<line x1="524.08" y1="100.86" x2="484.11" y2="100.86" style="stroke:#000000;stroke-width:5.76"/>
	<text x="464.06" y="135.89" style="font-family:'Helvetica';font-size:99.99px;fill:#000000" text-anchor="end">0.15</text>
	<text x="190.71" y="1294.96" style="font-family:'Helvetica';font-size:99.99px;fill:#000000" transform="rotate(-90 190.71,1294.96)" text-anchor="middle">Difference in S(t)</text>
	<line x1="524.08" y1="2489.19" x2="3859.02" y2="2489.19" style="stroke:#000000;stroke-width:5.76"/>
	<line x1="524.08" y1="2489.19" x2="524.08" y2="2529.16" style="stroke:#000000;stroke-width:5.76"/>
	<text x="524.08" y="2619.14" style="font-family:'Helvetica';font-size:99.99px;fill:#000000" text-anchor="middle">0</text>
	<line x1="1179.59" y1="2489.19" x2="1179.59" y2="2529.16" style="stroke:#000000;stroke-width:5.76"/>
	<text x="1179.59" y="2619.14" style="font-family:'Helvetica';font-size:99.99px;fill:#000000" text-anchor="middle">2</text>
	<line x1="1835.09" y1="2489.19" x2="1835.09" y2="2529.16" style="stroke:#000000;stroke-width:5.76"/>
	<text x="1835.09" y="2619.14" style="font-family:'Helvetica';font-size:99.99px;fill:#000000" text-anchor="middle">4</text>
	<line x1="2490.59" y1="2489.19" x2="2490.59" y2="2529.16" style="stroke:#000000;stroke-width:5.76"/>
	<text x="2490.59" y="2619.14" style="font-family:'Helvetica';font-size:99.99px;fill:#000000" text-anchor="middle">6</text>
	<line x1="3145.97" y1="2489.19" x2="3145.97" y2="2529.16" style="stroke:#000000;stroke-width:5.76"/>
	<text x="3145.97" y="2619.14" style="font-family:'Helvetica';font-size:99.99px;fill:#000000" text-anchor="middle">8</text>
	<line x1="3801.48" y1="2489.19" x2="3801.48" y2="2529.16" style="stroke:#000000;stroke-width:5.76"/>
	<text x="3801.48" y="2619.14" style="font-family:'Helvetica';font-size:99.99px;fill:#000000" text-anchor="middle">10</text>
	<text x="2191.61" y="2729.16" style="font-family:'Helvetica';font-size:99.99px;fill:#000000" text-anchor="middle">Years from surgery</text>
</svg>
