<?xml version="1.0" encoding="UTF-8" standalone="no"?>
<!-- This is a Stata 18.5 generated SVG file (http://www.stata.com) -->

<svg version="1.1" width="700px" height="509px" viewBox="0 0 3960 2880" xmlns="http://www.w3.org/2000/svg" xmlns:xlink="http://www.w3.org/1999/xlink">
	<desc>Stata Graph - RS</desc>
	<rect x="0" y="0" width="3960" height="2880" style="fill:#FFFFFF;stroke:none"/>
	<rect x="0.00" y="0.00" width="3959.88" height="2880.00" style="fill:#FFFFFF"/>
	<rect x="2.88" y="2.88" width="3954.12" height="2874.24" style="fill:none;stroke:#FFFFFF;stroke-width:5.76"/>
	<line x1="465.80" y1="2489.19" x2="3859.02" y2="2489.19" style="stroke:#C0C0C0;stroke-opacity:0.50;stroke-width:5.76"/>
	<line x1="465.80" y1="2011.50" x2="3859.02" y2="2011.50" style="stroke:#C0C0C0;stroke-opacity:0.50;stroke-width:5.76"/>
	<line x1="465.80" y1="1533.81" x2="3859.02" y2="1533.81" style="stroke:#C0C0C0;stroke-opacity:0.50;stroke-width:5.76"/>
	<line x1="465.80" y1="1056.12" x2="3859.02" y2="1056.12" style="stroke:#C0C0C0;stroke-opacity:0.50;stroke-width:5.76"/>
	<line x1="465.80" y1="578.43" x2="3859.02" y2="578.43" style="stroke:#C0C0C0;stroke-opacity:0.50;stroke-width:5.76"/>
	<line x1="465.80" y1="100.86" x2="3859.02" y2="100.86" style="stroke:#C0C0C0;stroke-opacity:0.50;stroke-width:5.76"/>
	<line x1="465.80" y1="2489.19" x2="465.80" y2="100.86" style="stroke:#C0C0C0;stroke-opacity:0.50;stroke-width:5.76"/>
	<line x1="1132.93" y1="2489.19" x2="1132.93" y2="100.86" style="stroke:#C0C0C0;stroke-opacity:0.50;stroke-width:5.76"/>
	<line x1="1800.07" y1="2489.19" x2="1800.07" y2="100.86" style="stroke:#C0C0C0;stroke-opacity:0.50;stroke-width:5.76"/>
	<line x1="2467.20" y1="2489.19" x2="2467.20" y2="100.86" style="stroke:#C0C0C0;stroke-opacity:0.50;stroke-width:5.76"/>
	<line x1="3134.34" y1="2489.19" x2="3134.34" y2="100.86" style="stroke:#C0C0C0;stroke-opacity:0.50;stroke-width:5.76"/>
	<line x1="3801.48" y1="2489.19" x2="3801.48" y2="100.86" style="stroke:#C0C0C0;stroke-opacity:0.50;stroke-width:5.76"/>
	<defs>
		<path id="path_UQCCGXII" d="M465.80 100.86 L465.80 100.86 L499.08 174.25 L532.50 269.29 L565.91 358.14 L599.20 436.97 L632.61 507.39 L665.90 571.37 L699.31 629.91 L732.60 683.49 L766.01 732.38 L799.30 777.30 L832.71 819.00 L866.00 857.74 L899.42 893.75 L932.83 927.41 L966.12 958.72 L999.53 987.93 L1032.82 1015.40 L1066.23 1041.02 L1099.52 1065.40 L1132.93 1088.42 L1166.22 1110.32 L1199.63 1131.36 L1233.05 1151.53 L1266.33 1170.96 L1299.75 1189.77 L1333.04 1207.84 L1366.45 1225.41 L1399.74 1242.49 L1433.15 1259.07 L1466.44 1275.16 L1499.85 1291.00 L1533.26 1306.35 L1566.55 1321.44 L1599.96 1336.17 L1633.25 1350.65 L1666.67 1365.01 L1699.95 1378.99 L1733.37 1392.85 L1766.66 1406.46 L1800.07 1419.83 L1833.36 1433.19 L1866.77 1446.31 L1900.18 1459.31 L1933.47 1472.05 L1966.88 1484.80 L2000.17 1497.30 L2033.58 1509.67 L2066.87 1521.93 L2100.29 1534.18 L2133.57 1546.18 L2166.99 1558.06 L2200.40 1569.82 L2233.69 1581.45 L2267.10 1593.08 L2300.39 1604.47 L2333.80 1615.73 L2367.09 1626.99 L2400.50 1638.01 L2433.79 1649.02 L2467.20 1659.91 L2500.62 1670.68 L2533.91 1681.32 L2567.32 1691.84 L2600.61 1702.36 L2634.02 1712.63 L2667.31 1722.90 L2700.72 1733.05 L2734.01 1743.07 L2767.42 1753.10 L2800.71 1763.00 L2834.12 1772.77 L2867.54 1782.43 L2900.82 1792.08 L2934.24 1801.61 L2967.53 1811.01 L3000.94 1820.42 L3034.23 1829.70 L3067.64 1838.86 L3100.93 1848.02 L3134.34 1857.05 L3167.75 1866.08 L3201.04 1874.99 L3234.45 1883.78 L3267.74 1892.57 L3301.16 1901.23 L3334.44 1909.89 L3367.86 1918.43 L3401.15 1926.85 L3434.56 1935.26 L3467.97 1943.68 L3501.26 1951.97 L3534.67 1960.14 L3567.96 1968.31 L3601.37 1976.47 L3634.66 1984.52 L3668.07 1992.44 L3701.36 2000.36 L3734.78 2008.28 L3768.06 2016.07 L3801.48 2023.75 L3801.48 1805.94 L3768.06 1800.37 L3734.78 1794.68 L3701.36 1788.99 L3668.07 1783.29 L3634.66 1777.48 L3601.37 1771.66 L3567.96 1765.72 L3534.67 1759.78 L3501.26 1753.84 L3467.97 1747.78 L3434.56 1741.71 L3401.15 1735.52 L3367.86 1729.34 L3334.44 1723.15 L3301.16 1716.84 L3267.74 1710.40 L3234.45 1703.97 L3201.04 1697.53 L3167.75 1690.97 L3134.34 1684.41 L3100.93 1677.73 L3067.64 1670.92 L3034.23 1664.12 L3000.94 1657.31 L2967.53 1650.26 L2934.24 1643.33 L2900.82 1636.15 L2867.54 1628.97 L2834.12 1621.79 L2800.71 1614.49 L2767.42 1607.07 L2734.01 1599.52 L2700.72 1591.97 L2667.31 1584.30 L2634.02 1576.50 L2600.61 1568.58 L2567.32 1560.66 L2533.91 1552.62 L2500.62 1544.45 L2467.20 1536.16 L2433.79 1527.74 L2400.50 1519.20 L2367.09 1510.54 L2333.80 1501.88 L2300.39 1492.97 L2267.10 1483.93 L2233.69 1474.77 L2200.40 1465.49 L2166.99 1455.96 L2133.57 1446.44 L2100.29 1436.66 L2066.87 1426.63 L2033.58 1416.49 L2000.17 1406.09 L1966.88 1395.57 L1933.47 1384.81 L1900.18 1373.79 L1866.77 1362.65 L1833.36 1351.14 L1800.07 1339.39 L1766.66 1327.38 L1733.37 1315.01 L1699.95 1302.39 L1666.67 1289.52 L1633.25 1276.27 L1599.96 1262.78 L1566.55 1248.92 L1533.26 1234.69 L1499.85 1220.09 L1466.44 1205.12 L1433.15 1189.77 L1399.74 1174.05 L1366.45 1157.96 L1333.04 1141.38 L1299.75 1124.30 L1266.33 1106.73 L1233.05 1088.54 L1199.63 1069.48 L1166.22 1049.68 L1132.93 1028.77 L1099.52 1006.61 L1066.23 983.22 L1032.82 958.35 L999.53 931.87 L966.12 903.53 L932.83 873.45 L899.42 841.40 L866.00 807.00 L832.71 769.87 L799.30 729.65 L766.01 686.09 L732.60 638.82 L699.31 587.46 L665.90 531.89 L632.61 471.25 L599.20 404.06 L565.91 329.06 L532.50 246.52 L499.08 159.77 L465.80 100.86 L465.80 100.86 Z" stroke-linejoin="round"/>
	</defs>
	<defs>
		<clipPath id="clipPath_vNLopTPw">
			<use xlink:href="#path_UQCCGXII"/>
		</clipPath>
	</defs>
	<use xlink:href="#path_UQCCGXII" style="stroke:none;fill:#E94849;fill-opacity:0.30"/>
	<use xlink:href="#path_UQCCGXII" style="fill:none;stroke:#E41A1C;stroke-opacity:0.30;stroke-width:17.28" clip-path="url(#clipPath_vNLopTPw)"/>
	<path d=" M465.67 100.86 L499.08 167.07 L532.37 258.03 L565.79 343.66 L599.20 420.64 L632.49 489.45 L665.90 551.69 L699.19 608.87 L732.60 661.22 L765.89 709.36 L799.30 753.66 L832.59 794.50 L866.00 832.49 L899.42 867.76 L932.70 900.56 L966.12 931.25 L999.41 960.08 L1032.82 987.06 L1066.11 1012.31 L1099.52 1036.19 L1132.81 1058.71 L1166.22 1080.12 L1199.63 1100.67 L1232.92 1120.22 L1266.33 1139.03 L1299.62 1157.22 L1333.04 1174.80 L1366.32 1191.87 L1399.74 1208.46 L1433.03 1224.67 L1466.44 1240.39 L1499.73 1255.73 L1533.14 1270.70 L1566.55 1285.43 L1599.84 1299.79 L1633.25 1313.77 L1666.54 1327.51 L1699.95 1341.00 L1733.24 1354.24 L1766.66 1367.23 L1799.94 1379.98 L1833.36 1392.48 L1866.77 1404.73 L1900.06 1416.86 L1933.47 1428.74 L1966.76 1440.50 L2000.17 1452.13 L2033.46 1463.51 L2066.87 1474.65 L2100.16 1485.79 L2133.57 1496.68 L2166.99 1507.45 L2200.28 1518.09 L2233.69 1528.61 L2266.98 1539.00 L2300.39 1549.27 L2333.68 1559.30 L2367.09 1569.32 L2400.38 1579.22 L2433.79 1589.00 L2467.08 1598.65 L2500.49 1608.18 L2533.91 1617.59 L2567.19 1626.99 L2600.61 1636.15 L2633.90 1645.31 L2667.31 1654.34 L2700.60 1663.38 L2734.01 1672.16 L2767.30 1680.95 L2800.71 1689.61 L2834.12 1698.27 L2867.41 1706.69 L2900.82 1715.10 L2934.11 1723.52 L2967.53 1731.81 L3000.81 1739.98 L3034.23 1748.15 L3067.52 1756.07 L3100.93 1764.11 L3134.34 1772.03 L3167.63 1779.83 L3201.04 1787.62 L3234.33 1795.30 L3267.74 1802.97 L3301.03 1810.52 L3334.44 1817.94 L3367.73 1825.37 L3401.15 1832.79 L3434.43 1840.10 L3467.85 1847.40 L3501.26 1854.58 L3534.55 1861.75 L3567.96 1868.81 L3601.25 1875.86 L3634.66 1882.79 L3667.95 1889.72 L3701.36 1896.65 L3734.65 1903.46 L3768.06 1910.26 L3801.48 1916.95" stroke-linejoin="round" style="fill:none;stroke:#E41A1C;stroke-width:8.64"/>
	<defs>
		<path id="path_JNFzjjkq" d="M465.80 100.86 L465.80 100.86 L499.08 190.33 L532.50 306.17 L565.91 411.11 L599.20 500.83 L632.61 579.54 L665.90 650.57 L699.31 715.54 L732.60 775.32 L766.01 830.76 L799.30 882.37 L832.71 930.38 L866.00 975.30 L899.42 1016.89 L932.83 1055.50 L966.12 1091.26 L999.53 1124.43 L1032.82 1155.74 L1066.23 1185.19 L1099.52 1213.04 L1132.93 1239.77 L1166.22 1265.26 L1199.63 1289.89 L1233.05 1313.52 L1266.33 1336.29 L1299.75 1358.45 L1333.04 1379.73 L1366.45 1400.52 L1399.74 1420.69 L1433.15 1440.25 L1466.44 1459.31 L1499.85 1477.99 L1533.26 1496.18 L1566.55 1514.13 L1599.96 1531.58 L1633.25 1548.78 L1666.67 1565.73 L1699.95 1582.44 L1733.37 1598.90 L1766.66 1615.11 L1800.07 1631.08 L1833.36 1646.92 L1866.77 1662.51 L1900.18 1677.98 L1933.47 1693.20 L1966.88 1708.30 L2000.17 1723.27 L2033.58 1738.00 L2066.87 1752.60 L2100.29 1767.08 L2133.57 1781.31 L2166.99 1795.42 L2200.40 1809.41 L2233.69 1823.27 L2267.10 1837.00 L2300.39 1850.49 L2333.80 1863.86 L2367.09 1877.10 L2400.50 1890.22 L2433.79 1903.21 L2467.20 1916.08 L2500.62 1928.70 L2533.91 1941.33 L2567.32 1953.70 L2600.61 1966.08 L2634.02 1978.21 L2667.31 1990.33 L2700.72 2002.21 L2734.01 2014.09 L2767.42 2025.73 L2800.71 2037.36 L2834.12 2048.87 L2867.54 2060.13 L2900.82 2071.39 L2934.24 2082.53 L2967.53 2093.67 L3000.94 2104.56 L3034.23 2115.45 L3067.64 2126.09 L3100.93 2136.73 L3134.34 2147.25 L3167.75 2157.77 L3201.04 2168.04 L3234.45 2178.32 L3267.74 2188.46 L3301.16 2198.61 L3334.44 2208.51 L3367.86 2218.41 L3401.15 2228.31 L3434.56 2237.96 L3467.97 2247.62 L3501.26 2257.27 L3534.67 2266.68 L3567.96 2276.08 L3601.37 2285.49 L3634.66 2294.64 L3668.07 2303.93 L3701.36 2312.96 L3734.78 2321.99 L3768.06 2330.90 L3801.48 2339.81 L3801.48 2053.70 L3768.06 2047.51 L3734.78 2041.20 L3701.36 2034.88 L3668.07 2028.45 L3634.66 2022.01 L3601.37 2015.46 L3567.96 2008.90 L3534.67 2002.21 L3501.26 1995.53 L3467.97 1988.85 L3434.56 1981.92 L3401.15 1975.11 L3367.86 1968.18 L3334.44 1961.13 L3301.16 1954.07 L3267.74 1946.90 L3234.45 1939.59 L3201.04 1932.29 L3167.75 1924.99 L3134.34 1917.44 L3100.93 1909.89 L3067.64 1902.34 L3034.23 1894.67 L3000.94 1886.88 L2967.53 1878.95 L2934.24 1871.03 L2900.82 1862.99 L2867.54 1854.82 L2834.12 1846.66 L2800.71 1838.24 L2767.42 1829.82 L2734.01 1821.29 L2700.72 1812.62 L2667.31 1803.84 L2634.02 1795.05 L2600.61 1786.02 L2567.32 1776.86 L2533.91 1767.70 L2500.62 1758.29 L2467.20 1748.77 L2433.79 1739.11 L2400.50 1729.34 L2367.09 1719.44 L2333.80 1709.29 L2300.39 1699.14 L2267.10 1688.62 L2233.69 1678.10 L2200.40 1667.34 L2166.99 1656.32 L2133.57 1645.18 L2100.29 1633.80 L2066.87 1622.17 L2033.58 1610.41 L2000.17 1598.28 L1966.88 1586.03 L1933.47 1573.41 L1900.18 1560.54 L1866.77 1547.42 L1833.36 1533.93 L1800.07 1520.07 L1766.66 1505.96 L1733.37 1491.48 L1699.95 1476.63 L1666.67 1461.41 L1633.25 1445.82 L1599.96 1429.73 L1566.55 1413.27 L1533.26 1396.44 L1499.85 1379.11 L1466.44 1361.42 L1433.15 1343.22 L1399.74 1324.54 L1366.45 1305.48 L1333.04 1285.80 L1299.75 1265.75 L1266.33 1245.09 L1233.05 1223.68 L1199.63 1201.65 L1166.22 1178.63 L1132.93 1154.62 L1099.52 1129.50 L1066.23 1102.77 L1032.82 1074.55 L999.53 1044.36 L966.12 1012.18 L932.83 977.90 L899.42 941.15 L866.00 901.79 L832.71 859.35 L799.30 813.56 L766.01 764.06 L732.60 710.59 L699.31 653.54 L665.90 592.41 L632.61 526.08 L599.20 451.95 L565.91 367.67 L532.50 271.76 L499.08 168.80 L465.80 100.86 L465.80 100.86 Z" stroke-linejoin="round"/>
	</defs>
	<defs>
		<clipPath id="clipPath_SjsfAQGK">
			<use xlink:href="#path_JNFzjjkq"/>
		</clipPath>
	</defs>
	<use xlink:href="#path_JNFzjjkq" style="stroke:none;fill:#5F98C6;fill-opacity:0.30"/>
	<use xlink:href="#path_JNFzjjkq" style="fill:none;stroke:#377EB8;stroke-opacity:0.30;stroke-width:17.28" clip-path="url(#clipPath_SjsfAQGK)"/>
	<path d=" M465.67 100.86 L499.08 179.69 L532.37 289.09 L565.79 389.45 L599.20 476.58 L632.49 552.93 L665.90 621.74 L699.19 684.73 L732.60 743.14 L765.89 797.59 L799.30 848.09 L832.59 895.11 L866.00 938.80 L899.42 979.26 L932.70 1017.01 L966.12 1052.03 L999.41 1084.70 L1032.82 1115.39 L1066.11 1144.23 L1099.52 1171.58 L1132.81 1197.57 L1166.22 1222.32 L1199.63 1246.08 L1232.92 1268.97 L1266.33 1291.00 L1299.62 1312.41 L1333.04 1333.20 L1366.32 1353.37 L1399.74 1373.05 L1433.03 1392.11 L1466.44 1410.79 L1499.73 1428.99 L1533.14 1446.68 L1566.55 1464.13 L1599.84 1481.09 L1633.25 1497.79 L1666.54 1514.00 L1699.95 1529.97 L1733.24 1545.69 L1766.66 1561.03 L1799.94 1576.13 L1833.36 1590.98 L1866.77 1605.58 L1900.06 1619.81 L1933.47 1633.92 L1966.76 1647.78 L2000.17 1661.52 L2033.46 1674.88 L2066.87 1688.13 L2100.16 1701.24 L2133.57 1713.99 L2166.99 1726.74 L2200.28 1739.24 L2233.69 1751.61 L2266.98 1763.74 L2300.39 1775.74 L2333.68 1787.62 L2367.09 1799.38 L2400.38 1810.89 L2433.79 1822.40 L2467.08 1833.66 L2500.49 1844.80 L2533.91 1855.81 L2567.19 1866.70 L2600.61 1877.47 L2633.90 1888.11 L2667.31 1898.63 L2700.60 1909.03 L2734.01 1919.30 L2767.30 1929.45 L2800.71 1939.59 L2834.12 1949.49 L2867.41 1959.39 L2900.82 1969.17 L2934.11 1978.82 L2967.53 1988.35 L3000.81 1997.88 L3034.23 2007.16 L3067.52 2016.45 L3100.93 2025.73 L3134.34 2034.76 L3167.63 2043.80 L3201.04 2052.71 L3234.33 2061.62 L3267.74 2070.40 L3301.03 2079.06 L3334.44 2087.60 L3367.73 2096.14 L3401.15 2104.68 L3434.43 2112.97 L3467.85 2121.27 L3501.26 2129.56 L3534.55 2137.72 L3567.96 2145.77 L3601.25 2153.81 L3634.66 2161.86 L3667.95 2169.78 L3701.36 2177.57 L3734.65 2185.37 L3768.06 2193.04 L3801.48 2200.72" stroke-linejoin="round" style="fill:none;stroke:#377EB8;stroke-width:8.64"/>
	<line x1="465.80" y1="2489.19" x2="465.80" y2="100.86" style="stroke:#000000;stroke-width:5.76"/>
	<line x1="465.80" y1="2489.19" x2="425.82" y2="2489.19" style="stroke:#000000;stroke-width:5.76"/>
	<text x="405.78" y="2524.21" style="font-family:'Helvetica';font-size:99.99px;fill:#000000" text-anchor="end">0.5</text>
	<line x1="465.80" y1="2011.50" x2="425.82" y2="2011.50" style="stroke:#000000;stroke-width:5.76"/>
	<text x="405.78" y="2046.52" style="font-family:'Helvetica';font-size:99.99px;fill:#000000" text-anchor="end">0.6</text>
	<line x1="465.80" y1="1533.81" x2="425.82" y2="1533.81" style="stroke:#000000;stroke-width:5.76"/>
	<text x="405.78" y="1568.83" style="font-family:'Helvetica';font-size:99.99px;fill:#000000" text-anchor="end">0.7</text>
	<line x1="465.80" y1="1056.12" x2="425.82" y2="1056.12" style="stroke:#000000;stroke-width:5.76"/>
	<text x="405.78" y="1091.14" style="font-family:'Helvetica';font-size:99.99px;fill:#000000" text-anchor="end">0.8</text>
	<line x1="465.80" y1="578.43" x2="425.82" y2="578.43" style="stroke:#000000;stroke-width:5.76"/>
	<text x="405.78" y="613.45" style="font-family:'Helvetica';font-size:99.99px;fill:#000000" text-anchor="end">0.9</text>
	<line x1="465.80" y1="100.86" x2="425.82" y2="100.86" style="stroke:#000000;stroke-width:5.76"/>
	<text x="405.78" y="135.89" style="font-family:'Helvetica';font-size:99.99px;fill:#000000" text-anchor="end">1.0</text>
	<text x="190.71" y="1294.96" style="font-family:'Helvetica';font-size:99.99px;fill:#000000" transform="rotate(-90 190.71,1294.96)" text-anchor="middle">Marginal Relative Survival</text>
	<line x1="465.80" y1="2489.19" x2="3859.02" y2="2489.19" style="stroke:#000000;stroke-width:5.76"/>
	<line x1="465.80" y1="2489.19" x2="465.80" y2="2529.16" style="stroke:#000000;stroke-width:5.76"/>
	<text x="465.80" y="2619.14" style="font-family:'Helvetica';font-size:99.99px;fill:#000000" text-anchor="middle">0</text>
	<line x1="1132.93" y1="2489.19" x2="1132.93" y2="2529.16" style="stroke:#000000;stroke-width:5.76"/>
	<text x="1132.93" y="2619.14" style="font-family:'Helvetica';font-size:99.99px;fill:#000000" text-anchor="middle">2</text>
	<line x1="1800.07" y1="2489.19" x2="1800.07" y2="2529.16" style="stroke:#000000;stroke-width:5.76"/>
	<text x="1800.07" y="2619.14" style="font-family:'Helvetica';font-size:99.99px;fill:#000000" text-anchor="middle">4</text>
	<line x1="2467.20" y1="2489.19" x2="2467.20" y2="2529.16" style="stroke:#000000;stroke-width:5.76"/>
	<text x="2467.20" y="2619.14" style="font-family:'Helvetica';font-size:99.99px;fill:#000000" text-anchor="middle">6</text>
	<line x1="3134.34" y1="2489.19" x2="3134.34" y2="2529.16" style="stroke:#000000;stroke-width:5.76"/>
	<text x="3134.34" y="2619.14" style="font-family:'Helvetica';font-size:99.99px;fill:#000000" text-anchor="middle">8</text>
	<line x1="3801.48" y1="2489.19" x2="3801.48" y2="2529.16" style="stroke:#000000;stroke-width:5.76"/>
	<text x="3801.48" y="2619.14" style="font-family:'Helvetica';font-size:99.99px;fill:#000000" text-anchor="middle">10</text>
	<text x="2162.41" y="2729.16" style="font-family:'Helvetica';font-size:99.99px;fill:#000000" text-anchor="middle">Years from diagnosis</text>
	<rect x="3089.30" y="135.39" width="735.20" height="257.28" style="fill:#FFFFFF"/>
	<rect x="3092.17" y="138.27" width="729.44" height="251.52" style="fill:none;stroke:#FFFFFF;stroke-width:5.76"/>
	<line x1="3097.96" y1="194.05" x2="3297.94" y2="194.05" style="stroke:#E41A1C;stroke-width:8.64"/>
	<line x1="3097.96" y1="334.01" x2="3297.94" y2="334.01" style="stroke:#377EB8;stroke-width:8.64"/>
	<text x="3357.96" y="229.07" style="font-family:'Helvetica';font-size:99.99px;fill:#000000">Country A</text>
	<text x="3357.96" y="369.04" style="font-family:'Helvetica';font-size:99.99px;fill:#000000">Country B</text>
</svg>
