<?xml version="1.0" encoding="UTF-8" standalone="no"?>
<!-- This is a Stata 18.5 generated SVG file (http://www.stata.com) -->

<svg version="1.1" width="700px" height="509px" viewBox="0 0 3960 2880" xmlns="http://www.w3.org/2000/svg" xmlns:xlink="http://www.w3.org/1999/xlink">
	<desc>Stata Graph - Graph</desc>
	<rect x="0" y="0" width="3960" height="2880" style="fill:#FFFFFF;stroke:none"/>
	<rect x="0.00" y="0.00" width="3959.88" height="2880.00" style="fill:#FFFFFF"/>
	<rect x="2.88" y="2.88" width="3954.12" height="2874.24" style="fill:none;stroke:#FFFFFF;stroke-width:5.76"/>
	<line x1="465.80" y1="2489.19" x2="3859.02" y2="2489.19" style="stroke:#C0C0C0;stroke-opacity:0.50;stroke-width:5.76"/>
	<line x1="465.80" y1="2091.19" x2="3859.02" y2="2091.19" style="stroke:#C0C0C0;stroke-opacity:0.50;stroke-width:5.76"/>
	<line x1="465.80" y1="1693.08" x2="3859.02" y2="1693.08" style="stroke:#C0C0C0;stroke-opacity:0.50;stroke-width:5.76"/>
	<line x1="465.80" y1="1294.96" x2="3859.02" y2="1294.96" style="stroke:#C0C0C0;stroke-opacity:0.50;stroke-width:5.76"/>
	<line x1="465.80" y1="896.97" x2="3859.02" y2="896.97" style="stroke:#C0C0C0;stroke-opacity:0.50;stroke-width:5.76"/>
	<line x1="465.80" y1="498.85" x2="3859.02" y2="498.85" style="stroke:#C0C0C0;stroke-opacity:0.50;stroke-width:5.76"/>
	<line x1="465.80" y1="100.86" x2="3859.02" y2="100.86" style="stroke:#C0C0C0;stroke-opacity:0.50;stroke-width:5.76"/>
	<line x1="465.80" y1="2489.19" x2="465.80" y2="100.86" style="stroke:#C0C0C0;stroke-opacity:0.50;stroke-width:5.76"/>
	<line x1="1132.93" y1="2489.19" x2="1132.93" y2="100.86" style="stroke:#C0C0C0;stroke-opacity:0.50;stroke-width:5.76"/>
	<line x1="1800.07" y1="2489.19" x2="1800.07" y2="100.86" style="stroke:#C0C0C0;stroke-opacity:0.50;stroke-width:5.76"/>
	<line x1="2467.20" y1="2489.19" x2="2467.20" y2="100.86" style="stroke:#C0C0C0;stroke-opacity:0.50;stroke-width:5.76"/>
	<line x1="3134.34" y1="2489.19" x2="3134.34" y2="100.86" style="stroke:#C0C0C0;stroke-opacity:0.50;stroke-width:5.76"/>
	<line x1="3801.48" y1="2489.19" x2="3801.48" y2="100.86" style="stroke:#C0C0C0;stroke-opacity:0.50;stroke-width:5.76"/>
	<defs>
		<path id="path_czETiREn" d="M465.80 100.86 L465.80 100.86 L499.08 265.58 L532.50 367.05 L565.91 444.90 L599.20 508.75 L632.61 563.58 L665.90 612.09 L699.31 656.02 L732.60 696.12 L766.01 732.99 L799.30 766.66 L832.71 797.22 L866.00 825.19 L899.42 851.18 L932.83 875.31 L966.12 898.21 L999.53 919.99 L1032.82 940.90 L1066.23 961.07 L1099.52 980.50 L1132.93 999.44 L1166.22 1018.00 L1199.63 1036.07 L1233.05 1053.76 L1266.33 1071.09 L1299.75 1088.17 L1333.04 1105.00 L1366.45 1121.58 L1399.74 1138.04 L1433.15 1154.13 L1466.44 1170.09 L1499.85 1185.69 L1533.26 1201.03 L1566.55 1215.88 L1599.96 1230.48 L1633.25 1244.59 L1666.67 1258.33 L1699.95 1271.69 L1733.37 1284.69 L1766.66 1297.31 L1800.07 1309.56 L1833.36 1321.32 L1866.77 1332.83 L1900.18 1343.97 L1933.47 1354.73 L1966.88 1365.13 L2000.17 1375.28 L2033.58 1385.05 L2066.87 1394.46 L2100.29 1403.49 L2133.57 1412.28 L2166.99 1420.69 L2200.40 1428.86 L2233.69 1436.66 L2267.10 1444.21 L2300.39 1451.51 L2333.80 1458.56 L2367.09 1465.37 L2400.50 1471.93 L2433.79 1478.24 L2467.20 1484.43 L2500.62 1490.37 L2533.91 1496.06 L2567.32 1501.75 L2600.61 1507.20 L2634.02 1512.40 L2667.31 1517.59 L2700.72 1522.67 L2734.01 1527.49 L2767.42 1532.32 L2800.71 1536.90 L2834.12 1541.48 L2867.54 1545.93 L2900.82 1550.39 L2934.24 1554.60 L2967.53 1558.80 L3000.94 1562.89 L3034.23 1566.97 L3067.64 1570.93 L3100.93 1574.89 L3134.34 1578.73 L3167.75 1582.44 L3201.04 1586.15 L3234.45 1589.87 L3267.74 1593.45 L3301.16 1597.04 L3334.44 1600.51 L3367.86 1604.10 L3401.15 1607.44 L3434.56 1610.90 L3467.97 1614.25 L3501.26 1617.59 L3534.67 1620.93 L3567.96 1624.15 L3601.37 1627.49 L3634.66 1630.70 L3668.07 1633.80 L3701.36 1637.02 L3734.78 1640.11 L3768.06 1643.33 L3801.48 1646.42 L3801.48 1499.53 L3768.06 1497.17 L3734.78 1494.70 L3701.36 1492.22 L3668.07 1489.75 L3634.66 1487.15 L3601.37 1484.68 L3567.96 1482.08 L3534.67 1479.35 L3501.26 1476.63 L3467.97 1473.91 L3434.56 1471.19 L3401.15 1468.34 L3367.86 1465.49 L3334.44 1462.52 L3301.16 1459.55 L3267.74 1456.58 L3234.45 1453.49 L3201.04 1450.27 L3167.75 1447.05 L3134.34 1443.71 L3100.93 1440.37 L3067.64 1436.91 L3034.23 1433.44 L3000.94 1429.85 L2967.53 1426.14 L2934.24 1422.30 L2900.82 1418.47 L2867.54 1414.51 L2834.12 1410.42 L2800.71 1406.22 L2767.42 1401.88 L2734.01 1397.55 L2700.72 1392.97 L2667.31 1388.27 L2634.02 1383.44 L2600.61 1378.49 L2567.32 1373.42 L2533.91 1368.10 L2500.62 1362.65 L2467.20 1357.08 L2433.79 1351.27 L2400.50 1345.33 L2367.09 1339.14 L2333.80 1332.71 L2300.39 1326.15 L2267.10 1319.22 L2233.69 1312.16 L2200.40 1304.74 L2166.99 1297.06 L2133.57 1289.14 L2100.29 1280.98 L2066.87 1272.44 L2033.58 1263.53 L2000.17 1254.37 L1966.88 1244.84 L1933.47 1235.06 L1900.18 1224.92 L1866.77 1214.40 L1833.36 1203.63 L1800.07 1192.37 L1766.66 1180.86 L1733.37 1168.86 L1699.95 1156.48 L1666.67 1143.86 L1633.25 1130.74 L1599.96 1117.25 L1566.55 1103.39 L1533.26 1089.16 L1499.85 1074.55 L1466.44 1059.70 L1433.15 1044.48 L1399.74 1029.14 L1366.45 1013.54 L1333.04 997.95 L1299.75 982.11 L1266.33 966.15 L1233.05 949.93 L1199.63 933.48 L1166.22 916.64 L1132.93 899.44 L1099.52 881.87 L1066.23 863.68 L1032.82 844.74 L999.53 825.07 L966.12 804.52 L932.83 782.74 L899.42 759.60 L866.00 734.97 L832.71 708.24 L799.30 679.28 L766.01 647.73 L732.60 613.20 L699.31 575.95 L665.90 535.48 L632.61 491.18 L599.20 441.31 L565.91 383.64 L532.50 314.33 L499.08 225.97 L465.80 100.86 L465.80 100.86 Z" stroke-linejoin="round"/>
	</defs>
	<defs>
		<clipPath id="clipPath_LNUkBoZN">
			<use xlink:href="#path_czETiREn"/>
		</clipPath>
	</defs>
	<use xlink:href="#path_czETiREn" style="stroke:none;fill:#E94849;fill-opacity:0.30"/>
	<use xlink:href="#path_czETiREn" style="fill:none;stroke:#E41A1C;stroke-opacity:0.30;stroke-width:17.28" clip-path="url(#clipPath_LNUkBoZN)"/>
	<path d=" M465.67 100.86 L499.08 245.90 L532.37 340.82 L565.79 414.45 L599.20 475.21 L632.49 527.56 L665.90 574.09 L699.19 616.29 L732.60 655.03 L765.89 690.67 L799.30 723.34 L832.59 753.17 L866.00 780.39 L899.42 805.76 L932.70 829.40 L966.12 851.80 L999.41 872.96 L1032.82 893.26 L1066.11 912.81 L1099.52 931.62 L1132.81 949.93 L1166.22 967.76 L1199.63 985.20 L1232.92 1002.28 L1266.33 1019.11 L1299.62 1035.70 L1333.04 1052.03 L1366.32 1068.12 L1399.74 1084.08 L1433.03 1099.92 L1466.44 1115.52 L1499.73 1130.74 L1533.14 1145.71 L1566.55 1160.19 L1599.84 1174.42 L1633.25 1188.28 L1666.54 1201.77 L1699.95 1214.77 L1733.24 1227.39 L1766.66 1239.77 L1799.94 1251.65 L1833.36 1263.16 L1866.77 1274.29 L1900.06 1285.18 L1933.47 1295.58 L1966.76 1305.73 L2000.17 1315.50 L2033.46 1325.03 L2066.87 1334.19 L2100.16 1342.98 L2133.57 1351.52 L2166.99 1359.68 L2200.28 1367.60 L2233.69 1375.15 L2266.98 1382.58 L2300.39 1389.63 L2333.68 1396.44 L2367.09 1403.00 L2400.38 1409.43 L2433.79 1415.62 L2467.08 1421.56 L2500.49 1427.38 L2533.91 1432.95 L2567.19 1438.39 L2600.61 1443.71 L2633.90 1448.79 L2667.31 1453.86 L2700.60 1458.69 L2734.01 1463.39 L2767.30 1467.97 L2800.71 1472.42 L2834.12 1476.88 L2867.41 1481.09 L2900.82 1485.29 L2934.11 1489.38 L2967.53 1493.34 L3000.81 1497.30 L3034.23 1501.13 L3067.52 1504.85 L3100.93 1508.56 L3134.34 1512.15 L3167.63 1515.74 L3201.04 1519.20 L3234.33 1522.67 L3267.74 1526.01 L3301.03 1529.35 L3334.44 1532.57 L3367.73 1535.79 L3401.15 1538.88 L3434.43 1542.10 L3467.85 1545.19 L3501.26 1548.16 L3534.55 1551.25 L3567.96 1554.22 L3601.25 1557.07 L3634.66 1560.04 L3667.95 1562.89 L3701.36 1565.73 L3734.65 1568.58 L3768.06 1571.30 L3801.48 1574.15" stroke-linejoin="round" style="fill:none;stroke:#E41A1C;stroke-width:8.64"/>
	<defs>
		<path id="path_WdrBxVfe" d="M465.80 100.86 L465.80 100.86 L499.08 388.83 L532.50 552.07 L565.91 667.40 L599.20 755.64 L632.61 827.29 L665.90 887.69 L699.31 939.91 L732.60 985.95 L766.01 1026.66 L799.30 1062.67 L832.71 1094.48 L866.00 1122.82 L899.42 1148.31 L932.83 1171.83 L966.12 1193.73 L999.53 1214.40 L1032.82 1234.07 L1066.23 1253.01 L1099.52 1271.32 L1132.93 1289.14 L1166.22 1306.59 L1199.63 1323.80 L1233.05 1340.50 L1266.33 1357.21 L1299.75 1373.54 L1333.04 1389.76 L1366.45 1405.97 L1399.74 1421.93 L1433.15 1437.90 L1466.44 1453.61 L1499.85 1469.08 L1533.26 1484.30 L1566.55 1499.28 L1599.96 1513.88 L1633.25 1528.11 L1666.67 1541.97 L1699.95 1555.46 L1733.37 1568.70 L1766.66 1581.45 L1800.07 1593.83 L1833.36 1605.95 L1866.77 1617.71 L1900.18 1628.97 L1933.47 1639.99 L1966.88 1650.63 L2000.17 1661.02 L2033.58 1670.92 L2066.87 1680.58 L2100.29 1689.86 L2133.57 1698.89 L2166.99 1707.56 L2200.40 1715.85 L2233.69 1723.89 L2267.10 1731.69 L2300.39 1739.11 L2333.80 1746.29 L2367.09 1753.34 L2400.50 1760.03 L2433.79 1766.59 L2467.20 1772.90 L2500.62 1778.96 L2533.91 1784.90 L2567.32 1790.72 L2600.61 1796.29 L2634.02 1801.73 L2667.31 1807.05 L2700.72 1812.25 L2734.01 1817.20 L2767.42 1822.15 L2800.71 1826.98 L2834.12 1831.68 L2867.54 1836.38 L2900.82 1840.84 L2934.24 1845.29 L2967.53 1849.63 L3000.94 1853.83 L3034.23 1858.04 L3067.64 1862.12 L3100.93 1866.21 L3134.34 1870.17 L3167.75 1874.13 L3201.04 1877.96 L3234.45 1881.80 L3267.74 1885.51 L3301.16 1889.23 L3334.44 1892.94 L3367.86 1896.53 L3401.15 1900.12 L3434.56 1903.71 L3467.97 1907.17 L3501.26 1910.64 L3534.67 1914.10 L3567.96 1917.44 L3601.37 1920.78 L3634.66 1924.13 L3668.07 1927.47 L3701.36 1930.81 L3734.78 1934.03 L3768.06 1937.24 L3801.48 1940.46 L3801.48 1764.61 L3768.06 1762.26 L3734.78 1759.90 L3701.36 1757.43 L3668.07 1754.95 L3634.66 1752.35 L3601.37 1749.88 L3567.96 1747.28 L3534.67 1744.68 L3501.26 1741.96 L3467.97 1739.24 L3434.56 1736.51 L3401.15 1733.67 L3367.86 1730.82 L3334.44 1727.85 L3301.16 1724.88 L3267.74 1721.79 L3234.45 1718.69 L3201.04 1715.60 L3167.75 1712.38 L3134.34 1709.04 L3100.93 1705.58 L3067.64 1702.11 L3034.23 1698.65 L3000.94 1694.93 L2967.53 1691.22 L2934.24 1687.51 L2900.82 1683.55 L2867.54 1679.46 L2834.12 1675.38 L2800.71 1671.17 L2767.42 1666.84 L2734.01 1662.39 L2700.72 1657.68 L2667.31 1652.98 L2634.02 1648.03 L2600.61 1643.08 L2567.32 1637.88 L2533.91 1632.56 L2500.62 1626.99 L2467.20 1621.30 L2433.79 1615.36 L2400.50 1609.30 L2367.09 1602.98 L2333.80 1596.42 L2300.39 1589.62 L2267.10 1582.69 L2233.69 1575.39 L2200.40 1567.84 L2166.99 1559.92 L2133.57 1551.87 L2100.29 1543.33 L2066.87 1534.67 L2033.58 1525.51 L2000.17 1516.23 L1966.88 1506.46 L1933.47 1496.43 L1900.18 1486.04 L1866.77 1475.27 L1833.36 1464.13 L1800.07 1452.62 L1766.66 1440.87 L1733.37 1428.74 L1699.95 1416.12 L1666.67 1403.25 L1633.25 1390.00 L1599.96 1376.27 L1566.55 1362.28 L1533.26 1348.05 L1499.85 1333.45 L1466.44 1318.47 L1433.15 1303.50 L1399.74 1288.28 L1366.45 1272.93 L1333.04 1257.71 L1299.75 1242.37 L1266.33 1226.90 L1233.05 1211.43 L1199.63 1195.71 L1166.22 1179.75 L1132.93 1163.66 L1099.52 1147.07 L1066.23 1130.00 L1032.82 1112.18 L999.53 1093.74 L966.12 1074.18 L932.83 1053.27 L899.42 1030.87 L866.00 1006.49 L832.71 979.51 L799.30 949.32 L766.01 915.28 L732.60 876.92 L699.31 833.61 L665.90 784.72 L632.61 728.42 L599.20 661.84 L565.91 580.03 L532.50 474.72 L499.08 329.56 L465.80 100.86 L465.80 100.86 Z" stroke-linejoin="round"/>
	</defs>
	<defs>
		<clipPath id="clipPath_jpXTMsEd">
			<use xlink:href="#path_WdrBxVfe"/>
		</clipPath>
	</defs>
	<use xlink:href="#path_WdrBxVfe" style="stroke:none;fill:#5F98C6;fill-opacity:0.30"/>
	<use xlink:href="#path_WdrBxVfe" style="fill:none;stroke:#377EB8;stroke-opacity:0.30;stroke-width:17.28" clip-path="url(#clipPath_jpXTMsEd)"/>
	<path d=" M465.67 100.86 L499.08 359.38 L532.37 513.70 L565.79 624.09 L599.20 709.11 L632.49 778.29 L665.90 836.70 L699.19 887.32 L732.60 931.87 L765.89 971.47 L799.30 1006.61 L832.59 1037.68 L866.00 1065.27 L899.42 1090.27 L932.70 1113.17 L966.12 1134.58 L999.41 1154.75 L1032.82 1173.81 L1066.11 1192.24 L1099.52 1209.94 L1132.81 1227.14 L1166.22 1243.97 L1199.63 1260.56 L1232.92 1276.77 L1266.33 1292.86 L1299.62 1308.82 L1333.04 1324.54 L1366.32 1340.25 L1399.74 1355.97 L1433.03 1371.56 L1466.44 1387.03 L1499.73 1402.13 L1533.14 1417.11 L1566.55 1431.71 L1599.84 1446.06 L1633.25 1460.05 L1666.54 1473.54 L1699.95 1486.78 L1733.24 1499.65 L1766.66 1512.15 L1799.94 1524.28 L1833.36 1536.03 L1866.77 1547.54 L1900.06 1558.56 L1933.47 1569.32 L1966.76 1579.72 L2000.17 1589.74 L2033.46 1599.39 L2066.87 1608.80 L2100.16 1617.83 L2133.57 1626.50 L2166.99 1634.91 L2200.28 1643.08 L2233.69 1650.88 L2266.98 1658.30 L2300.39 1665.60 L2333.68 1672.66 L2367.09 1679.34 L2400.38 1685.90 L2433.79 1692.21 L2467.08 1698.27 L2500.49 1704.21 L2533.91 1710.03 L2567.19 1715.60 L2600.61 1720.92 L2633.90 1726.24 L2667.31 1731.32 L2700.60 1736.27 L2734.01 1741.09 L2767.30 1745.80 L2800.71 1750.50 L2834.12 1754.95 L2867.41 1759.28 L2900.82 1763.62 L2934.11 1767.82 L2967.53 1771.91 L3000.81 1775.87 L3034.23 1779.83 L3067.52 1783.66 L3100.93 1787.38 L3134.34 1791.09 L3167.63 1794.68 L3201.04 1798.27 L3234.33 1801.73 L3267.74 1805.20 L3301.03 1808.66 L3334.44 1812.00 L3367.73 1815.22 L3401.15 1818.44 L3434.43 1821.66 L3467.85 1824.87 L3501.26 1827.97 L3534.55 1830.94 L3567.96 1834.03 L3601.25 1837.00 L3634.66 1839.97 L3667.95 1842.94 L3701.36 1845.79 L3734.65 1848.64 L3768.06 1851.48 L3801.48 1854.33" stroke-linejoin="round" style="fill:none;stroke:#377EB8;stroke-width:8.64"/>
	<line x1="465.80" y1="2489.19" x2="465.80" y2="100.86" style="stroke:#000000;stroke-width:5.76"/>
	<line x1="465.80" y1="2489.19" x2="425.82" y2="2489.19" style="stroke:#000000;stroke-width:5.76"/>
	<text x="405.78" y="2524.21" style="font-family:'Helvetica';font-size:99.99px;fill:#000000" text-anchor="end">0.4</text>
	<line x1="465.80" y1="2091.19" x2="425.82" y2="2091.19" style="stroke:#000000;stroke-width:5.76"/>
	<text x="405.78" y="2126.22" style="font-family:'Helvetica';font-size:99.99px;fill:#000000" text-anchor="end">0.5</text>
	<line x1="465.80" y1="1693.08" x2="425.82" y2="1693.08" style="stroke:#000000;stroke-width:5.76"/>
	<text x="405.78" y="1728.11" style="font-family:'Helvetica';font-size:99.99px;fill:#000000" text-anchor="end">0.6</text>
	<line x1="465.80" y1="1294.96" x2="425.82" y2="1294.96" style="stroke:#000000;stroke-width:5.76"/>
	<text x="405.78" y="1329.99" style="font-family:'Helvetica';font-size:99.99px;fill:#000000" text-anchor="end">0.7</text>
	<line x1="465.80" y1="896.97" x2="425.82" y2="896.97" style="stroke:#000000;stroke-width:5.76"/>
	<text x="405.78" y="932.00" style="font-family:'Helvetica';font-size:99.99px;fill:#000000" text-anchor="end">0.8</text>
	<line x1="465.80" y1="498.85" x2="425.82" y2="498.85" style="stroke:#000000;stroke-width:5.76"/>
	<text x="405.78" y="533.88" style="font-family:'Helvetica';font-size:99.99px;fill:#000000" text-anchor="end">0.9</text>
	<line x1="465.80" y1="100.86" x2="425.82" y2="100.86" style="stroke:#000000;stroke-width:5.76"/>
	<text x="405.78" y="135.89" style="font-family:'Helvetica';font-size:99.99px;fill:#000000" text-anchor="end">1.0</text>
	<text x="190.71" y="1294.96" style="font-family:'Helvetica';font-size:99.99px;fill:#000000" transform="rotate(-90 190.71,1294.96)" text-anchor="middle">Marginal Relative Survival</text>
	<line x1="465.80" y1="2489.19" x2="3859.02" y2="2489.19" style="stroke:#000000;stroke-width:5.76"/>
	<line x1="465.80" y1="2489.19" x2="465.80" y2="2529.16" style="stroke:#000000;stroke-width:5.76"/>
	<text x="465.80" y="2619.14" style="font-family:'Helvetica';font-size:99.99px;fill:#000000" text-anchor="middle">0</text>
	<line x1="1132.93" y1="2489.19" x2="1132.93" y2="2529.16" style="stroke:#000000;stroke-width:5.76"/>
	<text x="1132.93" y="2619.14" style="font-family:'Helvetica';font-size:99.99px;fill:#000000" text-anchor="middle">1</text>
	<line x1="1800.07" y1="2489.19" x2="1800.07" y2="2529.16" style="stroke:#000000;stroke-width:5.76"/>
	<text x="1800.07" y="2619.14" style="font-family:'Helvetica';font-size:99.99px;fill:#000000" text-anchor="middle">2</text>
	<line x1="2467.20" y1="2489.19" x2="2467.20" y2="2529.16" style="stroke:#000000;stroke-width:5.76"/>
	<text x="2467.20" y="2619.14" style="font-family:'Helvetica';font-size:99.99px;fill:#000000" text-anchor="middle">3</text>
	<line x1="3134.34" y1="2489.19" x2="3134.34" y2="2529.16" style="stroke:#000000;stroke-width:5.76"/>
	<text x="3134.34" y="2619.14" style="font-family:'Helvetica';font-size:99.99px;fill:#000000" text-anchor="middle">4</text>
	<line x1="3801.48" y1="2489.19" x2="3801.48" y2="2529.16" style="stroke:#000000;stroke-width:5.76"/>
	<text x="3801.48" y="2619.14" style="font-family:'Helvetica';font-size:99.99px;fill:#000000" text-anchor="middle">5</text>
	<text x="2162.41" y="2729.16" style="font-family:'Helvetica';font-size:99.99px;fill:#000000" text-anchor="middle">Years from diagnosis</text>
</svg>
