<?xml version="1.0" encoding="UTF-8" standalone="no"?>
<!-- This is a Stata 18.5 generated SVG file (http://www.stata.com) -->

<svg version="1.1" width="700px" height="509px" viewBox="0 0 3960 2880" xmlns="http://www.w3.org/2000/svg" xmlns:xlink="http://www.w3.org/1999/xlink">
	<desc>Stata Graph - Graph</desc>
	<rect x="0" y="0" width="3960" height="2880" style="fill:#FFFFFF;stroke:none"/>
	<rect x="0.00" y="0.00" width="3959.88" height="2880.00" style="fill:#FFFFFF"/>
	<rect x="2.88" y="2.88" width="3954.12" height="2874.24" style="fill:none;stroke:#FFFFFF;stroke-width:5.76"/>
	<line x1="465.80" y1="1861.88" x2="3859.02" y2="1861.88" style="stroke:#C0C0C0;stroke-width:5.76"/>
	<line x1="465.80" y1="1509.67" x2="3859.02" y2="1509.67" style="stroke:#C0C0C0;stroke-width:5.76"/>
	<line x1="465.80" y1="1157.47" x2="3859.02" y2="1157.47" style="stroke:#C0C0C0;stroke-width:5.76"/>
	<line x1="465.80" y1="805.39" x2="3859.02" y2="805.39" style="stroke:#C0C0C0;stroke-width:5.76"/>
	<line x1="465.80" y1="453.19" x2="3859.02" y2="453.19" style="stroke:#C0C0C0;stroke-width:5.76"/>
	<line x1="465.80" y1="100.98" x2="3859.02" y2="100.98" style="stroke:#C0C0C0;stroke-width:5.76"/>
	<line x1="465.80" y1="2489.19" x2="465.80" y2="100.86" style="stroke:#C0C0C0;stroke-width:5.76"/>
	<line x1="1132.93" y1="2489.19" x2="1132.93" y2="100.86" style="stroke:#C0C0C0;stroke-width:5.76"/>
	<line x1="1800.07" y1="2489.19" x2="1800.07" y2="100.86" style="stroke:#C0C0C0;stroke-width:5.76"/>
	<line x1="2467.20" y1="2489.19" x2="2467.20" y2="100.86" style="stroke:#C0C0C0;stroke-width:5.76"/>
	<line x1="3134.34" y1="2489.19" x2="3134.34" y2="100.86" style="stroke:#C0C0C0;stroke-width:5.76"/>
	<line x1="3801.48" y1="2489.19" x2="3801.48" y2="100.86" style="stroke:#C0C0C0;stroke-width:5.76"/>
	<defs>
		<path id="path_EQWRIjZm" d="M465.80 100.98 L465.80 100.98 L499.08 102.10 L532.50 106.55 L565.91 114.72 L599.20 126.35 L632.61 141.33 L665.90 159.52 L699.31 180.80 L732.60 204.94 L766.01 231.79 L799.30 261.37 L832.71 293.17 L866.00 327.33 L899.42 363.34 L932.83 401.21 L966.12 440.44 L999.53 480.78 L1032.82 522.12 L1066.23 564.07 L1099.52 606.64 L1132.93 649.34 L1166.22 692.28 L1199.63 735.10 L1233.05 777.79 L1266.33 820.24 L1299.75 862.32 L1333.04 904.02 L1366.45 945.36 L1399.74 986.32 L1433.15 1026.54 L1466.44 1066.39 L1499.85 1105.37 L1533.26 1143.86 L1566.55 1181.48 L1599.96 1218.23 L1633.25 1254.25 L1666.67 1289.27 L1699.95 1323.42 L1733.37 1356.59 L1766.66 1388.89 L1800.07 1420.08 L1833.36 1450.40 L1866.77 1479.85 L1900.18 1508.56 L1933.47 1536.40 L1966.88 1563.51 L2000.17 1589.99 L2033.58 1615.85 L2066.87 1641.10 L2100.29 1665.85 L2133.57 1689.98 L2166.99 1713.62 L2200.40 1736.89 L2233.69 1759.53 L2267.10 1781.81 L2300.39 1803.59 L2333.80 1825.00 L2367.09 1846.04 L2400.50 1866.58 L2433.79 1886.75 L2467.20 1906.55 L2500.62 1925.98 L2533.91 1944.92 L2567.32 1963.60 L2600.61 1982.04 L2634.02 1999.99 L2667.31 2017.68 L2700.72 2035.01 L2734.01 2052.09 L2767.42 2068.79 L2800.71 2085.38 L2834.12 2101.59 L2867.54 2117.55 L2900.82 2133.15 L2934.24 2148.61 L2967.53 2163.96 L3000.94 2178.93 L3034.23 2193.66 L3067.64 2208.26 L3100.93 2222.74 L3134.34 2236.97 L3167.75 2250.96 L3201.04 2264.82 L3234.45 2278.43 L3267.74 2292.05 L3301.16 2305.29 L3334.44 2318.53 L3367.86 2331.65 L3401.15 2344.52 L3434.56 2357.26 L3467.97 2369.89 L3501.26 2382.39 L3534.67 2394.76 L3567.96 2407.01 L3601.37 2419.14 L3634.66 2431.14 L3668.07 2442.90 L3701.36 2454.66 L3734.78 2466.29 L3768.06 2477.80 L3801.48 2489.19 L3801.48 2328.43 L3768.06 2317.54 L3734.78 2306.40 L3701.36 2295.14 L3668.07 2283.75 L3634.66 2272.12 L3601.37 2260.36 L3567.96 2248.36 L3534.67 2236.23 L3501.26 2223.98 L3467.97 2211.48 L3434.56 2198.73 L3401.15 2185.86 L3367.86 2172.75 L3334.44 2159.50 L3301.16 2145.89 L3267.74 2132.28 L3234.45 2118.29 L3201.04 2104.19 L3167.75 2089.83 L3134.34 2075.23 L3100.93 2060.38 L3067.64 2045.28 L3034.23 2030.06 L3000.94 2014.47 L2967.53 1998.75 L2934.24 1982.78 L2900.82 1966.57 L2867.54 1950.11 L2834.12 1933.41 L2800.71 1916.45 L2767.42 1899.25 L2734.01 1881.68 L2700.72 1863.98 L2667.31 1846.04 L2634.02 1827.84 L2600.61 1809.28 L2567.32 1790.59 L2533.91 1771.54 L2500.62 1752.23 L2467.20 1732.55 L2433.79 1712.63 L2400.50 1692.46 L2367.09 1671.91 L2333.80 1651.00 L2300.39 1629.59 L2267.10 1607.93 L2233.69 1585.78 L2200.40 1563.14 L2166.99 1540.12 L2133.57 1516.48 L2100.29 1492.35 L2066.87 1467.72 L2033.58 1442.48 L2000.17 1416.61 L1966.88 1390.13 L1933.47 1363.03 L1900.18 1335.30 L1866.77 1306.84 L1833.36 1277.76 L1800.07 1248.06 L1766.66 1217.74 L1733.37 1186.68 L1699.95 1154.99 L1666.67 1122.57 L1633.25 1089.53 L1599.96 1055.74 L1566.55 1021.22 L1533.26 986.07 L1499.85 950.18 L1466.44 913.80 L1433.15 876.67 L1399.74 839.05 L1366.45 800.94 L1333.04 762.32 L1299.75 723.59 L1266.33 684.73 L1233.05 645.87 L1199.63 607.14 L1166.22 568.90 L1132.93 530.90 L1099.52 493.53 L1066.23 456.90 L1032.82 421.13 L999.53 386.24 L966.12 352.33 L932.83 319.78 L899.42 288.59 L866.00 259.02 L832.71 231.17 L799.30 205.31 L766.01 181.92 L732.60 161.00 L699.31 142.94 L665.90 128.09 L632.61 116.58 L599.20 108.41 L565.91 103.46 L532.50 101.23 L499.08 100.86 L465.80 100.98 L465.80 100.98 Z" stroke-linejoin="round"/>
	</defs>
	<defs>
		<clipPath id="clipPath_XEMqlBVM">
			<use xlink:href="#path_EQWRIjZm"/>
		</clipPath>
	</defs>
	<use xlink:href="#path_EQWRIjZm" style="stroke:none;fill:#FF3333;fill-opacity:0.25"/>
	<use xlink:href="#path_EQWRIjZm" style="fill:none;stroke:#FF0000;stroke-opacity:0.25;stroke-width:17.28" clip-path="url(#clipPath_XEMqlBVM)"/>
	<defs>
		<path id="path_VEZPdhDw" d="M465.80 100.98 L465.80 100.98 L499.08 101.85 L532.50 105.44 L565.91 111.87 L599.20 121.28 L632.61 133.28 L665.90 148.13 L699.31 165.46 L732.60 185.38 L766.01 207.54 L799.30 232.16 L832.71 258.77 L866.00 287.48 L899.42 317.92 L932.83 349.85 L966.12 383.27 L999.53 417.67 L1032.82 453.06 L1066.23 489.32 L1099.52 526.08 L1132.93 563.20 L1166.22 600.70 L1199.63 638.32 L1233.05 676.07 L1266.33 713.69 L1299.75 751.31 L1333.04 788.68 L1366.45 825.93 L1399.74 862.69 L1433.15 899.20 L1466.44 935.33 L1499.85 970.97 L1533.26 1006.00 L1566.55 1040.52 L1599.96 1074.31 L1633.25 1107.47 L1666.67 1139.90 L1699.95 1171.70 L1733.37 1202.64 L1766.66 1232.71 L1800.07 1262.17 L1833.36 1290.75 L1866.77 1318.72 L1900.18 1345.95 L1933.47 1372.55 L1966.88 1398.54 L2000.17 1423.91 L2033.58 1448.79 L2066.87 1473.17 L2100.29 1497.05 L2133.57 1520.44 L2166.99 1543.33 L2200.40 1565.86 L2233.69 1587.89 L2267.10 1609.67 L2300.39 1630.95 L2333.80 1651.87 L2367.09 1672.41 L2400.50 1692.58 L2433.79 1712.51 L2467.20 1732.06 L2500.62 1751.36 L2533.91 1770.18 L2567.32 1788.86 L2600.61 1807.18 L2634.02 1825.25 L2667.31 1842.94 L2700.72 1860.39 L2734.01 1877.59 L2767.42 1894.55 L2800.71 1911.25 L2834.12 1927.84 L2867.54 1944.05 L2900.82 1960.01 L2934.24 1975.85 L2967.53 1991.32 L3000.94 2006.79 L3034.23 2021.89 L3067.64 2036.86 L3100.93 2051.72 L3134.34 2066.19 L3167.75 2080.67 L3201.04 2094.91 L3234.45 2109.01 L3267.74 2122.87 L3301.16 2136.61 L3334.44 2150.22 L3367.86 2163.59 L3401.15 2176.83 L3434.56 2189.95 L3467.97 2202.94 L3501.26 2215.81 L3534.67 2228.56 L3567.96 2241.06 L3601.37 2253.56 L3634.66 2265.81 L3668.07 2277.94 L3701.36 2290.07 L3734.78 2301.95 L3768.06 2313.70 L3801.48 2325.46 L3801.48 1973.87 L3768.06 1962.86 L3734.78 1951.72 L3701.36 1940.46 L3668.07 1929.20 L3634.66 1917.69 L3601.37 1906.06 L3567.96 1894.30 L3534.67 1882.54 L3501.26 1870.54 L3467.97 1858.41 L3434.56 1846.04 L3401.15 1833.66 L3367.86 1821.04 L3334.44 1808.42 L3301.16 1795.54 L3267.74 1782.43 L3234.45 1769.31 L3201.04 1755.94 L3167.75 1742.45 L3134.34 1728.84 L3100.93 1714.98 L3067.64 1701.00 L3034.23 1686.89 L3000.94 1672.53 L2967.53 1658.05 L2934.24 1643.33 L2900.82 1628.48 L2867.54 1613.50 L2834.12 1598.28 L2800.71 1582.81 L2767.42 1567.22 L2734.01 1551.50 L2700.72 1535.41 L2667.31 1519.33 L2634.02 1502.87 L2600.61 1486.28 L2567.32 1469.58 L2533.91 1452.50 L2500.62 1435.30 L2467.20 1417.85 L2433.79 1400.28 L2400.50 1382.33 L2367.09 1364.14 L2333.80 1345.70 L2300.39 1327.01 L2267.10 1308.08 L2233.69 1288.77 L2200.40 1269.10 L2166.99 1249.05 L2133.57 1228.75 L2100.29 1207.96 L2066.87 1186.80 L2033.58 1165.27 L2000.17 1143.36 L1966.88 1120.96 L1933.47 1098.07 L1900.18 1074.68 L1866.77 1050.92 L1833.36 1026.66 L1800.07 1001.91 L1766.66 976.67 L1733.37 950.92 L1699.95 924.81 L1666.67 898.08 L1633.25 870.98 L1599.96 843.38 L1566.55 815.29 L1533.26 786.83 L1499.85 757.99 L1466.44 728.66 L1433.15 699.09 L1399.74 669.14 L1366.45 638.94 L1333.04 608.62 L1299.75 578.30 L1266.33 547.86 L1233.05 517.66 L1199.63 487.59 L1166.22 457.89 L1132.93 428.56 L1099.52 399.85 L1066.23 371.63 L1032.82 344.16 L999.53 317.55 L966.12 291.69 L932.83 266.94 L899.42 243.30 L866.00 220.90 L832.71 199.86 L799.30 180.31 L766.01 162.49 L732.60 146.77 L699.31 133.04 L665.90 121.77 L632.61 112.86 L599.20 106.68 L565.91 102.84 L532.50 101.11 L499.08 100.86 L465.80 100.98 L465.80 100.98 Z" stroke-linejoin="round"/>
	</defs>
	<defs>
		<clipPath id="clipPath_MuzKkczg">
			<use xlink:href="#path_VEZPdhDw"/>
		</clipPath>
	</defs>
	<use xlink:href="#path_VEZPdhDw" style="stroke:none;fill:#3333FF;fill-opacity:0.25"/>
	<use xlink:href="#path_VEZPdhDw" style="fill:none;stroke:#0000FF;stroke-opacity:0.25;stroke-width:17.28" clip-path="url(#clipPath_MuzKkczg)"/>
	<path d=" M465.67 100.98 L499.08 101.48 L532.37 103.95 L565.79 109.15 L599.20 117.44 L632.49 129.08 L665.90 143.93 L699.19 161.99 L732.60 183.03 L765.89 207.04 L799.30 233.52 L832.59 262.36 L866.00 293.42 L899.42 326.22 L932.70 360.74 L966.12 396.75 L999.41 433.88 L1032.82 472.12 L1066.11 511.10 L1099.52 550.70 L1132.81 590.80 L1166.22 631.27 L1199.63 671.86 L1232.92 712.57 L1266.33 753.29 L1299.62 793.88 L1333.04 834.22 L1366.32 874.20 L1399.74 913.67 L1433.03 952.78 L1466.44 991.27 L1499.73 1029.01 L1533.14 1066.26 L1566.55 1102.65 L1599.84 1138.41 L1633.25 1173.31 L1666.54 1207.47 L1699.95 1240.76 L1733.24 1273.30 L1766.66 1304.98 L1799.94 1335.80 L1833.36 1365.87 L1866.77 1395.08 L1900.06 1423.66 L1933.47 1451.51 L1966.76 1478.61 L2000.17 1505.09 L2033.46 1530.96 L2066.87 1556.33 L2100.16 1581.08 L2133.57 1605.21 L2166.99 1628.85 L2200.28 1651.99 L2233.69 1674.64 L2266.98 1696.91 L2300.39 1718.69 L2333.68 1740.10 L2367.09 1761.02 L2400.38 1781.56 L2433.79 1801.86 L2467.08 1821.66 L2500.49 1841.21 L2533.91 1860.39 L2567.19 1879.33 L2600.61 1897.89 L2633.90 1916.08 L2667.31 1934.15 L2700.60 1951.72 L2734.01 1969.17 L2767.30 1986.25 L2800.71 2003.08 L2834.12 2019.66 L2867.41 2036.00 L2900.82 2052.09 L2934.11 2068.05 L2967.53 2083.64 L3000.81 2098.99 L3034.23 2114.21 L3067.52 2129.06 L3100.93 2143.79 L3134.34 2158.39 L3167.63 2172.62 L3201.04 2186.73 L3234.33 2200.72 L3267.74 2214.45 L3301.03 2227.94 L3334.44 2241.31 L3367.73 2254.55 L3401.15 2267.54 L3434.43 2280.41 L3467.85 2293.04 L3501.26 2305.66 L3534.55 2318.03 L3567.96 2330.16 L3601.25 2342.29 L3634.66 2354.17 L3667.95 2365.93 L3701.36 2377.56 L3734.65 2388.94 L3768.06 2400.33 L3801.48 2411.59" stroke-linejoin="round" style="fill:none;stroke:#FF0000;stroke-width:8.64"/>
	<path d=" M465.67 100.98 L499.08 101.48 L532.37 103.33 L565.79 107.42 L599.20 113.98 L632.49 123.26 L665.90 135.02 L699.19 149.37 L732.60 166.08 L765.89 185.14 L799.30 206.42 L832.59 229.44 L866.00 254.44 L899.42 280.80 L932.70 308.77 L966.12 337.85 L999.41 368.04 L1032.82 399.23 L1066.11 431.03 L1099.52 463.58 L1132.81 496.75 L1166.22 530.16 L1199.63 563.95 L1232.92 597.98 L1266.33 632.01 L1299.62 666.17 L1333.04 700.20 L1366.32 733.98 L1399.74 767.65 L1433.03 800.94 L1466.44 833.98 L1499.73 866.52 L1533.14 898.70 L1566.55 930.26 L1599.84 961.44 L1633.25 991.89 L1666.54 1021.84 L1699.95 1051.29 L1733.24 1080.00 L1766.66 1108.09 L1799.94 1135.57 L1833.36 1162.30 L1866.77 1188.53 L1900.06 1214.27 L1933.47 1239.27 L1966.76 1263.90 L2000.17 1287.91 L2033.46 1311.42 L2066.87 1334.56 L2100.16 1357.21 L2133.57 1379.36 L2166.99 1401.14 L2200.28 1422.55 L2233.69 1443.59 L2266.98 1464.13 L2300.39 1484.43 L2333.68 1504.35 L2367.09 1524.03 L2400.38 1543.33 L2433.79 1562.39 L2467.08 1581.08 L2500.49 1599.52 L2533.91 1617.71 L2567.19 1635.65 L2600.61 1653.35 L2633.90 1670.80 L2667.31 1687.88 L2700.60 1704.83 L2734.01 1721.54 L2767.30 1738.12 L2800.71 1754.33 L2834.12 1770.42 L2867.41 1786.26 L2900.82 1801.86 L2934.11 1817.33 L2967.53 1832.55 L3000.81 1847.52 L3034.23 1862.37 L3067.52 1877.10 L3100.93 1891.58 L3134.34 1905.93 L3167.63 1920.04 L3201.04 1934.03 L3234.33 1947.76 L3267.74 1961.38 L3301.03 1974.86 L3334.44 1988.23 L3367.73 2001.47 L3401.15 2014.47 L3434.43 2027.34 L3467.85 2040.08 L3501.26 2052.71 L3534.55 2065.20 L3567.96 2077.46 L3601.25 2089.71 L3634.66 2101.71 L3667.95 2113.72 L3701.36 2125.47 L3734.65 2137.23 L3768.06 2148.74 L3801.48 2160.25" stroke-linejoin="round" style="fill:none;stroke:#0000FF;stroke-width:8.64"/>
	<line x1="465.80" y1="2489.19" x2="465.80" y2="100.86" style="stroke:#000000;stroke-width:5.76"/>
	<line x1="465.80" y1="1861.88" x2="425.82" y2="1861.88" style="stroke:#000000;stroke-width:5.76"/>
	<text x="405.78" y="1896.91" style="font-family:'Helvetica';font-size:99.99px;fill:#000000" text-anchor="end">0.5</text>
	<line x1="465.80" y1="1509.67" x2="425.82" y2="1509.67" style="stroke:#000000;stroke-width:5.76"/>
	<text x="405.78" y="1544.70" style="font-family:'Helvetica';font-size:99.99px;fill:#000000" text-anchor="end">0.6</text>
	<line x1="465.80" y1="1157.47" x2="425.82" y2="1157.47" style="stroke:#000000;stroke-width:5.76"/>
	<text x="405.78" y="1192.50" style="font-family:'Helvetica';font-size:99.99px;fill:#000000" text-anchor="end">0.7</text>
	<line x1="465.80" y1="805.39" x2="425.82" y2="805.39" style="stroke:#000000;stroke-width:5.76"/>
	<text x="405.78" y="840.42" style="font-family:'Helvetica';font-size:99.99px;fill:#000000" text-anchor="end">0.8</text>
	<line x1="465.80" y1="453.19" x2="425.82" y2="453.19" style="stroke:#000000;stroke-width:5.76"/>
	<text x="405.78" y="488.22" style="font-family:'Helvetica';font-size:99.99px;fill:#000000" text-anchor="end">0.9</text>
	<line x1="465.80" y1="100.98" x2="425.82" y2="100.98" style="stroke:#000000;stroke-width:5.76"/>
	<text x="405.78" y="136.01" style="font-family:'Helvetica';font-size:99.99px;fill:#000000" text-anchor="end">1.0</text>
	<text x="190.71" y="1294.96" style="font-family:'Helvetica';font-size:99.99px;fill:#000000" transform="rotate(-90 190.71,1294.96)" text-anchor="middle">S(t)</text>
	<line x1="465.80" y1="2489.19" x2="3859.02" y2="2489.19" style="stroke:#000000;stroke-width:5.76"/>
	<line x1="465.80" y1="2489.19" x2="465.80" y2="2529.16" style="stroke:#000000;stroke-width:5.76"/>
	<text x="465.80" y="2619.14" style="font-family:'Helvetica';font-size:99.99px;fill:#000000" text-anchor="middle">0</text>
	<line x1="1132.93" y1="2489.19" x2="1132.93" y2="2529.16" style="stroke:#000000;stroke-width:5.76"/>
	<text x="1132.93" y="2619.14" style="font-family:'Helvetica';font-size:99.99px;fill:#000000" text-anchor="middle">2</text>
	<line x1="1800.07" y1="2489.19" x2="1800.07" y2="2529.16" style="stroke:#000000;stroke-width:5.76"/>
	<text x="1800.07" y="2619.14" style="font-family:'Helvetica';font-size:99.99px;fill:#000000" text-anchor="middle">4</text>
	<line x1="2467.20" y1="2489.19" x2="2467.20" y2="2529.16" style="stroke:#000000;stroke-width:5.76"/>
	<text x="2467.20" y="2619.14" style="font-family:'Helvetica';font-size:99.99px;fill:#000000" text-anchor="middle">6</text>
	<line x1="3134.34" y1="2489.19" x2="3134.34" y2="2529.16" style="stroke:#000000;stroke-width:5.76"/>
	<text x="3134.34" y="2619.14" style="font-family:'Helvetica';font-size:99.99px;fill:#000000" text-anchor="middle">8</text>
	<line x1="3801.48" y1="2489.19" x2="3801.48" y2="2529.16" style="stroke:#000000;stroke-width:5.76"/>
	<text x="3801.48" y="2619.14" style="font-family:'Helvetica';font-size:99.99px;fill:#000000" text-anchor="middle">10</text>
	<text x="2162.41" y="2729.16" style="font-family:'Helvetica';font-size:99.99px;fill:#000000" text-anchor="middle">Years from surgery</text>
	<rect x="2453.84" y="178.58" width="199.98" height="99.99" style="fill:#FF3333;fill-opacity:0.25"/>
	<rect x="2458.16" y="182.90" width="191.34" height="91.35" style="fill:none;stroke:#FF0000;stroke-opacity:0.25;stroke-width:8.64"/>
	<rect x="2453.84" y="318.54" width="199.98" height="99.99" style="fill:#3333FF;fill-opacity:0.25"/>
	<rect x="2458.16" y="322.86" width="191.34" height="91.35" style="fill:none;stroke:#0000FF;stroke-opacity:0.25;stroke-width:8.64"/>
	<text x="2713.84" y="263.60" style="font-family:'Helvetica';font-size:99.99px;fill:#000000">No hormonal treatment</text>
	<text x="2713.84" y="403.57" style="font-family:'Helvetica';font-size:99.99px;fill:#000000">Hormonal treatment</text>
</svg>
