<?xml version="1.0" encoding="UTF-8" standalone="no"?>
<!-- This is a Stata 18.5 generated SVG file (http://www.stata.com) -->

<svg version="1.1" width="700px" height="509px" viewBox="0 0 3960 2880" xmlns="http://www.w3.org/2000/svg" xmlns:xlink="http://www.w3.org/1999/xlink">
	<desc>Stata Graph - Graph</desc>
	<rect x="0" y="0" width="3960" height="2880" style="fill:#FFFFFF;stroke:none"/>
	<rect x="0.00" y="0.00" width="3959.88" height="2880.00" style="fill:#FFFFFF"/>
	<rect x="2.88" y="2.88" width="3954.12" height="2874.24" style="fill:none;stroke:#FFFFFF;stroke-width:5.76"/>
	<line x1="465.80" y1="2489.19" x2="3859.02" y2="2489.19" style="stroke:#C0C0C0;stroke-width:5.76"/>
	<line x1="465.80" y1="2012.24" x2="3859.02" y2="2012.24" style="stroke:#C0C0C0;stroke-width:5.76"/>
	<line x1="465.80" y1="1535.41" x2="3859.02" y2="1535.41" style="stroke:#C0C0C0;stroke-width:5.76"/>
	<line x1="465.80" y1="1058.47" x2="3859.02" y2="1058.47" style="stroke:#C0C0C0;stroke-width:5.76"/>
	<line x1="465.80" y1="581.52" x2="3859.02" y2="581.52" style="stroke:#C0C0C0;stroke-width:5.76"/>
	<line x1="465.80" y1="104.70" x2="3859.02" y2="104.70" style="stroke:#C0C0C0;stroke-width:5.76"/>
	<line x1="465.80" y1="2489.19" x2="465.80" y2="100.86" style="stroke:#C0C0C0;stroke-width:5.76"/>
	<line x1="1132.93" y1="2489.19" x2="1132.93" y2="100.86" style="stroke:#C0C0C0;stroke-width:5.76"/>
	<line x1="1800.07" y1="2489.19" x2="1800.07" y2="100.86" style="stroke:#C0C0C0;stroke-width:5.76"/>
	<line x1="2467.20" y1="2489.19" x2="2467.20" y2="100.86" style="stroke:#C0C0C0;stroke-width:5.76"/>
	<line x1="3134.34" y1="2489.19" x2="3134.34" y2="100.86" style="stroke:#C0C0C0;stroke-width:5.76"/>
	<line x1="3801.48" y1="2489.19" x2="3801.48" y2="100.86" style="stroke:#C0C0C0;stroke-width:5.76"/>
	<defs>
		<path id="path_ZmtwajEj" d="M465.80 104.70 L465.80 104.70 L499.46 105.31 L533.12 108.04 L566.90 113.61 L600.56 122.15 L634.22 133.41 L668.00 147.39 L701.66 163.85 L735.32 182.91 L768.98 204.32 L802.77 227.95 L836.43 253.82 L870.09 281.54 L903.75 310.99 L937.53 342.06 L971.19 374.48 L1004.85 408.14 L1038.63 442.67 L1072.29 477.81 L1105.95 513.58 L1139.61 549.59 L1173.40 585.85 L1207.06 622.23 L1240.72 658.49 L1274.38 694.63 L1308.16 730.52 L1341.82 766.28 L1375.48 801.80 L1409.27 836.95 L1442.93 871.85 L1476.59 906.37 L1510.25 940.41 L1544.03 974.19 L1577.69 1007.36 L1611.35 1040.03 L1645.01 1072.08 L1678.79 1103.51 L1712.45 1134.20 L1746.11 1164.28 L1779.90 1193.73 L1813.56 1222.32 L1847.22 1250.29 L1880.88 1277.63 L1914.66 1304.49 L1948.32 1330.60 L1981.98 1356.34 L2015.64 1381.59 L2049.42 1406.46 L2083.08 1430.84 L2116.74 1454.85 L2150.53 1478.61 L2184.19 1501.88 L2217.85 1524.90 L2251.51 1547.54 L2285.29 1569.94 L2318.95 1592.09 L2352.61 1613.87 L2386.40 1635.28 L2420.05 1656.57 L2453.72 1677.48 L2487.38 1698.15 L2521.16 1718.45 L2554.82 1738.62 L2588.48 1758.42 L2622.14 1777.97 L2655.92 1797.28 L2689.58 1816.46 L2723.24 1835.27 L2757.03 1853.96 L2790.69 1872.40 L2824.35 1890.59 L2858.01 1908.66 L2891.79 1926.48 L2925.45 1944.17 L2959.11 1961.75 L2992.77 1979.07 L3026.55 1996.27 L3060.21 2013.35 L3093.87 2030.31 L3127.66 2047.14 L3161.32 2063.84 L3194.98 2080.43 L3228.64 2096.89 L3262.42 2113.34 L3296.08 2129.56 L3329.74 2145.77 L3363.40 2161.86 L3397.19 2177.82 L3430.85 2193.66 L3464.51 2209.50 L3498.29 2225.34 L3531.95 2240.94 L3565.61 2256.53 L3599.27 2272.12 L3633.05 2287.47 L3666.71 2302.94 L3700.37 2318.16 L3734.16 2333.38 L3767.82 2348.60 L3801.48 2363.58 L3801.48 2181.29 L3767.82 2168.17 L3734.16 2154.93 L3700.37 2141.56 L3666.71 2127.95 L3633.05 2114.33 L3599.27 2100.47 L3565.61 2086.37 L3531.95 2072.26 L3498.29 2057.90 L3464.51 2043.42 L3430.85 2028.70 L3397.19 2013.85 L3363.40 1998.75 L3329.74 1983.53 L3296.08 1968.18 L3262.42 1952.59 L3228.64 1936.75 L3194.98 1920.78 L3161.32 1904.70 L3127.66 1888.36 L3093.87 1871.78 L3060.21 1855.07 L3026.55 1838.24 L2992.77 1821.16 L2959.11 1803.84 L2925.45 1786.39 L2891.79 1768.81 L2858.01 1750.99 L2824.35 1732.93 L2790.69 1714.73 L2757.03 1696.42 L2723.24 1677.85 L2689.58 1659.17 L2655.92 1640.36 L2622.14 1621.30 L2588.48 1601.99 L2554.82 1582.56 L2521.16 1563.01 L2487.38 1543.21 L2453.72 1523.16 L2420.05 1502.99 L2386.40 1482.57 L2352.61 1461.90 L2318.95 1440.99 L2285.29 1419.83 L2251.51 1398.29 L2217.85 1376.51 L2184.19 1354.24 L2150.53 1331.72 L2116.74 1308.70 L2083.08 1285.31 L2049.42 1261.55 L2015.64 1237.29 L1981.98 1212.54 L1948.32 1187.29 L1914.66 1161.68 L1880.88 1135.57 L1847.22 1108.96 L1813.56 1081.86 L1779.90 1054.26 L1746.11 1026.29 L1712.45 997.70 L1678.79 968.75 L1645.01 939.29 L1611.35 909.22 L1577.69 878.78 L1544.03 847.84 L1510.25 816.28 L1476.59 784.35 L1442.93 752.05 L1409.27 719.26 L1375.48 686.09 L1341.82 652.80 L1308.16 619.26 L1274.38 585.85 L1240.72 552.44 L1207.06 519.27 L1173.40 486.60 L1139.61 454.30 L1105.95 422.62 L1072.29 391.56 L1038.63 361.36 L1004.85 332.03 L971.19 303.69 L937.53 276.59 L903.75 250.73 L870.09 226.35 L836.43 203.58 L802.77 182.66 L768.98 163.97 L735.32 147.64 L701.66 133.78 L668.00 122.76 L634.22 114.47 L600.56 108.90 L566.90 105.81 L533.12 104.57 L499.46 104.57 L465.80 104.70 L465.80 104.70 Z" stroke-linejoin="round"/>
	</defs>
	<defs>
		<clipPath id="clipPath_rOZWSpnf">
			<use xlink:href="#path_ZmtwajEj"/>
		</clipPath>
	</defs>
	<use xlink:href="#path_ZmtwajEj" style="stroke:none;fill:#FF3333;fill-opacity:0.25"/>
	<use xlink:href="#path_ZmtwajEj" style="fill:none;stroke:#FF0000;stroke-opacity:0.25;stroke-width:17.28" clip-path="url(#clipPath_rOZWSpnf)"/>
	<defs>
		<path id="path_mtYtSSPI" d="M465.80 104.70 L465.80 104.70 L499.46 110.02 L533.12 119.17 L566.90 130.07 L600.56 142.19 L634.22 155.31 L668.00 169.54 L701.66 184.64 L735.32 200.85 L768.98 218.05 L802.77 236.37 L836.43 255.68 L870.09 276.09 L903.75 297.50 L937.53 319.78 L971.19 342.92 L1004.85 366.93 L1038.63 391.56 L1072.29 416.93 L1105.95 442.79 L1139.61 469.15 L1173.40 496.01 L1207.06 523.23 L1240.72 550.70 L1274.38 578.55 L1308.16 606.64 L1341.82 634.98 L1375.48 663.44 L1409.27 692.16 L1442.93 721.11 L1476.59 750.07 L1510.25 779.15 L1544.03 808.24 L1577.69 837.44 L1611.35 866.52 L1645.01 895.61 L1678.79 924.69 L1712.45 953.52 L1746.11 982.23 L1779.90 1010.70 L1813.56 1038.91 L1847.22 1066.88 L1880.88 1094.60 L1914.66 1122.08 L1948.32 1149.18 L1981.98 1176.16 L2015.64 1202.64 L2049.42 1229.00 L2083.08 1254.86 L2116.74 1280.48 L2150.53 1305.73 L2184.19 1330.60 L2217.85 1355.23 L2251.51 1379.36 L2285.29 1403.12 L2318.95 1426.63 L2352.61 1449.78 L2386.40 1472.55 L2420.05 1495.07 L2453.72 1517.35 L2487.38 1539.37 L2521.16 1561.16 L2554.82 1582.81 L2588.48 1604.10 L2622.14 1625.26 L2655.92 1646.30 L2689.58 1667.09 L2723.24 1687.88 L2757.03 1708.42 L2790.69 1728.84 L2824.35 1749.26 L2858.01 1769.43 L2891.79 1789.73 L2925.45 1809.78 L2959.11 1829.82 L2992.77 1849.87 L3026.55 1869.92 L3060.21 1889.85 L3093.87 1909.77 L3127.66 1929.57 L3161.32 1949.49 L3194.98 1969.30 L3228.64 1989.22 L3262.42 2009.02 L3296.08 2028.70 L3329.74 2048.50 L3363.40 2068.30 L3397.19 2087.98 L3430.85 2107.65 L3464.51 2127.33 L3498.29 2147.01 L3531.95 2166.68 L3565.61 2186.24 L3599.27 2205.79 L3633.05 2225.22 L3666.71 2244.65 L3700.37 2264.08 L3734.16 2283.38 L3767.82 2302.69 L3801.48 2321.87 L3801.48 1775.62 L3767.82 1765.10 L3734.16 1754.46 L3700.37 1743.57 L3666.71 1732.55 L3633.05 1721.42 L3599.27 1710.03 L3565.61 1698.40 L3531.95 1686.64 L3498.29 1674.51 L3464.51 1662.39 L3430.85 1649.89 L3397.19 1637.14 L3363.40 1624.27 L3329.74 1611.03 L3296.08 1597.66 L3262.42 1583.93 L3228.64 1569.94 L3194.98 1555.71 L3161.32 1541.23 L3127.66 1526.38 L3093.87 1511.41 L3060.21 1496.06 L3026.55 1480.47 L2992.77 1464.50 L2959.11 1448.29 L2925.45 1431.96 L2891.79 1415.25 L2858.01 1398.17 L2824.35 1380.97 L2790.69 1363.52 L2757.03 1345.70 L2723.24 1327.76 L2689.58 1309.56 L2655.92 1291.00 L2622.14 1272.44 L2588.48 1253.50 L2554.82 1234.44 L2521.16 1215.26 L2487.38 1195.83 L2453.72 1176.28 L2420.05 1156.48 L2386.40 1136.56 L2352.61 1116.51 L2318.95 1096.34 L2285.29 1075.92 L2251.51 1055.37 L2217.85 1034.71 L2184.19 1013.79 L2150.53 992.75 L2116.74 971.47 L2083.08 950.06 L2049.42 928.40 L2015.64 906.50 L1981.98 884.35 L1948.32 861.95 L1914.66 839.30 L1880.88 816.40 L1847.22 793.26 L1813.56 769.87 L1779.90 746.11 L1746.11 722.23 L1712.45 698.22 L1678.79 673.84 L1645.01 649.46 L1611.35 624.96 L1577.69 600.45 L1544.03 575.83 L1510.25 551.32 L1476.59 526.94 L1442.93 502.81 L1409.27 479.05 L1375.48 455.66 L1341.82 432.64 L1308.16 410.24 L1274.38 388.34 L1240.72 367.05 L1207.06 346.39 L1173.40 326.34 L1139.61 307.03 L1105.95 288.35 L1072.29 270.28 L1038.63 252.95 L1004.85 236.37 L971.19 220.53 L937.53 205.31 L903.75 190.70 L870.09 176.97 L836.43 163.97 L802.77 151.85 L768.98 140.71 L735.32 130.44 L701.66 121.53 L668.00 113.85 L634.22 107.79 L600.56 103.46 L566.90 101.11 L533.12 100.86 L499.46 102.34 L465.80 104.70 L465.80 104.70 Z" stroke-linejoin="round"/>
	</defs>
	<defs>
		<clipPath id="clipPath_mCoFSSdI">
			<use xlink:href="#path_mtYtSSPI"/>
		</clipPath>
	</defs>
	<use xlink:href="#path_mtYtSSPI" style="stroke:none;fill:#3333FF;fill-opacity:0.25"/>
	<use xlink:href="#path_mtYtSSPI" style="fill:none;stroke:#0000FF;stroke-opacity:0.25;stroke-width:17.28" clip-path="url(#clipPath_mCoFSSdI)"/>
	<path d=" M465.67 104.70 L499.46 104.94 L533.12 106.43 L566.78 109.77 L600.43 115.59 L634.22 124.00 L667.88 135.14 L701.54 148.88 L735.32 165.34 L768.98 184.27 L802.64 205.43 L836.30 228.82 L870.09 254.07 L903.75 281.05 L937.41 309.51 L971.07 339.33 L1004.85 370.27 L1038.51 402.20 L1072.17 434.99 L1105.95 468.41 L1139.61 502.32 L1173.27 536.60 L1206.93 571.12 L1240.72 605.90 L1274.38 640.67 L1308.04 675.32 L1341.82 709.98 L1375.48 744.38 L1409.14 778.54 L1442.80 812.44 L1476.59 845.86 L1510.25 878.90 L1543.91 911.57 L1577.57 943.62 L1611.35 975.18 L1645.01 1006.24 L1678.67 1036.81 L1712.45 1066.63 L1746.11 1095.96 L1779.77 1124.68 L1813.43 1152.77 L1847.22 1180.36 L1880.88 1207.34 L1914.54 1233.83 L1948.20 1259.81 L1981.98 1285.18 L2015.64 1310.18 L2049.30 1334.81 L2083.08 1358.94 L2116.74 1382.58 L2150.40 1405.97 L2184.06 1428.99 L2217.85 1451.51 L2251.51 1473.78 L2285.17 1495.81 L2318.83 1517.47 L2352.61 1538.76 L2386.27 1559.92 L2419.93 1580.71 L2453.72 1601.25 L2487.38 1621.67 L2521.04 1641.72 L2554.70 1661.52 L2588.48 1681.20 L2622.14 1700.63 L2655.80 1719.81 L2689.46 1738.87 L2723.24 1757.68 L2756.90 1776.24 L2790.56 1794.68 L2824.35 1812.87 L2858.01 1830.94 L2891.67 1848.76 L2925.33 1866.46 L2959.11 1883.91 L2992.77 1901.23 L3026.43 1918.43 L3060.21 1935.39 L3093.87 1952.22 L3127.53 1968.92 L3161.19 1985.38 L3194.98 2001.84 L3228.64 2018.05 L3262.30 2034.14 L3295.96 2050.11 L3329.74 2065.82 L3363.40 2081.54 L3397.06 2097.13 L3430.85 2112.48 L3464.51 2127.82 L3498.17 2142.92 L3531.83 2158.02 L3565.61 2172.87 L3599.27 2187.72 L3632.93 2202.32 L3666.59 2216.93 L3700.37 2231.41 L3734.03 2245.76 L3767.69 2259.99 L3801.48 2274.10" stroke-linejoin="round" style="fill:none;stroke:#FF0000;stroke-width:8.64"/>
	<path d=" M465.67 104.70 L499.46 106.30 L533.12 110.02 L566.78 115.71 L600.43 123.01 L634.22 131.67 L667.88 141.82 L701.54 153.21 L735.32 165.83 L768.98 179.57 L802.64 194.29 L836.30 210.13 L870.09 226.84 L903.75 244.41 L937.41 262.98 L971.07 282.16 L1004.85 302.21 L1038.51 322.87 L1072.17 344.28 L1105.95 366.31 L1139.61 388.83 L1173.27 412.10 L1206.93 435.74 L1240.72 459.87 L1274.38 484.50 L1308.04 509.62 L1341.82 535.11 L1375.48 560.85 L1409.14 586.96 L1442.80 613.45 L1476.59 640.06 L1510.25 666.79 L1543.91 693.76 L1577.57 720.62 L1611.35 747.60 L1645.01 774.45 L1678.67 801.31 L1712.45 827.91 L1746.11 854.40 L1779.77 880.63 L1813.43 906.74 L1847.22 932.49 L1880.88 957.98 L1914.54 983.35 L1948.20 1008.35 L1981.98 1033.10 L2015.64 1057.48 L2049.30 1081.73 L2083.08 1105.62 L2116.74 1129.25 L2150.40 1152.64 L2184.06 1175.66 L2217.85 1198.56 L2251.51 1221.08 L2285.17 1243.23 L2318.83 1265.26 L2352.61 1287.04 L2386.27 1308.57 L2419.93 1329.86 L2453.72 1351.02 L2487.38 1371.94 L2521.04 1392.60 L2554.70 1413.02 L2588.48 1433.32 L2622.14 1453.49 L2655.80 1473.41 L2689.46 1493.09 L2723.24 1512.64 L2756.90 1532.07 L2790.56 1551.25 L2824.35 1570.31 L2858.01 1589.12 L2891.67 1607.81 L2925.33 1626.37 L2959.11 1644.81 L2992.77 1663.00 L3026.43 1681.20 L3060.21 1699.14 L3093.87 1716.84 L3127.53 1734.53 L3161.19 1752.11 L3194.98 1769.43 L3228.64 1786.76 L3262.30 1803.84 L3295.96 1820.79 L3329.74 1837.74 L3363.40 1854.45 L3397.06 1871.16 L3430.85 1887.62 L3464.51 1903.95 L3498.17 1920.29 L3531.83 1936.50 L3565.61 1952.59 L3599.27 1968.43 L3632.93 1984.39 L3666.59 2000.11 L3700.37 2015.70 L3734.03 2031.30 L3767.69 2046.77 L3801.48 2062.11" stroke-linejoin="round" style="fill:none;stroke:#0000FF;stroke-width:8.64"/>
	<line x1="465.80" y1="2489.19" x2="465.80" y2="100.86" style="stroke:#000000;stroke-width:5.76"/>
	<line x1="465.80" y1="2489.19" x2="425.82" y2="2489.19" style="stroke:#000000;stroke-width:5.76"/>
	<text x="405.78" y="2524.21" style="font-family:'Helvetica';font-size:99.99px;fill:#000000" text-anchor="end">0.5</text>
	<line x1="465.80" y1="2012.24" x2="425.82" y2="2012.24" style="stroke:#000000;stroke-width:5.76"/>
	<text x="405.78" y="2047.27" style="font-family:'Helvetica';font-size:99.99px;fill:#000000" text-anchor="end">0.6</text>
	<line x1="465.80" y1="1535.41" x2="425.82" y2="1535.41" style="stroke:#000000;stroke-width:5.76"/>
	<text x="405.78" y="1570.44" style="font-family:'Helvetica';font-size:99.99px;fill:#000000" text-anchor="end">0.7</text>
	<line x1="465.80" y1="1058.47" x2="425.82" y2="1058.47" style="stroke:#000000;stroke-width:5.76"/>
	<text x="405.78" y="1093.50" style="font-family:'Helvetica';font-size:99.99px;fill:#000000" text-anchor="end">0.8</text>
	<line x1="465.80" y1="581.52" x2="425.82" y2="581.52" style="stroke:#000000;stroke-width:5.76"/>
	<text x="405.78" y="616.55" style="font-family:'Helvetica';font-size:99.99px;fill:#000000" text-anchor="end">0.9</text>
	<line x1="465.80" y1="104.70" x2="425.82" y2="104.70" style="stroke:#000000;stroke-width:5.76"/>
	<text x="405.78" y="139.72" style="font-family:'Helvetica';font-size:99.99px;fill:#000000" text-anchor="end">1.0</text>
	<text x="190.71" y="1294.96" style="font-family:'Helvetica';font-size:99.99px;fill:#000000" transform="rotate(-90 190.71,1294.96)" text-anchor="middle">S(t)</text>
	<line x1="465.80" y1="2489.19" x2="3859.02" y2="2489.19" style="stroke:#000000;stroke-width:5.76"/>
	<line x1="465.80" y1="2489.19" x2="465.80" y2="2529.16" style="stroke:#000000;stroke-width:5.76"/>
	<text x="465.80" y="2619.14" style="font-family:'Helvetica';font-size:99.99px;fill:#000000" text-anchor="middle">0</text>
	<line x1="1132.93" y1="2489.19" x2="1132.93" y2="2529.16" style="stroke:#000000;stroke-width:5.76"/>
	<text x="1132.93" y="2619.14" style="font-family:'Helvetica';font-size:99.99px;fill:#000000" text-anchor="middle">2</text>
	<line x1="1800.07" y1="2489.19" x2="1800.07" y2="2529.16" style="stroke:#000000;stroke-width:5.76"/>
	<text x="1800.07" y="2619.14" style="font-family:'Helvetica';font-size:99.99px;fill:#000000" text-anchor="middle">4</text>
	<line x1="2467.20" y1="2489.19" x2="2467.20" y2="2529.16" style="stroke:#000000;stroke-width:5.76"/>
	<text x="2467.20" y="2619.14" style="font-family:'Helvetica';font-size:99.99px;fill:#000000" text-anchor="middle">6</text>
	<line x1="3134.34" y1="2489.19" x2="3134.34" y2="2529.16" style="stroke:#000000;stroke-width:5.76"/>
	<text x="3134.34" y="2619.14" style="font-family:'Helvetica';font-size:99.99px;fill:#000000" text-anchor="middle">8</text>
	<line x1="3801.48" y1="2489.19" x2="3801.48" y2="2529.16" style="stroke:#000000;stroke-width:5.76"/>
	<text x="3801.48" y="2619.14" style="font-family:'Helvetica';font-size:99.99px;fill:#000000" text-anchor="middle">10</text>
	<text x="2162.41" y="2729.16" style="font-family:'Helvetica';font-size:99.99px;fill:#000000" text-anchor="middle">Years from surgery</text>
	<rect x="2453.84" y="178.58" width="199.98" height="99.99" style="fill:#FF3333;fill-opacity:0.25"/>
	<rect x="2458.16" y="182.90" width="191.34" height="91.35" style="fill:none;stroke:#FF0000;stroke-opacity:0.25;stroke-width:8.64"/>
	<rect x="2453.84" y="318.54" width="199.98" height="99.99" style="fill:#3333FF;fill-opacity:0.25"/>
	<rect x="2458.16" y="322.86" width="191.34" height="91.35" style="fill:none;stroke:#0000FF;stroke-opacity:0.25;stroke-width:8.64"/>
	<text x="2713.84" y="263.60" style="font-family:'Helvetica';font-size:99.99px;fill:#000000">No hormonal treatment</text>
	<text x="2713.84" y="403.57" style="font-family:'Helvetica';font-size:99.99px;fill:#000000">Hormonal treatment</text>
</svg>
