<?xml version="1.0" encoding="UTF-8" standalone="no"?>
<!-- This is a Stata 18.5 generated SVG file (http://www.stata.com) -->

<svg version="1.1" width="700px" height="509px" viewBox="0 0 3960 2880" xmlns="http://www.w3.org/2000/svg" xmlns:xlink="http://www.w3.org/1999/xlink">
	<desc>Stata Graph - Graph</desc>
	<rect x="0" y="0" width="3960" height="2880" style="fill:#FFFFFF;stroke:none"/>
	<rect x="0.00" y="0.00" width="3959.88" height="2880.00" style="fill:#FFFFFF"/>
	<rect x="2.88" y="2.88" width="3954.12" height="2874.24" style="fill:none;stroke:#FFFFFF;stroke-width:5.76"/>
	<line x1="465.80" y1="2489.19" x2="3859.02" y2="2489.19" style="stroke:#C0C0C0;stroke-opacity:0.50;stroke-width:5.76"/>
	<line x1="465.80" y1="2011.50" x2="3859.02" y2="2011.50" style="stroke:#C0C0C0;stroke-opacity:0.50;stroke-width:5.76"/>
	<line x1="465.80" y1="1533.81" x2="3859.02" y2="1533.81" style="stroke:#C0C0C0;stroke-opacity:0.50;stroke-width:5.76"/>
	<line x1="465.80" y1="1056.12" x2="3859.02" y2="1056.12" style="stroke:#C0C0C0;stroke-opacity:0.50;stroke-width:5.76"/>
	<line x1="465.80" y1="578.43" x2="3859.02" y2="578.43" style="stroke:#C0C0C0;stroke-opacity:0.50;stroke-width:5.76"/>
	<line x1="465.80" y1="100.86" x2="3859.02" y2="100.86" style="stroke:#C0C0C0;stroke-opacity:0.50;stroke-width:5.76"/>
	<line x1="465.80" y1="2489.19" x2="465.80" y2="100.86" style="stroke:#C0C0C0;stroke-opacity:0.50;stroke-width:5.76"/>
	<line x1="1132.93" y1="2489.19" x2="1132.93" y2="100.86" style="stroke:#C0C0C0;stroke-opacity:0.50;stroke-width:5.76"/>
	<line x1="1800.07" y1="2489.19" x2="1800.07" y2="100.86" style="stroke:#C0C0C0;stroke-opacity:0.50;stroke-width:5.76"/>
	<line x1="2467.20" y1="2489.19" x2="2467.20" y2="100.86" style="stroke:#C0C0C0;stroke-opacity:0.50;stroke-width:5.76"/>
	<line x1="3134.34" y1="2489.19" x2="3134.34" y2="100.86" style="stroke:#C0C0C0;stroke-opacity:0.50;stroke-width:5.76"/>
	<line x1="3801.48" y1="2489.19" x2="3801.48" y2="100.86" style="stroke:#C0C0C0;stroke-opacity:0.50;stroke-width:5.76"/>
	<path d=" M465.67 2489.31 L499.08 2488.94 L532.37 2487.08 L565.79 2483.12 L599.20 2476.81 L632.49 2468.02 L665.90 2456.64 L699.19 2442.78 L732.60 2426.69 L765.89 2408.25 L799.30 2387.83 L832.59 2365.56 L866.00 2341.42 L899.42 2315.81 L932.70 2288.83 L966.12 2260.49 L999.41 2231.16 L1032.82 2200.72 L1066.11 2169.65 L1099.52 2137.72 L1132.81 2105.30 L1166.22 2072.38 L1199.63 2039.09 L1232.92 2005.56 L1266.33 1971.77 L1299.62 1937.99 L1333.04 1904.08 L1366.32 1870.29 L1399.74 1836.63 L1433.03 1803.09 L1466.44 1769.93 L1499.73 1737.01 L1533.14 1704.59 L1566.55 1672.41 L1599.84 1640.73 L1633.25 1609.54 L1666.54 1578.85 L1699.95 1548.78 L1733.24 1519.08 L1766.66 1490.12 L1799.94 1461.53 L1833.36 1433.69 L1866.77 1406.34 L1900.06 1379.48 L1933.47 1353.12 L1966.76 1327.26 L2000.17 1301.77 L2033.46 1276.89 L2066.87 1252.39 L2100.16 1228.26 L2133.57 1204.50 L2166.99 1181.11 L2200.28 1158.09 L2233.69 1135.44 L2266.98 1113.17 L2300.39 1091.14 L2333.68 1069.36 L2367.09 1047.95 L2400.38 1026.79 L2433.79 1005.87 L2467.08 985.33 L2500.49 964.91 L2533.91 944.74 L2567.19 924.81 L2600.61 905.14 L2633.90 885.58 L2667.31 866.28 L2700.60 847.22 L2734.01 828.41 L2767.30 809.72 L2800.71 791.28 L2834.12 772.97 L2867.41 754.90 L2900.82 737.08 L2934.11 719.26 L2967.53 701.81 L3000.81 684.36 L3034.23 667.16 L3067.52 650.08 L3100.93 633.25 L3134.34 616.54 L3167.63 599.96 L3201.04 583.50 L3234.33 567.16 L3267.74 551.08 L3301.03 534.99 L3334.44 519.15 L3367.73 503.43 L3401.15 487.84 L3434.43 472.37 L3467.85 457.02 L3501.26 441.80 L3534.55 426.70 L3567.96 411.73 L3601.25 396.88 L3634.66 382.15 L3667.95 367.55 L3701.36 353.07 L3734.65 338.59 L3768.06 324.36 L3801.48 310.13" stroke-linejoin="round" style="fill:none;stroke:#E41A1C;stroke-width:8.64"/>
	<path d=" M465.67 2489.31 L499.08 2488.94 L532.37 2487.58 L565.79 2484.36 L599.20 2479.41 L632.49 2472.48 L665.90 2463.44 L699.19 2452.43 L732.60 2439.68 L765.89 2425.08 L799.30 2408.75 L832.59 2390.92 L866.00 2371.74 L899.42 2351.20 L932.70 2329.54 L966.12 2306.77 L999.41 2283.14 L1032.82 2258.51 L1066.11 2233.39 L1099.52 2207.52 L1132.81 2181.04 L1166.22 2154.18 L1199.63 2126.96 L1232.92 2099.48 L1266.33 2071.76 L1299.62 2043.80 L1333.04 2015.83 L1366.32 1987.86 L1399.74 1959.89 L1433.03 1932.05 L1466.44 1904.20 L1499.73 1876.73 L1533.14 1849.38 L1566.55 1822.40 L1599.84 1795.67 L1633.25 1769.31 L1666.54 1743.32 L1699.95 1717.70 L1733.24 1692.46 L1766.66 1667.71 L1799.94 1643.33 L1833.36 1619.44 L1866.77 1595.93 L1900.06 1572.79 L1933.47 1550.02 L1966.76 1527.74 L2000.17 1505.71 L2033.46 1484.06 L2066.87 1462.77 L2100.16 1441.73 L2133.57 1421.07 L2166.99 1400.65 L2200.28 1380.47 L2233.69 1360.67 L2266.98 1341.00 L2300.39 1321.69 L2333.68 1302.51 L2367.09 1283.70 L2400.38 1264.89 L2433.79 1246.45 L2467.08 1228.13 L2500.49 1210.07 L2533.91 1192.12 L2567.19 1174.30 L2600.61 1156.73 L2633.90 1139.40 L2667.31 1122.20 L2700.60 1105.12 L2734.01 1088.17 L2767.30 1071.46 L2800.71 1054.88 L2834.12 1038.42 L2867.41 1022.08 L2900.82 1005.87 L2934.11 989.91 L2967.53 974.07 L3000.81 958.23 L3034.23 942.63 L3067.52 927.16 L3100.93 911.82 L3134.34 896.60 L3167.63 881.50 L3201.04 866.40 L3234.33 851.55 L3267.74 836.82 L3301.03 822.10 L3334.44 807.62 L3367.73 793.14 L3401.15 778.78 L3434.43 764.55 L3467.85 750.44 L3501.26 736.46 L3534.55 722.48 L3567.96 708.61 L3601.25 694.88 L3634.66 681.27 L3667.95 667.65 L3701.36 654.16 L3734.65 640.80 L3768.06 627.56 L3801.48 614.31" stroke-linejoin="round" style="fill:none;stroke:#377EB8;stroke-width:8.64"/>
	<path d=" M465.67 2489.31 L499.08 2488.94 L532.37 2487.21 L565.79 2483.37 L599.20 2477.30 L632.49 2468.89 L665.90 2458.00 L699.19 2444.76 L732.60 2429.29 L765.89 2411.72 L799.30 2392.04 L832.59 2370.63 L866.00 2347.49 L899.42 2322.86 L932.70 2296.87 L966.12 2269.52 L999.41 2241.31 L1032.82 2211.98 L1066.11 2181.90 L1099.52 2151.21 L1132.81 2119.78 L1166.22 2087.98 L1199.63 2055.80 L1232.92 2023.25 L1266.33 1990.46 L1299.62 1957.66 L1333.04 1924.74 L1366.32 1891.95 L1399.74 1859.15 L1433.03 1826.61 L1466.44 1794.18 L1499.73 1762.13 L1533.14 1730.33 L1566.55 1699.02 L1599.84 1668.08 L1633.25 1637.51 L1666.54 1607.44 L1699.95 1577.99 L1733.24 1548.90 L1766.66 1520.44 L1799.94 1492.47 L1833.36 1465.00 L1866.77 1438.14 L1900.06 1411.78 L1933.47 1385.80 L1966.76 1360.30 L2000.17 1335.30 L2033.46 1310.68 L2066.87 1286.55 L2100.16 1262.66 L2133.57 1239.27 L2166.99 1216.25 L2200.28 1193.48 L2233.69 1171.08 L2266.98 1149.05 L2300.39 1127.27 L2333.68 1105.74 L2367.09 1084.58 L2400.38 1063.54 L2433.79 1042.87 L2467.08 1022.33 L2500.49 1002.16 L2533.91 982.11 L2567.19 962.31 L2600.61 942.76 L2633.90 923.45 L2667.31 904.27 L2700.60 885.34 L2734.01 866.52 L2767.30 847.96 L2800.71 829.65 L2834.12 811.45 L2867.41 793.51 L2900.82 775.57 L2934.11 757.99 L2967.53 740.42 L3000.81 723.09 L3034.23 706.02 L3067.52 688.94 L3100.93 672.11 L3134.34 655.40 L3167.63 638.82 L3201.04 622.48 L3234.33 606.15 L3267.74 590.06 L3301.03 574.09 L3334.44 558.25 L3367.73 542.54 L3401.15 526.82 L3434.43 511.35 L3467.85 496.01 L3501.26 480.78 L3534.55 465.69 L3567.96 450.71 L3601.25 435.86 L3634.66 421.13 L3667.95 406.41 L3701.36 391.93 L3734.65 377.45 L3768.06 363.09 L3801.48 348.86" stroke-linejoin="round" style="fill:none;stroke:#4DAF4A;stroke-width:8.64"/>
	<line x1="465.80" y1="2489.19" x2="465.80" y2="100.86" style="stroke:#000000;stroke-width:5.76"/>
	<line x1="465.80" y1="2489.19" x2="425.82" y2="2489.19" style="stroke:#000000;stroke-width:5.76"/>
	<text x="405.78" y="2524.21" style="font-family:'Helvetica';font-size:99.99px;fill:#000000" text-anchor="end">0.0</text>
	<line x1="465.80" y1="2011.50" x2="425.82" y2="2011.50" style="stroke:#000000;stroke-width:5.76"/>
	<text x="405.78" y="2046.52" style="font-family:'Helvetica';font-size:99.99px;fill:#000000" text-anchor="end">0.1</text>
	<line x1="465.80" y1="1533.81" x2="425.82" y2="1533.81" style="stroke:#000000;stroke-width:5.76"/>
	<text x="405.78" y="1568.83" style="font-family:'Helvetica';font-size:99.99px;fill:#000000" text-anchor="end">0.2</text>
	<line x1="465.80" y1="1056.12" x2="425.82" y2="1056.12" style="stroke:#000000;stroke-width:5.76"/>
	<text x="405.78" y="1091.14" style="font-family:'Helvetica';font-size:99.99px;fill:#000000" text-anchor="end">0.3</text>
	<line x1="465.80" y1="578.43" x2="425.82" y2="578.43" style="stroke:#000000;stroke-width:5.76"/>
	<text x="405.78" y="613.45" style="font-family:'Helvetica';font-size:99.99px;fill:#000000" text-anchor="end">0.4</text>
	<line x1="465.80" y1="100.86" x2="425.82" y2="100.86" style="stroke:#000000;stroke-width:5.76"/>
	<text x="405.78" y="135.89" style="font-family:'Helvetica';font-size:99.99px;fill:#000000" text-anchor="end">0.5</text>
	<text x="190.71" y="1294.96" style="font-family:'Helvetica';font-size:99.99px;fill:#000000" transform="rotate(-90 190.71,1294.96)" text-anchor="middle">S(t)</text>
	<line x1="465.80" y1="2489.19" x2="3859.02" y2="2489.19" style="stroke:#000000;stroke-width:5.76"/>
	<line x1="465.80" y1="2489.19" x2="465.80" y2="2529.16" style="stroke:#000000;stroke-width:5.76"/>
	<text x="465.80" y="2619.14" style="font-family:'Helvetica';font-size:99.99px;fill:#000000" text-anchor="middle">0</text>
	<line x1="1132.93" y1="2489.19" x2="1132.93" y2="2529.16" style="stroke:#000000;stroke-width:5.76"/>
	<text x="1132.93" y="2619.14" style="font-family:'Helvetica';font-size:99.99px;fill:#000000" text-anchor="middle">2</text>
	<line x1="1800.07" y1="2489.19" x2="1800.07" y2="2529.16" style="stroke:#000000;stroke-width:5.76"/>
	<text x="1800.07" y="2619.14" style="font-family:'Helvetica';font-size:99.99px;fill:#000000" text-anchor="middle">4</text>
	<line x1="2467.20" y1="2489.19" x2="2467.20" y2="2529.16" style="stroke:#000000;stroke-width:5.76"/>
	<text x="2467.20" y="2619.14" style="font-family:'Helvetica';font-size:99.99px;fill:#000000" text-anchor="middle">6</text>
	<line x1="3134.34" y1="2489.19" x2="3134.34" y2="2529.16" style="stroke:#000000;stroke-width:5.76"/>
	<text x="3134.34" y="2619.14" style="font-family:'Helvetica';font-size:99.99px;fill:#000000" text-anchor="middle">8</text>
	<line x1="3801.48" y1="2489.19" x2="3801.48" y2="2529.16" style="stroke:#000000;stroke-width:5.76"/>
	<text x="3801.48" y="2619.14" style="font-family:'Helvetica';font-size:99.99px;fill:#000000" text-anchor="middle">10</text>
	<text x="2162.41" y="2729.16" style="font-family:'Helvetica';font-size:99.99px;fill:#000000" text-anchor="middle">Years from surgery</text>
	<rect x="500.32" y="135.39" width="883.95" height="397.25" style="fill:#FFFFFF"/>
	<rect x="503.20" y="138.27" width="878.19" height="391.49" style="fill:none;stroke:#FFFFFF;stroke-width:5.76"/>
	<line x1="508.98" y1="194.05" x2="708.96" y2="194.05" style="stroke:#E41A1C;stroke-width:8.64"/>
	<line x1="508.98" y1="334.01" x2="708.96" y2="334.01" style="stroke:#377EB8;stroke-width:8.64"/>
	<line x1="508.98" y1="473.98" x2="708.96" y2="473.98" style="stroke:#4DAF4A;stroke-width:8.64"/>
	<text x="768.98" y="229.07" style="font-family:'Helvetica';font-size:99.99px;fill:#000000">No treatment</text>
	<text x="768.98" y="369.04" style="font-family:'Helvetica';font-size:99.99px;fill:#000000">Treatment</text>
	<text x="768.98" y="509.01" style="font-family:'Helvetica';font-size:99.99px;fill:#000000">All</text>
</svg>
