<?xml version="1.0" encoding="UTF-8" standalone="no"?>
<!-- This is a Stata 18.5 generated SVG file (http://www.stata.com) -->

<svg version="1.1" width="700px" height="509px" viewBox="0 0 3960 2880" xmlns="http://www.w3.org/2000/svg" xmlns:xlink="http://www.w3.org/1999/xlink">
	<desc>Stata Graph - Graph</desc>
	<rect x="0" y="0" width="3960" height="2880" style="fill:#FFFFFF;stroke:none"/>
	<rect x="0.00" y="0.00" width="3959.88" height="2880.00" style="fill:#FFFFFF"/>
	<rect x="2.88" y="2.88" width="3954.12" height="2874.24" style="fill:none;stroke:#FFFFFF;stroke-width:5.76"/>
	<line x1="465.80" y1="2489.19" x2="3859.02" y2="2489.19" style="stroke:#C0C0C0;stroke-width:5.76"/>
	<line x1="465.80" y1="2011.50" x2="3859.02" y2="2011.50" style="stroke:#C0C0C0;stroke-width:5.76"/>
	<line x1="465.80" y1="1533.81" x2="3859.02" y2="1533.81" style="stroke:#C0C0C0;stroke-width:5.76"/>
	<line x1="465.80" y1="1056.12" x2="3859.02" y2="1056.12" style="stroke:#C0C0C0;stroke-width:5.76"/>
	<line x1="465.80" y1="578.43" x2="3859.02" y2="578.43" style="stroke:#C0C0C0;stroke-width:5.76"/>
	<line x1="465.80" y1="100.86" x2="3859.02" y2="100.86" style="stroke:#C0C0C0;stroke-width:5.76"/>
	<line x1="465.80" y1="2489.19" x2="465.80" y2="100.86" style="stroke:#C0C0C0;stroke-width:5.76"/>
	<line x1="1132.93" y1="2489.19" x2="1132.93" y2="100.86" style="stroke:#C0C0C0;stroke-width:5.76"/>
	<line x1="1800.07" y1="2489.19" x2="1800.07" y2="100.86" style="stroke:#C0C0C0;stroke-width:5.76"/>
	<line x1="2467.20" y1="2489.19" x2="2467.20" y2="100.86" style="stroke:#C0C0C0;stroke-width:5.76"/>
	<line x1="3134.34" y1="2489.19" x2="3134.34" y2="100.86" style="stroke:#C0C0C0;stroke-width:5.76"/>
	<line x1="3801.48" y1="2489.19" x2="3801.48" y2="100.86" style="stroke:#C0C0C0;stroke-width:5.76"/>
	<path d=" M465.67 100.86 L499.08 100.98 L532.37 101.73 L565.79 103.21 L599.20 105.69 L632.49 109.03 L665.90 113.48 L699.19 118.80 L732.60 125.12 L765.89 132.29 L799.30 140.34 L832.59 149.12 L866.00 158.65 L899.42 168.80 L932.70 179.69 L966.12 191.08 L999.41 202.96 L1032.82 215.33 L1066.11 228.20 L1099.52 241.32 L1132.81 254.81 L1166.22 268.55 L1199.63 282.65 L1232.92 296.89 L1266.33 311.36 L1299.62 325.97 L1333.04 340.57 L1366.32 355.42 L1399.74 370.27 L1433.03 385.00 L1466.44 399.85 L1499.73 414.70 L1533.14 429.43 L1566.55 444.03 L1599.84 458.51 L1633.25 472.99 L1666.54 487.22 L1699.95 501.33 L1733.24 515.19 L1766.66 528.92 L1799.94 542.54 L1833.36 555.90 L1866.77 569.02 L1900.06 582.01 L1933.47 594.88 L1966.76 607.51 L2000.17 620.01 L2033.46 632.26 L2066.87 644.39 L2100.16 656.51 L2133.57 668.39 L2166.99 680.03 L2200.28 691.66 L2233.69 703.17 L2266.98 714.55 L2300.39 725.82 L2333.68 736.95 L2367.09 747.97 L2400.38 758.98 L2433.79 769.87 L2467.08 780.64 L2500.49 791.28 L2533.91 801.80 L2567.19 812.32 L2600.61 822.84 L2633.90 833.11 L2667.31 843.38 L2700.60 853.53 L2734.01 863.68 L2767.30 873.70 L2800.71 883.73 L2834.12 893.63 L2867.41 903.40 L2900.82 913.18 L2934.11 922.83 L2967.53 932.36 L3000.81 942.01 L3034.23 951.42 L3067.52 960.83 L3100.93 970.23 L3134.34 979.51 L3167.63 988.67 L3201.04 997.83 L3234.33 1006.99 L3267.74 1016.02 L3301.03 1025.05 L3334.44 1033.96 L3367.73 1042.75 L3401.15 1051.66 L3434.43 1060.45 L3467.85 1069.11 L3501.26 1077.77 L3534.55 1086.44 L3567.96 1094.97 L3601.25 1103.39 L3634.66 1111.93 L3667.95 1120.34 L3701.36 1128.64 L3734.65 1137.05 L3768.06 1145.22 L3801.48 1153.51" stroke-linejoin="round" style="fill:none;stroke:#E41A1C;stroke-width:8.64"/>
	<path d=" M465.67 100.86 L499.08 100.98 L532.37 101.48 L565.79 102.72 L599.20 104.70 L632.49 107.42 L665.90 110.88 L699.19 115.09 L732.60 120.04 L765.89 125.73 L799.30 132.05 L832.59 139.10 L866.00 146.65 L899.42 154.82 L932.70 163.36 L966.12 172.51 L999.41 181.92 L1032.82 191.82 L1066.11 202.09 L1099.52 212.61 L1132.81 223.38 L1166.22 234.51 L1199.63 245.78 L1232.92 257.28 L1266.33 268.92 L1299.62 280.67 L1333.04 292.55 L1366.32 304.43 L1399.74 316.44 L1433.03 328.44 L1466.44 340.57 L1499.73 352.57 L1533.14 364.58 L1566.55 376.46 L1599.84 388.34 L1633.25 400.22 L1666.54 411.85 L1699.95 423.49 L1733.24 434.87 L1766.66 446.13 L1799.94 457.39 L1833.36 468.41 L1866.77 479.30 L1900.06 490.07 L1933.47 500.71 L1966.76 511.23 L2000.17 521.50 L2033.46 531.77 L2066.87 541.92 L2100.16 551.94 L2133.57 561.97 L2166.99 571.74 L2200.28 581.52 L2233.69 591.17 L2266.98 600.70 L2300.39 610.23 L2333.68 619.64 L2367.09 628.92 L2400.38 638.20 L2433.79 647.36 L2467.08 656.51 L2500.49 665.55 L2533.91 674.58 L2567.19 683.49 L2600.61 692.40 L2633.90 701.19 L2667.31 709.98 L2700.60 718.64 L2734.01 727.30 L2767.30 735.96 L2800.71 744.50 L2834.12 753.04 L2867.41 761.46 L2900.82 769.87 L2934.11 778.16 L2967.53 786.46 L3000.81 794.75 L3034.23 802.92 L3067.52 811.08 L3100.93 819.25 L3134.34 827.29 L3167.63 835.34 L3201.04 843.38 L3234.33 851.30 L3267.74 859.22 L3301.03 867.02 L3334.44 874.94 L3367.73 882.74 L3401.15 890.41 L3434.43 898.08 L3467.85 905.88 L3501.26 913.43 L3534.55 921.10 L3567.96 928.65 L3601.25 936.20 L3634.66 943.62 L3667.95 951.17 L3701.36 958.60 L3734.65 966.02 L3768.06 973.32 L3801.48 980.63" stroke-linejoin="round" style="fill:none;stroke:#377EB8;stroke-width:8.64"/>
	<line x1="465.80" y1="2489.19" x2="465.80" y2="100.86" style="stroke:#000000;stroke-width:5.76"/>
	<line x1="465.80" y1="2489.19" x2="425.82" y2="2489.19" style="stroke:#000000;stroke-width:5.76"/>
	<text x="405.78" y="2524.21" style="font-family:'Helvetica';font-size:99.99px;fill:#000000" text-anchor="end">0.0</text>
	<line x1="465.80" y1="2011.50" x2="425.82" y2="2011.50" style="stroke:#000000;stroke-width:5.76"/>
	<text x="405.78" y="2046.52" style="font-family:'Helvetica';font-size:99.99px;fill:#000000" text-anchor="end">0.2</text>
	<line x1="465.80" y1="1533.81" x2="425.82" y2="1533.81" style="stroke:#000000;stroke-width:5.76"/>
	<text x="405.78" y="1568.83" style="font-family:'Helvetica';font-size:99.99px;fill:#000000" text-anchor="end">0.4</text>
	<line x1="465.80" y1="1056.12" x2="425.82" y2="1056.12" style="stroke:#000000;stroke-width:5.76"/>
	<text x="405.78" y="1091.14" style="font-family:'Helvetica';font-size:99.99px;fill:#000000" text-anchor="end">0.6</text>
	<line x1="465.80" y1="578.43" x2="425.82" y2="578.43" style="stroke:#000000;stroke-width:5.76"/>
	<text x="405.78" y="613.45" style="font-family:'Helvetica';font-size:99.99px;fill:#000000" text-anchor="end">0.8</text>
	<line x1="465.80" y1="100.86" x2="425.82" y2="100.86" style="stroke:#000000;stroke-width:5.76"/>
	<text x="405.78" y="135.89" style="font-family:'Helvetica';font-size:99.99px;fill:#000000" text-anchor="end">1.0</text>
	<text x="190.71" y="1294.96" style="font-family:'Helvetica';font-size:99.99px;fill:#000000" transform="rotate(-90 190.71,1294.96)" text-anchor="middle">S(t)</text>
	<line x1="465.80" y1="2489.19" x2="3859.02" y2="2489.19" style="stroke:#000000;stroke-width:5.76"/>
	<line x1="465.80" y1="2489.19" x2="465.80" y2="2529.16" style="stroke:#000000;stroke-width:5.76"/>
	<text x="465.80" y="2619.14" style="font-family:'Helvetica';font-size:99.99px;fill:#000000" text-anchor="middle">0</text>
	<line x1="1132.93" y1="2489.19" x2="1132.93" y2="2529.16" style="stroke:#000000;stroke-width:5.76"/>
	<text x="1132.93" y="2619.14" style="font-family:'Helvetica';font-size:99.99px;fill:#000000" text-anchor="middle">2</text>
	<line x1="1800.07" y1="2489.19" x2="1800.07" y2="2529.16" style="stroke:#000000;stroke-width:5.76"/>
	<text x="1800.07" y="2619.14" style="font-family:'Helvetica';font-size:99.99px;fill:#000000" text-anchor="middle">4</text>
	<line x1="2467.20" y1="2489.19" x2="2467.20" y2="2529.16" style="stroke:#000000;stroke-width:5.76"/>
	<text x="2467.20" y="2619.14" style="font-family:'Helvetica';font-size:99.99px;fill:#000000" text-anchor="middle">6</text>
	<line x1="3134.34" y1="2489.19" x2="3134.34" y2="2529.16" style="stroke:#000000;stroke-width:5.76"/>
	<text x="3134.34" y="2619.14" style="font-family:'Helvetica';font-size:99.99px;fill:#000000" text-anchor="middle">8</text>
	<line x1="3801.48" y1="2489.19" x2="3801.48" y2="2529.16" style="stroke:#000000;stroke-width:5.76"/>
	<text x="3801.48" y="2619.14" style="font-family:'Helvetica';font-size:99.99px;fill:#000000" text-anchor="middle">10</text>
	<text x="2162.41" y="2729.16" style="font-family:'Helvetica';font-size:99.99px;fill:#000000" text-anchor="middle">Years since surgery</text>
	<line x1="2453.84" y1="228.57" x2="2653.82" y2="228.57" style="stroke:#E41A1C;stroke-width:8.64"/>
	<line x1="2453.84" y1="368.54" x2="2653.82" y2="368.54" style="stroke:#377EB8;stroke-width:8.64"/>
	<text x="2713.84" y="263.60" style="font-family:'Helvetica';font-size:99.99px;fill:#000000">No hormonal treatment</text>
	<text x="2713.84" y="403.57" style="font-family:'Helvetica';font-size:99.99px;fill:#000000">Hormonal treatment</text>
</svg>
