<?xml version="1.0" encoding="UTF-8" standalone="no"?>
<!-- This is a Stata 18.5 generated SVG file (http://www.stata.com) -->

<svg version="1.1" width="700px" height="509px" viewBox="0 0 3960 2880" xmlns="http://www.w3.org/2000/svg" xmlns:xlink="http://www.w3.org/1999/xlink">
	<desc>Stata Graph - RS</desc>
	<rect x="0" y="0" width="3960" height="2880" style="fill:#FFFFFF;stroke:none"/>
	<rect x="0.00" y="0.00" width="3959.88" height="2880.00" style="fill:#FFFFFF"/>
	<rect x="2.88" y="2.88" width="3954.12" height="2874.24" style="fill:none;stroke:#FFFFFF;stroke-width:5.76"/>
	<line x1="465.80" y1="2489.19" x2="3859.02" y2="2489.19" style="stroke:#C0C0C0;stroke-opacity:0.50;stroke-width:5.76"/>
	<line x1="465.80" y1="1892.07" x2="3859.02" y2="1892.07" style="stroke:#C0C0C0;stroke-opacity:0.50;stroke-width:5.76"/>
	<line x1="465.80" y1="1294.96" x2="3859.02" y2="1294.96" style="stroke:#C0C0C0;stroke-opacity:0.50;stroke-width:5.76"/>
	<line x1="465.80" y1="697.85" x2="3859.02" y2="697.85" style="stroke:#C0C0C0;stroke-opacity:0.50;stroke-width:5.76"/>
	<line x1="465.80" y1="100.86" x2="3859.02" y2="100.86" style="stroke:#C0C0C0;stroke-opacity:0.50;stroke-width:5.76"/>
	<line x1="465.80" y1="2489.19" x2="465.80" y2="100.86" style="stroke:#C0C0C0;stroke-opacity:0.50;stroke-width:5.76"/>
	<line x1="1132.93" y1="2489.19" x2="1132.93" y2="100.86" style="stroke:#C0C0C0;stroke-opacity:0.50;stroke-width:5.76"/>
	<line x1="1800.07" y1="2489.19" x2="1800.07" y2="100.86" style="stroke:#C0C0C0;stroke-opacity:0.50;stroke-width:5.76"/>
	<line x1="2467.20" y1="2489.19" x2="2467.20" y2="100.86" style="stroke:#C0C0C0;stroke-opacity:0.50;stroke-width:5.76"/>
	<line x1="3134.34" y1="2489.19" x2="3134.34" y2="100.86" style="stroke:#C0C0C0;stroke-opacity:0.50;stroke-width:5.76"/>
	<line x1="3801.48" y1="2489.19" x2="3801.48" y2="100.86" style="stroke:#C0C0C0;stroke-opacity:0.50;stroke-width:5.76"/>
	<defs>
		<path id="path_PPCtyniu" d="M465.80 100.86 L465.80 100.86 L499.08 140.71 L532.50 202.09 L565.91 267.31 L599.20 332.03 L632.61 393.91 L665.90 452.32 L699.31 507.14 L732.60 558.38 L766.01 606.64 L799.30 652.31 L832.71 695.62 L866.00 737.08 L899.42 776.56 L932.83 814.30 L966.12 850.31 L999.53 884.72 L1032.82 917.39 L1066.23 948.70 L1099.52 978.52 L1132.93 1007.36 L1166.22 1034.95 L1199.63 1061.56 L1233.05 1087.18 L1266.33 1111.80 L1299.75 1135.69 L1333.04 1158.58 L1366.45 1180.74 L1399.74 1202.15 L1433.15 1222.69 L1466.44 1242.61 L1499.85 1261.79 L1533.26 1280.23 L1566.55 1298.18 L1599.96 1315.50 L1633.25 1332.33 L1666.67 1348.67 L1699.95 1364.51 L1733.37 1379.86 L1766.66 1394.95 L1800.07 1409.56 L1833.36 1423.79 L1866.77 1437.65 L1900.18 1451.39 L1933.47 1464.63 L1966.88 1477.74 L2000.17 1490.49 L2033.58 1503.11 L2066.87 1515.49 L2100.29 1527.62 L2133.57 1539.50 L2166.99 1551.25 L2200.40 1562.76 L2233.69 1574.03 L2267.10 1585.16 L2300.39 1596.18 L2333.80 1607.07 L2367.09 1617.71 L2400.50 1628.35 L2433.79 1638.75 L2467.20 1649.02 L2500.62 1659.17 L2533.91 1669.19 L2567.32 1679.09 L2600.61 1688.99 L2634.02 1698.65 L2667.31 1708.30 L2700.72 1717.83 L2734.01 1727.23 L2767.42 1736.51 L2800.71 1745.80 L2834.12 1754.95 L2867.54 1764.11 L2900.82 1773.15 L2934.24 1782.06 L2967.53 1790.97 L3000.94 1799.88 L3034.23 1808.54 L3067.64 1817.33 L3100.93 1825.99 L3134.34 1834.53 L3167.75 1843.07 L3201.04 1851.61 L3234.45 1860.02 L3267.74 1868.31 L3301.16 1876.73 L3334.44 1885.02 L3367.86 1893.19 L3401.15 1901.35 L3434.56 1909.52 L3467.97 1917.57 L3501.26 1925.61 L3534.67 1933.65 L3567.96 1941.57 L3601.37 1949.49 L3634.66 1957.41 L3668.07 1965.21 L3701.36 1973.01 L3734.78 1980.68 L3768.06 1988.48 L3801.48 1996.03 L3801.48 1856.06 L3768.06 1850.00 L3734.78 1843.81 L3701.36 1837.62 L3668.07 1831.31 L3634.66 1825.12 L3601.37 1818.69 L3567.96 1812.25 L3534.67 1805.82 L3501.26 1799.26 L3467.97 1792.57 L3434.56 1785.89 L3401.15 1779.09 L3367.86 1772.28 L3334.44 1765.35 L3301.16 1758.42 L3267.74 1751.24 L3234.45 1744.19 L3201.04 1736.89 L3167.75 1729.58 L3134.34 1722.16 L3100.93 1714.73 L3067.64 1707.06 L3034.23 1699.39 L3000.94 1691.72 L2967.53 1683.80 L2934.24 1675.87 L2900.82 1667.83 L2867.54 1659.66 L2834.12 1651.37 L2800.71 1642.96 L2767.42 1634.54 L2734.01 1625.88 L2700.72 1617.22 L2667.31 1608.43 L2634.02 1599.52 L2600.61 1590.48 L2567.32 1581.33 L2533.91 1572.05 L2500.62 1562.64 L2467.20 1553.11 L2433.79 1543.46 L2400.50 1533.68 L2367.09 1523.78 L2333.80 1513.76 L2300.39 1503.61 L2267.10 1493.21 L2233.69 1482.82 L2200.40 1472.18 L2166.99 1461.41 L2133.57 1450.52 L2100.29 1439.38 L2066.87 1428.12 L2033.58 1416.61 L2000.17 1404.85 L1966.88 1392.85 L1933.47 1380.60 L1900.18 1368.10 L1866.77 1355.23 L1833.36 1342.11 L1800.07 1328.50 L1766.66 1314.64 L1733.37 1300.28 L1699.95 1285.56 L1666.67 1270.33 L1633.25 1254.49 L1599.96 1238.28 L1566.55 1221.45 L1533.26 1204.13 L1499.85 1186.30 L1466.44 1167.74 L1433.15 1148.68 L1399.74 1129.01 L1366.45 1108.59 L1333.04 1087.55 L1299.75 1065.64 L1266.33 1043.00 L1233.05 1019.48 L1199.63 994.86 L1166.22 969.36 L1132.93 942.63 L1099.52 914.79 L1066.23 885.83 L1032.82 855.51 L999.53 823.83 L966.12 790.91 L932.83 756.51 L899.42 720.62 L866.00 683.25 L832.71 644.02 L799.30 602.68 L766.01 559.12 L732.60 512.96 L699.31 464.08 L665.90 412.22 L632.61 357.52 L599.20 300.10 L565.91 240.83 L532.50 181.55 L499.08 128.09 L465.80 100.86 L465.80 100.86 Z" stroke-linejoin="round"/>
	</defs>
	<defs>
		<clipPath id="clipPath_TNYzOsJw">
			<use xlink:href="#path_PPCtyniu"/>
		</clipPath>
	</defs>
	<use xlink:href="#path_PPCtyniu" style="stroke:none;fill:#E94849;fill-opacity:0.30"/>
	<use xlink:href="#path_PPCtyniu" style="fill:none;stroke:#E41A1C;stroke-opacity:0.30;stroke-width:17.28" clip-path="url(#clipPath_TNYzOsJw)"/>
	<path d=" M465.67 100.86 L499.08 134.52 L532.37 191.82 L565.79 254.19 L599.20 316.19 L632.49 375.84 L665.90 432.40 L699.19 485.73 L732.60 535.73 L765.89 583.00 L799.30 627.56 L832.59 670.00 L866.00 710.22 L899.42 748.71 L932.70 785.59 L966.12 820.74 L999.41 854.40 L1032.82 886.57 L1066.11 917.39 L1099.52 946.84 L1132.81 975.18 L1166.22 1002.28 L1199.63 1028.39 L1232.92 1053.52 L1266.33 1077.65 L1299.62 1100.79 L1333.04 1123.31 L1366.32 1144.85 L1399.74 1165.76 L1433.03 1185.93 L1466.44 1205.36 L1499.73 1224.17 L1533.14 1242.49 L1566.55 1260.06 L1599.84 1277.14 L1633.25 1293.72 L1666.54 1309.69 L1699.95 1325.28 L1733.24 1340.38 L1766.66 1354.98 L1799.94 1369.21 L1833.36 1383.20 L1866.77 1396.69 L1900.06 1409.93 L1933.47 1422.92 L1966.76 1435.54 L2000.17 1447.92 L2033.46 1460.17 L2066.87 1472.05 L2100.16 1483.81 L2133.57 1495.32 L2166.99 1506.58 L2200.28 1517.72 L2233.69 1528.73 L2266.98 1539.50 L2300.39 1550.14 L2333.68 1560.66 L2367.09 1571.06 L2400.38 1581.33 L2433.79 1591.35 L2467.08 1601.38 L2500.49 1611.28 L2533.91 1620.93 L2567.19 1630.58 L2600.61 1639.99 L2633.90 1649.39 L2667.31 1658.67 L2700.60 1667.83 L2734.01 1676.86 L2767.30 1685.90 L2800.71 1694.81 L2834.12 1703.60 L2867.41 1712.26 L2900.82 1720.80 L2934.11 1729.34 L2967.53 1737.75 L3000.81 1746.17 L3034.23 1754.46 L3067.52 1762.63 L3100.93 1770.79 L3134.34 1778.84 L3167.63 1786.76 L3201.04 1794.68 L3234.33 1802.48 L3267.74 1810.27 L3301.03 1817.94 L3334.44 1825.62 L3367.73 1833.29 L3401.15 1840.72 L3434.43 1848.26 L3467.85 1855.57 L3501.26 1862.99 L3534.55 1870.29 L3567.96 1877.47 L3601.25 1884.65 L3634.66 1891.83 L3667.95 1898.88 L3701.36 1905.93 L3734.65 1912.86 L3768.06 1919.79 L3801.48 1926.72" stroke-linejoin="round" style="fill:none;stroke:#E41A1C;stroke-width:8.64"/>
	<defs>
		<path id="path_hjXPszjm" d="M465.80 100.86 L465.80 100.86 L499.08 148.50 L532.50 223.00 L565.91 302.58 L599.20 380.79 L632.61 454.55 L665.90 522.98 L699.31 585.73 L732.60 643.77 L766.01 698.10 L799.30 749.33 L832.71 797.96 L866.00 844.25 L899.42 888.43 L932.83 930.63 L966.12 971.10 L999.53 1009.83 L1032.82 1047.08 L1066.23 1082.97 L1099.52 1117.50 L1132.93 1150.91 L1166.22 1183.09 L1199.63 1214.15 L1233.05 1244.10 L1266.33 1272.93 L1299.75 1300.65 L1333.04 1327.38 L1366.45 1353.12 L1399.74 1377.75 L1433.15 1401.51 L1466.44 1424.28 L1499.85 1446.31 L1533.26 1467.72 L1566.55 1488.26 L1599.96 1508.19 L1633.25 1527.62 L1666.67 1546.55 L1699.95 1564.87 L1733.37 1582.81 L1766.66 1600.26 L1800.07 1617.34 L1833.36 1634.17 L1866.77 1650.51 L1900.18 1666.59 L1933.47 1682.31 L1966.88 1697.78 L2000.17 1713.00 L2033.58 1727.85 L2066.87 1742.45 L2100.29 1756.81 L2133.57 1771.04 L2166.99 1784.90 L2200.40 1798.64 L2233.69 1812.13 L2267.10 1825.37 L2300.39 1838.49 L2333.80 1851.36 L2367.09 1864.10 L2400.50 1876.73 L2433.79 1889.10 L2467.20 1901.35 L2500.62 1913.48 L2533.91 1925.36 L2567.32 1937.24 L2600.61 1948.88 L2634.02 1960.51 L2667.31 1972.02 L2700.72 1983.40 L2734.01 1994.66 L2767.42 2005.80 L2800.71 2016.82 L2834.12 2027.83 L2867.54 2038.72 L2900.82 2049.49 L2934.24 2060.25 L2967.53 2070.90 L3000.94 2081.42 L3034.23 2091.94 L3067.64 2102.33 L3100.93 2112.73 L3134.34 2123.00 L3167.75 2133.15 L3201.04 2143.29 L3234.45 2153.44 L3267.74 2163.47 L3301.16 2173.37 L3334.44 2183.27 L3367.86 2193.17 L3401.15 2202.94 L3434.56 2212.60 L3467.97 2222.25 L3501.26 2231.90 L3534.67 2241.43 L3567.96 2250.96 L3601.37 2260.49 L3634.66 2269.77 L3668.07 2279.17 L3701.36 2288.46 L3734.78 2297.74 L3768.06 2306.90 L3801.48 2315.93 L3801.48 2132.53 L3768.06 2125.47 L3734.78 2118.17 L3701.36 2110.87 L3668.07 2103.57 L3634.66 2096.14 L3601.37 2088.59 L3567.96 2081.05 L3534.67 2073.37 L3501.26 2065.58 L3467.97 2057.78 L3434.56 2049.86 L3401.15 2041.82 L3367.86 2033.77 L3334.44 2025.48 L3301.16 2017.19 L3267.74 2008.77 L3234.45 2000.36 L3201.04 1991.69 L3167.75 1983.03 L3134.34 1974.25 L3100.93 1965.34 L3067.64 1956.30 L3034.23 1947.14 L3000.94 1937.86 L2967.53 1928.46 L2934.24 1918.93 L2900.82 1909.27 L2867.54 1899.62 L2834.12 1889.72 L2800.71 1879.70 L2767.42 1869.55 L2734.01 1859.28 L2700.72 1848.76 L2667.31 1838.24 L2634.02 1827.47 L2600.61 1816.71 L2567.32 1805.69 L2533.91 1794.55 L2500.62 1783.29 L2467.20 1771.78 L2433.79 1760.28 L2400.50 1748.52 L2367.09 1736.64 L2333.80 1724.51 L2300.39 1712.38 L2267.10 1700.01 L2233.69 1687.38 L2200.40 1674.76 L2166.99 1661.89 L2133.57 1648.77 L2100.29 1635.53 L2066.87 1622.04 L2033.58 1608.43 L2000.17 1594.57 L1966.88 1580.46 L1933.47 1566.11 L1900.18 1551.38 L1866.77 1536.40 L1833.36 1520.94 L1800.07 1505.22 L1766.66 1489.13 L1733.37 1472.55 L1699.95 1455.47 L1666.67 1437.90 L1633.25 1419.83 L1599.96 1401.14 L1566.55 1381.84 L1533.26 1361.91 L1499.85 1341.37 L1466.44 1320.08 L1433.15 1297.93 L1399.74 1275.16 L1366.45 1251.52 L1333.04 1227.14 L1299.75 1201.77 L1266.33 1175.54 L1233.05 1148.19 L1199.63 1119.85 L1166.22 1090.40 L1132.93 1059.58 L1099.52 1027.53 L1066.23 994.24 L1032.82 959.59 L999.53 923.70 L966.12 886.45 L932.83 847.84 L899.42 807.99 L866.00 766.53 L832.71 723.34 L799.30 677.80 L766.01 629.66 L732.60 578.30 L699.31 523.36 L665.90 464.32 L632.61 401.09 L599.20 334.14 L565.91 264.09 L532.50 193.55 L499.08 130.56 L465.80 100.86 L465.80 100.86 Z" stroke-linejoin="round"/>
	</defs>
	<defs>
		<clipPath id="clipPath_ftSKJZAU">
			<use xlink:href="#path_hjXPszjm"/>
		</clipPath>
	</defs>
	<use xlink:href="#path_hjXPszjm" style="stroke:none;fill:#5F98C6;fill-opacity:0.30"/>
	<use xlink:href="#path_hjXPszjm" style="fill:none;stroke:#377EB8;stroke-opacity:0.30;stroke-width:17.28" clip-path="url(#clipPath_ftSKJZAU)"/>
	<path d=" M465.67 100.86 L499.08 139.59 L532.37 208.28 L565.79 283.40 L599.20 357.52 L632.49 427.94 L665.90 493.78 L699.19 554.66 L732.60 611.22 L765.89 664.06 L799.30 713.81 L832.59 760.84 L866.00 805.64 L899.42 848.46 L932.70 889.54 L966.12 929.02 L999.41 967.01 L1032.82 1003.64 L1066.11 1038.91 L1099.52 1072.82 L1132.81 1105.49 L1166.22 1136.93 L1199.63 1167.25 L1232.92 1196.45 L1266.33 1224.54 L1299.62 1251.52 L1333.04 1277.63 L1366.32 1302.63 L1399.74 1326.77 L1433.03 1350.03 L1466.44 1372.55 L1499.73 1394.21 L1533.14 1415.13 L1566.55 1435.42 L1599.84 1455.10 L1633.25 1474.16 L1666.54 1492.60 L1699.95 1510.54 L1733.24 1528.11 L1766.66 1545.07 L1799.94 1561.77 L1833.36 1577.99 L1866.77 1593.83 L1900.06 1609.42 L1933.47 1624.64 L1966.76 1639.61 L2000.17 1654.22 L2033.46 1668.57 L2066.87 1682.81 L2100.16 1696.67 L2133.57 1710.40 L2166.99 1723.89 L2200.28 1737.13 L2233.69 1750.25 L2266.98 1763.25 L2300.39 1775.99 L2333.68 1788.49 L2367.09 1800.87 L2400.38 1813.12 L2433.79 1825.25 L2467.08 1837.13 L2500.49 1848.88 L2533.91 1860.52 L2567.19 1872.02 L2600.61 1883.41 L2633.90 1894.67 L2667.31 1905.69 L2700.60 1916.70 L2734.01 1927.59 L2767.30 1938.23 L2800.71 1948.88 L2834.12 1959.39 L2867.41 1969.79 L2900.82 1980.06 L2934.11 1990.21 L2967.53 2000.36 L3000.81 2010.38 L3034.23 2020.28 L3067.52 2030.06 L3100.93 2039.71 L3134.34 2049.36 L3167.63 2058.89 L3201.04 2068.30 L3234.33 2077.70 L3267.74 2086.99 L3301.03 2096.14 L3334.44 2105.30 L3367.73 2114.33 L3401.15 2123.25 L3434.43 2132.16 L3467.85 2140.94 L3501.26 2149.73 L3534.55 2158.39 L3567.96 2166.93 L3601.25 2175.47 L3634.66 2184.01 L3667.95 2192.42 L3701.36 2200.72 L3734.65 2209.01 L3768.06 2217.30 L3801.48 2225.47" stroke-linejoin="round" style="fill:none;stroke:#377EB8;stroke-width:8.64"/>
	<line x1="465.80" y1="2489.19" x2="465.80" y2="100.86" style="stroke:#000000;stroke-width:5.76"/>
	<line x1="465.80" y1="2489.19" x2="425.82" y2="2489.19" style="stroke:#000000;stroke-width:5.76"/>
	<text x="405.78" y="2524.21" style="font-family:'Helvetica';font-size:99.99px;fill:#000000" text-anchor="end">0.6</text>
	<line x1="465.80" y1="1892.07" x2="425.82" y2="1892.07" style="stroke:#000000;stroke-width:5.76"/>
	<text x="405.78" y="1927.10" style="font-family:'Helvetica';font-size:99.99px;fill:#000000" text-anchor="end">0.7</text>
	<line x1="465.80" y1="1294.96" x2="425.82" y2="1294.96" style="stroke:#000000;stroke-width:5.76"/>
	<text x="405.78" y="1329.99" style="font-family:'Helvetica';font-size:99.99px;fill:#000000" text-anchor="end">0.8</text>
	<line x1="465.80" y1="697.85" x2="425.82" y2="697.85" style="stroke:#000000;stroke-width:5.76"/>
	<text x="405.78" y="732.88" style="font-family:'Helvetica';font-size:99.99px;fill:#000000" text-anchor="end">0.9</text>
	<line x1="465.80" y1="100.86" x2="425.82" y2="100.86" style="stroke:#000000;stroke-width:5.76"/>
	<text x="405.78" y="135.89" style="font-family:'Helvetica';font-size:99.99px;fill:#000000" text-anchor="end">1.0</text>
	<text x="190.71" y="1294.96" style="font-family:'Helvetica';font-size:99.99px;fill:#000000" transform="rotate(-90 190.71,1294.96)" text-anchor="middle">Marginal Relative Survival</text>
	<line x1="465.80" y1="2489.19" x2="3859.02" y2="2489.19" style="stroke:#000000;stroke-width:5.76"/>
	<line x1="465.80" y1="2489.19" x2="465.80" y2="2529.16" style="stroke:#000000;stroke-width:5.76"/>
	<text x="465.80" y="2619.14" style="font-family:'Helvetica';font-size:99.99px;fill:#000000" text-anchor="middle">0</text>
	<line x1="1132.93" y1="2489.19" x2="1132.93" y2="2529.16" style="stroke:#000000;stroke-width:5.76"/>
	<text x="1132.93" y="2619.14" style="font-family:'Helvetica';font-size:99.99px;fill:#000000" text-anchor="middle">1</text>
	<line x1="1800.07" y1="2489.19" x2="1800.07" y2="2529.16" style="stroke:#000000;stroke-width:5.76"/>
	<text x="1800.07" y="2619.14" style="font-family:'Helvetica';font-size:99.99px;fill:#000000" text-anchor="middle">2</text>
	<line x1="2467.20" y1="2489.19" x2="2467.20" y2="2529.16" style="stroke:#000000;stroke-width:5.76"/>
	<text x="2467.20" y="2619.14" style="font-family:'Helvetica';font-size:99.99px;fill:#000000" text-anchor="middle">3</text>
	<line x1="3134.34" y1="2489.19" x2="3134.34" y2="2529.16" style="stroke:#000000;stroke-width:5.76"/>
	<text x="3134.34" y="2619.14" style="font-family:'Helvetica';font-size:99.99px;fill:#000000" text-anchor="middle">4</text>
	<line x1="3801.48" y1="2489.19" x2="3801.48" y2="2529.16" style="stroke:#000000;stroke-width:5.76"/>
	<text x="3801.48" y="2619.14" style="font-family:'Helvetica';font-size:99.99px;fill:#000000" text-anchor="middle">5</text>
	<text x="2162.41" y="2729.16" style="font-family:'Helvetica';font-size:99.99px;fill:#000000" text-anchor="middle">Years from diagnosis</text>
	<rect x="3089.30" y="135.39" width="735.20" height="257.28" style="fill:#FFFFFF"/>
	<rect x="3092.17" y="138.27" width="729.44" height="251.52" style="fill:none;stroke:#FFFFFF;stroke-width:5.76"/>
	<line x1="3097.96" y1="194.05" x2="3297.94" y2="194.05" style="stroke:#E41A1C;stroke-width:8.64"/>
	<line x1="3097.96" y1="334.01" x2="3297.94" y2="334.01" style="stroke:#377EB8;stroke-width:8.64"/>
	<text x="3357.96" y="229.07" style="font-family:'Helvetica';font-size:99.99px;fill:#000000">Country A</text>
	<text x="3357.96" y="369.04" style="font-family:'Helvetica';font-size:99.99px;fill:#000000">Country B</text>
</svg>
