<?xml version="1.0" encoding="UTF-8" standalone="no"?>
<!-- This is a Stata 18.5 generated SVG file (http://www.stata.com) -->

<svg version="1.1" width="700px" height="509px" viewBox="0 0 3960 2880" xmlns="http://www.w3.org/2000/svg" xmlns:xlink="http://www.w3.org/1999/xlink">
	<desc>Stata Graph - Graph</desc>
	<rect x="0" y="0" width="3960" height="2880" style="fill:#FFFFFF;stroke:none"/>
	<rect x="0.00" y="0.00" width="3959.88" height="2880.00" style="fill:#FFFFFF"/>
	<rect x="2.88" y="2.88" width="3954.12" height="2874.24" style="fill:none;stroke:#FFFFFF;stroke-width:5.76"/>
	<line x1="465.80" y1="2489.19" x2="3859.02" y2="2489.19" style="stroke:#C0C0C0;stroke-opacity:0.50;stroke-width:5.76"/>
	<line x1="465.80" y1="2091.19" x2="3859.02" y2="2091.19" style="stroke:#C0C0C0;stroke-opacity:0.50;stroke-width:5.76"/>
	<line x1="465.80" y1="1693.08" x2="3859.02" y2="1693.08" style="stroke:#C0C0C0;stroke-opacity:0.50;stroke-width:5.76"/>
	<line x1="465.80" y1="1294.96" x2="3859.02" y2="1294.96" style="stroke:#C0C0C0;stroke-opacity:0.50;stroke-width:5.76"/>
	<line x1="465.80" y1="896.97" x2="3859.02" y2="896.97" style="stroke:#C0C0C0;stroke-opacity:0.50;stroke-width:5.76"/>
	<line x1="465.80" y1="498.85" x2="3859.02" y2="498.85" style="stroke:#C0C0C0;stroke-opacity:0.50;stroke-width:5.76"/>
	<line x1="465.80" y1="100.86" x2="3859.02" y2="100.86" style="stroke:#C0C0C0;stroke-opacity:0.50;stroke-width:5.76"/>
	<line x1="465.80" y1="2489.19" x2="465.80" y2="100.86" style="stroke:#C0C0C0;stroke-opacity:0.50;stroke-width:5.76"/>
	<line x1="1132.93" y1="2489.19" x2="1132.93" y2="100.86" style="stroke:#C0C0C0;stroke-opacity:0.50;stroke-width:5.76"/>
	<line x1="1800.07" y1="2489.19" x2="1800.07" y2="100.86" style="stroke:#C0C0C0;stroke-opacity:0.50;stroke-width:5.76"/>
	<line x1="2467.20" y1="2489.19" x2="2467.20" y2="100.86" style="stroke:#C0C0C0;stroke-opacity:0.50;stroke-width:5.76"/>
	<line x1="3134.34" y1="2489.19" x2="3134.34" y2="100.86" style="stroke:#C0C0C0;stroke-opacity:0.50;stroke-width:5.76"/>
	<line x1="3801.48" y1="2489.19" x2="3801.48" y2="100.86" style="stroke:#C0C0C0;stroke-opacity:0.50;stroke-width:5.76"/>
	<defs>
		<path id="path_qBHwXaqF" d="M465.80 100.86 L465.80 100.86 L499.08 266.44 L532.50 368.42 L565.91 446.63 L599.20 510.61 L632.61 565.43 L665.90 614.07 L699.31 658.00 L732.60 698.10 L766.01 734.85 L799.30 768.51 L832.71 799.08 L866.00 827.05 L899.42 852.91 L932.83 877.04 L966.12 899.81 L999.53 921.47 L1032.82 942.39 L1066.23 962.43 L1099.52 981.86 L1132.93 1000.80 L1166.22 1019.11 L1199.63 1037.18 L1233.05 1054.88 L1266.33 1072.20 L1299.75 1089.16 L1333.04 1105.99 L1366.45 1122.45 L1399.74 1138.78 L1433.15 1154.87 L1466.44 1170.84 L1499.85 1186.30 L1533.26 1201.53 L1566.55 1216.38 L1599.96 1230.98 L1633.25 1245.09 L1666.67 1258.70 L1699.95 1272.07 L1733.37 1285.06 L1766.66 1297.56 L1800.07 1309.81 L1833.36 1321.57 L1866.77 1333.08 L1900.18 1344.21 L1933.47 1354.86 L1966.88 1365.25 L2000.17 1375.40 L2033.58 1385.05 L2066.87 1394.46 L2100.29 1403.49 L2133.57 1412.28 L2166.99 1420.69 L2200.40 1428.74 L2233.69 1436.53 L2267.10 1444.08 L2300.39 1451.39 L2333.80 1458.32 L2367.09 1465.12 L2400.50 1471.68 L2433.79 1477.99 L2467.20 1484.06 L2500.62 1490.00 L2533.91 1495.81 L2567.32 1501.38 L2600.61 1506.83 L2634.02 1512.15 L2667.31 1517.22 L2700.72 1522.30 L2734.01 1527.12 L2767.42 1531.83 L2800.71 1536.53 L2834.12 1541.11 L2867.54 1545.56 L2900.82 1549.89 L2934.24 1554.10 L2967.53 1558.31 L3000.94 1562.39 L3034.23 1566.48 L3067.64 1570.44 L3100.93 1574.27 L3134.34 1578.11 L3167.75 1581.82 L3201.04 1585.53 L3234.45 1589.25 L3267.74 1592.84 L3301.16 1596.42 L3334.44 1599.89 L3367.86 1603.36 L3401.15 1606.82 L3434.56 1610.29 L3467.97 1613.63 L3501.26 1616.97 L3534.67 1620.19 L3567.96 1623.53 L3601.37 1626.74 L3634.66 1629.96 L3668.07 1633.06 L3701.36 1636.27 L3734.78 1639.37 L3768.06 1642.46 L3801.48 1645.56 L3801.48 1498.04 L3768.06 1495.69 L3734.78 1493.21 L3701.36 1490.86 L3668.07 1488.26 L3634.66 1485.79 L3601.37 1483.19 L3567.96 1480.72 L3534.67 1477.99 L3501.26 1475.39 L3467.97 1472.67 L3434.56 1469.95 L3401.15 1467.10 L3367.86 1464.26 L3334.44 1461.29 L3301.16 1458.32 L3267.74 1455.35 L3234.45 1452.25 L3201.04 1449.16 L3167.75 1445.94 L3134.34 1442.60 L3100.93 1439.26 L3067.64 1435.92 L3034.23 1432.33 L3000.94 1428.74 L2967.53 1425.15 L2934.24 1421.31 L2900.82 1417.48 L2867.54 1413.52 L2834.12 1409.56 L2800.71 1405.35 L2767.42 1401.02 L2734.01 1396.69 L2700.72 1392.11 L2667.31 1387.53 L2634.02 1382.70 L2600.61 1377.75 L2567.32 1372.68 L2533.91 1367.48 L2500.62 1362.04 L2467.20 1356.47 L2433.79 1350.65 L2400.50 1344.71 L2367.09 1338.52 L2333.80 1332.21 L2300.39 1325.65 L2267.10 1318.72 L2233.69 1311.67 L2200.40 1304.37 L2166.99 1296.69 L2133.57 1288.77 L2100.29 1280.61 L2066.87 1272.07 L2033.58 1263.28 L2000.17 1254.12 L1966.88 1244.72 L1933.47 1234.94 L1900.18 1224.79 L1866.77 1214.40 L1833.36 1203.51 L1800.07 1192.37 L1766.66 1180.86 L1733.37 1168.86 L1699.95 1156.60 L1666.67 1143.98 L1633.25 1130.86 L1599.96 1117.50 L1566.55 1103.64 L1533.26 1089.41 L1499.85 1074.93 L1466.44 1060.08 L1433.15 1044.98 L1399.74 1029.63 L1366.45 1014.16 L1333.04 998.57 L1299.75 982.73 L1266.33 966.89 L1233.05 950.68 L1199.63 934.34 L1166.22 917.51 L1132.93 900.43 L1099.52 882.86 L1066.23 864.79 L1032.82 845.98 L999.53 826.30 L966.12 805.76 L932.83 784.10 L899.42 761.09 L866.00 736.46 L832.71 709.85 L799.30 680.89 L766.01 649.34 L732.60 614.93 L699.31 577.56 L665.90 537.22 L632.61 492.79 L599.20 442.79 L565.91 385.00 L532.50 315.32 L499.08 226.59 L465.80 100.86 L465.80 100.86 Z" stroke-linejoin="round"/>
	</defs>
	<defs>
		<clipPath id="clipPath_ntuAxvDO">
			<use xlink:href="#path_qBHwXaqF"/>
		</clipPath>
	</defs>
	<use xlink:href="#path_qBHwXaqF" style="stroke:none;fill:#E94849;fill-opacity:0.30"/>
	<use xlink:href="#path_qBHwXaqF" style="fill:none;stroke:#E41A1C;stroke-opacity:0.30;stroke-width:17.28" clip-path="url(#clipPath_ntuAxvDO)"/>
	<path d=" M465.67 100.86 L499.08 246.64 L532.37 342.06 L565.79 415.94 L599.20 476.95 L632.49 529.42 L665.90 575.95 L699.19 618.03 L732.60 656.76 L765.89 692.40 L799.30 725.07 L832.59 754.77 L866.00 782.12 L899.42 807.37 L932.70 830.88 L966.12 853.16 L999.41 874.32 L1032.82 894.62 L1066.11 914.05 L1099.52 932.86 L1132.81 951.05 L1166.22 968.87 L1199.63 986.19 L1232.92 1003.27 L1266.33 1019.98 L1299.62 1036.56 L1333.04 1052.77 L1366.32 1068.86 L1399.74 1084.83 L1433.03 1100.54 L1466.44 1116.01 L1499.73 1131.23 L1533.14 1146.08 L1566.55 1160.69 L1599.84 1174.80 L1633.25 1188.66 L1666.54 1202.02 L1699.95 1215.02 L1733.24 1227.64 L1766.66 1239.89 L1799.94 1251.77 L1833.36 1263.28 L1866.77 1274.42 L1900.06 1285.18 L1933.47 1295.58 L1966.76 1305.73 L2000.17 1315.50 L2033.46 1324.91 L2066.87 1334.07 L2100.16 1342.85 L2133.57 1351.27 L2166.99 1359.44 L2200.28 1367.36 L2233.69 1374.91 L2266.98 1382.21 L2300.39 1389.26 L2333.68 1396.07 L2367.09 1402.63 L2400.38 1409.06 L2433.79 1415.13 L2467.08 1421.07 L2500.49 1426.88 L2533.91 1432.45 L2567.19 1437.90 L2600.61 1443.09 L2633.90 1448.29 L2667.31 1453.24 L2700.60 1458.07 L2734.01 1462.77 L2767.30 1467.35 L2800.71 1471.80 L2834.12 1476.14 L2867.41 1480.47 L2900.82 1484.55 L2934.11 1488.64 L2967.53 1492.60 L3000.81 1496.56 L3034.23 1500.39 L3067.52 1504.10 L3100.93 1507.69 L3134.34 1511.28 L3167.63 1514.87 L3201.04 1518.34 L3234.33 1521.68 L3267.74 1525.14 L3301.03 1528.36 L3334.44 1531.58 L3367.73 1534.80 L3401.15 1538.01 L3434.43 1541.11 L3467.85 1544.20 L3501.26 1547.17 L3534.55 1550.14 L3567.96 1553.11 L3601.25 1556.08 L3634.66 1558.93 L3667.95 1561.77 L3701.36 1564.62 L3734.65 1567.47 L3768.06 1570.19 L3801.48 1573.04" stroke-linejoin="round" style="fill:none;stroke:#E41A1C;stroke-width:8.64"/>
	<defs>
		<path id="path_CpHnIdQU" d="M465.80 100.86 L465.80 100.86 L499.08 389.82 L532.50 553.43 L565.91 669.01 L599.20 757.37 L632.61 829.03 L665.90 889.42 L699.31 941.52 L732.60 987.43 L766.01 1028.02 L799.30 1063.91 L832.71 1095.72 L866.00 1123.81 L899.42 1149.30 L932.83 1172.57 L966.12 1194.35 L999.53 1214.89 L1032.82 1234.57 L1066.23 1253.38 L1099.52 1271.57 L1132.93 1289.39 L1166.22 1306.72 L1199.63 1323.80 L1233.05 1340.50 L1266.33 1356.96 L1299.75 1373.30 L1333.04 1389.51 L1366.45 1405.47 L1399.74 1421.44 L1433.15 1437.28 L1466.44 1452.99 L1499.85 1468.46 L1533.26 1483.56 L1566.55 1498.41 L1599.96 1513.01 L1633.25 1527.12 L1666.67 1540.98 L1699.95 1554.47 L1733.37 1567.59 L1766.66 1580.34 L1800.07 1592.71 L1833.36 1604.72 L1866.77 1616.35 L1900.18 1627.61 L1933.47 1638.62 L1966.88 1649.27 L2000.17 1659.54 L2033.58 1669.44 L2066.87 1679.09 L2100.29 1688.37 L2133.57 1697.28 L2166.99 1705.95 L2200.40 1714.24 L2233.69 1722.16 L2267.10 1729.96 L2300.39 1737.38 L2333.80 1744.56 L2367.09 1751.49 L2400.50 1758.17 L2433.79 1764.61 L2467.20 1770.92 L2500.62 1776.98 L2533.91 1782.92 L2567.32 1788.74 L2600.61 1794.31 L2634.02 1799.75 L2667.31 1804.95 L2700.72 1810.15 L2734.01 1815.22 L2767.42 1820.05 L2800.71 1824.87 L2834.12 1829.58 L2867.54 1834.16 L2900.82 1838.61 L2934.24 1843.07 L2967.53 1847.40 L3000.94 1851.61 L3034.23 1855.81 L3067.64 1859.90 L3100.93 1863.86 L3134.34 1867.82 L3167.75 1871.78 L3201.04 1875.61 L3234.45 1879.45 L3267.74 1883.16 L3301.16 1886.88 L3334.44 1890.46 L3367.86 1894.05 L3401.15 1897.64 L3434.56 1901.23 L3467.97 1904.70 L3501.26 1908.16 L3534.67 1911.50 L3567.96 1914.97 L3601.37 1918.31 L3634.66 1921.65 L3668.07 1924.87 L3701.36 1928.21 L3734.78 1931.43 L3768.06 1934.64 L3801.48 1937.86 L3801.48 1761.39 L3768.06 1759.04 L3734.78 1756.56 L3701.36 1754.21 L3668.07 1751.74 L3634.66 1749.26 L3601.37 1746.66 L3567.96 1744.19 L3534.67 1741.46 L3501.26 1738.87 L3467.97 1736.14 L3434.56 1733.42 L3401.15 1730.57 L3367.86 1727.73 L3334.44 1724.88 L3301.16 1721.91 L3267.74 1718.94 L3234.45 1715.85 L3201.04 1712.63 L3167.75 1709.41 L3134.34 1706.19 L3100.93 1702.85 L3067.64 1699.39 L3034.23 1695.80 L3000.94 1692.21 L2967.53 1688.50 L2934.24 1684.79 L2900.82 1680.83 L2867.54 1676.86 L2834.12 1672.78 L2800.71 1668.57 L2767.42 1664.24 L2734.01 1659.79 L2700.72 1655.21 L2667.31 1650.51 L2634.02 1645.68 L2600.61 1640.61 L2567.32 1635.53 L2533.91 1630.21 L2500.62 1624.64 L2467.20 1618.95 L2433.79 1613.13 L2400.50 1607.07 L2367.09 1600.76 L2333.80 1594.32 L2300.39 1587.51 L2267.10 1580.58 L2233.69 1573.28 L2200.40 1565.86 L2166.99 1558.06 L2133.57 1549.89 L2100.29 1541.48 L2066.87 1532.82 L2033.58 1523.78 L2000.17 1514.50 L1966.88 1504.72 L1933.47 1494.70 L1900.18 1484.43 L1866.77 1473.66 L1833.36 1462.65 L1800.07 1451.26 L1766.66 1439.50 L1733.37 1427.38 L1699.95 1414.88 L1666.67 1402.01 L1633.25 1388.77 L1599.96 1375.28 L1566.55 1361.29 L1533.26 1347.06 L1499.85 1332.46 L1466.44 1317.73 L1433.15 1302.63 L1399.74 1287.54 L1366.45 1272.31 L1333.04 1257.09 L1299.75 1241.87 L1266.33 1226.52 L1233.05 1211.06 L1199.63 1195.46 L1166.22 1179.62 L1132.93 1163.53 L1099.52 1147.07 L1066.23 1130.12 L1032.82 1112.42 L999.53 1093.98 L966.12 1074.55 L932.83 1053.89 L899.42 1031.61 L866.00 1007.23 L832.71 980.38 L799.30 950.43 L766.01 916.40 L732.60 878.03 L699.31 834.84 L665.90 786.08 L632.61 729.78 L599.20 663.20 L565.91 581.27 L532.50 475.83 L499.08 330.30 L465.80 100.86 L465.80 100.86 Z" stroke-linejoin="round"/>
	</defs>
	<defs>
		<clipPath id="clipPath_CDlCAfZh">
			<use xlink:href="#path_CpHnIdQU"/>
		</clipPath>
	</defs>
	<use xlink:href="#path_CpHnIdQU" style="stroke:none;fill:#5F98C6;fill-opacity:0.30"/>
	<use xlink:href="#path_CpHnIdQU" style="fill:none;stroke:#377EB8;stroke-opacity:0.30;stroke-width:17.28" clip-path="url(#clipPath_CDlCAfZh)"/>
	<path d=" M465.67 100.86 L499.08 360.25 L532.37 514.94 L565.79 625.58 L599.20 710.72 L632.49 779.90 L665.90 838.18 L699.19 888.68 L732.60 933.23 L765.89 972.83 L799.30 1007.73 L832.59 1038.67 L866.00 1066.14 L899.42 1091.01 L932.70 1113.91 L966.12 1135.19 L999.41 1155.24 L1032.82 1174.18 L1066.11 1192.49 L1099.52 1210.07 L1132.81 1227.27 L1166.22 1243.97 L1199.63 1260.43 L1232.92 1276.52 L1266.33 1292.61 L1299.62 1308.45 L1333.04 1324.17 L1366.32 1339.76 L1399.74 1355.35 L1433.03 1370.95 L1466.44 1386.29 L1499.73 1401.39 L1533.14 1416.24 L1566.55 1430.84 L1599.84 1445.07 L1633.25 1458.93 L1666.54 1472.55 L1699.95 1485.67 L1733.24 1498.41 L1766.66 1510.91 L1799.94 1523.04 L1833.36 1534.67 L1866.77 1546.06 L1900.06 1557.07 L1933.47 1567.84 L1966.76 1578.11 L2000.17 1588.13 L2033.46 1597.79 L2066.87 1607.07 L2100.16 1616.10 L2133.57 1624.76 L2166.99 1633.18 L2200.28 1641.22 L2233.69 1649.02 L2266.98 1656.45 L2300.39 1663.62 L2333.68 1670.68 L2367.09 1677.36 L2400.38 1683.92 L2433.79 1690.11 L2467.08 1696.29 L2500.49 1702.11 L2533.91 1707.80 L2567.19 1713.37 L2600.61 1718.82 L2633.90 1724.02 L2667.31 1729.09 L2700.60 1734.04 L2734.01 1738.87 L2767.30 1743.57 L2800.71 1748.15 L2834.12 1752.60 L2867.41 1756.93 L2900.82 1761.14 L2934.11 1765.35 L2967.53 1769.43 L3000.81 1773.39 L3034.23 1777.23 L3067.52 1781.07 L3100.93 1784.78 L3134.34 1788.49 L3167.63 1792.08 L3201.04 1795.67 L3234.33 1799.13 L3267.74 1802.60 L3301.03 1805.94 L3334.44 1809.28 L3367.73 1812.50 L3401.15 1815.72 L3434.43 1818.93 L3467.85 1822.03 L3501.26 1825.12 L3534.55 1828.22 L3567.96 1831.19 L3601.25 1834.16 L3634.66 1837.13 L3667.95 1840.10 L3701.36 1842.94 L3734.65 1845.79 L3768.06 1848.64 L3801.48 1851.48" stroke-linejoin="round" style="fill:none;stroke:#377EB8;stroke-width:8.64"/>
	<line x1="465.80" y1="2489.19" x2="465.80" y2="100.86" style="stroke:#000000;stroke-width:5.76"/>
	<line x1="465.80" y1="2489.19" x2="425.82" y2="2489.19" style="stroke:#000000;stroke-width:5.76"/>
	<text x="405.78" y="2524.21" style="font-family:'Helvetica';font-size:99.99px;fill:#000000" text-anchor="end">0.4</text>
	<line x1="465.80" y1="2091.19" x2="425.82" y2="2091.19" style="stroke:#000000;stroke-width:5.76"/>
	<text x="405.78" y="2126.22" style="font-family:'Helvetica';font-size:99.99px;fill:#000000" text-anchor="end">0.5</text>
	<line x1="465.80" y1="1693.08" x2="425.82" y2="1693.08" style="stroke:#000000;stroke-width:5.76"/>
	<text x="405.78" y="1728.11" style="font-family:'Helvetica';font-size:99.99px;fill:#000000" text-anchor="end">0.6</text>
	<line x1="465.80" y1="1294.96" x2="425.82" y2="1294.96" style="stroke:#000000;stroke-width:5.76"/>
	<text x="405.78" y="1329.99" style="font-family:'Helvetica';font-size:99.99px;fill:#000000" text-anchor="end">0.7</text>
	<line x1="465.80" y1="896.97" x2="425.82" y2="896.97" style="stroke:#000000;stroke-width:5.76"/>
	<text x="405.78" y="932.00" style="font-family:'Helvetica';font-size:99.99px;fill:#000000" text-anchor="end">0.8</text>
	<line x1="465.80" y1="498.85" x2="425.82" y2="498.85" style="stroke:#000000;stroke-width:5.76"/>
	<text x="405.78" y="533.88" style="font-family:'Helvetica';font-size:99.99px;fill:#000000" text-anchor="end">0.9</text>
	<line x1="465.80" y1="100.86" x2="425.82" y2="100.86" style="stroke:#000000;stroke-width:5.76"/>
	<text x="405.78" y="135.89" style="font-family:'Helvetica';font-size:99.99px;fill:#000000" text-anchor="end">1.0</text>
	<text x="190.71" y="1294.96" style="font-family:'Helvetica';font-size:99.99px;fill:#000000" transform="rotate(-90 190.71,1294.96)" text-anchor="middle">Marginal Relative Survival</text>
	<line x1="465.80" y1="2489.19" x2="3859.02" y2="2489.19" style="stroke:#000000;stroke-width:5.76"/>
	<line x1="465.80" y1="2489.19" x2="465.80" y2="2529.16" style="stroke:#000000;stroke-width:5.76"/>
	<text x="465.80" y="2619.14" style="font-family:'Helvetica';font-size:99.99px;fill:#000000" text-anchor="middle">0</text>
	<line x1="1132.93" y1="2489.19" x2="1132.93" y2="2529.16" style="stroke:#000000;stroke-width:5.76"/>
	<text x="1132.93" y="2619.14" style="font-family:'Helvetica';font-size:99.99px;fill:#000000" text-anchor="middle">1</text>
	<line x1="1800.07" y1="2489.19" x2="1800.07" y2="2529.16" style="stroke:#000000;stroke-width:5.76"/>
	<text x="1800.07" y="2619.14" style="font-family:'Helvetica';font-size:99.99px;fill:#000000" text-anchor="middle">2</text>
	<line x1="2467.20" y1="2489.19" x2="2467.20" y2="2529.16" style="stroke:#000000;stroke-width:5.76"/>
	<text x="2467.20" y="2619.14" style="font-family:'Helvetica';font-size:99.99px;fill:#000000" text-anchor="middle">3</text>
	<line x1="3134.34" y1="2489.19" x2="3134.34" y2="2529.16" style="stroke:#000000;stroke-width:5.76"/>
	<text x="3134.34" y="2619.14" style="font-family:'Helvetica';font-size:99.99px;fill:#000000" text-anchor="middle">4</text>
	<line x1="3801.48" y1="2489.19" x2="3801.48" y2="2529.16" style="stroke:#000000;stroke-width:5.76"/>
	<text x="3801.48" y="2619.14" style="font-family:'Helvetica';font-size:99.99px;fill:#000000" text-anchor="middle">5</text>
	<text x="2162.41" y="2729.16" style="font-family:'Helvetica';font-size:99.99px;fill:#000000" text-anchor="middle">Years from diagnosis</text>
</svg>
