<?xml version="1.0" encoding="UTF-8" standalone="no"?>
<!-- This is a Stata 18.5 generated SVG file (http://www.stata.com) -->

<svg version="1.1" width="700px" height="509px" viewBox="0 0 3960 2880" xmlns="http://www.w3.org/2000/svg" xmlns:xlink="http://www.w3.org/1999/xlink">
	<desc>Stata Graph - Graph</desc>
	<rect x="0" y="0" width="3960" height="2880" style="fill:#FFFFFF;stroke:none"/>
	<rect x="0.00" y="0.00" width="3959.88" height="2880.00" style="fill:#FFFFFF"/>
	<rect x="2.88" y="2.88" width="3954.12" height="2874.24" style="fill:none;stroke:#FFFFFF;stroke-width:5.76"/>
	<line x1="500.82" y1="2489.19" x2="3859.02" y2="2489.19" style="stroke:#C0C0C0;stroke-opacity:0.50;stroke-width:5.76"/>
	<line x1="500.82" y1="1892.07" x2="3859.02" y2="1892.07" style="stroke:#C0C0C0;stroke-opacity:0.50;stroke-width:5.76"/>
	<line x1="500.82" y1="1294.96" x2="3859.02" y2="1294.96" style="stroke:#C0C0C0;stroke-opacity:0.50;stroke-width:5.76"/>
	<line x1="500.82" y1="697.85" x2="3859.02" y2="697.85" style="stroke:#C0C0C0;stroke-opacity:0.50;stroke-width:5.76"/>
	<line x1="500.82" y1="100.86" x2="3859.02" y2="100.86" style="stroke:#C0C0C0;stroke-opacity:0.50;stroke-width:5.76"/>
	<line x1="500.82" y1="2489.19" x2="500.82" y2="100.86" style="stroke:#C0C0C0;stroke-opacity:0.50;stroke-width:5.76"/>
	<line x1="1325.98" y1="2489.19" x2="1325.98" y2="100.86" style="stroke:#C0C0C0;stroke-opacity:0.50;stroke-width:5.76"/>
	<line x1="2151.15" y1="2489.19" x2="2151.15" y2="100.86" style="stroke:#C0C0C0;stroke-opacity:0.50;stroke-width:5.76"/>
	<line x1="2976.31" y1="2489.19" x2="2976.31" y2="100.86" style="stroke:#C0C0C0;stroke-opacity:0.50;stroke-width:5.76"/>
	<line x1="3801.48" y1="2489.19" x2="3801.48" y2="100.86" style="stroke:#C0C0C0;stroke-opacity:0.50;stroke-width:5.76"/>
	<defs>
		<path id="path_xqPxbMhe" d="M542.03 1987.98 L542.03 1987.98 L583.23 2041.44 L624.57 2072.26 L665.78 2083.89 L707.11 2080.80 L748.32 2070.15 L789.65 2057.53 L830.86 2045.40 L872.07 2034.51 L913.40 2024.74 L954.61 2016.20 L995.94 2008.40 L1037.15 2001.22 L1078.36 1994.42 L1119.69 1987.86 L1160.90 1981.67 L1202.23 1975.73 L1243.44 1969.91 L1284.65 1964.35 L1325.98 1959.02 L1367.19 1953.83 L1408.52 1948.88 L1449.73 1944.05 L1490.94 1939.35 L1532.27 1934.77 L1573.48 1930.31 L1614.81 1925.98 L1656.02 1921.77 L1697.23 1917.69 L1738.56 1913.73 L1779.77 1909.77 L1821.11 1906.06 L1862.31 1902.34 L1903.52 1898.76 L1944.86 1895.17 L1986.06 1891.70 L2027.40 1888.24 L2068.61 1884.90 L2109.81 1881.68 L2151.15 1878.46 L2192.36 1875.24 L2233.69 1872.27 L2274.90 1869.18 L2316.11 1866.21 L2357.44 1863.24 L2398.65 1860.39 L2439.98 1857.55 L2481.19 1854.70 L2522.52 1851.98 L2563.73 1849.25 L2604.94 1846.53 L2646.27 1843.93 L2687.48 1841.33 L2728.81 1838.73 L2770.02 1836.26 L2811.23 1833.78 L2852.56 1831.31 L2893.77 1828.83 L2935.10 1826.48 L2976.31 1824.13 L3017.52 1821.78 L3058.85 1819.43 L3100.06 1817.20 L3141.39 1814.97 L3182.60 1812.75 L3223.81 1810.52 L3265.14 1808.29 L3306.35 1806.19 L3347.69 1803.96 L3388.89 1801.86 L3430.10 1799.75 L3471.44 1797.77 L3512.64 1795.67 L3553.98 1793.69 L3595.19 1791.71 L3636.39 1789.60 L3677.73 1787.75 L3718.94 1785.77 L3760.27 1783.79 L3801.48 1781.93 L3801.48 255.18 L3760.27 257.41 L3718.94 259.76 L3677.73 262.11 L3636.39 264.46 L3595.19 266.94 L3553.98 269.29 L3512.64 271.76 L3471.44 274.36 L3430.10 276.96 L3388.89 279.56 L3347.69 282.16 L3306.35 284.88 L3265.14 287.73 L3223.81 290.45 L3182.60 293.30 L3141.39 296.27 L3100.06 299.24 L3058.85 302.21 L3017.52 305.30 L2976.31 308.52 L2935.10 311.74 L2893.77 314.95 L2852.56 318.29 L2811.23 321.64 L2770.02 325.23 L2728.81 328.69 L2687.48 332.40 L2646.27 336.12 L2604.94 339.95 L2563.73 343.79 L2522.52 347.75 L2481.19 351.83 L2439.98 356.04 L2398.65 360.37 L2357.44 364.83 L2316.11 369.28 L2274.90 373.98 L2233.69 378.69 L2192.36 383.64 L2151.15 388.71 L2109.81 393.91 L2068.61 399.35 L2027.40 404.92 L1986.06 410.62 L1944.86 416.56 L1903.52 422.74 L1862.31 429.05 L1821.11 435.61 L1779.77 442.54 L1738.56 449.60 L1697.23 457.02 L1656.02 464.70 L1614.81 472.86 L1573.48 481.28 L1532.27 490.07 L1490.94 499.35 L1449.73 509.12 L1408.52 519.39 L1367.19 530.29 L1325.98 541.79 L1284.65 553.92 L1243.44 566.92 L1202.23 580.90 L1160.90 595.87 L1119.69 611.96 L1078.36 629.41 L1037.15 648.59 L995.94 669.76 L954.61 694.01 L913.40 722.72 L872.07 757.74 L830.86 802.17 L789.65 860.34 L748.32 939.04 L707.11 1047.08 L665.78 1186.80 L624.57 1351.64 L583.23 1526.13 L542.03 1703.84 L542.03 1987.98 Z" stroke-linejoin="round"/>
	</defs>
	<defs>
		<clipPath id="clipPath_NAZDRVSj">
			<use xlink:href="#path_xqPxbMhe"/>
		</clipPath>
	</defs>
	<use xlink:href="#path_xqPxbMhe" style="stroke:none;fill:#E94849;fill-opacity:0.30"/>
	<use xlink:href="#path_xqPxbMhe" style="fill:none;stroke:#E41A1C;stroke-opacity:0.30;stroke-width:17.28" clip-path="url(#clipPath_NAZDRVSj)"/>
	<path d=" M542.03 1845.91 L583.23 1783.79 L624.44 1712.01 L665.78 1635.41 L706.98 1564.00 L748.32 1504.72 L789.53 1458.93 L830.73 1423.79 L872.07 1396.19 L913.28 1373.79 L954.61 1355.10 L995.82 1339.14 L1037.03 1324.91 L1078.36 1312.04 L1119.57 1300.03 L1160.90 1288.77 L1202.11 1278.38 L1243.32 1268.48 L1284.65 1259.20 L1325.86 1250.41 L1367.19 1242.12 L1408.40 1234.20 L1449.61 1226.65 L1490.94 1219.35 L1532.15 1212.42 L1573.48 1205.86 L1614.69 1199.42 L1656.02 1193.36 L1697.23 1187.42 L1738.44 1181.73 L1779.77 1176.28 L1820.98 1170.96 L1862.31 1165.76 L1903.52 1160.81 L1944.73 1155.86 L1986.06 1151.16 L2027.27 1146.58 L2068.61 1142.25 L2109.81 1137.92 L2151.02 1133.71 L2192.36 1129.50 L2233.56 1125.54 L2274.90 1121.58 L2316.11 1117.74 L2357.31 1114.03 L2398.65 1110.44 L2439.86 1106.85 L2481.19 1103.39 L2522.40 1099.92 L2563.61 1096.58 L2604.94 1093.37 L2646.15 1090.02 L2687.48 1086.93 L2728.69 1083.84 L2769.90 1080.74 L2811.23 1077.77 L2852.44 1074.93 L2893.77 1071.96 L2934.98 1069.11 L2976.19 1066.39 L3017.52 1063.66 L3058.73 1060.94 L3100.06 1058.22 L3141.27 1055.62 L3182.48 1053.15 L3223.81 1050.55 L3265.02 1048.07 L3306.35 1045.60 L3347.56 1043.12 L3388.77 1040.77 L3430.10 1038.42 L3471.31 1036.07 L3512.64 1033.84 L3553.85 1031.61 L3595.19 1029.38 L3636.39 1027.16 L3677.60 1024.93 L3718.94 1022.83 L3760.14 1020.72 L3801.48 1018.62" stroke-linejoin="round" style="fill:none;stroke:#E41A1C;stroke-width:8.64"/>
	<line x1="500.82" y1="2489.19" x2="500.82" y2="100.86" style="stroke:#000000;stroke-width:5.76"/>
	<line x1="500.82" y1="2489.19" x2="460.72" y2="2489.19" style="stroke:#000000;stroke-width:5.76"/>
	<text x="440.80" y="2524.21" style="font-family:'Helvetica';font-size:99.99px;fill:#000000" text-anchor="end">-0.1</text>
	<line x1="500.82" y1="1892.07" x2="460.72" y2="1892.07" style="stroke:#000000;stroke-width:5.76"/>
	<text x="440.80" y="1927.10" style="font-family:'Helvetica';font-size:99.99px;fill:#000000" text-anchor="end">0.0</text>
	<line x1="500.82" y1="1294.96" x2="460.72" y2="1294.96" style="stroke:#000000;stroke-width:5.76"/>
	<text x="440.80" y="1329.99" style="font-family:'Helvetica';font-size:99.99px;fill:#000000" text-anchor="end">0.1</text>
	<line x1="500.82" y1="697.85" x2="460.72" y2="697.85" style="stroke:#000000;stroke-width:5.76"/>
	<text x="440.80" y="732.88" style="font-family:'Helvetica';font-size:99.99px;fill:#000000" text-anchor="end">0.2</text>
	<line x1="500.82" y1="100.86" x2="460.72" y2="100.86" style="stroke:#000000;stroke-width:5.76"/>
	<text x="440.80" y="135.89" style="font-family:'Helvetica';font-size:99.99px;fill:#000000" text-anchor="end">0.3</text>
	<text x="190.71" y="1294.96" style="font-family:'Helvetica';font-size:99.99px;fill:#000000" transform="rotate(-90 190.71,1294.96)" text-anchor="middle">Difference in CIF</text>
	<line x1="500.82" y1="2489.19" x2="3859.02" y2="2489.19" style="stroke:#000000;stroke-width:5.76"/>
	<line x1="500.82" y1="2489.19" x2="500.82" y2="2529.16" style="stroke:#000000;stroke-width:5.76"/>
	<text x="500.82" y="2619.14" style="font-family:'Helvetica';font-size:99.99px;fill:#000000" text-anchor="middle">0</text>
	<line x1="1325.98" y1="2489.19" x2="1325.98" y2="2529.16" style="stroke:#000000;stroke-width:5.76"/>
	<text x="1325.98" y="2619.14" style="font-family:'Helvetica';font-size:99.99px;fill:#000000" text-anchor="middle">2</text>
	<line x1="2151.15" y1="2489.19" x2="2151.15" y2="2529.16" style="stroke:#000000;stroke-width:5.76"/>
	<text x="2151.15" y="2619.14" style="font-family:'Helvetica';font-size:99.99px;fill:#000000" text-anchor="middle">4</text>
	<line x1="2976.31" y1="2489.19" x2="2976.31" y2="2529.16" style="stroke:#000000;stroke-width:5.76"/>
	<text x="2976.31" y="2619.14" style="font-family:'Helvetica';font-size:99.99px;fill:#000000" text-anchor="middle">6</text>
	<line x1="3801.48" y1="2489.19" x2="3801.48" y2="2529.16" style="stroke:#000000;stroke-width:5.76"/>
	<text x="3801.48" y="2619.14" style="font-family:'Helvetica';font-size:99.99px;fill:#000000" text-anchor="middle">8</text>
	<text x="2179.98" y="2729.16" style="font-family:'Helvetica';font-size:99.99px;fill:#000000" text-anchor="middle">Years since transplantation</text>
</svg>
