<?xml version="1.0" encoding="UTF-8" standalone="no"?>
<!-- This is a Stata 18.5 generated SVG file (http://www.stata.com) -->

<svg version="1.1" width="700px" height="509px" viewBox="0 0 3960 2880" xmlns="http://www.w3.org/2000/svg" xmlns:xlink="http://www.w3.org/1999/xlink">
	<desc>Stata Graph - Graph</desc>
	<rect x="0" y="0" width="3960" height="2880" style="fill:#FFFFFF;stroke:none"/>
	<rect x="0.00" y="0.00" width="3959.88" height="2880.00" style="fill:#FFFFFF"/>
	<rect x="2.88" y="2.88" width="3954.12" height="2874.24" style="fill:none;stroke:#FFFFFF;stroke-width:5.76"/>
	<line x1="465.80" y1="2489.19" x2="3859.02" y2="2489.19" style="stroke:#C0C0C0;stroke-opacity:0.50;stroke-width:5.76"/>
	<line x1="465.80" y1="1693.08" x2="3859.02" y2="1693.08" style="stroke:#C0C0C0;stroke-opacity:0.50;stroke-width:5.76"/>
	<line x1="465.80" y1="896.97" x2="3859.02" y2="896.97" style="stroke:#C0C0C0;stroke-opacity:0.50;stroke-width:5.76"/>
	<line x1="465.80" y1="100.86" x2="3859.02" y2="100.86" style="stroke:#C0C0C0;stroke-opacity:0.50;stroke-width:5.76"/>
	<line x1="465.80" y1="2489.19" x2="465.80" y2="100.86" style="stroke:#C0C0C0;stroke-opacity:0.50;stroke-width:5.76"/>
	<line x1="1299.75" y1="2489.19" x2="1299.75" y2="100.86" style="stroke:#C0C0C0;stroke-opacity:0.50;stroke-width:5.76"/>
	<line x1="2133.57" y1="2489.19" x2="2133.57" y2="100.86" style="stroke:#C0C0C0;stroke-opacity:0.50;stroke-width:5.76"/>
	<line x1="2967.53" y1="2489.19" x2="2967.53" y2="100.86" style="stroke:#C0C0C0;stroke-opacity:0.50;stroke-width:5.76"/>
	<line x1="3801.48" y1="2489.19" x2="3801.48" y2="100.86" style="stroke:#C0C0C0;stroke-opacity:0.50;stroke-width:5.76"/>
	<defs>
		<path id="path_sycBbhVs" d="M465.80 2489.19 L465.80 2489.19 L507.50 2433.62 L549.20 2347.24 L590.91 2241.06 L632.61 2121.64 L674.31 2006.17 L716.02 1906.92 L757.60 1827.97 L799.30 1765.23 L841.01 1714.61 L882.71 1672.78 L924.41 1637.39 L966.12 1606.57 L1007.82 1579.10 L1049.52 1553.85 L1091.23 1530.22 L1132.93 1507.94 L1174.64 1486.90 L1216.34 1466.98 L1258.04 1448.04 L1299.75 1429.85 L1341.45 1412.53 L1383.15 1395.82 L1424.73 1379.86 L1466.44 1364.51 L1508.14 1349.66 L1549.85 1335.43 L1591.55 1321.57 L1633.25 1308.20 L1674.96 1295.21 L1716.66 1282.71 L1758.36 1270.46 L1800.07 1258.70 L1841.77 1247.19 L1883.48 1235.93 L1925.18 1225.04 L1966.88 1214.52 L2008.59 1204.13 L2050.29 1194.10 L2091.99 1184.20 L2133.57 1174.55 L2175.28 1165.27 L2216.98 1155.98 L2258.69 1147.07 L2300.39 1138.29 L2342.09 1129.63 L2383.80 1121.21 L2425.50 1112.92 L2467.20 1104.87 L2508.91 1096.95 L2550.61 1089.16 L2592.32 1081.49 L2634.02 1073.94 L2675.72 1066.63 L2717.43 1059.33 L2759.13 1052.28 L2800.71 1045.23 L2842.41 1038.42 L2884.12 1031.61 L2925.82 1024.93 L2967.53 1018.37 L3009.23 1011.94 L3050.93 1005.50 L3092.64 999.19 L3134.34 993.00 L3176.04 986.94 L3217.75 981.00 L3259.45 975.06 L3301.16 969.12 L3342.86 963.42 L3384.56 957.73 L3426.27 952.04 L3467.97 946.47 L3509.55 941.02 L3551.25 935.58 L3592.96 930.26 L3634.66 924.94 L3676.37 919.74 L3718.07 914.54 L3759.77 909.47 L3801.48 904.39 L3801.48 132.05 L3759.77 140.21 L3718.07 148.50 L3676.37 156.92 L3634.66 165.34 L3592.96 173.87 L3551.25 182.41 L3509.55 191.08 L3467.97 199.86 L3426.27 208.65 L3384.56 217.56 L3342.86 226.59 L3301.16 235.75 L3259.45 244.91 L3217.75 254.19 L3176.04 263.60 L3134.34 273.00 L3092.64 282.65 L3050.93 292.31 L3009.23 302.08 L2967.53 311.98 L2925.82 322.01 L2884.12 332.16 L2842.41 342.43 L2800.71 352.82 L2759.13 363.34 L2717.43 373.98 L2675.72 384.75 L2634.02 395.76 L2592.32 406.78 L2550.61 418.04 L2508.91 429.55 L2467.20 441.18 L2425.50 452.94 L2383.80 464.82 L2342.09 477.07 L2300.39 489.45 L2258.69 501.95 L2216.98 514.82 L2175.28 527.81 L2133.57 541.18 L2091.99 554.79 L2050.29 568.53 L2008.59 582.76 L1966.88 597.24 L1925.18 611.96 L1883.48 627.06 L1841.77 642.65 L1800.07 658.49 L1758.36 674.95 L1716.66 691.66 L1674.96 708.99 L1633.25 726.81 L1591.55 745.25 L1549.85 764.30 L1508.14 783.98 L1466.44 804.40 L1424.73 825.69 L1383.15 847.84 L1341.45 870.86 L1299.75 894.99 L1258.04 920.36 L1216.34 946.96 L1174.64 974.93 L1132.93 1004.51 L1091.23 1035.94 L1049.52 1069.48 L1007.82 1105.12 L966.12 1143.98 L924.41 1187.29 L882.71 1237.17 L841.01 1296.07 L799.30 1368.10 L757.60 1458.44 L716.02 1574.27 L674.31 1721.05 L632.61 1891.33 L590.91 2067.56 L549.20 2230.66 L507.50 2371.99 L465.80 2489.19 L465.80 2489.19 Z" stroke-linejoin="round"/>
	</defs>
	<defs>
		<clipPath id="clipPath_LrKBdHmn">
			<use xlink:href="#path_sycBbhVs"/>
		</clipPath>
	</defs>
	<use xlink:href="#path_sycBbhVs" style="stroke:none;fill:#E94849;fill-opacity:0.30"/>
	<use xlink:href="#path_sycBbhVs" style="fill:none;stroke:#E41A1C;stroke-opacity:0.30;stroke-width:17.28" clip-path="url(#clipPath_LrKBdHmn)"/>
	<path d=" M465.67 2489.31 L507.38 2408.50 L549.08 2297.61 L590.78 2165.57 L632.49 2020.03 L674.19 1879.45 L715.89 1758.42 L757.60 1662.51 L799.30 1586.90 L841.01 1526.26 L882.71 1476.51 L924.41 1434.31 L966.12 1397.68 L1007.82 1364.88 L1049.52 1334.69 L1091.10 1306.47 L1132.81 1279.86 L1174.51 1254.86 L1216.21 1231.10 L1257.92 1208.46 L1299.62 1186.92 L1341.33 1166.38 L1383.03 1146.70 L1424.73 1127.89 L1466.44 1109.70 L1508.14 1092.13 L1549.85 1075.30 L1591.55 1058.96 L1633.25 1043.25 L1674.96 1028.02 L1716.66 1013.17 L1758.24 998.82 L1799.94 984.83 L1841.65 971.22 L1883.35 957.98 L1925.06 944.98 L1966.76 932.49 L2008.46 920.11 L2050.17 908.11 L2091.87 896.35 L2133.57 884.96 L2175.28 873.70 L2216.98 862.69 L2258.69 851.92 L2300.39 841.28 L2342.09 830.88 L2383.80 820.74 L2425.50 810.71 L2467.08 800.94 L2508.78 791.28 L2550.49 781.75 L2592.19 772.47 L2633.90 763.19 L2675.60 754.16 L2717.30 745.25 L2759.01 736.46 L2800.71 727.92 L2842.41 719.38 L2884.12 710.97 L2925.82 702.67 L2967.53 694.51 L3009.23 686.46 L3050.93 678.42 L3092.64 670.62 L3134.34 662.83 L3175.92 655.15 L3217.62 647.60 L3259.33 640.18 L3301.03 632.75 L3342.74 625.45 L3384.44 618.15 L3426.14 611.10 L3467.85 604.04 L3509.55 596.99 L3551.25 590.06 L3592.96 583.25 L3634.66 576.45 L3676.37 569.76 L3718.07 563.08 L3759.77 556.52 L3801.48 549.96" stroke-linejoin="round" style="fill:none;stroke:#E41A1C;stroke-width:8.64"/>
	<line x1="465.80" y1="2489.19" x2="465.80" y2="100.86" style="stroke:#000000;stroke-width:5.76"/>
	<line x1="465.80" y1="2489.19" x2="425.82" y2="2489.19" style="stroke:#000000;stroke-width:5.76"/>
	<text x="405.78" y="2524.21" style="font-family:'Helvetica';font-size:99.99px;fill:#000000" text-anchor="end">0.0</text>
	<line x1="465.80" y1="1693.08" x2="425.82" y2="1693.08" style="stroke:#000000;stroke-width:5.76"/>
	<text x="405.78" y="1728.11" style="font-family:'Helvetica';font-size:99.99px;fill:#000000" text-anchor="end">0.1</text>
	<line x1="465.80" y1="896.97" x2="425.82" y2="896.97" style="stroke:#000000;stroke-width:5.76"/>
	<text x="405.78" y="932.00" style="font-family:'Helvetica';font-size:99.99px;fill:#000000" text-anchor="end">0.2</text>
	<line x1="465.80" y1="100.86" x2="425.82" y2="100.86" style="stroke:#000000;stroke-width:5.76"/>
	<text x="405.78" y="135.89" style="font-family:'Helvetica';font-size:99.99px;fill:#000000" text-anchor="end">0.3</text>
	<text x="190.71" y="1294.96" style="font-family:'Helvetica';font-size:99.99px;fill:#000000" transform="rotate(-90 190.71,1294.96)" text-anchor="middle">CIF</text>
	<line x1="465.80" y1="2489.19" x2="3859.02" y2="2489.19" style="stroke:#000000;stroke-width:5.76"/>
	<line x1="465.80" y1="2489.19" x2="465.80" y2="2529.16" style="stroke:#000000;stroke-width:5.76"/>
	<text x="465.80" y="2619.14" style="font-family:'Helvetica';font-size:99.99px;fill:#000000" text-anchor="middle">0</text>
	<line x1="1299.75" y1="2489.19" x2="1299.75" y2="2529.16" style="stroke:#000000;stroke-width:5.76"/>
	<text x="1299.75" y="2619.14" style="font-family:'Helvetica';font-size:99.99px;fill:#000000" text-anchor="middle">2</text>
	<line x1="2133.57" y1="2489.19" x2="2133.57" y2="2529.16" style="stroke:#000000;stroke-width:5.76"/>
	<text x="2133.57" y="2619.14" style="font-family:'Helvetica';font-size:99.99px;fill:#000000" text-anchor="middle">4</text>
	<line x1="2967.53" y1="2489.19" x2="2967.53" y2="2529.16" style="stroke:#000000;stroke-width:5.76"/>
	<text x="2967.53" y="2619.14" style="font-family:'Helvetica';font-size:99.99px;fill:#000000" text-anchor="middle">6</text>
	<line x1="3801.48" y1="2489.19" x2="3801.48" y2="2529.16" style="stroke:#000000;stroke-width:5.76"/>
	<text x="3801.48" y="2619.14" style="font-family:'Helvetica';font-size:99.99px;fill:#000000" text-anchor="middle">8</text>
	<text x="2162.41" y="2729.16" style="font-family:'Helvetica';font-size:99.99px;fill:#000000" text-anchor="middle">Years since transplantation</text>
</svg>
