<?xml version="1.0" encoding="UTF-8" standalone="no"?>
<!-- This is a Stata 18.5 generated SVG file (http://www.stata.com) -->

<svg version="1.1" width="5.500in" height="4.000in" viewBox="0 0 3960 2880" xmlns="http://www.w3.org/2000/svg" xmlns:xlink="http://www.w3.org/1999/xlink">
	<desc>Stata Graph - h</desc>
	<rect x="0" y="0" width="3960" height="2880" style="fill:#FFFFFF;stroke:none"/>
	<rect x="0.00" y="0.00" width="3959.88" height="2880.00" style="fill:#FFFFFF"/>
	<rect x="2.88" y="2.88" width="3954.12" height="2874.24" style="fill:none;stroke:#FFFFFF;stroke-width:5.76"/>
	<line x1="307.40" y1="2489.19" x2="3859.02" y2="2489.19" style="stroke:#C0C0C0;stroke-width:5.76"/>
	<line x1="307.40" y1="1892.07" x2="3859.02" y2="1892.07" style="stroke:#C0C0C0;stroke-width:5.76"/>
	<line x1="307.40" y1="1294.96" x2="3859.02" y2="1294.96" style="stroke:#C0C0C0;stroke-width:5.76"/>
	<line x1="307.40" y1="697.85" x2="3859.02" y2="697.85" style="stroke:#C0C0C0;stroke-width:5.76"/>
	<line x1="307.40" y1="100.86" x2="3859.02" y2="100.86" style="stroke:#C0C0C0;stroke-width:5.76"/>
	<line x1="307.40" y1="2489.19" x2="307.40" y2="100.86" style="stroke:#C0C0C0;stroke-width:5.76"/>
	<line x1="1006.21" y1="2489.19" x2="1006.21" y2="100.86" style="stroke:#C0C0C0;stroke-width:5.76"/>
	<line x1="1705.03" y1="2489.19" x2="1705.03" y2="100.86" style="stroke:#C0C0C0;stroke-width:5.76"/>
	<line x1="2403.84" y1="2489.19" x2="2403.84" y2="100.86" style="stroke:#C0C0C0;stroke-width:5.76"/>
	<line x1="3102.66" y1="2489.19" x2="3102.66" y2="100.86" style="stroke:#C0C0C0;stroke-width:5.76"/>
	<line x1="3801.48" y1="2489.19" x2="3801.48" y2="100.86" style="stroke:#C0C0C0;stroke-width:5.76"/>
	<path d=" M342.29 354.68 L377.31 766.04 L412.21 1251.77 L447.11 1484.18 L482.13 1591.35 L517.03 1635.78 L551.92 1655.21 L586.95 1677.98 L621.84 1703.10 L656.74 1732.93 L691.76 1761.02 L726.66 1789.48 L761.56 1817.94 L796.58 1846.04 L831.48 1872.52 L866.37 1896.78 L901.40 1919.42 L936.29 1940.34 L971.31 1959.77 L1006.21 1965.71 L1041.11 1982.78 L1076.13 1998.75 L1111.03 2013.72 L1145.93 2027.83 L1180.95 2041.20 L1215.84 2053.82 L1250.74 2065.70 L1285.76 2076.96 L1320.66 2087.60 L1355.56 2087.23 L1390.58 2096.89 L1425.48 2106.04 L1460.37 2114.58 L1495.40 2122.50 L1530.29 2130.05 L1565.19 2137.11 L1600.21 2143.66 L1635.11 2149.85 L1670.01 2155.67 L1705.03 2145.03 L1739.93 2150.22 L1774.82 2155.17 L1809.84 2159.75 L1844.74 2164.21 L1879.76 2168.42 L1914.66 2172.38 L1949.56 2176.09 L1984.58 2179.68 L2019.48 2183.02 L2054.37 2165.69 L2089.40 2168.66 L2124.29 2171.63 L2159.19 2174.48 L2194.21 2177.08 L2229.11 2179.68 L2264.01 2182.03 L2299.03 2184.38 L2333.93 2186.61 L2368.82 2188.71 L2403.84 2189.21 L2438.74 2191.06 L2473.64 2193.04 L2508.66 2194.77 L2543.56 2196.51 L2578.46 2198.12 L2613.48 2199.72 L2648.37 2201.21 L2683.27 2202.70 L2718.29 2204.06 L2753.19 2193.04 L2788.21 2194.28 L2823.11 2195.64 L2858.01 2196.75 L2893.03 2197.99 L2927.93 2199.11 L2962.82 2200.22 L2997.84 2201.21 L3032.74 2202.20 L3067.64 2203.19 L3102.66 2183.76 L3137.56 2184.75 L3172.46 2185.62 L3207.48 2186.36 L3242.37 2187.23 L3277.27 2188.09 L3312.29 2188.83 L3347.19 2189.58 L3382.09 2190.32 L3417.11 2190.94 L3452.01 2164.83 L3486.90 2165.57 L3521.93 2166.19 L3556.82 2166.81 L3591.72 2167.43 L3626.74 2167.92 L3661.64 2168.54 L3696.66 2169.03 L3731.56 2169.65 L3766.46 2170.15 L3801.48 2170.64" stroke-linejoin="round" style="fill:none;stroke:#E41A1C;stroke-width:8.64"/>
	<path d=" M342.29 546.50 L377.31 780.52 L412.21 1221.57 L447.11 1455.72 L482.13 1573.53 L517.03 1628.85 L551.92 1657.68 L586.95 1689.36 L621.84 1723.03 L656.74 1756.07 L691.76 1791.09 L726.66 1825.86 L761.56 1859.90 L796.58 1893.19 L831.48 1924.13 L866.37 1952.59 L901.40 1978.82 L936.29 2003.08 L971.31 2025.48 L1006.21 2036.99 L1041.11 2056.42 L1076.13 2074.49 L1111.03 2091.44 L1145.93 2107.28 L1180.95 2122.26 L1215.84 2136.12 L1250.74 2149.36 L1285.76 2161.73 L1320.66 2173.37 L1355.56 2178.56 L1390.58 2188.96 L1425.48 2198.86 L1460.37 2208.02 L1495.40 2216.56 L1530.29 2224.48 L1565.19 2232.02 L1600.21 2238.95 L1635.11 2245.51 L1670.01 2251.70 L1705.03 2247.62 L1739.93 2253.06 L1774.82 2258.26 L1809.84 2262.96 L1844.74 2267.54 L1879.76 2271.87 L1914.66 2275.96 L1949.56 2279.67 L1984.58 2283.38 L2019.48 2286.72 L2054.37 2274.10 L2089.40 2277.19 L2124.29 2280.17 L2159.19 2282.89 L2194.21 2285.49 L2229.11 2288.09 L2264.01 2290.44 L2299.03 2292.66 L2333.93 2294.89 L2368.82 2296.87 L2403.84 2300.21 L2438.74 2302.07 L2473.64 2303.80 L2508.66 2305.53 L2543.56 2307.14 L2578.46 2308.75 L2613.48 2310.24 L2648.37 2311.72 L2683.27 2313.08 L2718.29 2314.44 L2753.19 2303.93 L2788.21 2305.16 L2823.11 2306.28 L2858.01 2307.39 L2893.03 2308.50 L2927.93 2309.49 L2962.82 2310.48 L2997.84 2311.47 L3032.74 2312.34 L3067.64 2313.21 L3102.66 2297.61 L3137.56 2298.36 L3172.46 2299.22 L3207.48 2299.97 L3242.37 2300.58 L3277.27 2301.33 L3312.29 2302.07 L3347.19 2302.69 L3382.09 2303.31 L3417.11 2303.93 L3452.01 2285.12 L3486.90 2285.73 L3521.93 2286.23 L3556.82 2286.72 L3591.72 2287.34 L3626.74 2287.71 L3661.64 2288.21 L3696.66 2288.70 L3731.56 2289.08 L3766.46 2289.57 L3801.48 2289.94" stroke-linejoin="round" style="fill:none;stroke:#377EB8;stroke-width:8.64"/>
	<line x1="307.40" y1="2489.19" x2="307.40" y2="100.86" style="stroke:#000000;stroke-width:5.76"/>
	<line x1="307.40" y1="2489.19" x2="267.42" y2="2489.19" style="stroke:#000000;stroke-width:5.76"/>
	<text x="247.50" y="2524.21" style="font-family:'Helvetica';font-size:99.99px;fill:#000000" text-anchor="end">0</text>
	<line x1="307.40" y1="1892.07" x2="267.42" y2="1892.07" style="stroke:#000000;stroke-width:5.76"/>
	<text x="247.50" y="1927.10" style="font-family:'Helvetica';font-size:99.99px;fill:#000000" text-anchor="end">.2</text>
	<line x1="307.40" y1="1294.96" x2="267.42" y2="1294.96" style="stroke:#000000;stroke-width:5.76"/>
	<text x="247.50" y="1329.99" style="font-family:'Helvetica';font-size:99.99px;fill:#000000" text-anchor="end">.4</text>
	<line x1="307.40" y1="697.85" x2="267.42" y2="697.85" style="stroke:#000000;stroke-width:5.76"/>
	<text x="247.50" y="732.88" style="font-family:'Helvetica';font-size:99.99px;fill:#000000" text-anchor="end">.6</text>
	<line x1="307.40" y1="100.86" x2="267.42" y2="100.86" style="stroke:#000000;stroke-width:5.76"/>
	<text x="247.50" y="135.89" style="font-family:'Helvetica';font-size:99.99px;fill:#000000" text-anchor="end">.8</text>
	<line x1="307.40" y1="2489.19" x2="3859.02" y2="2489.19" style="stroke:#000000;stroke-width:5.76"/>
	<line x1="307.40" y1="2489.19" x2="307.40" y2="2529.16" style="stroke:#000000;stroke-width:5.76"/>
	<text x="307.40" y="2619.14" style="font-family:'Helvetica';font-size:99.99px;fill:#000000" text-anchor="middle">0</text>
	<line x1="1006.21" y1="2489.19" x2="1006.21" y2="2529.16" style="stroke:#000000;stroke-width:5.76"/>
	<text x="1006.21" y="2619.14" style="font-family:'Helvetica';font-size:99.99px;fill:#000000" text-anchor="middle">2</text>
	<line x1="1705.03" y1="2489.19" x2="1705.03" y2="2529.16" style="stroke:#000000;stroke-width:5.76"/>
	<text x="1705.03" y="2619.14" style="font-family:'Helvetica';font-size:99.99px;fill:#000000" text-anchor="middle">4</text>
	<line x1="2403.84" y1="2489.19" x2="2403.84" y2="2529.16" style="stroke:#000000;stroke-width:5.76"/>
	<text x="2403.84" y="2619.14" style="font-family:'Helvetica';font-size:99.99px;fill:#000000" text-anchor="middle">6</text>
	<line x1="3102.66" y1="2489.19" x2="3102.66" y2="2529.16" style="stroke:#000000;stroke-width:5.76"/>
	<text x="3102.66" y="2619.14" style="font-family:'Helvetica';font-size:99.99px;fill:#000000" text-anchor="middle">8</text>
	<line x1="3801.48" y1="2489.19" x2="3801.48" y2="2529.16" style="stroke:#000000;stroke-width:5.76"/>
	<text x="3801.48" y="2619.14" style="font-family:'Helvetica';font-size:99.99px;fill:#000000" text-anchor="middle">10</text>
	<text x="2083.21" y="2729.16" style="font-family:'Helvetica';font-size:99.99px;fill:#000000" text-anchor="middle">tt</text>
	<line x1="3375.53" y1="228.57" x2="3575.51" y2="228.57" style="stroke:#E41A1C;stroke-width:8.64"/>
	<line x1="3375.53" y1="368.54" x2="3575.51" y2="368.54" style="stroke:#377EB8;stroke-width:8.64"/>
	<text x="3635.53" y="263.60" style="font-family:'Helvetica';font-size:99.99px;fill:#000000">hm</text>
	<text x="3635.53" y="403.57" style="font-family:'Helvetica';font-size:99.99px;fill:#000000">hf</text>
</svg>
