<?xml version="1.0" encoding="UTF-8" standalone="no"?>
<!-- This is a Stata 18.5 generated SVG file (http://www.stata.com) -->

<svg version="1.1" width="5.500in" height="4.000in" viewBox="0 0 3960 2880" xmlns="http://www.w3.org/2000/svg" xmlns:xlink="http://www.w3.org/1999/xlink">
	<desc>Stata Graph - Marginal_diff</desc>
	<rect x="0" y="0" width="3960" height="2880" style="fill:#FFFFFF;stroke:none"/>
	<rect x="0.00" y="0.00" width="3959.88" height="2880.00" style="fill:#FFFFFF"/>
	<rect x="2.88" y="2.88" width="3954.12" height="2874.24" style="fill:none;stroke:#FFFFFF;stroke-width:5.76"/>
	<line x1="465.80" y1="2489.19" x2="3859.02" y2="2489.19" style="stroke:#C0C0C0;stroke-width:5.76"/>
	<line x1="465.80" y1="1892.07" x2="3859.02" y2="1892.07" style="stroke:#C0C0C0;stroke-width:5.76"/>
	<line x1="465.80" y1="1294.96" x2="3859.02" y2="1294.96" style="stroke:#C0C0C0;stroke-width:5.76"/>
	<line x1="465.80" y1="697.85" x2="3859.02" y2="697.85" style="stroke:#C0C0C0;stroke-width:5.76"/>
	<line x1="465.80" y1="100.86" x2="3859.02" y2="100.86" style="stroke:#C0C0C0;stroke-width:5.76"/>
	<line x1="465.80" y1="2489.19" x2="465.80" y2="100.86" style="stroke:#C0C0C0;stroke-width:5.76"/>
	<line x1="1132.93" y1="2489.19" x2="1132.93" y2="100.86" style="stroke:#C0C0C0;stroke-width:5.76"/>
	<line x1="1800.07" y1="2489.19" x2="1800.07" y2="100.86" style="stroke:#C0C0C0;stroke-width:5.76"/>
	<line x1="2467.20" y1="2489.19" x2="2467.20" y2="100.86" style="stroke:#C0C0C0;stroke-width:5.76"/>
	<line x1="3134.34" y1="2489.19" x2="3134.34" y2="100.86" style="stroke:#C0C0C0;stroke-width:5.76"/>
	<line x1="3801.48" y1="2489.19" x2="3801.48" y2="100.86" style="stroke:#C0C0C0;stroke-width:5.76"/>
	<defs>
		<path id="path_qMCpivpr" d="M465.80 2489.19 L465.80 2489.19 L499.08 2218.66 L532.50 2142.30 L565.91 2177.94 L599.20 2231.78 L632.61 2279.79 L665.90 2317.41 L699.31 2344.89 L732.60 2363.08 L766.01 2372.86 L799.30 2375.46 L832.71 2372.11 L866.00 2364.07 L899.42 2352.19 L932.83 2337.09 L966.12 2319.77 L999.53 2300.34 L1032.82 2279.42 L1066.23 2257.39 L1099.52 2234.62 L1132.93 2210.99 L1166.22 2187.10 L1199.63 2162.85 L1233.05 2138.47 L1266.33 2113.96 L1299.75 2089.58 L1333.04 2065.33 L1366.45 2041.20 L1399.74 2017.31 L1433.15 1993.80 L1466.44 1970.53 L1499.85 1947.51 L1533.26 1924.99 L1566.55 1902.72 L1599.96 1880.94 L1633.25 1859.53 L1666.67 1838.49 L1699.95 1817.94 L1733.37 1797.77 L1766.66 1778.10 L1800.07 1758.79 L1833.36 1739.98 L1866.77 1721.54 L1900.18 1703.60 L1933.47 1685.90 L1966.88 1668.82 L2000.17 1651.99 L2033.58 1635.65 L2066.87 1619.81 L2100.29 1604.22 L2133.57 1589.00 L2166.99 1574.27 L2200.40 1559.92 L2233.69 1545.81 L2267.10 1532.20 L2300.39 1518.83 L2333.80 1505.84 L2367.09 1493.21 L2400.50 1480.96 L2433.79 1468.96 L2467.20 1457.33 L2500.62 1446.06 L2533.91 1435.05 L2567.32 1424.28 L2600.61 1413.89 L2634.02 1403.74 L2667.31 1393.84 L2700.72 1384.19 L2734.01 1374.91 L2767.42 1365.87 L2800.71 1357.08 L2834.12 1348.42 L2867.54 1340.13 L2900.82 1332.09 L2934.24 1324.17 L2967.53 1316.62 L3000.94 1309.19 L3034.23 1302.01 L3067.64 1295.08 L3100.93 1288.28 L3134.34 1281.72 L3167.75 1275.41 L3201.04 1269.22 L3234.45 1263.28 L3267.74 1257.46 L3301.16 1251.77 L3334.44 1246.33 L3367.86 1241.13 L3401.15 1236.05 L3434.56 1231.10 L3467.97 1226.28 L3501.26 1221.70 L3534.67 1217.24 L3567.96 1212.91 L3601.37 1208.70 L3634.66 1204.74 L3668.07 1200.78 L3701.36 1197.07 L3734.78 1193.48 L3768.06 1190.02 L3801.48 1186.68 L3801.48 308.02 L3768.06 312.11 L3734.78 316.44 L3701.36 320.89 L3668.07 325.60 L3634.66 330.30 L3601.37 335.25 L3567.96 340.32 L3534.67 345.52 L3501.26 350.84 L3467.97 356.41 L3434.56 362.10 L3401.15 367.92 L3367.86 373.98 L3334.44 380.17 L3301.16 386.48 L3267.74 393.17 L3234.45 399.85 L3201.04 406.78 L3167.75 413.96 L3134.34 421.26 L3100.93 428.81 L3067.64 436.48 L3034.23 444.40 L3000.94 452.57 L2967.53 460.86 L2934.24 469.40 L2900.82 478.18 L2867.54 487.22 L2834.12 496.50 L2800.71 505.91 L2767.42 515.68 L2734.01 525.58 L2700.72 535.73 L2667.31 546.25 L2634.02 556.89 L2600.61 567.78 L2567.32 579.04 L2533.91 590.55 L2500.62 602.31 L2467.20 614.31 L2433.79 626.57 L2400.50 639.06 L2367.09 651.94 L2333.80 665.05 L2300.39 678.54 L2267.10 692.28 L2233.69 706.26 L2200.40 720.62 L2166.99 735.22 L2133.57 750.20 L2100.29 765.42 L2066.87 781.01 L2033.58 796.85 L2000.17 813.06 L1966.88 829.52 L1933.47 846.48 L1900.18 863.55 L1866.77 881.13 L1833.36 898.95 L1800.07 917.02 L1766.66 935.46 L1733.37 954.27 L1699.95 973.45 L1666.67 992.88 L1633.25 1012.55 L1599.96 1032.60 L1566.55 1052.90 L1533.26 1073.56 L1499.85 1094.48 L1466.44 1115.64 L1433.15 1137.05 L1399.74 1158.71 L1366.45 1180.61 L1333.04 1202.64 L1299.75 1224.92 L1266.33 1247.32 L1233.05 1269.96 L1199.63 1292.49 L1166.22 1315.26 L1132.93 1337.90 L1099.52 1360.55 L1066.23 1383.07 L1032.82 1405.35 L999.53 1427.38 L966.12 1448.91 L932.83 1470.07 L899.42 1490.37 L866.00 1509.80 L832.71 1527.87 L799.30 1543.95 L766.01 1557.19 L732.60 1566.48 L699.31 1570.44 L665.90 1567.22 L632.61 1554.60 L599.20 1533.81 L565.91 1514.75 L532.50 1546.43 L499.08 1808.54 L465.80 2489.19 L465.80 2489.19 Z" stroke-linejoin="round"/>
	</defs>
	<defs>
		<clipPath id="clipPath_AymbnVVy">
			<use xlink:href="#path_qMCpivpr"/>
		</clipPath>
	</defs>
	<use xlink:href="#path_qMCpivpr" style="stroke:none;fill:#FF3333;fill-opacity:0.30"/>
	<use xlink:href="#path_qMCpivpr" style="fill:none;stroke:#FF0000;stroke-opacity:0.30;stroke-width:17.28" clip-path="url(#clipPath_AymbnVVy)"/>
	<path d=" M465.67 2489.31 L499.08 2013.60 L532.37 1844.43 L565.79 1846.41 L599.20 1882.79 L632.49 1917.19 L665.90 1942.44 L699.19 1957.79 L732.60 1964.84 L765.89 1965.09 L799.30 1959.77 L832.59 1950.11 L866.00 1937.00 L899.42 1921.40 L932.70 1903.71 L966.12 1884.40 L999.41 1863.86 L1032.82 1842.45 L1066.11 1820.30 L1099.52 1797.65 L1132.81 1774.51 L1166.22 1751.24 L1199.63 1727.73 L1232.92 1704.21 L1266.33 1680.70 L1299.62 1657.31 L1333.04 1634.05 L1366.32 1611.03 L1399.74 1588.13 L1433.03 1565.49 L1466.44 1543.09 L1499.73 1521.06 L1533.14 1499.28 L1566.55 1477.87 L1599.84 1456.83 L1633.25 1436.16 L1666.54 1415.74 L1699.95 1395.70 L1733.24 1376.14 L1766.66 1356.84 L1799.94 1338.03 L1833.36 1319.46 L1866.77 1301.40 L1900.06 1283.58 L1933.47 1266.25 L1966.76 1249.30 L2000.17 1232.59 L2033.46 1216.38 L2066.87 1200.41 L2100.16 1184.82 L2133.57 1169.72 L2166.99 1154.87 L2200.28 1140.27 L2233.69 1126.16 L2266.98 1112.30 L2300.39 1098.81 L2333.68 1085.57 L2367.09 1072.70 L2400.38 1060.08 L2433.79 1047.82 L2467.08 1035.82 L2500.49 1024.19 L2533.91 1012.80 L2567.19 1001.79 L2600.61 990.90 L2633.90 980.38 L2667.31 970.11 L2700.60 960.08 L2734.01 950.31 L2767.30 940.78 L2800.71 931.50 L2834.12 922.59 L2867.41 913.80 L2900.82 905.26 L2934.11 896.84 L2967.53 888.80 L3000.81 880.88 L3034.23 873.33 L3067.52 865.78 L3100.93 858.60 L3134.34 851.55 L3167.63 844.74 L3201.04 838.06 L3234.33 831.63 L3267.74 825.31 L3301.03 819.25 L3334.44 813.31 L3367.73 807.62 L3401.15 802.05 L3434.43 796.60 L3467.85 791.41 L3501.26 786.33 L3534.55 781.38 L3567.96 776.68 L3601.25 772.10 L3634.66 767.52 L3667.95 763.31 L3701.36 759.11 L3734.65 755.02 L3768.06 751.19 L3801.48 747.35" stroke-linejoin="round" style="fill:none;stroke:#FF0000;stroke-width:8.64"/>
	<line x1="465.80" y1="2489.19" x2="465.80" y2="100.86" style="stroke:#000000;stroke-width:5.76"/>
	<line x1="465.80" y1="2489.19" x2="425.82" y2="2489.19" style="stroke:#000000;stroke-width:5.76"/>
	<text x="405.78" y="2524.21" style="font-family:'Helvetica';font-size:99.99px;fill:#000000" text-anchor="end">0</text>
	<line x1="465.80" y1="1892.07" x2="425.82" y2="1892.07" style="stroke:#000000;stroke-width:5.76"/>
	<text x="405.78" y="1927.10" style="font-family:'Helvetica';font-size:99.99px;fill:#000000" text-anchor="end">.02</text>
	<line x1="465.80" y1="1294.96" x2="425.82" y2="1294.96" style="stroke:#000000;stroke-width:5.76"/>
	<text x="405.78" y="1329.99" style="font-family:'Helvetica';font-size:99.99px;fill:#000000" text-anchor="end">.04</text>
	<line x1="465.80" y1="697.85" x2="425.82" y2="697.85" style="stroke:#000000;stroke-width:5.76"/>
	<text x="405.78" y="732.88" style="font-family:'Helvetica';font-size:99.99px;fill:#000000" text-anchor="end">.06</text>
	<line x1="465.80" y1="100.86" x2="425.82" y2="100.86" style="stroke:#000000;stroke-width:5.76"/>
	<text x="405.78" y="135.89" style="font-family:'Helvetica';font-size:99.99px;fill:#000000" text-anchor="end">.08</text>
	<text x="190.71" y="1294.96" style="font-family:'Helvetica';font-size:99.99px;fill:#000000" transform="rotate(-90 190.71,1294.96)" text-anchor="middle">Difference in marginal survival</text>
	<line x1="465.80" y1="2489.19" x2="3859.02" y2="2489.19" style="stroke:#000000;stroke-width:5.76"/>
	<line x1="465.80" y1="2489.19" x2="465.80" y2="2529.16" style="stroke:#000000;stroke-width:5.76"/>
	<text x="465.80" y="2619.14" style="font-family:'Helvetica';font-size:99.99px;fill:#000000" text-anchor="middle">0</text>
	<line x1="1132.93" y1="2489.19" x2="1132.93" y2="2529.16" style="stroke:#000000;stroke-width:5.76"/>
	<text x="1132.93" y="2619.14" style="font-family:'Helvetica';font-size:99.99px;fill:#000000" text-anchor="middle">2</text>
	<line x1="1800.07" y1="2489.19" x2="1800.07" y2="2529.16" style="stroke:#000000;stroke-width:5.76"/>
	<text x="1800.07" y="2619.14" style="font-family:'Helvetica';font-size:99.99px;fill:#000000" text-anchor="middle">4</text>
	<line x1="2467.20" y1="2489.19" x2="2467.20" y2="2529.16" style="stroke:#000000;stroke-width:5.76"/>
	<text x="2467.20" y="2619.14" style="font-family:'Helvetica';font-size:99.99px;fill:#000000" text-anchor="middle">6</text>
	<line x1="3134.34" y1="2489.19" x2="3134.34" y2="2529.16" style="stroke:#000000;stroke-width:5.76"/>
	<text x="3134.34" y="2619.14" style="font-family:'Helvetica';font-size:99.99px;fill:#000000" text-anchor="middle">8</text>
	<line x1="3801.48" y1="2489.19" x2="3801.48" y2="2529.16" style="stroke:#000000;stroke-width:5.76"/>
	<text x="3801.48" y="2619.14" style="font-family:'Helvetica';font-size:99.99px;fill:#000000" text-anchor="middle">10</text>
	<text x="2162.41" y="2729.16" style="font-family:'Helvetica';font-size:99.99px;fill:#000000" text-anchor="middle">Time since diagnosis</text>
</svg>
