<?xml version="1.0" encoding="UTF-8" standalone="no"?>
<!-- This is a Stata 18.5 generated SVG file (http://www.stata.com) -->

<svg version="1.1" width="5.500in" height="4.000in" viewBox="0 0 3960 2880" xmlns="http://www.w3.org/2000/svg" xmlns:xlink="http://www.w3.org/1999/xlink">
	<desc>Stata Graph - S</desc>
	<rect x="0" y="0" width="3960" height="2880" style="fill:#FFFFFF;stroke:none"/>
	<rect x="0.00" y="0.00" width="3959.88" height="2880.00" style="fill:#FFFFFF"/>
	<rect x="2.88" y="2.88" width="3954.12" height="2874.24" style="fill:none;stroke:#FFFFFF;stroke-width:5.76"/>
	<line x1="407.39" y1="2489.19" x2="3859.02" y2="2489.19" style="stroke:#C0C0C0;stroke-width:5.76"/>
	<line x1="407.39" y1="1892.07" x2="3859.02" y2="1892.07" style="stroke:#C0C0C0;stroke-width:5.76"/>
	<line x1="407.39" y1="1294.96" x2="3859.02" y2="1294.96" style="stroke:#C0C0C0;stroke-width:5.76"/>
	<line x1="407.39" y1="697.85" x2="3859.02" y2="697.85" style="stroke:#C0C0C0;stroke-width:5.76"/>
	<line x1="407.39" y1="100.86" x2="3859.02" y2="100.86" style="stroke:#C0C0C0;stroke-width:5.76"/>
	<line x1="407.39" y1="2489.19" x2="407.39" y2="100.86" style="stroke:#C0C0C0;stroke-width:5.76"/>
	<line x1="1086.28" y1="2489.19" x2="1086.28" y2="100.86" style="stroke:#C0C0C0;stroke-width:5.76"/>
	<line x1="1765.05" y1="2489.19" x2="1765.05" y2="100.86" style="stroke:#C0C0C0;stroke-width:5.76"/>
	<line x1="2443.82" y1="2489.19" x2="2443.82" y2="100.86" style="stroke:#C0C0C0;stroke-width:5.76"/>
	<line x1="3122.71" y1="2489.19" x2="3122.71" y2="100.86" style="stroke:#C0C0C0;stroke-width:5.76"/>
	<line x1="3801.48" y1="2489.19" x2="3801.48" y2="100.86" style="stroke:#C0C0C0;stroke-width:5.76"/>
	<path d=" M407.39 100.86 L441.29 260.87 L475.32 442.42 L509.23 568.03 L543.14 659.61 L577.05 735.22 L611.08 802.92 L644.99 866.52 L678.89 926.92 L712.80 983.97 L746.83 1037.68 L780.74 1087.92 L814.65 1135.19 L848.55 1179.50 L882.59 1220.96 L916.49 1259.94 L950.40 1296.57 L984.43 1330.97 L1018.34 1363.64 L1052.25 1394.46 L1086.15 1423.66 L1120.19 1452.13 L1154.09 1479.11 L1188.00 1504.97 L1221.91 1529.60 L1255.94 1553.11 L1289.85 1575.63 L1323.75 1597.17 L1357.66 1617.83 L1391.69 1637.76 L1425.60 1656.94 L1459.51 1675.75 L1493.42 1693.94 L1527.45 1711.52 L1561.35 1728.47 L1595.26 1744.93 L1629.29 1760.77 L1663.20 1776.24 L1697.11 1791.09 L1731.02 1805.69 L1765.05 1819.80 L1798.95 1834.16 L1832.86 1848.26 L1866.77 1861.88 L1900.80 1875.24 L1934.71 1888.24 L1968.62 1900.98 L2002.52 1913.48 L2036.55 1925.61 L2070.46 1937.49 L2104.37 1949.25 L2138.40 1961.38 L2172.31 1973.38 L2206.22 1985.14 L2240.12 1996.64 L2274.15 2007.91 L2308.06 2018.92 L2341.97 2029.81 L2375.88 2040.58 L2409.91 2051.10 L2443.82 2061.37 L2477.72 2071.64 L2511.63 2081.66 L2545.66 2091.56 L2579.57 2101.34 L2613.48 2110.87 L2647.51 2120.28 L2681.42 2129.56 L2715.32 2138.84 L2749.23 2147.75 L2783.26 2156.66 L2817.17 2165.82 L2851.08 2174.85 L2884.98 2183.76 L2919.02 2192.55 L2952.92 2201.21 L2986.83 2209.75 L3020.74 2218.16 L3054.77 2226.58 L3088.68 2234.75 L3122.58 2242.92 L3156.49 2251.45 L3190.52 2259.87 L3224.43 2268.28 L3258.34 2276.45 L3292.37 2284.62 L3326.28 2292.66 L3360.18 2300.58 L3394.09 2308.50 L3428.12 2316.18 L3462.03 2323.85 L3495.94 2332.02 L3529.85 2340.19 L3563.88 2348.23 L3597.78 2356.15 L3631.69 2363.95 L3665.60 2371.74 L3699.63 2379.29 L3733.54 2386.84 L3767.45 2394.27 L3801.48 2401.69" stroke-linejoin="round" style="fill:none;stroke:#E41A1C;stroke-width:8.64"/>
	<path d=" M407.39 100.86 L441.29 233.65 L475.32 408.88 L509.23 537.34 L543.14 632.63 L577.05 710.97 L611.08 780.27 L644.99 844.62 L678.89 905.14 L712.80 961.57 L746.83 1014.29 L780.74 1063.29 L814.65 1108.96 L848.55 1151.28 L882.59 1190.64 L916.49 1227.02 L950.40 1261.05 L984.43 1292.73 L1018.34 1322.43 L1052.25 1350.28 L1086.15 1376.51 L1120.19 1401.64 L1154.09 1425.40 L1188.00 1447.80 L1221.91 1469.08 L1255.94 1489.25 L1289.85 1508.31 L1323.75 1526.50 L1357.66 1543.83 L1391.69 1560.41 L1425.60 1576.25 L1459.51 1591.60 L1493.42 1606.33 L1527.45 1620.43 L1561.35 1633.92 L1595.26 1646.92 L1629.29 1659.42 L1663.20 1671.54 L1697.11 1683.18 L1731.02 1694.44 L1765.05 1705.33 L1798.95 1716.34 L1832.86 1726.99 L1866.77 1737.38 L1900.80 1747.53 L1934.71 1757.30 L1968.62 1766.83 L2002.52 1776.12 L2036.55 1785.27 L2070.46 1794.06 L2104.37 1802.72 L2138.40 1811.88 L2172.31 1820.91 L2206.22 1829.70 L2240.12 1838.24 L2274.15 1846.66 L2308.06 1854.95 L2341.97 1863.11 L2375.88 1871.03 L2409.91 1878.95 L2443.82 1886.63 L2477.72 1894.18 L2511.63 1901.60 L2545.66 1908.90 L2579.57 1916.08 L2613.48 1923.14 L2647.51 1930.19 L2681.42 1937.00 L2715.32 1943.80 L2749.23 1950.48 L2783.26 1957.17 L2817.17 1964.10 L2851.08 1971.03 L2884.98 1977.83 L2919.02 1984.52 L2952.92 1991.08 L2986.83 1997.63 L3020.74 2004.19 L3054.77 2010.63 L3088.68 2016.94 L3122.58 2023.25 L3156.49 2029.93 L3190.52 2036.74 L3224.43 2043.30 L3258.34 2049.98 L3292.37 2056.42 L3326.28 2062.85 L3360.18 2069.29 L3394.09 2075.60 L3428.12 2081.91 L3462.03 2088.10 L3495.94 2094.91 L3529.85 2101.59 L3563.88 2108.27 L3597.78 2114.83 L3631.69 2121.39 L3665.60 2127.95 L3699.63 2134.38 L3733.54 2140.69 L3767.45 2147.01 L3801.48 2153.32" stroke-linejoin="round" style="fill:none;stroke:#377EB8;stroke-width:8.64"/>
	<line x1="407.39" y1="2489.19" x2="407.39" y2="100.86" style="stroke:#000000;stroke-width:5.76"/>
	<line x1="407.39" y1="2489.19" x2="367.41" y2="2489.19" style="stroke:#000000;stroke-width:5.76"/>
	<text x="347.49" y="2524.21" style="font-family:'Helvetica';font-size:99.99px;fill:#000000" text-anchor="end">.2</text>
	<line x1="407.39" y1="1892.07" x2="367.41" y2="1892.07" style="stroke:#000000;stroke-width:5.76"/>
	<text x="347.49" y="1927.10" style="font-family:'Helvetica';font-size:99.99px;fill:#000000" text-anchor="end">.4</text>
	<line x1="407.39" y1="1294.96" x2="367.41" y2="1294.96" style="stroke:#000000;stroke-width:5.76"/>
	<text x="347.49" y="1329.99" style="font-family:'Helvetica';font-size:99.99px;fill:#000000" text-anchor="end">.6</text>
	<line x1="407.39" y1="697.85" x2="367.41" y2="697.85" style="stroke:#000000;stroke-width:5.76"/>
	<text x="347.49" y="732.88" style="font-family:'Helvetica';font-size:99.99px;fill:#000000" text-anchor="end">.8</text>
	<line x1="407.39" y1="100.86" x2="367.41" y2="100.86" style="stroke:#000000;stroke-width:5.76"/>
	<text x="347.49" y="135.89" style="font-family:'Helvetica';font-size:99.99px;fill:#000000" text-anchor="end">1</text>
	<text x="190.71" y="1294.96" style="font-family:'Helvetica';font-size:99.99px;fill:#000000" transform="rotate(-90 190.71,1294.96)" text-anchor="middle">S(t)</text>
	<line x1="407.39" y1="2489.19" x2="3859.02" y2="2489.19" style="stroke:#000000;stroke-width:5.76"/>
	<line x1="407.39" y1="2489.19" x2="407.39" y2="2529.16" style="stroke:#000000;stroke-width:5.76"/>
	<text x="407.39" y="2619.14" style="font-family:'Helvetica';font-size:99.99px;fill:#000000" text-anchor="middle">0</text>
	<line x1="1086.28" y1="2489.19" x2="1086.28" y2="2529.16" style="stroke:#000000;stroke-width:5.76"/>
	<text x="1086.28" y="2619.14" style="font-family:'Helvetica';font-size:99.99px;fill:#000000" text-anchor="middle">2</text>
	<line x1="1765.05" y1="2489.19" x2="1765.05" y2="2529.16" style="stroke:#000000;stroke-width:5.76"/>
	<text x="1765.05" y="2619.14" style="font-family:'Helvetica';font-size:99.99px;fill:#000000" text-anchor="middle">4</text>
	<line x1="2443.82" y1="2489.19" x2="2443.82" y2="2529.16" style="stroke:#000000;stroke-width:5.76"/>
	<text x="2443.82" y="2619.14" style="font-family:'Helvetica';font-size:99.99px;fill:#000000" text-anchor="middle">6</text>
	<line x1="3122.71" y1="2489.19" x2="3122.71" y2="2529.16" style="stroke:#000000;stroke-width:5.76"/>
	<text x="3122.71" y="2619.14" style="font-family:'Helvetica';font-size:99.99px;fill:#000000" text-anchor="middle">8</text>
	<line x1="3801.48" y1="2489.19" x2="3801.48" y2="2529.16" style="stroke:#000000;stroke-width:5.76"/>
	<text x="3801.48" y="2619.14" style="font-family:'Helvetica';font-size:99.99px;fill:#000000" text-anchor="middle">10</text>
	<text x="2133.20" y="2729.16" style="font-family:'Helvetica';font-size:99.99px;fill:#000000" text-anchor="middle">Time since diagnosis</text>
	<line x1="3360.93" y1="228.57" x2="3560.91" y2="228.57" style="stroke:#E41A1C;stroke-width:8.64"/>
	<line x1="3360.93" y1="368.54" x2="3560.91" y2="368.54" style="stroke:#377EB8;stroke-width:8.64"/>
	<text x="3620.93" y="263.60" style="font-family:'Helvetica';font-size:99.99px;fill:#000000">Sm</text>
	<text x="3620.93" y="403.57" style="font-family:'Helvetica';font-size:99.99px;fill:#000000">Sf</text>
</svg>
