<?xml version="1.0" encoding="UTF-8" standalone="no"?>
<!-- This is a Stata 18.5 generated SVG file (http://www.stata.com) -->

<svg version="1.1" width="5.500in" height="4.000in" viewBox="0 0 3960 2880" xmlns="http://www.w3.org/2000/svg" xmlns:xlink="http://www.w3.org/1999/xlink">
	<desc>Stata Graph - Sdiff</desc>
	<rect x="0" y="0" width="3960" height="2880" style="fill:#FFFFFF;stroke:none"/>
	<rect x="0.00" y="0.00" width="3959.88" height="2880.00" style="fill:#FFFFFF"/>
	<rect x="2.88" y="2.88" width="3954.12" height="2874.24" style="fill:none;stroke:#FFFFFF;stroke-width:5.76"/>
	<line x1="465.80" y1="2279.05" x2="3859.02" y2="2279.05" style="stroke:#C0C0C0;stroke-width:5.76"/>
	<line x1="465.80" y1="1247.93" x2="3859.02" y2="1247.93" style="stroke:#C0C0C0;stroke-width:5.76"/>
	<line x1="465.80" y1="216.82" x2="3859.02" y2="216.82" style="stroke:#C0C0C0;stroke-width:5.76"/>
	<line x1="465.80" y1="2489.19" x2="465.80" y2="100.86" style="stroke:#C0C0C0;stroke-width:5.76"/>
	<line x1="1132.93" y1="2489.19" x2="1132.93" y2="100.86" style="stroke:#C0C0C0;stroke-width:5.76"/>
	<line x1="1800.07" y1="2489.19" x2="1800.07" y2="100.86" style="stroke:#C0C0C0;stroke-width:5.76"/>
	<line x1="2467.20" y1="2489.19" x2="2467.20" y2="100.86" style="stroke:#C0C0C0;stroke-width:5.76"/>
	<line x1="3134.34" y1="2489.19" x2="3134.34" y2="100.86" style="stroke:#C0C0C0;stroke-width:5.76"/>
	<line x1="3801.48" y1="2489.19" x2="3801.48" y2="100.86" style="stroke:#C0C0C0;stroke-width:5.76"/>
	<defs>
		<path id="path_BbdHgcKh" d="M499.08 2245.51 L499.08 2245.51 L532.50 2289.20 L565.91 2342.66 L599.20 2386.35 L632.61 2419.88 L665.90 2445.50 L699.31 2464.81 L732.60 2478.29 L766.01 2486.22 L799.30 2488.94 L832.71 2489.19 L866.00 2485.60 L899.42 2478.67 L932.83 2468.89 L966.12 2456.64 L999.53 2442.53 L1032.82 2426.94 L1066.23 2409.98 L1099.52 2392.04 L1132.93 2373.23 L1166.22 2352.68 L1199.63 2331.77 L1233.05 2310.48 L1266.33 2288.95 L1299.75 2267.29 L1333.04 2245.64 L1366.45 2223.86 L1399.74 2202.20 L1433.15 2180.67 L1466.44 2159.13 L1499.85 2136.24 L1533.26 2113.59 L1566.55 2091.19 L1599.96 2068.92 L1633.25 2046.89 L1666.67 2025.11 L1699.95 2003.70 L1733.37 1982.41 L1766.66 1961.38 L1800.07 1940.71 L1833.36 1918.43 L1866.77 1896.53 L1900.18 1874.87 L1933.47 1853.59 L1966.88 1832.67 L2000.17 1811.88 L2033.58 1791.58 L2066.87 1771.41 L2100.29 1751.61 L2133.57 1732.18 L2166.99 1712.01 L2200.40 1692.21 L2233.69 1672.66 L2267.10 1653.48 L2300.39 1634.54 L2333.80 1615.98 L2367.09 1597.66 L2400.50 1579.59 L2433.79 1561.90 L2467.20 1544.57 L2500.62 1526.63 L2533.91 1509.05 L2567.32 1491.85 L2600.61 1474.77 L2634.02 1458.07 L2667.31 1441.61 L2700.72 1425.40 L2734.01 1409.43 L2767.42 1393.84 L2800.71 1378.37 L2834.12 1363.40 L2867.54 1348.67 L2900.82 1334.31 L2934.24 1320.08 L2967.53 1306.10 L3000.94 1292.49 L3034.23 1279.00 L3067.64 1265.75 L3100.93 1252.76 L3134.34 1240.01 L3167.75 1227.39 L3201.04 1214.89 L3234.45 1202.64 L3267.74 1190.64 L3301.16 1179.00 L3334.44 1167.49 L3367.86 1156.23 L3401.15 1145.22 L3434.56 1134.45 L3467.97 1123.81 L3501.26 1112.92 L3534.67 1102.15 L3567.96 1091.76 L3601.37 1081.61 L3634.66 1071.58 L3668.07 1061.93 L3701.36 1052.53 L3734.78 1043.25 L3768.06 1034.33 L3801.48 1025.55 L3801.48 100.86 L3768.06 107.17 L3734.78 113.85 L3701.36 120.78 L3668.07 127.96 L3634.66 135.51 L3601.37 143.31 L3567.96 151.35 L3534.67 159.64 L3501.26 168.31 L3467.97 177.22 L3434.56 186.50 L3401.15 196.15 L3367.86 206.05 L3334.44 216.20 L3301.16 226.59 L3267.74 237.36 L3234.45 248.37 L3201.04 259.76 L3167.75 271.39 L3134.34 283.27 L3100.93 295.90 L3067.64 308.77 L3034.23 322.01 L3000.94 335.37 L2967.53 349.23 L2934.24 363.34 L2900.82 377.70 L2867.54 392.30 L2834.12 407.40 L2800.71 422.74 L2767.42 438.95 L2734.01 455.41 L2700.72 472.37 L2667.31 489.57 L2634.02 507.02 L2600.61 524.84 L2567.32 543.03 L2533.91 561.47 L2500.62 580.28 L2467.20 599.46 L2433.79 618.27 L2400.50 637.46 L2367.09 656.89 L2333.80 676.81 L2300.39 696.98 L2267.10 717.52 L2233.69 738.32 L2200.40 759.60 L2166.99 781.26 L2133.57 803.16 L2100.29 825.07 L2066.87 847.34 L2033.58 869.87 L2000.17 892.76 L1966.88 915.90 L1933.47 939.42 L1900.18 963.30 L1866.77 987.43 L1833.36 1011.94 L1800.07 1036.81 L1766.66 1060.45 L1733.37 1084.33 L1699.95 1108.59 L1666.67 1132.97 L1633.25 1157.72 L1599.96 1182.59 L1566.55 1207.71 L1533.26 1232.96 L1499.85 1258.58 L1466.44 1284.19 L1433.15 1308.82 L1399.74 1333.57 L1366.45 1358.32 L1333.04 1383.20 L1299.75 1408.20 L1266.33 1433.07 L1233.05 1458.07 L1199.63 1483.07 L1166.22 1507.94 L1132.93 1532.69 L1099.52 1556.33 L1066.23 1579.72 L1032.82 1602.86 L999.53 1625.51 L966.12 1647.66 L932.83 1669.19 L899.42 1689.98 L866.00 1709.91 L832.71 1728.59 L799.30 1746.04 L766.01 1763.74 L732.60 1779.09 L699.31 1791.46 L665.90 1799.75 L632.61 1802.60 L599.20 1798.89 L565.91 1792.20 L532.50 1805.82 L499.08 1935.88 L499.08 2245.51 Z" stroke-linejoin="round"/>
	</defs>
	<defs>
		<clipPath id="clipPath_GikQFeLl">
			<use xlink:href="#path_BbdHgcKh"/>
		</clipPath>
	</defs>
	<use xlink:href="#path_BbdHgcKh" style="stroke:none;fill:#FF3333;fill-opacity:0.30"/>
	<use xlink:href="#path_BbdHgcKh" style="fill:none;stroke:#FF0000;stroke-opacity:0.30;stroke-width:17.28" clip-path="url(#clipPath_GikQFeLl)"/>
	<path d=" M499.08 2090.70 L532.37 2047.51 L565.79 2067.43 L599.20 2092.68 L632.49 2111.24 L665.90 2122.63 L699.19 2128.20 L732.60 2128.69 L765.89 2124.98 L799.30 2117.55 L832.59 2109.01 L866.00 2097.75 L899.42 2084.39 L932.70 2069.04 L966.12 2052.21 L999.41 2034.14 L1032.82 2014.96 L1066.11 1994.91 L1099.52 1974.25 L1132.81 1953.08 L1166.22 1930.31 L1199.63 1907.42 L1232.92 1884.28 L1266.33 1861.13 L1299.62 1837.74 L1333.04 1814.48 L1366.32 1791.21 L1399.74 1767.95 L1433.03 1744.81 L1466.44 1721.79 L1499.73 1697.41 L1533.14 1673.40 L1566.55 1649.52 L1599.84 1625.75 L1633.25 1602.37 L1666.54 1579.10 L1699.95 1556.20 L1733.24 1533.43 L1766.66 1511.03 L1799.94 1488.76 L1833.36 1465.25 L1866.77 1442.10 L1900.06 1419.21 L1933.47 1396.56 L1966.76 1374.29 L2000.17 1352.38 L2033.46 1330.73 L2066.87 1309.44 L2100.16 1288.40 L2133.57 1267.73 L2166.99 1246.70 L2200.28 1225.91 L2233.69 1205.61 L2266.98 1185.56 L2300.39 1165.76 L2333.68 1146.46 L2367.09 1127.40 L2400.38 1108.59 L2433.79 1090.15 L2467.08 1072.08 L2500.49 1053.52 L2533.91 1035.32 L2567.19 1017.50 L2600.61 999.93 L2633.90 982.61 L2667.31 965.65 L2700.60 948.94 L2734.01 932.49 L2767.30 916.40 L2800.71 900.56 L2834.12 885.46 L2867.41 870.61 L2900.82 856.01 L2934.11 841.77 L2967.53 827.79 L3000.81 814.05 L3034.23 800.56 L3067.52 787.32 L3100.93 774.45 L3134.34 761.71 L3167.63 749.45 L3201.04 737.33 L3234.33 725.57 L3267.74 714.06 L3301.03 702.92 L3334.44 691.91 L3367.73 681.14 L3401.15 670.75 L3434.43 660.60 L3467.85 650.57 L3501.26 640.67 L3534.55 631.02 L3567.96 621.62 L3601.25 612.46 L3634.66 603.67 L3667.95 595.01 L3701.36 586.72 L3734.65 578.67 L3768.06 570.88 L3801.48 563.20" stroke-linejoin="round" style="fill:none;stroke:#FF0000;stroke-width:8.64"/>
	<line x1="465.80" y1="2489.19" x2="465.80" y2="100.86" style="stroke:#000000;stroke-width:5.76"/>
	<line x1="465.80" y1="2279.05" x2="425.82" y2="2279.05" style="stroke:#000000;stroke-width:5.76"/>
	<text x="405.78" y="2314.08" style="font-family:'Helvetica';font-size:99.99px;fill:#000000" text-anchor="end">0</text>
	<line x1="465.80" y1="1247.93" x2="425.82" y2="1247.93" style="stroke:#000000;stroke-width:5.76"/>
	<text x="405.78" y="1282.96" style="font-family:'Helvetica';font-size:99.99px;fill:#000000" text-anchor="end">.05</text>
	<line x1="465.80" y1="216.82" x2="425.82" y2="216.82" style="stroke:#000000;stroke-width:5.76"/>
	<text x="405.78" y="251.85" style="font-family:'Helvetica';font-size:99.99px;fill:#000000" text-anchor="end">.1</text>
	<text x="190.71" y="1294.96" style="font-family:'Helvetica';font-size:99.99px;fill:#000000" transform="rotate(-90 190.71,1294.96)" text-anchor="middle">Difference in S(t)</text>
	<line x1="465.80" y1="2489.19" x2="3859.02" y2="2489.19" style="stroke:#000000;stroke-width:5.76"/>
	<line x1="465.80" y1="2489.19" x2="465.80" y2="2529.16" style="stroke:#000000;stroke-width:5.76"/>
	<text x="465.80" y="2619.14" style="font-family:'Helvetica';font-size:99.99px;fill:#000000" text-anchor="middle">0</text>
	<line x1="1132.93" y1="2489.19" x2="1132.93" y2="2529.16" style="stroke:#000000;stroke-width:5.76"/>
	<text x="1132.93" y="2619.14" style="font-family:'Helvetica';font-size:99.99px;fill:#000000" text-anchor="middle">2</text>
	<line x1="1800.07" y1="2489.19" x2="1800.07" y2="2529.16" style="stroke:#000000;stroke-width:5.76"/>
	<text x="1800.07" y="2619.14" style="font-family:'Helvetica';font-size:99.99px;fill:#000000" text-anchor="middle">4</text>
	<line x1="2467.20" y1="2489.19" x2="2467.20" y2="2529.16" style="stroke:#000000;stroke-width:5.76"/>
	<text x="2467.20" y="2619.14" style="font-family:'Helvetica';font-size:99.99px;fill:#000000" text-anchor="middle">6</text>
	<line x1="3134.34" y1="2489.19" x2="3134.34" y2="2529.16" style="stroke:#000000;stroke-width:5.76"/>
	<text x="3134.34" y="2619.14" style="font-family:'Helvetica';font-size:99.99px;fill:#000000" text-anchor="middle">8</text>
	<line x1="3801.48" y1="2489.19" x2="3801.48" y2="2529.16" style="stroke:#000000;stroke-width:5.76"/>
	<text x="3801.48" y="2619.14" style="font-family:'Helvetica';font-size:99.99px;fill:#000000" text-anchor="middle">10</text>
	<text x="2162.41" y="2729.16" style="font-family:'Helvetica';font-size:99.99px;fill:#000000" text-anchor="middle">Time since diagnosis</text>
</svg>
