<?xml version="1.0" encoding="UTF-8" standalone="no"?>
<!-- This is a Stata 18.5 generated SVG file (http://www.stata.com) -->

<svg version="1.1" width="5.500in" height="4.000in" viewBox="0 0 3960 2880" xmlns="http://www.w3.org/2000/svg" xmlns:xlink="http://www.w3.org/1999/xlink">
	<desc>Stata Graph - Graph</desc>
	<rect x="0" y="0" width="3960" height="2880" style="fill:#FFFFFF;stroke:none"/>
	<rect x="0.00" y="0.00" width="3959.88" height="2880.00" style="fill:#FFFFFF"/>
	<rect x="2.88" y="2.88" width="3954.12" height="2874.24" style="fill:none;stroke:#FFFFFF;stroke-width:5.76"/>
	<line x1="378.30" y1="2489.19" x2="3859.02" y2="2489.19" style="stroke:#C0C0C0;stroke-width:5.76"/>
	<line x1="378.30" y1="1892.07" x2="3859.02" y2="1892.07" style="stroke:#C0C0C0;stroke-width:5.76"/>
	<line x1="378.30" y1="1294.96" x2="3859.02" y2="1294.96" style="stroke:#C0C0C0;stroke-width:5.76"/>
	<line x1="378.30" y1="697.85" x2="3859.02" y2="697.85" style="stroke:#C0C0C0;stroke-width:5.76"/>
	<line x1="378.30" y1="100.86" x2="3859.02" y2="100.86" style="stroke:#C0C0C0;stroke-width:5.76"/>
	<line x1="614.05" y1="2489.19" x2="614.05" y2="100.86" style="stroke:#C0C0C0;stroke-width:5.76"/>
	<line x1="1410.75" y1="2489.19" x2="1410.75" y2="100.86" style="stroke:#C0C0C0;stroke-width:5.76"/>
	<line x1="2207.45" y1="2489.19" x2="2207.45" y2="100.86" style="stroke:#C0C0C0;stroke-width:5.76"/>
	<line x1="3004.16" y1="2489.19" x2="3004.16" y2="100.86" style="stroke:#C0C0C0;stroke-width:5.76"/>
	<line x1="3800.86" y1="2489.19" x2="3800.86" y2="100.86" style="stroke:#C0C0C0;stroke-width:5.76"/>
	<rect x="427.93" y="2465.05" width="99.25" height="24.13" style="fill:#CAC27E"/>
	<rect x="432.25" y="2469.37" width="90.61" height="15.49" style="fill:none;stroke:#D7D29E;stroke-width:8.64"/>
	<rect x="527.17" y="2481.14" width="99.12" height="8.04" style="fill:#CAC27E"/>
	<rect x="531.49" y="2484.87" width="90.48" height="0.60" style="fill:none;stroke:#D7D29E;stroke-width:8.64"/>
	<rect x="626.30" y="2481.14" width="99.25" height="8.04" style="fill:#CAC27E"/>
	<rect x="630.62" y="2484.87" width="90.61" height="0.60" style="fill:none;stroke:#D7D29E;stroke-width:8.64"/>
	<rect x="725.55" y="2400.83" width="99.25" height="88.36" style="fill:#CAC27E"/>
	<rect x="729.87" y="2405.14" width="90.61" height="79.72" style="fill:none;stroke:#D7D29E;stroke-width:8.64"/>
	<rect x="824.79" y="2400.83" width="99.25" height="88.36" style="fill:#CAC27E"/>
	<rect x="829.11" y="2405.14" width="90.61" height="79.72" style="fill:none;stroke:#D7D29E;stroke-width:8.64"/>
	<rect x="924.04" y="2384.74" width="99.25" height="104.45" style="fill:#CAC27E"/>
	<rect x="928.36" y="2389.06" width="90.61" height="95.81" style="fill:none;stroke:#D7D29E;stroke-width:8.64"/>
	<rect x="1023.29" y="2328.43" width="99.12" height="160.76" style="fill:#CAC27E"/>
	<rect x="1027.61" y="2332.75" width="90.48" height="152.12" style="fill:none;stroke:#D7D29E;stroke-width:8.64"/>
	<rect x="1122.41" y="2328.43" width="99.25" height="160.76" style="fill:#CAC27E"/>
	<rect x="1126.73" y="2332.75" width="90.61" height="152.12" style="fill:none;stroke:#D7D29E;stroke-width:8.64"/>
	<rect x="1221.66" y="2328.43" width="99.25" height="160.76" style="fill:#CAC27E"/>
	<rect x="1225.98" y="2332.75" width="90.61" height="152.12" style="fill:none;stroke:#D7D29E;stroke-width:8.64"/>
	<rect x="1320.91" y="2215.94" width="99.25" height="273.25" style="fill:#CAC27E"/>
	<rect x="1325.23" y="2220.26" width="90.61" height="264.61" style="fill:none;stroke:#D7D29E;stroke-width:8.64"/>
	<rect x="1420.16" y="2151.58" width="99.25" height="337.60" style="fill:#CAC27E"/>
	<rect x="1424.47" y="2155.90" width="90.61" height="328.96" style="fill:none;stroke:#D7D29E;stroke-width:8.64"/>
	<rect x="1519.40" y="2143.54" width="99.12" height="345.64" style="fill:#CAC27E"/>
	<rect x="1523.72" y="2147.86" width="90.48" height="337.00" style="fill:none;stroke:#D7D29E;stroke-width:8.64"/>
	<rect x="1618.53" y="1926.48" width="99.25" height="562.71" style="fill:#CAC27E"/>
	<rect x="1622.85" y="1930.80" width="90.61" height="554.07" style="fill:none;stroke:#D7D29E;stroke-width:8.64"/>
	<rect x="1717.77" y="1910.39" width="99.25" height="578.80" style="fill:#CAC27E"/>
	<rect x="1722.09" y="1914.71" width="90.61" height="570.16" style="fill:none;stroke:#D7D29E;stroke-width:8.64"/>
	<rect x="1817.02" y="1854.08" width="99.25" height="635.10" style="fill:#CAC27E"/>
	<rect x="1821.34" y="1858.40" width="90.61" height="626.47" style="fill:none;stroke:#D7D29E;stroke-width:8.64"/>
	<rect x="1916.27" y="1532.57" width="99.25" height="956.62" style="fill:#CAC27E"/>
	<rect x="1920.59" y="1536.89" width="90.61" height="947.98" style="fill:none;stroke:#D7D29E;stroke-width:8.64"/>
	<rect x="2015.52" y="1717.46" width="99.12" height="771.73" style="fill:#CAC27E"/>
	<rect x="2019.84" y="1721.78" width="90.48" height="763.09" style="fill:none;stroke:#D7D29E;stroke-width:8.64"/>
	<rect x="2114.64" y="1661.15" width="99.25" height="828.04" style="fill:#CAC27E"/>
	<rect x="2118.96" y="1665.47" width="90.61" height="819.40" style="fill:none;stroke:#D7D29E;stroke-width:8.64"/>
	<rect x="2213.89" y="1162.79" width="99.25" height="1326.39" style="fill:#CAC27E"/>
	<rect x="2218.21" y="1167.11" width="90.61" height="1317.75" style="fill:none;stroke:#D7D29E;stroke-width:8.64"/>
	<rect x="2313.14" y="1693.32" width="99.25" height="795.86" style="fill:#CAC27E"/>
	<rect x="2317.45" y="1697.64" width="90.61" height="787.22" style="fill:none;stroke:#D7D29E;stroke-width:8.64"/>
	<rect x="2412.38" y="993.99" width="99.25" height="1495.19" style="fill:#CAC27E"/>
	<rect x="2416.70" y="998.31" width="90.61" height="1486.55" style="fill:none;stroke:#D7D29E;stroke-width:8.64"/>
	<rect x="2511.63" y="1588.88" width="99.12" height="900.31" style="fill:#CAC27E"/>
	<rect x="2515.95" y="1593.20" width="90.48" height="891.67" style="fill:none;stroke:#D7D29E;stroke-width:8.64"/>
	<rect x="2610.75" y="1219.10" width="99.25" height="1270.09" style="fill:#CAC27E"/>
	<rect x="2615.07" y="1223.42" width="90.61" height="1261.45" style="fill:none;stroke:#D7D29E;stroke-width:8.64"/>
	<rect x="2710.00" y="1516.48" width="99.25" height="972.71" style="fill:#CAC27E"/>
	<rect x="2714.32" y="1520.80" width="90.61" height="964.07" style="fill:none;stroke:#D7D29E;stroke-width:8.64"/>
	<rect x="2809.25" y="817.15" width="99.25" height="1672.04" style="fill:#CAC27E"/>
	<rect x="2813.57" y="821.47" width="90.61" height="1663.40" style="fill:none;stroke:#D7D29E;stroke-width:8.64"/>
	<rect x="2908.50" y="656.39" width="99.25" height="1832.79" style="fill:#CAC27E"/>
	<rect x="2912.82" y="660.71" width="90.61" height="1824.16" style="fill:none;stroke:#D7D29E;stroke-width:8.64"/>
	<rect x="3007.74" y="1058.34" width="99.12" height="1430.84" style="fill:#CAC27E"/>
	<rect x="3012.06" y="1062.66" width="90.48" height="1422.20" style="fill:none;stroke:#D7D29E;stroke-width:8.64"/>
	<rect x="3106.87" y="527.69" width="99.25" height="1961.50" style="fill:#CAC27E"/>
	<rect x="3111.19" y="532.01" width="90.61" height="1952.86" style="fill:none;stroke:#D7D29E;stroke-width:8.64"/>
	<rect x="3206.12" y="1074.31" width="99.25" height="1414.88" style="fill:#CAC27E"/>
	<rect x="3210.43" y="1078.63" width="90.61" height="1406.24" style="fill:none;stroke:#D7D29E;stroke-width:8.64"/>
	<rect x="3305.36" y="1267.24" width="99.25" height="1221.95" style="fill:#CAC27E"/>
	<rect x="3309.68" y="1271.56" width="90.61" height="1213.31" style="fill:none;stroke:#D7D29E;stroke-width:8.64"/>
	<rect x="3404.61" y="1813.98" width="99.25" height="675.20" style="fill:#CAC27E"/>
	<rect x="3408.93" y="1818.30" width="90.61" height="666.56" style="fill:none;stroke:#D7D29E;stroke-width:8.64"/>
	<rect x="3503.86" y="1934.52" width="99.12" height="554.66" style="fill:#CAC27E"/>
	<rect x="3508.18" y="1938.84" width="90.48" height="546.03" style="fill:none;stroke:#D7D29E;stroke-width:8.64"/>
	<rect x="3602.98" y="2207.89" width="99.25" height="281.29" style="fill:#CAC27E"/>
	<rect x="3607.30" y="2212.21" width="90.61" height="272.65" style="fill:none;stroke:#D7D29E;stroke-width:8.64"/>
	<rect x="3702.23" y="2416.91" width="99.25" height="72.27" style="fill:#CAC27E"/>
	<rect x="3706.55" y="2421.23" width="90.61" height="63.63" style="fill:none;stroke:#D7D29E;stroke-width:8.64"/>
	<line x1="378.30" y1="2489.19" x2="378.30" y2="100.86" style="stroke:#000000;stroke-width:5.76"/>
	<line x1="378.30" y1="2489.19" x2="338.33" y2="2489.19" style="stroke:#000000;stroke-width:5.76"/>
	<text x="318.29" y="2524.21" style="font-family:'Helvetica';font-size:99.99px;fill:#000000" text-anchor="end">0</text>
	<line x1="378.30" y1="1892.07" x2="338.33" y2="1892.07" style="stroke:#000000;stroke-width:5.76"/>
	<text x="318.29" y="1927.10" style="font-family:'Helvetica';font-size:99.99px;fill:#000000" text-anchor="end">2</text>
	<line x1="378.30" y1="1294.96" x2="338.33" y2="1294.96" style="stroke:#000000;stroke-width:5.76"/>
	<text x="318.29" y="1329.99" style="font-family:'Helvetica';font-size:99.99px;fill:#000000" text-anchor="end">4</text>
	<line x1="378.30" y1="697.85" x2="338.33" y2="697.85" style="stroke:#000000;stroke-width:5.76"/>
	<text x="318.29" y="732.88" style="font-family:'Helvetica';font-size:99.99px;fill:#000000" text-anchor="end">6</text>
	<line x1="378.30" y1="100.86" x2="338.33" y2="100.86" style="stroke:#000000;stroke-width:5.76"/>
	<text x="318.29" y="135.89" style="font-family:'Helvetica';font-size:99.99px;fill:#000000" text-anchor="end">8</text>
	<text x="190.71" y="1294.96" style="font-family:'Helvetica';font-size:99.99px;fill:#000000" transform="rotate(-90 190.71,1294.96)" text-anchor="middle">Density</text>
	<line x1="378.30" y1="2489.19" x2="3859.02" y2="2489.19" style="stroke:#000000;stroke-width:5.76"/>
	<line x1="614.05" y1="2489.19" x2="614.05" y2="2529.16" style="stroke:#000000;stroke-width:5.76"/>
	<text x="614.05" y="2619.14" style="font-family:'Helvetica';font-size:99.99px;fill:#000000" text-anchor="middle">.3</text>
	<line x1="1410.75" y1="2489.19" x2="1410.75" y2="2529.16" style="stroke:#000000;stroke-width:5.76"/>
	<text x="1410.75" y="2619.14" style="font-family:'Helvetica';font-size:99.99px;fill:#000000" text-anchor="middle">.4</text>
	<line x1="2207.45" y1="2489.19" x2="2207.45" y2="2529.16" style="stroke:#000000;stroke-width:5.76"/>
	<text x="2207.45" y="2619.14" style="font-family:'Helvetica';font-size:99.99px;fill:#000000" text-anchor="middle">.5</text>
	<line x1="3004.16" y1="2489.19" x2="3004.16" y2="2529.16" style="stroke:#000000;stroke-width:5.76"/>
	<text x="3004.16" y="2619.14" style="font-family:'Helvetica';font-size:99.99px;fill:#000000" text-anchor="middle">.6</text>
	<line x1="3800.86" y1="2489.19" x2="3800.86" y2="2529.16" style="stroke:#000000;stroke-width:5.76"/>
	<text x="3800.86" y="2619.14" style="font-family:'Helvetica';font-size:99.99px;fill:#000000" text-anchor="middle">.7</text>
	<text x="2118.72" y="2729.16" style="font-family:'Helvetica';font-size:99.99px;fill:#000000" text-anchor="middle">S10</text>
</svg>
