<?xml version="1.0" encoding="UTF-8" standalone="no"?>
<!-- This is a Stata 18.5 generated SVG file (http://www.stata.com) -->

<svg version="1.1" width="5.500in" height="4.000in" viewBox="0 0 3960 2880" xmlns="http://www.w3.org/2000/svg" xmlns:xlink="http://www.w3.org/1999/xlink">
	<desc>Stata Graph - hdiff</desc>
	<rect x="0" y="0" width="3960" height="2880" style="fill:#FFFFFF;stroke:none"/>
	<rect x="0.00" y="0.00" width="3959.88" height="2880.00" style="fill:#FFFFFF"/>
	<rect x="2.88" y="2.88" width="3954.12" height="2874.24" style="fill:none;stroke:#FFFFFF;stroke-width:5.76"/>
	<line x1="342.42" y1="2489.19" x2="3859.02" y2="2489.19" style="stroke:#C0C0C0;stroke-width:5.76"/>
	<line x1="342.42" y1="2011.50" x2="3859.02" y2="2011.50" style="stroke:#C0C0C0;stroke-width:5.76"/>
	<line x1="342.42" y1="1533.81" x2="3859.02" y2="1533.81" style="stroke:#C0C0C0;stroke-width:5.76"/>
	<line x1="342.42" y1="1056.12" x2="3859.02" y2="1056.12" style="stroke:#C0C0C0;stroke-width:5.76"/>
	<line x1="342.42" y1="578.43" x2="3859.02" y2="578.43" style="stroke:#C0C0C0;stroke-width:5.76"/>
	<line x1="342.42" y1="100.86" x2="3859.02" y2="100.86" style="stroke:#C0C0C0;stroke-width:5.76"/>
	<line x1="342.42" y1="2489.19" x2="342.42" y2="100.86" style="stroke:#C0C0C0;stroke-width:5.76"/>
	<line x1="1034.30" y1="2489.19" x2="1034.30" y2="100.86" style="stroke:#C0C0C0;stroke-width:5.76"/>
	<line x1="1726.07" y1="2489.19" x2="1726.07" y2="100.86" style="stroke:#C0C0C0;stroke-width:5.76"/>
	<line x1="2417.83" y1="2489.19" x2="2417.83" y2="100.86" style="stroke:#C0C0C0;stroke-width:5.76"/>
	<line x1="3109.71" y1="2489.19" x2="3109.71" y2="100.86" style="stroke:#C0C0C0;stroke-width:5.76"/>
	<line x1="3801.48" y1="2489.19" x2="3801.48" y2="100.86" style="stroke:#C0C0C0;stroke-width:5.76"/>
	<path d=" M376.94 1363.15 L411.59 1079.38 L446.12 1007.85 L480.77 1010.82 L515.29 1027.78 L549.95 1045.10 L584.47 1060.20 L619.12 1074.43 L653.65 1088.04 L688.30 1093.37 L722.82 1104.38 L757.47 1114.40 L792.00 1123.44 L826.65 1131.61 L861.30 1138.91 L895.83 1145.47 L930.48 1151.28 L965.00 1156.60 L999.65 1161.31 L1034.18 1170.34 L1068.83 1174.18 L1103.36 1177.52 L1138.01 1180.61 L1172.53 1183.33 L1207.18 1185.81 L1241.71 1188.04 L1276.36 1190.14 L1310.88 1191.87 L1345.53 1193.48 L1380.06 1202.15 L1414.71 1203.51 L1449.24 1204.62 L1483.89 1205.73 L1518.41 1206.60 L1553.06 1207.47 L1587.59 1208.21 L1622.24 1208.83 L1656.77 1209.32 L1691.42 1209.82 L1725.94 1220.46 L1760.59 1220.83 L1795.24 1221.08 L1829.77 1221.33 L1864.42 1221.57 L1898.94 1221.82 L1933.59 1221.95 L1968.12 1222.07 L2002.77 1222.19 L2037.30 1222.19 L2071.95 1229.74 L2106.47 1229.74 L2141.12 1229.74 L2175.65 1229.74 L2210.30 1229.74 L2244.82 1229.62 L2279.48 1229.62 L2314.00 1229.49 L2348.65 1229.49 L2383.18 1229.37 L2417.83 1233.83 L2452.35 1233.70 L2487.00 1233.58 L2521.53 1233.45 L2556.18 1233.33 L2590.71 1233.21 L2625.36 1233.08 L2659.88 1232.96 L2694.53 1232.84 L2729.06 1232.71 L2763.71 1233.58 L2798.36 1233.45 L2832.89 1233.33 L2867.54 1233.21 L2902.06 1233.08 L2936.71 1232.84 L2971.24 1232.71 L3005.89 1232.59 L3040.41 1232.46 L3075.06 1232.22 L3109.59 1238.28 L3144.24 1238.16 L3178.77 1238.03 L3213.42 1237.79 L3247.94 1237.66 L3282.59 1237.54 L3317.12 1237.41 L3351.77 1237.17 L3386.30 1237.04 L3420.95 1236.92 L3455.47 1248.68 L3490.12 1248.55 L3524.65 1248.43 L3559.30 1248.18 L3593.82 1248.06 L3628.47 1247.93 L3663.00 1247.81 L3697.65 1247.69 L3732.18 1247.44 L3766.83 1247.32 L3801.48 1247.19" stroke-linejoin="round" style="fill:none;stroke:#E41A1C;stroke-width:8.64"/>
	<path d=" M376.94 2422.48 L411.59 1518.58 L446.12 1220.96 L480.77 1159.08 L515.29 1146.83 L549.95 1148.68 L584.47 1154.62 L619.12 1160.56 L653.65 1166.63 L688.30 1165.51 L722.82 1171.08 L757.47 1176.53 L792.00 1181.60 L826.65 1186.55 L861.30 1191.13 L895.83 1195.59 L930.48 1199.67 L965.00 1203.38 L999.65 1206.97 L1034.18 1216.62 L1068.83 1219.47 L1103.36 1222.19 L1138.01 1224.54 L1172.53 1226.77 L1207.18 1228.63 L1241.71 1230.48 L1276.36 1231.97 L1310.88 1233.45 L1345.53 1234.69 L1380.06 1244.59 L1414.71 1245.58 L1449.24 1246.45 L1483.89 1247.19 L1518.41 1247.93 L1553.06 1248.55 L1587.59 1249.17 L1622.24 1249.67 L1656.77 1250.04 L1691.42 1250.41 L1725.94 1263.77 L1760.59 1264.15 L1795.24 1264.39 L1829.77 1264.64 L1864.42 1264.76 L1898.94 1265.01 L1933.59 1265.14 L1968.12 1265.26 L2002.77 1265.38 L2037.30 1265.38 L2071.95 1277.26 L2106.47 1277.39 L2141.12 1277.39 L2175.65 1277.39 L2210.30 1277.51 L2244.82 1277.51 L2279.48 1277.51 L2314.00 1277.51 L2348.65 1277.39 L2383.18 1277.39 L2417.83 1282.21 L2452.35 1282.09 L2487.00 1282.09 L2521.53 1281.97 L2556.18 1281.84 L2590.71 1281.84 L2625.36 1281.72 L2659.88 1281.60 L2694.53 1281.47 L2729.06 1281.47 L2763.71 1285.56 L2798.36 1285.56 L2832.89 1285.43 L2867.54 1285.31 L2902.06 1285.18 L2936.71 1285.06 L2971.24 1284.94 L3005.89 1284.81 L3040.41 1284.69 L3075.06 1284.57 L3109.59 1296.07 L3144.24 1295.95 L3178.77 1295.83 L3213.42 1295.70 L3247.94 1295.58 L3282.59 1295.46 L3317.12 1295.33 L3351.77 1295.08 L3386.30 1294.96 L3420.95 1294.84 L3455.47 1314.27 L3490.12 1314.14 L3524.65 1314.02 L3559.30 1313.89 L3593.82 1313.77 L3628.47 1313.52 L3663.00 1313.40 L3697.65 1313.28 L3732.18 1313.15 L3766.83 1312.90 L3801.48 1312.78" stroke-linejoin="round" style="fill:none;stroke:#377EB8;stroke-width:8.64"/>
	<path d=" M376.94 303.94 L411.59 640.06 L446.12 794.75 L480.77 862.56 L515.29 908.85 L549.95 941.40 L584.47 965.90 L619.12 988.42 L653.65 1009.34 L688.30 1021.34 L722.82 1037.68 L757.47 1052.28 L792.00 1065.15 L826.65 1076.53 L861.30 1086.56 L895.83 1095.35 L930.48 1103.02 L965.00 1109.70 L999.65 1115.64 L1034.18 1124.06 L1068.83 1128.76 L1103.36 1132.97 L1138.01 1136.68 L1172.53 1140.02 L1207.18 1142.99 L1241.71 1145.71 L1276.36 1148.19 L1310.88 1150.42 L1345.53 1152.40 L1380.06 1159.82 L1414.71 1161.43 L1449.24 1162.92 L1483.89 1164.15 L1518.41 1165.27 L1553.06 1166.26 L1587.59 1167.12 L1622.24 1167.99 L1656.77 1168.61 L1691.42 1169.23 L1725.94 1177.15 L1760.59 1177.52 L1795.24 1177.89 L1829.77 1178.14 L1864.42 1178.38 L1898.94 1178.63 L1933.59 1178.76 L1968.12 1178.88 L2002.77 1179.00 L2037.30 1179.13 L2071.95 1182.22 L2106.47 1182.22 L2141.12 1182.10 L2175.65 1182.10 L2210.30 1181.97 L2244.82 1181.85 L2279.48 1181.73 L2314.00 1181.60 L2348.65 1181.48 L2383.18 1181.35 L2417.83 1185.44 L2452.35 1185.31 L2487.00 1185.19 L2521.53 1184.94 L2556.18 1184.82 L2590.71 1184.70 L2625.36 1184.45 L2659.88 1184.32 L2694.53 1184.08 L2729.06 1183.95 L2763.71 1181.60 L2798.36 1181.48 L2832.89 1181.23 L2867.54 1181.11 L2902.06 1180.86 L2936.71 1180.74 L2971.24 1180.49 L3005.89 1180.36 L3040.41 1180.24 L3075.06 1179.99 L3109.59 1180.49 L3144.24 1180.36 L3178.77 1180.12 L3213.42 1179.99 L3247.94 1179.75 L3282.59 1179.62 L3317.12 1179.50 L3351.77 1179.25 L3386.30 1179.13 L3420.95 1179.00 L3455.47 1183.09 L3490.12 1182.84 L3524.65 1182.72 L3559.30 1182.59 L3593.82 1182.47 L3628.47 1182.34 L3663.00 1182.10 L3697.65 1181.97 L3732.18 1181.85 L3766.83 1181.73 L3801.48 1181.60" stroke-linejoin="round" style="fill:none;stroke:#4DAF4A;stroke-width:8.64"/>
	<line x1="342.42" y1="2489.19" x2="342.42" y2="100.86" style="stroke:#000000;stroke-width:5.76"/>
	<line x1="342.42" y1="2489.19" x2="302.45" y2="2489.19" style="stroke:#000000;stroke-width:5.76"/>
	<text x="282.40" y="2524.21" style="font-family:'Helvetica';font-size:99.99px;fill:#000000" text-anchor="end">-.3</text>
	<line x1="342.42" y1="2011.50" x2="302.45" y2="2011.50" style="stroke:#000000;stroke-width:5.76"/>
	<text x="282.40" y="2046.52" style="font-family:'Helvetica';font-size:99.99px;fill:#000000" text-anchor="end">-.2</text>
	<line x1="342.42" y1="1533.81" x2="302.45" y2="1533.81" style="stroke:#000000;stroke-width:5.76"/>
	<text x="282.40" y="1568.83" style="font-family:'Helvetica';font-size:99.99px;fill:#000000" text-anchor="end">-.1</text>
	<line x1="342.42" y1="1056.12" x2="302.45" y2="1056.12" style="stroke:#000000;stroke-width:5.76"/>
	<text x="282.40" y="1091.14" style="font-family:'Helvetica';font-size:99.99px;fill:#000000" text-anchor="end">0</text>
	<line x1="342.42" y1="578.43" x2="302.45" y2="578.43" style="stroke:#000000;stroke-width:5.76"/>
	<text x="282.40" y="613.45" style="font-family:'Helvetica';font-size:99.99px;fill:#000000" text-anchor="end">.1</text>
	<line x1="342.42" y1="100.86" x2="302.45" y2="100.86" style="stroke:#000000;stroke-width:5.76"/>
	<text x="282.40" y="135.89" style="font-family:'Helvetica';font-size:99.99px;fill:#000000" text-anchor="end">.2</text>
	<line x1="342.42" y1="2489.19" x2="3859.02" y2="2489.19" style="stroke:#000000;stroke-width:5.76"/>
	<line x1="342.42" y1="2489.19" x2="342.42" y2="2529.16" style="stroke:#000000;stroke-width:5.76"/>
	<text x="342.42" y="2619.14" style="font-family:'Helvetica';font-size:99.99px;fill:#000000" text-anchor="middle">0</text>
	<line x1="1034.30" y1="2489.19" x2="1034.30" y2="2529.16" style="stroke:#000000;stroke-width:5.76"/>
	<text x="1034.30" y="2619.14" style="font-family:'Helvetica';font-size:99.99px;fill:#000000" text-anchor="middle">2</text>
	<line x1="1726.07" y1="2489.19" x2="1726.07" y2="2529.16" style="stroke:#000000;stroke-width:5.76"/>
	<text x="1726.07" y="2619.14" style="font-family:'Helvetica';font-size:99.99px;fill:#000000" text-anchor="middle">4</text>
	<line x1="2417.83" y1="2489.19" x2="2417.83" y2="2529.16" style="stroke:#000000;stroke-width:5.76"/>
	<text x="2417.83" y="2619.14" style="font-family:'Helvetica';font-size:99.99px;fill:#000000" text-anchor="middle">6</text>
	<line x1="3109.71" y1="2489.19" x2="3109.71" y2="2529.16" style="stroke:#000000;stroke-width:5.76"/>
	<text x="3109.71" y="2619.14" style="font-family:'Helvetica';font-size:99.99px;fill:#000000" text-anchor="middle">8</text>
	<line x1="3801.48" y1="2489.19" x2="3801.48" y2="2529.16" style="stroke:#000000;stroke-width:5.76"/>
	<text x="3801.48" y="2619.14" style="font-family:'Helvetica';font-size:99.99px;fill:#000000" text-anchor="middle">10</text>
	<text x="2100.78" y="2729.16" style="font-family:'Helvetica';font-size:99.99px;fill:#000000" text-anchor="middle">tt</text>
	<line x1="3142.14" y1="228.57" x2="3342.12" y2="228.57" style="stroke:#E41A1C;stroke-width:8.64"/>
	<line x1="3142.14" y1="368.54" x2="3342.12" y2="368.54" style="stroke:#377EB8;stroke-width:8.64"/>
	<line x1="3142.14" y1="508.50" x2="3342.12" y2="508.50" style="stroke:#4DAF4A;stroke-width:8.64"/>
	<text x="3402.14" y="263.60" style="font-family:'Helvetica';font-size:99.99px;fill:#000000">hdiff</text>
	<text x="3402.14" y="403.57" style="font-family:'Helvetica';font-size:99.99px;fill:#000000">hdiff_lci</text>
	<text x="3402.14" y="543.53" style="font-family:'Helvetica';font-size:99.99px;fill:#000000">hdiff_uci</text>
</svg>
