<?xml version="1.0" encoding="UTF-8" standalone="no"?>
<!-- This is a Stata 18.5 generated SVG file (http://www.stata.com) -->

<svg version="1.1" width="700px" height="509px" viewBox="0 0 3960 2880" xmlns="http://www.w3.org/2000/svg" xmlns:xlink="http://www.w3.org/1999/xlink">
	<desc>Stata Graph - Graph</desc>
	<rect x="0" y="0" width="3960" height="2880" style="fill:#FFFFFF;stroke:none"/>
	<rect x="0.00" y="0.00" width="3959.88" height="2880.00" style="fill:#FFFFFF"/>
	<rect x="2.88" y="2.88" width="3954.12" height="2874.24" style="fill:none;stroke:#FFFFFF;stroke-width:5.76"/>
	<line x1="495.00" y1="2489.19" x2="3859.02" y2="2489.19" style="stroke:#C0C0C0;stroke-opacity:0.50;stroke-width:5.76"/>
	<line x1="495.00" y1="1703.60" x2="3859.02" y2="1703.60" style="stroke:#C0C0C0;stroke-opacity:0.50;stroke-width:5.76"/>
	<line x1="495.00" y1="917.88" x2="3859.02" y2="917.88" style="stroke:#C0C0C0;stroke-opacity:0.50;stroke-width:5.76"/>
	<line x1="495.00" y1="132.17" x2="3859.02" y2="132.17" style="stroke:#C0C0C0;stroke-opacity:0.50;stroke-width:5.76"/>
	<line x1="508.12" y1="2489.19" x2="508.12" y2="100.86" style="stroke:#C0C0C0;stroke-opacity:0.50;stroke-width:5.76"/>
	<line x1="1166.84" y1="2489.19" x2="1166.84" y2="100.86" style="stroke:#C0C0C0;stroke-opacity:0.50;stroke-width:5.76"/>
	<line x1="1825.44" y1="2489.19" x2="1825.44" y2="100.86" style="stroke:#C0C0C0;stroke-opacity:0.50;stroke-width:5.76"/>
	<line x1="2484.16" y1="2489.19" x2="2484.16" y2="100.86" style="stroke:#C0C0C0;stroke-opacity:0.50;stroke-width:5.76"/>
	<line x1="3142.76" y1="2489.19" x2="3142.76" y2="100.86" style="stroke:#C0C0C0;stroke-opacity:0.50;stroke-width:5.76"/>
	<line x1="3801.48" y1="2489.19" x2="3801.48" y2="100.86" style="stroke:#C0C0C0;stroke-opacity:0.50;stroke-width:5.76"/>
	<rect x="508.12" y="2465.67" width="26.36" height="23.51" style="fill:#1C9BDA;fill-opacity:0.50"/>
	<rect x="510.28" y="2467.83" width="22.04" height="19.19" style="fill:none;stroke:#0390D6;stroke-opacity:0.50;stroke-width:4.32"/>
	<rect x="534.48" y="2147.50" width="26.36" height="341.68" style="fill:#1C9BDA;fill-opacity:0.50"/>
	<rect x="536.64" y="2149.66" width="22.04" height="337.36" style="fill:none;stroke:#0390D6;stroke-opacity:0.50;stroke-width:4.32"/>
	<rect x="560.84" y="1793.94" width="26.36" height="695.25" style="fill:#1C9BDA;fill-opacity:0.50"/>
	<rect x="562.99" y="1796.10" width="22.04" height="690.93" style="fill:none;stroke:#0390D6;stroke-opacity:0.50;stroke-width:4.32"/>
	<rect x="587.19" y="1514.99" width="26.36" height="974.19" style="fill:#1C9BDA;fill-opacity:0.50"/>
	<rect x="589.35" y="1517.15" width="22.04" height="969.87" style="fill:none;stroke:#0390D6;stroke-opacity:0.50;stroke-width:4.32"/>
	<rect x="613.55" y="1342.11" width="26.36" height="1147.07" style="fill:#1C9BDA;fill-opacity:0.50"/>
	<rect x="615.71" y="1344.27" width="22.04" height="1142.75" style="fill:none;stroke:#0390D6;stroke-opacity:0.50;stroke-width:4.32"/>
	<rect x="639.91" y="1369.58" width="26.24" height="1119.60" style="fill:#1C9BDA;fill-opacity:0.50"/>
	<rect x="642.07" y="1371.74" width="21.92" height="1115.28" style="fill:none;stroke:#0390D6;stroke-opacity:0.50;stroke-width:4.32"/>
	<rect x="666.15" y="1420.69" width="26.36" height="1068.49" style="fill:#1C9BDA;fill-opacity:0.50"/>
	<rect x="668.31" y="1422.85" width="22.04" height="1064.17" style="fill:none;stroke:#0390D6;stroke-opacity:0.50;stroke-width:4.32"/>
	<rect x="692.51" y="1782.06" width="26.36" height="707.13" style="fill:#1C9BDA;fill-opacity:0.50"/>
	<rect x="694.66" y="1784.22" width="22.04" height="702.81" style="fill:none;stroke:#0390D6;stroke-opacity:0.50;stroke-width:4.32"/>
	<rect x="718.86" y="1738.87" width="26.36" height="750.32" style="fill:#1C9BDA;fill-opacity:0.50"/>
	<rect x="721.02" y="1741.03" width="22.04" height="746.00" style="fill:none;stroke:#0390D6;stroke-opacity:0.50;stroke-width:4.32"/>
	<rect x="745.22" y="1947.14" width="26.36" height="542.04" style="fill:#1C9BDA;fill-opacity:0.50"/>
	<rect x="747.38" y="1949.30" width="22.04" height="537.72" style="fill:none;stroke:#0390D6;stroke-opacity:0.50;stroke-width:4.32"/>
	<rect x="771.58" y="2159.26" width="26.36" height="329.93" style="fill:#1C9BDA;fill-opacity:0.50"/>
	<rect x="773.74" y="2161.42" width="22.04" height="325.61" style="fill:none;stroke:#0390D6;stroke-opacity:0.50;stroke-width:4.32"/>
	<rect x="797.94" y="2155.30" width="26.36" height="333.89" style="fill:#1C9BDA;fill-opacity:0.50"/>
	<rect x="800.10" y="2157.46" width="22.04" height="329.57" style="fill:none;stroke:#0390D6;stroke-opacity:0.50;stroke-width:4.32"/>
	<rect x="824.30" y="2273.11" width="26.36" height="216.07" style="fill:#1C9BDA;fill-opacity:0.50"/>
	<rect x="826.46" y="2275.27" width="22.04" height="211.75" style="fill:none;stroke:#0390D6;stroke-opacity:0.50;stroke-width:4.32"/>
	<rect x="850.66" y="2375.33" width="26.36" height="113.85" style="fill:#1C9BDA;fill-opacity:0.50"/>
	<rect x="852.82" y="2377.49" width="22.04" height="109.53" style="fill:none;stroke:#0390D6;stroke-opacity:0.50;stroke-width:4.32"/>
	<rect x="877.02" y="2387.09" width="26.36" height="102.10" style="fill:#1C9BDA;fill-opacity:0.50"/>
	<rect x="879.18" y="2389.25" width="22.04" height="97.78" style="fill:none;stroke:#0390D6;stroke-opacity:0.50;stroke-width:4.32"/>
	<rect x="903.38" y="2434.24" width="26.24" height="54.95" style="fill:#1C9BDA;fill-opacity:0.50"/>
	<rect x="905.53" y="2436.40" width="21.92" height="50.63" style="fill:none;stroke:#0390D6;stroke-opacity:0.50;stroke-width:4.32"/>
	<rect x="929.61" y="2446.00" width="26.36" height="43.19" style="fill:#1C9BDA;fill-opacity:0.50"/>
	<rect x="931.77" y="2448.16" width="22.04" height="38.87" style="fill:none;stroke:#0390D6;stroke-opacity:0.50;stroke-width:4.32"/>
	<rect x="955.97" y="2449.96" width="26.36" height="39.23" style="fill:#1C9BDA;fill-opacity:0.50"/>
	<rect x="958.13" y="2452.12" width="22.04" height="34.91" style="fill:none;stroke:#0390D6;stroke-opacity:0.50;stroke-width:4.32"/>
	<rect x="982.33" y="2481.39" width="26.36" height="7.80" style="fill:#1C9BDA;fill-opacity:0.50"/>
	<rect x="984.49" y="2483.55" width="22.04" height="3.48" style="fill:none;stroke:#0390D6;stroke-opacity:0.50;stroke-width:4.32"/>
	<rect x="1008.69" y="2481.39" width="26.36" height="7.80" style="fill:#1C9BDA;fill-opacity:0.50"/>
	<rect x="1010.85" y="2483.55" width="22.04" height="3.48" style="fill:none;stroke:#0390D6;stroke-opacity:0.50;stroke-width:4.32"/>
	<rect x="1035.05" y="2477.43" width="26.36" height="11.76" style="fill:#1C9BDA;fill-opacity:0.50"/>
	<rect x="1037.20" y="2479.59" width="22.04" height="7.44" style="fill:none;stroke:#0390D6;stroke-opacity:0.50;stroke-width:4.32"/>
	<rect x="1061.40" y="2485.23" width="26.36" height="3.96" style="fill:#1C9BDA;fill-opacity:0.50"/>
	<rect x="1063.56" y="2487.03" width="22.04" height="0.36" style="fill:none;stroke:#0390D6;stroke-opacity:0.50;stroke-width:4.32"/>
	<rect x="1087.76" y="2485.23" width="26.36" height="3.96" style="fill:#1C9BDA;fill-opacity:0.50"/>
	<rect x="1089.92" y="2487.03" width="22.04" height="0.36" style="fill:none;stroke:#0390D6;stroke-opacity:0.50;stroke-width:4.32"/>
	<rect x="1114.12" y="2485.23" width="26.36" height="3.96" style="fill:#1C9BDA;fill-opacity:0.50"/>
	<rect x="1116.28" y="2487.03" width="22.04" height="0.36" style="fill:none;stroke:#0390D6;stroke-opacity:0.50;stroke-width:4.32"/>
	<rect x="1140.48" y="2485.23" width="26.36" height="3.96" style="fill:#1C9BDA;fill-opacity:0.50"/>
	<rect x="1142.64" y="2487.03" width="22.04" height="0.36" style="fill:none;stroke:#0390D6;stroke-opacity:0.50;stroke-width:4.32"/>
	<rect x="1957.23" y="2465.67" width="26.36" height="23.51" style="fill:#1C9BDA;fill-opacity:0.50"/>
	<rect x="1959.39" y="2467.83" width="22.04" height="19.19" style="fill:none;stroke:#0390D6;stroke-opacity:0.50;stroke-width:4.32"/>
	<rect x="1983.59" y="2477.43" width="26.36" height="11.76" style="fill:#1C9BDA;fill-opacity:0.50"/>
	<rect x="1985.75" y="2479.59" width="22.04" height="7.44" style="fill:none;stroke:#0390D6;stroke-opacity:0.50;stroke-width:4.32"/>
	<rect x="2009.95" y="2469.51" width="26.23" height="19.68" style="fill:#1C9BDA;fill-opacity:0.50"/>
	<rect x="2012.11" y="2471.67" width="21.92" height="15.36" style="fill:none;stroke:#0390D6;stroke-opacity:0.50;stroke-width:4.32"/>
	<rect x="2036.18" y="2457.75" width="26.36" height="31.43" style="fill:#1C9BDA;fill-opacity:0.50"/>
	<rect x="2038.34" y="2459.91" width="22.04" height="27.11" style="fill:none;stroke:#0390D6;stroke-opacity:0.50;stroke-width:4.32"/>
	<rect x="2062.54" y="2422.48" width="26.36" height="66.70" style="fill:#1C9BDA;fill-opacity:0.50"/>
	<rect x="2064.70" y="2424.64" width="22.04" height="62.38" style="fill:none;stroke:#0390D6;stroke-opacity:0.50;stroke-width:4.32"/>
	<rect x="2088.90" y="2406.77" width="26.36" height="82.42" style="fill:#1C9BDA;fill-opacity:0.50"/>
	<rect x="2091.06" y="2408.93" width="22.04" height="78.10" style="fill:none;stroke:#0390D6;stroke-opacity:0.50;stroke-width:4.32"/>
	<rect x="2115.26" y="2457.75" width="26.36" height="31.43" style="fill:#1C9BDA;fill-opacity:0.50"/>
	<rect x="2117.42" y="2459.91" width="22.04" height="27.11" style="fill:none;stroke:#0390D6;stroke-opacity:0.50;stroke-width:4.32"/>
	<rect x="2141.62" y="2422.48" width="26.36" height="66.70" style="fill:#1C9BDA;fill-opacity:0.50"/>
	<rect x="2143.78" y="2424.64" width="22.04" height="62.38" style="fill:none;stroke:#0390D6;stroke-opacity:0.50;stroke-width:4.32"/>
	<rect x="2167.98" y="2316.30" width="26.36" height="172.88" style="fill:#1C9BDA;fill-opacity:0.50"/>
	<rect x="2170.14" y="2318.46" width="22.04" height="168.56" style="fill:none;stroke:#0390D6;stroke-opacity:0.50;stroke-width:4.32"/>
	<rect x="2194.34" y="2308.50" width="26.36" height="180.68" style="fill:#1C9BDA;fill-opacity:0.50"/>
	<rect x="2196.49" y="2310.66" width="22.04" height="176.36" style="fill:none;stroke:#0390D6;stroke-opacity:0.50;stroke-width:4.32"/>
	<rect x="2220.69" y="2218.16" width="26.36" height="271.02" style="fill:#1C9BDA;fill-opacity:0.50"/>
	<rect x="2222.85" y="2220.32" width="22.04" height="266.70" style="fill:none;stroke:#0390D6;stroke-opacity:0.50;stroke-width:4.32"/>
	<rect x="2247.05" y="2418.52" width="26.36" height="70.66" style="fill:#1C9BDA;fill-opacity:0.50"/>
	<rect x="2249.21" y="2420.68" width="22.04" height="66.34" style="fill:none;stroke:#0390D6;stroke-opacity:0.50;stroke-width:4.32"/>
	<rect x="2273.41" y="2265.31" width="26.23" height="223.87" style="fill:#1C9BDA;fill-opacity:0.50"/>
	<rect x="2275.57" y="2267.47" width="21.92" height="219.55" style="fill:none;stroke:#0390D6;stroke-opacity:0.50;stroke-width:4.32"/>
	<rect x="2299.65" y="2061.00" width="26.36" height="428.19" style="fill:#1C9BDA;fill-opacity:0.50"/>
	<rect x="2301.81" y="2063.16" width="22.04" height="423.87" style="fill:none;stroke:#0390D6;stroke-opacity:0.50;stroke-width:4.32"/>
	<rect x="2326.01" y="2017.81" width="26.36" height="471.38" style="fill:#1C9BDA;fill-opacity:0.50"/>
	<rect x="2328.16" y="2019.97" width="22.04" height="467.06" style="fill:none;stroke:#0390D6;stroke-opacity:0.50;stroke-width:4.32"/>
	<rect x="2352.36" y="1927.47" width="26.36" height="561.72" style="fill:#1C9BDA;fill-opacity:0.50"/>
	<rect x="2354.52" y="1929.63" width="22.04" height="557.40" style="fill:none;stroke:#0390D6;stroke-opacity:0.50;stroke-width:4.32"/>
	<rect x="2378.72" y="1774.26" width="26.36" height="714.93" style="fill:#1C9BDA;fill-opacity:0.50"/>
	<rect x="2380.88" y="1776.42" width="22.04" height="710.61" style="fill:none;stroke:#0390D6;stroke-opacity:0.50;stroke-width:4.32"/>
	<rect x="2405.08" y="2167.05" width="26.36" height="322.13" style="fill:#1C9BDA;fill-opacity:0.50"/>
	<rect x="2407.24" y="2169.21" width="22.04" height="317.81" style="fill:none;stroke:#0390D6;stroke-opacity:0.50;stroke-width:4.32"/>
	<rect x="2431.44" y="1644.57" width="26.36" height="844.62" style="fill:#1C9BDA;fill-opacity:0.50"/>
	<rect x="2433.60" y="1646.73" width="22.04" height="840.30" style="fill:none;stroke:#0390D6;stroke-opacity:0.50;stroke-width:4.32"/>
	<rect x="2457.80" y="1605.34" width="26.36" height="883.85" style="fill:#1C9BDA;fill-opacity:0.50"/>
	<rect x="2459.96" y="1607.50" width="22.04" height="879.53" style="fill:none;stroke:#0390D6;stroke-opacity:0.50;stroke-width:4.32"/>
	<rect x="2484.16" y="2068.92" width="26.36" height="420.27" style="fill:#1C9BDA;fill-opacity:0.50"/>
	<rect x="2486.32" y="2071.08" width="22.04" height="415.95" style="fill:none;stroke:#0390D6;stroke-opacity:0.50;stroke-width:4.32"/>
	<rect x="2510.52" y="1636.77" width="26.36" height="852.42" style="fill:#1C9BDA;fill-opacity:0.50"/>
	<rect x="2512.68" y="1638.93" width="22.04" height="848.10" style="fill:none;stroke:#0390D6;stroke-opacity:0.50;stroke-width:4.32"/>
	<rect x="2536.88" y="1456.09" width="26.36" height="1033.10" style="fill:#1C9BDA;fill-opacity:0.50"/>
	<rect x="2539.03" y="1458.25" width="22.04" height="1028.78" style="fill:none;stroke:#0390D6;stroke-opacity:0.50;stroke-width:4.32"/>
	<rect x="2563.23" y="1483.56" width="26.24" height="1005.62" style="fill:#1C9BDA;fill-opacity:0.50"/>
	<rect x="2565.39" y="1485.72" width="21.92" height="1001.30" style="fill:none;stroke:#0390D6;stroke-opacity:0.50;stroke-width:4.32"/>
	<rect x="2589.47" y="1538.51" width="26.36" height="950.68" style="fill:#1C9BDA;fill-opacity:0.50"/>
	<rect x="2591.63" y="1540.67" width="22.04" height="946.36" style="fill:none;stroke:#0390D6;stroke-opacity:0.50;stroke-width:4.32"/>
	<rect x="2615.83" y="1660.28" width="26.36" height="828.90" style="fill:#1C9BDA;fill-opacity:0.50"/>
	<rect x="2617.99" y="1662.44" width="22.04" height="824.58" style="fill:none;stroke:#0390D6;stroke-opacity:0.50;stroke-width:4.32"/>
	<rect x="2642.19" y="1770.30" width="26.36" height="718.89" style="fill:#1C9BDA;fill-opacity:0.50"/>
	<rect x="2644.35" y="1772.46" width="22.04" height="714.57" style="fill:none;stroke:#0390D6;stroke-opacity:0.50;stroke-width:4.32"/>
	<rect x="2668.55" y="1766.34" width="26.36" height="722.85" style="fill:#1C9BDA;fill-opacity:0.50"/>
	<rect x="2670.70" y="1768.50" width="22.04" height="718.53" style="fill:none;stroke:#0390D6;stroke-opacity:0.50;stroke-width:4.32"/>
	<rect x="2694.90" y="1935.26" width="26.36" height="553.92" style="fill:#1C9BDA;fill-opacity:0.50"/>
	<rect x="2697.06" y="1937.42" width="22.04" height="549.60" style="fill:none;stroke:#0390D6;stroke-opacity:0.50;stroke-width:4.32"/>
	<rect x="2721.26" y="1986.37" width="26.36" height="502.81" style="fill:#1C9BDA;fill-opacity:0.50"/>
	<rect x="2723.42" y="1988.53" width="22.04" height="498.49" style="fill:none;stroke:#0390D6;stroke-opacity:0.50;stroke-width:4.32"/>
	<rect x="2747.62" y="2092.43" width="26.36" height="396.75" style="fill:#1C9BDA;fill-opacity:0.50"/>
	<rect x="2749.78" y="2094.59" width="22.04" height="392.44" style="fill:none;stroke:#0390D6;stroke-opacity:0.50;stroke-width:4.32"/>
	<rect x="2773.98" y="2167.05" width="26.36" height="322.13" style="fill:#1C9BDA;fill-opacity:0.50"/>
	<rect x="2776.14" y="2169.21" width="22.04" height="317.81" style="fill:none;stroke:#0390D6;stroke-opacity:0.50;stroke-width:4.32"/>
	<rect x="2800.34" y="2229.92" width="26.36" height="259.26" style="fill:#1C9BDA;fill-opacity:0.50"/>
	<rect x="2802.50" y="2232.08" width="22.04" height="254.94" style="fill:none;stroke:#0390D6;stroke-opacity:0.50;stroke-width:4.32"/>
	<rect x="2826.70" y="2167.05" width="26.23" height="322.13" style="fill:#1C9BDA;fill-opacity:0.50"/>
	<rect x="2828.86" y="2169.21" width="21.92" height="317.81" style="fill:none;stroke:#0390D6;stroke-opacity:0.50;stroke-width:4.32"/>
	<rect x="2852.93" y="2391.05" width="26.36" height="98.14" style="fill:#1C9BDA;fill-opacity:0.50"/>
	<rect x="2855.09" y="2393.21" width="22.04" height="93.82" style="fill:none;stroke:#0390D6;stroke-opacity:0.50;stroke-width:4.32"/>
	<rect x="2879.29" y="2375.33" width="26.36" height="113.85" style="fill:#1C9BDA;fill-opacity:0.50"/>
	<rect x="2881.45" y="2377.49" width="22.04" height="109.53" style="fill:none;stroke:#0390D6;stroke-opacity:0.50;stroke-width:4.32"/>
	<rect x="2905.65" y="2449.96" width="26.36" height="39.23" style="fill:#1C9BDA;fill-opacity:0.50"/>
	<rect x="2907.81" y="2452.12" width="22.04" height="34.91" style="fill:none;stroke:#0390D6;stroke-opacity:0.50;stroke-width:4.32"/>
	<rect x="2932.01" y="2453.79" width="26.36" height="35.39" style="fill:#1C9BDA;fill-opacity:0.50"/>
	<rect x="2934.17" y="2455.95" width="22.04" height="31.07" style="fill:none;stroke:#0390D6;stroke-opacity:0.50;stroke-width:4.32"/>
	<rect x="2958.37" y="2461.71" width="26.36" height="27.47" style="fill:#1C9BDA;fill-opacity:0.50"/>
	<rect x="2960.53" y="2463.87" width="22.04" height="23.15" style="fill:none;stroke:#0390D6;stroke-opacity:0.50;stroke-width:4.32"/>
	<rect x="2984.73" y="2457.75" width="26.36" height="31.43" style="fill:#1C9BDA;fill-opacity:0.50"/>
	<rect x="2986.89" y="2459.91" width="22.04" height="27.11" style="fill:none;stroke:#0390D6;stroke-opacity:0.50;stroke-width:4.32"/>
	<rect x="3037.44" y="2485.23" width="26.36" height="3.96" style="fill:#1C9BDA;fill-opacity:0.50"/>
	<rect x="3039.60" y="2487.03" width="22.04" height="0.36" style="fill:none;stroke:#0390D6;stroke-opacity:0.50;stroke-width:4.32"/>
	<rect x="3063.80" y="2469.51" width="26.36" height="19.68" style="fill:#1C9BDA;fill-opacity:0.50"/>
	<rect x="3065.96" y="2471.67" width="22.04" height="15.36" style="fill:none;stroke:#0390D6;stroke-opacity:0.50;stroke-width:4.32"/>
	<rect x="3116.52" y="2438.20" width="26.24" height="50.99" style="fill:#1C9BDA;fill-opacity:0.50"/>
	<rect x="3118.68" y="2440.36" width="21.92" height="46.67" style="fill:none;stroke:#0390D6;stroke-opacity:0.50;stroke-width:4.32"/>
	<rect x="3142.76" y="2438.20" width="26.36" height="50.99" style="fill:#1C9BDA;fill-opacity:0.50"/>
	<rect x="3144.91" y="2440.36" width="22.04" height="46.67" style="fill:none;stroke:#0390D6;stroke-opacity:0.50;stroke-width:4.32"/>
	<rect x="3169.11" y="2273.11" width="26.36" height="216.07" style="fill:#1C9BDA;fill-opacity:0.50"/>
	<rect x="3171.27" y="2275.27" width="22.04" height="211.75" style="fill:none;stroke:#0390D6;stroke-opacity:0.50;stroke-width:4.32"/>
	<rect x="3195.47" y="2096.39" width="26.36" height="392.79" style="fill:#1C9BDA;fill-opacity:0.50"/>
	<rect x="3197.63" y="2098.55" width="22.04" height="388.47" style="fill:none;stroke:#0390D6;stroke-opacity:0.50;stroke-width:4.32"/>
	<rect x="3221.83" y="2092.43" width="26.36" height="396.75" style="fill:#1C9BDA;fill-opacity:0.50"/>
	<rect x="3223.99" y="2094.59" width="22.04" height="392.44" style="fill:none;stroke:#0390D6;stroke-opacity:0.50;stroke-width:4.32"/>
	<rect x="3248.19" y="1813.49" width="26.36" height="675.70" style="fill:#1C9BDA;fill-opacity:0.50"/>
	<rect x="3250.35" y="1815.65" width="22.04" height="671.38" style="fill:none;stroke:#0390D6;stroke-opacity:0.50;stroke-width:4.32"/>
	<rect x="3274.55" y="1353.87" width="26.36" height="1135.32" style="fill:#1C9BDA;fill-opacity:0.50"/>
	<rect x="3276.71" y="1356.03" width="22.04" height="1131.00" style="fill:none;stroke:#0390D6;stroke-opacity:0.50;stroke-width:4.32"/>
	<rect x="3300.91" y="882.49" width="26.36" height="1606.70" style="fill:#1C9BDA;fill-opacity:0.50"/>
	<rect x="3303.07" y="884.65" width="22.04" height="1602.38" style="fill:none;stroke:#0390D6;stroke-opacity:0.50;stroke-width:4.32"/>
	<rect x="3327.27" y="104.70" width="26.36" height="2384.49" style="fill:#1C9BDA;fill-opacity:0.50"/>
	<rect x="3329.43" y="106.86" width="22.04" height="2380.17" style="fill:none;stroke:#0390D6;stroke-opacity:0.50;stroke-width:4.32"/>
	<rect x="3353.63" y="171.52" width="26.36" height="2317.66" style="fill:#1C9BDA;fill-opacity:0.50"/>
	<rect x="3355.78" y="173.68" width="22.04" height="2313.34" style="fill:none;stroke:#0390D6;stroke-opacity:0.50;stroke-width:4.32"/>
	<rect x="3379.98" y="678.29" width="26.24" height="1810.89" style="fill:#1C9BDA;fill-opacity:0.50"/>
	<rect x="3382.14" y="680.45" width="21.92" height="1806.57" style="fill:none;stroke:#0390D6;stroke-opacity:0.50;stroke-width:4.32"/>
	<rect x="3406.22" y="666.41" width="26.36" height="1822.77" style="fill:#1C9BDA;fill-opacity:0.50"/>
	<rect x="3408.38" y="668.57" width="22.04" height="1818.45" style="fill:none;stroke:#0390D6;stroke-opacity:0.50;stroke-width:4.32"/>
	<rect x="3432.58" y="1294.96" width="26.36" height="1194.22" style="fill:#1C9BDA;fill-opacity:0.50"/>
	<rect x="3434.74" y="1297.12" width="22.04" height="1189.90" style="fill:none;stroke:#0390D6;stroke-opacity:0.50;stroke-width:4.32"/>
	<rect x="3458.94" y="1758.54" width="26.36" height="730.64" style="fill:#1C9BDA;fill-opacity:0.50"/>
	<rect x="3461.10" y="1760.70" width="22.04" height="726.32" style="fill:none;stroke:#0390D6;stroke-opacity:0.50;stroke-width:4.32"/>
	<rect x="3485.30" y="2096.39" width="26.36" height="392.79" style="fill:#1C9BDA;fill-opacity:0.50"/>
	<rect x="3487.45" y="2098.55" width="22.04" height="388.47" style="fill:none;stroke:#0390D6;stroke-opacity:0.50;stroke-width:4.32"/>
	<rect x="3511.65" y="2343.90" width="26.36" height="145.29" style="fill:#1C9BDA;fill-opacity:0.50"/>
	<rect x="3513.81" y="2346.06" width="22.04" height="140.97" style="fill:none;stroke:#0390D6;stroke-opacity:0.50;stroke-width:4.32"/>
	<rect x="3538.01" y="2465.67" width="26.36" height="23.51" style="fill:#1C9BDA;fill-opacity:0.50"/>
	<rect x="3540.17" y="2467.83" width="22.04" height="19.19" style="fill:none;stroke:#0390D6;stroke-opacity:0.50;stroke-width:4.32"/>
	<rect x="3564.37" y="2477.43" width="26.36" height="11.76" style="fill:#1C9BDA;fill-opacity:0.50"/>
	<rect x="3566.53" y="2479.59" width="22.04" height="7.44" style="fill:none;stroke:#0390D6;stroke-opacity:0.50;stroke-width:4.32"/>
	<rect x="508.12" y="2485.23" width="26.36" height="3.96" style="fill:#86B457;fill-opacity:0.50"/>
	<rect x="510.28" y="2487.03" width="22.04" height="0.36" style="fill:none;stroke:#78AC44;stroke-opacity:0.50;stroke-width:4.32"/>
	<rect x="534.48" y="2394.88" width="26.36" height="94.30" style="fill:#86B457;fill-opacity:0.50"/>
	<rect x="536.64" y="2397.04" width="22.04" height="89.98" style="fill:none;stroke:#78AC44;stroke-opacity:0.50;stroke-width:4.32"/>
	<rect x="560.84" y="2182.77" width="26.36" height="306.41" style="fill:#86B457;fill-opacity:0.50"/>
	<rect x="562.99" y="2184.93" width="22.04" height="302.09" style="fill:none;stroke:#78AC44;stroke-opacity:0.50;stroke-width:4.32"/>
	<rect x="587.19" y="1974.62" width="26.36" height="514.57" style="fill:#86B457;fill-opacity:0.50"/>
	<rect x="589.35" y="1976.78" width="22.04" height="510.25" style="fill:none;stroke:#78AC44;stroke-opacity:0.50;stroke-width:4.32"/>
	<rect x="613.55" y="1566.11" width="26.36" height="923.08" style="fill:#86B457;fill-opacity:0.50"/>
	<rect x="615.71" y="1568.27" width="22.04" height="918.76" style="fill:none;stroke:#78AC44;stroke-opacity:0.50;stroke-width:4.32"/>
	<rect x="639.91" y="1668.20" width="26.24" height="820.98" style="fill:#86B457;fill-opacity:0.50"/>
	<rect x="642.07" y="1670.36" width="21.92" height="816.66" style="fill:none;stroke:#78AC44;stroke-opacity:0.50;stroke-width:4.32"/>
	<rect x="666.15" y="1711.39" width="26.36" height="777.79" style="fill:#86B457;fill-opacity:0.50"/>
	<rect x="668.31" y="1713.55" width="22.04" height="773.47" style="fill:none;stroke:#78AC44;stroke-opacity:0.50;stroke-width:4.32"/>
	<rect x="692.51" y="1346.07" width="26.36" height="1143.11" style="fill:#86B457;fill-opacity:0.50"/>
	<rect x="694.66" y="1348.23" width="22.04" height="1138.79" style="fill:none;stroke:#78AC44;stroke-opacity:0.50;stroke-width:4.32"/>
	<rect x="718.86" y="1703.60" width="26.36" height="785.59" style="fill:#86B457;fill-opacity:0.50"/>
	<rect x="721.02" y="1705.76" width="22.04" height="781.27" style="fill:none;stroke:#78AC44;stroke-opacity:0.50;stroke-width:4.32"/>
	<rect x="745.22" y="1782.06" width="26.36" height="707.13" style="fill:#86B457;fill-opacity:0.50"/>
	<rect x="747.38" y="1784.22" width="22.04" height="702.81" style="fill:none;stroke:#78AC44;stroke-opacity:0.50;stroke-width:4.32"/>
	<rect x="771.58" y="1962.86" width="26.36" height="526.33" style="fill:#86B457;fill-opacity:0.50"/>
	<rect x="773.74" y="1965.02" width="22.04" height="522.01" style="fill:none;stroke:#78AC44;stroke-opacity:0.50;stroke-width:4.32"/>
	<rect x="797.94" y="1856.80" width="26.36" height="632.38" style="fill:#86B457;fill-opacity:0.50"/>
	<rect x="800.10" y="1858.96" width="22.04" height="628.06" style="fill:none;stroke:#78AC44;stroke-opacity:0.50;stroke-width:4.32"/>
	<rect x="824.30" y="2135.62" width="26.36" height="353.56" style="fill:#86B457;fill-opacity:0.50"/>
	<rect x="826.46" y="2137.78" width="22.04" height="349.24" style="fill:none;stroke:#78AC44;stroke-opacity:0.50;stroke-width:4.32"/>
	<rect x="850.66" y="2182.77" width="26.36" height="306.41" style="fill:#86B457;fill-opacity:0.50"/>
	<rect x="852.82" y="2184.93" width="22.04" height="302.09" style="fill:none;stroke:#78AC44;stroke-opacity:0.50;stroke-width:4.32"/>
	<rect x="877.02" y="2300.71" width="26.36" height="188.48" style="fill:#86B457;fill-opacity:0.50"/>
	<rect x="879.18" y="2302.87" width="22.04" height="184.16" style="fill:none;stroke:#78AC44;stroke-opacity:0.50;stroke-width:4.32"/>
	<rect x="903.38" y="2324.22" width="26.24" height="164.96" style="fill:#86B457;fill-opacity:0.50"/>
	<rect x="905.53" y="2326.38" width="21.92" height="160.64" style="fill:none;stroke:#78AC44;stroke-opacity:0.50;stroke-width:4.32"/>
	<rect x="929.61" y="2375.33" width="26.36" height="113.85" style="fill:#86B457;fill-opacity:0.50"/>
	<rect x="931.77" y="2377.49" width="22.04" height="109.53" style="fill:none;stroke:#78AC44;stroke-opacity:0.50;stroke-width:4.32"/>
	<rect x="955.97" y="2387.09" width="26.36" height="102.10" style="fill:#86B457;fill-opacity:0.50"/>
	<rect x="958.13" y="2389.25" width="22.04" height="97.78" style="fill:none;stroke:#78AC44;stroke-opacity:0.50;stroke-width:4.32"/>
	<rect x="982.33" y="2434.24" width="26.36" height="54.95" style="fill:#86B457;fill-opacity:0.50"/>
	<rect x="984.49" y="2436.40" width="22.04" height="50.63" style="fill:none;stroke:#78AC44;stroke-opacity:0.50;stroke-width:4.32"/>
	<rect x="1008.69" y="2446.00" width="26.36" height="43.19" style="fill:#86B457;fill-opacity:0.50"/>
	<rect x="1010.85" y="2448.16" width="22.04" height="38.87" style="fill:none;stroke:#78AC44;stroke-opacity:0.50;stroke-width:4.32"/>
	<rect x="1035.05" y="2449.96" width="26.36" height="39.23" style="fill:#86B457;fill-opacity:0.50"/>
	<rect x="1037.20" y="2452.12" width="22.04" height="34.91" style="fill:none;stroke:#78AC44;stroke-opacity:0.50;stroke-width:4.32"/>
	<rect x="1061.40" y="2481.39" width="26.36" height="7.80" style="fill:#86B457;fill-opacity:0.50"/>
	<rect x="1063.56" y="2483.55" width="22.04" height="3.48" style="fill:none;stroke:#78AC44;stroke-opacity:0.50;stroke-width:4.32"/>
	<rect x="1087.76" y="2485.23" width="26.36" height="3.96" style="fill:#86B457;fill-opacity:0.50"/>
	<rect x="1089.92" y="2487.03" width="22.04" height="0.36" style="fill:none;stroke:#78AC44;stroke-opacity:0.50;stroke-width:4.32"/>
	<rect x="1114.12" y="2473.47" width="26.36" height="15.72" style="fill:#86B457;fill-opacity:0.50"/>
	<rect x="1116.28" y="2475.63" width="22.04" height="11.40" style="fill:none;stroke:#78AC44;stroke-opacity:0.50;stroke-width:4.32"/>
	<rect x="1166.84" y="2485.23" width="26.36" height="3.96" style="fill:#86B457;fill-opacity:0.50"/>
	<rect x="1169.00" y="2487.03" width="22.04" height="0.36" style="fill:none;stroke:#78AC44;stroke-opacity:0.50;stroke-width:4.32"/>
	<rect x="1193.20" y="2485.23" width="26.23" height="3.96" style="fill:#86B457;fill-opacity:0.50"/>
	<rect x="1195.36" y="2487.03" width="21.92" height="0.36" style="fill:none;stroke:#78AC44;stroke-opacity:0.50;stroke-width:4.32"/>
	<rect x="1219.43" y="2485.23" width="26.36" height="3.96" style="fill:#86B457;fill-opacity:0.50"/>
	<rect x="1221.59" y="2487.03" width="22.04" height="0.36" style="fill:none;stroke:#78AC44;stroke-opacity:0.50;stroke-width:4.32"/>
	<rect x="1245.79" y="2485.23" width="26.36" height="3.96" style="fill:#86B457;fill-opacity:0.50"/>
	<rect x="1247.95" y="2487.03" width="22.04" height="0.36" style="fill:none;stroke:#78AC44;stroke-opacity:0.50;stroke-width:4.32"/>
	<rect x="2062.54" y="2465.67" width="26.36" height="23.51" style="fill:#86B457;fill-opacity:0.50"/>
	<rect x="2064.70" y="2467.83" width="22.04" height="19.19" style="fill:none;stroke:#78AC44;stroke-opacity:0.50;stroke-width:4.32"/>
	<rect x="2088.90" y="2477.43" width="26.36" height="11.76" style="fill:#86B457;fill-opacity:0.50"/>
	<rect x="2091.06" y="2479.59" width="22.04" height="7.44" style="fill:none;stroke:#78AC44;stroke-opacity:0.50;stroke-width:4.32"/>
	<rect x="2115.26" y="2469.51" width="26.36" height="19.68" style="fill:#86B457;fill-opacity:0.50"/>
	<rect x="2117.42" y="2471.67" width="22.04" height="15.36" style="fill:none;stroke:#78AC44;stroke-opacity:0.50;stroke-width:4.32"/>
	<rect x="2141.62" y="2457.75" width="26.36" height="31.43" style="fill:#86B457;fill-opacity:0.50"/>
	<rect x="2143.78" y="2459.91" width="22.04" height="27.11" style="fill:none;stroke:#78AC44;stroke-opacity:0.50;stroke-width:4.32"/>
	<rect x="2167.98" y="2422.48" width="26.36" height="66.70" style="fill:#86B457;fill-opacity:0.50"/>
	<rect x="2170.14" y="2424.64" width="22.04" height="62.38" style="fill:none;stroke:#78AC44;stroke-opacity:0.50;stroke-width:4.32"/>
	<rect x="2194.34" y="2406.77" width="26.36" height="82.42" style="fill:#86B457;fill-opacity:0.50"/>
	<rect x="2196.49" y="2408.93" width="22.04" height="78.10" style="fill:none;stroke:#78AC44;stroke-opacity:0.50;stroke-width:4.32"/>
	<rect x="2220.69" y="2457.75" width="26.36" height="31.43" style="fill:#86B457;fill-opacity:0.50"/>
	<rect x="2222.85" y="2459.91" width="22.04" height="27.11" style="fill:none;stroke:#78AC44;stroke-opacity:0.50;stroke-width:4.32"/>
	<rect x="2247.05" y="2391.05" width="26.36" height="98.14" style="fill:#86B457;fill-opacity:0.50"/>
	<rect x="2249.21" y="2393.21" width="22.04" height="93.82" style="fill:none;stroke:#78AC44;stroke-opacity:0.50;stroke-width:4.32"/>
	<rect x="2273.41" y="2347.73" width="26.23" height="141.45" style="fill:#86B457;fill-opacity:0.50"/>
	<rect x="2275.57" y="2349.89" width="21.92" height="137.13" style="fill:none;stroke:#78AC44;stroke-opacity:0.50;stroke-width:4.32"/>
	<rect x="2299.65" y="2308.50" width="26.36" height="180.68" style="fill:#86B457;fill-opacity:0.50"/>
	<rect x="2301.81" y="2310.66" width="22.04" height="176.36" style="fill:none;stroke:#78AC44;stroke-opacity:0.50;stroke-width:4.32"/>
	<rect x="2326.01" y="2218.16" width="26.36" height="271.02" style="fill:#86B457;fill-opacity:0.50"/>
	<rect x="2328.16" y="2220.32" width="22.04" height="266.70" style="fill:none;stroke:#78AC44;stroke-opacity:0.50;stroke-width:4.32"/>
	<rect x="2352.36" y="2194.53" width="26.36" height="294.66" style="fill:#86B457;fill-opacity:0.50"/>
	<rect x="2354.52" y="2196.69" width="22.04" height="290.34" style="fill:none;stroke:#78AC44;stroke-opacity:0.50;stroke-width:4.32"/>
	<rect x="2378.72" y="2304.54" width="26.36" height="184.64" style="fill:#86B457;fill-opacity:0.50"/>
	<rect x="2380.88" y="2306.70" width="22.04" height="180.32" style="fill:none;stroke:#78AC44;stroke-opacity:0.50;stroke-width:4.32"/>
	<rect x="2405.08" y="2068.92" width="26.36" height="420.27" style="fill:#86B457;fill-opacity:0.50"/>
	<rect x="2407.24" y="2071.08" width="22.04" height="415.95" style="fill:none;stroke:#78AC44;stroke-opacity:0.50;stroke-width:4.32"/>
	<rect x="2431.44" y="2194.53" width="26.36" height="294.66" style="fill:#86B457;fill-opacity:0.50"/>
	<rect x="2433.60" y="2196.69" width="22.04" height="290.34" style="fill:none;stroke:#78AC44;stroke-opacity:0.50;stroke-width:4.32"/>
	<rect x="2457.80" y="1927.47" width="26.36" height="561.72" style="fill:#86B457;fill-opacity:0.50"/>
	<rect x="2459.96" y="1929.63" width="22.04" height="557.40" style="fill:none;stroke:#78AC44;stroke-opacity:0.50;stroke-width:4.32"/>
	<rect x="2484.16" y="1774.26" width="26.36" height="714.93" style="fill:#86B457;fill-opacity:0.50"/>
	<rect x="2486.32" y="1776.42" width="22.04" height="710.61" style="fill:none;stroke:#78AC44;stroke-opacity:0.50;stroke-width:4.32"/>
	<rect x="2510.52" y="1727.11" width="26.36" height="762.08" style="fill:#86B457;fill-opacity:0.50"/>
	<rect x="2512.68" y="1729.27" width="22.04" height="757.76" style="fill:none;stroke:#78AC44;stroke-opacity:0.50;stroke-width:4.32"/>
	<rect x="2536.88" y="1648.53" width="26.36" height="840.66" style="fill:#86B457;fill-opacity:0.50"/>
	<rect x="2539.03" y="1650.69" width="22.04" height="836.34" style="fill:none;stroke:#78AC44;stroke-opacity:0.50;stroke-width:4.32"/>
	<rect x="2563.23" y="1621.05" width="26.24" height="868.13" style="fill:#86B457;fill-opacity:0.50"/>
	<rect x="2565.39" y="1623.21" width="21.92" height="863.81" style="fill:none;stroke:#78AC44;stroke-opacity:0.50;stroke-width:4.32"/>
	<rect x="2589.47" y="1636.77" width="26.36" height="852.42" style="fill:#86B457;fill-opacity:0.50"/>
	<rect x="2591.63" y="1638.93" width="22.04" height="848.10" style="fill:none;stroke:#78AC44;stroke-opacity:0.50;stroke-width:4.32"/>
	<rect x="2615.83" y="1456.09" width="26.36" height="1033.10" style="fill:#86B457;fill-opacity:0.50"/>
	<rect x="2617.99" y="1458.25" width="22.04" height="1028.78" style="fill:none;stroke:#78AC44;stroke-opacity:0.50;stroke-width:4.32"/>
	<rect x="2642.19" y="1483.56" width="26.36" height="1005.62" style="fill:#86B457;fill-opacity:0.50"/>
	<rect x="2644.35" y="1485.72" width="22.04" height="1001.30" style="fill:none;stroke:#78AC44;stroke-opacity:0.50;stroke-width:4.32"/>
	<rect x="2668.55" y="1538.51" width="26.36" height="950.68" style="fill:#86B457;fill-opacity:0.50"/>
	<rect x="2670.70" y="1540.67" width="22.04" height="946.36" style="fill:none;stroke:#78AC44;stroke-opacity:0.50;stroke-width:4.32"/>
	<rect x="2694.90" y="1660.28" width="26.36" height="828.90" style="fill:#86B457;fill-opacity:0.50"/>
	<rect x="2697.06" y="1662.44" width="22.04" height="824.58" style="fill:none;stroke:#78AC44;stroke-opacity:0.50;stroke-width:4.32"/>
	<rect x="2721.26" y="1770.30" width="26.36" height="718.89" style="fill:#86B457;fill-opacity:0.50"/>
	<rect x="2723.42" y="1772.46" width="22.04" height="714.57" style="fill:none;stroke:#78AC44;stroke-opacity:0.50;stroke-width:4.32"/>
	<rect x="2747.62" y="1766.34" width="26.36" height="722.85" style="fill:#86B457;fill-opacity:0.50"/>
	<rect x="2749.78" y="1768.50" width="22.04" height="718.53" style="fill:none;stroke:#78AC44;stroke-opacity:0.50;stroke-width:4.32"/>
	<rect x="2773.98" y="1935.26" width="26.36" height="553.92" style="fill:#86B457;fill-opacity:0.50"/>
	<rect x="2776.14" y="1937.42" width="22.04" height="549.60" style="fill:none;stroke:#78AC44;stroke-opacity:0.50;stroke-width:4.32"/>
	<rect x="2800.34" y="1986.37" width="26.36" height="502.81" style="fill:#86B457;fill-opacity:0.50"/>
	<rect x="2802.50" y="1988.53" width="22.04" height="498.49" style="fill:none;stroke:#78AC44;stroke-opacity:0.50;stroke-width:4.32"/>
	<rect x="2826.70" y="2092.43" width="26.23" height="396.75" style="fill:#86B457;fill-opacity:0.50"/>
	<rect x="2828.86" y="2094.59" width="21.92" height="392.44" style="fill:none;stroke:#78AC44;stroke-opacity:0.50;stroke-width:4.32"/>
	<rect x="2852.93" y="1978.58" width="26.36" height="510.61" style="fill:#86B457;fill-opacity:0.50"/>
	<rect x="2855.09" y="1980.74" width="22.04" height="506.29" style="fill:none;stroke:#78AC44;stroke-opacity:0.50;stroke-width:4.32"/>
	<rect x="2879.29" y="2269.27" width="26.36" height="219.91" style="fill:#86B457;fill-opacity:0.50"/>
	<rect x="2881.45" y="2271.43" width="22.04" height="215.59" style="fill:none;stroke:#78AC44;stroke-opacity:0.50;stroke-width:4.32"/>
	<rect x="2905.65" y="2284.99" width="26.36" height="204.19" style="fill:#86B457;fill-opacity:0.50"/>
	<rect x="2907.81" y="2287.15" width="22.04" height="199.87" style="fill:none;stroke:#78AC44;stroke-opacity:0.50;stroke-width:4.32"/>
	<rect x="2932.01" y="2383.13" width="26.36" height="106.06" style="fill:#86B457;fill-opacity:0.50"/>
	<rect x="2934.17" y="2385.29" width="22.04" height="101.74" style="fill:none;stroke:#78AC44;stroke-opacity:0.50;stroke-width:4.32"/>
	<rect x="2958.37" y="2414.56" width="26.36" height="74.62" style="fill:#86B457;fill-opacity:0.50"/>
	<rect x="2960.53" y="2416.72" width="22.04" height="70.30" style="fill:none;stroke:#78AC44;stroke-opacity:0.50;stroke-width:4.32"/>
	<rect x="2984.73" y="2414.56" width="26.36" height="74.62" style="fill:#86B457;fill-opacity:0.50"/>
	<rect x="2986.89" y="2416.72" width="22.04" height="70.30" style="fill:none;stroke:#78AC44;stroke-opacity:0.50;stroke-width:4.32"/>
	<rect x="3011.09" y="2469.51" width="26.36" height="19.68" style="fill:#86B457;fill-opacity:0.50"/>
	<rect x="3013.24" y="2471.67" width="22.04" height="15.36" style="fill:none;stroke:#78AC44;stroke-opacity:0.50;stroke-width:4.32"/>
	<rect x="3037.44" y="2469.51" width="26.36" height="19.68" style="fill:#86B457;fill-opacity:0.50"/>
	<rect x="3039.60" y="2471.67" width="22.04" height="15.36" style="fill:none;stroke:#78AC44;stroke-opacity:0.50;stroke-width:4.32"/>
	<rect x="3063.80" y="2469.51" width="26.36" height="19.68" style="fill:#86B457;fill-opacity:0.50"/>
	<rect x="3065.96" y="2471.67" width="22.04" height="15.36" style="fill:none;stroke:#78AC44;stroke-opacity:0.50;stroke-width:4.32"/>
	<rect x="3090.16" y="2485.23" width="26.36" height="3.96" style="fill:#86B457;fill-opacity:0.50"/>
	<rect x="3092.32" y="2487.03" width="22.04" height="0.36" style="fill:none;stroke:#78AC44;stroke-opacity:0.50;stroke-width:4.32"/>
	<rect x="3116.52" y="2469.51" width="26.24" height="19.68" style="fill:#86B457;fill-opacity:0.50"/>
	<rect x="3118.68" y="2471.67" width="21.92" height="15.36" style="fill:none;stroke:#78AC44;stroke-opacity:0.50;stroke-width:4.32"/>
	<rect x="3169.11" y="2438.20" width="26.36" height="50.99" style="fill:#86B457;fill-opacity:0.50"/>
	<rect x="3171.27" y="2440.36" width="22.04" height="46.67" style="fill:none;stroke:#78AC44;stroke-opacity:0.50;stroke-width:4.32"/>
	<rect x="3195.47" y="2438.20" width="26.36" height="50.99" style="fill:#86B457;fill-opacity:0.50"/>
	<rect x="3197.63" y="2440.36" width="22.04" height="46.67" style="fill:none;stroke:#78AC44;stroke-opacity:0.50;stroke-width:4.32"/>
	<rect x="3221.83" y="2229.92" width="26.36" height="259.26" style="fill:#86B457;fill-opacity:0.50"/>
	<rect x="3223.99" y="2232.08" width="22.04" height="254.94" style="fill:none;stroke:#78AC44;stroke-opacity:0.50;stroke-width:4.32"/>
	<rect x="3248.19" y="2139.58" width="26.36" height="349.60" style="fill:#86B457;fill-opacity:0.50"/>
	<rect x="3250.35" y="2141.74" width="22.04" height="345.28" style="fill:none;stroke:#78AC44;stroke-opacity:0.50;stroke-width:4.32"/>
	<rect x="3274.55" y="1841.09" width="26.36" height="648.10" style="fill:#86B457;fill-opacity:0.50"/>
	<rect x="3276.71" y="1843.25" width="22.04" height="643.78" style="fill:none;stroke:#78AC44;stroke-opacity:0.50;stroke-width:4.32"/>
	<rect x="3300.91" y="1475.76" width="26.36" height="1013.42" style="fill:#86B457;fill-opacity:0.50"/>
	<rect x="3303.07" y="1477.92" width="22.04" height="1009.10" style="fill:none;stroke:#78AC44;stroke-opacity:0.50;stroke-width:4.32"/>
	<rect x="3327.27" y="1173.19" width="26.36" height="1316.00" style="fill:#86B457;fill-opacity:0.50"/>
	<rect x="3329.43" y="1175.35" width="22.04" height="1311.68" style="fill:none;stroke:#78AC44;stroke-opacity:0.50;stroke-width:4.32"/>
	<rect x="3353.63" y="293.30" width="26.36" height="2195.89" style="fill:#86B457;fill-opacity:0.50"/>
	<rect x="3355.78" y="295.46" width="22.04" height="2191.57" style="fill:none;stroke:#78AC44;stroke-opacity:0.50;stroke-width:4.32"/>
	<rect x="3379.98" y="100.86" width="26.24" height="2388.33" style="fill:#86B457;fill-opacity:0.50"/>
	<rect x="3382.14" y="103.02" width="21.92" height="2384.01" style="fill:none;stroke:#78AC44;stroke-opacity:0.50;stroke-width:4.32"/>
	<rect x="3406.22" y="120.41" width="26.36" height="2368.77" style="fill:#86B457;fill-opacity:0.50"/>
	<rect x="3408.38" y="122.57" width="22.04" height="2364.45" style="fill:none;stroke:#78AC44;stroke-opacity:0.50;stroke-width:4.32"/>
	<rect x="3432.58" y="631.14" width="26.36" height="1858.04" style="fill:#86B457;fill-opacity:0.50"/>
	<rect x="3434.74" y="633.30" width="22.04" height="1853.72" style="fill:none;stroke:#78AC44;stroke-opacity:0.50;stroke-width:4.32"/>
	<rect x="3458.94" y="933.60" width="26.36" height="1555.59" style="fill:#86B457;fill-opacity:0.50"/>
	<rect x="3461.10" y="935.76" width="22.04" height="1551.27" style="fill:none;stroke:#78AC44;stroke-opacity:0.50;stroke-width:4.32"/>
	<rect x="3485.30" y="1758.54" width="26.36" height="730.64" style="fill:#86B457;fill-opacity:0.50"/>
	<rect x="3487.45" y="1760.70" width="22.04" height="726.32" style="fill:none;stroke:#78AC44;stroke-opacity:0.50;stroke-width:4.32"/>
	<rect x="3511.65" y="2053.20" width="26.36" height="435.98" style="fill:#86B457;fill-opacity:0.50"/>
	<rect x="3513.81" y="2055.36" width="22.04" height="431.67" style="fill:none;stroke:#78AC44;stroke-opacity:0.50;stroke-width:4.32"/>
	<rect x="3538.01" y="2371.37" width="26.36" height="117.81" style="fill:#86B457;fill-opacity:0.50"/>
	<rect x="3540.17" y="2373.53" width="22.04" height="113.49" style="fill:none;stroke:#78AC44;stroke-opacity:0.50;stroke-width:4.32"/>
	<rect x="3564.37" y="2473.47" width="26.36" height="15.72" style="fill:#86B457;fill-opacity:0.50"/>
	<rect x="3566.53" y="2475.63" width="22.04" height="11.40" style="fill:none;stroke:#78AC44;stroke-opacity:0.50;stroke-width:4.32"/>
	<rect x="3590.73" y="2485.23" width="26.36" height="3.96" style="fill:#86B457;fill-opacity:0.50"/>
	<rect x="3592.89" y="2487.03" width="22.04" height="0.36" style="fill:none;stroke:#78AC44;stroke-opacity:0.50;stroke-width:4.32"/>
	<line x1="495.00" y1="2489.19" x2="495.00" y2="100.86" style="stroke:#000000;stroke-width:5.76"/>
	<line x1="495.00" y1="2489.19" x2="454.91" y2="2489.19" style="stroke:#000000;stroke-width:5.76"/>
	<text x="434.98" y="2524.21" style="font-family:'Helvetica';font-size:99.99px;fill:#000000" text-anchor="end">0</text>
	<line x1="495.00" y1="1703.60" x2="454.91" y2="1703.60" style="stroke:#000000;stroke-width:5.76"/>
	<text x="434.98" y="1738.62" style="font-family:'Helvetica';font-size:99.99px;fill:#000000" text-anchor="end">200</text>
	<line x1="495.00" y1="917.88" x2="454.91" y2="917.88" style="stroke:#000000;stroke-width:5.76"/>
	<text x="434.98" y="952.91" style="font-family:'Helvetica';font-size:99.99px;fill:#000000" text-anchor="end">400</text>
	<line x1="495.00" y1="132.17" x2="454.91" y2="132.17" style="stroke:#000000;stroke-width:5.76"/>
	<text x="434.98" y="167.20" style="font-family:'Helvetica';font-size:99.99px;fill:#000000" text-anchor="end">600</text>
	<text x="190.71" y="1294.96" style="font-family:'Helvetica';font-size:99.99px;fill:#000000" transform="rotate(-90 190.71,1294.96)" text-anchor="middle">Frequency</text>
	<line x1="495.00" y1="2489.19" x2="3859.02" y2="2489.19" style="stroke:#000000;stroke-width:5.76"/>
	<line x1="508.12" y1="2489.19" x2="508.12" y2="2529.16" style="stroke:#000000;stroke-width:5.76"/>
	<text x="508.12" y="2619.14" style="font-family:'Helvetica';font-size:99.99px;fill:#000000" text-anchor="middle">0.0</text>
	<line x1="1166.84" y1="2489.19" x2="1166.84" y2="2529.16" style="stroke:#000000;stroke-width:5.76"/>
	<text x="1166.84" y="2619.14" style="font-family:'Helvetica';font-size:99.99px;fill:#000000" text-anchor="middle">0.2</text>
	<line x1="1825.44" y1="2489.19" x2="1825.44" y2="2529.16" style="stroke:#000000;stroke-width:5.76"/>
	<text x="1825.44" y="2619.14" style="font-family:'Helvetica';font-size:99.99px;fill:#000000" text-anchor="middle">0.4</text>
	<line x1="2484.16" y1="2489.19" x2="2484.16" y2="2529.16" style="stroke:#000000;stroke-width:5.76"/>
	<text x="2484.16" y="2619.14" style="font-family:'Helvetica';font-size:99.99px;fill:#000000" text-anchor="middle">0.6</text>
	<line x1="3142.76" y1="2489.19" x2="3142.76" y2="2529.16" style="stroke:#000000;stroke-width:5.76"/>
	<text x="3142.76" y="2619.14" style="font-family:'Helvetica';font-size:99.99px;fill:#000000" text-anchor="middle">0.8</text>
	<line x1="3801.48" y1="2489.19" x2="3801.48" y2="2529.16" style="stroke:#000000;stroke-width:5.76"/>
	<text x="3801.48" y="2619.14" style="font-family:'Helvetica';font-size:99.99px;fill:#000000" text-anchor="middle">1.0</text>
	<text x="2177.01" y="2729.16" style="font-family:'Helvetica';font-size:99.99px;fill:#000000" text-anchor="middle">10-Year Survival</text>
	<rect x="529.53" y="135.39" width="1998.19" height="257.28" style="fill:#FFFFFF"/>
	<rect x="532.41" y="138.27" width="1992.43" height="251.52" style="fill:none;stroke:#FFFFFF;stroke-width:5.76"/>
	<rect x="538.19" y="144.05" width="86.38" height="99.99" style="fill:#1C9BDA;fill-opacity:0.50"/>
	<rect x="540.35" y="146.21" width="82.06" height="95.67" style="fill:none;stroke:#0390D6;stroke-opacity:0.50;stroke-width:4.32"/>
	<rect x="538.19" y="284.02" width="86.38" height="99.99" style="fill:#86B457;fill-opacity:0.50"/>
	<rect x="540.35" y="286.18" width="82.06" height="95.67" style="fill:none;stroke:#78AC44;stroke-opacity:0.50;stroke-width:4.32"/>
	<text x="684.59" y="229.07" style="font-family:'Helvetica';font-size:99.99px;fill:#000000">Standard</text>
	<text x="684.59" y="369.04" style="font-family:'Helvetica';font-size:99.99px;fill:#000000">Temporal Recalibration: 2 Year Window</text>
</svg>
