<?xml version="1.0" encoding="UTF-8" standalone="no"?>
<!-- This is a Stata 18.5 generated SVG file (http://www.stata.com) -->

<svg version="1.1" width="700px" height="509px" viewBox="0 0 3960 2880" xmlns="http://www.w3.org/2000/svg" xmlns:xlink="http://www.w3.org/1999/xlink">
	<desc>Stata Graph - Graph</desc>
	<rect x="0" y="0" width="3960" height="2880" style="fill:#FFFFFF;stroke:none"/>
	<rect x="0.00" y="0.00" width="3959.88" height="2880.00" style="fill:#FFFFFF"/>
	<rect x="2.88" y="2.88" width="3954.12" height="2874.24" style="fill:none;stroke:#FFFFFF;stroke-width:5.76"/>
	<line x1="461.71" y1="2302.81" x2="3859.02" y2="2302.81" style="stroke:#C0C0C0;stroke-opacity:0.50;stroke-width:5.76"/>
	<line x1="461.71" y1="1862.37" x2="3859.02" y2="1862.37" style="stroke:#C0C0C0;stroke-opacity:0.50;stroke-width:5.76"/>
	<line x1="461.71" y1="1422.06" x2="3859.02" y2="1422.06" style="stroke:#C0C0C0;stroke-opacity:0.50;stroke-width:5.76"/>
	<line x1="461.71" y1="981.62" x2="3859.02" y2="981.62" style="stroke:#C0C0C0;stroke-opacity:0.50;stroke-width:5.76"/>
	<line x1="461.71" y1="541.18" x2="3859.02" y2="541.18" style="stroke:#C0C0C0;stroke-opacity:0.50;stroke-width:5.76"/>
	<line x1="461.71" y1="100.86" x2="3859.02" y2="100.86" style="stroke:#C0C0C0;stroke-opacity:0.50;stroke-width:5.76"/>
	<line x1="461.71" y1="2302.81" x2="461.71" y2="100.86" style="stroke:#C0C0C0;stroke-opacity:0.50;stroke-width:5.76"/>
	<line x1="1129.59" y1="2302.81" x2="1129.59" y2="100.86" style="stroke:#C0C0C0;stroke-opacity:0.50;stroke-width:5.76"/>
	<line x1="1797.59" y1="2302.81" x2="1797.59" y2="100.86" style="stroke:#C0C0C0;stroke-opacity:0.50;stroke-width:5.76"/>
	<line x1="2465.59" y1="2302.81" x2="2465.59" y2="100.86" style="stroke:#C0C0C0;stroke-opacity:0.50;stroke-width:5.76"/>
	<line x1="3133.47" y1="2302.81" x2="3133.47" y2="100.86" style="stroke:#C0C0C0;stroke-opacity:0.50;stroke-width:5.76"/>
	<line x1="3801.48" y1="2302.81" x2="3801.48" y2="100.86" style="stroke:#C0C0C0;stroke-opacity:0.50;stroke-width:5.76"/>
	<defs>
		<path id="path_ESefELCl" d="M461.59 100.86 L461.59 100.86 L528.41 100.86 L595.24 100.86 L662.06 100.86 L728.76 100.86 L795.59 100.86 L862.41 100.86 L929.24 100.86 L995.94 100.86 L1062.77 100.86 L1129.59 100.86 L1196.42 100.86 L1263.24 100.86 L1329.94 100.86 L1396.77 100.86 L1463.59 100.86 L1530.42 100.86 L1597.12 100.86 L1663.94 100.86 L1730.77 100.86 L1797.59 100.86 L1864.29 100.86 L1931.12 100.86 L1997.94 100.86 L2064.77 100.86 L2131.47 100.86 L2198.30 100.86 L2265.12 100.86 L2331.95 100.86 L2398.65 100.86 L2465.47 100.86 L2532.30 100.86 L2599.12 100.86 L2665.95 100.86 L2732.65 100.86 L2799.47 100.86 L2866.30 100.86 L2933.12 100.86 L2999.82 100.86 L3066.65 100.86 L3133.47 100.86 L3200.30 100.86 L3267.00 100.86 L3333.83 100.86 L3400.65 100.86 L3467.48 100.86 L3534.18 100.86 L3601.00 100.86 L3667.83 100.86 L3734.65 100.86 L3801.48 100.86 L3801.48 2302.81 L461.59 2302.81 L461.59 100.86 Z" stroke-linejoin="round"/>
	</defs>
	<defs>
		<clipPath id="clipPath_nzQYjfDR">
			<use xlink:href="#path_ESefELCl"/>
		</clipPath>
	</defs>
	<use xlink:href="#path_ESefELCl" style="stroke:none;fill:#F7BABB"/>
	<use xlink:href="#path_ESefELCl" style="fill:none;stroke:#E41A1C;stroke-width:17.28" clip-path="url(#clipPath_nzQYjfDR)"/>
	<defs>
		<path id="path_HhLiuGri" d="M461.59 2302.81 L461.59 2302.81 L528.41 2176.46 L595.24 2089.21 L662.06 2029.32 L728.76 1982.66 L795.59 1943.06 L862.41 1907.67 L929.24 1875.12 L995.94 1844.55 L1062.77 1815.84 L1129.59 1788.49 L1196.42 1762.01 L1263.24 1736.76 L1329.94 1712.75 L1396.77 1689.61 L1463.59 1667.46 L1530.42 1646.17 L1597.12 1625.63 L1663.94 1605.71 L1730.77 1586.52 L1797.59 1567.84 L1864.29 1549.27 L1931.12 1531.21 L1997.94 1513.63 L2064.77 1496.68 L2131.47 1480.10 L2198.30 1464.13 L2265.12 1448.66 L2331.95 1433.56 L2398.65 1418.96 L2465.47 1404.73 L2532.30 1390.50 L2599.12 1376.64 L2665.95 1363.15 L2732.65 1350.03 L2799.47 1337.28 L2866.30 1324.91 L2933.12 1312.78 L2999.82 1300.90 L3066.65 1289.27 L3133.47 1277.76 L3200.30 1266.13 L3267.00 1254.74 L3333.83 1243.60 L3400.65 1232.71 L3467.48 1221.95 L3534.18 1211.43 L3601.00 1201.03 L3667.83 1191.01 L3734.65 1180.98 L3801.48 1171.21 L3801.48 2302.81 L461.59 2302.81 L461.59 2302.81 Z" stroke-linejoin="round"/>
	</defs>
	<defs>
		<clipPath id="clipPath_JCFVIMOu">
			<use xlink:href="#path_HhLiuGri"/>
		</clipPath>
	</defs>
	<use xlink:href="#path_HhLiuGri" style="stroke:none;fill:#C3D8EA"/>
	<use xlink:href="#path_HhLiuGri" style="fill:none;stroke:#377EB8;stroke-width:17.28" clip-path="url(#clipPath_JCFVIMOu)"/>
	<defs>
		<path id="path_ObrqkLTU" d="M461.59 2302.81 L461.59 2302.81 L528.41 2295.51 L595.24 2288.70 L662.06 2282.52 L728.76 2276.45 L795.59 2270.64 L862.41 2265.07 L929.24 2259.62 L995.94 2254.30 L1062.77 2249.10 L1129.59 2244.03 L1196.42 2238.58 L1263.24 2233.14 L1329.94 2227.94 L1396.77 2222.74 L1463.59 2217.67 L1530.42 2212.72 L1597.12 2207.77 L1663.94 2203.07 L1730.77 2198.36 L1797.59 2193.54 L1864.29 2188.46 L1931.12 2183.51 L1997.94 2178.56 L2064.77 2173.74 L2131.47 2169.03 L2198.30 2164.33 L2265.12 2159.75 L2331.95 2155.30 L2398.65 2150.84 L2465.47 2146.39 L2532.30 2141.68 L2599.12 2136.86 L2665.95 2132.16 L2732.65 2127.58 L2799.47 2123.00 L2866.30 2118.54 L2933.12 2114.21 L2999.82 2109.76 L3066.65 2105.55 L3133.47 2101.09 L3200.30 2096.39 L3267.00 2091.81 L3333.83 2087.36 L3400.65 2082.90 L3467.48 2078.45 L3534.18 2074.11 L3601.00 2069.78 L3667.83 2065.58 L3734.65 2061.49 L3801.48 2057.41 L3801.48 2302.81 L461.59 2302.81 L461.59 2302.81 Z" stroke-linejoin="round"/>
	</defs>
	<defs>
		<clipPath id="clipPath_kZGvzqTk">
			<use xlink:href="#path_ObrqkLTU"/>
		</clipPath>
	</defs>
	<use xlink:href="#path_ObrqkLTU" style="stroke:none;fill:#CAE7C9"/>
	<use xlink:href="#path_ObrqkLTU" style="fill:none;stroke:#4DAF4A;stroke-width:17.28" clip-path="url(#clipPath_kZGvzqTk)"/>
	<line x1="461.71" y1="2302.81" x2="461.71" y2="100.86" style="stroke:#000000;stroke-width:5.76"/>
	<line x1="461.71" y1="2302.81" x2="421.74" y2="2302.81" style="stroke:#000000;stroke-width:5.76"/>
	<text x="401.69" y="2337.84" style="font-family:'Helvetica';font-size:99.99px;fill:#000000" text-anchor="end">0.0</text>
	<line x1="461.71" y1="1862.37" x2="421.74" y2="1862.37" style="stroke:#000000;stroke-width:5.76"/>
	<text x="401.69" y="1897.40" style="font-family:'Helvetica';font-size:99.99px;fill:#000000" text-anchor="end">0.2</text>
	<line x1="461.71" y1="1422.06" x2="421.74" y2="1422.06" style="stroke:#000000;stroke-width:5.76"/>
	<text x="401.69" y="1457.08" style="font-family:'Helvetica';font-size:99.99px;fill:#000000" text-anchor="end">0.4</text>
	<line x1="461.71" y1="981.62" x2="421.74" y2="981.62" style="stroke:#000000;stroke-width:5.76"/>
	<text x="401.69" y="1016.64" style="font-family:'Helvetica';font-size:99.99px;fill:#000000" text-anchor="end">0.6</text>
	<line x1="461.71" y1="541.18" x2="421.74" y2="541.18" style="stroke:#000000;stroke-width:5.76"/>
	<text x="401.69" y="576.20" style="font-family:'Helvetica';font-size:99.99px;fill:#000000" text-anchor="end">0.8</text>
	<line x1="461.71" y1="100.86" x2="421.74" y2="100.86" style="stroke:#000000;stroke-width:5.76"/>
	<text x="401.69" y="135.89" style="font-family:'Helvetica';font-size:99.99px;fill:#000000" text-anchor="end">1.0</text>
	<text x="190.71" y="1201.77" style="font-family:'Helvetica';font-size:99.99px;fill:#000000" transform="rotate(-90 190.71,1201.77)" text-anchor="middle">Probability</text>
	<line x1="461.71" y1="2302.81" x2="3859.02" y2="2302.81" style="stroke:#000000;stroke-width:5.76"/>
	<line x1="461.71" y1="2302.81" x2="461.71" y2="2342.78" style="stroke:#000000;stroke-width:5.76"/>
	<text x="461.71" y="2432.77" style="font-family:'Helvetica';font-size:99.99px;fill:#000000" text-anchor="middle">0</text>
	<line x1="1129.59" y1="2302.81" x2="1129.59" y2="2342.78" style="stroke:#000000;stroke-width:5.76"/>
	<text x="1129.59" y="2432.77" style="font-family:'Helvetica';font-size:99.99px;fill:#000000" text-anchor="middle">1</text>
	<line x1="1797.59" y1="2302.81" x2="1797.59" y2="2342.78" style="stroke:#000000;stroke-width:5.76"/>
	<text x="1797.59" y="2432.77" style="font-family:'Helvetica';font-size:99.99px;fill:#000000" text-anchor="middle">2</text>
	<line x1="2465.59" y1="2302.81" x2="2465.59" y2="2342.78" style="stroke:#000000;stroke-width:5.76"/>
	<text x="2465.59" y="2432.77" style="font-family:'Helvetica';font-size:99.99px;fill:#000000" text-anchor="middle">3</text>
	<line x1="3133.47" y1="2302.81" x2="3133.47" y2="2342.78" style="stroke:#000000;stroke-width:5.76"/>
	<text x="3133.47" y="2432.77" style="font-family:'Helvetica';font-size:99.99px;fill:#000000" text-anchor="middle">4</text>
	<line x1="3801.48" y1="2302.81" x2="3801.48" y2="2342.78" style="stroke:#000000;stroke-width:5.76"/>
	<text x="3801.48" y="2432.77" style="font-family:'Helvetica';font-size:99.99px;fill:#000000" text-anchor="middle">5</text>
	<text x="2160.43" y="2542.78" style="font-family:'Helvetica';font-size:99.99px;fill:#000000" text-anchor="middle">Time from diagnosis</text>
	<rect x="496.24" y="2627.42" width="3328.26" height="117.19" style="fill:#FFFFFF"/>
	<rect x="499.12" y="2630.30" width="3322.50" height="111.44" style="fill:none;stroke:#FFFFFF;stroke-width:5.76"/>
	<rect x="504.90" y="2635.96" width="197.63" height="99.99" style="fill:#F7BABB"/>
	<rect x="509.22" y="2640.28" width="188.99" height="91.35" style="fill:none;stroke:#E41A1C;stroke-width:8.64"/>
	<rect x="1113.63" y="2635.96" width="197.75" height="99.99" style="fill:#C3D8EA"/>
	<rect x="1117.95" y="2640.28" width="189.11" height="91.35" style="fill:none;stroke:#377EB8;stroke-width:8.64"/>
	<rect x="2382.56" y="2635.96" width="197.75" height="99.99" style="fill:#CAE7C9"/>
	<rect x="2386.88" y="2640.28" width="189.11" height="91.35" style="fill:none;stroke:#4DAF4A;stroke-width:8.64"/>
	<text x="761.93" y="2720.98" style="font-family:'Helvetica';font-size:99.99px;fill:#000000">Alive</text>
	<text x="1370.66" y="2720.98" style="font-family:'Helvetica';font-size:99.99px;fill:#000000">Death from Cancer</text>
	<text x="2639.59" y="2720.98" style="font-family:'Helvetica';font-size:99.99px;fill:#000000">Death from Other Causes</text>
</svg>
