<?xml version="1.0" encoding="UTF-8" standalone="no"?>
<!-- This is a Stata 18.5 generated SVG file (http://www.stata.com) -->

<svg version="1.1" width="700px" height="509px" viewBox="0 0 3960 2880" xmlns="http://www.w3.org/2000/svg" xmlns:xlink="http://www.w3.org/1999/xlink">
	<desc>Stata Graph - Graph</desc>
	<rect x="0" y="0" width="3960" height="2880" style="fill:#FFFFFF;stroke:none"/>
	<rect x="0.00" y="0.00" width="3959.88" height="2880.00" style="fill:#FFFFFF"/>
	<rect x="2.88" y="2.88" width="3954.12" height="2874.24" style="fill:none;stroke:#FFFFFF;stroke-width:5.76"/>
	<line x1="465.80" y1="2486.46" x2="3859.02" y2="2486.46" style="stroke:#C0C0C0;stroke-opacity:0.50;stroke-width:5.76"/>
	<line x1="465.80" y1="2009.39" x2="3859.02" y2="2009.39" style="stroke:#C0C0C0;stroke-opacity:0.50;stroke-width:5.76"/>
	<line x1="465.80" y1="1532.20" x2="3859.02" y2="1532.20" style="stroke:#C0C0C0;stroke-opacity:0.50;stroke-width:5.76"/>
	<line x1="465.80" y1="1055.13" x2="3859.02" y2="1055.13" style="stroke:#C0C0C0;stroke-opacity:0.50;stroke-width:5.76"/>
	<line x1="465.80" y1="577.93" x2="3859.02" y2="577.93" style="stroke:#C0C0C0;stroke-opacity:0.50;stroke-width:5.76"/>
	<line x1="465.80" y1="100.86" x2="3859.02" y2="100.86" style="stroke:#C0C0C0;stroke-opacity:0.50;stroke-width:5.76"/>
	<line x1="465.80" y1="2489.19" x2="465.80" y2="100.86" style="stroke:#C0C0C0;stroke-opacity:0.50;stroke-width:5.76"/>
	<line x1="1132.93" y1="2489.19" x2="1132.93" y2="100.86" style="stroke:#C0C0C0;stroke-opacity:0.50;stroke-width:5.76"/>
	<line x1="1800.07" y1="2489.19" x2="1800.07" y2="100.86" style="stroke:#C0C0C0;stroke-opacity:0.50;stroke-width:5.76"/>
	<line x1="2467.20" y1="2489.19" x2="2467.20" y2="100.86" style="stroke:#C0C0C0;stroke-opacity:0.50;stroke-width:5.76"/>
	<line x1="3134.34" y1="2489.19" x2="3134.34" y2="100.86" style="stroke:#C0C0C0;stroke-opacity:0.50;stroke-width:5.76"/>
	<line x1="3801.48" y1="2489.19" x2="3801.48" y2="100.86" style="stroke:#C0C0C0;stroke-opacity:0.50;stroke-width:5.76"/>
	<path d=" M465.67 181.67 L469.01 186.62 L472.35 191.45 L475.70 196.27 L479.04 201.10 L482.38 205.93 L485.72 210.75 L489.06 215.58 L492.40 220.41 L495.74 225.23 L499.08 230.06 L502.43 234.88 L505.77 239.71 L509.11 244.54 L512.45 249.36 L515.79 254.19 L519.13 258.89 L522.47 263.72 L525.81 268.55 L529.16 273.37 L532.50 278.07 L535.84 282.90 L539.18 287.73 L542.52 292.55 L545.86 297.26 L549.20 302.08 L552.54 306.79 L555.89 311.61 L559.23 316.31 L562.57 321.14 L565.91 325.97 L569.25 330.67 L572.59 335.37 L575.93 340.20 L579.27 344.90 L582.62 349.73 L585.96 354.43 L589.30 359.13 L592.64 363.96 L595.98 368.66 L599.32 373.37 L602.66 378.07 L606.00 382.89 L609.35 387.60 L612.69 392.30 L616.03 397.00 L619.37 401.71 L622.71 406.41 L626.05 411.23 L629.27 415.94 L632.61 420.64 L635.95 425.34 L639.29 430.04 L642.63 434.75 L645.98 439.33 L649.32 444.03 L652.66 448.73 L656.00 453.43 L659.34 458.14 L662.68 462.84 L666.02 467.54 L669.36 472.12 L672.71 476.82 L676.05 481.53 L679.39 486.23 L682.73 490.81 L686.07 495.51 L689.41 500.21 L692.75 504.79 L696.09 509.49 L699.44 514.07 L702.78 518.78 L706.12 523.36 L709.46 528.06 L712.80 532.64 L716.14 537.34 L719.48 541.92 L722.82 546.62 L726.17 551.20 L729.51 555.78 L732.85 560.48 L736.19 565.06 L739.53 569.64 L742.87 574.34 L746.21 578.92 L749.55 583.50 L752.90 588.08 L756.24 592.66 L759.58 597.36 L762.92 601.94 L766.26 606.52 L769.60 611.10 L772.94 615.68 L776.28 620.25 L779.63 624.83 L782.97 629.41 L786.31 633.99 L789.65 638.57 L792.99 643.15 L796.33 647.73 L799.67 652.31 L803.01 656.76 L806.36 661.34 L809.70 665.92 L813.04 670.50 L816.26 675.08 L819.60 679.53 L822.94 684.11 L826.28 688.69 L829.62 693.15 L832.96 697.72 L836.30 702.30 L839.64 706.76 L842.99 711.34 L846.33 715.79 L849.67 720.37 L853.01 724.83 L856.35 729.41 L859.69 733.86 L863.03 738.44 L866.37 742.89 L869.72 747.35 L873.06 751.93 L876.40 756.38 L879.74 760.84 L883.08 765.42 L886.42 769.87 L889.76 774.33 L893.10 778.91 L896.45 783.36 L899.79 787.82 L903.13 792.27 L906.47 796.73 L909.81 801.18 L913.15 805.64 L916.49 810.09 L919.83 814.55 L923.18 819.00 L926.52 823.46 L929.86 827.91 L933.20 832.37 L936.54 836.82 L939.88 841.28 L943.22 845.73 L946.56 850.19 L949.91 854.64 L953.25 858.98 L956.59 863.43 L959.93 867.89 L963.27 872.34 L966.61 876.67 L969.95 881.13 L973.29 885.58 L976.64 889.91 L979.98 894.37 L983.32 898.82 L986.66 903.16 L990.00 907.61 L993.34 911.94 L996.68 916.40 L1000.02 920.73 L1003.24 925.18 L1006.58 929.52 L1009.92 933.97 L1013.27 938.30 L1016.61 942.63 L1019.95 947.09 L1023.29 951.42 L1026.63 955.75 L1029.97 960.08 L1033.31 964.54 L1036.65 968.87 L1039.99 973.20 L1043.34 977.53 L1046.68 981.86 L1050.02 986.32 L1053.36 990.65 L1056.70 994.98 L1060.04 999.31 L1063.38 1003.64 L1066.72 1007.98 L1070.07 1012.31 L1073.41 1016.64 L1076.75 1020.97 L1080.09 1025.30 L1083.43 1029.63 L1086.77 1033.84 L1090.11 1038.17 L1093.46 1042.50 L1096.80 1046.83 L1100.14 1051.17 L1103.48 1055.37 L1106.82 1059.70 L1110.16 1064.04 L1113.50 1068.37 L1116.84 1072.57 L1120.19 1076.91 L1123.53 1081.11 L1126.87 1085.45 L1130.21 1089.78 L1133.55 1093.98 L1136.89 1098.32 L1140.23 1102.52 L1143.57 1106.85 L1146.92 1111.06 L1150.26 1115.39 L1153.60 1119.60 L1156.94 1123.81 L1160.28 1128.14 L1163.62 1132.35 L1166.96 1136.56 L1170.30 1140.89 L1173.65 1145.09 L1176.99 1149.30 L1180.33 1153.51 L1183.67 1157.84 L1187.01 1162.05 L1190.23 1166.26 L1193.57 1170.46 L1196.91 1174.67 L1200.25 1178.88 L1203.59 1183.09 L1206.93 1187.29 L1210.28 1191.50 L1213.62 1195.71 L1216.96 1199.92 L1220.30 1204.13 L1223.64 1208.33 L1226.98 1212.54 L1230.32 1216.75 L1233.66 1220.96 L1237.01 1225.16 L1240.35 1229.25 L1243.69 1233.45 L1247.03 1237.66 L1250.37 1241.87 L1253.71 1245.95 L1257.05 1250.16 L1260.39 1254.37 L1263.73 1258.45 L1267.08 1262.66 L1270.42 1266.87 L1273.76 1270.95 L1277.10 1275.16 L1280.44 1279.24 L1283.78 1283.45 L1287.12 1287.54 L1290.46 1291.74 L1293.81 1295.83 L1297.15 1299.91 L1300.49 1304.12 L1303.83 1308.20 L1307.17 1312.29 L1310.51 1316.49 L1313.85 1320.58 L1317.20 1324.66 L1320.54 1328.87 L1323.88 1332.95 L1327.22 1337.04 L1330.56 1341.12 L1333.90 1345.20 L1337.24 1349.29 L1340.58 1353.50 L1343.93 1357.58 L1347.27 1361.66 L1350.61 1365.75 L1353.95 1369.83 L1357.29 1373.92 L1360.63 1378.00 L1363.97 1382.08 L1367.31 1386.17 L1370.66 1390.13 L1374.00 1394.21 L1377.21 1398.29 L1380.56 1402.38 L1383.90 1406.46 L1387.24 1410.55 L1390.58 1414.51 L1393.92 1418.59 L1397.26 1422.67 L1400.60 1426.63 L1403.94 1430.72 L1407.29 1434.80 L1410.63 1438.76 L1413.97 1442.85 L1417.31 1446.93 L1420.65 1450.89 L1423.99 1454.97 L1427.33 1458.93 L1430.67 1463.02 L1434.02 1466.98 L1437.36 1470.94 L1440.70 1475.02 L1444.04 1478.98 L1447.38 1483.07 L1450.72 1487.03 L1454.06 1490.99 L1457.40 1495.07 L1460.75 1499.03 L1464.09 1502.99 L1467.43 1506.95 L1470.77 1510.91 L1474.11 1514.99 L1477.45 1518.95 L1480.79 1522.92 L1484.13 1526.88 L1487.48 1530.84 L1490.82 1534.80 L1494.16 1538.76 L1497.50 1542.72 L1500.84 1546.68 L1504.18 1550.64 L1507.52 1554.60 L1510.86 1558.56 L1514.21 1562.52 L1517.55 1566.48 L1520.89 1570.44 L1524.23 1574.27 L1527.57 1578.23 L1530.91 1582.19 L1534.25 1586.15 L1537.59 1590.11 L1540.94 1593.95 L1544.28 1597.91 L1547.62 1601.87 L1550.96 1605.71 L1554.30 1609.67 L1557.64 1613.50 L1560.98 1617.46 L1564.20 1621.42 L1567.54 1625.26 L1570.88 1629.22 L1574.22 1633.06 L1577.57 1636.89 L1580.91 1640.85 L1584.25 1644.69 L1587.59 1648.65 L1590.93 1652.49 L1594.27 1656.32 L1597.61 1660.28 L1600.95 1664.12 L1604.30 1667.95 L1607.64 1671.79 L1610.98 1675.75 L1614.32 1679.59 L1617.66 1683.42 L1621.00 1687.26 L1624.34 1691.10 L1627.68 1694.93 L1631.03 1698.89 L1634.37 1702.73 L1637.71 1706.57 L1641.05 1710.40 L1644.39 1714.24 L1647.73 1718.07 L1651.07 1721.91 L1654.41 1725.62 L1657.76 1729.46 L1661.10 1733.30 L1664.44 1737.13 L1667.78 1740.97 L1671.12 1744.81 L1674.46 1748.52 L1677.80 1752.35 L1681.14 1756.19 L1684.49 1760.03 L1687.83 1763.74 L1691.17 1767.58 L1694.51 1771.41 L1697.85 1775.13 L1701.19 1778.96 L1704.53 1782.67 L1707.87 1786.51 L1711.22 1790.35 L1714.56 1794.06 L1717.90 1797.77 L1721.24 1801.61 L1724.58 1805.32 L1727.92 1809.16 L1731.26 1812.87 L1734.60 1816.71 L1737.95 1820.42 L1741.29 1824.13 L1744.63 1827.84 L1747.97 1831.68 L1751.19 1835.39 L1754.53 1839.11 L1757.87 1842.82 L1761.21 1846.66 L1764.55 1850.37 L1767.89 1854.08 L1771.23 1857.79 L1774.58 1861.51 L1777.92 1865.22 L1781.26 1868.93 L1784.60 1872.64 L1787.94 1876.36 L1791.28 1880.07 L1794.62 1883.78 L1797.96 1887.49 L1801.31 1891.21 L1804.65 1894.92 L1807.99 1898.63 L1811.33 1902.22 L1814.67 1905.93 L1818.01 1909.65 L1821.35 1913.36 L1824.69 1916.95 L1828.04 1920.66 L1831.38 1924.37 L1834.72 1927.96 L1838.06 1931.67 L1841.40 1935.39 L1844.74 1938.98 L1848.08 1942.69 L1851.42 1946.28 L1854.77 1949.99 L1858.11 1953.58 L1861.45 1957.29 L1864.79 1960.88 L1868.13 1964.59 L1871.47 1968.18 L1874.81 1971.89 L1878.15 1975.48 L1881.50 1979.07 L1884.84 1982.78 L1888.18 1986.37 L1891.52 1989.96 L1894.86 1993.55 L1898.20 1997.26 L1901.54 2000.85 L1904.88 2004.44 L1908.23 2008.03 L1911.57 2011.62 L1914.91 2015.21 L1918.25 2018.80 L1921.59 2022.51 L1924.93 2026.10 L1928.27 2029.69 L1931.61 2033.28 L1934.96 2036.86 L1938.17 2040.33 L1941.51 2043.92 L1944.86 2047.51 L1948.20 2051.10 L1951.54 2054.69 L1954.88 2058.27 L1958.22 2061.86 L1961.56 2065.33 L1964.90 2068.92 L1968.24 2072.51 L1971.59 2076.09 L1974.93 2079.56 L1978.27 2083.15 L1981.61 2086.74 L1984.95 2090.20 L1988.29 2093.79 L1991.63 2097.26 L1994.97 2100.85 L1998.32 2104.31 L2001.66 2107.90 L2005.00 2111.36 L2008.34 2114.95 L2011.68 2118.42 L2015.02 2122.01 L2018.36 2125.47 L2021.70 2128.94 L2025.05 2132.53 L2028.39 2135.99 L2031.73 2139.46 L2035.07 2143.05 L2038.41 2146.51 L2041.75 2149.98 L2045.09 2153.44 L2048.43 2157.03 L2051.78 2160.50 L2055.12 2163.96 L2058.46 2167.43 L2061.80 2170.89 L2065.14 2174.36 L2068.48 2177.82 L2071.82 2181.29 L2075.16 2184.75 L2078.51 2188.22 L2081.85 2191.68 L2085.19 2195.15 L2088.53 2198.61 L2091.87 2202.08 L2095.21 2205.54 L2098.55 2208.88 L2101.89 2212.35 L2105.24 2215.81 L2108.58 2219.28 L2111.92 2222.62 L2115.26 2226.08 L2118.60 2229.55 L2121.94 2232.89 L2125.28 2236.36 L2128.50 2239.82 L2131.84 2243.16 L2135.18 2246.63 L2138.52 2249.97 L2141.86 2253.31 L2145.21 2256.65 L2148.55 2259.99 L2151.89 2263.33 L2155.23 2266.55 L2158.57 2269.77 L2161.91 2272.99 L2165.25 2276.20 L2168.59 2279.42 L2171.94 2282.52 L2175.28 2285.73 L2178.62 2288.83 L2181.96 2291.92 L2185.30 2294.89 L2188.64 2297.99 L2191.98 2300.96 L2195.32 2303.93 L2198.67 2306.90 L2202.01 2309.87 L2205.35 2312.71 L2208.69 2315.68 L2212.03 2318.53 L2215.37 2321.38 L2218.71 2324.22 L2222.05 2326.94 L2225.40 2329.67 L2228.74 2332.51 L2232.08 2335.24 L2235.42 2337.83 L2238.76 2340.56 L2242.10 2343.16 L2245.44 2345.88 L2248.79 2348.48 L2252.13 2351.08 L2255.47 2353.55 L2258.81 2356.15 L2262.15 2358.62 L2265.49 2361.10 L2268.83 2363.58 L2272.17 2365.93 L2275.52 2368.40 L2278.86 2370.75 L2282.20 2373.10 L2285.54 2375.46 L2288.88 2377.81 L2292.22 2380.16 L2295.56 2382.39 L2298.90 2384.61 L2302.25 2386.84 L2305.59 2389.07 L2308.93 2391.17 L2312.27 2393.40 L2315.49 2395.50 L2318.83 2397.61 L2322.17 2399.71 L2325.51 2401.69 L2328.85 2403.80 L2332.19 2405.78 L2335.53 2407.76 L2338.88 2409.74 L2342.22 2411.59 L2345.56 2413.57 L2348.90 2415.43 L2352.24 2417.28 L2355.58 2419.14 L2358.92 2421.00 L2362.26 2422.73 L2365.61 2424.46 L2368.95 2426.19 L2372.29 2427.93 L2375.63 2429.66 L2378.97 2431.39 L2382.31 2433.00 L2385.65 2434.61 L2388.99 2436.22 L2392.34 2437.83 L2395.68 2439.31 L2399.02 2440.92 L2402.36 2442.41 L2405.70 2443.89 L2409.04 2445.38 L2412.38 2446.74 L2415.72 2448.22 L2419.07 2449.58 L2422.41 2450.95 L2425.75 2452.31 L2429.09 2453.54 L2432.43 2454.91 L2435.77 2456.14 L2439.11 2457.38 L2442.45 2458.62 L2445.80 2459.86 L2449.14 2460.97 L2452.48 2462.08 L2455.82 2463.20 L2459.16 2464.31 L2462.50 2465.42 L2465.84 2466.54 L2469.18 2467.53 L2472.53 2468.52 L2475.87 2469.51 L2479.21 2470.50 L2482.55 2471.36 L2485.89 2472.35 L2489.23 2473.22 L2492.57 2474.09 L2495.91 2474.95 L2499.26 2475.70 L2502.47 2476.56 L2505.81 2477.30 L2509.16 2478.05 L2512.50 2478.79 L2515.84 2479.41 L2519.18 2480.15 L2522.52 2480.77 L2525.86 2481.39 L2529.20 2482.01 L2532.54 2482.50 L2535.89 2483.12 L2539.23 2483.62 L2542.57 2484.11 L2545.91 2484.61 L2549.25 2485.10 L2552.59 2485.47 L2555.93 2485.97 L2559.27 2486.34 L2562.61 2486.71 L2565.96 2487.08 L2569.30 2487.33 L2572.64 2487.58 L2575.98 2487.95 L2579.32 2488.20 L2582.66 2488.32 L2586.00 2488.57 L2589.34 2488.69 L2592.69 2488.94 L2596.03 2489.06 L2599.37 2489.06 L2602.71 2489.19 L2606.05 2489.19 L2609.39 2489.31 L2612.73 2489.31 L2616.07 2489.31 L2619.42 2489.19 L2622.76 2489.19 L2626.10 2489.06 L2629.44 2488.94 L2632.78 2488.81 L2636.12 2488.69 L2639.46 2488.44 L2642.81 2488.20 L2646.15 2488.07 L2649.49 2487.70 L2652.83 2487.45 L2656.17 2487.21 L2659.51 2486.83 L2662.85 2486.46 L2666.19 2486.09 L2669.54 2485.72 L2672.88 2485.35 L2676.22 2484.85 L2679.56 2484.36 L2682.90 2483.86 L2686.24 2483.37 L2689.46 2482.87 L2692.80 2482.26 L2696.14 2481.64 L2699.48 2481.02 L2702.82 2480.40 L2706.17 2479.78 L2709.51 2479.04 L2712.85 2478.42 L2716.19 2477.68 L2719.53 2476.93 L2722.87 2476.07 L2726.21 2475.32 L2729.55 2474.46 L2732.90 2473.59 L2736.24 2472.73 L2739.58 2471.86 L2742.92 2470.87 L2746.26 2470.00 L2749.60 2469.01 L2752.94 2468.02 L2756.28 2467.03 L2759.63 2465.92 L2762.97 2464.93 L2766.31 2463.82 L2769.65 2462.70 L2772.99 2461.59 L2776.33 2460.35 L2779.67 2459.24 L2783.01 2458.00 L2786.36 2456.76 L2789.70 2455.52 L2793.04 2454.16 L2796.38 2452.93 L2799.72 2451.56 L2803.06 2450.20 L2806.40 2448.84 L2809.74 2447.48 L2813.09 2446.00 L2816.43 2444.63 L2819.77 2443.15 L2823.11 2441.66 L2826.45 2440.06 L2829.79 2438.57 L2833.13 2436.96 L2836.47 2435.35 L2839.82 2433.74 L2843.16 2432.13 L2846.50 2430.53 L2849.84 2428.79 L2853.18 2427.06 L2856.52 2425.33 L2859.86 2423.60 L2863.20 2421.86 L2866.55 2420.01 L2869.89 2418.15 L2873.23 2416.29 L2876.45 2414.44 L2879.79 2412.58 L2883.13 2410.60 L2886.47 2408.75 L2889.81 2406.77 L2893.15 2404.79 L2896.49 2402.68 L2899.83 2400.70 L2903.18 2398.60 L2906.52 2396.49 L2909.86 2394.39 L2913.20 2392.29 L2916.54 2390.06 L2919.88 2387.95 L2923.22 2385.73 L2926.56 2383.50 L2929.91 2381.27 L2933.25 2378.92 L2936.59 2376.57 L2939.93 2374.34 L2943.27 2371.99 L2946.61 2369.52 L2949.95 2367.16 L2953.29 2364.69 L2956.64 2362.34 L2959.98 2359.86 L2963.32 2357.39 L2966.66 2354.79 L2970.00 2352.31 L2973.34 2349.71 L2976.68 2347.12 L2980.02 2344.52 L2983.37 2341.92 L2986.71 2339.20 L2990.05 2336.47 L2993.39 2333.75 L2996.73 2331.03 L3000.07 2328.31 L3003.41 2325.58 L3006.75 2322.74 L3010.10 2319.89 L3013.44 2317.04 L3016.78 2314.20 L3020.12 2311.23 L3023.46 2308.38 L3026.80 2305.41 L3030.14 2302.44 L3033.48 2299.47 L3036.83 2296.38 L3040.17 2293.41 L3043.51 2290.31 L3046.85 2287.22 L3050.19 2284.13 L3053.53 2280.91 L3056.87 2277.81 L3060.21 2274.60 L3063.43 2271.38 L3066.77 2268.16 L3070.11 2264.94 L3073.46 2261.60 L3076.80 2258.38 L3080.14 2255.04 L3083.48 2251.70 L3086.82 2248.24 L3090.16 2244.90 L3093.50 2241.43 L3096.84 2237.96 L3100.19 2234.50 L3103.53 2231.03 L3106.87 2227.57 L3110.21 2223.98 L3113.55 2220.39 L3116.89 2216.80 L3120.23 2213.21 L3123.57 2209.50 L3126.92 2205.91 L3130.26 2202.20 L3133.60 2198.49 L3136.94 2194.77 L3140.28 2191.06 L3143.62 2187.23 L3146.96 2183.39 L3150.30 2179.55 L3153.65 2175.72 L3156.99 2171.88 L3160.33 2167.92 L3163.67 2164.08 L3167.01 2160.12 L3170.35 2156.16 L3173.69 2152.08 L3177.03 2148.12 L3180.38 2144.04 L3183.72 2139.95 L3187.06 2135.87 L3190.40 2131.78 L3193.74 2127.70 L3197.08 2123.49 L3200.42 2119.28 L3203.76 2115.08 L3207.11 2110.87 L3210.45 2106.54 L3213.79 2102.33 L3217.13 2098.00 L3220.47 2093.67 L3223.81 2089.34 L3227.15 2085.01 L3230.49 2080.55 L3233.84 2076.09 L3237.18 2071.64 L3240.52 2067.18 L3243.86 2062.73 L3247.20 2058.15 L3250.42 2053.70 L3253.76 2049.12 L3257.10 2044.54 L3260.44 2039.83 L3263.78 2035.26 L3267.12 2030.55 L3270.47 2025.85 L3273.81 2021.15 L3277.15 2016.45 L3280.49 2011.74 L3283.83 2006.92 L3287.17 2002.09 L3290.51 1997.26 L3293.85 1992.44 L3297.20 1987.49 L3300.54 1982.66 L3303.88 1977.71 L3307.22 1972.76 L3310.56 1967.81 L3313.90 1962.74 L3317.24 1957.79 L3320.58 1952.71 L3323.93 1947.64 L3327.27 1942.56 L3330.61 1937.49 L3333.95 1932.29 L3337.29 1927.22 L3340.63 1922.02 L3343.97 1916.70 L3347.31 1911.50 L3350.66 1906.30 L3354.00 1900.98 L3357.34 1895.66 L3360.68 1890.34 L3364.02 1885.02 L3367.36 1879.57 L3370.70 1874.25 L3374.04 1868.81 L3377.39 1863.36 L3380.73 1857.92 L3384.07 1852.35 L3387.41 1846.90 L3390.75 1841.33 L3394.09 1835.76 L3397.43 1830.20 L3400.77 1824.50 L3404.12 1818.93 L3407.46 1813.24 L3410.80 1807.55 L3414.14 1801.86 L3417.48 1796.16 L3420.82 1790.35 L3424.16 1784.53 L3427.50 1778.71 L3430.85 1772.90 L3434.19 1767.08 L3437.40 1761.14 L3440.75 1755.32 L3444.09 1749.38 L3447.43 1743.44 L3450.77 1737.50 L3454.11 1731.44 L3457.45 1725.38 L3460.79 1719.44 L3464.13 1713.37 L3467.48 1707.18 L3470.82 1701.12 L3474.16 1694.93 L3477.50 1688.87 L3480.84 1682.68 L3484.18 1676.37 L3487.52 1670.18 L3490.86 1663.87 L3494.21 1657.68 L3497.55 1651.37 L3500.89 1645.06 L3504.23 1638.62 L3507.57 1632.31 L3510.91 1625.88 L3514.25 1619.44 L3517.59 1613.01 L3520.94 1606.57 L3524.28 1600.01 L3527.62 1593.45 L3530.96 1587.02 L3534.30 1580.34 L3537.64 1573.78 L3540.98 1567.22 L3544.32 1560.54 L3547.67 1553.85 L3551.01 1547.17 L3554.35 1540.49 L3557.69 1533.81 L3561.03 1527.00 L3564.37 1520.19 L3567.71 1513.39 L3571.05 1506.58 L3574.40 1499.77 L3577.74 1492.84 L3581.08 1485.91 L3584.42 1478.98 L3587.76 1472.05 L3591.10 1465.12 L3594.44 1458.07 L3597.78 1451.14 L3601.13 1444.08 L3604.47 1436.91 L3607.81 1429.85 L3611.15 1422.80 L3614.49 1415.62 L3617.83 1408.44 L3621.17 1401.27 L3624.39 1394.09 L3627.73 1386.79 L3631.07 1379.61 L3634.41 1372.31 L3637.76 1365.01 L3641.10 1357.70 L3644.44 1350.28 L3647.78 1342.85 L3651.12 1335.55 L3654.46 1328.13 L3657.80 1320.58 L3661.14 1313.15 L3664.49 1305.73 L3667.83 1298.18 L3671.17 1290.63 L3674.51 1283.08 L3677.85 1275.41 L3681.19 1267.86 L3684.53 1260.19 L3687.87 1252.51 L3691.22 1244.84 L3694.56 1237.17 L3697.90 1229.37 L3701.24 1221.57 L3704.58 1213.90 L3707.92 1205.98 L3711.26 1198.18 L3714.60 1190.39 L3717.95 1182.47 L3721.29 1174.55 L3724.63 1166.63 L3727.97 1158.71 L3731.31 1150.66 L3734.65 1142.74 L3737.99 1134.70 L3741.33 1126.66 L3744.68 1118.61 L3748.02 1110.44 L3751.36 1102.40 L3754.70 1094.23 L3758.04 1086.06 L3761.38 1077.90 L3764.72 1069.73 L3768.06 1061.44 L3771.41 1053.15 L3774.75 1044.85 L3778.09 1036.56 L3781.43 1028.27 L3784.77 1019.86 L3788.11 1011.56 L3791.45 1003.15 L3794.79 994.73 L3798.14 986.19 L3801.48 977.78" stroke-linejoin="round" style="fill:none;stroke:#E41A1C;stroke-width:8.64"/>
	<line x1="465.80" y1="2489.19" x2="465.80" y2="100.86" style="stroke:#000000;stroke-width:5.76"/>
	<line x1="465.80" y1="2486.46" x2="425.82" y2="2486.46" style="stroke:#000000;stroke-width:5.76"/>
	<text x="405.78" y="2521.49" style="font-family:'Helvetica';font-size:99.99px;fill:#000000" text-anchor="end">-1</text>
	<line x1="465.80" y1="2009.39" x2="425.82" y2="2009.39" style="stroke:#000000;stroke-width:5.76"/>
	<text x="405.78" y="2044.42" style="font-family:'Helvetica';font-size:99.99px;fill:#000000" text-anchor="end">-.5</text>
	<line x1="465.80" y1="1532.20" x2="425.82" y2="1532.20" style="stroke:#000000;stroke-width:5.76"/>
	<text x="405.78" y="1567.23" style="font-family:'Helvetica';font-size:99.99px;fill:#000000" text-anchor="end">0</text>
	<line x1="465.80" y1="1055.13" x2="425.82" y2="1055.13" style="stroke:#000000;stroke-width:5.76"/>
	<text x="405.78" y="1090.15" style="font-family:'Helvetica';font-size:99.99px;fill:#000000" text-anchor="end">.5</text>
	<line x1="465.80" y1="577.93" x2="425.82" y2="577.93" style="stroke:#000000;stroke-width:5.76"/>
	<text x="405.78" y="612.96" style="font-family:'Helvetica';font-size:99.99px;fill:#000000" text-anchor="end">1</text>
	<line x1="465.80" y1="100.86" x2="425.82" y2="100.86" style="stroke:#000000;stroke-width:5.76"/>
	<text x="405.78" y="135.89" style="font-family:'Helvetica';font-size:99.99px;fill:#000000" text-anchor="end">1.5</text>
	<text x="190.71" y="1294.96" style="font-family:'Helvetica';font-size:99.99px;fill:#000000" transform="rotate(-90 190.71,1294.96)" text-anchor="middle">Derivative of mu</text>
	<line x1="465.80" y1="2489.19" x2="3859.02" y2="2489.19" style="stroke:#000000;stroke-width:5.76"/>
	<line x1="465.80" y1="2489.19" x2="465.80" y2="2529.16" style="stroke:#000000;stroke-width:5.76"/>
	<text x="465.80" y="2619.14" style="font-family:'Helvetica';font-size:99.99px;fill:#000000" text-anchor="middle">0</text>
	<line x1="1132.93" y1="2489.19" x2="1132.93" y2="2529.16" style="stroke:#000000;stroke-width:5.76"/>
	<text x="1132.93" y="2619.14" style="font-family:'Helvetica';font-size:99.99px;fill:#000000" text-anchor="middle">1</text>
	<line x1="1800.07" y1="2489.19" x2="1800.07" y2="2529.16" style="stroke:#000000;stroke-width:5.76"/>
	<text x="1800.07" y="2619.14" style="font-family:'Helvetica';font-size:99.99px;fill:#000000" text-anchor="middle">2</text>
	<line x1="2467.20" y1="2489.19" x2="2467.20" y2="2529.16" style="stroke:#000000;stroke-width:5.76"/>
	<text x="2467.20" y="2619.14" style="font-family:'Helvetica';font-size:99.99px;fill:#000000" text-anchor="middle">3</text>
	<line x1="3134.34" y1="2489.19" x2="3134.34" y2="2529.16" style="stroke:#000000;stroke-width:5.76"/>
	<text x="3134.34" y="2619.14" style="font-family:'Helvetica';font-size:99.99px;fill:#000000" text-anchor="middle">4</text>
	<line x1="3801.48" y1="2489.19" x2="3801.48" y2="2529.16" style="stroke:#000000;stroke-width:5.76"/>
	<text x="3801.48" y="2619.14" style="font-family:'Helvetica';font-size:99.99px;fill:#000000" text-anchor="middle">5</text>
	<text x="2162.41" y="2729.16" style="font-family:'Helvetica';font-size:99.99px;fill:#000000" text-anchor="middle">x</text>
</svg>
