<?xml version="1.0" encoding="UTF-8" standalone="no"?>
<!-- This is a Stata 18.5 generated SVG file (http://www.stata.com) -->

<svg version="1.1" width="700px" height="509px" viewBox="0 0 3960 2880" xmlns="http://www.w3.org/2000/svg" xmlns:xlink="http://www.w3.org/1999/xlink">
	<desc>Stata Graph - Graph</desc>
	<rect x="0" y="0" width="3960" height="2880" style="fill:#FFFFFF;stroke:none"/>
	<rect x="0.00" y="0.00" width="3959.88" height="2880.00" style="fill:#FFFFFF"/>
	<rect x="2.88" y="2.88" width="3954.12" height="2874.24" style="fill:none;stroke:#FFFFFF;stroke-width:5.76"/>
	<line x1="336.60" y1="2489.19" x2="3859.02" y2="2489.19" style="stroke:#C0C0C0;stroke-opacity:0.50;stroke-width:5.76"/>
	<line x1="336.60" y1="1718.69" x2="3859.02" y2="1718.69" style="stroke:#C0C0C0;stroke-opacity:0.50;stroke-width:5.76"/>
	<line x1="336.60" y1="948.33" x2="3859.02" y2="948.33" style="stroke:#C0C0C0;stroke-opacity:0.50;stroke-width:5.76"/>
	<line x1="336.60" y1="177.83" x2="3859.02" y2="177.83" style="stroke:#C0C0C0;stroke-opacity:0.50;stroke-width:5.76"/>
	<line x1="593.26" y1="2489.19" x2="593.26" y2="100.86" style="stroke:#C0C0C0;stroke-opacity:0.50;stroke-width:5.76"/>
	<line x1="1662.71" y1="2489.19" x2="1662.71" y2="100.86" style="stroke:#C0C0C0;stroke-opacity:0.50;stroke-width:5.76"/>
	<line x1="2732.03" y1="2489.19" x2="2732.03" y2="100.86" style="stroke:#C0C0C0;stroke-opacity:0.50;stroke-width:5.76"/>
	<line x1="3801.48" y1="2489.19" x2="3801.48" y2="100.86" style="stroke:#C0C0C0;stroke-opacity:0.50;stroke-width:5.76"/>
	<circle cx="1587.71" cy="1564.74" r="26.35" style="fill:#E41A1C"/>
	<circle cx="1587.71" cy="1564.74" r="22.03" style="fill:none;stroke:#E41A1C;stroke-width:8.64"/>
	<circle cx="2036.93" cy="1949.99" r="26.35" style="fill:#E41A1C"/>
	<circle cx="2036.93" cy="1949.99" r="22.03" style="fill:none;stroke:#E41A1C;stroke-width:8.64"/>
	<circle cx="1277.60" cy="1564.74" r="26.35" style="fill:#E41A1C"/>
	<circle cx="1277.60" cy="1564.74" r="22.03" style="fill:none;stroke:#E41A1C;stroke-width:8.64"/>
	<circle cx="1930.01" cy="1718.82" r="26.35" style="fill:#E41A1C"/>
	<circle cx="1930.01" cy="1718.82" r="22.03" style="fill:none;stroke:#E41A1C;stroke-width:8.64"/>
	<circle cx="2817.54" cy="2104.06" r="26.35" style="fill:#E41A1C"/>
	<circle cx="2817.54" cy="2104.06" r="22.03" style="fill:none;stroke:#E41A1C;stroke-width:8.64"/>
	<circle cx="2379.09" cy="1872.89" r="26.35" style="fill:#E41A1C"/>
	<circle cx="2379.09" cy="1872.89" r="22.03" style="fill:none;stroke:#E41A1C;stroke-width:8.64"/>
	<circle cx="839.15" cy="1256.60" r="26.35" style="fill:#E41A1C"/>
	<circle cx="839.15" cy="1256.60" r="22.03" style="fill:none;stroke:#E41A1C;stroke-width:8.64"/>
	<circle cx="1962.06" cy="1718.82" r="26.35" style="fill:#E41A1C"/>
	<circle cx="1962.06" cy="1718.82" r="22.03" style="fill:none;stroke:#E41A1C;stroke-width:8.64"/>
	<circle cx="2603.70" cy="2026.96" r="26.35" style="fill:#E41A1C"/>
	<circle cx="2603.70" cy="2026.96" r="22.03" style="fill:none;stroke:#E41A1C;stroke-width:8.64"/>
	<circle cx="2090.39" cy="1795.92" r="26.35" style="fill:#E41A1C"/>
	<circle cx="2090.39" cy="1795.92" r="22.03" style="fill:none;stroke:#E41A1C;stroke-width:8.64"/>
	<circle cx="3084.96" cy="2181.04" r="26.35" style="fill:#E41A1C"/>
	<circle cx="3084.96" cy="2181.04" r="22.03" style="fill:none;stroke:#E41A1C;stroke-width:8.64"/>
	<circle cx="2625.11" cy="2181.04" r="26.35" style="fill:#E41A1C"/>
	<circle cx="2625.11" cy="2181.04" r="22.03" style="fill:none;stroke:#E41A1C;stroke-width:8.64"/>
	<circle cx="3042.15" cy="1641.72" r="26.35" style="fill:#E41A1C"/>
	<circle cx="3042.15" cy="1641.72" r="22.03" style="fill:none;stroke:#E41A1C;stroke-width:8.64"/>
	<circle cx="710.82" cy="1025.42" r="26.35" style="fill:#E41A1C"/>
	<circle cx="710.82" cy="1025.42" r="22.03" style="fill:none;stroke:#E41A1C;stroke-width:8.64"/>
	<circle cx="2400.50" cy="2026.96" r="26.35" style="fill:#E41A1C"/>
	<circle cx="2400.50" cy="2026.96" r="22.03" style="fill:none;stroke:#E41A1C;stroke-width:8.64"/>
	<circle cx="1855.14" cy="1564.74" r="26.35" style="fill:#E41A1C"/>
	<circle cx="1855.14" cy="1564.74" r="22.03" style="fill:none;stroke:#E41A1C;stroke-width:8.64"/>
	<circle cx="1897.83" cy="1564.74" r="26.35" style="fill:#E41A1C"/>
	<circle cx="1897.83" cy="1564.74" r="22.03" style="fill:none;stroke:#E41A1C;stroke-width:8.64"/>
	<circle cx="1395.28" cy="1410.67" r="26.35" style="fill:#E41A1C"/>
	<circle cx="1395.28" cy="1410.67" r="22.03" style="fill:none;stroke:#E41A1C;stroke-width:8.64"/>
	<circle cx="2122.44" cy="1795.92" r="26.35" style="fill:#E41A1C"/>
	<circle cx="2122.44" cy="1795.92" r="22.03" style="fill:none;stroke:#E41A1C;stroke-width:8.64"/>
	<circle cx="721.59" cy="948.33" r="26.35" style="fill:#E41A1C"/>
	<circle cx="721.59" cy="948.33" r="22.03" style="fill:none;stroke:#E41A1C;stroke-width:8.64"/>
	<circle cx="2304.23" cy="1872.89" r="26.35" style="fill:#E41A1C"/>
	<circle cx="2304.23" cy="1872.89" r="22.03" style="fill:none;stroke:#E41A1C;stroke-width:8.64"/>
	<circle cx="2304.23" cy="2026.96" r="26.35" style="fill:#E41A1C"/>
	<circle cx="2304.23" cy="2026.96" r="22.03" style="fill:none;stroke:#E41A1C;stroke-width:8.64"/>
	<circle cx="2453.96" cy="1949.99" r="26.35" style="fill:#E41A1C"/>
	<circle cx="2453.96" cy="1949.99" r="22.03" style="fill:none;stroke:#E41A1C;stroke-width:8.64"/>
	<circle cx="379.29" cy="1102.40" r="26.35" style="fill:#E41A1C"/>
	<circle cx="379.29" cy="1102.40" r="22.03" style="fill:none;stroke:#E41A1C;stroke-width:8.64"/>
	<circle cx="1288.36" cy="1641.72" r="26.35" style="fill:#E41A1C"/>
	<circle cx="1288.36" cy="1641.72" r="22.03" style="fill:none;stroke:#E41A1C;stroke-width:8.64"/>
	<circle cx="3630.33" cy="2335.24" r="26.35" style="fill:#E41A1C"/>
	<circle cx="3630.33" cy="2335.24" r="22.03" style="fill:none;stroke:#E41A1C;stroke-width:8.64"/>
	<circle cx="3502.00" cy="2335.24" r="26.35" style="fill:#E41A1C"/>
	<circle cx="3502.00" cy="2335.24" r="22.03" style="fill:none;stroke:#E41A1C;stroke-width:8.64"/>
	<circle cx="2550.24" cy="2181.04" r="26.35" style="fill:#E41A1C"/>
	<circle cx="2550.24" cy="2181.04" r="22.03" style="fill:none;stroke:#E41A1C;stroke-width:8.64"/>
	<circle cx="1213.49" cy="1564.74" r="26.35" style="fill:#E41A1C"/>
	<circle cx="1213.49" cy="1564.74" r="22.03" style="fill:none;stroke:#E41A1C;stroke-width:8.64"/>
	<circle cx="2796.13" cy="2181.04" r="26.35" style="fill:#E41A1C"/>
	<circle cx="2796.13" cy="2181.04" r="22.03" style="fill:none;stroke:#E41A1C;stroke-width:8.64"/>
	<circle cx="2432.55" cy="2104.06" r="26.35" style="fill:#E41A1C"/>
	<circle cx="2432.55" cy="2104.06" r="22.03" style="fill:none;stroke:#E41A1C;stroke-width:8.64"/>
	<circle cx="2058.33" cy="1872.89" r="26.35" style="fill:#E41A1C"/>
	<circle cx="2058.33" cy="1872.89" r="22.03" style="fill:none;stroke:#E41A1C;stroke-width:8.64"/>
	<circle cx="2871.00" cy="2181.04" r="26.35" style="fill:#E41A1C"/>
	<circle cx="2871.00" cy="2181.04" r="22.03" style="fill:none;stroke:#E41A1C;stroke-width:8.64"/>
	<circle cx="1480.79" cy="1718.82" r="26.35" style="fill:#E41A1C"/>
	<circle cx="1480.79" cy="1718.82" r="22.03" style="fill:none;stroke:#E41A1C;stroke-width:8.64"/>
	<circle cx="2796.13" cy="1641.72" r="26.35" style="fill:#E41A1C"/>
	<circle cx="2796.13" cy="1641.72" r="22.03" style="fill:none;stroke:#E41A1C;stroke-width:8.64"/>
	<circle cx="1994.11" cy="1795.92" r="26.35" style="fill:#E41A1C"/>
	<circle cx="1994.11" cy="1795.92" r="22.03" style="fill:none;stroke:#E41A1C;stroke-width:8.64"/>
	<circle cx="1983.47" cy="1795.92" r="26.35" style="fill:#E41A1C"/>
	<circle cx="1983.47" cy="1795.92" r="22.03" style="fill:none;stroke:#E41A1C;stroke-width:8.64"/>
	<circle cx="2400.50" cy="1872.89" r="26.35" style="fill:#E41A1C"/>
	<circle cx="2400.50" cy="1872.89" r="22.03" style="fill:none;stroke:#E41A1C;stroke-width:8.64"/>
	<circle cx="2058.33" cy="1795.92" r="26.35" style="fill:#E41A1C"/>
	<circle cx="2058.33" cy="1795.92" r="22.03" style="fill:none;stroke:#E41A1C;stroke-width:8.64"/>
	<circle cx="1373.87" cy="1410.67" r="26.35" style="fill:#E41A1C"/>
	<circle cx="1373.87" cy="1410.67" r="22.03" style="fill:none;stroke:#E41A1C;stroke-width:8.64"/>
	<circle cx="2764.08" cy="2026.96" r="26.35" style="fill:#E41A1C"/>
	<circle cx="2764.08" cy="2026.96" r="22.03" style="fill:none;stroke:#E41A1C;stroke-width:8.64"/>
	<circle cx="1940.65" cy="1102.40" r="26.35" style="fill:#E41A1C"/>
	<circle cx="1940.65" cy="1102.40" r="22.03" style="fill:none;stroke:#E41A1C;stroke-width:8.64"/>
	<circle cx="379.29" cy="640.18" r="26.35" style="fill:#E41A1C"/>
	<circle cx="379.29" cy="640.18" r="22.03" style="fill:none;stroke:#E41A1C;stroke-width:8.64"/>
	<circle cx="807.10" cy="1333.57" r="26.35" style="fill:#E41A1C"/>
	<circle cx="807.10" cy="1333.57" r="22.03" style="fill:none;stroke:#E41A1C;stroke-width:8.64"/>
	<circle cx="1149.27" cy="1256.60" r="26.35" style="fill:#E41A1C"/>
	<circle cx="1149.27" cy="1256.60" r="22.03" style="fill:none;stroke:#E41A1C;stroke-width:8.64"/>
	<circle cx="2015.52" cy="1872.89" r="26.35" style="fill:#E41A1C"/>
	<circle cx="2015.52" cy="1872.89" r="22.03" style="fill:none;stroke:#E41A1C;stroke-width:8.64"/>
	<circle cx="2411.15" cy="1872.89" r="26.35" style="fill:#E41A1C"/>
	<circle cx="2411.15" cy="1872.89" r="22.03" style="fill:none;stroke:#E41A1C;stroke-width:8.64"/>
	<circle cx="2165.25" cy="1872.89" r="26.35" style="fill:#E41A1C"/>
	<circle cx="2165.25" cy="1872.89" r="22.03" style="fill:none;stroke:#E41A1C;stroke-width:8.64"/>
	<circle cx="1887.19" cy="1795.92" r="26.35" style="fill:#E41A1C"/>
	<circle cx="1887.19" cy="1795.92" r="22.03" style="fill:none;stroke:#E41A1C;stroke-width:8.64"/>
	<circle cx="1876.55" cy="1795.92" r="26.35" style="fill:#E41A1C"/>
	<circle cx="1876.55" cy="1795.92" r="22.03" style="fill:none;stroke:#E41A1C;stroke-width:8.64"/>
	<circle cx="2111.79" cy="1795.92" r="26.35" style="fill:#E41A1C"/>
	<circle cx="2111.79" cy="1795.92" r="22.03" style="fill:none;stroke:#E41A1C;stroke-width:8.64"/>
	<circle cx="1331.06" cy="1410.67" r="26.35" style="fill:#E41A1C"/>
	<circle cx="1331.06" cy="1410.67" r="22.03" style="fill:none;stroke:#E41A1C;stroke-width:8.64"/>
	<circle cx="1480.79" cy="1949.99" r="26.35" style="fill:#E41A1C"/>
	<circle cx="1480.79" cy="1949.99" r="22.03" style="fill:none;stroke:#E41A1C;stroke-width:8.64"/>
	<circle cx="668.13" cy="1487.65" r="26.35" style="fill:#E41A1C"/>
	<circle cx="668.13" cy="1487.65" r="22.03" style="fill:none;stroke:#E41A1C;stroke-width:8.64"/>
	<circle cx="1288.36" cy="1333.57" r="26.35" style="fill:#E41A1C"/>
	<circle cx="1288.36" cy="1333.57" r="22.03" style="fill:none;stroke:#E41A1C;stroke-width:8.64"/>
	<circle cx="988.89" cy="1487.65" r="26.35" style="fill:#E41A1C"/>
	<circle cx="988.89" cy="1487.65" r="22.03" style="fill:none;stroke:#E41A1C;stroke-width:8.64"/>
	<circle cx="614.54" cy="563.08" r="26.35" style="fill:#E41A1C"/>
	<circle cx="614.54" cy="563.08" r="22.03" style="fill:none;stroke:#E41A1C;stroke-width:8.64"/>
	<circle cx="892.61" cy="1410.67" r="26.35" style="fill:#E41A1C"/>
	<circle cx="892.61" cy="1410.67" r="22.03" style="fill:none;stroke:#E41A1C;stroke-width:8.64"/>
	<circle cx="1395.28" cy="1641.72" r="26.35" style="fill:#E41A1C"/>
	<circle cx="1395.28" cy="1641.72" r="22.03" style="fill:none;stroke:#E41A1C;stroke-width:8.64"/>
	<circle cx="732.23" cy="1641.72" r="26.35" style="fill:#E41A1C"/>
	<circle cx="732.23" cy="1641.72" r="22.03" style="fill:none;stroke:#E41A1C;stroke-width:8.64"/>
	<circle cx="849.92" cy="1333.57" r="26.35" style="fill:#E41A1C"/>
	<circle cx="849.92" cy="1333.57" r="22.03" style="fill:none;stroke:#E41A1C;stroke-width:8.64"/>
	<circle cx="336.60" cy="1102.40" r="26.35" style="fill:#E41A1C"/>
	<circle cx="336.60" cy="1102.40" r="22.03" style="fill:none;stroke:#E41A1C;stroke-width:8.64"/>
	<circle cx="571.85" cy="948.33" r="26.35" style="fill:#E41A1C"/>
	<circle cx="571.85" cy="948.33" r="22.03" style="fill:none;stroke:#E41A1C;stroke-width:8.64"/>
	<circle cx="2111.79" cy="2181.04" r="26.35" style="fill:#E41A1C"/>
	<circle cx="2111.79" cy="2181.04" r="22.03" style="fill:none;stroke:#E41A1C;stroke-width:8.64"/>
	<circle cx="411.47" cy="1256.60" r="26.35" style="fill:#E41A1C"/>
	<circle cx="411.47" cy="1256.60" r="22.03" style="fill:none;stroke:#E41A1C;stroke-width:8.64"/>
	<circle cx="646.72" cy="563.08" r="26.35" style="fill:#E41A1C"/>
	<circle cx="646.72" cy="563.08" r="22.03" style="fill:none;stroke:#E41A1C;stroke-width:8.64"/>
	<circle cx="1031.70" cy="1872.89" r="26.35" style="fill:#E41A1C"/>
	<circle cx="1031.70" cy="1872.89" r="22.03" style="fill:none;stroke:#E41A1C;stroke-width:8.64"/>
	<circle cx="807.10" cy="871.35" r="26.35" style="fill:#E41A1C"/>
	<circle cx="807.10" cy="871.35" r="22.03" style="fill:none;stroke:#E41A1C;stroke-width:8.64"/>
	<circle cx="1309.77" cy="1872.89" r="26.35" style="fill:#E41A1C"/>
	<circle cx="1309.77" cy="1872.89" r="22.03" style="fill:none;stroke:#E41A1C;stroke-width:8.64"/>
	<circle cx="764.28" cy="1487.65" r="26.35" style="fill:#E41A1C"/>
	<circle cx="764.28" cy="1487.65" r="22.03" style="fill:none;stroke:#E41A1C;stroke-width:8.64"/>
	<circle cx="635.95" cy="100.86" r="26.35" style="fill:#E41A1C"/>
	<circle cx="635.95" cy="100.86" r="22.03" style="fill:none;stroke:#E41A1C;stroke-width:8.64"/>
	<circle cx="518.39" cy="1333.57" r="26.35" style="fill:#E41A1C"/>
	<circle cx="518.39" cy="1333.57" r="22.03" style="fill:none;stroke:#E41A1C;stroke-width:8.64"/>
	<circle cx="582.49" cy="1333.57" r="26.35" style="fill:#E41A1C"/>
	<circle cx="582.49" cy="1333.57" r="22.03" style="fill:none;stroke:#E41A1C;stroke-width:8.64"/>
	<circle cx="1844.37" cy="1949.99" r="26.35" style="fill:#E41A1C"/>
	<circle cx="1844.37" cy="1949.99" r="22.03" style="fill:none;stroke:#E41A1C;stroke-width:8.64"/>
	<path d=" M336.60 885.58 L379.29 919.00 L379.29 919.00 L411.47 943.75 L518.39 1024.31 L571.85 1063.42 L582.49 1071.21 L614.54 1094.23 L635.95 1109.45 L646.72 1117.00 L668.13 1132.10 L710.82 1161.80 L721.59 1169.23 L732.23 1176.53 L764.28 1198.31 L807.10 1227.02 L807.10 1227.02 L839.15 1248.18 L849.92 1255.11 L892.61 1282.83 L988.89 1343.22 L1031.70 1369.34 L1149.27 1438.27 L1213.49 1474.28 L1277.60 1509.05 L1288.36 1514.75 L1288.36 1514.75 L1309.77 1526.01 L1331.06 1537.15 L1373.87 1559.05 L1395.28 1569.82 L1395.28 1569.82 L1480.79 1611.52 L1480.79 1611.52 L1587.71 1660.53 L1844.37 1763.99 L1855.14 1767.82 L1876.55 1775.50 L1887.19 1779.21 L1897.83 1782.92 L1930.01 1793.94 L1940.65 1797.52 L1962.06 1804.58 L1983.47 1811.63 L1994.11 1815.10 L2015.52 1821.78 L2036.93 1828.46 L2058.33 1835.15 L2058.33 1835.15 L2090.39 1844.80 L2111.79 1851.11 L2111.79 1851.11 L2122.44 1854.20 L2165.25 1866.46 L2304.23 1904.32 L2304.23 1904.32 L2379.09 1923.75 L2400.50 1929.20 L2400.50 1929.20 L2411.15 1931.92 L2432.55 1937.24 L2453.96 1942.56 L2550.24 1966.45 L2603.70 1979.69 L2625.11 1985.01 L2764.08 2019.91 L2796.13 2028.20 L2796.13 2028.20 L2817.54 2033.77 L2871.00 2047.88 L3042.15 2096.02 L3084.96 2108.89 L3502.00 2262.22 L3630.33 2322.49" stroke-linejoin="round" style="fill:none;stroke:#377EB8;stroke-width:8.64"/>
	<line x1="336.60" y1="2489.19" x2="336.60" y2="100.86" style="stroke:#000000;stroke-width:5.76"/>
	<line x1="336.60" y1="2489.19" x2="296.63" y2="2489.19" style="stroke:#000000;stroke-width:5.76"/>
	<text x="276.58" y="2524.21" style="font-family:'Helvetica';font-size:99.99px;fill:#000000" text-anchor="end">10</text>
	<line x1="336.60" y1="1718.69" x2="296.63" y2="1718.69" style="stroke:#000000;stroke-width:5.76"/>
	<text x="276.58" y="1753.72" style="font-family:'Helvetica';font-size:99.99px;fill:#000000" text-anchor="end">20</text>
	<line x1="336.60" y1="948.33" x2="296.63" y2="948.33" style="stroke:#000000;stroke-width:5.76"/>
	<text x="276.58" y="983.35" style="font-family:'Helvetica';font-size:99.99px;fill:#000000" text-anchor="end">30</text>
	<line x1="336.60" y1="177.83" x2="296.63" y2="177.83" style="stroke:#000000;stroke-width:5.76"/>
	<text x="276.58" y="212.86" style="font-family:'Helvetica';font-size:99.99px;fill:#000000" text-anchor="end">40</text>
	<line x1="336.60" y1="2489.19" x2="3859.02" y2="2489.19" style="stroke:#000000;stroke-width:5.76"/>
	<line x1="593.26" y1="2489.19" x2="593.26" y2="2529.16" style="stroke:#000000;stroke-width:5.76"/>
	<text x="593.26" y="2619.14" style="font-family:'Helvetica';font-size:99.99px;fill:#000000" text-anchor="middle">2,000</text>
	<line x1="1662.71" y1="2489.19" x2="1662.71" y2="2529.16" style="stroke:#000000;stroke-width:5.76"/>
	<text x="1662.71" y="2619.14" style="font-family:'Helvetica';font-size:99.99px;fill:#000000" text-anchor="middle">3,000</text>
	<line x1="2732.03" y1="2489.19" x2="2732.03" y2="2529.16" style="stroke:#000000;stroke-width:5.76"/>
	<text x="2732.03" y="2619.14" style="font-family:'Helvetica';font-size:99.99px;fill:#000000" text-anchor="middle">4,000</text>
	<line x1="3801.48" y1="2489.19" x2="3801.48" y2="2529.16" style="stroke:#000000;stroke-width:5.76"/>
	<text x="3801.48" y="2619.14" style="font-family:'Helvetica';font-size:99.99px;fill:#000000" text-anchor="middle">5,000</text>
	<text x="2097.81" y="2729.16" style="font-family:'Helvetica';font-size:99.99px;fill:#000000" text-anchor="middle">Weight (lbs.)</text>
	<rect x="2882.26" y="135.39" width="942.23" height="257.28" style="fill:#FFFFFF"/>
	<rect x="2885.14" y="138.27" width="936.47" height="251.52" style="fill:none;stroke:#FFFFFF;stroke-width:5.76"/>
	<circle cx="2990.91" cy="194.05" r="26.35" style="fill:#E41A1C"/>
	<circle cx="2990.91" cy="194.05" r="22.03" style="fill:none;stroke:#E41A1C;stroke-width:8.64"/>
	<line x1="2890.92" y1="334.01" x2="3090.90" y2="334.01" style="stroke:#377EB8;stroke-width:8.64"/>
	<text x="3150.92" y="229.07" style="font-family:'Helvetica';font-size:99.99px;fill:#000000">Mileage (mpg)</text>
	<text x="3150.92" y="369.04" style="font-family:'Helvetica';font-size:99.99px;fill:#000000">Fitted values</text>
</svg>
