<?xml version="1.0" encoding="UTF-8" standalone="no"?>
<!-- This is a Stata 18.5 generated SVG file (http://www.stata.com) -->

<svg version="1.1" width="700px" height="509px" viewBox="0 0 3960 2880" xmlns="http://www.w3.org/2000/svg" xmlns:xlink="http://www.w3.org/1999/xlink">
	<desc>Stata Graph - Graph</desc>
	<rect x="0" y="0" width="3960" height="2880" style="fill:#FFFFFF;stroke:none"/>
	<rect x="0.00" y="0.00" width="3959.88" height="2880.00" style="fill:#FFFFFF"/>
	<rect x="2.88" y="2.88" width="3954.12" height="2874.24" style="fill:none;stroke:#FFFFFF;stroke-width:5.76"/>
	<line x1="436.59" y1="2489.19" x2="3859.02" y2="2489.19" style="stroke:#C0C0C0;stroke-opacity:0.50;stroke-width:5.76"/>
	<line x1="436.59" y1="2044.29" x2="3859.02" y2="2044.29" style="stroke:#C0C0C0;stroke-opacity:0.50;stroke-width:5.76"/>
	<line x1="436.59" y1="1599.27" x2="3859.02" y2="1599.27" style="stroke:#C0C0C0;stroke-opacity:0.50;stroke-width:5.76"/>
	<line x1="436.59" y1="1154.25" x2="3859.02" y2="1154.25" style="stroke:#C0C0C0;stroke-opacity:0.50;stroke-width:5.76"/>
	<line x1="436.59" y1="709.36" x2="3859.02" y2="709.36" style="stroke:#C0C0C0;stroke-opacity:0.50;stroke-width:5.76"/>
	<line x1="436.59" y1="264.34" x2="3859.02" y2="264.34" style="stroke:#C0C0C0;stroke-opacity:0.50;stroke-width:5.76"/>
	<line x1="436.59" y1="2489.19" x2="436.59" y2="100.86" style="stroke:#C0C0C0;stroke-opacity:0.50;stroke-width:5.76"/>
	<line x1="1109.54" y1="2489.19" x2="1109.54" y2="100.86" style="stroke:#C0C0C0;stroke-opacity:0.50;stroke-width:5.76"/>
	<line x1="1782.62" y1="2489.19" x2="1782.62" y2="100.86" style="stroke:#C0C0C0;stroke-opacity:0.50;stroke-width:5.76"/>
	<line x1="2455.57" y1="2489.19" x2="2455.57" y2="100.86" style="stroke:#C0C0C0;stroke-opacity:0.50;stroke-width:5.76"/>
	<line x1="3128.52" y1="2489.19" x2="3128.52" y2="100.86" style="stroke:#C0C0C0;stroke-opacity:0.50;stroke-width:5.76"/>
	<line x1="3801.48" y1="2489.19" x2="3801.48" y2="100.86" style="stroke:#C0C0C0;stroke-opacity:0.50;stroke-width:5.76"/>
	<path d=" M436.59 2489.31 L439.93 2487.08 L443.27 2484.98 L446.61 2482.75 L450.08 2480.65 L453.42 2478.42 L456.76 2476.19 L460.10 2474.09 L463.44 2471.86 L466.91 2469.63 L470.25 2467.40 L473.59 2465.18 L476.93 2462.95 L480.40 2460.72 L483.74 2458.49 L487.08 2456.27 L490.42 2453.92 L493.76 2451.69 L497.23 2449.34 L500.57 2447.11 L503.91 2444.76 L507.25 2442.53 L510.59 2440.18 L514.06 2437.83 L517.40 2435.60 L520.74 2433.25 L524.08 2430.90 L527.55 2428.55 L530.89 2426.19 L534.23 2423.84 L537.57 2421.49 L540.91 2419.14 L544.38 2416.67 L547.72 2414.31 L551.06 2411.96 L554.40 2409.49 L557.87 2407.14 L561.21 2404.66 L564.55 2402.31 L567.89 2399.83 L571.23 2397.48 L574.70 2395.01 L578.04 2392.53 L581.38 2390.06 L584.72 2387.58 L588.06 2385.11 L591.53 2382.63 L594.87 2380.16 L598.21 2377.68 L601.55 2375.21 L605.01 2372.73 L608.36 2370.13 L611.70 2367.66 L615.04 2365.18 L618.38 2362.59 L621.84 2360.11 L625.18 2357.51 L628.53 2355.04 L631.87 2352.44 L635.33 2349.84 L638.67 2347.36 L642.02 2344.76 L645.36 2342.17 L648.70 2339.57 L652.16 2336.97 L655.50 2334.37 L658.85 2331.77 L662.19 2329.17 L665.65 2326.57 L668.99 2323.97 L672.33 2321.38 L675.68 2318.65 L679.02 2316.05 L682.48 2313.45 L685.82 2310.73 L689.16 2308.13 L692.51 2305.41 L695.85 2302.81 L699.31 2300.09 L702.65 2297.37 L705.99 2294.77 L709.34 2292.05 L712.80 2289.32 L716.14 2286.60 L719.48 2284.00 L722.82 2281.28 L726.17 2278.56 L729.63 2275.83 L732.97 2273.11 L736.31 2270.39 L739.65 2267.54 L743.12 2264.82 L746.46 2262.10 L749.80 2259.37 L753.14 2256.53 L756.48 2253.81 L759.95 2251.08 L763.29 2248.24 L766.63 2245.51 L769.97 2242.67 L773.31 2239.94 L776.78 2237.10 L780.12 2234.25 L783.46 2231.53 L786.80 2228.68 L790.27 2225.84 L793.61 2222.99 L796.95 2220.14 L800.29 2217.42 L803.63 2214.58 L807.10 2211.73 L810.44 2208.88 L813.78 2206.04 L817.12 2203.07 L820.59 2200.22 L823.93 2197.37 L827.27 2194.53 L830.61 2191.68 L833.95 2188.71 L837.42 2185.86 L840.76 2183.02 L844.10 2180.05 L847.44 2177.20 L850.91 2174.23 L854.25 2171.39 L857.59 2168.42 L860.93 2165.57 L864.27 2162.60 L867.74 2159.63 L871.08 2156.78 L874.42 2153.81 L877.76 2150.84 L881.10 2148.00 L884.57 2145.03 L887.91 2142.06 L891.25 2139.09 L894.59 2136.12 L898.05 2133.15 L901.40 2130.18 L904.74 2127.21 L908.08 2124.24 L911.42 2121.27 L914.88 2118.29 L918.23 2115.32 L921.57 2112.23 L924.91 2109.26 L928.37 2106.29 L931.71 2103.32 L935.06 2100.23 L938.40 2097.26 L941.74 2094.16 L945.20 2091.19 L948.54 2088.22 L951.89 2085.13 L955.23 2082.16 L958.57 2079.06 L962.03 2076.09 L965.37 2073.00 L968.72 2069.91 L972.06 2066.94 L975.52 2063.84 L978.86 2060.75 L982.20 2057.66 L985.55 2054.69 L988.89 2051.59 L992.35 2048.50 L995.69 2045.40 L999.03 2042.31 L1002.38 2039.22 L1005.84 2036.12 L1009.18 2033.15 L1012.52 2030.06 L1015.86 2026.96 L1019.21 2023.75 L1022.67 2020.65 L1026.01 2017.56 L1029.35 2014.47 L1032.69 2011.37 L1036.04 2008.28 L1039.50 2005.18 L1042.84 2001.97 L1046.18 1998.87 L1049.52 1995.78 L1052.99 1992.68 L1056.33 1989.47 L1059.67 1986.37 L1063.01 1983.28 L1066.35 1980.06 L1069.82 1976.97 L1073.16 1973.75 L1076.50 1970.66 L1079.84 1967.44 L1083.31 1964.35 L1086.65 1961.13 L1089.99 1958.03 L1093.33 1954.82 L1096.67 1951.72 L1100.14 1948.50 L1103.48 1945.29 L1106.82 1942.19 L1110.16 1938.98 L1113.63 1935.76 L1116.97 1932.66 L1120.31 1929.45 L1123.65 1926.23 L1126.99 1923.01 L1130.46 1919.79 L1133.80 1916.70 L1137.14 1913.48 L1140.48 1910.26 L1143.82 1907.05 L1147.29 1903.83 L1150.63 1900.61 L1153.97 1897.39 L1157.31 1894.18 L1160.78 1890.96 L1164.12 1887.74 L1167.46 1884.52 L1170.80 1881.31 L1174.14 1878.09 L1177.61 1874.87 L1180.95 1871.65 L1184.29 1868.44 L1187.63 1865.22 L1191.09 1862.00 L1194.44 1858.78 L1197.78 1855.57 L1201.12 1852.22 L1204.46 1849.01 L1207.92 1845.79 L1211.27 1842.57 L1214.61 1839.35 L1217.95 1836.01 L1221.29 1832.79 L1224.75 1829.58 L1228.10 1826.36 L1231.44 1823.02 L1234.78 1819.80 L1238.24 1816.58 L1241.58 1813.24 L1244.93 1810.02 L1248.27 1806.81 L1251.61 1803.47 L1255.07 1800.25 L1258.41 1796.91 L1261.76 1793.69 L1265.10 1790.47 L1268.56 1787.13 L1271.90 1783.91 L1275.24 1780.57 L1278.59 1777.35 L1281.93 1774.01 L1285.39 1770.79 L1288.73 1767.45 L1292.07 1764.24 L1295.42 1760.89 L1298.88 1757.68 L1302.22 1754.33 L1305.56 1751.12 L1308.90 1747.78 L1312.25 1744.43 L1315.71 1741.22 L1319.05 1737.88 L1322.39 1734.66 L1325.73 1731.32 L1329.08 1727.98 L1332.54 1724.76 L1335.88 1721.42 L1339.22 1718.20 L1342.56 1714.86 L1346.03 1711.52 L1349.37 1708.30 L1352.71 1704.96 L1356.05 1701.62 L1359.39 1698.40 L1362.86 1695.06 L1366.20 1691.72 L1369.54 1688.50 L1372.88 1685.16 L1376.35 1681.82 L1379.69 1678.47 L1383.03 1675.26 L1386.37 1671.91 L1389.71 1668.57 L1393.18 1665.36 L1396.52 1662.01 L1399.86 1658.67 L1403.20 1655.33 L1406.54 1652.11 L1410.01 1648.77 L1413.35 1645.43 L1416.69 1642.09 L1420.03 1638.87 L1423.50 1635.53 L1426.84 1632.19 L1430.18 1628.85 L1433.52 1625.63 L1436.86 1622.29 L1440.33 1618.95 L1443.67 1615.61 L1447.01 1612.27 L1450.35 1609.05 L1453.82 1605.71 L1457.16 1602.37 L1460.50 1599.02 L1463.84 1595.81 L1467.18 1592.46 L1470.65 1589.12 L1473.99 1585.78 L1477.33 1582.44 L1480.67 1579.22 L1484.13 1575.88 L1487.48 1572.54 L1490.82 1569.20 L1494.16 1565.98 L1497.50 1562.64 L1500.96 1559.30 L1504.31 1555.96 L1507.65 1552.74 L1510.99 1549.40 L1514.33 1546.06 L1517.79 1542.72 L1521.14 1539.37 L1524.48 1536.16 L1527.82 1532.82 L1531.28 1529.47 L1534.62 1526.13 L1537.97 1522.92 L1541.31 1519.57 L1544.65 1516.23 L1548.11 1513.01 L1551.45 1509.67 L1554.80 1506.33 L1558.14 1502.99 L1561.60 1499.77 L1564.94 1496.43 L1568.28 1493.09 L1571.63 1489.87 L1574.97 1486.53 L1578.43 1483.19 L1581.77 1479.97 L1585.11 1476.63 L1588.46 1473.29 L1591.80 1470.07 L1595.26 1466.73 L1598.60 1463.39 L1601.94 1460.17 L1605.29 1456.83 L1608.75 1453.49 L1612.09 1450.27 L1615.43 1446.93 L1618.77 1443.71 L1622.12 1440.37 L1625.58 1437.03 L1628.92 1433.81 L1632.26 1430.47 L1635.60 1427.25 L1639.07 1423.91 L1642.41 1420.69 L1645.75 1417.35 L1649.09 1414.14 L1652.43 1410.79 L1655.90 1407.58 L1659.24 1404.24 L1662.58 1401.02 L1665.92 1397.68 L1669.26 1394.46 L1672.73 1391.12 L1676.07 1387.90 L1679.41 1384.56 L1682.75 1381.34 L1686.22 1378.12 L1689.56 1374.78 L1692.90 1371.56 L1696.24 1368.22 L1699.58 1365.01 L1703.05 1361.79 L1706.39 1358.45 L1709.73 1355.23 L1713.07 1352.01 L1716.54 1348.79 L1719.88 1345.45 L1723.22 1342.23 L1726.56 1339.02 L1729.90 1335.80 L1733.37 1332.46 L1736.71 1329.24 L1740.05 1326.02 L1743.39 1322.81 L1746.86 1319.59 L1750.20 1316.25 L1753.54 1313.03 L1756.88 1309.81 L1760.22 1306.59 L1763.69 1303.38 L1767.03 1300.16 L1770.37 1296.94 L1773.71 1293.72 L1777.05 1290.51 L1780.52 1287.29 L1783.86 1284.07 L1787.20 1280.85 L1790.54 1277.63 L1794.00 1274.42 L1797.35 1271.20 L1800.69 1267.98 L1804.03 1264.76 L1807.37 1261.55 L1810.83 1258.45 L1814.18 1255.24 L1817.52 1252.02 L1820.86 1248.80 L1824.32 1245.58 L1827.66 1242.49 L1831.01 1239.27 L1834.35 1236.05 L1837.69 1232.96 L1841.15 1229.74 L1844.49 1226.52 L1847.84 1223.43 L1851.18 1220.21 L1854.52 1217.00 L1857.98 1213.90 L1861.32 1210.68 L1864.67 1207.59 L1868.01 1204.37 L1871.47 1201.28 L1874.81 1198.06 L1878.15 1194.97 L1881.50 1191.75 L1884.84 1188.66 L1888.30 1185.56 L1891.64 1182.34 L1894.98 1179.25 L1898.33 1176.16 L1901.79 1172.94 L1905.13 1169.85 L1908.47 1166.75 L1911.81 1163.66 L1915.16 1160.44 L1918.62 1157.35 L1921.96 1154.25 L1925.30 1151.16 L1928.64 1148.06 L1932.11 1144.97 L1935.45 1141.88 L1938.79 1138.78 L1942.13 1135.69 L1945.47 1132.60 L1948.94 1129.50 L1952.28 1126.41 L1955.62 1123.31 L1958.96 1120.22 L1962.30 1117.13 L1965.77 1114.03 L1969.11 1111.06 L1972.45 1107.97 L1975.79 1104.87 L1979.26 1101.78 L1982.60 1098.81 L1985.94 1095.72 L1989.28 1092.62 L1992.62 1089.65 L1996.09 1086.56 L1999.43 1083.59 L2002.77 1080.50 L2006.11 1077.52 L2009.58 1074.43 L2012.92 1071.46 L2016.26 1068.37 L2019.60 1065.40 L2022.94 1062.43 L2026.41 1059.33 L2029.75 1056.36 L2033.09 1053.39 L2036.43 1050.30 L2039.77 1047.33 L2043.24 1044.36 L2046.58 1041.39 L2049.92 1038.42 L2053.26 1035.45 L2056.73 1032.48 L2060.07 1029.51 L2063.41 1026.54 L2066.75 1023.57 L2070.09 1020.60 L2073.55 1017.63 L2076.90 1014.66 L2080.24 1011.69 L2083.58 1008.72 L2087.04 1005.75 L2090.39 1002.90 L2093.73 999.93 L2097.07 996.96 L2100.41 994.11 L2103.87 991.14 L2107.22 988.30 L2110.56 985.33 L2113.90 982.36 L2117.36 979.51 L2120.70 976.67 L2124.05 973.70 L2127.39 970.85 L2130.73 967.88 L2134.19 965.03 L2137.53 962.19 L2140.88 959.34 L2144.22 956.37 L2147.56 953.52 L2151.02 950.68 L2154.36 947.83 L2157.71 944.98 L2161.05 942.14 L2164.51 939.29 L2167.85 936.45 L2171.19 933.60 L2174.54 930.75 L2177.88 927.91 L2181.34 925.06 L2184.68 922.34 L2188.02 919.49 L2191.36 916.64 L2194.83 913.80 L2198.17 911.08 L2201.51 908.23 L2204.85 905.51 L2208.20 902.66 L2211.66 899.94 L2215.00 897.09 L2218.34 894.37 L2221.68 891.52 L2225.03 888.80 L2228.49 886.08 L2231.83 883.36 L2235.17 880.51 L2238.51 877.79 L2241.98 875.06 L2245.32 872.34 L2248.66 869.62 L2252.00 866.90 L2255.34 864.17 L2258.81 861.45 L2262.15 858.73 L2265.49 856.01 L2268.83 853.28 L2272.30 850.56 L2275.64 847.96 L2278.98 845.24 L2282.32 842.52 L2285.66 839.92 L2289.13 837.19 L2292.47 834.60 L2295.81 831.87 L2299.15 829.27 L2302.49 826.55 L2305.96 823.95 L2309.30 821.23 L2312.64 818.63 L2315.98 816.03 L2319.45 813.43 L2322.79 810.71 L2326.13 808.11 L2329.47 805.51 L2332.81 802.92 L2336.28 800.32 L2339.62 797.72 L2342.96 795.12 L2346.30 792.52 L2349.77 789.92 L2353.11 787.45 L2356.45 784.85 L2359.79 782.25 L2363.13 779.77 L2366.59 777.17 L2369.94 774.58 L2373.28 772.10 L2376.62 769.50 L2380.08 767.03 L2383.43 764.43 L2386.77 761.95 L2390.11 759.48 L2393.45 756.88 L2396.91 754.40 L2400.26 751.93 L2403.60 749.45 L2406.94 746.98 L2410.28 744.38 L2413.74 741.90 L2417.09 739.43 L2420.43 737.08 L2423.77 734.60 L2427.23 732.13 L2430.57 729.65 L2433.92 727.18 L2437.26 724.70 L2440.60 722.35 L2444.06 719.88 L2447.40 717.40 L2450.75 715.05 L2454.09 712.57 L2457.55 710.22 L2460.89 707.87 L2464.23 705.40 L2467.57 703.05 L2470.92 700.69 L2474.38 698.22 L2477.72 695.87 L2481.06 693.52 L2484.41 691.17 L2487.75 688.81 L2491.21 686.46 L2494.55 684.11 L2497.89 681.76 L2501.24 679.41 L2504.70 677.06 L2508.04 674.71 L2511.38 672.35 L2514.72 670.13 L2518.07 667.78 L2521.53 665.42 L2524.87 663.20 L2528.21 660.85 L2531.55 658.62 L2535.02 656.27 L2538.36 654.04 L2541.70 651.81 L2545.04 649.46 L2548.38 647.23 L2551.85 645.01 L2555.19 642.78 L2558.53 640.55 L2561.87 638.32 L2565.34 635.97 L2568.68 633.87 L2572.02 631.64 L2575.36 629.41 L2578.70 627.18 L2582.17 624.96 L2585.51 622.73 L2588.85 620.50 L2592.19 618.40 L2595.53 616.17 L2599.00 614.07 L2602.34 611.84 L2605.68 609.74 L2609.02 607.51 L2612.49 605.40 L2615.83 603.18 L2619.17 601.07 L2622.51 598.97 L2625.85 596.86 L2629.32 594.64 L2632.66 592.53 L2636.00 590.43 L2639.34 588.33 L2642.81 586.22 L2646.15 584.12 L2649.49 582.01 L2652.83 579.91 L2656.17 577.93 L2659.64 575.83 L2662.98 573.72 L2666.32 571.62 L2669.66 569.64 L2673.00 567.54 L2676.47 565.56 L2679.81 563.45 L2683.15 561.47 L2686.49 559.37 L2689.95 557.39 L2693.30 555.41 L2696.64 553.30 L2699.98 551.32 L2703.32 549.34 L2706.78 547.36 L2710.13 545.38 L2713.47 543.28 L2716.81 541.30 L2720.27 539.44 L2723.61 537.46 L2726.96 535.48 L2730.30 533.50 L2733.64 531.52 L2737.10 529.54 L2740.44 527.69 L2743.79 525.71 L2747.13 523.73 L2750.59 521.87 L2753.93 519.89 L2757.27 518.03 L2760.62 516.05 L2763.96 514.20 L2767.42 512.34 L2770.76 510.36 L2774.10 508.50 L2777.45 506.65 L2780.79 504.79 L2784.25 502.94 L2787.59 500.96 L2790.93 499.10 L2794.28 497.24 L2797.74 495.39 L2801.08 493.65 L2804.42 491.80 L2807.76 489.94 L2811.11 488.09 L2814.57 486.23 L2817.91 484.50 L2821.25 482.64 L2824.59 480.78 L2828.06 479.05 L2831.40 477.19 L2834.74 475.46 L2838.08 473.61 L2841.42 471.87 L2844.89 470.14 L2848.23 468.28 L2851.57 466.55 L2854.91 464.82 L2858.25 463.09 L2861.72 461.23 L2865.06 459.50 L2868.40 457.77 L2871.74 456.03 L2875.21 454.30 L2878.55 452.57 L2881.89 450.84 L2885.23 449.23 L2888.57 447.49 L2892.04 445.76 L2895.38 444.03 L2898.72 442.30 L2902.06 440.69 L2905.53 438.95 L2908.87 437.35 L2912.21 435.61 L2915.55 434.00 L2918.89 432.27 L2922.36 430.66 L2925.70 428.93 L2929.04 427.32 L2932.38 425.71 L2935.72 424.10 L2939.19 422.37 L2942.53 420.76 L2945.87 419.15 L2949.21 417.55 L2952.68 415.94 L2956.02 414.33 L2959.36 412.72 L2962.70 411.11 L2966.04 409.50 L2969.51 407.89 L2972.85 406.28 L2976.19 404.80 L2979.53 403.19 L2982.99 401.58 L2986.34 399.97 L2989.68 398.49 L2993.02 396.88 L2996.36 395.39 L2999.82 393.78 L3003.17 392.30 L3006.51 390.69 L3009.85 389.21 L3013.31 387.60 L3016.65 386.11 L3020.00 384.63 L3023.34 383.14 L3026.68 381.53 L3030.14 380.05 L3033.48 378.56 L3036.83 377.08 L3040.17 375.59 L3043.51 374.11 L3046.97 372.62 L3050.31 371.14 L3053.66 369.65 L3057.00 368.17 L3060.46 366.68 L3063.80 365.20 L3067.14 363.71 L3070.49 362.35 L3073.83 360.87 L3077.29 359.38 L3080.63 358.02 L3083.97 356.53 L3087.32 355.05 L3090.78 353.69 L3094.12 352.20 L3097.46 350.84 L3100.80 349.36 L3104.15 348.00 L3107.61 346.63 L3110.95 345.15 L3114.29 343.79 L3117.63 342.43 L3120.98 340.94 L3124.44 339.58 L3127.78 338.22 L3131.12 336.86 L3134.46 335.50 L3137.93 334.01 L3141.27 332.65 L3144.61 331.29 L3147.95 329.93 L3151.29 328.57 L3154.76 327.21 L3158.10 325.84 L3161.44 324.61 L3164.78 323.25 L3168.25 321.88 L3171.59 320.52 L3174.93 319.16 L3178.27 317.80 L3181.61 316.56 L3185.08 315.20 L3188.42 313.84 L3191.76 312.60 L3195.10 311.24 L3198.57 310.00 L3201.91 308.64 L3205.25 307.28 L3208.59 306.04 L3211.93 304.68 L3215.40 303.44 L3218.74 302.21 L3222.08 300.85 L3225.42 299.61 L3228.76 298.37 L3232.23 297.01 L3235.57 295.77 L3238.91 294.53 L3242.25 293.17 L3245.72 291.94 L3249.06 290.70 L3252.40 289.46 L3255.74 288.22 L3259.08 286.99 L3262.55 285.62 L3265.89 284.39 L3269.23 283.15 L3272.57 281.91 L3276.03 280.67 L3279.38 279.44 L3282.72 278.20 L3286.06 276.96 L3289.40 275.85 L3292.86 274.61 L3296.21 273.37 L3299.55 272.13 L3302.89 270.90 L3306.23 269.66 L3309.69 268.55 L3313.04 267.31 L3316.38 266.07 L3319.72 264.83 L3323.18 263.72 L3326.52 262.48 L3329.87 261.24 L3333.21 260.13 L3336.55 258.89 L3340.01 257.66 L3343.35 256.54 L3346.70 255.30 L3350.04 254.19 L3353.50 252.95 L3356.84 251.84 L3360.18 250.60 L3363.53 249.49 L3366.87 248.25 L3370.33 247.14 L3373.67 245.90 L3377.01 244.79 L3380.36 243.55 L3383.82 242.43 L3387.16 241.32 L3390.50 240.08 L3393.84 238.97 L3397.19 237.85 L3400.65 236.62 L3403.99 235.50 L3407.33 234.39 L3410.67 233.15 L3414.02 232.04 L3417.48 230.92 L3420.82 229.81 L3424.16 228.57 L3427.50 227.46 L3430.97 226.35 L3434.31 225.23 L3437.65 223.99 L3440.99 222.88 L3444.33 221.77 L3447.80 220.65 L3451.14 219.54 L3454.48 218.43 L3457.82 217.31 L3461.29 216.07 L3464.63 214.96 L3467.97 213.85 L3471.31 212.73 L3474.65 211.62 L3478.12 210.51 L3481.46 209.39 L3484.80 208.28 L3488.14 207.16 L3491.48 206.05 L3494.95 204.94 L3498.29 203.82 L3501.63 202.71 L3504.97 201.60 L3508.44 200.48 L3511.78 199.24 L3515.12 198.13 L3518.46 197.02 L3521.80 195.90 L3525.27 194.79 L3528.61 193.67 L3531.95 192.56 L3535.29 191.45 L3538.76 190.33 L3542.10 189.22 L3545.44 188.11 L3548.78 186.99 L3552.12 185.88 L3555.59 184.76 L3558.93 183.65 L3562.27 182.54 L3565.61 181.42 L3568.95 180.31 L3572.42 179.20 L3575.76 178.08 L3579.10 176.97 L3582.44 175.85 L3585.90 174.74 L3589.25 173.63 L3592.59 172.51 L3595.93 171.40 L3599.27 170.29 L3602.73 169.17 L3606.08 168.06 L3609.42 166.94 L3612.76 165.83 L3616.22 164.72 L3619.56 163.60 L3622.91 162.49 L3626.25 161.38 L3629.59 160.26 L3633.05 159.15 L3636.39 158.03 L3639.74 156.92 L3643.08 155.81 L3646.54 154.69 L3649.88 153.45 L3653.22 152.34 L3656.57 151.23 L3659.91 150.11 L3663.37 149.00 L3666.71 147.89 L3670.05 146.65 L3673.40 145.53 L3676.74 144.42 L3680.20 143.31 L3683.54 142.19 L3686.88 140.96 L3690.23 139.84 L3693.69 138.73 L3697.03 137.61 L3700.37 136.38 L3703.71 135.26 L3707.06 134.15 L3710.52 132.91 L3713.86 131.80 L3717.20 130.68 L3720.54 129.45 L3724.01 128.33 L3727.35 127.10 L3730.69 125.98 L3734.03 124.87 L3737.37 123.63 L3740.84 122.52 L3744.18 121.28 L3747.52 120.17 L3750.86 118.93 L3754.20 117.69 L3757.67 116.58 L3761.01 115.34 L3764.35 114.22 L3767.69 112.99 L3771.16 111.75 L3774.50 110.64 L3777.84 109.40 L3781.18 108.16 L3784.52 106.92 L3787.99 105.69 L3791.33 104.57 L3794.67 103.33 L3798.01 102.10 L3801.48 100.86" stroke-linejoin="round" style="fill:none;stroke:#E41A1C;stroke-width:8.64"/>
	<line x1="436.59" y1="2489.19" x2="436.59" y2="100.86" style="stroke:#000000;stroke-width:5.76"/>
	<line x1="436.59" y1="2489.19" x2="396.62" y2="2489.19" style="stroke:#000000;stroke-width:5.76"/>
	<text x="376.57" y="2524.21" style="font-family:'Helvetica';font-size:99.99px;fill:#000000" text-anchor="end">0</text>
	<line x1="436.59" y1="2044.29" x2="396.62" y2="2044.29" style="stroke:#000000;stroke-width:5.76"/>
	<text x="376.57" y="2079.32" style="font-family:'Helvetica';font-size:99.99px;fill:#000000" text-anchor="end">2</text>
	<line x1="436.59" y1="1599.27" x2="396.62" y2="1599.27" style="stroke:#000000;stroke-width:5.76"/>
	<text x="376.57" y="1634.30" style="font-family:'Helvetica';font-size:99.99px;fill:#000000" text-anchor="end">4</text>
	<line x1="436.59" y1="1154.25" x2="396.62" y2="1154.25" style="stroke:#000000;stroke-width:5.76"/>
	<text x="376.57" y="1189.28" style="font-family:'Helvetica';font-size:99.99px;fill:#000000" text-anchor="end">6</text>
	<line x1="436.59" y1="709.36" x2="396.62" y2="709.36" style="stroke:#000000;stroke-width:5.76"/>
	<text x="376.57" y="744.39" style="font-family:'Helvetica';font-size:99.99px;fill:#000000" text-anchor="end">8</text>
	<line x1="436.59" y1="264.34" x2="396.62" y2="264.34" style="stroke:#000000;stroke-width:5.76"/>
	<text x="376.57" y="299.37" style="font-family:'Helvetica';font-size:99.99px;fill:#000000" text-anchor="end">10</text>
	<text x="190.71" y="1294.96" style="font-family:'Helvetica';font-size:99.99px;fill:#000000" transform="rotate(-90 190.71,1294.96)" text-anchor="middle">integ1</text>
	<line x1="436.59" y1="2489.19" x2="3859.02" y2="2489.19" style="stroke:#000000;stroke-width:5.76"/>
	<line x1="436.59" y1="2489.19" x2="436.59" y2="2529.16" style="stroke:#000000;stroke-width:5.76"/>
	<text x="436.59" y="2619.14" style="font-family:'Helvetica';font-size:99.99px;fill:#000000" text-anchor="middle">0</text>
	<line x1="1109.54" y1="2489.19" x2="1109.54" y2="2529.16" style="stroke:#000000;stroke-width:5.76"/>
	<text x="1109.54" y="2619.14" style="font-family:'Helvetica';font-size:99.99px;fill:#000000" text-anchor="middle">1</text>
	<line x1="1782.62" y1="2489.19" x2="1782.62" y2="2529.16" style="stroke:#000000;stroke-width:5.76"/>
	<text x="1782.62" y="2619.14" style="font-family:'Helvetica';font-size:99.99px;fill:#000000" text-anchor="middle">2</text>
	<line x1="2455.57" y1="2489.19" x2="2455.57" y2="2529.16" style="stroke:#000000;stroke-width:5.76"/>
	<text x="2455.57" y="2619.14" style="font-family:'Helvetica';font-size:99.99px;fill:#000000" text-anchor="middle">3</text>
	<line x1="3128.52" y1="2489.19" x2="3128.52" y2="2529.16" style="stroke:#000000;stroke-width:5.76"/>
	<text x="3128.52" y="2619.14" style="font-family:'Helvetica';font-size:99.99px;fill:#000000" text-anchor="middle">4</text>
	<line x1="3801.48" y1="2489.19" x2="3801.48" y2="2529.16" style="stroke:#000000;stroke-width:5.76"/>
	<text x="3801.48" y="2619.14" style="font-family:'Helvetica';font-size:99.99px;fill:#000000" text-anchor="middle">5</text>
	<text x="2147.80" y="2729.16" style="font-family:'Helvetica';font-size:99.99px;fill:#000000" text-anchor="middle">x</text>
</svg>
