<?xml version="1.0" encoding="UTF-8" standalone="no"?>
<!-- This is a Stata 18.5 generated SVG file (http://www.stata.com) -->

<svg version="1.1" width="700px" height="509px" viewBox="0 0 3960 2880" xmlns="http://www.w3.org/2000/svg" xmlns:xlink="http://www.w3.org/1999/xlink">
	<desc>Stata Graph - Graph</desc>
	<rect x="0" y="0" width="3960" height="2880" style="fill:#FFFFFF;stroke:none"/>
	<rect x="0.00" y="0.00" width="3959.88" height="2880.00" style="fill:#FFFFFF"/>
	<rect x="2.88" y="2.88" width="3954.12" height="2874.24" style="fill:none;stroke:#FFFFFF;stroke-width:5.76"/>
	<line x1="682.98" y1="2269.15" x2="3843.80" y2="2269.15" style="stroke:#C0C0C0;stroke-width:5.76"/>
	<line x1="682.98" y1="1870.42" x2="3843.80" y2="1870.42" style="stroke:#C0C0C0;stroke-width:5.76"/>
	<line x1="682.98" y1="1471.68" x2="3843.80" y2="1471.68" style="stroke:#C0C0C0;stroke-width:5.76"/>
	<line x1="682.98" y1="1072.95" x2="3843.80" y2="1072.95" style="stroke:#C0C0C0;stroke-width:5.76"/>
	<line x1="682.98" y1="674.09" x2="3843.80" y2="674.09" style="stroke:#C0C0C0;stroke-width:5.76"/>
	<line x1="682.98" y1="275.35" x2="3843.80" y2="275.35" style="stroke:#C0C0C0;stroke-width:5.76"/>
	<line x1="682.98" y1="2269.15" x2="682.98" y2="275.35" style="stroke:#C0C0C0;stroke-width:5.76"/>
	<line x1="1303.58" y1="2269.15" x2="1303.58" y2="275.35" style="stroke:#C0C0C0;stroke-width:5.76"/>
	<line x1="1924.19" y1="2269.15" x2="1924.19" y2="275.35" style="stroke:#C0C0C0;stroke-width:5.76"/>
	<line x1="2544.92" y1="2269.15" x2="2544.92" y2="275.35" style="stroke:#C0C0C0;stroke-width:5.76"/>
	<line x1="3165.53" y1="2269.15" x2="3165.53" y2="275.35" style="stroke:#C0C0C0;stroke-width:5.76"/>
	<line x1="3786.13" y1="2269.15" x2="3786.13" y2="275.35" style="stroke:#C0C0C0;stroke-width:5.76"/>
	<path d=" M682.85 275.48 L682.85 275.48 L682.85 275.48 L713.42 275.48 L713.42 275.48 L737.30 275.48 L737.30 276.22 L765.27 276.22 L765.27 276.96 L768.74 276.96 L768.74 277.70 L792.50 277.70 L792.50 277.70 L802.64 277.70 L802.64 278.45 L811.18 278.45 L811.18 279.93 L812.91 279.93 L812.91 280.67 L819.72 280.67 L819.72 280.67 L822.20 280.67 L822.20 281.42 L840.88 281.42 L840.88 282.16 L851.15 282.16 L851.15 283.03 L856.23 283.03 L856.23 283.77 L861.30 283.77 L861.30 284.51 L863.03 284.51 L863.03 285.25 L865.51 285.25 L865.51 286.00 L867.24 286.00 L867.24 287.48 L872.31 287.48 L872.31 288.22 L876.65 288.22 L876.65 288.97 L879.12 288.97 L879.12 289.83 L879.99 289.83 L879.99 290.57 L885.93 290.57 L885.93 291.32 L896.07 291.32 L896.07 292.06 L899.54 292.06 L899.54 292.80 L900.41 292.80 L900.41 293.54 L904.61 293.54 L904.61 294.29 L908.82 294.29 L908.82 295.03 L914.02 295.03 L914.02 295.77 L914.76 295.77 L914.76 296.64 L915.63 296.64 L915.63 297.38 L921.57 297.38 L921.57 298.12 L926.76 298.12 L926.76 298.87 L934.31 298.87 L934.31 299.61 L935.18 299.61 L935.18 299.61 L936.05 299.61 L936.05 300.35 L936.91 300.35 L936.91 301.09 L942.85 301.09 L942.85 301.84 L943.72 301.84 L943.72 302.58 L946.32 302.58 L946.32 303.32 L951.39 303.32 L951.39 304.19 L953.87 304.19 L953.87 304.93 L959.06 304.93 L959.06 305.67 L965.00 305.67 L965.00 307.16 L966.61 307.16 L966.61 307.90 L970.08 307.90 L970.08 308.64 L976.02 308.64 L976.02 309.38 L976.88 309.38 L976.88 309.38 L979.36 309.38 L979.36 310.13 L982.82 310.13 L982.82 310.13 L983.69 310.13 L983.69 310.99 L984.43 310.99 L984.43 311.74 L987.03 311.74 L987.03 312.48 L987.90 312.48 L987.90 313.22 L993.84 313.22 L993.84 313.96 L995.57 313.96 L995.57 314.71 L998.91 314.71 L998.91 315.45 L999.78 315.45 L999.78 317.06 L1000.64 317.06 L1000.64 317.80 L1003.98 317.80 L1003.98 318.54 L1006.58 318.54 L1006.58 319.28 L1007.45 319.28 L1007.45 320.03 L1008.32 320.03 L1008.32 320.77 L1013.39 320.77 L1013.39 321.51 L1016.73 321.51 L1016.73 322.26 L1020.20 322.26 L1020.20 323.00 L1026.14 323.00 L1026.14 323.86 L1028.61 323.86 L1028.61 324.61 L1033.81 324.61 L1033.81 325.35 L1038.02 325.35 L1038.02 326.09 L1044.82 326.09 L1044.82 326.83 L1050.76 326.83 L1050.76 327.58 L1052.49 327.58 L1052.49 328.32 L1056.70 328.32 L1056.70 329.80 L1059.30 329.80 L1059.30 331.41 L1060.91 331.41 L1060.91 332.16 L1061.78 332.16 L1061.78 332.90 L1062.64 332.90 L1062.64 333.64 L1064.37 333.64 L1064.37 334.38 L1065.24 334.38 L1065.24 335.13 L1066.11 335.13 L1066.11 335.87 L1072.79 335.87 L1072.79 336.73 L1077.12 336.73 L1077.12 338.22 L1077.99 338.22 L1077.99 338.96 L1078.85 338.96 L1078.85 339.70 L1080.46 339.70 L1080.46 340.45 L1082.19 340.45 L1082.19 341.19 L1083.93 341.19 L1083.93 341.93 L1088.13 341.93 L1088.13 342.67 L1089.87 342.67 L1089.87 343.54 L1092.34 343.54 L1092.34 343.54 L1094.94 343.54 L1094.94 344.28 L1095.81 344.28 L1095.81 345.03 L1099.15 345.03 L1099.15 345.77 L1100.88 345.77 L1100.88 347.25 L1101.75 347.25 L1101.75 348.00 L1102.61 348.00 L1102.61 348.74 L1105.09 348.74 L1105.09 349.60 L1110.29 349.60 L1110.29 350.35 L1123.03 350.35 L1123.03 351.09 L1124.64 351.09 L1124.64 351.83 L1133.18 351.83 L1133.18 352.57 L1135.78 352.57 L1135.78 353.32 L1140.85 353.32 L1140.85 354.06 L1141.72 354.06 L1141.72 354.80 L1145.06 354.80 L1145.06 355.54 L1149.27 355.54 L1149.27 356.41 L1151.87 356.41 L1151.87 357.15 L1153.60 357.15 L1153.60 357.15 L1155.21 357.15 L1155.21 357.15 L1156.07 357.15 L1156.07 357.90 L1156.94 357.90 L1156.94 358.64 L1158.67 358.64 L1158.67 359.38 L1162.01 359.38 L1162.01 360.12 L1164.61 360.12 L1164.61 360.87 L1166.34 360.87 L1166.34 361.61 L1167.21 361.61 L1167.21 362.48 L1170.55 362.48 L1170.55 363.22 L1172.28 363.22 L1172.28 363.96 L1175.63 363.96 L1175.63 363.96 L1176.49 363.96 L1176.49 365.45 L1177.36 365.45 L1177.36 366.19 L1178.22 366.19 L1178.22 367.67 L1179.09 367.67 L1179.09 369.28 L1181.57 369.28 L1181.57 370.02 L1183.30 370.02 L1183.30 370.77 L1184.16 370.77 L1184.16 371.51 L1185.90 371.51 L1185.90 372.25 L1189.24 372.25 L1189.24 372.99 L1190.97 372.99 L1190.97 374.60 L1193.45 374.60 L1193.45 376.09 L1195.18 376.09 L1195.18 376.83 L1197.78 376.83 L1197.78 377.57 L1198.64 377.57 L1198.64 378.32 L1199.39 378.32 L1199.39 379.06 L1200.25 379.06 L1200.25 379.92 L1201.12 379.92 L1201.12 381.41 L1207.92 381.41 L1207.92 382.15 L1208.79 382.15 L1208.79 382.89 L1209.66 382.89 L1209.66 382.89 L1215.60 382.89 L1215.60 383.64 L1218.94 383.64 L1218.94 384.38 L1220.67 384.38 L1220.67 385.12 L1223.27 385.12 L1223.27 385.99 L1225.74 385.99 L1225.74 386.73 L1226.61 386.73 L1226.61 387.47 L1230.08 387.47 L1230.08 388.22 L1234.28 388.22 L1234.28 388.96 L1235.15 388.96 L1235.15 390.44 L1236.02 390.44 L1236.02 392.05 L1239.36 392.05 L1239.36 392.79 L1240.22 392.79 L1240.22 393.54 L1242.82 393.54 L1242.82 394.28 L1245.30 394.28 L1245.30 395.02 L1248.76 395.02 L1248.76 395.76 L1255.57 395.76 L1255.57 396.63 L1258.04 396.63 L1258.04 397.37 L1259.78 397.37 L1259.78 398.12 L1262.37 398.12 L1262.37 398.86 L1263.12 398.86 L1263.12 400.34 L1266.58 400.34 L1266.58 401.09 L1268.31 401.09 L1268.31 401.95 L1269.06 401.95 L1269.06 402.70 L1270.79 402.70 L1270.79 403.44 L1273.39 403.44 L1273.39 403.44 L1276.73 403.44 L1276.73 404.18 L1279.33 404.18 L1279.33 404.92 L1282.67 404.92 L1282.67 405.67 L1286.13 405.67 L1286.13 406.41 L1287.00 406.41 L1287.00 408.02 L1287.74 408.02 L1287.74 408.76 L1289.47 408.76 L1289.47 409.50 L1292.07 409.50 L1292.07 410.24 L1293.81 410.24 L1293.81 411.73 L1294.55 411.73 L1294.55 412.47 L1296.28 412.47 L1296.28 413.34 L1297.15 413.34 L1297.15 414.82 L1298.01 414.82 L1298.01 416.31 L1299.75 416.31 L1299.75 417.79 L1304.82 417.79 L1304.82 419.40 L1305.69 419.40 L1305.69 420.14 L1308.16 420.14 L1308.16 420.89 L1309.03 420.89 L1309.03 421.63 L1311.63 421.63 L1311.63 422.37 L1312.49 422.37 L1312.49 423.11 L1314.10 423.11 L1314.10 423.98 L1316.70 423.98 L1316.70 424.72 L1318.43 424.72 L1318.43 425.47 L1320.04 425.47 L1320.04 426.21 L1320.91 426.21 L1320.91 427.69 L1322.64 427.69 L1322.64 430.04 L1326.85 430.04 L1326.85 433.01 L1330.31 433.01 L1330.31 433.76 L1332.79 433.76 L1332.79 434.62 L1334.52 434.62 L1334.52 435.37 L1336.25 435.37 L1336.25 436.11 L1346.40 436.11 L1346.40 436.85 L1349.87 436.85 L1349.87 438.34 L1354.94 438.34 L1354.94 439.94 L1355.81 439.94 L1355.81 440.69 L1356.67 440.69 L1356.67 441.43 L1360.01 441.43 L1360.01 442.17 L1365.09 442.17 L1365.09 442.92 L1366.82 442.92 L1366.82 444.40 L1370.16 444.40 L1370.16 445.27 L1371.03 445.27 L1371.03 446.01 L1371.89 446.01 L1371.89 446.75 L1374.49 446.75 L1374.49 447.49 L1375.36 447.49 L1375.36 448.24 L1376.22 448.24 L1376.22 448.98 L1376.97 448.98 L1376.97 449.72 L1377.83 449.72 L1377.83 450.59 L1378.70 450.59 L1378.70 451.33 L1379.57 451.33 L1379.57 452.07 L1380.43 452.07 L1380.43 452.82 L1381.30 452.82 L1381.30 454.30 L1382.16 454.30 L1382.16 455.04 L1384.64 455.04 L1384.64 456.65 L1385.51 456.65 L1385.51 457.39 L1390.58 457.39 L1390.58 458.14 L1391.45 458.14 L1391.45 458.88 L1392.31 458.88 L1392.31 459.62 L1397.39 459.62 L1397.39 460.36 L1398.25 460.36 L1398.25 461.23 L1400.85 461.23 L1400.85 462.72 L1405.06 462.72 L1405.06 463.46 L1406.79 463.46 L1406.79 464.94 L1408.40 464.94 L1408.40 465.69 L1411.00 465.69 L1411.00 466.55 L1416.94 466.55 L1416.94 467.29 L1418.67 467.29 L1418.67 468.04 L1421.15 468.04 L1421.15 468.78 L1423.74 468.78 L1423.74 469.52 L1427.95 469.52 L1427.95 469.52 L1431.42 469.52 L1431.42 471.01 L1434.76 471.01 L1434.76 471.87 L1435.62 471.87 L1435.62 472.62 L1436.49 472.62 L1436.49 474.10 L1439.09 474.10 L1439.09 475.59 L1439.83 475.59 L1439.83 477.19 L1443.30 477.19 L1443.30 479.42 L1445.03 479.42 L1445.03 480.17 L1445.77 480.17 L1445.77 481.77 L1447.50 481.77 L1447.50 482.52 L1449.24 482.52 L1449.24 483.26 L1450.10 483.26 L1450.10 484.74 L1450.97 484.74 L1450.97 485.49 L1451.84 485.49 L1451.84 487.10 L1453.44 487.10 L1453.44 487.84 L1456.04 487.84 L1456.04 488.58 L1457.78 488.58 L1457.78 489.32 L1460.25 489.32 L1460.25 490.07 L1462.85 490.07 L1462.85 491.67 L1463.72 491.67 L1463.72 492.42 L1465.32 492.42 L1465.32 493.90 L1466.19 493.90 L1466.19 495.39 L1468.79 495.39 L1468.79 496.13 L1470.52 496.13 L1470.52 497.00 L1471.26 497.00 L1471.26 498.48 L1472.13 498.48 L1472.13 499.22 L1478.07 499.22 L1478.07 499.97 L1478.94 499.97 L1478.94 500.71 L1483.27 500.71 L1483.27 501.45 L1484.88 501.45 L1484.88 502.32 L1485.74 502.32 L1485.74 503.06 L1486.61 503.06 L1486.61 504.54 L1487.48 504.54 L1487.48 505.29 L1489.21 505.29 L1489.21 506.03 L1491.68 506.03 L1491.68 506.77 L1492.55 506.77 L1492.55 508.38 L1494.28 508.38 L1494.28 509.12 L1496.01 509.12 L1496.01 511.35 L1497.62 511.35 L1497.62 512.22 L1502.70 512.22 L1502.70 512.96 L1504.43 512.96 L1504.43 513.70 L1506.16 513.70 L1506.16 514.44 L1508.76 514.44 L1508.76 515.93 L1509.50 515.93 L1509.50 516.67 L1512.10 516.67 L1512.10 518.28 L1516.31 518.28 L1516.31 519.02 L1518.91 519.02 L1518.91 519.77 L1523.12 519.77 L1523.12 520.51 L1523.98 520.51 L1523.98 521.25 L1524.85 521.25 L1524.85 521.99 L1528.19 521.99 L1528.19 522.86 L1529.06 522.86 L1529.06 523.60 L1530.79 523.60 L1530.79 524.35 L1531.65 524.35 L1531.65 528.18 L1534.25 528.18 L1534.25 528.92 L1538.46 528.92 L1538.46 529.67 L1539.33 529.67 L1539.33 530.41 L1540.19 530.41 L1540.19 533.50 L1540.94 533.50 L1540.94 534.25 L1546.13 534.25 L1546.13 534.99 L1547.00 534.99 L1547.00 535.73 L1550.34 535.73 L1550.34 536.47 L1552.94 536.47 L1552.94 538.08 L1553.68 538.08 L1553.68 538.08 L1554.55 538.08 L1554.55 538.82 L1558.01 538.82 L1558.01 539.57 L1558.88 539.57 L1558.88 540.31 L1559.62 540.31 L1559.62 541.05 L1561.35 541.05 L1561.35 541.79 L1563.95 541.79 L1563.95 542.66 L1569.03 542.66 L1569.03 543.40 L1573.23 543.40 L1573.23 545.63 L1574.10 545.63 L1574.10 546.37 L1576.70 546.37 L1576.70 547.24 L1577.57 547.24 L1577.57 547.98 L1578.43 547.98 L1578.43 548.72 L1580.04 548.72 L1580.04 549.47 L1580.91 549.47 L1580.91 550.21 L1582.64 550.21 L1582.64 550.95 L1585.11 550.95 L1585.11 551.82 L1585.98 551.82 L1585.98 552.56 L1590.31 552.56 L1590.31 553.30 L1591.92 553.30 L1591.92 553.30 L1592.79 553.30 L1592.79 554.05 L1594.52 554.05 L1594.52 554.79 L1595.39 554.79 L1595.39 555.53 L1603.06 555.53 L1603.06 556.27 L1609.00 556.27 L1609.00 557.14 L1618.28 557.14 L1618.28 558.62 L1619.15 558.62 L1619.15 559.37 L1620.01 559.37 L1620.01 560.11 L1620.88 560.11 L1620.88 560.85 L1621.74 560.85 L1621.74 560.85 L1623.35 560.85 L1623.35 561.72 L1624.22 561.72 L1624.22 562.46 L1625.95 562.46 L1625.95 563.20 L1629.29 563.20 L1629.29 563.95 L1630.16 563.95 L1630.16 565.43 L1633.62 565.43 L1633.62 566.30 L1637.83 566.30 L1637.83 567.04 L1638.70 567.04 L1638.70 567.78 L1641.30 567.78 L1641.30 568.53 L1642.04 568.53 L1642.04 570.13 L1645.50 570.13 L1645.50 570.88 L1650.58 570.88 L1650.58 571.62 L1651.44 571.62 L1651.44 572.36 L1653.18 572.36 L1653.18 573.10 L1656.52 573.10 L1656.52 573.85 L1657.38 573.85 L1657.38 574.71 L1659.98 574.71 L1659.98 575.46 L1663.32 575.46 L1663.32 576.20 L1669.26 576.20 L1669.26 576.94 L1670.13 576.94 L1670.13 577.68 L1671.00 577.68 L1671.00 578.43 L1672.73 578.43 L1672.73 579.29 L1673.47 579.29 L1673.47 580.78 L1674.34 580.78 L1674.34 581.52 L1676.07 581.52 L1676.07 582.26 L1680.28 582.26 L1680.28 583.00 L1681.14 583.00 L1681.14 583.87 L1682.88 583.87 L1682.88 584.61 L1691.42 584.61 L1691.42 585.36 L1692.28 585.36 L1692.28 586.10 L1693.02 586.10 L1693.02 587.58 L1694.76 587.58 L1694.76 588.45 L1695.62 588.45 L1695.62 589.93 L1696.49 589.93 L1696.49 590.68 L1700.70 590.68 L1700.70 591.42 L1702.43 591.42 L1702.43 592.16 L1705.77 592.16 L1705.77 593.03 L1709.24 593.03 L1709.24 593.77 L1716.04 593.77 L1716.04 594.51 L1717.65 594.51 L1717.65 595.26 L1721.12 595.26 L1721.12 596.00 L1724.46 596.00 L1724.46 596.00 L1728.79 596.00 L1728.79 597.61 L1729.65 597.61 L1729.65 599.09 L1730.40 599.09 L1730.40 599.83 L1732.13 599.83 L1732.13 600.58 L1733.86 600.58 L1733.86 601.32 L1734.73 601.32 L1734.73 602.19 L1739.80 602.19 L1739.80 602.93 L1742.40 602.93 L1742.40 603.67 L1743.14 603.67 L1743.14 605.16 L1744.01 605.16 L1744.01 605.90 L1744.88 605.90 L1744.88 606.77 L1749.95 606.77 L1749.95 607.51 L1759.35 607.51 L1759.35 608.25 L1760.22 608.25 L1760.22 610.60 L1761.09 610.60 L1761.09 612.09 L1766.16 612.09 L1766.16 612.83 L1776.31 612.83 L1776.31 615.18 L1778.04 615.18 L1778.04 616.67 L1782.25 616.67 L1782.25 617.41 L1783.98 617.41 L1783.98 619.02 L1788.19 619.02 L1788.19 619.02 L1789.92 619.02 L1789.92 619.76 L1794.13 619.76 L1794.13 621.24 L1795.86 621.24 L1795.86 621.99 L1798.46 621.99 L1798.46 621.99 L1800.07 621.99 L1800.07 622.73 L1801.80 622.73 L1801.80 623.60 L1803.53 623.60 L1803.53 625.08 L1806.13 625.08 L1806.13 625.82 L1806.87 625.82 L1806.87 626.57 L1807.74 626.57 L1807.74 627.43 L1808.61 627.43 L1808.61 627.43 L1810.34 627.43 L1810.34 628.17 L1813.68 628.17 L1813.68 628.92 L1815.41 628.92 L1815.41 628.92 L1816.28 628.92 L1816.28 629.66 L1817.15 629.66 L1817.15 630.40 L1819.62 630.40 L1819.62 630.40 L1821.35 630.40 L1821.35 630.40 L1824.82 630.40 L1824.82 631.27 L1825.56 631.27 L1825.56 631.27 L1826.43 631.27 L1826.43 632.75 L1827.29 632.75 L1827.29 634.24 L1830.76 634.24 L1830.76 635.10 L1831.50 635.10 L1831.50 635.85 L1836.70 635.85 L1836.70 635.85 L1838.31 635.85 L1838.31 637.33 L1839.17 637.33 L1839.17 638.94 L1840.91 638.94 L1840.91 639.68 L1845.11 639.68 L1845.11 640.43 L1855.38 640.43 L1855.38 641.17 L1860.46 641.17 L1860.46 641.91 L1864.67 641.91 L1864.67 642.78 L1865.53 642.78 L1865.53 644.26 L1866.40 644.26 L1866.40 645.75 L1868.13 645.75 L1868.13 647.36 L1872.34 647.36 L1872.34 647.36 L1874.07 647.36 L1874.07 648.10 L1876.55 648.10 L1876.55 648.84 L1879.14 648.84 L1879.14 649.58 L1880.01 649.58 L1880.01 650.45 L1884.22 650.45 L1884.22 651.19 L1886.82 651.19 L1886.82 651.19 L1890.16 651.19 L1890.16 651.94 L1891.89 651.94 L1891.89 652.68 L1892.76 652.68 L1892.76 653.54 L1894.49 653.54 L1894.49 654.29 L1896.96 654.29 L1896.96 655.77 L1900.43 655.77 L1900.43 656.51 L1901.17 656.51 L1901.17 657.38 L1903.77 657.38 L1903.77 658.12 L1910.58 658.12 L1910.58 658.87 L1913.18 658.87 L1913.18 659.61 L1913.92 659.61 L1913.92 660.35 L1914.78 660.35 L1914.78 661.22 L1918.25 661.22 L1918.25 662.70 L1919.12 662.70 L1919.12 663.44 L1919.86 663.44 L1919.86 664.31 L1920.72 664.31 L1920.72 665.05 L1923.32 665.05 L1923.32 666.54 L1926.66 666.54 L1926.66 667.28 L1931.86 667.28 L1931.86 668.15 L1933.47 668.15 L1933.47 668.89 L1934.34 668.89 L1934.34 669.63 L1936.07 669.63 L1936.07 669.63 L1936.94 669.63 L1936.94 671.24 L1937.80 671.24 L1937.80 671.98 L1941.14 671.98 L1941.14 671.98 L1942.01 671.98 L1942.01 672.73 L1945.35 672.73 L1945.35 673.47 L1951.41 673.47 L1951.41 674.21 L1953.02 674.21 L1953.02 675.08 L1956.49 675.08 L1956.49 675.82 L1958.10 675.82 L1958.10 676.56 L1958.96 676.56 L1958.96 677.30 L1959.83 677.30 L1959.83 677.30 L1968.37 677.30 L1968.37 678.17 L1969.23 678.17 L1969.23 678.91 L1970.10 678.91 L1970.10 680.40 L1971.71 680.40 L1971.71 680.40 L1975.17 680.40 L1975.17 681.14 L1976.04 681.14 L1976.04 682.01 L1976.78 682.01 L1976.78 682.75 L1979.38 682.75 L1979.38 683.49 L1981.11 683.49 L1981.11 684.24 L1982.85 684.24 L1982.85 685.10 L1988.79 685.10 L1988.79 686.59 L1989.53 686.59 L1989.53 687.33 L1992.99 687.33 L1992.99 688.94 L1995.59 688.94 L1995.59 688.94 L1996.34 688.94 L1996.34 689.68 L1997.20 689.68 L1997.20 690.42 L2002.28 690.42 L2002.28 691.29 L2004.01 691.29 L2004.01 692.03 L2009.95 692.03 L2009.95 693.52 L2010.81 693.52 L2010.81 694.26 L2013.41 694.26 L2013.41 695.87 L2015.02 695.87 L2015.02 696.61 L2017.62 696.61 L2017.62 697.35 L2018.49 697.35 L2018.49 698.22 L2019.35 698.22 L2019.35 698.22 L2021.09 698.22 L2021.09 699.70 L2024.43 699.70 L2024.43 700.45 L2027.03 700.45 L2027.03 701.31 L2027.77 701.31 L2027.77 702.06 L2032.97 702.06 L2032.97 702.06 L2035.44 702.06 L2035.44 702.80 L2036.31 702.80 L2036.31 702.80 L2037.17 702.80 L2037.17 702.80 L2038.91 702.80 L2038.91 704.41 L2040.51 704.41 L2040.51 705.15 L2042.25 705.15 L2042.25 705.89 L2043.11 705.89 L2043.11 706.63 L2043.98 706.63 L2043.98 706.63 L2048.19 706.63 L2048.19 707.50 L2049.92 707.50 L2049.92 708.24 L2054.99 708.24 L2054.99 708.99 L2060.07 708.99 L2060.07 709.85 L2061.80 709.85 L2061.80 709.85 L2063.53 709.85 L2063.53 710.59 L2066.87 710.59 L2066.87 712.08 L2069.47 712.08 L2069.47 712.08 L2076.28 712.08 L2076.28 712.95 L2079.62 712.95 L2079.62 713.69 L2080.49 713.69 L2080.49 714.43 L2081.35 714.43 L2081.35 714.43 L2082.22 714.43 L2082.22 714.43 L2083.95 714.43 L2083.95 716.04 L2087.29 716.04 L2087.29 717.52 L2091.50 717.52 L2091.50 717.52 L2093.23 717.52 L2093.23 718.39 L2097.44 718.39 L2097.44 720.74 L2101.77 720.74 L2101.77 721.49 L2103.38 721.49 L2103.38 722.23 L2104.25 722.23 L2104.25 723.84 L2105.11 723.84 L2105.11 724.58 L2106.84 724.58 L2106.84 725.32 L2107.71 725.32 L2107.71 726.19 L2108.58 726.19 L2108.58 726.19 L2109.44 726.19 L2109.44 726.19 L2110.19 726.19 L2110.19 726.93 L2113.65 726.93 L2113.65 727.67 L2116.13 727.67 L2116.13 727.67 L2116.99 727.67 L2116.99 727.67 L2117.86 727.67 L2117.86 728.42 L2120.46 728.42 L2120.46 729.28 L2122.19 729.28 L2122.19 730.02 L2124.66 730.02 L2124.66 730.02 L2126.40 730.02 L2126.40 731.63 L2128.13 731.63 L2128.13 732.38 L2133.20 732.38 L2133.20 733.12 L2134.07 733.12 L2134.07 733.12 L2138.28 733.12 L2138.28 733.12 L2141.62 733.12 L2141.62 733.12 L2145.08 733.12 L2145.08 733.12 L2145.95 733.12 L2145.95 733.98 L2146.82 733.98 L2146.82 735.47 L2150.16 735.47 L2150.16 736.34 L2151.89 736.34 L2151.89 737.08 L2154.36 737.08 L2154.36 737.82 L2155.23 737.82 L2155.23 738.69 L2157.83 738.69 L2157.83 739.43 L2159.56 739.43 L2159.56 740.17 L2160.30 740.17 L2160.30 741.78 L2162.04 741.78 L2162.04 741.78 L2162.90 741.78 L2162.90 742.52 L2164.64 742.52 L2164.64 743.39 L2165.50 743.39 L2165.50 743.39 L2167.11 743.39 L2167.11 743.39 L2169.71 743.39 L2169.71 744.13 L2173.92 744.13 L2173.92 744.87 L2180.72 744.87 L2180.72 745.74 L2185.05 745.74 L2185.05 746.48 L2188.40 746.48 L2188.40 748.09 L2192.60 748.09 L2192.60 748.83 L2194.34 748.83 L2194.34 748.83 L2195.20 748.83 L2195.20 749.58 L2197.80 749.58 L2197.80 749.58 L2199.41 749.58 L2199.41 749.58 L2200.28 749.58 L2200.28 749.58 L2202.87 749.58 L2202.87 749.58 L2203.74 749.58 L2203.74 749.58 L2204.48 749.58 L2204.48 750.44 L2205.35 750.44 L2205.35 750.44 L2206.22 750.44 L2206.22 750.44 L2207.08 750.44 L2207.08 752.79 L2207.95 752.79 L2207.95 753.54 L2209.68 753.54 L2209.68 754.40 L2211.29 754.40 L2211.29 754.40 L2212.16 754.40 L2212.16 755.15 L2213.02 755.15 L2213.02 755.15 L2213.89 755.15 L2213.89 755.89 L2218.09 755.89 L2218.09 756.75 L2218.96 756.75 L2218.96 756.75 L2222.43 756.75 L2222.43 757.50 L2223.29 757.50 L2223.29 757.50 L2224.04 757.50 L2224.04 759.11 L2225.77 759.11 L2225.77 759.85 L2226.63 759.85 L2226.63 760.72 L2227.50 760.72 L2227.50 761.46 L2228.37 761.46 L2228.37 761.46 L2238.51 761.46 L2238.51 762.32 L2241.11 762.32 L2241.11 762.32 L2241.98 762.32 L2241.98 762.32 L2242.72 762.32 L2242.72 762.32 L2244.45 762.32 L2244.45 762.32 L2247.05 762.32 L2247.05 763.07 L2249.53 763.07 L2249.53 763.81 L2250.39 763.81 L2250.39 764.68 L2253.86 764.68 L2253.86 765.42 L2254.73 765.42 L2254.73 767.03 L2258.07 767.03 L2258.07 767.03 L2258.93 767.03 L2258.93 767.89 L2259.80 767.89 L2259.80 767.89 L2260.67 767.89 L2260.67 768.64 L2264.87 768.64 L2264.87 769.50 L2265.74 769.50 L2265.74 769.50 L2267.47 769.50 L2267.47 769.50 L2268.21 769.50 L2268.21 769.50 L2269.08 769.50 L2269.08 770.24 L2270.81 770.24 L2270.81 770.24 L2272.55 770.24 L2272.55 770.99 L2273.41 770.99 L2273.41 771.85 L2275.02 771.85 L2275.02 772.60 L2276.75 772.60 L2276.75 772.60 L2277.62 772.60 L2277.62 773.46 L2278.49 773.46 L2278.49 773.46 L2279.35 773.46 L2279.35 773.46 L2281.83 773.46 L2281.83 774.20 L2283.56 774.20 L2283.56 774.20 L2284.43 774.20 L2284.43 775.07 L2285.29 775.07 L2285.29 775.81 L2286.16 775.81 L2286.16 775.81 L2286.90 775.81 L2286.90 776.68 L2287.77 776.68 L2287.77 777.42 L2289.50 777.42 L2289.50 779.03 L2290.36 779.03 L2290.36 779.03 L2296.30 779.03 L2296.30 780.64 L2298.04 780.64 L2298.04 781.51 L2300.51 781.51 L2300.51 782.25 L2303.11 782.25 L2303.11 783.11 L2303.98 783.11 L2303.98 783.86 L2304.84 783.86 L2304.84 784.72 L2307.32 784.72 L2307.32 785.47 L2309.05 785.47 L2309.05 786.33 L2311.65 786.33 L2311.65 786.33 L2314.13 786.33 L2314.13 786.33 L2318.33 786.33 L2318.33 787.07 L2319.20 787.07 L2319.20 787.94 L2320.07 787.94 L2320.07 788.68 L2321.80 788.68 L2321.80 788.68 L2325.14 788.68 L2325.14 788.68 L2326.87 788.68 L2326.87 789.55 L2327.74 789.55 L2327.74 791.16 L2330.34 791.16 L2330.34 791.16 L2331.08 791.16 L2331.08 791.16 L2331.95 791.16 L2331.95 791.16 L2333.68 791.16 L2333.68 792.02 L2334.54 792.02 L2334.54 792.77 L2335.41 792.77 L2335.41 793.63 L2336.28 793.63 L2336.28 793.63 L2337.89 793.63 L2337.89 793.63 L2343.08 793.63 L2343.08 794.38 L2344.69 794.38 L2344.69 794.38 L2345.56 794.38 L2345.56 795.24 L2346.42 795.24 L2346.42 795.98 L2352.36 795.98 L2352.36 795.98 L2353.23 795.98 L2353.23 796.85 L2354.96 796.85 L2354.96 797.59 L2358.30 797.59 L2358.30 798.46 L2359.17 798.46 L2359.17 799.20 L2360.04 799.20 L2360.04 800.07 L2360.90 800.07 L2360.90 800.07 L2361.77 800.07 L2361.77 800.07 L2362.51 800.07 L2362.51 800.94 L2365.98 800.94 L2365.98 801.68 L2366.84 801.68 L2366.84 802.54 L2367.71 802.54 L2367.71 803.29 L2370.18 803.29 L2370.18 804.15 L2371.05 804.15 L2371.05 804.90 L2371.92 804.90 L2371.92 804.90 L2373.65 804.90 L2373.65 805.76 L2374.52 805.76 L2374.52 807.37 L2376.12 807.37 L2376.12 808.24 L2376.99 808.24 L2376.99 808.98 L2378.72 808.98 L2378.72 809.85 L2383.80 809.85 L2383.80 810.59 L2388.87 810.59 L2388.87 810.59 L2389.74 810.59 L2389.74 811.45 L2390.60 811.45 L2390.60 811.45 L2391.47 811.45 L2391.47 812.32 L2394.81 812.32 L2394.81 813.06 L2395.68 813.06 L2395.68 813.06 L2397.41 813.06 L2397.41 814.67 L2399.14 814.67 L2399.14 814.67 L2400.01 814.67 L2400.01 814.67 L2400.75 814.67 L2400.75 815.54 L2401.62 815.54 L2401.62 815.54 L2405.08 815.54 L2405.08 816.40 L2405.95 816.40 L2405.95 817.15 L2406.69 817.15 L2406.69 818.01 L2407.56 818.01 L2407.56 818.88 L2409.29 818.88 L2409.29 819.62 L2410.16 819.62 L2410.16 820.49 L2411.89 820.49 L2411.89 821.23 L2413.50 821.23 L2413.50 821.23 L2414.36 821.23 L2414.36 821.23 L2417.83 821.23 L2417.83 821.23 L2421.17 821.23 L2421.17 822.10 L2423.77 822.10 L2423.77 822.96 L2424.63 822.96 L2424.63 823.71 L2425.50 823.71 L2425.50 824.57 L2427.98 824.57 L2427.98 826.18 L2430.57 826.18 L2430.57 827.05 L2431.44 827.05 L2431.44 827.91 L2433.05 827.91 L2433.05 828.66 L2433.92 828.66 L2433.92 828.66 L2434.78 828.66 L2434.78 829.52 L2435.65 829.52 L2435.65 831.13 L2436.51 831.13 L2436.51 831.13 L2438.25 831.13 L2438.25 831.13 L2443.32 831.13 L2443.32 832.00 L2444.93 832.00 L2444.93 832.86 L2446.66 832.86 L2446.66 833.61 L2450.13 833.61 L2450.13 834.47 L2450.87 834.47 L2450.87 834.47 L2451.74 834.47 L2451.74 835.34 L2452.60 835.34 L2452.60 836.08 L2453.47 836.08 L2453.47 836.08 L2454.33 836.08 L2454.33 836.08 L2455.20 836.08 L2455.20 837.81 L2456.93 837.81 L2456.93 838.56 L2459.41 838.56 L2459.41 839.42 L2461.14 839.42 L2461.14 839.42 L2462.01 839.42 L2462.01 839.42 L2463.61 839.42 L2463.61 839.42 L2465.35 839.42 L2465.35 840.29 L2466.21 840.29 L2466.21 841.03 L2467.95 841.03 L2467.95 841.90 L2468.81 841.90 L2468.81 841.90 L2470.42 841.90 L2470.42 842.76 L2471.29 842.76 L2471.29 843.51 L2473.89 843.51 L2473.89 844.37 L2477.23 844.37 L2477.23 845.24 L2478.96 845.24 L2478.96 846.11 L2479.83 846.11 L2479.83 846.85 L2484.03 846.85 L2484.03 846.85 L2484.90 846.85 L2484.90 847.71 L2485.77 847.71 L2485.77 848.58 L2487.50 848.58 L2487.50 849.32 L2489.11 849.32 L2489.11 849.32 L2490.84 849.32 L2490.84 850.19 L2491.71 850.19 L2491.71 851.06 L2495.17 851.06 L2495.17 851.92 L2495.91 851.92 L2495.91 852.66 L2496.78 852.66 L2496.78 853.53 L2498.51 853.53 L2498.51 853.53 L2505.32 853.53 L2505.32 856.01 L2507.05 856.01 L2507.05 856.87 L2508.66 856.87 L2508.66 856.87 L2511.26 856.87 L2511.26 856.87 L2512.99 856.87 L2512.99 856.87 L2514.60 856.87 L2514.60 856.87 L2516.33 856.87 L2516.33 857.74 L2518.07 857.74 L2518.07 858.60 L2518.93 858.60 L2518.93 859.35 L2520.54 859.35 L2520.54 859.35 L2524.87 859.35 L2524.87 859.35 L2525.74 859.35 L2525.74 859.35 L2527.35 859.35 L2527.35 859.35 L2528.21 859.35 L2528.21 860.21 L2529.95 860.21 L2529.95 860.21 L2531.68 860.21 L2531.68 861.08 L2533.29 861.08 L2533.29 861.08 L2534.15 861.08 L2534.15 861.95 L2535.89 861.95 L2535.89 861.95 L2536.75 861.95 L2536.75 861.95 L2538.48 861.95 L2538.48 861.95 L2542.69 861.95 L2542.69 862.81 L2545.29 862.81 L2545.29 862.81 L2547.77 862.81 L2547.77 864.42 L2548.63 864.42 L2548.63 866.15 L2549.50 866.15 L2549.50 867.02 L2551.97 867.02 L2551.97 867.76 L2554.57 867.76 L2554.57 867.76 L2555.44 867.76 L2555.44 867.76 L2556.30 867.76 L2556.30 867.76 L2557.17 867.76 L2557.17 867.76 L2559.65 867.76 L2559.65 869.49 L2563.98 869.49 L2563.98 870.36 L2566.45 870.36 L2566.45 871.23 L2567.32 871.23 L2567.32 871.23 L2569.05 871.23 L2569.05 872.09 L2572.39 872.09 L2572.39 872.96 L2573.26 872.96 L2573.26 873.70 L2574.99 873.70 L2574.99 873.70 L2575.86 873.70 L2575.86 873.70 L2580.06 873.70 L2580.06 873.70 L2581.80 873.70 L2581.80 873.70 L2582.66 873.70 L2582.66 874.57 L2583.53 874.57 L2583.53 874.57 L2586.87 874.57 L2586.87 875.43 L2589.47 875.43 L2589.47 876.30 L2591.08 876.30 L2591.08 877.17 L2595.41 877.17 L2595.41 878.03 L2596.28 878.03 L2596.28 878.03 L2597.02 878.03 L2597.02 878.03 L2598.75 878.03 L2598.75 878.90 L2603.82 878.90 L2603.82 878.90 L2604.69 878.90 L2604.69 878.90 L2606.42 878.90 L2606.42 879.77 L2608.90 879.77 L2608.90 879.77 L2613.23 879.77 L2613.23 880.51 L2621.64 880.51 L2621.64 881.38 L2631.92 881.38 L2631.92 882.24 L2634.39 882.24 L2634.39 882.24 L2635.26 882.24 L2635.26 883.97 L2639.59 883.97 L2639.59 884.84 L2640.45 884.84 L2640.45 885.71 L2646.39 885.71 L2646.39 886.57 L2649.74 886.57 L2649.74 887.44 L2650.60 887.44 L2650.60 887.44 L2653.20 887.44 L2653.20 888.31 L2653.94 888.31 L2653.94 888.31 L2654.81 888.31 L2654.81 888.31 L2656.54 888.31 L2656.54 888.31 L2657.41 888.31 L2657.41 888.31 L2659.88 888.31 L2659.88 889.17 L2665.82 889.17 L2665.82 889.91 L2666.69 889.91 L2666.69 889.91 L2671.02 889.91 L2671.02 889.91 L2674.36 889.91 L2674.36 889.91 L2675.23 889.91 L2675.23 892.51 L2678.57 892.51 L2678.57 892.51 L2680.30 892.51 L2680.30 893.38 L2681.17 893.38 L2681.17 893.38 L2682.03 893.38 L2682.03 894.25 L2682.90 894.25 L2682.90 895.11 L2683.77 895.11 L2683.77 895.11 L2686.24 895.11 L2686.24 895.98 L2692.18 895.98 L2692.18 896.84 L2693.05 896.84 L2693.05 897.71 L2693.91 897.71 L2693.91 898.58 L2694.78 898.58 L2694.78 898.58 L2697.38 898.58 L2697.38 899.44 L2698.99 899.44 L2698.99 899.44 L2703.32 899.44 L2703.32 899.44 L2704.06 899.44 L2704.06 899.44 L2705.79 899.44 L2705.79 899.44 L2706.66 899.44 L2706.66 900.31 L2710.87 900.31 L2710.87 900.31 L2714.33 900.31 L2714.33 901.18 L2715.20 901.18 L2715.20 901.18 L2719.41 901.18 L2719.41 902.04 L2720.27 902.04 L2720.27 903.77 L2727.08 903.77 L2727.08 904.64 L2730.42 904.64 L2730.42 904.64 L2731.29 904.64 L2731.29 904.64 L2732.15 904.64 L2732.15 905.51 L2733.02 905.51 L2733.02 905.51 L2733.89 905.51 L2733.89 906.37 L2734.75 906.37 L2734.75 906.37 L2735.49 906.37 L2735.49 907.24 L2736.36 907.24 L2736.36 908.11 L2738.96 908.11 L2738.96 908.11 L2744.03 908.11 L2744.03 908.97 L2746.63 908.97 L2746.63 909.84 L2748.24 909.84 L2748.24 911.69 L2753.44 911.69 L2753.44 912.56 L2755.05 912.56 L2755.05 913.43 L2756.78 913.43 L2756.78 914.29 L2760.24 914.29 L2760.24 915.16 L2760.99 915.16 L2760.99 916.03 L2766.93 916.03 L2766.93 916.03 L2769.53 916.03 L2769.53 916.03 L2770.39 916.03 L2770.39 916.89 L2771.26 916.89 L2771.26 917.76 L2772.12 917.76 L2772.12 918.62 L2777.20 918.62 L2777.20 918.62 L2778.93 918.62 L2778.93 918.62 L2779.67 918.62 L2779.67 919.49 L2782.27 919.49 L2782.27 919.49 L2783.14 919.49 L2783.14 920.48 L2784.00 920.48 L2784.00 920.48 L2785.74 920.48 L2785.74 922.21 L2787.35 922.21 L2787.35 923.08 L2788.21 923.08 L2788.21 923.08 L2793.29 923.08 L2793.29 923.08 L2799.23 923.08 L2799.23 923.08 L2800.09 923.08 L2800.09 923.08 L2800.96 923.08 L2800.96 923.95 L2802.69 923.95 L2802.69 924.81 L2804.42 924.81 L2804.42 925.68 L2805.17 925.68 L2805.17 925.68 L2806.90 925.68 L2806.90 925.68 L2807.76 925.68 L2807.76 925.68 L2808.63 925.68 L2808.63 925.68 L2810.36 925.68 L2810.36 925.68 L2811.97 925.68 L2811.97 925.68 L2812.84 925.68 L2812.84 925.68 L2814.57 925.68 L2814.57 926.67 L2816.30 926.67 L2816.30 928.40 L2820.51 928.40 L2820.51 928.40 L2821.38 928.40 L2821.38 929.27 L2822.24 929.27 L2822.24 929.27 L2823.85 929.27 L2823.85 929.27 L2824.72 929.27 L2824.72 930.13 L2825.58 930.13 L2825.58 930.13 L2827.32 930.13 L2827.32 930.13 L2829.05 930.13 L2829.05 930.13 L2829.92 930.13 L2829.92 931.12 L2830.66 931.12 L2830.66 931.12 L2831.52 931.12 L2831.52 931.12 L2832.39 931.12 L2832.39 931.12 L2834.99 931.12 L2834.99 931.12 L2835.86 931.12 L2835.86 931.12 L2838.33 931.12 L2838.33 931.12 L2840.06 931.12 L2840.06 931.99 L2841.80 931.99 L2841.80 931.99 L2842.66 931.99 L2842.66 932.86 L2844.27 932.86 L2844.27 933.72 L2846.00 933.72 L2846.00 934.71 L2846.87 934.71 L2846.87 935.58 L2847.74 935.58 L2847.74 935.58 L2849.34 935.58 L2849.34 935.58 L2851.94 935.58 L2851.94 935.58 L2852.81 935.58 L2852.81 936.45 L2854.54 936.45 L2854.54 936.45 L2855.41 936.45 L2855.41 936.45 L2856.15 936.45 L2856.15 937.44 L2857.02 937.44 L2857.02 937.44 L2858.75 937.44 L2858.75 937.44 L2859.62 937.44 L2859.62 938.30 L2861.35 938.30 L2861.35 939.17 L2862.96 939.17 L2862.96 940.16 L2865.56 940.16 L2865.56 941.02 L2866.42 941.02 L2866.42 941.02 L2867.29 941.02 L2867.29 941.89 L2868.03 941.89 L2868.03 941.89 L2870.63 941.89 L2870.63 941.89 L2872.36 941.89 L2872.36 941.89 L2874.09 941.89 L2874.09 941.89 L2874.84 941.89 L2874.84 942.88 L2877.44 942.88 L2877.44 942.88 L2878.30 942.88 L2878.30 943.75 L2879.17 943.75 L2879.17 943.75 L2880.03 943.75 L2880.03 943.75 L2881.64 943.75 L2881.64 943.75 L2882.51 943.75 L2882.51 944.74 L2883.38 944.74 L2883.38 948.33 L2884.24 948.33 L2884.24 948.33 L2885.11 948.33 L2885.11 949.32 L2887.58 949.32 L2887.58 949.32 L2888.45 949.32 L2888.45 949.32 L2894.39 949.32 L2894.39 949.32 L2895.26 949.32 L2895.26 949.32 L2896.12 949.32 L2896.12 950.18 L2902.06 950.18 L2902.06 950.18 L2902.93 950.18 L2902.93 950.18 L2905.53 950.18 L2905.53 950.18 L2906.27 950.18 L2906.27 951.17 L2908.87 951.17 L2908.87 952.16 L2909.73 952.16 L2909.73 952.16 L2910.60 952.16 L2910.60 953.03 L2911.47 953.03 L2911.47 953.03 L2912.33 953.03 L2912.33 954.02 L2913.08 954.02 L2913.08 954.02 L2914.81 954.02 L2914.81 954.02 L2922.48 954.02 L2922.48 954.88 L2924.21 954.88 L2924.21 954.88 L2924.96 954.88 L2924.96 954.88 L2925.82 954.88 L2925.82 955.87 L2926.69 955.87 L2926.69 955.87 L2928.42 955.87 L2928.42 955.87 L2929.29 955.87 L2929.29 955.87 L2931.76 955.87 L2931.76 956.74 L2933.49 956.74 L2933.49 956.74 L2936.09 956.74 L2936.09 958.72 L2942.03 958.72 L2942.03 958.72 L2942.90 958.72 L2942.90 959.59 L2943.77 959.59 L2943.77 959.59 L2944.51 959.59 L2944.51 959.59 L2946.24 959.59 L2946.24 959.59 L2947.11 959.59 L2947.11 959.59 L2949.71 959.59 L2949.71 959.59 L2950.45 959.59 L2950.45 960.58 L2951.31 960.58 L2951.31 960.58 L2953.05 960.58 L2953.05 960.58 L2954.78 960.58 L2954.78 960.58 L2955.65 960.58 L2955.65 960.58 L2956.51 960.58 L2956.51 960.58 L2957.25 960.58 L2957.25 960.58 L2958.12 960.58 L2958.12 960.58 L2958.99 960.58 L2958.99 960.58 L2961.59 960.58 L2961.59 960.58 L2964.06 960.58 L2964.06 960.58 L2965.79 960.58 L2965.79 961.57 L2966.66 961.57 L2966.66 961.57 L2968.39 961.57 L2968.39 962.56 L2970.87 962.56 L2970.87 962.56 L2971.73 962.56 L2971.73 962.56 L2975.94 962.56 L2975.94 962.56 L2977.67 962.56 L2977.67 962.56 L2978.54 962.56 L2978.54 962.56 L2979.41 962.56 L2979.41 963.55 L2980.27 963.55 L2980.27 964.41 L2981.14 964.41 L2981.14 964.41 L2981.88 964.41 L2981.88 965.40 L2983.61 965.40 L2983.61 966.39 L2984.48 966.39 L2984.48 967.38 L2985.35 967.38 L2985.35 967.38 L2987.08 967.38 L2987.08 967.38 L2987.94 967.38 L2987.94 967.38 L2988.69 967.38 L2988.69 968.37 L2989.55 968.37 L2989.55 968.37 L2990.42 968.37 L2990.42 968.37 L2991.29 968.37 L2991.29 968.37 L2993.02 968.37 L2993.02 969.36 L2993.88 969.36 L2993.88 969.36 L2995.49 969.36 L2995.49 969.36 L2996.36 969.36 L2996.36 970.35 L2998.09 970.35 L2998.09 970.35 L3000.69 970.35 L3000.69 970.35 L3005.76 970.35 L3005.76 970.35 L3006.63 970.35 L3006.63 970.35 L3007.37 970.35 L3007.37 970.35 L3010.84 970.35 L3010.84 971.22 L3011.70 971.22 L3011.70 971.22 L3012.57 971.22 L3012.57 971.22 L3014.18 971.22 L3014.18 972.21 L3015.05 972.21 L3015.05 973.20 L3015.91 973.20 L3015.91 973.20 L3018.51 973.20 L3018.51 973.20 L3021.85 973.20 L3021.85 974.19 L3023.58 974.19 L3023.58 974.19 L3024.45 974.19 L3024.45 974.19 L3025.32 974.19 L3025.32 974.19 L3026.06 974.19 L3026.06 974.19 L3028.66 974.19 L3028.66 974.19 L3030.39 974.19 L3030.39 975.18 L3031.26 975.18 L3031.26 975.18 L3032.12 975.18 L3032.12 975.18 L3035.46 975.18 L3035.46 975.18 L3039.67 975.18 L3039.67 976.29 L3045.61 976.29 L3045.61 977.28 L3046.48 977.28 L3046.48 977.28 L3050.81 977.28 L3050.81 977.28 L3051.55 977.28 L3051.55 978.27 L3053.28 978.27 L3053.28 978.27 L3056.75 978.27 L3056.75 978.27 L3057.62 978.27 L3057.62 978.27 L3060.09 978.27 L3060.09 979.26 L3069.50 979.26 L3069.50 979.26 L3070.36 979.26 L3070.36 979.26 L3072.84 979.26 L3072.84 979.26 L3073.70 979.26 L3073.70 979.26 L3074.57 979.26 L3074.57 980.25 L3076.30 980.25 L3076.30 980.25 L3077.04 980.25 L3077.04 980.25 L3077.91 980.25 L3077.91 981.24 L3078.78 981.24 L3078.78 981.24 L3081.38 981.24 L3081.38 981.24 L3084.72 981.24 L3084.72 981.24 L3085.58 981.24 L3085.58 981.24 L3087.32 981.24 L3087.32 982.23 L3088.18 982.23 L3088.18 983.35 L3089.05 983.35 L3089.05 983.35 L3091.52 983.35 L3091.52 983.35 L3092.39 983.35 L3092.39 983.35 L3093.26 983.35 L3093.26 986.32 L3094.12 986.32 L3094.12 986.32 L3094.99 986.32 L3094.99 987.43 L3096.60 987.43 L3096.60 987.43 L3097.46 987.43 L3097.46 988.42 L3098.33 988.42 L3098.33 988.42 L3101.79 988.42 L3101.79 988.42 L3102.54 988.42 L3102.54 989.41 L3103.40 989.41 L3103.40 989.41 L3107.73 989.41 L3107.73 989.41 L3108.48 989.41 L3108.48 990.40 L3109.34 990.40 L3109.34 991.52 L3111.08 991.52 L3111.08 992.51 L3111.94 992.51 L3111.94 992.51 L3112.81 992.51 L3112.81 992.51 L3113.67 992.51 L3113.67 992.51 L3115.28 992.51 L3115.28 992.51 L3116.15 992.51 L3116.15 992.51 L3117.88 992.51 L3117.88 992.51 L3121.22 992.51 L3121.22 992.51 L3122.96 992.51 L3122.96 993.50 L3123.82 993.50 L3123.82 993.50 L3126.42 993.50 L3126.42 993.50 L3128.03 993.50 L3128.03 994.61 L3128.90 994.61 L3128.90 994.61 L3129.76 994.61 L3129.76 995.60 L3130.63 995.60 L3130.63 996.59 L3131.49 996.59 L3131.49 996.59 L3133.23 996.59 L3133.23 996.59 L3134.84 996.59 L3134.84 996.59 L3136.57 996.59 L3136.57 997.70 L3137.43 997.70 L3137.43 997.70 L3138.30 997.70 L3138.30 998.69 L3139.17 998.69 L3139.17 998.69 L3139.91 998.69 L3139.91 999.81 L3144.24 999.81 L3144.24 999.81 L3145.97 999.81 L3145.97 1000.80 L3146.72 1000.80 L3146.72 1000.80 L3150.18 1000.80 L3150.18 1001.91 L3151.05 1001.91 L3151.05 1002.90 L3153.52 1002.90 L3153.52 1002.90 L3154.39 1002.90 L3154.39 1002.90 L3155.25 1002.90 L3155.25 1002.90 L3156.12 1002.90 L3156.12 1002.90 L3157.85 1002.90 L3157.85 1002.90 L3158.72 1002.90 L3158.72 1002.90 L3160.33 1002.90 L3160.33 1002.90 L3161.19 1002.90 L3161.19 1004.02 L3162.06 1004.02 L3162.06 1004.02 L3162.93 1004.02 L3162.93 1004.02 L3163.79 1004.02 L3163.79 1004.02 L3164.66 1004.02 L3164.66 1004.02 L3165.40 1004.02 L3165.40 1005.01 L3166.27 1005.01 L3166.27 1006.12 L3167.13 1006.12 L3167.13 1006.12 L3168.00 1006.12 L3168.00 1007.23 L3168.87 1007.23 L3168.87 1007.23 L3169.73 1007.23 L3169.73 1008.22 L3170.60 1008.22 L3170.60 1008.22 L3172.21 1008.22 L3172.21 1008.22 L3173.94 1008.22 L3173.94 1008.22 L3175.67 1008.22 L3175.67 1009.34 L3178.15 1009.34 L3178.15 1009.34 L3179.88 1009.34 L3179.88 1010.45 L3184.95 1010.45 L3184.95 1010.45 L3185.82 1010.45 L3185.82 1010.45 L3186.69 1010.45 L3186.69 1010.45 L3187.55 1010.45 L3187.55 1011.44 L3188.42 1011.44 L3188.42 1011.44 L3190.15 1011.44 L3190.15 1011.44 L3193.49 1011.44 L3193.49 1011.44 L3194.36 1011.44 L3194.36 1012.55 L3196.09 1012.55 L3196.09 1014.78 L3197.70 1014.78 L3197.70 1015.77 L3198.57 1015.77 L3198.57 1015.77 L3199.43 1015.77 L3199.43 1015.77 L3201.17 1015.77 L3201.17 1016.89 L3202.90 1016.89 L3202.90 1018.00 L3204.51 1018.00 L3204.51 1018.00 L3205.37 1018.00 L3205.37 1019.11 L3207.11 1019.11 L3207.11 1019.11 L3210.45 1019.11 L3210.45 1019.11 L3211.31 1019.11 L3211.31 1019.11 L3212.18 1019.11 L3212.18 1019.11 L3213.05 1019.11 L3213.05 1020.23 L3213.91 1020.23 L3213.91 1020.23 L3214.78 1020.23 L3214.78 1021.34 L3216.39 1021.34 L3216.39 1021.34 L3217.25 1021.34 L3217.25 1021.34 L3221.58 1021.34 L3221.58 1021.34 L3222.33 1021.34 L3222.33 1021.34 L3223.19 1021.34 L3223.19 1021.34 L3224.93 1021.34 L3224.93 1021.34 L3225.79 1021.34 L3225.79 1021.34 L3226.66 1021.34 L3226.66 1021.34 L3227.52 1021.34 L3227.52 1022.45 L3229.13 1022.45 L3229.13 1022.45 L3231.73 1022.45 L3231.73 1022.45 L3233.46 1022.45 L3233.46 1023.57 L3234.33 1023.57 L3234.33 1023.57 L3235.94 1023.57 L3235.94 1023.57 L3238.54 1023.57 L3238.54 1023.57 L3244.48 1023.57 L3244.48 1023.57 L3245.34 1023.57 L3245.34 1023.57 L3247.82 1023.57 L3247.82 1024.68 L3251.28 1024.68 L3251.28 1024.68 L3254.63 1024.68 L3254.63 1024.68 L3255.49 1024.68 L3255.49 1025.80 L3256.36 1025.80 L3256.36 1026.91 L3258.09 1026.91 L3258.09 1026.91 L3259.82 1026.91 L3259.82 1028.02 L3264.03 1028.02 L3264.03 1028.02 L3264.90 1028.02 L3264.90 1028.02 L3266.51 1028.02 L3266.51 1028.02 L3268.24 1028.02 L3268.24 1028.02 L3269.97 1028.02 L3269.97 1028.02 L3270.84 1028.02 L3270.84 1028.02 L3272.57 1028.02 L3272.57 1029.14 L3273.31 1029.14 L3273.31 1029.14 L3274.18 1029.14 L3274.18 1030.37 L3275.04 1030.37 L3275.04 1030.37 L3275.91 1030.37 L3275.91 1030.37 L3278.51 1030.37 L3278.51 1031.49 L3279.25 1031.49 L3279.25 1031.49 L3280.12 1031.49 L3280.12 1031.49 L3280.98 1031.49 L3280.98 1031.49 L3281.85 1031.49 L3281.85 1031.49 L3282.72 1031.49 L3282.72 1031.49 L3283.58 1031.49 L3283.58 1031.49 L3284.45 1031.49 L3284.45 1031.49 L3285.32 1031.49 L3285.32 1031.49 L3286.06 1031.49 L3286.06 1032.60 L3286.92 1032.60 L3286.92 1032.60 L3292.00 1032.60 L3292.00 1032.60 L3294.60 1032.60 L3294.60 1032.60 L3295.46 1032.60 L3295.46 1033.84 L3296.33 1033.84 L3296.33 1033.84 L3297.20 1033.84 L3297.20 1034.95 L3303.14 1034.95 L3303.14 1036.07 L3304.00 1036.07 L3304.00 1036.07 L3308.21 1036.07 L3308.21 1036.07 L3310.68 1036.07 L3310.68 1036.07 L3311.55 1036.07 L3311.55 1036.07 L3312.42 1036.07 L3312.42 1036.07 L3315.02 1036.07 L3315.02 1036.07 L3317.49 1036.07 L3317.49 1036.07 L3318.36 1036.07 L3318.36 1036.07 L3319.22 1036.07 L3319.22 1036.07 L3321.82 1036.07 L3321.82 1036.07 L3322.69 1036.07 L3322.69 1036.07 L3325.16 1036.07 L3325.16 1036.07 L3326.03 1036.07 L3326.03 1036.07 L3326.90 1036.07 L3326.90 1037.30 L3335.43 1037.30 L3335.43 1037.30 L3337.04 1037.30 L3337.04 1038.54 L3339.64 1038.54 L3339.64 1038.54 L3340.51 1038.54 L3340.51 1038.54 L3341.37 1038.54 L3341.37 1038.54 L3342.98 1038.54 L3342.98 1039.66 L3345.58 1039.66 L3345.58 1040.89 L3346.45 1040.89 L3346.45 1040.89 L3347.31 1040.89 L3347.31 1040.89 L3348.92 1040.89 L3348.92 1040.89 L3351.52 1040.89 L3351.52 1040.89 L3353.25 1040.89 L3353.25 1040.89 L3354.12 1040.89 L3354.12 1040.89 L3357.46 1040.89 L3357.46 1042.13 L3359.19 1042.13 L3359.19 1042.13 L3360.93 1042.13 L3360.93 1042.13 L3362.54 1042.13 L3362.54 1042.13 L3367.61 1042.13 L3367.61 1043.25 L3368.48 1043.25 L3368.48 1044.48 L3370.21 1044.48 L3370.21 1044.48 L3371.07 1044.48 L3371.07 1045.72 L3371.94 1045.72 L3371.94 1045.72 L3373.67 1045.72 L3373.67 1045.72 L3377.88 1045.72 L3377.88 1045.72 L3378.75 1045.72 L3378.75 1045.72 L3380.36 1045.72 L3380.36 1046.96 L3382.09 1046.96 L3382.09 1046.96 L3382.95 1046.96 L3382.95 1046.96 L3386.42 1046.96 L3386.42 1046.96 L3388.03 1046.96 L3388.03 1046.96 L3389.76 1046.96 L3389.76 1046.96 L3390.63 1046.96 L3390.63 1046.96 L3391.49 1046.96 L3391.49 1046.96 L3393.97 1046.96 L3393.97 1046.96 L3396.57 1046.96 L3396.57 1046.96 L3399.04 1046.96 L3399.04 1048.20 L3399.91 1048.20 L3399.91 1048.20 L3400.77 1048.20 L3400.77 1048.20 L3401.64 1048.20 L3401.64 1048.20 L3402.51 1048.20 L3402.51 1048.20 L3405.85 1048.20 L3405.85 1048.20 L3408.45 1048.20 L3408.45 1049.43 L3409.31 1049.43 L3409.31 1049.43 L3411.05 1049.43 L3411.05 1049.43 L3412.65 1049.43 L3412.65 1049.43 L3413.52 1049.43 L3413.52 1049.43 L3414.39 1049.43 L3414.39 1049.43 L3415.25 1049.43 L3415.25 1049.43 L3417.85 1049.43 L3417.85 1049.43 L3418.59 1049.43 L3418.59 1049.43 L3419.46 1049.43 L3419.46 1049.43 L3421.19 1049.43 L3421.19 1049.43 L3422.06 1049.43 L3422.06 1049.43 L3422.93 1049.43 L3422.93 1049.43 L3423.79 1049.43 L3423.79 1049.43 L3424.53 1049.43 L3424.53 1049.43 L3426.27 1049.43 L3426.27 1049.43 L3427.13 1049.43 L3427.13 1050.67 L3428.00 1050.67 L3428.00 1051.91 L3428.87 1051.91 L3428.87 1051.91 L3431.34 1051.91 L3431.34 1051.91 L3433.07 1051.91 L3433.07 1053.15 L3433.94 1053.15 L3433.94 1054.51 L3435.67 1054.51 L3435.67 1055.74 L3436.54 1055.74 L3436.54 1055.74 L3437.28 1055.74 L3437.28 1055.74 L3438.15 1055.74 L3438.15 1056.98 L3439.88 1056.98 L3439.88 1056.98 L3440.75 1056.98 L3440.75 1056.98 L3441.61 1056.98 L3441.61 1056.98 L3442.48 1056.98 L3442.48 1056.98 L3443.34 1056.98 L3443.34 1056.98 L3444.09 1056.98 L3444.09 1056.98 L3445.82 1056.98 L3445.82 1058.34 L3448.42 1058.34 L3448.42 1058.34 L3450.03 1058.34 L3450.03 1059.58 L3451.76 1059.58 L3451.76 1060.94 L3452.63 1060.94 L3452.63 1060.94 L3454.36 1060.94 L3454.36 1060.94 L3457.70 1060.94 L3457.70 1062.18 L3459.43 1062.18 L3459.43 1062.18 L3460.30 1062.18 L3460.30 1062.18 L3461.16 1062.18 L3461.16 1062.18 L3462.03 1062.18 L3462.03 1062.18 L3462.77 1062.18 L3462.77 1062.18 L3463.64 1062.18 L3463.64 1062.18 L3464.51 1062.18 L3464.51 1063.54 L3465.37 1063.54 L3465.37 1063.54 L3467.10 1063.54 L3467.10 1063.54 L3469.58 1063.54 L3469.58 1063.54 L3470.45 1063.54 L3470.45 1063.54 L3472.18 1063.54 L3472.18 1063.54 L3473.91 1063.54 L3473.91 1064.78 L3476.39 1064.78 L3476.39 1064.78 L3477.25 1064.78 L3477.25 1066.14 L3478.12 1066.14 L3478.12 1066.14 L3480.72 1066.14 L3480.72 1067.50 L3482.33 1067.50 L3482.33 1067.50 L3483.19 1067.50 L3483.19 1067.50 L3484.92 1067.50 L3484.92 1067.50 L3485.79 1067.50 L3485.79 1067.50 L3487.52 1067.50 L3487.52 1067.50 L3489.13 1067.50 L3489.13 1067.50 L3490.00 1067.50 L3490.00 1067.50 L3492.60 1067.50 L3492.60 1067.50 L3495.07 1067.50 L3495.07 1067.50 L3495.94 1067.50 L3495.94 1070.10 L3499.40 1070.10 L3499.40 1071.46 L3500.15 1071.46 L3500.15 1072.82 L3501.01 1072.82 L3501.01 1072.82 L3501.88 1072.82 L3501.88 1072.82 L3502.74 1072.82 L3502.74 1072.82 L3505.34 1072.82 L3505.34 1072.82 L3506.21 1072.82 L3506.21 1072.82 L3508.68 1072.82 L3508.68 1072.82 L3509.55 1072.82 L3509.55 1074.18 L3510.42 1074.18 L3510.42 1074.18 L3517.22 1074.18 L3517.22 1074.18 L3518.09 1074.18 L3518.09 1074.18 L3519.70 1074.18 L3519.70 1074.18 L3520.56 1074.18 L3520.56 1074.18 L3521.43 1074.18 L3521.43 1074.18 L3523.16 1074.18 L3523.16 1074.18 L3524.03 1074.18 L3524.03 1075.54 L3524.90 1075.54 L3524.90 1075.54 L3527.37 1075.54 L3527.37 1077.03 L3529.10 1077.03 L3529.10 1077.03 L3529.97 1077.03 L3529.97 1077.03 L3530.84 1077.03 L3530.84 1077.03 L3531.70 1077.03 L3531.70 1078.39 L3532.44 1078.39 L3532.44 1078.39 L3535.04 1078.39 L3535.04 1078.39 L3535.91 1078.39 L3535.91 1078.39 L3536.78 1078.39 L3536.78 1079.75 L3537.64 1079.75 L3537.64 1079.75 L3539.25 1079.75 L3539.25 1082.60 L3540.98 1082.60 L3540.98 1082.60 L3542.72 1082.60 L3542.72 1082.60 L3543.58 1082.60 L3543.58 1082.60 L3544.45 1082.60 L3544.45 1083.96 L3546.06 1083.96 L3546.06 1083.96 L3546.92 1083.96 L3546.92 1085.45 L3547.79 1085.45 L3547.79 1086.81 L3550.39 1086.81 L3550.39 1086.81 L3552.86 1086.81 L3552.86 1086.81 L3553.73 1086.81 L3553.73 1086.81 L3554.60 1086.81 L3554.60 1086.81 L3555.46 1086.81 L3555.46 1086.81 L3558.80 1086.81 L3558.80 1086.81 L3559.67 1086.81 L3559.67 1088.29 L3560.54 1088.29 L3560.54 1088.29 L3563.13 1088.29 L3563.13 1088.29 L3564.74 1088.29 L3564.74 1088.29 L3566.48 1088.29 L3566.48 1088.29 L3569.07 1088.29 L3569.07 1089.65 L3570.68 1089.65 L3570.68 1089.65 L3571.55 1089.65 L3571.55 1089.65 L3572.42 1089.65 L3572.42 1089.65 L3573.28 1089.65 L3573.28 1089.65 L3574.15 1089.65 L3574.15 1089.65 L3575.88 1089.65 L3575.88 1091.14 L3577.49 1091.14 L3577.49 1091.14 L3578.36 1091.14 L3578.36 1091.14 L3579.22 1091.14 L3579.22 1091.14 L3580.95 1091.14 L3580.95 1091.14 L3581.82 1091.14 L3581.82 1091.14 L3582.56 1091.14 L3582.56 1091.14 L3591.97 1091.14 L3591.97 1091.14 L3592.83 1091.14 L3592.83 1092.62 L3594.57 1092.62 L3594.57 1092.62 L3601.37 1092.62 L3601.37 1092.62 L3602.98 1092.62 L3602.98 1092.62 L3603.85 1092.62 L3603.85 1092.62 L3609.79 1092.62 L3609.79 1092.62 L3610.65 1092.62 L3610.65 1092.62 L3611.52 1092.62 L3611.52 1092.62 L3612.39 1092.62 L3612.39 1092.62 L3613.25 1092.62 L3613.25 1092.62 L3614.00 1092.62 L3614.00 1092.62 L3614.86 1092.62 L3614.86 1092.62 L3616.59 1092.62 L3616.59 1092.62 L3620.06 1092.62 L3620.06 1092.62 L3620.80 1092.62 L3620.80 1092.62 L3621.67 1092.62 L3621.67 1092.62 L3622.53 1092.62 L3622.53 1092.62 L3624.27 1092.62 L3624.27 1092.62 L3625.13 1092.62 L3625.13 1092.62 L3626.00 1092.62 L3626.00 1092.62 L3630.21 1092.62 L3630.21 1092.62 L3631.94 1092.62 L3631.94 1094.11 L3632.81 1094.11 L3632.81 1094.11 L3633.55 1094.11 L3633.55 1094.11 L3637.01 1094.11 L3637.01 1094.11 L3639.49 1094.11 L3639.49 1094.11 L3640.35 1094.11 L3640.35 1094.11 L3641.22 1094.11 L3641.22 1094.11 L3642.09 1094.11 L3642.09 1094.11 L3642.95 1094.11 L3642.95 1094.11 L3645.55 1094.11 L3645.55 1094.11 L3646.29 1094.11 L3646.29 1095.72 L3647.16 1095.72 L3647.16 1095.72 L3648.89 1095.72 L3648.89 1095.72 L3649.76 1095.72 L3649.76 1095.72 L3652.23 1095.72 L3652.23 1097.20 L3653.10 1097.20 L3653.10 1097.20 L3653.97 1097.20 L3653.97 1098.81 L3654.83 1098.81 L3654.83 1098.81 L3655.70 1098.81 L3655.70 1100.30 L3656.57 1100.30 L3656.57 1100.30 L3659.91 1100.30 L3659.91 1100.30 L3661.64 1100.30 L3661.64 1100.30 L3668.45 1100.30 L3668.45 1100.30 L3669.31 1100.30 L3669.31 1100.30 L3670.18 1100.30 L3670.18 1101.90 L3675.25 1101.90 L3675.25 1103.51 L3676.12 1103.51 L3676.12 1105.12 L3682.92 1105.12 L3682.92 1105.12 L3684.53 1105.12 L3684.53 1106.61 L3686.27 1106.61 L3686.27 1106.61 L3687.13 1106.61 L3687.13 1106.61 L3689.73 1106.61 L3689.73 1109.82 L3690.47 1109.82 L3690.47 1111.43 L3691.34 1111.43 L3691.34 1113.04 L3692.21 1113.04 L3692.21 1114.65 L3697.28 1114.65 L3697.28 1114.65 L3698.15 1114.65 L3698.15 1114.65 L3700.74 1114.65 L3700.74 1114.65 L3701.61 1114.65 L3701.61 1116.26 L3702.48 1116.26 L3702.48 1116.26 L3703.22 1116.26 L3703.22 1116.26 L3704.95 1116.26 L3704.95 1117.87 L3707.55 1117.87 L3707.55 1119.48 L3708.42 1119.48 L3708.42 1121.09 L3709.16 1121.09 L3709.16 1121.09 L3711.76 1121.09 L3711.76 1122.70 L3712.62 1122.70 L3712.62 1122.70 L3713.49 1122.70 L3713.49 1122.70 L3716.83 1122.70 L3716.83 1122.70 L3721.16 1122.70 L3721.16 1122.70 L3722.77 1122.70 L3722.77 1122.70 L3723.64 1122.70 L3723.64 1122.70 L3726.24 1122.70 L3726.24 1122.70 L3727.10 1122.70 L3727.10 1122.70 L3728.71 1122.70 L3728.71 1122.70 L3730.44 1122.70 L3730.44 1124.30 L3731.31 1124.30 L3731.31 1124.30 L3733.91 1124.30 L3733.91 1125.91 L3738.12 1125.91 L3738.12 1127.65 L3739.85 1127.65 L3739.85 1127.65 L3740.59 1127.65 L3740.59 1127.65 L3741.46 1127.65 L3741.46 1129.25 L3744.92 1129.25 L3744.92 1129.25 L3745.79 1129.25 L3745.79 1129.25 L3746.66 1129.25 L3746.66 1129.25 L3747.40 1129.25 L3747.40 1129.25 L3748.26 1129.25 L3748.26 1130.99 L3750.00 1130.99 L3750.00 1130.99 L3755.94 1130.99 L3755.94 1130.99 L3757.67 1130.99 L3757.67 1130.99 L3764.48 1130.99 L3764.48 1130.99 L3766.08 1130.99 L3766.08 1130.99 L3768.68 1130.99 L3768.68 1132.60 L3770.42 1132.60 L3770.42 1134.33 L3772.02 1134.33 L3772.02 1134.33 L3772.89 1134.33 L3772.89 1134.33 L3775.49 1134.33 L3775.49 1134.33 L3777.22 1134.33 L3777.22 1134.33 L3778.09 1134.33 L3778.09 1134.33 L3781.43 1134.33 L3781.43 1134.33 L3782.30 1134.33 L3782.30 1136.06 L3784.03 1136.06 L3784.03 1137.79 L3786.13 1137.79 L3786.13 1137.79" stroke-linejoin="round" style="fill:none;stroke:#E41A1C;stroke-width:8.64"/>
	<path d=" M682.85 275.48 L682.85 275.48 L682.85 275.48 L721.09 275.48 L721.09 281.29 L745.72 281.29 L745.72 287.23 L768.74 287.23 L768.74 293.05 L789.90 293.05 L789.90 293.05 L833.21 293.05 L833.21 298.99 L891.00 298.99 L891.00 304.81 L945.45 304.81 L945.45 310.75 L973.42 310.75 L973.42 316.69 L989.63 316.69 L989.63 328.44 L1004.85 328.44 L1004.85 334.38 L1014.26 334.38 L1014.26 340.20 L1017.60 340.20 L1017.60 346.14 L1054.10 346.14 L1054.10 352.08 L1057.57 352.08 L1057.57 357.90 L1059.30 357.90 L1059.30 363.84 L1063.51 363.84 L1063.51 369.78 L1072.79 369.78 L1072.79 375.59 L1078.85 375.59 L1078.85 381.53 L1096.67 381.53 L1096.67 387.47 L1107.69 387.47 L1107.69 393.29 L1134.05 393.29 L1134.05 393.29 L1150.13 393.29 L1150.13 399.23 L1158.67 399.23 L1158.67 405.17 L1170.55 405.17 L1170.55 411.11 L1178.22 411.11 L1178.22 417.05 L1179.96 417.05 L1179.96 422.99 L1210.52 422.99 L1210.52 428.81 L1259.78 428.81 L1259.78 434.75 L1276.73 434.75 L1276.73 440.69 L1290.34 440.69 L1290.34 446.63 L1303.09 446.63 L1303.09 452.57 L1314.97 452.57 L1314.97 458.51 L1333.65 458.51 L1333.65 464.32 L1337.12 464.32 L1337.12 470.26 L1342.19 470.26 L1342.19 476.20 L1346.40 476.20 L1346.40 482.15 L1349.00 482.15 L1349.00 488.09 L1353.21 488.09 L1353.21 493.90 L1356.67 493.90 L1356.67 499.84 L1358.28 499.84 L1358.28 499.84 L1361.75 499.84 L1361.75 505.78 L1363.48 505.78 L1363.48 511.72 L1382.91 511.72 L1382.91 517.66 L1401.59 517.66 L1401.59 523.60 L1405.06 523.60 L1405.06 529.54 L1405.92 529.54 L1405.92 529.54 L1406.79 529.54 L1406.79 529.54 L1436.49 529.54 L1436.49 535.48 L1440.70 535.48 L1440.70 541.55 L1441.56 541.55 L1441.56 547.49 L1450.97 547.49 L1450.97 547.49 L1459.38 547.49 L1459.38 547.49 L1461.12 547.49 L1461.12 547.49 L1462.85 547.49 L1462.85 553.55 L1467.06 553.55 L1467.06 559.61 L1473.86 559.61 L1473.86 565.68 L1480.67 565.68 L1480.67 565.68 L1492.55 565.68 L1492.55 571.62 L1503.56 571.62 L1503.56 577.68 L1506.16 577.68 L1506.16 583.75 L1509.50 583.75 L1509.50 589.81 L1512.97 589.81 L1512.97 595.87 L1513.83 595.87 L1513.83 601.94 L1515.44 601.94 L1515.44 608.00 L1516.31 608.00 L1516.31 608.00 L1517.18 608.00 L1517.18 614.19 L1527.45 614.19 L1527.45 620.25 L1549.47 620.25 L1549.47 626.32 L1552.94 626.32 L1552.94 632.38 L1553.68 632.38 L1553.68 638.45 L1558.01 638.45 L1558.01 644.51 L1563.95 644.51 L1563.95 644.51 L1578.43 644.51 L1578.43 650.70 L1597.12 650.70 L1597.12 656.76 L1606.40 656.76 L1606.40 662.95 L1609.86 662.95 L1609.86 669.01 L1637.83 669.01 L1637.83 675.08 L1639.56 675.08 L1639.56 681.27 L1643.77 681.27 L1643.77 687.33 L1651.44 687.33 L1651.44 693.39 L1662.46 693.39 L1662.46 693.39 L1681.14 693.39 L1681.14 699.58 L1684.61 699.58 L1684.61 705.64 L1687.95 705.64 L1687.95 711.83 L1690.55 711.83 L1690.55 717.90 L1693.02 717.90 L1693.02 724.08 L1702.43 724.08 L1702.43 730.27 L1716.91 730.27 L1716.91 736.34 L1722.85 736.34 L1722.85 742.52 L1727.06 742.52 L1727.06 748.59 L1757.62 748.59 L1757.62 754.77 L1759.35 754.77 L1759.35 760.84 L1773.83 760.84 L1773.83 760.84 L1783.98 760.84 L1783.98 760.84 L1803.53 760.84 L1803.53 767.03 L1829.89 767.03 L1829.89 773.21 L1839.17 773.21 L1839.17 785.59 L1848.58 785.59 L1848.58 791.78 L1863.80 791.78 L1863.80 797.96 L1871.47 797.96 L1871.47 804.15 L1877.41 804.15 L1877.41 810.34 L1883.35 810.34 L1883.35 816.53 L1911.44 816.53 L1911.44 822.72 L1917.38 822.72 L1917.38 822.72 L1918.25 822.72 L1918.25 828.90 L1922.46 828.90 L1922.46 835.09 L1947.08 835.09 L1947.08 841.28 L1951.41 841.28 L1951.41 841.28 L1953.02 841.28 L1953.02 847.59 L1957.35 847.59 L1957.35 853.78 L1979.38 853.78 L1979.38 853.78 L1989.53 853.78 L1989.53 853.78 L1993.86 853.78 L1993.86 860.09 L1998.07 860.09 L1998.07 866.40 L2048.19 866.40 L2048.19 872.71 L2057.59 872.71 L2057.59 879.02 L2059.20 879.02 L2059.20 879.02 L2060.07 879.02 L2060.07 879.02 L2061.80 879.02 L2061.80 885.46 L2068.61 885.46 L2068.61 885.46 L2077.14 885.46 L2077.14 885.46 L2089.02 885.46 L2089.02 891.89 L2106.84 891.89 L2106.84 898.33 L2109.44 898.33 L2109.44 898.33 L2111.92 898.33 L2111.92 904.76 L2115.38 904.76 L2115.38 911.20 L2122.19 911.20 L2122.19 917.76 L2123.80 917.76 L2123.80 917.76 L2137.41 917.76 L2137.41 917.76 L2150.16 917.76 L2150.16 924.32 L2165.50 924.32 L2165.50 930.88 L2166.37 930.88 L2166.37 937.44 L2171.44 937.44 L2171.44 937.44 L2174.78 937.44 L2174.78 943.99 L2179.11 943.99 L2179.11 950.55 L2183.32 950.55 L2183.32 950.55 L2185.05 950.55 L2185.05 957.24 L2185.80 957.24 L2185.80 957.24 L2188.40 957.24 L2188.40 963.92 L2189.26 963.92 L2189.26 963.92 L2191.74 963.92 L2191.74 970.60 L2193.47 970.60 L2193.47 970.60 L2202.01 970.60 L2202.01 970.60 L2210.55 970.60 L2210.55 970.60 L2211.29 970.60 L2211.29 970.60 L2215.62 970.60 L2215.62 977.41 L2224.04 977.41 L2224.04 984.34 L2230.84 984.34 L2230.84 984.34 L2232.57 984.34 L2232.57 991.27 L2236.78 991.27 L2236.78 991.27 L2241.11 991.27 L2241.11 991.27 L2243.59 991.27 L2243.59 991.27 L2246.19 991.27 L2246.19 991.27 L2249.53 991.27 L2249.53 991.27 L2255.47 991.27 L2255.47 998.32 L2270.81 998.32 L2270.81 998.32 L2295.44 998.32 L2295.44 1005.50 L2328.60 1005.50 L2328.60 1005.50 L2334.54 1005.50 L2334.54 1005.50 L2355.83 1005.50 L2355.83 1005.50 L2366.84 1005.50 L2366.84 1005.50 L2370.18 1005.50 L2370.18 1005.50 L2372.78 1005.50 L2372.78 1005.50 L2375.26 1005.50 L2375.26 1012.80 L2385.53 1012.80 L2385.53 1012.80 L2393.20 1012.80 L2393.20 1012.80 L2396.54 1012.80 L2396.54 1012.80 L2399.14 1012.80 L2399.14 1020.35 L2417.83 1020.35 L2417.83 1020.35 L2426.24 1020.35 L2426.24 1027.90 L2429.71 1027.90 L2429.71 1027.90 L2438.25 1027.90 L2438.25 1027.90 L2438.99 1027.90 L2438.99 1027.90 L2439.86 1027.90 L2439.86 1027.90 L2443.32 1027.90 L2443.32 1035.70 L2457.68 1035.70 L2457.68 1035.70 L2465.35 1035.70 L2465.35 1035.70 L2474.75 1035.70 L2474.75 1035.70 L2480.69 1035.70 L2480.69 1035.70 L2483.17 1035.70 L2483.17 1035.70 L2484.03 1035.70 L2484.03 1035.70 L2495.91 1035.70 L2495.91 1035.70 L2501.85 1035.70 L2501.85 1043.99 L2508.66 1043.99 L2508.66 1043.99 L2514.60 1043.99 L2514.60 1043.99 L2524.87 1043.99 L2524.87 1043.99 L2528.21 1043.99 L2528.21 1052.53 L2533.29 1052.53 L2533.29 1052.53 L2535.02 1052.53 L2535.02 1052.53 L2536.75 1052.53 L2536.75 1052.53 L2549.50 1052.53 L2549.50 1052.53 L2558.04 1052.53 L2558.04 1052.53 L2559.65 1052.53 L2559.65 1052.53 L2565.59 1052.53 L2565.59 1061.31 L2568.18 1061.31 L2568.18 1061.31 L2570.78 1061.31 L2570.78 1061.31 L2574.99 1061.31 L2574.99 1061.31 L2587.74 1061.31 L2587.74 1061.31 L2592.81 1061.31 L2592.81 1070.35 L2601.35 1070.35 L2601.35 1079.50 L2604.69 1079.50 L2604.69 1079.50 L2609.76 1079.50 L2609.76 1079.50 L2614.96 1079.50 L2614.96 1088.66 L2618.30 1088.66 L2618.30 1088.66 L2630.18 1088.66 L2630.18 1097.94 L2631.92 1097.94 L2631.92 1107.23 L2632.78 1107.23 L2632.78 1116.63 L2635.26 1116.63 L2635.26 1116.63 L2653.94 1116.63 L2653.94 1116.63 L2656.54 1116.63 L2656.54 1116.63 L2660.75 1116.63 L2660.75 1116.63 L2663.35 1116.63 L2663.35 1116.63 L2671.02 1116.63 L2671.02 1116.63 L2679.44 1116.63 L2679.44 1116.63 L2688.84 1116.63 L2688.84 1126.53 L2699.85 1126.53 L2699.85 1136.56 L2704.93 1136.56 L2704.93 1136.56 L2726.21 1136.56 L2726.21 1146.58 L2737.23 1146.58 L2737.23 1146.58 L2743.17 1146.58 L2743.17 1146.58 L2747.50 1146.58 L2747.50 1146.58 L2762.72 1146.58 L2762.72 1156.85 L2764.45 1156.85 L2764.45 1167.12 L2772.99 1167.12 L2772.99 1177.39 L2796.75 1177.39 L2796.75 1187.79 L2809.50 1187.79 L2809.50 1198.06 L2812.84 1198.06 L2812.84 1198.06 L2823.11 1198.06 L2823.11 1198.06 L2845.14 1198.06 L2845.14 1208.58 L2846.87 1208.58 L2846.87 1208.58 L2862.09 1208.58 L2862.09 1208.58 L2865.56 1208.58 L2865.56 1219.22 L2884.24 1219.22 L2884.24 1229.99 L2909.73 1229.99 L2909.73 1240.76 L2914.81 1240.76 L2914.81 1240.76 L2923.35 1240.76 L2923.35 1240.76 L2938.57 1240.76 L2938.57 1240.76 L2966.66 1240.76 L2966.66 1240.76 L2968.39 1240.76 L2968.39 1240.76 L2975.94 1240.76 L2975.94 1252.14 L2996.36 1252.14 L2996.36 1252.14 L3005.76 1252.14 L3005.76 1252.14 L3013.44 1252.14 L3013.44 1252.14 L3020.99 1252.14 L3020.99 1252.14 L3026.93 1252.14 L3026.93 1252.14 L3030.39 1252.14 L3030.39 1252.14 L3038.81 1252.14 L3038.81 1252.14 L3049.94 1252.14 L3049.94 1252.14 L3051.55 1252.14 L3051.55 1252.14 L3055.88 1252.14 L3055.88 1252.14 L3083.85 1252.14 L3083.85 1252.14 L3098.33 1252.14 L3098.33 1252.14 L3113.67 1252.14 L3113.67 1265.38 L3117.88 1265.38 L3117.88 1278.50 L3127.29 1278.50 L3127.29 1278.50 L3133.97 1278.50 L3133.97 1278.50 L3141.64 1278.50 L3141.64 1278.50 L3145.11 1278.50 L3145.11 1278.50 L3148.45 1278.50 L3148.45 1278.50 L3150.18 1278.50 L3150.18 1278.50 L3153.52 1278.50 L3153.52 1278.50 L3154.39 1278.50 L3154.39 1278.50 L3158.72 1278.50 L3158.72 1278.50 L3159.46 1278.50 L3159.46 1293.72 L3162.06 1293.72 L3162.06 1293.72 L3175.67 1293.72 L3175.67 1309.32 L3176.54 1309.32 L3176.54 1324.79 L3194.36 1324.79 L3194.36 1324.79 L3196.83 1324.79 L3196.83 1340.50 L3210.45 1340.50 L3210.45 1340.50 L3237.67 1340.50 L3237.67 1340.50 L3247.08 1340.50 L3247.08 1340.50 L3263.16 1340.50 L3263.16 1340.50 L3264.03 1340.50 L3264.03 1340.50 L3278.51 1340.50 L3278.51 1357.70 L3280.98 1357.70 L3280.98 1357.70 L3285.32 1357.70 L3285.32 1357.70 L3355.73 1357.70 L3355.73 1357.70 L3371.94 1357.70 L3371.94 1357.70 L3396.57 1357.70 L3396.57 1357.70 L3411.05 1357.70 L3411.05 1357.70 L3416.99 1357.70 L3416.99 1357.70 L3422.06 1357.70 L3422.06 1357.70 L3423.79 1357.70 L3423.79 1357.70 L3430.60 1357.70 L3430.60 1357.70 L3435.67 1357.70 L3435.67 1357.70 L3442.48 1357.70 L3442.48 1357.70 L3452.63 1357.70 L3452.63 1357.70 L3464.51 1357.70 L3464.51 1357.70 L3466.24 1357.70 L3466.24 1381.09 L3508.68 1381.09 L3508.68 1381.09 L3538.38 1381.09 L3538.38 1381.09 L3579.22 1381.09 L3579.22 1381.09 L3596.18 1381.09 L3596.18 1406.46 L3631.07 1406.46 L3631.07 1406.46 L3632.81 1406.46 L3632.81 1432.57 L3660.77 1432.57 L3660.77 1458.69 L3661.64 1458.69 L3661.64 1458.69 L3664.98 1458.69 L3664.98 1458.69 L3704.95 1458.69 L3704.95 1458.69 L3729.58 1458.69 L3729.58 1487.65 L3761.88 1487.65 L3761.88 1487.65 L3784.03 1487.65 L3784.03 1487.65 L3786.13 1487.65 L3786.13 1487.65" stroke-linejoin="round" style="fill:none;stroke:#377EB8;stroke-width:8.64"/>
	<line x1="682.98" y1="2269.15" x2="682.98" y2="275.35" style="stroke:#000000;stroke-width:5.76"/>
	<line x1="682.98" y1="2269.15" x2="642.88" y2="2269.15" style="stroke:#000000;stroke-width:5.76"/>
	<text x="622.96" y="2304.18" style="font-family:'Helvetica';font-size:99.99px;fill:#000000" text-anchor="end">0.0</text>
	<line x1="682.98" y1="1870.42" x2="642.88" y2="1870.42" style="stroke:#000000;stroke-width:5.76"/>
	<text x="622.96" y="1905.44" style="font-family:'Helvetica';font-size:99.99px;fill:#000000" text-anchor="end">0.2</text>
	<line x1="682.98" y1="1471.68" x2="642.88" y2="1471.68" style="stroke:#000000;stroke-width:5.76"/>
	<text x="622.96" y="1506.71" style="font-family:'Helvetica';font-size:99.99px;fill:#000000" text-anchor="end">0.4</text>
	<line x1="682.98" y1="1072.95" x2="642.88" y2="1072.95" style="stroke:#000000;stroke-width:5.76"/>
	<text x="622.96" y="1107.97" style="font-family:'Helvetica';font-size:99.99px;fill:#000000" text-anchor="end">0.6</text>
	<line x1="682.98" y1="674.09" x2="642.88" y2="674.09" style="stroke:#000000;stroke-width:5.76"/>
	<text x="622.96" y="709.12" style="font-family:'Helvetica';font-size:99.99px;fill:#000000" text-anchor="end">0.8</text>
	<line x1="682.98" y1="275.35" x2="642.88" y2="275.35" style="stroke:#000000;stroke-width:5.76"/>
	<text x="622.96" y="310.38" style="font-family:'Helvetica';font-size:99.99px;fill:#000000" text-anchor="end">1.0</text>
	<text x="407.89" y="1272.31" style="font-family:'Helvetica';font-size:99.99px;fill:#000000" transform="rotate(-90 407.89,1272.31)" text-anchor="middle">S(t)</text>
	<text x="682.98" y="2747.83" style="font-family:'Helvetica';font-size:60.02px;fill:#000000" text-anchor="middle">339</text>
	<text x="1303.58" y="2747.83" style="font-family:'Helvetica';font-size:60.02px;fill:#000000" text-anchor="middle">307</text>
	<text x="1924.19" y="2747.83" style="font-family:'Helvetica';font-size:60.02px;fill:#000000" text-anchor="middle">231</text>
	<text x="2544.92" y="2747.83" style="font-family:'Helvetica';font-size:60.02px;fill:#000000" text-anchor="middle">141</text>
	<text x="3165.53" y="2747.83" style="font-family:'Helvetica';font-size:60.02px;fill:#000000" text-anchor="middle">63</text>
	<text x="3786.13" y="2747.83" style="font-family:'Helvetica';font-size:60.02px;fill:#000000" text-anchor="middle">25</text>
	<text x="527.79" y="2747.83" style="font-family:'Helvetica';font-size:60.02px;fill:#000000" text-anchor="end">hormon = yes</text>
	<text x="682.98" y="2674.44" style="font-family:'Helvetica';font-size:60.02px;fill:#000000" text-anchor="middle">2643</text>
	<text x="1303.58" y="2674.44" style="font-family:'Helvetica';font-size:60.02px;fill:#000000" text-anchor="middle">2436</text>
	<text x="1924.19" y="2674.44" style="font-family:'Helvetica';font-size:60.02px;fill:#000000" text-anchor="middle">2083</text>
	<text x="2544.92" y="2674.44" style="font-family:'Helvetica';font-size:60.02px;fill:#000000" text-anchor="middle">1668</text>
	<text x="3165.53" y="2674.44" style="font-family:'Helvetica';font-size:60.02px;fill:#000000" text-anchor="middle">1188</text>
	<text x="3786.13" y="2674.44" style="font-family:'Helvetica';font-size:60.02px;fill:#000000" text-anchor="middle">660</text>
	<text x="527.79" y="2674.44" style="font-family:'Helvetica';font-size:60.02px;fill:#000000" text-anchor="end">hormon = no</text>
	<text x="527.79" y="2601.18" style="font-family:'Helvetica';font-size:60.02px;fill:#000000" text-anchor="end">Number at risk</text>
	<line x1="682.98" y1="2269.15" x2="3843.80" y2="2269.15" style="stroke:#000000;stroke-width:5.76"/>
	<line x1="682.98" y1="2269.15" x2="682.98" y2="2309.25" style="stroke:#000000;stroke-width:5.76"/>
	<text x="682.98" y="2399.10" style="font-family:'Helvetica';font-size:99.99px;fill:#000000" text-anchor="middle">0</text>
	<line x1="1303.58" y1="2269.15" x2="1303.58" y2="2309.25" style="stroke:#000000;stroke-width:5.76"/>
	<text x="1303.58" y="2399.10" style="font-family:'Helvetica';font-size:99.99px;fill:#000000" text-anchor="middle">2</text>
	<line x1="1924.19" y1="2269.15" x2="1924.19" y2="2309.25" style="stroke:#000000;stroke-width:5.76"/>
	<text x="1924.19" y="2399.10" style="font-family:'Helvetica';font-size:99.99px;fill:#000000" text-anchor="middle">4</text>
	<line x1="2544.92" y1="2269.15" x2="2544.92" y2="2309.25" style="stroke:#000000;stroke-width:5.76"/>
	<text x="2544.92" y="2399.10" style="font-family:'Helvetica';font-size:99.99px;fill:#000000" text-anchor="middle">6</text>
	<line x1="3165.53" y1="2269.15" x2="3165.53" y2="2309.25" style="stroke:#000000;stroke-width:5.76"/>
	<text x="3165.53" y="2399.10" style="font-family:'Helvetica';font-size:99.99px;fill:#000000" text-anchor="middle">8</text>
	<line x1="3786.13" y1="2269.15" x2="3786.13" y2="2309.25" style="stroke:#000000;stroke-width:5.76"/>
	<text x="3786.13" y="2399.10" style="font-family:'Helvetica';font-size:99.99px;fill:#000000" text-anchor="middle">10</text>
	<text x="2263.39" y="2509.12" style="font-family:'Helvetica';font-size:99.99px;fill:#000000" text-anchor="middle">Time since surgery</text>
	<line x1="2438.62" y1="403.07" x2="2638.60" y2="403.07" style="stroke:#E41A1C;stroke-width:8.64"/>
	<line x1="2438.62" y1="543.16" x2="2638.60" y2="543.16" style="stroke:#377EB8;stroke-width:8.64"/>
	<text x="2698.49" y="438.09" style="font-family:'Helvetica';font-size:99.99px;fill:#000000">No hormonal treatment</text>
	<text x="2698.49" y="578.18" style="font-family:'Helvetica';font-size:99.99px;fill:#000000">Hormonal treatment</text>
	<text x="2263.39" y="215.98" style="font-family:'Helvetica';font-size:139.96px;fill:#000000" text-anchor="middle">KaplanMeier survival estimates</text>
</svg>
