<?xml version="1.0" encoding="UTF-8" standalone="no"?>
<!-- This is a Stata 18.5 generated SVG file (http://www.stata.com) -->

<svg version="1.1" width="700px" height="420px" viewBox="0 0 5400 3240" xmlns="http://www.w3.org/2000/svg" xmlns:xlink="http://www.w3.org/1999/xlink">
	<desc>Stata Graph - Graph</desc>
	<rect x="0" y="0" width="5400" height="3240" style="fill:#FFFFFF;stroke:none"/>
	<rect x="0.00" y="0.00" width="5400.00" height="3240.00" style="fill:#FFFFFF"/>
	<rect x="3.24" y="3.24" width="5393.52" height="3233.52" style="fill:none;stroke:#FFFFFF;stroke-width:6.48"/>
	<rect x="576.45" y="113.40" width="4710.15" height="2653.26" style="fill:#FFFFFF"/>
	<rect x="579.69" y="116.64" width="4703.67" height="2646.78" style="fill:none;stroke:#FFFFFF;stroke-width:6.48"/>
	<line x1="576.45" y1="2695.28" x2="641.25" y2="2695.28" style="stroke:#F0F0F0;stroke-width:9.72"/>
	<line x1="673.65" y1="2695.28" x2="738.45" y2="2695.28" style="stroke:#F0F0F0;stroke-width:9.72"/>
	<line x1="770.85" y1="2695.28" x2="835.65" y2="2695.28" style="stroke:#F0F0F0;stroke-width:9.72"/>
	<line x1="868.05" y1="2695.28" x2="932.85" y2="2695.28" style="stroke:#F0F0F0;stroke-width:9.72"/>
	<line x1="965.25" y1="2695.28" x2="1030.05" y2="2695.28" style="stroke:#F0F0F0;stroke-width:9.72"/>
	<line x1="1062.45" y1="2695.28" x2="1127.25" y2="2695.28" style="stroke:#F0F0F0;stroke-width:9.72"/>
	<line x1="1159.65" y1="2695.28" x2="1224.45" y2="2695.28" style="stroke:#F0F0F0;stroke-width:9.72"/>
	<line x1="1256.85" y1="2695.28" x2="1321.65" y2="2695.28" style="stroke:#F0F0F0;stroke-width:9.72"/>
	<line x1="1354.05" y1="2695.28" x2="1418.85" y2="2695.28" style="stroke:#F0F0F0;stroke-width:9.72"/>
	<line x1="1451.25" y1="2695.28" x2="1516.05" y2="2695.28" style="stroke:#F0F0F0;stroke-width:9.72"/>
	<line x1="1548.45" y1="2695.28" x2="1613.25" y2="2695.28" style="stroke:#F0F0F0;stroke-width:9.72"/>
	<line x1="1645.65" y1="2695.28" x2="1710.45" y2="2695.28" style="stroke:#F0F0F0;stroke-width:9.72"/>
	<line x1="1742.85" y1="2695.28" x2="1807.65" y2="2695.28" style="stroke:#F0F0F0;stroke-width:9.72"/>
	<line x1="1840.05" y1="2695.28" x2="1904.85" y2="2695.28" style="stroke:#F0F0F0;stroke-width:9.72"/>
	<line x1="1937.25" y1="2695.28" x2="2002.05" y2="2695.28" style="stroke:#F0F0F0;stroke-width:9.72"/>
	<line x1="2034.45" y1="2695.28" x2="2099.25" y2="2695.28" style="stroke:#F0F0F0;stroke-width:9.72"/>
	<line x1="2131.65" y1="2695.28" x2="2196.45" y2="2695.28" style="stroke:#F0F0F0;stroke-width:9.72"/>
	<line x1="2228.85" y1="2695.28" x2="2293.65" y2="2695.28" style="stroke:#F0F0F0;stroke-width:9.72"/>
	<line x1="2326.05" y1="2695.28" x2="2390.85" y2="2695.28" style="stroke:#F0F0F0;stroke-width:9.72"/>
	<line x1="2423.25" y1="2695.28" x2="2488.05" y2="2695.28" style="stroke:#F0F0F0;stroke-width:9.72"/>
	<line x1="2520.45" y1="2695.28" x2="2585.25" y2="2695.28" style="stroke:#F0F0F0;stroke-width:9.72"/>
	<line x1="2617.65" y1="2695.28" x2="2682.45" y2="2695.28" style="stroke:#F0F0F0;stroke-width:9.72"/>
	<line x1="2714.85" y1="2695.28" x2="2779.65" y2="2695.28" style="stroke:#F0F0F0;stroke-width:9.72"/>
	<line x1="2812.05" y1="2695.28" x2="2876.85" y2="2695.28" style="stroke:#F0F0F0;stroke-width:9.72"/>
	<line x1="2909.25" y1="2695.28" x2="2974.05" y2="2695.28" style="stroke:#F0F0F0;stroke-width:9.72"/>
	<line x1="3006.45" y1="2695.28" x2="3071.25" y2="2695.28" style="stroke:#F0F0F0;stroke-width:9.72"/>
	<line x1="3103.65" y1="2695.28" x2="3168.45" y2="2695.28" style="stroke:#F0F0F0;stroke-width:9.72"/>
	<line x1="3200.85" y1="2695.28" x2="3265.65" y2="2695.28" style="stroke:#F0F0F0;stroke-width:9.72"/>
	<line x1="3298.05" y1="2695.28" x2="3362.85" y2="2695.28" style="stroke:#F0F0F0;stroke-width:9.72"/>
	<line x1="3395.25" y1="2695.28" x2="3460.05" y2="2695.28" style="stroke:#F0F0F0;stroke-width:9.72"/>
	<line x1="3492.45" y1="2695.28" x2="3557.25" y2="2695.28" style="stroke:#F0F0F0;stroke-width:9.72"/>
	<line x1="3589.65" y1="2695.28" x2="3654.45" y2="2695.28" style="stroke:#F0F0F0;stroke-width:9.72"/>
	<line x1="3686.85" y1="2695.28" x2="3751.65" y2="2695.28" style="stroke:#F0F0F0;stroke-width:9.72"/>
	<line x1="3784.05" y1="2695.28" x2="3848.85" y2="2695.28" style="stroke:#F0F0F0;stroke-width:9.72"/>
	<line x1="3881.25" y1="2695.28" x2="3946.05" y2="2695.28" style="stroke:#F0F0F0;stroke-width:9.72"/>
	<line x1="3978.45" y1="2695.28" x2="4043.25" y2="2695.28" style="stroke:#F0F0F0;stroke-width:9.72"/>
	<line x1="4075.65" y1="2695.28" x2="4140.45" y2="2695.28" style="stroke:#F0F0F0;stroke-width:9.72"/>
	<line x1="4172.85" y1="2695.28" x2="4237.65" y2="2695.28" style="stroke:#F0F0F0;stroke-width:9.72"/>
	<line x1="4270.05" y1="2695.28" x2="4334.85" y2="2695.28" style="stroke:#F0F0F0;stroke-width:9.72"/>
	<line x1="4367.25" y1="2695.28" x2="4432.05" y2="2695.28" style="stroke:#F0F0F0;stroke-width:9.72"/>
	<line x1="4464.45" y1="2695.28" x2="4529.25" y2="2695.28" style="stroke:#F0F0F0;stroke-width:9.72"/>
	<line x1="4561.65" y1="2695.28" x2="4626.45" y2="2695.28" style="stroke:#F0F0F0;stroke-width:9.72"/>
	<line x1="4658.85" y1="2695.28" x2="4723.65" y2="2695.28" style="stroke:#F0F0F0;stroke-width:9.72"/>
	<line x1="4756.05" y1="2695.28" x2="4820.85" y2="2695.28" style="stroke:#F0F0F0;stroke-width:9.72"/>
	<line x1="4853.25" y1="2695.28" x2="4918.05" y2="2695.28" style="stroke:#F0F0F0;stroke-width:9.72"/>
	<line x1="4950.45" y1="2695.28" x2="5015.25" y2="2695.28" style="stroke:#F0F0F0;stroke-width:9.72"/>
	<line x1="5047.65" y1="2695.28" x2="5112.45" y2="2695.28" style="stroke:#F0F0F0;stroke-width:9.72"/>
	<line x1="5144.85" y1="2695.28" x2="5209.65" y2="2695.28" style="stroke:#F0F0F0;stroke-width:9.72"/>
	<line x1="5242.05" y1="2695.28" x2="5286.60" y2="2695.28" style="stroke:#F0F0F0;stroke-width:9.72"/>
	<line x1="576.45" y1="2193.24" x2="641.25" y2="2193.24" style="stroke:#F0F0F0;stroke-width:9.72"/>
	<line x1="673.65" y1="2193.24" x2="738.45" y2="2193.24" style="stroke:#F0F0F0;stroke-width:9.72"/>
	<line x1="770.85" y1="2193.24" x2="835.65" y2="2193.24" style="stroke:#F0F0F0;stroke-width:9.72"/>
	<line x1="868.05" y1="2193.24" x2="932.85" y2="2193.24" style="stroke:#F0F0F0;stroke-width:9.72"/>
	<line x1="965.25" y1="2193.24" x2="1030.05" y2="2193.24" style="stroke:#F0F0F0;stroke-width:9.72"/>
	<line x1="1062.45" y1="2193.24" x2="1127.25" y2="2193.24" style="stroke:#F0F0F0;stroke-width:9.72"/>
	<line x1="1159.65" y1="2193.24" x2="1224.45" y2="2193.24" style="stroke:#F0F0F0;stroke-width:9.72"/>
	<line x1="1256.85" y1="2193.24" x2="1321.65" y2="2193.24" style="stroke:#F0F0F0;stroke-width:9.72"/>
	<line x1="1354.05" y1="2193.24" x2="1418.85" y2="2193.24" style="stroke:#F0F0F0;stroke-width:9.72"/>
	<line x1="1451.25" y1="2193.24" x2="1516.05" y2="2193.24" style="stroke:#F0F0F0;stroke-width:9.72"/>
	<line x1="1548.45" y1="2193.24" x2="1613.25" y2="2193.24" style="stroke:#F0F0F0;stroke-width:9.72"/>
	<line x1="1645.65" y1="2193.24" x2="1710.45" y2="2193.24" style="stroke:#F0F0F0;stroke-width:9.72"/>
	<line x1="1742.85" y1="2193.24" x2="1807.65" y2="2193.24" style="stroke:#F0F0F0;stroke-width:9.72"/>
	<line x1="1840.05" y1="2193.24" x2="1904.85" y2="2193.24" style="stroke:#F0F0F0;stroke-width:9.72"/>
	<line x1="1937.25" y1="2193.24" x2="2002.05" y2="2193.24" style="stroke:#F0F0F0;stroke-width:9.72"/>
	<line x1="2034.45" y1="2193.24" x2="2099.25" y2="2193.24" style="stroke:#F0F0F0;stroke-width:9.72"/>
	<line x1="2131.65" y1="2193.24" x2="2196.45" y2="2193.24" style="stroke:#F0F0F0;stroke-width:9.72"/>
	<line x1="2228.85" y1="2193.24" x2="2293.65" y2="2193.24" style="stroke:#F0F0F0;stroke-width:9.72"/>
	<line x1="2326.05" y1="2193.24" x2="2390.85" y2="2193.24" style="stroke:#F0F0F0;stroke-width:9.72"/>
	<line x1="2423.25" y1="2193.24" x2="2488.05" y2="2193.24" style="stroke:#F0F0F0;stroke-width:9.72"/>
	<line x1="2520.45" y1="2193.24" x2="2585.25" y2="2193.24" style="stroke:#F0F0F0;stroke-width:9.72"/>
	<line x1="2617.65" y1="2193.24" x2="2682.45" y2="2193.24" style="stroke:#F0F0F0;stroke-width:9.72"/>
	<line x1="2714.85" y1="2193.24" x2="2779.65" y2="2193.24" style="stroke:#F0F0F0;stroke-width:9.72"/>
	<line x1="2812.05" y1="2193.24" x2="2876.85" y2="2193.24" style="stroke:#F0F0F0;stroke-width:9.72"/>
	<line x1="2909.25" y1="2193.24" x2="2974.05" y2="2193.24" style="stroke:#F0F0F0;stroke-width:9.72"/>
	<line x1="3006.45" y1="2193.24" x2="3071.25" y2="2193.24" style="stroke:#F0F0F0;stroke-width:9.72"/>
	<line x1="3103.65" y1="2193.24" x2="3168.45" y2="2193.24" style="stroke:#F0F0F0;stroke-width:9.72"/>
	<line x1="3200.85" y1="2193.24" x2="3265.65" y2="2193.24" style="stroke:#F0F0F0;stroke-width:9.72"/>
	<line x1="3298.05" y1="2193.24" x2="3362.85" y2="2193.24" style="stroke:#F0F0F0;stroke-width:9.72"/>
	<line x1="3395.25" y1="2193.24" x2="3460.05" y2="2193.24" style="stroke:#F0F0F0;stroke-width:9.72"/>
	<line x1="3492.45" y1="2193.24" x2="3557.25" y2="2193.24" style="stroke:#F0F0F0;stroke-width:9.72"/>
	<line x1="3589.65" y1="2193.24" x2="3654.45" y2="2193.24" style="stroke:#F0F0F0;stroke-width:9.72"/>
	<line x1="3686.85" y1="2193.24" x2="3751.65" y2="2193.24" style="stroke:#F0F0F0;stroke-width:9.72"/>
	<line x1="3784.05" y1="2193.24" x2="3848.85" y2="2193.24" style="stroke:#F0F0F0;stroke-width:9.72"/>
	<line x1="3881.25" y1="2193.24" x2="3946.05" y2="2193.24" style="stroke:#F0F0F0;stroke-width:9.72"/>
	<line x1="3978.45" y1="2193.24" x2="4043.25" y2="2193.24" style="stroke:#F0F0F0;stroke-width:9.72"/>
	<line x1="4075.65" y1="2193.24" x2="4140.45" y2="2193.24" style="stroke:#F0F0F0;stroke-width:9.72"/>
	<line x1="4172.85" y1="2193.24" x2="4237.65" y2="2193.24" style="stroke:#F0F0F0;stroke-width:9.72"/>
	<line x1="4270.05" y1="2193.24" x2="4334.85" y2="2193.24" style="stroke:#F0F0F0;stroke-width:9.72"/>
	<line x1="4367.25" y1="2193.24" x2="4432.05" y2="2193.24" style="stroke:#F0F0F0;stroke-width:9.72"/>
	<line x1="4464.45" y1="2193.24" x2="4529.25" y2="2193.24" style="stroke:#F0F0F0;stroke-width:9.72"/>
	<line x1="4561.65" y1="2193.24" x2="4626.45" y2="2193.24" style="stroke:#F0F0F0;stroke-width:9.72"/>
	<line x1="4658.85" y1="2193.24" x2="4723.65" y2="2193.24" style="stroke:#F0F0F0;stroke-width:9.72"/>
	<line x1="4756.05" y1="2193.24" x2="4820.85" y2="2193.24" style="stroke:#F0F0F0;stroke-width:9.72"/>
	<line x1="4853.25" y1="2193.24" x2="4918.05" y2="2193.24" style="stroke:#F0F0F0;stroke-width:9.72"/>
	<line x1="4950.45" y1="2193.24" x2="5015.25" y2="2193.24" style="stroke:#F0F0F0;stroke-width:9.72"/>
	<line x1="5047.65" y1="2193.24" x2="5112.45" y2="2193.24" style="stroke:#F0F0F0;stroke-width:9.72"/>
	<line x1="5144.85" y1="2193.24" x2="5209.65" y2="2193.24" style="stroke:#F0F0F0;stroke-width:9.72"/>
	<line x1="5242.05" y1="2193.24" x2="5286.60" y2="2193.24" style="stroke:#F0F0F0;stroke-width:9.72"/>
	<line x1="576.45" y1="1691.04" x2="641.25" y2="1691.04" style="stroke:#F0F0F0;stroke-width:9.72"/>
	<line x1="673.65" y1="1691.04" x2="738.45" y2="1691.04" style="stroke:#F0F0F0;stroke-width:9.72"/>
	<line x1="770.85" y1="1691.04" x2="835.65" y2="1691.04" style="stroke:#F0F0F0;stroke-width:9.72"/>
	<line x1="868.05" y1="1691.04" x2="932.85" y2="1691.04" style="stroke:#F0F0F0;stroke-width:9.72"/>
	<line x1="965.25" y1="1691.04" x2="1030.05" y2="1691.04" style="stroke:#F0F0F0;stroke-width:9.72"/>
	<line x1="1062.45" y1="1691.04" x2="1127.25" y2="1691.04" style="stroke:#F0F0F0;stroke-width:9.72"/>
	<line x1="1159.65" y1="1691.04" x2="1224.45" y2="1691.04" style="stroke:#F0F0F0;stroke-width:9.72"/>
	<line x1="1256.85" y1="1691.04" x2="1321.65" y2="1691.04" style="stroke:#F0F0F0;stroke-width:9.72"/>
	<line x1="1354.05" y1="1691.04" x2="1418.85" y2="1691.04" style="stroke:#F0F0F0;stroke-width:9.72"/>
	<line x1="1451.25" y1="1691.04" x2="1516.05" y2="1691.04" style="stroke:#F0F0F0;stroke-width:9.72"/>
	<line x1="1548.45" y1="1691.04" x2="1613.25" y2="1691.04" style="stroke:#F0F0F0;stroke-width:9.72"/>
	<line x1="1645.65" y1="1691.04" x2="1710.45" y2="1691.04" style="stroke:#F0F0F0;stroke-width:9.72"/>
	<line x1="1742.85" y1="1691.04" x2="1807.65" y2="1691.04" style="stroke:#F0F0F0;stroke-width:9.72"/>
	<line x1="1840.05" y1="1691.04" x2="1904.85" y2="1691.04" style="stroke:#F0F0F0;stroke-width:9.72"/>
	<line x1="1937.25" y1="1691.04" x2="2002.05" y2="1691.04" style="stroke:#F0F0F0;stroke-width:9.72"/>
	<line x1="2034.45" y1="1691.04" x2="2099.25" y2="1691.04" style="stroke:#F0F0F0;stroke-width:9.72"/>
	<line x1="2131.65" y1="1691.04" x2="2196.45" y2="1691.04" style="stroke:#F0F0F0;stroke-width:9.72"/>
	<line x1="2228.85" y1="1691.04" x2="2293.65" y2="1691.04" style="stroke:#F0F0F0;stroke-width:9.72"/>
	<line x1="2326.05" y1="1691.04" x2="2390.85" y2="1691.04" style="stroke:#F0F0F0;stroke-width:9.72"/>
	<line x1="2423.25" y1="1691.04" x2="2488.05" y2="1691.04" style="stroke:#F0F0F0;stroke-width:9.72"/>
	<line x1="2520.45" y1="1691.04" x2="2585.25" y2="1691.04" style="stroke:#F0F0F0;stroke-width:9.72"/>
	<line x1="2617.65" y1="1691.04" x2="2682.45" y2="1691.04" style="stroke:#F0F0F0;stroke-width:9.72"/>
	<line x1="2714.85" y1="1691.04" x2="2779.65" y2="1691.04" style="stroke:#F0F0F0;stroke-width:9.72"/>
	<line x1="2812.05" y1="1691.04" x2="2876.85" y2="1691.04" style="stroke:#F0F0F0;stroke-width:9.72"/>
	<line x1="2909.25" y1="1691.04" x2="2974.05" y2="1691.04" style="stroke:#F0F0F0;stroke-width:9.72"/>
	<line x1="3006.45" y1="1691.04" x2="3071.25" y2="1691.04" style="stroke:#F0F0F0;stroke-width:9.72"/>
	<line x1="3103.65" y1="1691.04" x2="3168.45" y2="1691.04" style="stroke:#F0F0F0;stroke-width:9.72"/>
	<line x1="3200.85" y1="1691.04" x2="3265.65" y2="1691.04" style="stroke:#F0F0F0;stroke-width:9.72"/>
	<line x1="3298.05" y1="1691.04" x2="3362.85" y2="1691.04" style="stroke:#F0F0F0;stroke-width:9.72"/>
	<line x1="3395.25" y1="1691.04" x2="3460.05" y2="1691.04" style="stroke:#F0F0F0;stroke-width:9.72"/>
	<line x1="3492.45" y1="1691.04" x2="3557.25" y2="1691.04" style="stroke:#F0F0F0;stroke-width:9.72"/>
	<line x1="3589.65" y1="1691.04" x2="3654.45" y2="1691.04" style="stroke:#F0F0F0;stroke-width:9.72"/>
	<line x1="3686.85" y1="1691.04" x2="3751.65" y2="1691.04" style="stroke:#F0F0F0;stroke-width:9.72"/>
	<line x1="3784.05" y1="1691.04" x2="3848.85" y2="1691.04" style="stroke:#F0F0F0;stroke-width:9.72"/>
	<line x1="3881.25" y1="1691.04" x2="3946.05" y2="1691.04" style="stroke:#F0F0F0;stroke-width:9.72"/>
	<line x1="3978.45" y1="1691.04" x2="4043.25" y2="1691.04" style="stroke:#F0F0F0;stroke-width:9.72"/>
	<line x1="4075.65" y1="1691.04" x2="4140.45" y2="1691.04" style="stroke:#F0F0F0;stroke-width:9.72"/>
	<line x1="4172.85" y1="1691.04" x2="4237.65" y2="1691.04" style="stroke:#F0F0F0;stroke-width:9.72"/>
	<line x1="4270.05" y1="1691.04" x2="4334.85" y2="1691.04" style="stroke:#F0F0F0;stroke-width:9.72"/>
	<line x1="4367.25" y1="1691.04" x2="4432.05" y2="1691.04" style="stroke:#F0F0F0;stroke-width:9.72"/>
	<line x1="4464.45" y1="1691.04" x2="4529.25" y2="1691.04" style="stroke:#F0F0F0;stroke-width:9.72"/>
	<line x1="4561.65" y1="1691.04" x2="4626.45" y2="1691.04" style="stroke:#F0F0F0;stroke-width:9.72"/>
	<line x1="4658.85" y1="1691.04" x2="4723.65" y2="1691.04" style="stroke:#F0F0F0;stroke-width:9.72"/>
	<line x1="4756.05" y1="1691.04" x2="4820.85" y2="1691.04" style="stroke:#F0F0F0;stroke-width:9.72"/>
	<line x1="4853.25" y1="1691.04" x2="4918.05" y2="1691.04" style="stroke:#F0F0F0;stroke-width:9.72"/>
	<line x1="4950.45" y1="1691.04" x2="5015.25" y2="1691.04" style="stroke:#F0F0F0;stroke-width:9.72"/>
	<line x1="5047.65" y1="1691.04" x2="5112.45" y2="1691.04" style="stroke:#F0F0F0;stroke-width:9.72"/>
	<line x1="5144.85" y1="1691.04" x2="5209.65" y2="1691.04" style="stroke:#F0F0F0;stroke-width:9.72"/>
	<line x1="5242.05" y1="1691.04" x2="5286.60" y2="1691.04" style="stroke:#F0F0F0;stroke-width:9.72"/>
	<line x1="576.45" y1="1189.01" x2="641.25" y2="1189.01" style="stroke:#F0F0F0;stroke-width:9.72"/>
	<line x1="673.65" y1="1189.01" x2="738.45" y2="1189.01" style="stroke:#F0F0F0;stroke-width:9.72"/>
	<line x1="770.85" y1="1189.01" x2="835.65" y2="1189.01" style="stroke:#F0F0F0;stroke-width:9.72"/>
	<line x1="868.05" y1="1189.01" x2="932.85" y2="1189.01" style="stroke:#F0F0F0;stroke-width:9.72"/>
	<line x1="965.25" y1="1189.01" x2="1030.05" y2="1189.01" style="stroke:#F0F0F0;stroke-width:9.72"/>
	<line x1="1062.45" y1="1189.01" x2="1127.25" y2="1189.01" style="stroke:#F0F0F0;stroke-width:9.72"/>
	<line x1="1159.65" y1="1189.01" x2="1224.45" y2="1189.01" style="stroke:#F0F0F0;stroke-width:9.72"/>
	<line x1="1256.85" y1="1189.01" x2="1321.65" y2="1189.01" style="stroke:#F0F0F0;stroke-width:9.72"/>
	<line x1="1354.05" y1="1189.01" x2="1418.85" y2="1189.01" style="stroke:#F0F0F0;stroke-width:9.72"/>
	<line x1="1451.25" y1="1189.01" x2="1516.05" y2="1189.01" style="stroke:#F0F0F0;stroke-width:9.72"/>
	<line x1="1548.45" y1="1189.01" x2="1613.25" y2="1189.01" style="stroke:#F0F0F0;stroke-width:9.72"/>
	<line x1="1645.65" y1="1189.01" x2="1710.45" y2="1189.01" style="stroke:#F0F0F0;stroke-width:9.72"/>
	<line x1="1742.85" y1="1189.01" x2="1807.65" y2="1189.01" style="stroke:#F0F0F0;stroke-width:9.72"/>
	<line x1="1840.05" y1="1189.01" x2="1904.85" y2="1189.01" style="stroke:#F0F0F0;stroke-width:9.72"/>
	<line x1="1937.25" y1="1189.01" x2="2002.05" y2="1189.01" style="stroke:#F0F0F0;stroke-width:9.72"/>
	<line x1="2034.45" y1="1189.01" x2="2099.25" y2="1189.01" style="stroke:#F0F0F0;stroke-width:9.72"/>
	<line x1="2131.65" y1="1189.01" x2="2196.45" y2="1189.01" style="stroke:#F0F0F0;stroke-width:9.72"/>
	<line x1="2228.85" y1="1189.01" x2="2293.65" y2="1189.01" style="stroke:#F0F0F0;stroke-width:9.72"/>
	<line x1="2326.05" y1="1189.01" x2="2390.85" y2="1189.01" style="stroke:#F0F0F0;stroke-width:9.72"/>
	<line x1="2423.25" y1="1189.01" x2="2488.05" y2="1189.01" style="stroke:#F0F0F0;stroke-width:9.72"/>
	<line x1="2520.45" y1="1189.01" x2="2585.25" y2="1189.01" style="stroke:#F0F0F0;stroke-width:9.72"/>
	<line x1="2617.65" y1="1189.01" x2="2682.45" y2="1189.01" style="stroke:#F0F0F0;stroke-width:9.72"/>
	<line x1="2714.85" y1="1189.01" x2="2779.65" y2="1189.01" style="stroke:#F0F0F0;stroke-width:9.72"/>
	<line x1="2812.05" y1="1189.01" x2="2876.85" y2="1189.01" style="stroke:#F0F0F0;stroke-width:9.72"/>
	<line x1="2909.25" y1="1189.01" x2="2974.05" y2="1189.01" style="stroke:#F0F0F0;stroke-width:9.72"/>
	<line x1="3006.45" y1="1189.01" x2="3071.25" y2="1189.01" style="stroke:#F0F0F0;stroke-width:9.72"/>
	<line x1="3103.65" y1="1189.01" x2="3168.45" y2="1189.01" style="stroke:#F0F0F0;stroke-width:9.72"/>
	<line x1="3200.85" y1="1189.01" x2="3265.65" y2="1189.01" style="stroke:#F0F0F0;stroke-width:9.72"/>
	<line x1="3298.05" y1="1189.01" x2="3362.85" y2="1189.01" style="stroke:#F0F0F0;stroke-width:9.72"/>
	<line x1="3395.25" y1="1189.01" x2="3460.05" y2="1189.01" style="stroke:#F0F0F0;stroke-width:9.72"/>
	<line x1="3492.45" y1="1189.01" x2="3557.25" y2="1189.01" style="stroke:#F0F0F0;stroke-width:9.72"/>
	<line x1="3589.65" y1="1189.01" x2="3654.45" y2="1189.01" style="stroke:#F0F0F0;stroke-width:9.72"/>
	<line x1="3686.85" y1="1189.01" x2="3751.65" y2="1189.01" style="stroke:#F0F0F0;stroke-width:9.72"/>
	<line x1="3784.05" y1="1189.01" x2="3848.85" y2="1189.01" style="stroke:#F0F0F0;stroke-width:9.72"/>
	<line x1="3881.25" y1="1189.01" x2="3946.05" y2="1189.01" style="stroke:#F0F0F0;stroke-width:9.72"/>
	<line x1="3978.45" y1="1189.01" x2="4043.25" y2="1189.01" style="stroke:#F0F0F0;stroke-width:9.72"/>
	<line x1="4075.65" y1="1189.01" x2="4140.45" y2="1189.01" style="stroke:#F0F0F0;stroke-width:9.72"/>
	<line x1="4172.85" y1="1189.01" x2="4237.65" y2="1189.01" style="stroke:#F0F0F0;stroke-width:9.72"/>
	<line x1="4270.05" y1="1189.01" x2="4334.85" y2="1189.01" style="stroke:#F0F0F0;stroke-width:9.72"/>
	<line x1="4367.25" y1="1189.01" x2="4432.05" y2="1189.01" style="stroke:#F0F0F0;stroke-width:9.72"/>
	<line x1="4464.45" y1="1189.01" x2="4529.25" y2="1189.01" style="stroke:#F0F0F0;stroke-width:9.72"/>
	<line x1="4561.65" y1="1189.01" x2="4626.45" y2="1189.01" style="stroke:#F0F0F0;stroke-width:9.72"/>
	<line x1="4658.85" y1="1189.01" x2="4723.65" y2="1189.01" style="stroke:#F0F0F0;stroke-width:9.72"/>
	<line x1="4756.05" y1="1189.01" x2="4820.85" y2="1189.01" style="stroke:#F0F0F0;stroke-width:9.72"/>
	<line x1="4853.25" y1="1189.01" x2="4918.05" y2="1189.01" style="stroke:#F0F0F0;stroke-width:9.72"/>
	<line x1="4950.45" y1="1189.01" x2="5015.25" y2="1189.01" style="stroke:#F0F0F0;stroke-width:9.72"/>
	<line x1="5047.65" y1="1189.01" x2="5112.45" y2="1189.01" style="stroke:#F0F0F0;stroke-width:9.72"/>
	<line x1="5144.85" y1="1189.01" x2="5209.65" y2="1189.01" style="stroke:#F0F0F0;stroke-width:9.72"/>
	<line x1="5242.05" y1="1189.01" x2="5286.60" y2="1189.01" style="stroke:#F0F0F0;stroke-width:9.72"/>
	<line x1="576.45" y1="686.81" x2="641.25" y2="686.81" style="stroke:#F0F0F0;stroke-width:9.72"/>
	<line x1="673.65" y1="686.81" x2="738.45" y2="686.81" style="stroke:#F0F0F0;stroke-width:9.72"/>
	<line x1="770.85" y1="686.81" x2="835.65" y2="686.81" style="stroke:#F0F0F0;stroke-width:9.72"/>
	<line x1="868.05" y1="686.81" x2="932.85" y2="686.81" style="stroke:#F0F0F0;stroke-width:9.72"/>
	<line x1="965.25" y1="686.81" x2="1030.05" y2="686.81" style="stroke:#F0F0F0;stroke-width:9.72"/>
	<line x1="1062.45" y1="686.81" x2="1127.25" y2="686.81" style="stroke:#F0F0F0;stroke-width:9.72"/>
	<line x1="1159.65" y1="686.81" x2="1224.45" y2="686.81" style="stroke:#F0F0F0;stroke-width:9.72"/>
	<line x1="1256.85" y1="686.81" x2="1321.65" y2="686.81" style="stroke:#F0F0F0;stroke-width:9.72"/>
	<line x1="1354.05" y1="686.81" x2="1418.85" y2="686.81" style="stroke:#F0F0F0;stroke-width:9.72"/>
	<line x1="1451.25" y1="686.81" x2="1516.05" y2="686.81" style="stroke:#F0F0F0;stroke-width:9.72"/>
	<line x1="1548.45" y1="686.81" x2="1613.25" y2="686.81" style="stroke:#F0F0F0;stroke-width:9.72"/>
	<line x1="1645.65" y1="686.81" x2="1710.45" y2="686.81" style="stroke:#F0F0F0;stroke-width:9.72"/>
	<line x1="1742.85" y1="686.81" x2="1807.65" y2="686.81" style="stroke:#F0F0F0;stroke-width:9.72"/>
	<line x1="1840.05" y1="686.81" x2="1904.85" y2="686.81" style="stroke:#F0F0F0;stroke-width:9.72"/>
	<line x1="1937.25" y1="686.81" x2="2002.05" y2="686.81" style="stroke:#F0F0F0;stroke-width:9.72"/>
	<line x1="2034.45" y1="686.81" x2="2099.25" y2="686.81" style="stroke:#F0F0F0;stroke-width:9.72"/>
	<line x1="2131.65" y1="686.81" x2="2196.45" y2="686.81" style="stroke:#F0F0F0;stroke-width:9.72"/>
	<line x1="2228.85" y1="686.81" x2="2293.65" y2="686.81" style="stroke:#F0F0F0;stroke-width:9.72"/>
	<line x1="2326.05" y1="686.81" x2="2390.85" y2="686.81" style="stroke:#F0F0F0;stroke-width:9.72"/>
	<line x1="2423.25" y1="686.81" x2="2488.05" y2="686.81" style="stroke:#F0F0F0;stroke-width:9.72"/>
	<line x1="2520.45" y1="686.81" x2="2585.25" y2="686.81" style="stroke:#F0F0F0;stroke-width:9.72"/>
	<line x1="2617.65" y1="686.81" x2="2682.45" y2="686.81" style="stroke:#F0F0F0;stroke-width:9.72"/>
	<line x1="2714.85" y1="686.81" x2="2779.65" y2="686.81" style="stroke:#F0F0F0;stroke-width:9.72"/>
	<line x1="2812.05" y1="686.81" x2="2876.85" y2="686.81" style="stroke:#F0F0F0;stroke-width:9.72"/>
	<line x1="2909.25" y1="686.81" x2="2974.05" y2="686.81" style="stroke:#F0F0F0;stroke-width:9.72"/>
	<line x1="3006.45" y1="686.81" x2="3071.25" y2="686.81" style="stroke:#F0F0F0;stroke-width:9.72"/>
	<line x1="3103.65" y1="686.81" x2="3168.45" y2="686.81" style="stroke:#F0F0F0;stroke-width:9.72"/>
	<line x1="3200.85" y1="686.81" x2="3265.65" y2="686.81" style="stroke:#F0F0F0;stroke-width:9.72"/>
	<line x1="3298.05" y1="686.81" x2="3362.85" y2="686.81" style="stroke:#F0F0F0;stroke-width:9.72"/>
	<line x1="3395.25" y1="686.81" x2="3460.05" y2="686.81" style="stroke:#F0F0F0;stroke-width:9.72"/>
	<line x1="3492.45" y1="686.81" x2="3557.25" y2="686.81" style="stroke:#F0F0F0;stroke-width:9.72"/>
	<line x1="3589.65" y1="686.81" x2="3654.45" y2="686.81" style="stroke:#F0F0F0;stroke-width:9.72"/>
	<line x1="3686.85" y1="686.81" x2="3751.65" y2="686.81" style="stroke:#F0F0F0;stroke-width:9.72"/>
	<line x1="3784.05" y1="686.81" x2="3848.85" y2="686.81" style="stroke:#F0F0F0;stroke-width:9.72"/>
	<line x1="3881.25" y1="686.81" x2="3946.05" y2="686.81" style="stroke:#F0F0F0;stroke-width:9.72"/>
	<line x1="3978.45" y1="686.81" x2="4043.25" y2="686.81" style="stroke:#F0F0F0;stroke-width:9.72"/>
	<line x1="4075.65" y1="686.81" x2="4140.45" y2="686.81" style="stroke:#F0F0F0;stroke-width:9.72"/>
	<line x1="4172.85" y1="686.81" x2="4237.65" y2="686.81" style="stroke:#F0F0F0;stroke-width:9.72"/>
	<line x1="4270.05" y1="686.81" x2="4334.85" y2="686.81" style="stroke:#F0F0F0;stroke-width:9.72"/>
	<line x1="4367.25" y1="686.81" x2="4432.05" y2="686.81" style="stroke:#F0F0F0;stroke-width:9.72"/>
	<line x1="4464.45" y1="686.81" x2="4529.25" y2="686.81" style="stroke:#F0F0F0;stroke-width:9.72"/>
	<line x1="4561.65" y1="686.81" x2="4626.45" y2="686.81" style="stroke:#F0F0F0;stroke-width:9.72"/>
	<line x1="4658.85" y1="686.81" x2="4723.65" y2="686.81" style="stroke:#F0F0F0;stroke-width:9.72"/>
	<line x1="4756.05" y1="686.81" x2="4820.85" y2="686.81" style="stroke:#F0F0F0;stroke-width:9.72"/>
	<line x1="4853.25" y1="686.81" x2="4918.05" y2="686.81" style="stroke:#F0F0F0;stroke-width:9.72"/>
	<line x1="4950.45" y1="686.81" x2="5015.25" y2="686.81" style="stroke:#F0F0F0;stroke-width:9.72"/>
	<line x1="5047.65" y1="686.81" x2="5112.45" y2="686.81" style="stroke:#F0F0F0;stroke-width:9.72"/>
	<line x1="5144.85" y1="686.81" x2="5209.65" y2="686.81" style="stroke:#F0F0F0;stroke-width:9.72"/>
	<line x1="5242.05" y1="686.81" x2="5286.60" y2="686.81" style="stroke:#F0F0F0;stroke-width:9.72"/>
	<line x1="576.45" y1="184.61" x2="641.25" y2="184.61" style="stroke:#F0F0F0;stroke-width:9.72"/>
	<line x1="673.65" y1="184.61" x2="738.45" y2="184.61" style="stroke:#F0F0F0;stroke-width:9.72"/>
	<line x1="770.85" y1="184.61" x2="835.65" y2="184.61" style="stroke:#F0F0F0;stroke-width:9.72"/>
	<line x1="868.05" y1="184.61" x2="932.85" y2="184.61" style="stroke:#F0F0F0;stroke-width:9.72"/>
	<line x1="965.25" y1="184.61" x2="1030.05" y2="184.61" style="stroke:#F0F0F0;stroke-width:9.72"/>
	<line x1="1062.45" y1="184.61" x2="1127.25" y2="184.61" style="stroke:#F0F0F0;stroke-width:9.72"/>
	<line x1="1159.65" y1="184.61" x2="1224.45" y2="184.61" style="stroke:#F0F0F0;stroke-width:9.72"/>
	<line x1="1256.85" y1="184.61" x2="1321.65" y2="184.61" style="stroke:#F0F0F0;stroke-width:9.72"/>
	<line x1="1354.05" y1="184.61" x2="1418.85" y2="184.61" style="stroke:#F0F0F0;stroke-width:9.72"/>
	<line x1="1451.25" y1="184.61" x2="1516.05" y2="184.61" style="stroke:#F0F0F0;stroke-width:9.72"/>
	<line x1="1548.45" y1="184.61" x2="1613.25" y2="184.61" style="stroke:#F0F0F0;stroke-width:9.72"/>
	<line x1="1645.65" y1="184.61" x2="1710.45" y2="184.61" style="stroke:#F0F0F0;stroke-width:9.72"/>
	<line x1="1742.85" y1="184.61" x2="1807.65" y2="184.61" style="stroke:#F0F0F0;stroke-width:9.72"/>
	<line x1="1840.05" y1="184.61" x2="1904.85" y2="184.61" style="stroke:#F0F0F0;stroke-width:9.72"/>
	<line x1="1937.25" y1="184.61" x2="2002.05" y2="184.61" style="stroke:#F0F0F0;stroke-width:9.72"/>
	<line x1="2034.45" y1="184.61" x2="2099.25" y2="184.61" style="stroke:#F0F0F0;stroke-width:9.72"/>
	<line x1="2131.65" y1="184.61" x2="2196.45" y2="184.61" style="stroke:#F0F0F0;stroke-width:9.72"/>
	<line x1="2228.85" y1="184.61" x2="2293.65" y2="184.61" style="stroke:#F0F0F0;stroke-width:9.72"/>
	<line x1="2326.05" y1="184.61" x2="2390.85" y2="184.61" style="stroke:#F0F0F0;stroke-width:9.72"/>
	<line x1="2423.25" y1="184.61" x2="2488.05" y2="184.61" style="stroke:#F0F0F0;stroke-width:9.72"/>
	<line x1="2520.45" y1="184.61" x2="2585.25" y2="184.61" style="stroke:#F0F0F0;stroke-width:9.72"/>
	<line x1="2617.65" y1="184.61" x2="2682.45" y2="184.61" style="stroke:#F0F0F0;stroke-width:9.72"/>
	<line x1="2714.85" y1="184.61" x2="2779.65" y2="184.61" style="stroke:#F0F0F0;stroke-width:9.72"/>
	<line x1="2812.05" y1="184.61" x2="2876.85" y2="184.61" style="stroke:#F0F0F0;stroke-width:9.72"/>
	<line x1="2909.25" y1="184.61" x2="2974.05" y2="184.61" style="stroke:#F0F0F0;stroke-width:9.72"/>
	<line x1="3006.45" y1="184.61" x2="3071.25" y2="184.61" style="stroke:#F0F0F0;stroke-width:9.72"/>
	<line x1="3103.65" y1="184.61" x2="3168.45" y2="184.61" style="stroke:#F0F0F0;stroke-width:9.72"/>
	<line x1="3200.85" y1="184.61" x2="3265.65" y2="184.61" style="stroke:#F0F0F0;stroke-width:9.72"/>
	<line x1="3298.05" y1="184.61" x2="3362.85" y2="184.61" style="stroke:#F0F0F0;stroke-width:9.72"/>
	<line x1="3395.25" y1="184.61" x2="3460.05" y2="184.61" style="stroke:#F0F0F0;stroke-width:9.72"/>
	<line x1="3492.45" y1="184.61" x2="3557.25" y2="184.61" style="stroke:#F0F0F0;stroke-width:9.72"/>
	<line x1="3589.65" y1="184.61" x2="3654.45" y2="184.61" style="stroke:#F0F0F0;stroke-width:9.72"/>
	<line x1="3686.85" y1="184.61" x2="3751.65" y2="184.61" style="stroke:#F0F0F0;stroke-width:9.72"/>
	<line x1="3784.05" y1="184.61" x2="3848.85" y2="184.61" style="stroke:#F0F0F0;stroke-width:9.72"/>
	<line x1="3881.25" y1="184.61" x2="3946.05" y2="184.61" style="stroke:#F0F0F0;stroke-width:9.72"/>
	<line x1="3978.45" y1="184.61" x2="4043.25" y2="184.61" style="stroke:#F0F0F0;stroke-width:9.72"/>
	<line x1="4075.65" y1="184.61" x2="4140.45" y2="184.61" style="stroke:#F0F0F0;stroke-width:9.72"/>
	<line x1="4172.85" y1="184.61" x2="4237.65" y2="184.61" style="stroke:#F0F0F0;stroke-width:9.72"/>
	<line x1="4270.05" y1="184.61" x2="4334.85" y2="184.61" style="stroke:#F0F0F0;stroke-width:9.72"/>
	<line x1="4367.25" y1="184.61" x2="4432.05" y2="184.61" style="stroke:#F0F0F0;stroke-width:9.72"/>
	<line x1="4464.45" y1="184.61" x2="4529.25" y2="184.61" style="stroke:#F0F0F0;stroke-width:9.72"/>
	<line x1="4561.65" y1="184.61" x2="4626.45" y2="184.61" style="stroke:#F0F0F0;stroke-width:9.72"/>
	<line x1="4658.85" y1="184.61" x2="4723.65" y2="184.61" style="stroke:#F0F0F0;stroke-width:9.72"/>
	<line x1="4756.05" y1="184.61" x2="4820.85" y2="184.61" style="stroke:#F0F0F0;stroke-width:9.72"/>
	<line x1="4853.25" y1="184.61" x2="4918.05" y2="184.61" style="stroke:#F0F0F0;stroke-width:9.72"/>
	<line x1="4950.45" y1="184.61" x2="5015.25" y2="184.61" style="stroke:#F0F0F0;stroke-width:9.72"/>
	<line x1="5047.65" y1="184.61" x2="5112.45" y2="184.61" style="stroke:#F0F0F0;stroke-width:9.72"/>
	<line x1="5144.85" y1="184.61" x2="5209.65" y2="184.61" style="stroke:#F0F0F0;stroke-width:9.72"/>
	<line x1="5242.05" y1="184.61" x2="5286.60" y2="184.61" style="stroke:#F0F0F0;stroke-width:9.72"/>
	<line x1="647.83" y1="2766.66" x2="647.83" y2="2701.86" style="stroke:#F0F0F0;stroke-width:9.72"/>
	<line x1="647.83" y1="2669.46" x2="647.83" y2="2604.66" style="stroke:#F0F0F0;stroke-width:9.72"/>
	<line x1="647.83" y1="2572.26" x2="647.83" y2="2507.46" style="stroke:#F0F0F0;stroke-width:9.72"/>
	<line x1="647.83" y1="2475.06" x2="647.83" y2="2410.26" style="stroke:#F0F0F0;stroke-width:9.72"/>
	<line x1="647.83" y1="2377.86" x2="647.83" y2="2313.06" style="stroke:#F0F0F0;stroke-width:9.72"/>
	<line x1="647.83" y1="2280.66" x2="647.83" y2="2215.86" style="stroke:#F0F0F0;stroke-width:9.72"/>
	<line x1="647.83" y1="2183.46" x2="647.83" y2="2118.66" style="stroke:#F0F0F0;stroke-width:9.72"/>
	<line x1="647.83" y1="2086.26" x2="647.83" y2="2021.46" style="stroke:#F0F0F0;stroke-width:9.72"/>
	<line x1="647.83" y1="1989.06" x2="647.83" y2="1924.26" style="stroke:#F0F0F0;stroke-width:9.72"/>
	<line x1="647.83" y1="1891.86" x2="647.83" y2="1827.06" style="stroke:#F0F0F0;stroke-width:9.72"/>
	<line x1="647.83" y1="1794.66" x2="647.83" y2="1729.86" style="stroke:#F0F0F0;stroke-width:9.72"/>
	<line x1="647.83" y1="1697.46" x2="647.83" y2="1632.66" style="stroke:#F0F0F0;stroke-width:9.72"/>
	<line x1="647.83" y1="1600.26" x2="647.83" y2="1535.46" style="stroke:#F0F0F0;stroke-width:9.72"/>
	<line x1="647.83" y1="1503.06" x2="647.83" y2="1438.26" style="stroke:#F0F0F0;stroke-width:9.72"/>
	<line x1="647.83" y1="1405.86" x2="647.83" y2="1341.06" style="stroke:#F0F0F0;stroke-width:9.72"/>
	<line x1="647.83" y1="1308.66" x2="647.83" y2="1243.86" style="stroke:#F0F0F0;stroke-width:9.72"/>
	<line x1="647.83" y1="1211.46" x2="647.83" y2="1146.66" style="stroke:#F0F0F0;stroke-width:9.72"/>
	<line x1="647.83" y1="1114.26" x2="647.83" y2="1049.46" style="stroke:#F0F0F0;stroke-width:9.72"/>
	<line x1="647.83" y1="1017.06" x2="647.83" y2="952.26" style="stroke:#F0F0F0;stroke-width:9.72"/>
	<line x1="647.83" y1="919.86" x2="647.83" y2="855.06" style="stroke:#F0F0F0;stroke-width:9.72"/>
	<line x1="647.83" y1="822.66" x2="647.83" y2="757.86" style="stroke:#F0F0F0;stroke-width:9.72"/>
	<line x1="647.83" y1="725.46" x2="647.83" y2="660.66" style="stroke:#F0F0F0;stroke-width:9.72"/>
	<line x1="647.83" y1="628.26" x2="647.83" y2="563.46" style="stroke:#F0F0F0;stroke-width:9.72"/>
	<line x1="647.83" y1="531.06" x2="647.83" y2="466.26" style="stroke:#F0F0F0;stroke-width:9.72"/>
	<line x1="647.83" y1="433.86" x2="647.83" y2="369.06" style="stroke:#F0F0F0;stroke-width:9.72"/>
	<line x1="647.83" y1="336.66" x2="647.83" y2="271.86" style="stroke:#F0F0F0;stroke-width:9.72"/>
	<line x1="647.83" y1="239.46" x2="647.83" y2="174.66" style="stroke:#F0F0F0;stroke-width:9.72"/>
	<line x1="647.83" y1="142.26" x2="647.83" y2="113.40" style="stroke:#F0F0F0;stroke-width:9.72"/>
	<line x1="1561.28" y1="2766.66" x2="1561.28" y2="2701.86" style="stroke:#F0F0F0;stroke-width:9.72"/>
	<line x1="1561.28" y1="2669.46" x2="1561.28" y2="2604.66" style="stroke:#F0F0F0;stroke-width:9.72"/>
	<line x1="1561.28" y1="2572.26" x2="1561.28" y2="2507.46" style="stroke:#F0F0F0;stroke-width:9.72"/>
	<line x1="1561.28" y1="2475.06" x2="1561.28" y2="2410.26" style="stroke:#F0F0F0;stroke-width:9.72"/>
	<line x1="1561.28" y1="2377.86" x2="1561.28" y2="2313.06" style="stroke:#F0F0F0;stroke-width:9.72"/>
	<line x1="1561.28" y1="2280.66" x2="1561.28" y2="2215.86" style="stroke:#F0F0F0;stroke-width:9.72"/>
	<line x1="1561.28" y1="2183.46" x2="1561.28" y2="2118.66" style="stroke:#F0F0F0;stroke-width:9.72"/>
	<line x1="1561.28" y1="2086.26" x2="1561.28" y2="2021.46" style="stroke:#F0F0F0;stroke-width:9.72"/>
	<line x1="1561.28" y1="1989.06" x2="1561.28" y2="1924.26" style="stroke:#F0F0F0;stroke-width:9.72"/>
	<line x1="1561.28" y1="1891.86" x2="1561.28" y2="1827.06" style="stroke:#F0F0F0;stroke-width:9.72"/>
	<line x1="1561.28" y1="1794.66" x2="1561.28" y2="1729.86" style="stroke:#F0F0F0;stroke-width:9.72"/>
	<line x1="1561.28" y1="1697.46" x2="1561.28" y2="1632.66" style="stroke:#F0F0F0;stroke-width:9.72"/>
	<line x1="1561.28" y1="1600.26" x2="1561.28" y2="1535.46" style="stroke:#F0F0F0;stroke-width:9.72"/>
	<line x1="1561.28" y1="1503.06" x2="1561.28" y2="1438.26" style="stroke:#F0F0F0;stroke-width:9.72"/>
	<line x1="1561.28" y1="1405.86" x2="1561.28" y2="1341.06" style="stroke:#F0F0F0;stroke-width:9.72"/>
	<line x1="1561.28" y1="1308.66" x2="1561.28" y2="1243.86" style="stroke:#F0F0F0;stroke-width:9.72"/>
	<line x1="1561.28" y1="1211.46" x2="1561.28" y2="1146.66" style="stroke:#F0F0F0;stroke-width:9.72"/>
	<line x1="1561.28" y1="1114.26" x2="1561.28" y2="1049.46" style="stroke:#F0F0F0;stroke-width:9.72"/>
	<line x1="1561.28" y1="1017.06" x2="1561.28" y2="952.26" style="stroke:#F0F0F0;stroke-width:9.72"/>
	<line x1="1561.28" y1="919.86" x2="1561.28" y2="855.06" style="stroke:#F0F0F0;stroke-width:9.72"/>
	<line x1="1561.28" y1="822.66" x2="1561.28" y2="757.86" style="stroke:#F0F0F0;stroke-width:9.72"/>
	<line x1="1561.28" y1="725.46" x2="1561.28" y2="660.66" style="stroke:#F0F0F0;stroke-width:9.72"/>
	<line x1="1561.28" y1="628.26" x2="1561.28" y2="563.46" style="stroke:#F0F0F0;stroke-width:9.72"/>
	<line x1="1561.28" y1="531.06" x2="1561.28" y2="466.26" style="stroke:#F0F0F0;stroke-width:9.72"/>
	<line x1="1561.28" y1="433.86" x2="1561.28" y2="369.06" style="stroke:#F0F0F0;stroke-width:9.72"/>
	<line x1="1561.28" y1="336.66" x2="1561.28" y2="271.86" style="stroke:#F0F0F0;stroke-width:9.72"/>
	<line x1="1561.28" y1="239.46" x2="1561.28" y2="174.66" style="stroke:#F0F0F0;stroke-width:9.72"/>
	<line x1="1561.28" y1="142.26" x2="1561.28" y2="113.40" style="stroke:#F0F0F0;stroke-width:9.72"/>
	<line x1="2474.89" y1="2766.66" x2="2474.89" y2="2701.86" style="stroke:#F0F0F0;stroke-width:9.72"/>
	<line x1="2474.89" y1="2669.46" x2="2474.89" y2="2604.66" style="stroke:#F0F0F0;stroke-width:9.72"/>
	<line x1="2474.89" y1="2572.26" x2="2474.89" y2="2507.46" style="stroke:#F0F0F0;stroke-width:9.72"/>
	<line x1="2474.89" y1="2475.06" x2="2474.89" y2="2410.26" style="stroke:#F0F0F0;stroke-width:9.72"/>
	<line x1="2474.89" y1="2377.86" x2="2474.89" y2="2313.06" style="stroke:#F0F0F0;stroke-width:9.72"/>
	<line x1="2474.89" y1="2280.66" x2="2474.89" y2="2215.86" style="stroke:#F0F0F0;stroke-width:9.72"/>
	<line x1="2474.89" y1="2183.46" x2="2474.89" y2="2118.66" style="stroke:#F0F0F0;stroke-width:9.72"/>
	<line x1="2474.89" y1="2086.26" x2="2474.89" y2="2021.46" style="stroke:#F0F0F0;stroke-width:9.72"/>
	<line x1="2474.89" y1="1989.06" x2="2474.89" y2="1924.26" style="stroke:#F0F0F0;stroke-width:9.72"/>
	<line x1="2474.89" y1="1891.86" x2="2474.89" y2="1827.06" style="stroke:#F0F0F0;stroke-width:9.72"/>
	<line x1="2474.89" y1="1794.66" x2="2474.89" y2="1729.86" style="stroke:#F0F0F0;stroke-width:9.72"/>
	<line x1="2474.89" y1="1697.46" x2="2474.89" y2="1632.66" style="stroke:#F0F0F0;stroke-width:9.72"/>
	<line x1="2474.89" y1="1600.26" x2="2474.89" y2="1535.46" style="stroke:#F0F0F0;stroke-width:9.72"/>
	<line x1="2474.89" y1="1503.06" x2="2474.89" y2="1438.26" style="stroke:#F0F0F0;stroke-width:9.72"/>
	<line x1="2474.89" y1="1405.86" x2="2474.89" y2="1341.06" style="stroke:#F0F0F0;stroke-width:9.72"/>
	<line x1="2474.89" y1="1308.66" x2="2474.89" y2="1243.86" style="stroke:#F0F0F0;stroke-width:9.72"/>
	<line x1="2474.89" y1="1211.46" x2="2474.89" y2="1146.66" style="stroke:#F0F0F0;stroke-width:9.72"/>
	<line x1="2474.89" y1="1114.26" x2="2474.89" y2="1049.46" style="stroke:#F0F0F0;stroke-width:9.72"/>
	<line x1="2474.89" y1="1017.06" x2="2474.89" y2="952.26" style="stroke:#F0F0F0;stroke-width:9.72"/>
	<line x1="2474.89" y1="919.86" x2="2474.89" y2="855.06" style="stroke:#F0F0F0;stroke-width:9.72"/>
	<line x1="2474.89" y1="822.66" x2="2474.89" y2="757.86" style="stroke:#F0F0F0;stroke-width:9.72"/>
	<line x1="2474.89" y1="725.46" x2="2474.89" y2="660.66" style="stroke:#F0F0F0;stroke-width:9.72"/>
	<line x1="2474.89" y1="628.26" x2="2474.89" y2="563.46" style="stroke:#F0F0F0;stroke-width:9.72"/>
	<line x1="2474.89" y1="531.06" x2="2474.89" y2="466.26" style="stroke:#F0F0F0;stroke-width:9.72"/>
	<line x1="2474.89" y1="433.86" x2="2474.89" y2="369.06" style="stroke:#F0F0F0;stroke-width:9.72"/>
	<line x1="2474.89" y1="336.66" x2="2474.89" y2="271.86" style="stroke:#F0F0F0;stroke-width:9.72"/>
	<line x1="2474.89" y1="239.46" x2="2474.89" y2="174.66" style="stroke:#F0F0F0;stroke-width:9.72"/>
	<line x1="2474.89" y1="142.26" x2="2474.89" y2="113.40" style="stroke:#F0F0F0;stroke-width:9.72"/>
	<line x1="3388.33" y1="2766.66" x2="3388.33" y2="2701.86" style="stroke:#F0F0F0;stroke-width:9.72"/>
	<line x1="3388.33" y1="2669.46" x2="3388.33" y2="2604.66" style="stroke:#F0F0F0;stroke-width:9.72"/>
	<line x1="3388.33" y1="2572.26" x2="3388.33" y2="2507.46" style="stroke:#F0F0F0;stroke-width:9.72"/>
	<line x1="3388.33" y1="2475.06" x2="3388.33" y2="2410.26" style="stroke:#F0F0F0;stroke-width:9.72"/>
	<line x1="3388.33" y1="2377.86" x2="3388.33" y2="2313.06" style="stroke:#F0F0F0;stroke-width:9.72"/>
	<line x1="3388.33" y1="2280.66" x2="3388.33" y2="2215.86" style="stroke:#F0F0F0;stroke-width:9.72"/>
	<line x1="3388.33" y1="2183.46" x2="3388.33" y2="2118.66" style="stroke:#F0F0F0;stroke-width:9.72"/>
	<line x1="3388.33" y1="2086.26" x2="3388.33" y2="2021.46" style="stroke:#F0F0F0;stroke-width:9.72"/>
	<line x1="3388.33" y1="1989.06" x2="3388.33" y2="1924.26" style="stroke:#F0F0F0;stroke-width:9.72"/>
	<line x1="3388.33" y1="1891.86" x2="3388.33" y2="1827.06" style="stroke:#F0F0F0;stroke-width:9.72"/>
	<line x1="3388.33" y1="1794.66" x2="3388.33" y2="1729.86" style="stroke:#F0F0F0;stroke-width:9.72"/>
	<line x1="3388.33" y1="1697.46" x2="3388.33" y2="1632.66" style="stroke:#F0F0F0;stroke-width:9.72"/>
	<line x1="3388.33" y1="1600.26" x2="3388.33" y2="1535.46" style="stroke:#F0F0F0;stroke-width:9.72"/>
	<line x1="3388.33" y1="1503.06" x2="3388.33" y2="1438.26" style="stroke:#F0F0F0;stroke-width:9.72"/>
	<line x1="3388.33" y1="1405.86" x2="3388.33" y2="1341.06" style="stroke:#F0F0F0;stroke-width:9.72"/>
	<line x1="3388.33" y1="1308.66" x2="3388.33" y2="1243.86" style="stroke:#F0F0F0;stroke-width:9.72"/>
	<line x1="3388.33" y1="1211.46" x2="3388.33" y2="1146.66" style="stroke:#F0F0F0;stroke-width:9.72"/>
	<line x1="3388.33" y1="1114.26" x2="3388.33" y2="1049.46" style="stroke:#F0F0F0;stroke-width:9.72"/>
	<line x1="3388.33" y1="1017.06" x2="3388.33" y2="952.26" style="stroke:#F0F0F0;stroke-width:9.72"/>
	<line x1="3388.33" y1="919.86" x2="3388.33" y2="855.06" style="stroke:#F0F0F0;stroke-width:9.72"/>
	<line x1="3388.33" y1="822.66" x2="3388.33" y2="757.86" style="stroke:#F0F0F0;stroke-width:9.72"/>
	<line x1="3388.33" y1="725.46" x2="3388.33" y2="660.66" style="stroke:#F0F0F0;stroke-width:9.72"/>
	<line x1="3388.33" y1="628.26" x2="3388.33" y2="563.46" style="stroke:#F0F0F0;stroke-width:9.72"/>
	<line x1="3388.33" y1="531.06" x2="3388.33" y2="466.26" style="stroke:#F0F0F0;stroke-width:9.72"/>
	<line x1="3388.33" y1="433.86" x2="3388.33" y2="369.06" style="stroke:#F0F0F0;stroke-width:9.72"/>
	<line x1="3388.33" y1="336.66" x2="3388.33" y2="271.86" style="stroke:#F0F0F0;stroke-width:9.72"/>
	<line x1="3388.33" y1="239.46" x2="3388.33" y2="174.66" style="stroke:#F0F0F0;stroke-width:9.72"/>
	<line x1="3388.33" y1="142.26" x2="3388.33" y2="113.40" style="stroke:#F0F0F0;stroke-width:9.72"/>
	<line x1="4301.77" y1="2766.66" x2="4301.77" y2="2701.86" style="stroke:#F0F0F0;stroke-width:9.72"/>
	<line x1="4301.77" y1="2669.46" x2="4301.77" y2="2604.66" style="stroke:#F0F0F0;stroke-width:9.72"/>
	<line x1="4301.77" y1="2572.26" x2="4301.77" y2="2507.46" style="stroke:#F0F0F0;stroke-width:9.72"/>
	<line x1="4301.77" y1="2475.06" x2="4301.77" y2="2410.26" style="stroke:#F0F0F0;stroke-width:9.72"/>
	<line x1="4301.77" y1="2377.86" x2="4301.77" y2="2313.06" style="stroke:#F0F0F0;stroke-width:9.72"/>
	<line x1="4301.77" y1="2280.66" x2="4301.77" y2="2215.86" style="stroke:#F0F0F0;stroke-width:9.72"/>
	<line x1="4301.77" y1="2183.46" x2="4301.77" y2="2118.66" style="stroke:#F0F0F0;stroke-width:9.72"/>
	<line x1="4301.77" y1="2086.26" x2="4301.77" y2="2021.46" style="stroke:#F0F0F0;stroke-width:9.72"/>
	<line x1="4301.77" y1="1989.06" x2="4301.77" y2="1924.26" style="stroke:#F0F0F0;stroke-width:9.72"/>
	<line x1="4301.77" y1="1891.86" x2="4301.77" y2="1827.06" style="stroke:#F0F0F0;stroke-width:9.72"/>
	<line x1="4301.77" y1="1794.66" x2="4301.77" y2="1729.86" style="stroke:#F0F0F0;stroke-width:9.72"/>
	<line x1="4301.77" y1="1697.46" x2="4301.77" y2="1632.66" style="stroke:#F0F0F0;stroke-width:9.72"/>
	<line x1="4301.77" y1="1600.26" x2="4301.77" y2="1535.46" style="stroke:#F0F0F0;stroke-width:9.72"/>
	<line x1="4301.77" y1="1503.06" x2="4301.77" y2="1438.26" style="stroke:#F0F0F0;stroke-width:9.72"/>
	<line x1="4301.77" y1="1405.86" x2="4301.77" y2="1341.06" style="stroke:#F0F0F0;stroke-width:9.72"/>
	<line x1="4301.77" y1="1308.66" x2="4301.77" y2="1243.86" style="stroke:#F0F0F0;stroke-width:9.72"/>
	<line x1="4301.77" y1="1211.46" x2="4301.77" y2="1146.66" style="stroke:#F0F0F0;stroke-width:9.72"/>
	<line x1="4301.77" y1="1114.26" x2="4301.77" y2="1049.46" style="stroke:#F0F0F0;stroke-width:9.72"/>
	<line x1="4301.77" y1="1017.06" x2="4301.77" y2="952.26" style="stroke:#F0F0F0;stroke-width:9.72"/>
	<line x1="4301.77" y1="919.86" x2="4301.77" y2="855.06" style="stroke:#F0F0F0;stroke-width:9.72"/>
	<line x1="4301.77" y1="822.66" x2="4301.77" y2="757.86" style="stroke:#F0F0F0;stroke-width:9.72"/>
	<line x1="4301.77" y1="725.46" x2="4301.77" y2="660.66" style="stroke:#F0F0F0;stroke-width:9.72"/>
	<line x1="4301.77" y1="628.26" x2="4301.77" y2="563.46" style="stroke:#F0F0F0;stroke-width:9.72"/>
	<line x1="4301.77" y1="531.06" x2="4301.77" y2="466.26" style="stroke:#F0F0F0;stroke-width:9.72"/>
	<line x1="4301.77" y1="433.86" x2="4301.77" y2="369.06" style="stroke:#F0F0F0;stroke-width:9.72"/>
	<line x1="4301.77" y1="336.66" x2="4301.77" y2="271.86" style="stroke:#F0F0F0;stroke-width:9.72"/>
	<line x1="4301.77" y1="239.46" x2="4301.77" y2="174.66" style="stroke:#F0F0F0;stroke-width:9.72"/>
	<line x1="4301.77" y1="142.26" x2="4301.77" y2="113.40" style="stroke:#F0F0F0;stroke-width:9.72"/>
	<line x1="5215.39" y1="2766.66" x2="5215.39" y2="2701.86" style="stroke:#F0F0F0;stroke-width:9.72"/>
	<line x1="5215.39" y1="2669.46" x2="5215.39" y2="2604.66" style="stroke:#F0F0F0;stroke-width:9.72"/>
	<line x1="5215.39" y1="2572.26" x2="5215.39" y2="2507.46" style="stroke:#F0F0F0;stroke-width:9.72"/>
	<line x1="5215.39" y1="2475.06" x2="5215.39" y2="2410.26" style="stroke:#F0F0F0;stroke-width:9.72"/>
	<line x1="5215.39" y1="2377.86" x2="5215.39" y2="2313.06" style="stroke:#F0F0F0;stroke-width:9.72"/>
	<line x1="5215.39" y1="2280.66" x2="5215.39" y2="2215.86" style="stroke:#F0F0F0;stroke-width:9.72"/>
	<line x1="5215.39" y1="2183.46" x2="5215.39" y2="2118.66" style="stroke:#F0F0F0;stroke-width:9.72"/>
	<line x1="5215.39" y1="2086.26" x2="5215.39" y2="2021.46" style="stroke:#F0F0F0;stroke-width:9.72"/>
	<line x1="5215.39" y1="1989.06" x2="5215.39" y2="1924.26" style="stroke:#F0F0F0;stroke-width:9.72"/>
	<line x1="5215.39" y1="1891.86" x2="5215.39" y2="1827.06" style="stroke:#F0F0F0;stroke-width:9.72"/>
	<line x1="5215.39" y1="1794.66" x2="5215.39" y2="1729.86" style="stroke:#F0F0F0;stroke-width:9.72"/>
	<line x1="5215.39" y1="1697.46" x2="5215.39" y2="1632.66" style="stroke:#F0F0F0;stroke-width:9.72"/>
	<line x1="5215.39" y1="1600.26" x2="5215.39" y2="1535.46" style="stroke:#F0F0F0;stroke-width:9.72"/>
	<line x1="5215.39" y1="1503.06" x2="5215.39" y2="1438.26" style="stroke:#F0F0F0;stroke-width:9.72"/>
	<line x1="5215.39" y1="1405.86" x2="5215.39" y2="1341.06" style="stroke:#F0F0F0;stroke-width:9.72"/>
	<line x1="5215.39" y1="1308.66" x2="5215.39" y2="1243.86" style="stroke:#F0F0F0;stroke-width:9.72"/>
	<line x1="5215.39" y1="1211.46" x2="5215.39" y2="1146.66" style="stroke:#F0F0F0;stroke-width:9.72"/>
	<line x1="5215.39" y1="1114.26" x2="5215.39" y2="1049.46" style="stroke:#F0F0F0;stroke-width:9.72"/>
	<line x1="5215.39" y1="1017.06" x2="5215.39" y2="952.26" style="stroke:#F0F0F0;stroke-width:9.72"/>
	<line x1="5215.39" y1="919.86" x2="5215.39" y2="855.06" style="stroke:#F0F0F0;stroke-width:9.72"/>
	<line x1="5215.39" y1="822.66" x2="5215.39" y2="757.86" style="stroke:#F0F0F0;stroke-width:9.72"/>
	<line x1="5215.39" y1="725.46" x2="5215.39" y2="660.66" style="stroke:#F0F0F0;stroke-width:9.72"/>
	<line x1="5215.39" y1="628.26" x2="5215.39" y2="563.46" style="stroke:#F0F0F0;stroke-width:9.72"/>
	<line x1="5215.39" y1="531.06" x2="5215.39" y2="466.26" style="stroke:#F0F0F0;stroke-width:9.72"/>
	<line x1="5215.39" y1="433.86" x2="5215.39" y2="369.06" style="stroke:#F0F0F0;stroke-width:9.72"/>
	<line x1="5215.39" y1="336.66" x2="5215.39" y2="271.86" style="stroke:#F0F0F0;stroke-width:9.72"/>
	<line x1="5215.39" y1="239.46" x2="5215.39" y2="174.66" style="stroke:#F0F0F0;stroke-width:9.72"/>
	<line x1="5215.39" y1="142.26" x2="5215.39" y2="113.40" style="stroke:#F0F0F0;stroke-width:9.72"/>
	<defs>
		<path id="path_ANAogOca" d="M693.90 2685.32 L693.90 2685.32 L740.14 2641.11 L786.21 2559.60 L832.28 2448.90 L878.51 2320.14 L924.58 2183.63 L970.82 2047.44 L1016.89 1917.51 L1062.96 1796.18 L1109.19 1683.96 L1155.26 1580.34 L1201.50 1484.66 L1247.57 1396.07 L1293.64 1314.06 L1339.88 1238.12 L1385.94 1167.92 L1432.18 1103.63 L1478.25 1045.24 L1524.32 993.09 L1570.56 947.70 L1616.63 909.56 L1662.86 879.86 L1708.93 858.94 L1755.00 846.62 L1801.24 841.39 L1847.31 841.05 L1893.54 844.26 L1939.61 849.99 L1985.68 857.42 L2031.92 865.86 L2077.99 875.31 L2124.23 885.26 L2170.29 895.56 L2216.36 906.53 L2262.60 918.34 L2308.67 931.33 L2354.91 946.01 L2400.98 963.22 L2447.04 983.98 L2493.28 1007.61 L2539.35 1032.75 L2585.59 1058.74 L2631.66 1084.72 L2677.73 1109.87 L2723.96 1133.83 L2770.03 1156.11 L2816.27 1176.69 L2862.34 1195.43 L2908.41 1212.30 L2954.64 1227.15 L3000.71 1240.14 L3046.95 1251.28 L3093.02 1260.73 L3139.26 1268.49 L3185.33 1274.57 L3231.39 1279.46 L3277.63 1283.01 L3323.70 1285.71 L3369.94 1287.90 L3416.01 1290.60 L3462.08 1294.48 L3508.31 1299.21 L3554.38 1304.94 L3600.62 1311.53 L3646.69 1318.78 L3692.76 1326.88 L3738.99 1335.32 L3785.06 1344.26 L3831.30 1353.54 L3877.37 1362.99 L3923.44 1372.61 L3969.68 1382.23 L4015.74 1391.85 L4061.98 1401.47 L4108.05 1410.75 L4154.12 1420.03 L4200.36 1428.98 L4246.43 1437.75 L4292.66 1446.36 L4338.73 1454.63 L4384.80 1462.56 L4431.04 1470.32 L4477.11 1477.91 L4523.34 1485.17 L4569.41 1492.09 L4615.48 1498.67 L4661.72 1505.25 L4707.79 1511.33 L4754.02 1517.23 L4800.09 1522.97 L4846.16 1528.37 L4892.40 1533.43 L4938.47 1538.49 L4984.71 1543.05 L5030.77 1547.61 L5076.84 1551.83 L5123.08 1555.88 L5169.15 1559.76 L5215.39 1563.30 L5215.39 1094.34 L5169.15 1092.99 L5123.08 1091.64 L5076.84 1090.46 L5030.77 1089.28 L4984.71 1088.27 L4938.47 1087.26 L4892.40 1086.41 L4846.16 1085.57 L4800.09 1084.72 L4754.02 1084.05 L4707.79 1083.38 L4661.72 1082.87 L4615.48 1082.36 L4569.41 1081.86 L4523.34 1081.35 L4477.11 1081.01 L4431.04 1080.68 L4384.80 1080.34 L4338.73 1080.00 L4292.66 1079.66 L4246.43 1079.32 L4200.36 1078.82 L4154.12 1078.31 L4108.05 1077.64 L4061.98 1076.79 L4015.74 1075.78 L3969.68 1074.43 L3923.44 1072.74 L3877.37 1070.55 L3831.30 1067.68 L3785.06 1064.31 L3738.99 1060.09 L3692.76 1055.03 L3646.69 1048.78 L3600.62 1041.19 L3554.38 1032.41 L3508.31 1021.95 L3462.08 1010.14 L3416.01 996.47 L3369.94 981.11 L3323.70 964.41 L3277.63 946.69 L3231.39 928.46 L3185.33 910.07 L3139.26 891.68 L3093.02 873.45 L3046.95 855.39 L3000.71 837.68 L2954.64 820.46 L2908.41 803.59 L2862.34 787.22 L2816.27 771.36 L2770.03 755.49 L2723.96 739.97 L2677.73 724.11 L2631.66 707.74 L2585.59 690.02 L2539.35 670.61 L2493.28 648.17 L2447.04 622.01 L2400.98 591.47 L2354.91 558.90 L2308.67 526.33 L2262.60 494.94 L2216.36 466.09 L2170.29 440.44 L2124.23 419.18 L2077.99 402.64 L2031.92 391.33 L1985.68 385.76 L1939.61 386.10 L1893.54 392.18 L1847.31 403.65 L1801.24 420.36 L1755.00 440.94 L1708.93 464.06 L1662.86 488.19 L1616.63 513.34 L1570.56 541.35 L1524.32 574.26 L1478.25 613.74 L1432.18 661.50 L1385.94 718.71 L1339.88 786.71 L1293.64 866.36 L1247.57 957.99 L1201.50 1061.61 L1155.26 1176.53 L1109.19 1301.74 L1062.96 1435.05 L1016.89 1573.76 L970.82 1715.18 L924.58 1857.26 L878.51 1999.18 L832.28 2141.27 L786.21 2283.86 L740.14 2427.13 L693.90 2568.54 L693.90 2685.32 Z" stroke-linejoin="round"/>
	</defs>
	<defs>
		<clipPath id="clipPath_GYlHPWSf">
			<use xlink:href="#path_ANAogOca"/>
		</clipPath>
	</defs>
	<use xlink:href="#path_ANAogOca" style="stroke:none;fill:#FF3333;fill-opacity:0.30"/>
	<use xlink:href="#path_ANAogOca" style="fill:none;stroke:#FF0000;stroke-opacity:0.30;stroke-width:19.44" clip-path="url(#clipPath_GYlHPWSf)"/>
	<defs>
		<path id="path_LnfebMWN" d="M693.90 2672.66 L693.90 2672.66 L740.14 2617.31 L786.21 2545.76 L832.28 2470.33 L878.51 2398.11 L924.58 2332.29 L970.82 2273.23 L1016.89 2219.91 L1062.96 2170.63 L1109.19 2124.39 L1155.26 2079.84 L1201.50 2036.48 L1247.57 1993.61 L1293.64 1951.26 L1339.88 1909.07 L1385.94 1867.05 L1432.18 1825.37 L1478.25 1784.03 L1524.32 1743.53 L1570.56 1703.87 L1616.63 1665.73 L1662.86 1629.28 L1708.93 1595.36 L1755.00 1563.98 L1801.24 1534.95 L1847.31 1508.79 L1893.54 1485.34 L1939.61 1465.26 L1985.68 1448.89 L2031.92 1435.73 L2077.99 1425.43 L2124.23 1417.50 L2170.29 1411.59 L2216.36 1407.71 L2262.60 1405.52 L2308.67 1405.01 L2354.91 1406.19 L2400.98 1409.23 L2447.04 1413.79 L2493.28 1419.02 L2539.35 1424.25 L2585.59 1429.48 L2631.66 1434.54 L2677.73 1439.27 L2723.96 1443.66 L2770.03 1447.71 L2816.27 1451.42 L2862.34 1454.96 L2908.41 1458.34 L2954.64 1461.88 L3000.71 1465.43 L3046.95 1469.64 L3093.02 1474.54 L3139.26 1480.11 L3185.33 1486.18 L3231.39 1493.10 L3277.63 1500.53 L3323.70 1508.46 L3369.94 1517.06 L3416.01 1526.51 L3462.08 1536.98 L3508.31 1547.94 L3554.38 1559.59 L3600.62 1571.57 L3646.69 1583.72 L3692.76 1596.04 L3738.99 1608.36 L3785.06 1620.68 L3831.30 1632.99 L3877.37 1644.98 L3923.44 1656.79 L3969.68 1668.26 L4015.74 1679.57 L4061.98 1690.54 L4108.05 1701.17 L4154.12 1711.46 L4200.36 1721.42 L4246.43 1731.04 L4292.66 1740.32 L4338.73 1749.26 L4384.80 1757.87 L4431.04 1765.97 L4477.11 1773.90 L4523.34 1781.49 L4569.41 1788.58 L4615.48 1795.50 L4661.72 1802.08 L4707.79 1808.49 L4754.02 1814.40 L4800.09 1820.14 L4846.16 1825.54 L4892.40 1830.60 L4938.47 1835.49 L4984.71 1840.05 L5030.77 1844.44 L5076.84 1848.49 L5123.08 1852.37 L5169.15 1855.91 L5215.39 1859.29 L5215.39 506.93 L5169.15 512.32 L5123.08 517.89 L5076.84 523.63 L5030.77 529.88 L4984.71 536.12 L4938.47 542.87 L4892.40 549.79 L4846.16 557.04 L4800.09 564.47 L4754.02 572.23 L4707.79 580.16 L4661.72 588.60 L4615.48 597.04 L4569.41 605.81 L4523.34 614.93 L4477.11 624.21 L4431.04 633.82 L4384.80 643.61 L4338.73 653.57 L4292.66 663.69 L4246.43 674.16 L4200.36 684.62 L4154.12 695.25 L4108.05 705.88 L4061.98 716.68 L4015.74 727.48 L3969.68 738.11 L3923.44 748.74 L3877.37 759.38 L3831.30 769.50 L3785.06 779.46 L3738.99 789.07 L3692.76 798.02 L3646.69 806.46 L3600.62 814.05 L3554.38 820.63 L3508.31 826.03 L3462.08 830.25 L3416.01 832.78 L3369.94 833.63 L3323.70 832.44 L3277.63 829.07 L3231.39 823.67 L3185.33 816.07 L3139.26 806.12 L3093.02 793.97 L3046.95 779.46 L3000.71 762.92 L2954.64 745.88 L2908.41 728.83 L2862.34 712.46 L2816.27 696.94 L2770.03 682.59 L2723.96 669.60 L2677.73 658.13 L2631.66 648.51 L2585.59 640.57 L2539.35 634.50 L2493.28 630.28 L2447.04 627.41 L2400.98 626.40 L2354.91 627.92 L2308.67 632.81 L2262.60 641.42 L2216.36 653.74 L2170.29 670.11 L2124.23 690.36 L2077.99 714.49 L2031.92 742.16 L1985.68 773.04 L1939.61 806.46 L1893.54 841.72 L1847.31 876.99 L1801.24 911.08 L1755.00 944.49 L1708.93 977.57 L1662.86 1009.80 L1616.63 1041.36 L1570.56 1072.91 L1524.32 1105.31 L1478.25 1139.57 L1432.18 1176.02 L1385.94 1215.51 L1339.88 1258.71 L1293.64 1305.96 L1247.57 1357.43 L1201.50 1413.62 L1155.26 1474.37 L1109.19 1539.34 L1062.96 1607.68 L1016.89 1677.71 L970.82 1747.24 L924.58 1812.54 L878.51 1869.24 L832.28 1911.43 L786.21 1930.50 L740.14 1907.72 L693.90 1772.04 L693.90 2672.66 Z" stroke-linejoin="round"/>
	</defs>
	<defs>
		<clipPath id="clipPath_oRzsJJAm">
			<use xlink:href="#path_LnfebMWN"/>
		</clipPath>
	</defs>
	<use xlink:href="#path_LnfebMWN" style="stroke:none;fill:#3333FF;fill-opacity:0.30"/>
	<use xlink:href="#path_LnfebMWN" style="fill:none;stroke:#0000FF;stroke-opacity:0.30;stroke-width:19.44" clip-path="url(#clipPath_oRzsJJAm)"/>
	<path d=" M693.90 2659.67 L739.97 2574.79 L786.04 2459.03 L832.28 2325.88 L878.34 2184.30 L924.58 2040.53 L970.65 1898.61 L1016.72 1761.41 L1062.96 1630.80 L1109.03 1508.12 L1155.26 1394.21 L1201.33 1289.08 L1247.57 1193.06 L1293.64 1105.99 L1339.71 1027.69 L1385.94 957.82 L1432.01 896.23 L1478.25 842.06 L1524.32 795.32 L1570.39 755.16 L1616.63 721.41 L1662.69 693.56 L1708.93 671.12 L1755.00 653.91 L1801.07 641.59 L1847.31 633.99 L1893.38 630.62 L1939.61 631.13 L1985.68 635.18 L2031.75 642.43 L2077.99 652.56 L2124.06 665.55 L2170.29 680.91 L2216.36 698.46 L2262.43 718.03 L2308.67 739.29 L2354.74 762.24 L2400.98 786.38 L2447.04 811.69 L2493.11 836.66 L2539.35 860.63 L2585.42 883.91 L2631.66 906.19 L2677.73 927.62 L2723.79 948.04 L2770.03 967.44 L2816.10 986.01 L2862.34 1003.72 L2908.41 1020.43 L2954.48 1036.29 L3000.71 1051.31 L3046.78 1065.49 L3093.02 1078.65 L3139.09 1091.14 L3185.16 1102.78 L3231.39 1113.75 L3277.46 1123.88 L3323.70 1133.32 L3369.77 1142.10 L3415.84 1150.71 L3462.08 1158.97 L3508.14 1166.91 L3554.38 1174.84 L3600.45 1182.43 L3646.52 1189.86 L3692.76 1197.11 L3738.83 1204.20 L3785.06 1210.95 L3831.13 1217.70 L3877.20 1224.11 L3923.44 1230.36 L3969.51 1236.60 L4015.74 1242.51 L4061.81 1248.24 L4107.88 1253.98 L4154.12 1259.38 L4200.19 1264.61 L4246.43 1269.84 L4292.49 1274.91 L4338.56 1279.80 L4384.80 1284.53 L4430.87 1289.08 L4477.11 1293.47 L4523.18 1297.86 L4569.24 1302.08 L4615.48 1306.13 L4661.55 1310.01 L4707.79 1313.89 L4753.86 1317.60 L4799.93 1321.31 L4846.16 1324.86 L4892.23 1328.23 L4938.47 1331.44 L4984.54 1334.64 L5030.77 1337.68 L5076.84 1340.72 L5122.91 1343.59 L5169.15 1346.46 L5215.22 1349.16" stroke-linejoin="round" style="fill:none;stroke:#FF0000;stroke-width:9.72"/>
	<path d=" M693.90 2550.66 L739.97 2447.55 L786.04 2357.27 L832.28 2275.43 L878.34 2199.82 L924.58 2129.29 L970.65 2062.80 L1016.72 1999.86 L1062.96 1939.95 L1109.03 1883.08 L1155.26 1828.58 L1201.33 1776.43 L1247.57 1726.48 L1293.64 1678.56 L1339.71 1632.66 L1385.94 1588.28 L1432.01 1545.75 L1478.25 1504.74 L1524.32 1465.26 L1570.39 1427.12 L1616.63 1390.33 L1662.69 1355.06 L1708.93 1320.81 L1755.00 1288.07 L1801.07 1256.51 L1847.31 1226.47 L1893.38 1197.79 L1939.61 1171.13 L1985.68 1147.50 L2031.75 1126.91 L2077.99 1109.36 L2124.06 1094.85 L2170.29 1083.04 L2216.36 1074.09 L2262.43 1067.85 L2308.67 1064.14 L2354.74 1062.96 L2400.98 1064.14 L2447.04 1067.51 L2493.11 1071.90 L2539.35 1076.96 L2585.42 1082.70 L2631.66 1088.94 L2677.73 1095.86 L2723.79 1103.12 L2770.03 1110.71 L2816.10 1118.81 L2862.34 1127.25 L2908.41 1135.86 L2954.48 1144.63 L3000.71 1153.74 L3046.78 1163.03 L3093.02 1171.80 L3139.09 1180.24 L3185.16 1188.00 L3231.39 1195.43 L3277.46 1202.18 L3323.70 1208.42 L3369.77 1214.33 L3415.84 1220.06 L3462.08 1225.46 L3508.14 1230.86 L3554.38 1236.26 L3600.45 1241.33 L3646.52 1246.39 L3692.76 1251.28 L3738.83 1256.01 L3785.06 1260.56 L3831.13 1265.12 L3877.20 1269.34 L3923.44 1273.56 L3969.51 1277.61 L4015.74 1281.66 L4061.81 1285.37 L4107.88 1289.08 L4154.12 1292.63 L4200.19 1296.00 L4246.43 1299.38 L4292.49 1302.58 L4338.56 1305.62 L4384.80 1308.49 L4430.87 1311.36 L4477.11 1314.06 L4523.18 1316.59 L4569.24 1318.95 L4615.48 1321.31 L4661.55 1323.68 L4707.79 1325.70 L4753.86 1327.89 L4799.93 1329.75 L4846.16 1331.61 L4892.23 1333.29 L4938.47 1334.98 L4984.54 1336.50 L5030.77 1338.02 L5076.84 1339.37 L5122.91 1340.55 L5169.15 1341.73 L5215.22 1342.91" stroke-linejoin="round" style="fill:none;stroke:#0000FF;stroke-width:9.72"/>
	<line x1="576.45" y1="2766.66" x2="576.45" y2="113.40" style="stroke:#000000;stroke-width:6.48"/>
	<line x1="576.45" y1="2695.28" x2="531.56" y2="2695.28" style="stroke:#000000;stroke-width:6.48"/>
	<text x="508.95" y="2734.71" style="font-family:'Helvetica';font-size:112.56px;fill:#000000" text-anchor="end">0.0</text>
	<line x1="576.45" y1="2193.24" x2="531.56" y2="2193.24" style="stroke:#000000;stroke-width:6.48"/>
	<text x="508.95" y="2232.68" style="font-family:'Helvetica';font-size:112.56px;fill:#000000" text-anchor="end">20.0</text>
	<line x1="576.45" y1="1691.04" x2="531.56" y2="1691.04" style="stroke:#000000;stroke-width:6.48"/>
	<text x="508.95" y="1730.48" style="font-family:'Helvetica';font-size:112.56px;fill:#000000" text-anchor="end">40.0</text>
	<line x1="576.45" y1="1189.01" x2="531.56" y2="1189.01" style="stroke:#000000;stroke-width:6.48"/>
	<text x="508.95" y="1228.45" style="font-family:'Helvetica';font-size:112.56px;fill:#000000" text-anchor="end">60.0</text>
	<line x1="576.45" y1="686.81" x2="531.56" y2="686.81" style="stroke:#000000;stroke-width:6.48"/>
	<text x="508.95" y="726.25" style="font-family:'Helvetica';font-size:112.56px;fill:#000000" text-anchor="end">80.0</text>
	<line x1="576.45" y1="184.61" x2="531.56" y2="184.61" style="stroke:#000000;stroke-width:6.48"/>
	<text x="508.95" y="224.05" style="font-family:'Helvetica';font-size:112.56px;fill:#000000" text-anchor="end">100.0</text>
	<line x1="576.45" y1="2766.66" x2="5286.60" y2="2766.66" style="stroke:#000000;stroke-width:6.48"/>
	<line x1="647.83" y1="2766.66" x2="647.83" y2="2811.54" style="stroke:#000000;stroke-width:6.48"/>
	<text x="647.83" y="2912.86" style="font-family:'Helvetica';font-size:112.56px;fill:#000000" text-anchor="middle">0</text>
	<line x1="1561.28" y1="2766.66" x2="1561.28" y2="2811.54" style="stroke:#000000;stroke-width:6.48"/>
	<text x="1561.28" y="2912.86" style="font-family:'Helvetica';font-size:112.56px;fill:#000000" text-anchor="middle">2</text>
	<line x1="2474.89" y1="2766.66" x2="2474.89" y2="2811.54" style="stroke:#000000;stroke-width:6.48"/>
	<text x="2474.89" y="2912.86" style="font-family:'Helvetica';font-size:112.56px;fill:#000000" text-anchor="middle">4</text>
	<line x1="3388.33" y1="2766.66" x2="3388.33" y2="2811.54" style="stroke:#000000;stroke-width:6.48"/>
	<text x="3388.33" y="2912.86" style="font-family:'Helvetica';font-size:112.56px;fill:#000000" text-anchor="middle">6</text>
	<line x1="4301.77" y1="2766.66" x2="4301.77" y2="2811.54" style="stroke:#000000;stroke-width:6.48"/>
	<text x="4301.77" y="2912.86" style="font-family:'Helvetica';font-size:112.56px;fill:#000000" text-anchor="middle">8</text>
	<line x1="5215.39" y1="2766.66" x2="5215.39" y2="2811.54" style="stroke:#000000;stroke-width:6.48"/>
	<text x="5215.39" y="2912.86" style="font-family:'Helvetica';font-size:112.56px;fill:#000000" text-anchor="middle">10</text>
	<text x="2931.53" y="3070.31" style="font-family:'Helvetica';font-size:112.56px;fill:#000000" text-anchor="middle">Years from surgery</text>
</svg>
