<?xml version="1.0" encoding="UTF-8" standalone="no"?>
<!-- This is a Stata 18.5 generated SVG file (http://www.stata.com) -->

<svg version="1.1" width="700px" height="509px" viewBox="0 0 3960 2880" xmlns="http://www.w3.org/2000/svg" xmlns:xlink="http://www.w3.org/1999/xlink">
	<desc>Stata Graph - Graph</desc>
	<rect x="0" y="0" width="3960" height="2880" style="fill:#FFFFFF;stroke:none"/>
	<rect x="0.00" y="0.00" width="3959.88" height="2880.00" style="fill:#FFFFFF"/>
	<rect x="2.88" y="2.88" width="3954.12" height="2874.24" style="fill:none;stroke:#FFFFFF;stroke-width:5.76"/>
	<rect x="63.36" y="63.36" width="1916.64" height="2753.28" style="fill:#FFFFFF"/>
	<rect x="65.52" y="65.52" width="1912.32" height="2748.96" style="fill:none;stroke:#FFFFFF;stroke-width:4.32"/>
	<line x1="482.75" y1="2464.31" x2="1904.39" y2="2464.31" style="stroke:#C0C0C0;stroke-width:4.32"/>
	<line x1="482.75" y1="1969.79" x2="1904.39" y2="1969.79" style="stroke:#C0C0C0;stroke-width:4.32"/>
	<line x1="482.75" y1="1475.39" x2="1904.39" y2="1475.39" style="stroke:#C0C0C0;stroke-width:4.32"/>
	<line x1="482.75" y1="980.87" x2="1904.39" y2="980.87" style="stroke:#C0C0C0;stroke-width:4.32"/>
	<line x1="482.75" y1="486.48" x2="1904.39" y2="486.48" style="stroke:#C0C0C0;stroke-width:4.32"/>
	<line x1="482.75" y1="2523.59" x2="482.75" y2="269.91" style="stroke:#C0C0C0;stroke-width:4.32"/>
	<line x1="942.23" y1="2523.59" x2="942.23" y2="269.91" style="stroke:#C0C0C0;stroke-width:4.32"/>
	<line x1="1401.72" y1="2523.59" x2="1401.72" y2="269.91" style="stroke:#C0C0C0;stroke-width:4.32"/>
	<line x1="1861.20" y1="2523.59" x2="1861.20" y2="269.91" style="stroke:#C0C0C0;stroke-width:4.32"/>
	<defs>
		<path id="path_DkOkyJPO" d="M482.75 980.87 L482.75 980.87 L528.66 1005.25 L574.57 1027.65 L620.48 1044.24 L666.52 1056.49 L712.43 1066.63 L758.34 1075.30 L804.38 1082.35 L850.29 1087.55 L896.20 1091.01 L942.23 1092.75 L988.14 1092.99 L1034.06 1092.00 L1079.97 1090.15 L1126.00 1087.55 L1171.91 1084.58 L1217.82 1081.24 L1263.86 1077.77 L1309.77 1074.31 L1355.68 1070.72 L1401.72 1067.25 L1447.63 1063.91 L1493.54 1060.57 L1539.45 1057.48 L1585.49 1054.38 L1631.40 1051.54 L1677.31 1048.81 L1723.34 1046.22 L1769.25 1043.62 L1815.17 1041.27 L1861.20 1039.04 L1861.20 269.91 L1815.17 279.44 L1769.25 289.46 L1723.34 300.23 L1677.31 311.61 L1631.40 323.74 L1585.49 336.73 L1539.45 350.47 L1493.54 365.20 L1447.63 381.04 L1401.72 397.87 L1355.68 415.81 L1309.77 435.24 L1263.86 455.91 L1217.82 478.18 L1171.91 502.07 L1126.00 527.69 L1079.97 555.28 L1034.06 584.74 L988.14 616.17 L942.23 649.46 L896.20 684.36 L850.29 720.00 L804.38 755.27 L758.34 788.56 L712.43 819.37 L666.52 848.33 L620.48 877.29 L574.57 910.09 L528.66 947.83 L482.75 980.87 L482.75 980.87 Z" stroke-linejoin="round"/>
	</defs>
	<defs>
		<clipPath id="clipPath_AhydmSXX">
			<use xlink:href="#path_DkOkyJPO"/>
		</clipPath>
	</defs>
	<use xlink:href="#path_DkOkyJPO" style="stroke:none;fill:#FF3333;fill-opacity:0.30"/>
	<use xlink:href="#path_DkOkyJPO" style="fill:none;stroke:#FF0000;stroke-opacity:0.30;stroke-width:12.96" clip-path="url(#clipPath_AhydmSXX)"/>
	<path d=" M482.63 981.00 L528.54 976.54 L574.57 968.99 L620.48 960.83 L666.39 952.41 L712.43 943.13 L758.34 931.99 L804.25 918.87 L850.16 903.90 L896.20 887.81 L942.11 871.10 L988.02 854.64 L1034.06 838.43 L1079.97 822.72 L1125.88 807.74 L1171.91 793.39 L1217.82 779.77 L1263.73 766.90 L1309.65 754.77 L1355.68 743.39 L1401.59 732.62 L1447.50 722.48 L1493.54 712.95 L1539.45 704.04 L1585.36 695.62 L1631.40 687.70 L1677.31 680.28 L1723.22 673.22 L1769.13 666.66 L1815.17 660.35 L1861.08 654.53" stroke-linejoin="round" style="fill:none;stroke:#FF0000;stroke-width:6.48"/>
	<line x1="482.75" y1="2523.59" x2="482.75" y2="269.91" style="stroke:#000000;stroke-width:4.32"/>
	<line x1="482.75" y1="2464.31" x2="452.68" y2="2464.31" style="stroke:#000000;stroke-width:4.32"/>
	<text x="437.70" y="2490.59" style="font-family:'Helvetica';font-size:74.99px;fill:#000000" text-anchor="end">-0.15</text>
	<line x1="482.75" y1="1969.79" x2="452.68" y2="1969.79" style="stroke:#000000;stroke-width:4.32"/>
	<text x="437.70" y="1996.07" style="font-family:'Helvetica';font-size:74.99px;fill:#000000" text-anchor="end">-0.10</text>
	<line x1="482.75" y1="1475.39" x2="452.68" y2="1475.39" style="stroke:#000000;stroke-width:4.32"/>
	<text x="437.70" y="1501.67" style="font-family:'Helvetica';font-size:74.99px;fill:#000000" text-anchor="end">-0.05</text>
	<line x1="482.75" y1="980.87" x2="452.68" y2="980.87" style="stroke:#000000;stroke-width:4.32"/>
	<text x="437.70" y="1007.15" style="font-family:'Helvetica';font-size:74.99px;fill:#000000" text-anchor="end">0.00</text>
	<line x1="482.75" y1="486.48" x2="452.68" y2="486.48" style="stroke:#000000;stroke-width:4.32"/>
	<text x="437.70" y="512.76" style="font-family:'Helvetica';font-size:74.99px;fill:#000000" text-anchor="end">0.05</text>
	<text x="206.38" y="1396.69" style="font-family:'Helvetica';font-size:74.99px;fill:#000000" transform="rotate(-90 206.38,1396.69)" text-anchor="middle">cause-specific CIF</text>
	<line x1="482.75" y1="2523.59" x2="1904.39" y2="2523.59" style="stroke:#000000;stroke-width:4.32"/>
	<line x1="482.75" y1="2523.59" x2="482.75" y2="2553.54" style="stroke:#000000;stroke-width:4.32"/>
	<text x="482.75" y="2620.95" style="font-family:'Helvetica';font-size:74.99px;fill:#000000" text-anchor="middle">0</text>
	<line x1="942.23" y1="2523.59" x2="942.23" y2="2553.54" style="stroke:#000000;stroke-width:4.32"/>
	<text x="942.23" y="2620.95" style="font-family:'Helvetica';font-size:74.99px;fill:#000000" text-anchor="middle">10</text>
	<line x1="1401.72" y1="2523.59" x2="1401.72" y2="2553.54" style="stroke:#000000;stroke-width:4.32"/>
	<text x="1401.72" y="2620.95" style="font-family:'Helvetica';font-size:74.99px;fill:#000000" text-anchor="middle">20</text>
	<line x1="1861.20" y1="2523.59" x2="1861.20" y2="2553.54" style="stroke:#000000;stroke-width:4.32"/>
	<text x="1861.20" y="2620.95" style="font-family:'Helvetica';font-size:74.99px;fill:#000000" text-anchor="middle">30</text>
	<text x="1193.57" y="2703.49" style="font-family:'Helvetica';font-size:74.99px;fill:#000000" text-anchor="middle">Time from diagnosis (years)</text>
	<text x="1193.57" y="225.37" style="font-family:'Helvetica';font-size:104.94px;fill:#000000" text-anchor="middle">PCM</text>
	<rect x="1980.00" y="63.36" width="1916.52" height="2753.28" style="fill:#FFFFFF"/>
	<rect x="1982.16" y="65.52" width="1912.20" height="2748.96" style="fill:none;stroke:#FFFFFF;stroke-width:4.32"/>
	<line x1="2399.27" y1="2464.31" x2="3820.91" y2="2464.31" style="stroke:#C0C0C0;stroke-width:4.32"/>
	<line x1="2399.27" y1="1969.79" x2="3820.91" y2="1969.79" style="stroke:#C0C0C0;stroke-width:4.32"/>
	<line x1="2399.27" y1="1475.39" x2="3820.91" y2="1475.39" style="stroke:#C0C0C0;stroke-width:4.32"/>
	<line x1="2399.27" y1="980.87" x2="3820.91" y2="980.87" style="stroke:#C0C0C0;stroke-width:4.32"/>
	<line x1="2399.27" y1="486.48" x2="3820.91" y2="486.48" style="stroke:#C0C0C0;stroke-width:4.32"/>
	<line x1="2399.27" y1="2523.59" x2="2399.27" y2="269.91" style="stroke:#C0C0C0;stroke-width:4.32"/>
	<line x1="2858.75" y1="2523.59" x2="2858.75" y2="269.91" style="stroke:#C0C0C0;stroke-width:4.32"/>
	<line x1="3318.23" y1="2523.59" x2="3318.23" y2="269.91" style="stroke:#C0C0C0;stroke-width:4.32"/>
	<line x1="3777.72" y1="2523.59" x2="3777.72" y2="269.91" style="stroke:#C0C0C0;stroke-width:4.32"/>
	<defs>
		<path id="path_grrCNznX" d="M2399.27 980.87 L2399.27 980.87 L2445.18 1538.76 L2491.21 1800.62 L2537.12 1977.34 L2583.03 2125.72 L2629.07 2255.91 L2674.98 2364.07 L2720.89 2444.26 L2766.80 2495.37 L2812.84 2520.25 L2858.75 2523.59 L2904.66 2510.59 L2950.70 2485.97 L2996.61 2453.67 L3042.52 2416.91 L3088.55 2378.18 L3134.46 2338.95 L3180.38 2300.71 L3226.29 2264.08 L3272.32 2229.55 L3318.23 2197.37 L3364.14 2167.80 L3410.18 2140.57 L3456.09 2115.70 L3502.00 2093.05 L3548.04 2072.51 L3593.95 2053.94 L3639.86 2036.99 L3685.77 2021.77 L3731.81 2007.91 L3777.72 1995.41 L3777.72 1292.49 L3731.81 1307.34 L3685.77 1323.18 L3639.86 1340.13 L3593.95 1358.20 L3548.04 1377.50 L3502.00 1398.05 L3456.09 1419.95 L3410.18 1443.09 L3364.14 1467.60 L3318.23 1493.46 L3272.32 1520.56 L3226.29 1548.53 L3180.38 1577.37 L3134.46 1606.57 L3088.55 1635.65 L3042.52 1663.87 L2996.61 1690.35 L2950.70 1713.50 L2904.66 1731.94 L2858.75 1743.44 L2812.84 1745.80 L2766.80 1736.14 L2720.89 1712.38 L2674.98 1672.78 L2629.07 1618.08 L2583.03 1551.50 L2537.12 1475.64 L2491.21 1384.93 L2445.18 1249.91 L2399.27 980.87 L2399.27 980.87 Z" stroke-linejoin="round"/>
	</defs>
	<defs>
		<clipPath id="clipPath_EKzSeNmQ">
			<use xlink:href="#path_grrCNznX"/>
		</clipPath>
	</defs>
	<use xlink:href="#path_grrCNznX" style="stroke:none;fill:#FF3333;fill-opacity:0.30"/>
	<use xlink:href="#path_grrCNznX" style="fill:none;stroke:#FF0000;stroke-opacity:0.30;stroke-width:12.96" clip-path="url(#clipPath_EKzSeNmQ)"/>
	<path d=" M2399.27 981.00 L2445.18 1394.33 L2491.09 1592.84 L2537.00 1726.49 L2583.03 1838.73 L2628.95 1937.00 L2674.86 2018.55 L2720.89 2078.32 L2766.80 2115.82 L2812.71 2133.02 L2858.75 2133.52 L2904.66 2121.27 L2950.57 2099.73 L2996.48 2072.01 L3042.52 2040.45 L3088.43 2006.92 L3134.34 1972.88 L3180.38 1939.10 L3226.29 1906.43 L3272.20 1875.12 L3318.23 1845.54 L3364.14 1817.82 L3410.06 1791.83 L3455.97 1767.82 L3502.00 1745.55 L3547.91 1725.01 L3593.82 1706.07 L3639.86 1688.62 L3685.77 1672.53 L3731.68 1657.68 L3777.72 1644.07" stroke-linejoin="round" style="fill:none;stroke:#FF0000;stroke-width:6.48"/>
	<line x1="2399.27" y1="2523.59" x2="2399.27" y2="269.91" style="stroke:#000000;stroke-width:4.32"/>
	<line x1="2399.27" y1="2464.31" x2="2369.32" y2="2464.31" style="stroke:#000000;stroke-width:4.32"/>
	<text x="2354.22" y="2490.59" style="font-family:'Helvetica';font-size:74.99px;fill:#000000" text-anchor="end">-0.15</text>
	<line x1="2399.27" y1="1969.79" x2="2369.32" y2="1969.79" style="stroke:#000000;stroke-width:4.32"/>
	<text x="2354.22" y="1996.07" style="font-family:'Helvetica';font-size:74.99px;fill:#000000" text-anchor="end">-0.10</text>
	<line x1="2399.27" y1="1475.39" x2="2369.32" y2="1475.39" style="stroke:#000000;stroke-width:4.32"/>
	<text x="2354.22" y="1501.67" style="font-family:'Helvetica';font-size:74.99px;fill:#000000" text-anchor="end">-0.05</text>
	<line x1="2399.27" y1="980.87" x2="2369.32" y2="980.87" style="stroke:#000000;stroke-width:4.32"/>
	<text x="2354.22" y="1007.15" style="font-family:'Helvetica';font-size:74.99px;fill:#000000" text-anchor="end">0.00</text>
	<line x1="2399.27" y1="486.48" x2="2369.32" y2="486.48" style="stroke:#000000;stroke-width:4.32"/>
	<text x="2354.22" y="512.76" style="font-family:'Helvetica';font-size:74.99px;fill:#000000" text-anchor="end">0.05</text>
	<text x="2123.02" y="1396.69" style="font-family:'Helvetica';font-size:74.99px;fill:#000000" transform="rotate(-90 2123.02,1396.69)" text-anchor="middle">cause-specific CIF</text>
	<line x1="2399.27" y1="2523.59" x2="3820.91" y2="2523.59" style="stroke:#000000;stroke-width:4.32"/>
	<line x1="2399.27" y1="2523.59" x2="2399.27" y2="2553.54" style="stroke:#000000;stroke-width:4.32"/>
	<text x="2399.27" y="2620.95" style="font-family:'Helvetica';font-size:74.99px;fill:#000000" text-anchor="middle">0</text>
	<line x1="2858.75" y1="2523.59" x2="2858.75" y2="2553.54" style="stroke:#000000;stroke-width:4.32"/>
	<text x="2858.75" y="2620.95" style="font-family:'Helvetica';font-size:74.99px;fill:#000000" text-anchor="middle">10</text>
	<line x1="3318.23" y1="2523.59" x2="3318.23" y2="2553.54" style="stroke:#000000;stroke-width:4.32"/>
	<text x="3318.23" y="2620.95" style="font-family:'Helvetica';font-size:74.99px;fill:#000000" text-anchor="middle">20</text>
	<line x1="3777.72" y1="2523.59" x2="3777.72" y2="2553.54" style="stroke:#000000;stroke-width:4.32"/>
	<text x="3777.72" y="2620.95" style="font-family:'Helvetica';font-size:74.99px;fill:#000000" text-anchor="middle">30</text>
	<text x="3110.09" y="2703.49" style="font-family:'Helvetica';font-size:74.99px;fill:#000000" text-anchor="middle">Time from diagnosis (years)</text>
	<text x="3110.09" y="225.37" style="font-family:'Helvetica';font-size:104.94px;fill:#000000" text-anchor="middle">Death</text>
</svg>
