<?xml version="1.0" encoding="UTF-8" standalone="no"?>
<!-- This is a Stata 18.5 generated SVG file (http://www.stata.com) -->

<svg version="1.1" width="700px" height="509px" viewBox="0 0 3960 2880" xmlns="http://www.w3.org/2000/svg" xmlns:xlink="http://www.w3.org/1999/xlink">
	<desc>Stata Graph - Graph</desc>
	<rect x="0" y="0" width="3960" height="2880" style="fill:#FFFFFF;stroke:none"/>
	<rect x="0.00" y="0.00" width="3959.88" height="2880.00" style="fill:#FFFFFF"/>
	<rect x="2.88" y="2.88" width="3954.12" height="2874.24" style="fill:none;stroke:#FFFFFF;stroke-width:5.76"/>
	<line x1="465.80" y1="2489.19" x2="3859.02" y2="2489.19" style="stroke:#C0C0C0;stroke-width:5.76"/>
	<line x1="465.80" y1="2091.19" x2="3859.02" y2="2091.19" style="stroke:#C0C0C0;stroke-width:5.76"/>
	<line x1="465.80" y1="1693.08" x2="3859.02" y2="1693.08" style="stroke:#C0C0C0;stroke-width:5.76"/>
	<line x1="465.80" y1="1294.96" x2="3859.02" y2="1294.96" style="stroke:#C0C0C0;stroke-width:5.76"/>
	<line x1="465.80" y1="896.97" x2="3859.02" y2="896.97" style="stroke:#C0C0C0;stroke-width:5.76"/>
	<line x1="465.80" y1="498.85" x2="3859.02" y2="498.85" style="stroke:#C0C0C0;stroke-width:5.76"/>
	<line x1="465.80" y1="100.86" x2="3859.02" y2="100.86" style="stroke:#C0C0C0;stroke-width:5.76"/>
	<line x1="465.80" y1="2489.19" x2="465.80" y2="100.86" style="stroke:#C0C0C0;stroke-width:5.76"/>
	<line x1="1132.93" y1="2489.19" x2="1132.93" y2="100.86" style="stroke:#C0C0C0;stroke-width:5.76"/>
	<line x1="1800.07" y1="2489.19" x2="1800.07" y2="100.86" style="stroke:#C0C0C0;stroke-width:5.76"/>
	<line x1="2467.20" y1="2489.19" x2="2467.20" y2="100.86" style="stroke:#C0C0C0;stroke-width:5.76"/>
	<line x1="3134.34" y1="2489.19" x2="3134.34" y2="100.86" style="stroke:#C0C0C0;stroke-width:5.76"/>
	<line x1="3801.48" y1="2489.19" x2="3801.48" y2="100.86" style="stroke:#C0C0C0;stroke-width:5.76"/>
	<defs>
		<path id="path_xkGQnEwH" d="M465.80 2460.72 L465.80 2460.72 L1132.93 2403.55 L1800.07 2284.13 L2467.20 2130.92 L3134.34 1864.48 L3801.48 1287.04 L3801.48 293.30 L3134.34 1343.47 L2467.20 1834.65 L1800.07 2114.21 L1132.93 2332.27 L465.80 2437.21 L465.80 2460.72 Z" stroke-linejoin="round"/>
	</defs>
	<defs>
		<clipPath id="clipPath_uACIsWsb">
			<use xlink:href="#path_xkGQnEwH"/>
		</clipPath>
	</defs>
	<use xlink:href="#path_xkGQnEwH" style="stroke:none;fill:#E94849;fill-opacity:0.30"/>
	<use xlink:href="#path_xkGQnEwH" style="fill:none;stroke:#E41A1C;stroke-opacity:0.30;stroke-width:17.28" clip-path="url(#clipPath_uACIsWsb)"/>
	<path d=" M465.67 2449.09 L1132.81 2367.91 L1799.94 2199.23 L2467.08 1982.78 L3134.34 1603.97 L3801.48 790.17" stroke-linejoin="round" style="fill:none;stroke:#E41A1C;stroke-width:8.64"/>
	<line x1="465.80" y1="2489.19" x2="465.80" y2="100.86" style="stroke:#000000;stroke-width:5.76"/>
	<line x1="465.80" y1="2489.19" x2="425.82" y2="2489.19" style="stroke:#000000;stroke-width:5.76"/>
	<text x="405.78" y="2524.21" style="font-family:'Helvetica';font-size:99.99px;fill:#000000" text-anchor="end">0.0</text>
	<line x1="465.80" y1="2091.19" x2="425.82" y2="2091.19" style="stroke:#000000;stroke-width:5.76"/>
	<text x="405.78" y="2126.22" style="font-family:'Helvetica';font-size:99.99px;fill:#000000" text-anchor="end">0.2</text>
	<line x1="465.80" y1="1693.08" x2="425.82" y2="1693.08" style="stroke:#000000;stroke-width:5.76"/>
	<text x="405.78" y="1728.11" style="font-family:'Helvetica';font-size:99.99px;fill:#000000" text-anchor="end">0.4</text>
	<line x1="465.80" y1="1294.96" x2="425.82" y2="1294.96" style="stroke:#000000;stroke-width:5.76"/>
	<text x="405.78" y="1329.99" style="font-family:'Helvetica';font-size:99.99px;fill:#000000" text-anchor="end">0.6</text>
	<line x1="465.80" y1="896.97" x2="425.82" y2="896.97" style="stroke:#000000;stroke-width:5.76"/>
	<text x="405.78" y="932.00" style="font-family:'Helvetica';font-size:99.99px;fill:#000000" text-anchor="end">0.8</text>
	<line x1="465.80" y1="498.85" x2="425.82" y2="498.85" style="stroke:#000000;stroke-width:5.76"/>
	<text x="405.78" y="533.88" style="font-family:'Helvetica';font-size:99.99px;fill:#000000" text-anchor="end">1.0</text>
	<line x1="465.80" y1="100.86" x2="425.82" y2="100.86" style="stroke:#000000;stroke-width:5.76"/>
	<text x="405.78" y="135.89" style="font-family:'Helvetica';font-size:99.99px;fill:#000000" text-anchor="end">1.2</text>
	<text x="190.71" y="1294.96" style="font-family:'Helvetica';font-size:99.99px;fill:#000000" transform="rotate(-90 190.71,1294.96)" text-anchor="middle">Difference in centile</text>
	<line x1="465.80" y1="2489.19" x2="3859.02" y2="2489.19" style="stroke:#000000;stroke-width:5.76"/>
	<line x1="465.80" y1="2489.19" x2="465.80" y2="2529.16" style="stroke:#000000;stroke-width:5.76"/>
	<text x="465.80" y="2619.14" style="font-family:'Helvetica';font-size:99.99px;fill:#000000" text-anchor="middle">10</text>
	<line x1="1132.93" y1="2489.19" x2="1132.93" y2="2529.16" style="stroke:#000000;stroke-width:5.76"/>
	<text x="1132.93" y="2619.14" style="font-family:'Helvetica';font-size:99.99px;fill:#000000" text-anchor="middle">20</text>
	<line x1="1800.07" y1="2489.19" x2="1800.07" y2="2529.16" style="stroke:#000000;stroke-width:5.76"/>
	<text x="1800.07" y="2619.14" style="font-family:'Helvetica';font-size:99.99px;fill:#000000" text-anchor="middle">30</text>
	<line x1="2467.20" y1="2489.19" x2="2467.20" y2="2529.16" style="stroke:#000000;stroke-width:5.76"/>
	<text x="2467.20" y="2619.14" style="font-family:'Helvetica';font-size:99.99px;fill:#000000" text-anchor="middle">40</text>
	<line x1="3134.34" y1="2489.19" x2="3134.34" y2="2529.16" style="stroke:#000000;stroke-width:5.76"/>
	<text x="3134.34" y="2619.14" style="font-family:'Helvetica';font-size:99.99px;fill:#000000" text-anchor="middle">50</text>
	<line x1="3801.48" y1="2489.19" x2="3801.48" y2="2529.16" style="stroke:#000000;stroke-width:5.76"/>
	<text x="3801.48" y="2619.14" style="font-family:'Helvetica';font-size:99.99px;fill:#000000" text-anchor="middle">60</text>
	<text x="2162.41" y="2729.16" style="font-family:'Helvetica';font-size:99.99px;fill:#000000" text-anchor="middle">centile</text>
</svg>
