<?xml version="1.0" encoding="UTF-8" standalone="no"?>
<!-- This is a Stata 18.5 generated SVG file (http://www.stata.com) -->

<svg version="1.1" width="700px" height="509px" viewBox="0 0 3960 2880" xmlns="http://www.w3.org/2000/svg" xmlns:xlink="http://www.w3.org/1999/xlink">
	<desc>Stata Graph - Graph</desc>
	<rect x="0" y="0" width="3960" height="2880" style="fill:#FFFFFF;stroke:none"/>
	<rect x="0.00" y="0.00" width="3959.88" height="2880.00" style="fill:#FFFFFF"/>
	<rect x="2.88" y="2.88" width="3954.12" height="2874.24" style="fill:none;stroke:#FFFFFF;stroke-width:5.76"/>
	<rect x="63.36" y="63.36" width="1916.64" height="2753.28" style="fill:#FFFFFF"/>
	<rect x="65.52" y="65.52" width="1912.32" height="2748.96" style="fill:none;stroke:#FFFFFF;stroke-width:4.32"/>
	<line x1="456.39" y1="2523.59" x2="1904.39" y2="2523.59" style="stroke:#C0C0C0;stroke-width:4.32"/>
	<line x1="456.39" y1="1999.37" x2="1904.39" y2="1999.37" style="stroke:#C0C0C0;stroke-width:4.32"/>
	<line x1="456.39" y1="1475.15" x2="1904.39" y2="1475.15" style="stroke:#C0C0C0;stroke-width:4.32"/>
	<line x1="456.39" y1="951.05" x2="1904.39" y2="951.05" style="stroke:#C0C0C0;stroke-width:4.32"/>
	<line x1="456.39" y1="426.83" x2="1904.39" y2="426.83" style="stroke:#C0C0C0;stroke-width:4.32"/>
	<line x1="456.39" y1="2523.59" x2="456.39" y2="269.91" style="stroke:#C0C0C0;stroke-width:4.32"/>
	<line x1="924.66" y1="2523.59" x2="924.66" y2="269.91" style="stroke:#C0C0C0;stroke-width:4.32"/>
	<line x1="1392.93" y1="2523.59" x2="1392.93" y2="269.91" style="stroke:#C0C0C0;stroke-width:4.32"/>
	<line x1="1861.20" y1="2523.59" x2="1861.20" y2="269.91" style="stroke:#C0C0C0;stroke-width:4.32"/>
	<defs>
		<path id="path_WAAsgwGF" d="M456.39 2523.59 L456.39 2523.59 L503.29 2511.83 L550.07 2496.73 L596.97 2483.25 L643.75 2471.74 L690.53 2461.09 L737.43 2450.20 L784.20 2438.82 L830.98 2427.31 L877.88 2416.42 L924.66 2406.39 L971.44 2397.24 L1018.34 2388.82 L1065.12 2381.15 L1112.02 2374.22 L1158.80 2367.78 L1205.57 2361.97 L1252.47 2356.77 L1299.25 2351.94 L1346.03 2347.61 L1392.93 2343.65 L1439.71 2340.19 L1486.61 2336.84 L1533.39 2334.00 L1580.16 2331.28 L1627.07 2328.80 L1673.84 2326.57 L1720.62 2324.59 L1767.52 2322.61 L1814.30 2320.88 L1861.20 2319.27 L1861.20 2181.66 L1814.30 2185.49 L1767.52 2189.33 L1720.62 2193.54 L1673.84 2197.87 L1627.07 2202.45 L1580.16 2207.15 L1533.39 2212.22 L1486.61 2217.55 L1439.71 2223.24 L1392.93 2229.18 L1346.03 2235.61 L1299.25 2242.42 L1252.47 2249.72 L1205.57 2257.64 L1158.80 2266.30 L1112.02 2275.59 L1065.12 2285.98 L1018.34 2297.37 L971.44 2309.99 L924.66 2323.85 L877.88 2339.07 L830.98 2355.04 L784.20 2371.50 L737.43 2388.08 L690.53 2404.91 L643.75 2421.74 L596.97 2439.19 L550.07 2460.47 L503.29 2488.81 L456.39 2523.59 L456.39 2523.59 Z" stroke-linejoin="round"/>
	</defs>
	<defs>
		<clipPath id="clipPath_wYVpyOog">
			<use xlink:href="#path_WAAsgwGF"/>
		</clipPath>
	</defs>
	<use xlink:href="#path_WAAsgwGF" style="stroke:none;fill:#FF3333;fill-opacity:0.30"/>
	<use xlink:href="#path_WAAsgwGF" style="fill:none;stroke:#FF0000;stroke-opacity:0.30;stroke-width:12.96" clip-path="url(#clipPath_wYVpyOog)"/>
	<path d=" M456.39 2523.59 L503.17 2503.42 L550.07 2482.50 L596.85 2465.30 L643.62 2450.95 L690.53 2437.46 L737.30 2423.97 L784.08 2410.11 L830.98 2396.25 L877.76 2383.00 L924.66 2370.63 L971.44 2359.37 L1018.22 2349.10 L1065.12 2339.69 L1111.89 2331.15 L1158.67 2323.48 L1205.57 2316.30 L1252.35 2309.87 L1299.25 2303.93 L1346.03 2298.48 L1392.81 2293.53 L1439.71 2288.95 L1486.49 2284.62 L1533.26 2280.66 L1580.16 2276.95 L1626.94 2273.48 L1673.84 2270.39 L1720.62 2267.29 L1767.40 2264.57 L1814.30 2261.85 L1861.08 2259.37" stroke-linejoin="round" style="fill:none;stroke:#FF0000;stroke-width:6.48"/>
	<defs>
		<path id="path_gMFIRZMK" d="M456.39 2523.59 L456.39 2523.59 L503.29 2511.21 L550.07 2494.75 L596.97 2479.66 L643.75 2466.41 L690.53 2453.79 L737.43 2440.67 L784.20 2426.32 L830.98 2411.47 L877.88 2397.11 L924.66 2383.38 L971.44 2370.63 L1018.34 2358.62 L1065.12 2347.49 L1112.02 2337.09 L1158.80 2327.44 L1205.57 2318.53 L1252.47 2310.36 L1299.25 2302.94 L1346.03 2296.13 L1392.93 2289.94 L1439.71 2284.37 L1486.61 2279.30 L1533.39 2274.60 L1580.16 2270.39 L1627.07 2266.55 L1673.84 2262.96 L1720.62 2259.75 L1767.52 2256.78 L1814.30 2254.05 L1861.20 2251.45 L1861.20 2071.39 L1814.30 2077.58 L1767.52 2084.14 L1720.62 2090.95 L1673.84 2098.12 L1627.07 2105.55 L1580.16 2113.34 L1533.39 2121.51 L1486.61 2130.18 L1439.71 2139.21 L1392.93 2148.61 L1346.03 2158.64 L1299.25 2169.16 L1252.47 2180.42 L1205.57 2192.30 L1158.80 2205.17 L1112.02 2218.91 L1065.12 2233.88 L1018.34 2250.09 L971.44 2267.79 L924.66 2287.10 L877.88 2307.51 L830.98 2328.68 L784.20 2349.71 L737.43 2370.51 L690.53 2390.92 L643.75 2410.97 L596.97 2431.27 L550.07 2455.40 L503.29 2486.71 L456.39 2523.59 L456.39 2523.59 Z" stroke-linejoin="round"/>
	</defs>
	<defs>
		<clipPath id="clipPath_GXfaOXXL">
			<use xlink:href="#path_gMFIRZMK"/>
		</clipPath>
	</defs>
	<use xlink:href="#path_gMFIRZMK" style="stroke:none;fill:#3333FF;fill-opacity:0.30"/>
	<use xlink:href="#path_gMFIRZMK" style="fill:none;stroke:#0000FF;stroke-opacity:0.30;stroke-width:12.96" clip-path="url(#clipPath_GXfaOXXL)"/>
	<path d=" M456.39 2523.59 L503.17 2502.30 L550.07 2479.28 L596.85 2459.98 L643.62 2443.40 L690.53 2427.43 L737.30 2410.97 L784.08 2393.65 L830.98 2375.83 L877.76 2358.38 L924.66 2341.55 L971.44 2325.83 L1018.22 2311.23 L1065.12 2297.74 L1111.89 2285.24 L1158.67 2273.73 L1205.57 2263.09 L1252.35 2253.19 L1299.25 2244.03 L1346.03 2235.61 L1392.81 2227.69 L1439.71 2220.39 L1486.49 2213.59 L1533.26 2207.27 L1580.16 2201.33 L1626.94 2195.76 L1673.84 2190.69 L1720.62 2185.74 L1767.40 2181.16 L1814.30 2176.95 L1861.08 2172.87" stroke-linejoin="round" style="fill:none;stroke:#0000FF;stroke-width:6.48"/>
	<line x1="456.39" y1="2523.59" x2="456.39" y2="269.91" style="stroke:#000000;stroke-width:4.32"/>
	<line x1="456.39" y1="2523.59" x2="426.44" y2="2523.59" style="stroke:#000000;stroke-width:4.32"/>
	<text x="411.47" y="2549.87" style="font-family:'Helvetica';font-size:74.99px;fill:#000000" text-anchor="end">0.00</text>
	<line x1="456.39" y1="1999.37" x2="426.44" y2="1999.37" style="stroke:#000000;stroke-width:4.32"/>
	<text x="411.47" y="2025.65" style="font-family:'Helvetica';font-size:74.99px;fill:#000000" text-anchor="end">0.20</text>
	<line x1="456.39" y1="1475.15" x2="426.44" y2="1475.15" style="stroke:#000000;stroke-width:4.32"/>
	<text x="411.47" y="1501.43" style="font-family:'Helvetica';font-size:74.99px;fill:#000000" text-anchor="end">0.40</text>
	<line x1="456.39" y1="951.05" x2="426.44" y2="951.05" style="stroke:#000000;stroke-width:4.32"/>
	<text x="411.47" y="977.33" style="font-family:'Helvetica';font-size:74.99px;fill:#000000" text-anchor="end">0.60</text>
	<line x1="456.39" y1="426.83" x2="426.44" y2="426.83" style="stroke:#000000;stroke-width:4.32"/>
	<text x="411.47" y="453.11" style="font-family:'Helvetica';font-size:74.99px;fill:#000000" text-anchor="end">0.80</text>
	<text x="206.38" y="1396.69" style="font-family:'Helvetica';font-size:74.99px;fill:#000000" transform="rotate(-90 206.38,1396.69)" text-anchor="middle">cause-specific CIF</text>
	<line x1="456.39" y1="2523.59" x2="1904.39" y2="2523.59" style="stroke:#000000;stroke-width:4.32"/>
	<line x1="456.39" y1="2523.59" x2="456.39" y2="2553.54" style="stroke:#000000;stroke-width:4.32"/>
	<text x="456.39" y="2620.95" style="font-family:'Helvetica';font-size:74.99px;fill:#000000" text-anchor="middle">0</text>
	<line x1="924.66" y1="2523.59" x2="924.66" y2="2553.54" style="stroke:#000000;stroke-width:4.32"/>
	<text x="924.66" y="2620.95" style="font-family:'Helvetica';font-size:74.99px;fill:#000000" text-anchor="middle">10</text>
	<line x1="1392.93" y1="2523.59" x2="1392.93" y2="2553.54" style="stroke:#000000;stroke-width:4.32"/>
	<text x="1392.93" y="2620.95" style="font-family:'Helvetica';font-size:74.99px;fill:#000000" text-anchor="middle">20</text>
	<line x1="1861.20" y1="2523.59" x2="1861.20" y2="2553.54" style="stroke:#000000;stroke-width:4.32"/>
	<text x="1861.20" y="2620.95" style="font-family:'Helvetica';font-size:74.99px;fill:#000000" text-anchor="middle">30</text>
	<text x="1180.45" y="2703.49" style="font-family:'Helvetica';font-size:74.99px;fill:#000000" text-anchor="middle">Time from diagnosis (years)</text>
	<line x1="514.80" y1="365.69" x2="664.79" y2="365.69" style="stroke:#FF0000;stroke-width:6.48"/>
	<line x1="514.80" y1="480.66" x2="664.79" y2="480.66" style="stroke:#0000FF;stroke-width:6.48"/>
	<text x="724.80" y="391.97" style="font-family:'Helvetica';font-size:74.99px;fill:#000000">Males</text>
	<text x="724.80" y="506.94" style="font-family:'Helvetica';font-size:74.99px;fill:#000000">Females</text>
	<text x="1180.45" y="225.37" style="font-family:'Helvetica';font-size:104.94px;fill:#000000" text-anchor="middle">PCM</text>
	<rect x="1980.00" y="63.36" width="1916.52" height="2753.28" style="fill:#FFFFFF"/>
	<rect x="1982.16" y="65.52" width="1912.20" height="2748.96" style="fill:none;stroke:#FFFFFF;stroke-width:4.32"/>
	<line x1="2373.03" y1="2523.59" x2="3820.91" y2="2523.59" style="stroke:#C0C0C0;stroke-width:4.32"/>
	<line x1="2373.03" y1="1999.37" x2="3820.91" y2="1999.37" style="stroke:#C0C0C0;stroke-width:4.32"/>
	<line x1="2373.03" y1="1475.15" x2="3820.91" y2="1475.15" style="stroke:#C0C0C0;stroke-width:4.32"/>
	<line x1="2373.03" y1="951.05" x2="3820.91" y2="951.05" style="stroke:#C0C0C0;stroke-width:4.32"/>
	<line x1="2373.03" y1="426.83" x2="3820.91" y2="426.83" style="stroke:#C0C0C0;stroke-width:4.32"/>
	<line x1="2373.03" y1="2523.59" x2="2373.03" y2="269.91" style="stroke:#C0C0C0;stroke-width:4.32"/>
	<line x1="2841.30" y1="2523.59" x2="2841.30" y2="269.91" style="stroke:#C0C0C0;stroke-width:4.32"/>
	<line x1="3309.45" y1="2523.59" x2="3309.45" y2="269.91" style="stroke:#C0C0C0;stroke-width:4.32"/>
	<line x1="3777.72" y1="2523.59" x2="3777.72" y2="269.91" style="stroke:#C0C0C0;stroke-width:4.32"/>
	<defs>
		<path id="path_ttGKYnZz" d="M2373.03 2523.59 L2373.03 2523.59 L2419.81 2220.39 L2466.71 2042.06 L2513.49 1906.92 L2560.26 1778.71 L2607.17 1646.17 L2653.94 1511.53 L2700.84 1382.95 L2747.62 1264.39 L2794.40 1156.73 L2841.30 1060.08 L2888.08 974.07 L2934.86 898.45 L2981.76 832.12 L3028.53 774.45 L3075.31 724.21 L3122.21 680.65 L3168.99 642.65 L3215.89 609.49 L3262.67 580.53 L3309.45 555.16 L3356.35 532.76 L3403.13 512.96 L3449.90 495.51 L3496.80 479.92 L3543.58 466.06 L3590.48 453.56 L3637.26 442.42 L3684.04 432.40 L3730.94 423.36 L3777.72 415.07 L3777.72 269.91 L3730.94 278.69 L3684.04 288.47 L3637.26 299.24 L3590.48 311.24 L3543.58 324.48 L3496.80 339.21 L3449.90 355.67 L3403.13 373.98 L3356.35 394.65 L3309.45 417.79 L3262.67 443.91 L3215.89 473.36 L3168.99 506.65 L3122.21 544.39 L3075.31 587.21 L3028.53 635.85 L2981.76 691.41 L2934.86 754.77 L2888.08 827.42 L2841.30 910.46 L2794.40 1005.50 L2747.62 1113.54 L2700.84 1233.95 L2653.94 1363.89 L2607.17 1499.03 L2560.26 1635.65 L2513.49 1774.38 L2466.71 1922.64 L2419.81 2121.88 L2373.03 2523.59 L2373.03 2523.59 Z" stroke-linejoin="round"/>
	</defs>
	<defs>
		<clipPath id="clipPath_iwnMWmrS">
			<use xlink:href="#path_ttGKYnZz"/>
		</clipPath>
	</defs>
	<use xlink:href="#path_ttGKYnZz" style="stroke:none;fill:#FF3333;fill-opacity:0.30"/>
	<use xlink:href="#path_ttGKYnZz" style="fill:none;stroke:#FF0000;stroke-opacity:0.30;stroke-width:12.96" clip-path="url(#clipPath_iwnMWmrS)"/>
	<path d=" M2372.91 2523.59 L2419.81 2174.60 L2466.59 1985.75 L2513.49 1843.93 L2560.26 1710.40 L2607.04 1575.51 L2653.94 1440.25 L2700.72 1310.80 L2747.50 1191.13 L2794.40 1083.09 L2841.18 987.06 L2887.95 902.41 L2934.86 828.16 L2981.63 763.31 L3028.53 706.51 L3075.31 657.01 L3122.09 613.70 L3168.99 575.83 L3215.77 542.66 L3262.55 513.45 L3309.45 487.71 L3356.22 464.94 L3403.13 444.77 L3449.90 426.83 L3496.68 410.74 L3543.58 396.51 L3590.36 383.64 L3637.14 372.13 L3684.04 361.73 L3730.82 352.33 L3777.72 343.79" stroke-linejoin="round" style="fill:none;stroke:#FF0000;stroke-width:6.48"/>
	<defs>
		<path id="path_HdrVwUas" d="M2373.03 2523.59 L2373.03 2523.59 L2419.81 2319.27 L2466.71 2194.03 L2513.49 2095.40 L2560.26 1998.38 L2607.17 1894.42 L2653.94 1784.41 L2700.84 1674.39 L2747.62 1568.09 L2794.40 1467.10 L2841.30 1372.55 L2888.08 1285.06 L2934.86 1205.12 L2981.76 1132.60 L3028.53 1067.38 L3075.31 1008.97 L3122.21 956.86 L3168.99 910.46 L3215.89 869.12 L3262.67 832.37 L3309.45 799.45 L3356.35 770.12 L3403.13 743.88 L3449.90 720.37 L3496.80 699.21 L3543.58 680.28 L3590.48 663.07 L3637.26 647.60 L3684.04 633.62 L3730.94 620.87 L3777.72 609.36 L3777.72 425.34 L3730.94 438.09 L3684.04 452.07 L3637.26 467.42 L3590.48 484.37 L3543.58 502.94 L3496.80 523.48 L3449.90 546.13 L3403.13 571.25 L3356.35 599.09 L3309.45 630.03 L3262.67 664.31 L3215.89 702.55 L3168.99 745.00 L3122.21 792.15 L3075.31 844.62 L3028.53 902.78 L2981.76 967.51 L2934.86 1039.41 L2888.08 1118.98 L2841.30 1206.97 L2794.40 1303.87 L2747.62 1409.56 L2700.84 1522.54 L2653.94 1639.49 L2607.17 1756.44 L2560.26 1869.92 L2513.49 1980.80 L2466.71 2095.15 L2419.81 2242.92 L2373.03 2523.59 L2373.03 2523.59 Z" stroke-linejoin="round"/>
	</defs>
	<defs>
		<clipPath id="clipPath_pdHttoKK">
			<use xlink:href="#path_HdrVwUas"/>
		</clipPath>
	</defs>
	<use xlink:href="#path_HdrVwUas" style="stroke:none;fill:#3333FF;fill-opacity:0.30"/>
	<use xlink:href="#path_HdrVwUas" style="fill:none;stroke:#0000FF;stroke-opacity:0.30;stroke-width:12.96" clip-path="url(#clipPath_pdHttoKK)"/>
	<path d=" M2372.91 2523.59 L2419.81 2284.25 L2466.59 2147.87 L2513.49 2041.57 L2560.26 1937.74 L2607.04 1828.83 L2653.94 1715.23 L2700.72 1601.62 L2747.50 1491.85 L2794.40 1388.52 L2841.18 1292.61 L2887.95 1204.62 L2934.86 1124.68 L2981.63 1052.40 L3028.53 987.31 L3075.31 928.90 L3122.09 876.67 L3168.99 829.77 L3215.77 787.94 L3262.55 750.44 L3309.45 716.78 L3356.22 686.71 L3403.13 659.61 L3449.90 635.35 L3496.68 613.45 L3543.58 593.65 L3590.36 575.83 L3637.14 559.61 L3684.04 545.01 L3730.82 531.65 L3777.72 519.52" stroke-linejoin="round" style="fill:none;stroke:#0000FF;stroke-width:6.48"/>
	<line x1="2373.03" y1="2523.59" x2="2373.03" y2="269.91" style="stroke:#000000;stroke-width:4.32"/>
	<line x1="2373.03" y1="2523.59" x2="2343.08" y2="2523.59" style="stroke:#000000;stroke-width:4.32"/>
	<text x="2327.99" y="2549.87" style="font-family:'Helvetica';font-size:74.99px;fill:#000000" text-anchor="end">0.00</text>
	<line x1="2373.03" y1="1999.37" x2="2343.08" y2="1999.37" style="stroke:#000000;stroke-width:4.32"/>
	<text x="2327.99" y="2025.65" style="font-family:'Helvetica';font-size:74.99px;fill:#000000" text-anchor="end">0.20</text>
	<line x1="2373.03" y1="1475.15" x2="2343.08" y2="1475.15" style="stroke:#000000;stroke-width:4.32"/>
	<text x="2327.99" y="1501.43" style="font-family:'Helvetica';font-size:74.99px;fill:#000000" text-anchor="end">0.40</text>
	<line x1="2373.03" y1="951.05" x2="2343.08" y2="951.05" style="stroke:#000000;stroke-width:4.32"/>
	<text x="2327.99" y="977.33" style="font-family:'Helvetica';font-size:74.99px;fill:#000000" text-anchor="end">0.60</text>
	<line x1="2373.03" y1="426.83" x2="2343.08" y2="426.83" style="stroke:#000000;stroke-width:4.32"/>
	<text x="2327.99" y="453.11" style="font-family:'Helvetica';font-size:74.99px;fill:#000000" text-anchor="end">0.80</text>
	<text x="2123.02" y="1396.69" style="font-family:'Helvetica';font-size:74.99px;fill:#000000" transform="rotate(-90 2123.02,1396.69)" text-anchor="middle">cause-specific CIF</text>
	<line x1="2373.03" y1="2523.59" x2="3820.91" y2="2523.59" style="stroke:#000000;stroke-width:4.32"/>
	<line x1="2373.03" y1="2523.59" x2="2373.03" y2="2553.54" style="stroke:#000000;stroke-width:4.32"/>
	<text x="2373.03" y="2620.95" style="font-family:'Helvetica';font-size:74.99px;fill:#000000" text-anchor="middle">0</text>
	<line x1="2841.30" y1="2523.59" x2="2841.30" y2="2553.54" style="stroke:#000000;stroke-width:4.32"/>
	<text x="2841.30" y="2620.95" style="font-family:'Helvetica';font-size:74.99px;fill:#000000" text-anchor="middle">10</text>
	<line x1="3309.45" y1="2523.59" x2="3309.45" y2="2553.54" style="stroke:#000000;stroke-width:4.32"/>
	<text x="3309.45" y="2620.95" style="font-family:'Helvetica';font-size:74.99px;fill:#000000" text-anchor="middle">20</text>
	<line x1="3777.72" y1="2523.59" x2="3777.72" y2="2553.54" style="stroke:#000000;stroke-width:4.32"/>
	<text x="3777.72" y="2620.95" style="font-family:'Helvetica';font-size:74.99px;fill:#000000" text-anchor="middle">30</text>
	<text x="3096.97" y="2703.49" style="font-family:'Helvetica';font-size:74.99px;fill:#000000" text-anchor="middle">Time from diagnosis (years)</text>
	<line x1="2431.32" y1="365.69" x2="2581.30" y2="365.69" style="stroke:#FF0000;stroke-width:6.48"/>
	<line x1="2431.32" y1="480.66" x2="2581.30" y2="480.66" style="stroke:#0000FF;stroke-width:6.48"/>
	<text x="2641.32" y="391.97" style="font-family:'Helvetica';font-size:74.99px;fill:#000000">Males</text>
	<text x="2641.32" y="506.94" style="font-family:'Helvetica';font-size:74.99px;fill:#000000">Females</text>
	<text x="3096.97" y="225.37" style="font-family:'Helvetica';font-size:104.94px;fill:#000000" text-anchor="middle">Death</text>
</svg>
