<?xml version="1.0" encoding="UTF-8" standalone="no"?>
<!-- This is a Stata 18.5 generated SVG file (http://www.stata.com) -->

<svg version="1.1" width="700px" height="420px" viewBox="0 0 5400 3240" xmlns="http://www.w3.org/2000/svg" xmlns:xlink="http://www.w3.org/1999/xlink">
	<desc>Stata Graph - Graph</desc>
	<rect x="0" y="0" width="5400" height="3240" style="fill:#FFFFFF;stroke:none"/>
	<rect x="0.00" y="0.00" width="5400.00" height="3240.00" style="fill:#FFFFFF"/>
	<rect x="3.24" y="3.24" width="5393.52" height="3233.52" style="fill:none;stroke:#FFFFFF;stroke-width:6.48"/>
	<rect x="557.72" y="113.40" width="4728.88" height="2653.26" style="fill:#FFFFFF"/>
	<rect x="560.96" y="116.64" width="4722.40" height="2646.78" style="fill:none;stroke:#FFFFFF;stroke-width:6.48"/>
	<line x1="557.72" y1="2695.28" x2="622.52" y2="2695.28" style="stroke:#F0F0F0;stroke-width:9.72"/>
	<line x1="654.92" y1="2695.28" x2="719.72" y2="2695.28" style="stroke:#F0F0F0;stroke-width:9.72"/>
	<line x1="752.12" y1="2695.28" x2="816.92" y2="2695.28" style="stroke:#F0F0F0;stroke-width:9.72"/>
	<line x1="849.32" y1="2695.28" x2="914.12" y2="2695.28" style="stroke:#F0F0F0;stroke-width:9.72"/>
	<line x1="946.52" y1="2695.28" x2="1011.32" y2="2695.28" style="stroke:#F0F0F0;stroke-width:9.72"/>
	<line x1="1043.72" y1="2695.28" x2="1108.52" y2="2695.28" style="stroke:#F0F0F0;stroke-width:9.72"/>
	<line x1="1140.92" y1="2695.28" x2="1205.72" y2="2695.28" style="stroke:#F0F0F0;stroke-width:9.72"/>
	<line x1="1238.12" y1="2695.28" x2="1302.92" y2="2695.28" style="stroke:#F0F0F0;stroke-width:9.72"/>
	<line x1="1335.32" y1="2695.28" x2="1400.12" y2="2695.28" style="stroke:#F0F0F0;stroke-width:9.72"/>
	<line x1="1432.52" y1="2695.28" x2="1497.32" y2="2695.28" style="stroke:#F0F0F0;stroke-width:9.72"/>
	<line x1="1529.72" y1="2695.28" x2="1594.52" y2="2695.28" style="stroke:#F0F0F0;stroke-width:9.72"/>
	<line x1="1626.92" y1="2695.28" x2="1691.72" y2="2695.28" style="stroke:#F0F0F0;stroke-width:9.72"/>
	<line x1="1724.12" y1="2695.28" x2="1788.92" y2="2695.28" style="stroke:#F0F0F0;stroke-width:9.72"/>
	<line x1="1821.32" y1="2695.28" x2="1886.12" y2="2695.28" style="stroke:#F0F0F0;stroke-width:9.72"/>
	<line x1="1918.52" y1="2695.28" x2="1983.32" y2="2695.28" style="stroke:#F0F0F0;stroke-width:9.72"/>
	<line x1="2015.72" y1="2695.28" x2="2080.52" y2="2695.28" style="stroke:#F0F0F0;stroke-width:9.72"/>
	<line x1="2112.92" y1="2695.28" x2="2177.72" y2="2695.28" style="stroke:#F0F0F0;stroke-width:9.72"/>
	<line x1="2210.12" y1="2695.28" x2="2274.92" y2="2695.28" style="stroke:#F0F0F0;stroke-width:9.72"/>
	<line x1="2307.32" y1="2695.28" x2="2372.12" y2="2695.28" style="stroke:#F0F0F0;stroke-width:9.72"/>
	<line x1="2404.52" y1="2695.28" x2="2469.32" y2="2695.28" style="stroke:#F0F0F0;stroke-width:9.72"/>
	<line x1="2501.72" y1="2695.28" x2="2566.52" y2="2695.28" style="stroke:#F0F0F0;stroke-width:9.72"/>
	<line x1="2598.92" y1="2695.28" x2="2663.72" y2="2695.28" style="stroke:#F0F0F0;stroke-width:9.72"/>
	<line x1="2696.12" y1="2695.28" x2="2760.92" y2="2695.28" style="stroke:#F0F0F0;stroke-width:9.72"/>
	<line x1="2793.32" y1="2695.28" x2="2858.12" y2="2695.28" style="stroke:#F0F0F0;stroke-width:9.72"/>
	<line x1="2890.52" y1="2695.28" x2="2955.32" y2="2695.28" style="stroke:#F0F0F0;stroke-width:9.72"/>
	<line x1="2987.72" y1="2695.28" x2="3052.52" y2="2695.28" style="stroke:#F0F0F0;stroke-width:9.72"/>
	<line x1="3084.92" y1="2695.28" x2="3149.72" y2="2695.28" style="stroke:#F0F0F0;stroke-width:9.72"/>
	<line x1="3182.12" y1="2695.28" x2="3246.92" y2="2695.28" style="stroke:#F0F0F0;stroke-width:9.72"/>
	<line x1="3279.32" y1="2695.28" x2="3344.12" y2="2695.28" style="stroke:#F0F0F0;stroke-width:9.72"/>
	<line x1="3376.52" y1="2695.28" x2="3441.32" y2="2695.28" style="stroke:#F0F0F0;stroke-width:9.72"/>
	<line x1="3473.72" y1="2695.28" x2="3538.52" y2="2695.28" style="stroke:#F0F0F0;stroke-width:9.72"/>
	<line x1="3570.92" y1="2695.28" x2="3635.72" y2="2695.28" style="stroke:#F0F0F0;stroke-width:9.72"/>
	<line x1="3668.12" y1="2695.28" x2="3732.92" y2="2695.28" style="stroke:#F0F0F0;stroke-width:9.72"/>
	<line x1="3765.32" y1="2695.28" x2="3830.12" y2="2695.28" style="stroke:#F0F0F0;stroke-width:9.72"/>
	<line x1="3862.52" y1="2695.28" x2="3927.32" y2="2695.28" style="stroke:#F0F0F0;stroke-width:9.72"/>
	<line x1="3959.72" y1="2695.28" x2="4024.52" y2="2695.28" style="stroke:#F0F0F0;stroke-width:9.72"/>
	<line x1="4056.92" y1="2695.28" x2="4121.72" y2="2695.28" style="stroke:#F0F0F0;stroke-width:9.72"/>
	<line x1="4154.12" y1="2695.28" x2="4218.92" y2="2695.28" style="stroke:#F0F0F0;stroke-width:9.72"/>
	<line x1="4251.32" y1="2695.28" x2="4316.12" y2="2695.28" style="stroke:#F0F0F0;stroke-width:9.72"/>
	<line x1="4348.52" y1="2695.28" x2="4413.32" y2="2695.28" style="stroke:#F0F0F0;stroke-width:9.72"/>
	<line x1="4445.72" y1="2695.28" x2="4510.52" y2="2695.28" style="stroke:#F0F0F0;stroke-width:9.72"/>
	<line x1="4542.92" y1="2695.28" x2="4607.72" y2="2695.28" style="stroke:#F0F0F0;stroke-width:9.72"/>
	<line x1="4640.12" y1="2695.28" x2="4704.92" y2="2695.28" style="stroke:#F0F0F0;stroke-width:9.72"/>
	<line x1="4737.32" y1="2695.28" x2="4802.12" y2="2695.28" style="stroke:#F0F0F0;stroke-width:9.72"/>
	<line x1="4834.52" y1="2695.28" x2="4899.32" y2="2695.28" style="stroke:#F0F0F0;stroke-width:9.72"/>
	<line x1="4931.72" y1="2695.28" x2="4996.52" y2="2695.28" style="stroke:#F0F0F0;stroke-width:9.72"/>
	<line x1="5028.92" y1="2695.28" x2="5093.72" y2="2695.28" style="stroke:#F0F0F0;stroke-width:9.72"/>
	<line x1="5126.12" y1="2695.28" x2="5190.92" y2="2695.28" style="stroke:#F0F0F0;stroke-width:9.72"/>
	<line x1="5223.32" y1="2695.28" x2="5286.60" y2="2695.28" style="stroke:#F0F0F0;stroke-width:9.72"/>
	<line x1="557.72" y1="2194.09" x2="622.52" y2="2194.09" style="stroke:#F0F0F0;stroke-width:9.72"/>
	<line x1="654.92" y1="2194.09" x2="719.72" y2="2194.09" style="stroke:#F0F0F0;stroke-width:9.72"/>
	<line x1="752.12" y1="2194.09" x2="816.92" y2="2194.09" style="stroke:#F0F0F0;stroke-width:9.72"/>
	<line x1="849.32" y1="2194.09" x2="914.12" y2="2194.09" style="stroke:#F0F0F0;stroke-width:9.72"/>
	<line x1="946.52" y1="2194.09" x2="1011.32" y2="2194.09" style="stroke:#F0F0F0;stroke-width:9.72"/>
	<line x1="1043.72" y1="2194.09" x2="1108.52" y2="2194.09" style="stroke:#F0F0F0;stroke-width:9.72"/>
	<line x1="1140.92" y1="2194.09" x2="1205.72" y2="2194.09" style="stroke:#F0F0F0;stroke-width:9.72"/>
	<line x1="1238.12" y1="2194.09" x2="1302.92" y2="2194.09" style="stroke:#F0F0F0;stroke-width:9.72"/>
	<line x1="1335.32" y1="2194.09" x2="1400.12" y2="2194.09" style="stroke:#F0F0F0;stroke-width:9.72"/>
	<line x1="1432.52" y1="2194.09" x2="1497.32" y2="2194.09" style="stroke:#F0F0F0;stroke-width:9.72"/>
	<line x1="1529.72" y1="2194.09" x2="1594.52" y2="2194.09" style="stroke:#F0F0F0;stroke-width:9.72"/>
	<line x1="1626.92" y1="2194.09" x2="1691.72" y2="2194.09" style="stroke:#F0F0F0;stroke-width:9.72"/>
	<line x1="1724.12" y1="2194.09" x2="1788.92" y2="2194.09" style="stroke:#F0F0F0;stroke-width:9.72"/>
	<line x1="1821.32" y1="2194.09" x2="1886.12" y2="2194.09" style="stroke:#F0F0F0;stroke-width:9.72"/>
	<line x1="1918.52" y1="2194.09" x2="1983.32" y2="2194.09" style="stroke:#F0F0F0;stroke-width:9.72"/>
	<line x1="2015.72" y1="2194.09" x2="2080.52" y2="2194.09" style="stroke:#F0F0F0;stroke-width:9.72"/>
	<line x1="2112.92" y1="2194.09" x2="2177.72" y2="2194.09" style="stroke:#F0F0F0;stroke-width:9.72"/>
	<line x1="2210.12" y1="2194.09" x2="2274.92" y2="2194.09" style="stroke:#F0F0F0;stroke-width:9.72"/>
	<line x1="2307.32" y1="2194.09" x2="2372.12" y2="2194.09" style="stroke:#F0F0F0;stroke-width:9.72"/>
	<line x1="2404.52" y1="2194.09" x2="2469.32" y2="2194.09" style="stroke:#F0F0F0;stroke-width:9.72"/>
	<line x1="2501.72" y1="2194.09" x2="2566.52" y2="2194.09" style="stroke:#F0F0F0;stroke-width:9.72"/>
	<line x1="2598.92" y1="2194.09" x2="2663.72" y2="2194.09" style="stroke:#F0F0F0;stroke-width:9.72"/>
	<line x1="2696.12" y1="2194.09" x2="2760.92" y2="2194.09" style="stroke:#F0F0F0;stroke-width:9.72"/>
	<line x1="2793.32" y1="2194.09" x2="2858.12" y2="2194.09" style="stroke:#F0F0F0;stroke-width:9.72"/>
	<line x1="2890.52" y1="2194.09" x2="2955.32" y2="2194.09" style="stroke:#F0F0F0;stroke-width:9.72"/>
	<line x1="2987.72" y1="2194.09" x2="3052.52" y2="2194.09" style="stroke:#F0F0F0;stroke-width:9.72"/>
	<line x1="3084.92" y1="2194.09" x2="3149.72" y2="2194.09" style="stroke:#F0F0F0;stroke-width:9.72"/>
	<line x1="3182.12" y1="2194.09" x2="3246.92" y2="2194.09" style="stroke:#F0F0F0;stroke-width:9.72"/>
	<line x1="3279.32" y1="2194.09" x2="3344.12" y2="2194.09" style="stroke:#F0F0F0;stroke-width:9.72"/>
	<line x1="3376.52" y1="2194.09" x2="3441.32" y2="2194.09" style="stroke:#F0F0F0;stroke-width:9.72"/>
	<line x1="3473.72" y1="2194.09" x2="3538.52" y2="2194.09" style="stroke:#F0F0F0;stroke-width:9.72"/>
	<line x1="3570.92" y1="2194.09" x2="3635.72" y2="2194.09" style="stroke:#F0F0F0;stroke-width:9.72"/>
	<line x1="3668.12" y1="2194.09" x2="3732.92" y2="2194.09" style="stroke:#F0F0F0;stroke-width:9.72"/>
	<line x1="3765.32" y1="2194.09" x2="3830.12" y2="2194.09" style="stroke:#F0F0F0;stroke-width:9.72"/>
	<line x1="3862.52" y1="2194.09" x2="3927.32" y2="2194.09" style="stroke:#F0F0F0;stroke-width:9.72"/>
	<line x1="3959.72" y1="2194.09" x2="4024.52" y2="2194.09" style="stroke:#F0F0F0;stroke-width:9.72"/>
	<line x1="4056.92" y1="2194.09" x2="4121.72" y2="2194.09" style="stroke:#F0F0F0;stroke-width:9.72"/>
	<line x1="4154.12" y1="2194.09" x2="4218.92" y2="2194.09" style="stroke:#F0F0F0;stroke-width:9.72"/>
	<line x1="4251.32" y1="2194.09" x2="4316.12" y2="2194.09" style="stroke:#F0F0F0;stroke-width:9.72"/>
	<line x1="4348.52" y1="2194.09" x2="4413.32" y2="2194.09" style="stroke:#F0F0F0;stroke-width:9.72"/>
	<line x1="4445.72" y1="2194.09" x2="4510.52" y2="2194.09" style="stroke:#F0F0F0;stroke-width:9.72"/>
	<line x1="4542.92" y1="2194.09" x2="4607.72" y2="2194.09" style="stroke:#F0F0F0;stroke-width:9.72"/>
	<line x1="4640.12" y1="2194.09" x2="4704.92" y2="2194.09" style="stroke:#F0F0F0;stroke-width:9.72"/>
	<line x1="4737.32" y1="2194.09" x2="4802.12" y2="2194.09" style="stroke:#F0F0F0;stroke-width:9.72"/>
	<line x1="4834.52" y1="2194.09" x2="4899.32" y2="2194.09" style="stroke:#F0F0F0;stroke-width:9.72"/>
	<line x1="4931.72" y1="2194.09" x2="4996.52" y2="2194.09" style="stroke:#F0F0F0;stroke-width:9.72"/>
	<line x1="5028.92" y1="2194.09" x2="5093.72" y2="2194.09" style="stroke:#F0F0F0;stroke-width:9.72"/>
	<line x1="5126.12" y1="2194.09" x2="5190.92" y2="2194.09" style="stroke:#F0F0F0;stroke-width:9.72"/>
	<line x1="5223.32" y1="2194.09" x2="5286.60" y2="2194.09" style="stroke:#F0F0F0;stroke-width:9.72"/>
	<line x1="557.72" y1="1692.73" x2="622.52" y2="1692.73" style="stroke:#F0F0F0;stroke-width:9.72"/>
	<line x1="654.92" y1="1692.73" x2="719.72" y2="1692.73" style="stroke:#F0F0F0;stroke-width:9.72"/>
	<line x1="752.12" y1="1692.73" x2="816.92" y2="1692.73" style="stroke:#F0F0F0;stroke-width:9.72"/>
	<line x1="849.32" y1="1692.73" x2="914.12" y2="1692.73" style="stroke:#F0F0F0;stroke-width:9.72"/>
	<line x1="946.52" y1="1692.73" x2="1011.32" y2="1692.73" style="stroke:#F0F0F0;stroke-width:9.72"/>
	<line x1="1043.72" y1="1692.73" x2="1108.52" y2="1692.73" style="stroke:#F0F0F0;stroke-width:9.72"/>
	<line x1="1140.92" y1="1692.73" x2="1205.72" y2="1692.73" style="stroke:#F0F0F0;stroke-width:9.72"/>
	<line x1="1238.12" y1="1692.73" x2="1302.92" y2="1692.73" style="stroke:#F0F0F0;stroke-width:9.72"/>
	<line x1="1335.32" y1="1692.73" x2="1400.12" y2="1692.73" style="stroke:#F0F0F0;stroke-width:9.72"/>
	<line x1="1432.52" y1="1692.73" x2="1497.32" y2="1692.73" style="stroke:#F0F0F0;stroke-width:9.72"/>
	<line x1="1529.72" y1="1692.73" x2="1594.52" y2="1692.73" style="stroke:#F0F0F0;stroke-width:9.72"/>
	<line x1="1626.92" y1="1692.73" x2="1691.72" y2="1692.73" style="stroke:#F0F0F0;stroke-width:9.72"/>
	<line x1="1724.12" y1="1692.73" x2="1788.92" y2="1692.73" style="stroke:#F0F0F0;stroke-width:9.72"/>
	<line x1="1821.32" y1="1692.73" x2="1886.12" y2="1692.73" style="stroke:#F0F0F0;stroke-width:9.72"/>
	<line x1="1918.52" y1="1692.73" x2="1983.32" y2="1692.73" style="stroke:#F0F0F0;stroke-width:9.72"/>
	<line x1="2015.72" y1="1692.73" x2="2080.52" y2="1692.73" style="stroke:#F0F0F0;stroke-width:9.72"/>
	<line x1="2112.92" y1="1692.73" x2="2177.72" y2="1692.73" style="stroke:#F0F0F0;stroke-width:9.72"/>
	<line x1="2210.12" y1="1692.73" x2="2274.92" y2="1692.73" style="stroke:#F0F0F0;stroke-width:9.72"/>
	<line x1="2307.32" y1="1692.73" x2="2372.12" y2="1692.73" style="stroke:#F0F0F0;stroke-width:9.72"/>
	<line x1="2404.52" y1="1692.73" x2="2469.32" y2="1692.73" style="stroke:#F0F0F0;stroke-width:9.72"/>
	<line x1="2501.72" y1="1692.73" x2="2566.52" y2="1692.73" style="stroke:#F0F0F0;stroke-width:9.72"/>
	<line x1="2598.92" y1="1692.73" x2="2663.72" y2="1692.73" style="stroke:#F0F0F0;stroke-width:9.72"/>
	<line x1="2696.12" y1="1692.73" x2="2760.92" y2="1692.73" style="stroke:#F0F0F0;stroke-width:9.72"/>
	<line x1="2793.32" y1="1692.73" x2="2858.12" y2="1692.73" style="stroke:#F0F0F0;stroke-width:9.72"/>
	<line x1="2890.52" y1="1692.73" x2="2955.32" y2="1692.73" style="stroke:#F0F0F0;stroke-width:9.72"/>
	<line x1="2987.72" y1="1692.73" x2="3052.52" y2="1692.73" style="stroke:#F0F0F0;stroke-width:9.72"/>
	<line x1="3084.92" y1="1692.73" x2="3149.72" y2="1692.73" style="stroke:#F0F0F0;stroke-width:9.72"/>
	<line x1="3182.12" y1="1692.73" x2="3246.92" y2="1692.73" style="stroke:#F0F0F0;stroke-width:9.72"/>
	<line x1="3279.32" y1="1692.73" x2="3344.12" y2="1692.73" style="stroke:#F0F0F0;stroke-width:9.72"/>
	<line x1="3376.52" y1="1692.73" x2="3441.32" y2="1692.73" style="stroke:#F0F0F0;stroke-width:9.72"/>
	<line x1="3473.72" y1="1692.73" x2="3538.52" y2="1692.73" style="stroke:#F0F0F0;stroke-width:9.72"/>
	<line x1="3570.92" y1="1692.73" x2="3635.72" y2="1692.73" style="stroke:#F0F0F0;stroke-width:9.72"/>
	<line x1="3668.12" y1="1692.73" x2="3732.92" y2="1692.73" style="stroke:#F0F0F0;stroke-width:9.72"/>
	<line x1="3765.32" y1="1692.73" x2="3830.12" y2="1692.73" style="stroke:#F0F0F0;stroke-width:9.72"/>
	<line x1="3862.52" y1="1692.73" x2="3927.32" y2="1692.73" style="stroke:#F0F0F0;stroke-width:9.72"/>
	<line x1="3959.72" y1="1692.73" x2="4024.52" y2="1692.73" style="stroke:#F0F0F0;stroke-width:9.72"/>
	<line x1="4056.92" y1="1692.73" x2="4121.72" y2="1692.73" style="stroke:#F0F0F0;stroke-width:9.72"/>
	<line x1="4154.12" y1="1692.73" x2="4218.92" y2="1692.73" style="stroke:#F0F0F0;stroke-width:9.72"/>
	<line x1="4251.32" y1="1692.73" x2="4316.12" y2="1692.73" style="stroke:#F0F0F0;stroke-width:9.72"/>
	<line x1="4348.52" y1="1692.73" x2="4413.32" y2="1692.73" style="stroke:#F0F0F0;stroke-width:9.72"/>
	<line x1="4445.72" y1="1692.73" x2="4510.52" y2="1692.73" style="stroke:#F0F0F0;stroke-width:9.72"/>
	<line x1="4542.92" y1="1692.73" x2="4607.72" y2="1692.73" style="stroke:#F0F0F0;stroke-width:9.72"/>
	<line x1="4640.12" y1="1692.73" x2="4704.92" y2="1692.73" style="stroke:#F0F0F0;stroke-width:9.72"/>
	<line x1="4737.32" y1="1692.73" x2="4802.12" y2="1692.73" style="stroke:#F0F0F0;stroke-width:9.72"/>
	<line x1="4834.52" y1="1692.73" x2="4899.32" y2="1692.73" style="stroke:#F0F0F0;stroke-width:9.72"/>
	<line x1="4931.72" y1="1692.73" x2="4996.52" y2="1692.73" style="stroke:#F0F0F0;stroke-width:9.72"/>
	<line x1="5028.92" y1="1692.73" x2="5093.72" y2="1692.73" style="stroke:#F0F0F0;stroke-width:9.72"/>
	<line x1="5126.12" y1="1692.73" x2="5190.92" y2="1692.73" style="stroke:#F0F0F0;stroke-width:9.72"/>
	<line x1="5223.32" y1="1692.73" x2="5286.60" y2="1692.73" style="stroke:#F0F0F0;stroke-width:9.72"/>
	<line x1="557.72" y1="1191.38" x2="622.52" y2="1191.38" style="stroke:#F0F0F0;stroke-width:9.72"/>
	<line x1="654.92" y1="1191.38" x2="719.72" y2="1191.38" style="stroke:#F0F0F0;stroke-width:9.72"/>
	<line x1="752.12" y1="1191.38" x2="816.92" y2="1191.38" style="stroke:#F0F0F0;stroke-width:9.72"/>
	<line x1="849.32" y1="1191.38" x2="914.12" y2="1191.38" style="stroke:#F0F0F0;stroke-width:9.72"/>
	<line x1="946.52" y1="1191.38" x2="1011.32" y2="1191.38" style="stroke:#F0F0F0;stroke-width:9.72"/>
	<line x1="1043.72" y1="1191.38" x2="1108.52" y2="1191.38" style="stroke:#F0F0F0;stroke-width:9.72"/>
	<line x1="1140.92" y1="1191.38" x2="1205.72" y2="1191.38" style="stroke:#F0F0F0;stroke-width:9.72"/>
	<line x1="1238.12" y1="1191.38" x2="1302.92" y2="1191.38" style="stroke:#F0F0F0;stroke-width:9.72"/>
	<line x1="1335.32" y1="1191.38" x2="1400.12" y2="1191.38" style="stroke:#F0F0F0;stroke-width:9.72"/>
	<line x1="1432.52" y1="1191.38" x2="1497.32" y2="1191.38" style="stroke:#F0F0F0;stroke-width:9.72"/>
	<line x1="1529.72" y1="1191.38" x2="1594.52" y2="1191.38" style="stroke:#F0F0F0;stroke-width:9.72"/>
	<line x1="1626.92" y1="1191.38" x2="1691.72" y2="1191.38" style="stroke:#F0F0F0;stroke-width:9.72"/>
	<line x1="1724.12" y1="1191.38" x2="1788.92" y2="1191.38" style="stroke:#F0F0F0;stroke-width:9.72"/>
	<line x1="1821.32" y1="1191.38" x2="1886.12" y2="1191.38" style="stroke:#F0F0F0;stroke-width:9.72"/>
	<line x1="1918.52" y1="1191.38" x2="1983.32" y2="1191.38" style="stroke:#F0F0F0;stroke-width:9.72"/>
	<line x1="2015.72" y1="1191.38" x2="2080.52" y2="1191.38" style="stroke:#F0F0F0;stroke-width:9.72"/>
	<line x1="2112.92" y1="1191.38" x2="2177.72" y2="1191.38" style="stroke:#F0F0F0;stroke-width:9.72"/>
	<line x1="2210.12" y1="1191.38" x2="2274.92" y2="1191.38" style="stroke:#F0F0F0;stroke-width:9.72"/>
	<line x1="2307.32" y1="1191.38" x2="2372.12" y2="1191.38" style="stroke:#F0F0F0;stroke-width:9.72"/>
	<line x1="2404.52" y1="1191.38" x2="2469.32" y2="1191.38" style="stroke:#F0F0F0;stroke-width:9.72"/>
	<line x1="2501.72" y1="1191.38" x2="2566.52" y2="1191.38" style="stroke:#F0F0F0;stroke-width:9.72"/>
	<line x1="2598.92" y1="1191.38" x2="2663.72" y2="1191.38" style="stroke:#F0F0F0;stroke-width:9.72"/>
	<line x1="2696.12" y1="1191.38" x2="2760.92" y2="1191.38" style="stroke:#F0F0F0;stroke-width:9.72"/>
	<line x1="2793.32" y1="1191.38" x2="2858.12" y2="1191.38" style="stroke:#F0F0F0;stroke-width:9.72"/>
	<line x1="2890.52" y1="1191.38" x2="2955.32" y2="1191.38" style="stroke:#F0F0F0;stroke-width:9.72"/>
	<line x1="2987.72" y1="1191.38" x2="3052.52" y2="1191.38" style="stroke:#F0F0F0;stroke-width:9.72"/>
	<line x1="3084.92" y1="1191.38" x2="3149.72" y2="1191.38" style="stroke:#F0F0F0;stroke-width:9.72"/>
	<line x1="3182.12" y1="1191.38" x2="3246.92" y2="1191.38" style="stroke:#F0F0F0;stroke-width:9.72"/>
	<line x1="3279.32" y1="1191.38" x2="3344.12" y2="1191.38" style="stroke:#F0F0F0;stroke-width:9.72"/>
	<line x1="3376.52" y1="1191.38" x2="3441.32" y2="1191.38" style="stroke:#F0F0F0;stroke-width:9.72"/>
	<line x1="3473.72" y1="1191.38" x2="3538.52" y2="1191.38" style="stroke:#F0F0F0;stroke-width:9.72"/>
	<line x1="3570.92" y1="1191.38" x2="3635.72" y2="1191.38" style="stroke:#F0F0F0;stroke-width:9.72"/>
	<line x1="3668.12" y1="1191.38" x2="3732.92" y2="1191.38" style="stroke:#F0F0F0;stroke-width:9.72"/>
	<line x1="3765.32" y1="1191.38" x2="3830.12" y2="1191.38" style="stroke:#F0F0F0;stroke-width:9.72"/>
	<line x1="3862.52" y1="1191.38" x2="3927.32" y2="1191.38" style="stroke:#F0F0F0;stroke-width:9.72"/>
	<line x1="3959.72" y1="1191.38" x2="4024.52" y2="1191.38" style="stroke:#F0F0F0;stroke-width:9.72"/>
	<line x1="4056.92" y1="1191.38" x2="4121.72" y2="1191.38" style="stroke:#F0F0F0;stroke-width:9.72"/>
	<line x1="4154.12" y1="1191.38" x2="4218.92" y2="1191.38" style="stroke:#F0F0F0;stroke-width:9.72"/>
	<line x1="4251.32" y1="1191.38" x2="4316.12" y2="1191.38" style="stroke:#F0F0F0;stroke-width:9.72"/>
	<line x1="4348.52" y1="1191.38" x2="4413.32" y2="1191.38" style="stroke:#F0F0F0;stroke-width:9.72"/>
	<line x1="4445.72" y1="1191.38" x2="4510.52" y2="1191.38" style="stroke:#F0F0F0;stroke-width:9.72"/>
	<line x1="4542.92" y1="1191.38" x2="4607.72" y2="1191.38" style="stroke:#F0F0F0;stroke-width:9.72"/>
	<line x1="4640.12" y1="1191.38" x2="4704.92" y2="1191.38" style="stroke:#F0F0F0;stroke-width:9.72"/>
	<line x1="4737.32" y1="1191.38" x2="4802.12" y2="1191.38" style="stroke:#F0F0F0;stroke-width:9.72"/>
	<line x1="4834.52" y1="1191.38" x2="4899.32" y2="1191.38" style="stroke:#F0F0F0;stroke-width:9.72"/>
	<line x1="4931.72" y1="1191.38" x2="4996.52" y2="1191.38" style="stroke:#F0F0F0;stroke-width:9.72"/>
	<line x1="5028.92" y1="1191.38" x2="5093.72" y2="1191.38" style="stroke:#F0F0F0;stroke-width:9.72"/>
	<line x1="5126.12" y1="1191.38" x2="5190.92" y2="1191.38" style="stroke:#F0F0F0;stroke-width:9.72"/>
	<line x1="5223.32" y1="1191.38" x2="5286.60" y2="1191.38" style="stroke:#F0F0F0;stroke-width:9.72"/>
	<line x1="557.72" y1="690.02" x2="622.52" y2="690.02" style="stroke:#F0F0F0;stroke-width:9.72"/>
	<line x1="654.92" y1="690.02" x2="719.72" y2="690.02" style="stroke:#F0F0F0;stroke-width:9.72"/>
	<line x1="752.12" y1="690.02" x2="816.92" y2="690.02" style="stroke:#F0F0F0;stroke-width:9.72"/>
	<line x1="849.32" y1="690.02" x2="914.12" y2="690.02" style="stroke:#F0F0F0;stroke-width:9.72"/>
	<line x1="946.52" y1="690.02" x2="1011.32" y2="690.02" style="stroke:#F0F0F0;stroke-width:9.72"/>
	<line x1="1043.72" y1="690.02" x2="1108.52" y2="690.02" style="stroke:#F0F0F0;stroke-width:9.72"/>
	<line x1="1140.92" y1="690.02" x2="1205.72" y2="690.02" style="stroke:#F0F0F0;stroke-width:9.72"/>
	<line x1="1238.12" y1="690.02" x2="1302.92" y2="690.02" style="stroke:#F0F0F0;stroke-width:9.72"/>
	<line x1="1335.32" y1="690.02" x2="1400.12" y2="690.02" style="stroke:#F0F0F0;stroke-width:9.72"/>
	<line x1="1432.52" y1="690.02" x2="1497.32" y2="690.02" style="stroke:#F0F0F0;stroke-width:9.72"/>
	<line x1="1529.72" y1="690.02" x2="1594.52" y2="690.02" style="stroke:#F0F0F0;stroke-width:9.72"/>
	<line x1="1626.92" y1="690.02" x2="1691.72" y2="690.02" style="stroke:#F0F0F0;stroke-width:9.72"/>
	<line x1="1724.12" y1="690.02" x2="1788.92" y2="690.02" style="stroke:#F0F0F0;stroke-width:9.72"/>
	<line x1="1821.32" y1="690.02" x2="1886.12" y2="690.02" style="stroke:#F0F0F0;stroke-width:9.72"/>
	<line x1="1918.52" y1="690.02" x2="1983.32" y2="690.02" style="stroke:#F0F0F0;stroke-width:9.72"/>
	<line x1="2015.72" y1="690.02" x2="2080.52" y2="690.02" style="stroke:#F0F0F0;stroke-width:9.72"/>
	<line x1="2112.92" y1="690.02" x2="2177.72" y2="690.02" style="stroke:#F0F0F0;stroke-width:9.72"/>
	<line x1="2210.12" y1="690.02" x2="2274.92" y2="690.02" style="stroke:#F0F0F0;stroke-width:9.72"/>
	<line x1="2307.32" y1="690.02" x2="2372.12" y2="690.02" style="stroke:#F0F0F0;stroke-width:9.72"/>
	<line x1="2404.52" y1="690.02" x2="2469.32" y2="690.02" style="stroke:#F0F0F0;stroke-width:9.72"/>
	<line x1="2501.72" y1="690.02" x2="2566.52" y2="690.02" style="stroke:#F0F0F0;stroke-width:9.72"/>
	<line x1="2598.92" y1="690.02" x2="2663.72" y2="690.02" style="stroke:#F0F0F0;stroke-width:9.72"/>
	<line x1="2696.12" y1="690.02" x2="2760.92" y2="690.02" style="stroke:#F0F0F0;stroke-width:9.72"/>
	<line x1="2793.32" y1="690.02" x2="2858.12" y2="690.02" style="stroke:#F0F0F0;stroke-width:9.72"/>
	<line x1="2890.52" y1="690.02" x2="2955.32" y2="690.02" style="stroke:#F0F0F0;stroke-width:9.72"/>
	<line x1="2987.72" y1="690.02" x2="3052.52" y2="690.02" style="stroke:#F0F0F0;stroke-width:9.72"/>
	<line x1="3084.92" y1="690.02" x2="3149.72" y2="690.02" style="stroke:#F0F0F0;stroke-width:9.72"/>
	<line x1="3182.12" y1="690.02" x2="3246.92" y2="690.02" style="stroke:#F0F0F0;stroke-width:9.72"/>
	<line x1="3279.32" y1="690.02" x2="3344.12" y2="690.02" style="stroke:#F0F0F0;stroke-width:9.72"/>
	<line x1="3376.52" y1="690.02" x2="3441.32" y2="690.02" style="stroke:#F0F0F0;stroke-width:9.72"/>
	<line x1="3473.72" y1="690.02" x2="3538.52" y2="690.02" style="stroke:#F0F0F0;stroke-width:9.72"/>
	<line x1="3570.92" y1="690.02" x2="3635.72" y2="690.02" style="stroke:#F0F0F0;stroke-width:9.72"/>
	<line x1="3668.12" y1="690.02" x2="3732.92" y2="690.02" style="stroke:#F0F0F0;stroke-width:9.72"/>
	<line x1="3765.32" y1="690.02" x2="3830.12" y2="690.02" style="stroke:#F0F0F0;stroke-width:9.72"/>
	<line x1="3862.52" y1="690.02" x2="3927.32" y2="690.02" style="stroke:#F0F0F0;stroke-width:9.72"/>
	<line x1="3959.72" y1="690.02" x2="4024.52" y2="690.02" style="stroke:#F0F0F0;stroke-width:9.72"/>
	<line x1="4056.92" y1="690.02" x2="4121.72" y2="690.02" style="stroke:#F0F0F0;stroke-width:9.72"/>
	<line x1="4154.12" y1="690.02" x2="4218.92" y2="690.02" style="stroke:#F0F0F0;stroke-width:9.72"/>
	<line x1="4251.32" y1="690.02" x2="4316.12" y2="690.02" style="stroke:#F0F0F0;stroke-width:9.72"/>
	<line x1="4348.52" y1="690.02" x2="4413.32" y2="690.02" style="stroke:#F0F0F0;stroke-width:9.72"/>
	<line x1="4445.72" y1="690.02" x2="4510.52" y2="690.02" style="stroke:#F0F0F0;stroke-width:9.72"/>
	<line x1="4542.92" y1="690.02" x2="4607.72" y2="690.02" style="stroke:#F0F0F0;stroke-width:9.72"/>
	<line x1="4640.12" y1="690.02" x2="4704.92" y2="690.02" style="stroke:#F0F0F0;stroke-width:9.72"/>
	<line x1="4737.32" y1="690.02" x2="4802.12" y2="690.02" style="stroke:#F0F0F0;stroke-width:9.72"/>
	<line x1="4834.52" y1="690.02" x2="4899.32" y2="690.02" style="stroke:#F0F0F0;stroke-width:9.72"/>
	<line x1="4931.72" y1="690.02" x2="4996.52" y2="690.02" style="stroke:#F0F0F0;stroke-width:9.72"/>
	<line x1="5028.92" y1="690.02" x2="5093.72" y2="690.02" style="stroke:#F0F0F0;stroke-width:9.72"/>
	<line x1="5126.12" y1="690.02" x2="5190.92" y2="690.02" style="stroke:#F0F0F0;stroke-width:9.72"/>
	<line x1="5223.32" y1="690.02" x2="5286.60" y2="690.02" style="stroke:#F0F0F0;stroke-width:9.72"/>
	<line x1="557.72" y1="188.66" x2="622.52" y2="188.66" style="stroke:#F0F0F0;stroke-width:9.72"/>
	<line x1="654.92" y1="188.66" x2="719.72" y2="188.66" style="stroke:#F0F0F0;stroke-width:9.72"/>
	<line x1="752.12" y1="188.66" x2="816.92" y2="188.66" style="stroke:#F0F0F0;stroke-width:9.72"/>
	<line x1="849.32" y1="188.66" x2="914.12" y2="188.66" style="stroke:#F0F0F0;stroke-width:9.72"/>
	<line x1="946.52" y1="188.66" x2="1011.32" y2="188.66" style="stroke:#F0F0F0;stroke-width:9.72"/>
	<line x1="1043.72" y1="188.66" x2="1108.52" y2="188.66" style="stroke:#F0F0F0;stroke-width:9.72"/>
	<line x1="1140.92" y1="188.66" x2="1205.72" y2="188.66" style="stroke:#F0F0F0;stroke-width:9.72"/>
	<line x1="1238.12" y1="188.66" x2="1302.92" y2="188.66" style="stroke:#F0F0F0;stroke-width:9.72"/>
	<line x1="1335.32" y1="188.66" x2="1400.12" y2="188.66" style="stroke:#F0F0F0;stroke-width:9.72"/>
	<line x1="1432.52" y1="188.66" x2="1497.32" y2="188.66" style="stroke:#F0F0F0;stroke-width:9.72"/>
	<line x1="1529.72" y1="188.66" x2="1594.52" y2="188.66" style="stroke:#F0F0F0;stroke-width:9.72"/>
	<line x1="1626.92" y1="188.66" x2="1691.72" y2="188.66" style="stroke:#F0F0F0;stroke-width:9.72"/>
	<line x1="1724.12" y1="188.66" x2="1788.92" y2="188.66" style="stroke:#F0F0F0;stroke-width:9.72"/>
	<line x1="1821.32" y1="188.66" x2="1886.12" y2="188.66" style="stroke:#F0F0F0;stroke-width:9.72"/>
	<line x1="1918.52" y1="188.66" x2="1983.32" y2="188.66" style="stroke:#F0F0F0;stroke-width:9.72"/>
	<line x1="2015.72" y1="188.66" x2="2080.52" y2="188.66" style="stroke:#F0F0F0;stroke-width:9.72"/>
	<line x1="2112.92" y1="188.66" x2="2177.72" y2="188.66" style="stroke:#F0F0F0;stroke-width:9.72"/>
	<line x1="2210.12" y1="188.66" x2="2274.92" y2="188.66" style="stroke:#F0F0F0;stroke-width:9.72"/>
	<line x1="2307.32" y1="188.66" x2="2372.12" y2="188.66" style="stroke:#F0F0F0;stroke-width:9.72"/>
	<line x1="2404.52" y1="188.66" x2="2469.32" y2="188.66" style="stroke:#F0F0F0;stroke-width:9.72"/>
	<line x1="2501.72" y1="188.66" x2="2566.52" y2="188.66" style="stroke:#F0F0F0;stroke-width:9.72"/>
	<line x1="2598.92" y1="188.66" x2="2663.72" y2="188.66" style="stroke:#F0F0F0;stroke-width:9.72"/>
	<line x1="2696.12" y1="188.66" x2="2760.92" y2="188.66" style="stroke:#F0F0F0;stroke-width:9.72"/>
	<line x1="2793.32" y1="188.66" x2="2858.12" y2="188.66" style="stroke:#F0F0F0;stroke-width:9.72"/>
	<line x1="2890.52" y1="188.66" x2="2955.32" y2="188.66" style="stroke:#F0F0F0;stroke-width:9.72"/>
	<line x1="2987.72" y1="188.66" x2="3052.52" y2="188.66" style="stroke:#F0F0F0;stroke-width:9.72"/>
	<line x1="3084.92" y1="188.66" x2="3149.72" y2="188.66" style="stroke:#F0F0F0;stroke-width:9.72"/>
	<line x1="3182.12" y1="188.66" x2="3246.92" y2="188.66" style="stroke:#F0F0F0;stroke-width:9.72"/>
	<line x1="3279.32" y1="188.66" x2="3344.12" y2="188.66" style="stroke:#F0F0F0;stroke-width:9.72"/>
	<line x1="3376.52" y1="188.66" x2="3441.32" y2="188.66" style="stroke:#F0F0F0;stroke-width:9.72"/>
	<line x1="3473.72" y1="188.66" x2="3538.52" y2="188.66" style="stroke:#F0F0F0;stroke-width:9.72"/>
	<line x1="3570.92" y1="188.66" x2="3635.72" y2="188.66" style="stroke:#F0F0F0;stroke-width:9.72"/>
	<line x1="3668.12" y1="188.66" x2="3732.92" y2="188.66" style="stroke:#F0F0F0;stroke-width:9.72"/>
	<line x1="3765.32" y1="188.66" x2="3830.12" y2="188.66" style="stroke:#F0F0F0;stroke-width:9.72"/>
	<line x1="3862.52" y1="188.66" x2="3927.32" y2="188.66" style="stroke:#F0F0F0;stroke-width:9.72"/>
	<line x1="3959.72" y1="188.66" x2="4024.52" y2="188.66" style="stroke:#F0F0F0;stroke-width:9.72"/>
	<line x1="4056.92" y1="188.66" x2="4121.72" y2="188.66" style="stroke:#F0F0F0;stroke-width:9.72"/>
	<line x1="4154.12" y1="188.66" x2="4218.92" y2="188.66" style="stroke:#F0F0F0;stroke-width:9.72"/>
	<line x1="4251.32" y1="188.66" x2="4316.12" y2="188.66" style="stroke:#F0F0F0;stroke-width:9.72"/>
	<line x1="4348.52" y1="188.66" x2="4413.32" y2="188.66" style="stroke:#F0F0F0;stroke-width:9.72"/>
	<line x1="4445.72" y1="188.66" x2="4510.52" y2="188.66" style="stroke:#F0F0F0;stroke-width:9.72"/>
	<line x1="4542.92" y1="188.66" x2="4607.72" y2="188.66" style="stroke:#F0F0F0;stroke-width:9.72"/>
	<line x1="4640.12" y1="188.66" x2="4704.92" y2="188.66" style="stroke:#F0F0F0;stroke-width:9.72"/>
	<line x1="4737.32" y1="188.66" x2="4802.12" y2="188.66" style="stroke:#F0F0F0;stroke-width:9.72"/>
	<line x1="4834.52" y1="188.66" x2="4899.32" y2="188.66" style="stroke:#F0F0F0;stroke-width:9.72"/>
	<line x1="4931.72" y1="188.66" x2="4996.52" y2="188.66" style="stroke:#F0F0F0;stroke-width:9.72"/>
	<line x1="5028.92" y1="188.66" x2="5093.72" y2="188.66" style="stroke:#F0F0F0;stroke-width:9.72"/>
	<line x1="5126.12" y1="188.66" x2="5190.92" y2="188.66" style="stroke:#F0F0F0;stroke-width:9.72"/>
	<line x1="5223.32" y1="188.66" x2="5286.60" y2="188.66" style="stroke:#F0F0F0;stroke-width:9.72"/>
	<line x1="629.10" y1="2766.66" x2="629.10" y2="2701.86" style="stroke:#F0F0F0;stroke-width:9.72"/>
	<line x1="629.10" y1="2669.46" x2="629.10" y2="2604.66" style="stroke:#F0F0F0;stroke-width:9.72"/>
	<line x1="629.10" y1="2572.26" x2="629.10" y2="2507.46" style="stroke:#F0F0F0;stroke-width:9.72"/>
	<line x1="629.10" y1="2475.06" x2="629.10" y2="2410.26" style="stroke:#F0F0F0;stroke-width:9.72"/>
	<line x1="629.10" y1="2377.86" x2="629.10" y2="2313.06" style="stroke:#F0F0F0;stroke-width:9.72"/>
	<line x1="629.10" y1="2280.66" x2="629.10" y2="2215.86" style="stroke:#F0F0F0;stroke-width:9.72"/>
	<line x1="629.10" y1="2183.46" x2="629.10" y2="2118.66" style="stroke:#F0F0F0;stroke-width:9.72"/>
	<line x1="629.10" y1="2086.26" x2="629.10" y2="2021.46" style="stroke:#F0F0F0;stroke-width:9.72"/>
	<line x1="629.10" y1="1989.06" x2="629.10" y2="1924.26" style="stroke:#F0F0F0;stroke-width:9.72"/>
	<line x1="629.10" y1="1891.86" x2="629.10" y2="1827.06" style="stroke:#F0F0F0;stroke-width:9.72"/>
	<line x1="629.10" y1="1794.66" x2="629.10" y2="1729.86" style="stroke:#F0F0F0;stroke-width:9.72"/>
	<line x1="629.10" y1="1697.46" x2="629.10" y2="1632.66" style="stroke:#F0F0F0;stroke-width:9.72"/>
	<line x1="629.10" y1="1600.26" x2="629.10" y2="1535.46" style="stroke:#F0F0F0;stroke-width:9.72"/>
	<line x1="629.10" y1="1503.06" x2="629.10" y2="1438.26" style="stroke:#F0F0F0;stroke-width:9.72"/>
	<line x1="629.10" y1="1405.86" x2="629.10" y2="1341.06" style="stroke:#F0F0F0;stroke-width:9.72"/>
	<line x1="629.10" y1="1308.66" x2="629.10" y2="1243.86" style="stroke:#F0F0F0;stroke-width:9.72"/>
	<line x1="629.10" y1="1211.46" x2="629.10" y2="1146.66" style="stroke:#F0F0F0;stroke-width:9.72"/>
	<line x1="629.10" y1="1114.26" x2="629.10" y2="1049.46" style="stroke:#F0F0F0;stroke-width:9.72"/>
	<line x1="629.10" y1="1017.06" x2="629.10" y2="952.26" style="stroke:#F0F0F0;stroke-width:9.72"/>
	<line x1="629.10" y1="919.86" x2="629.10" y2="855.06" style="stroke:#F0F0F0;stroke-width:9.72"/>
	<line x1="629.10" y1="822.66" x2="629.10" y2="757.86" style="stroke:#F0F0F0;stroke-width:9.72"/>
	<line x1="629.10" y1="725.46" x2="629.10" y2="660.66" style="stroke:#F0F0F0;stroke-width:9.72"/>
	<line x1="629.10" y1="628.26" x2="629.10" y2="563.46" style="stroke:#F0F0F0;stroke-width:9.72"/>
	<line x1="629.10" y1="531.06" x2="629.10" y2="466.26" style="stroke:#F0F0F0;stroke-width:9.72"/>
	<line x1="629.10" y1="433.86" x2="629.10" y2="369.06" style="stroke:#F0F0F0;stroke-width:9.72"/>
	<line x1="629.10" y1="336.66" x2="629.10" y2="271.86" style="stroke:#F0F0F0;stroke-width:9.72"/>
	<line x1="629.10" y1="239.46" x2="629.10" y2="174.66" style="stroke:#F0F0F0;stroke-width:9.72"/>
	<line x1="629.10" y1="142.26" x2="629.10" y2="113.40" style="stroke:#F0F0F0;stroke-width:9.72"/>
	<line x1="1546.26" y1="2766.66" x2="1546.26" y2="2701.86" style="stroke:#F0F0F0;stroke-width:9.72"/>
	<line x1="1546.26" y1="2669.46" x2="1546.26" y2="2604.66" style="stroke:#F0F0F0;stroke-width:9.72"/>
	<line x1="1546.26" y1="2572.26" x2="1546.26" y2="2507.46" style="stroke:#F0F0F0;stroke-width:9.72"/>
	<line x1="1546.26" y1="2475.06" x2="1546.26" y2="2410.26" style="stroke:#F0F0F0;stroke-width:9.72"/>
	<line x1="1546.26" y1="2377.86" x2="1546.26" y2="2313.06" style="stroke:#F0F0F0;stroke-width:9.72"/>
	<line x1="1546.26" y1="2280.66" x2="1546.26" y2="2215.86" style="stroke:#F0F0F0;stroke-width:9.72"/>
	<line x1="1546.26" y1="2183.46" x2="1546.26" y2="2118.66" style="stroke:#F0F0F0;stroke-width:9.72"/>
	<line x1="1546.26" y1="2086.26" x2="1546.26" y2="2021.46" style="stroke:#F0F0F0;stroke-width:9.72"/>
	<line x1="1546.26" y1="1989.06" x2="1546.26" y2="1924.26" style="stroke:#F0F0F0;stroke-width:9.72"/>
	<line x1="1546.26" y1="1891.86" x2="1546.26" y2="1827.06" style="stroke:#F0F0F0;stroke-width:9.72"/>
	<line x1="1546.26" y1="1794.66" x2="1546.26" y2="1729.86" style="stroke:#F0F0F0;stroke-width:9.72"/>
	<line x1="1546.26" y1="1697.46" x2="1546.26" y2="1632.66" style="stroke:#F0F0F0;stroke-width:9.72"/>
	<line x1="1546.26" y1="1600.26" x2="1546.26" y2="1535.46" style="stroke:#F0F0F0;stroke-width:9.72"/>
	<line x1="1546.26" y1="1503.06" x2="1546.26" y2="1438.26" style="stroke:#F0F0F0;stroke-width:9.72"/>
	<line x1="1546.26" y1="1405.86" x2="1546.26" y2="1341.06" style="stroke:#F0F0F0;stroke-width:9.72"/>
	<line x1="1546.26" y1="1308.66" x2="1546.26" y2="1243.86" style="stroke:#F0F0F0;stroke-width:9.72"/>
	<line x1="1546.26" y1="1211.46" x2="1546.26" y2="1146.66" style="stroke:#F0F0F0;stroke-width:9.72"/>
	<line x1="1546.26" y1="1114.26" x2="1546.26" y2="1049.46" style="stroke:#F0F0F0;stroke-width:9.72"/>
	<line x1="1546.26" y1="1017.06" x2="1546.26" y2="952.26" style="stroke:#F0F0F0;stroke-width:9.72"/>
	<line x1="1546.26" y1="919.86" x2="1546.26" y2="855.06" style="stroke:#F0F0F0;stroke-width:9.72"/>
	<line x1="1546.26" y1="822.66" x2="1546.26" y2="757.86" style="stroke:#F0F0F0;stroke-width:9.72"/>
	<line x1="1546.26" y1="725.46" x2="1546.26" y2="660.66" style="stroke:#F0F0F0;stroke-width:9.72"/>
	<line x1="1546.26" y1="628.26" x2="1546.26" y2="563.46" style="stroke:#F0F0F0;stroke-width:9.72"/>
	<line x1="1546.26" y1="531.06" x2="1546.26" y2="466.26" style="stroke:#F0F0F0;stroke-width:9.72"/>
	<line x1="1546.26" y1="433.86" x2="1546.26" y2="369.06" style="stroke:#F0F0F0;stroke-width:9.72"/>
	<line x1="1546.26" y1="336.66" x2="1546.26" y2="271.86" style="stroke:#F0F0F0;stroke-width:9.72"/>
	<line x1="1546.26" y1="239.46" x2="1546.26" y2="174.66" style="stroke:#F0F0F0;stroke-width:9.72"/>
	<line x1="1546.26" y1="142.26" x2="1546.26" y2="113.40" style="stroke:#F0F0F0;stroke-width:9.72"/>
	<line x1="2463.58" y1="2766.66" x2="2463.58" y2="2701.86" style="stroke:#F0F0F0;stroke-width:9.72"/>
	<line x1="2463.58" y1="2669.46" x2="2463.58" y2="2604.66" style="stroke:#F0F0F0;stroke-width:9.72"/>
	<line x1="2463.58" y1="2572.26" x2="2463.58" y2="2507.46" style="stroke:#F0F0F0;stroke-width:9.72"/>
	<line x1="2463.58" y1="2475.06" x2="2463.58" y2="2410.26" style="stroke:#F0F0F0;stroke-width:9.72"/>
	<line x1="2463.58" y1="2377.86" x2="2463.58" y2="2313.06" style="stroke:#F0F0F0;stroke-width:9.72"/>
	<line x1="2463.58" y1="2280.66" x2="2463.58" y2="2215.86" style="stroke:#F0F0F0;stroke-width:9.72"/>
	<line x1="2463.58" y1="2183.46" x2="2463.58" y2="2118.66" style="stroke:#F0F0F0;stroke-width:9.72"/>
	<line x1="2463.58" y1="2086.26" x2="2463.58" y2="2021.46" style="stroke:#F0F0F0;stroke-width:9.72"/>
	<line x1="2463.58" y1="1989.06" x2="2463.58" y2="1924.26" style="stroke:#F0F0F0;stroke-width:9.72"/>
	<line x1="2463.58" y1="1891.86" x2="2463.58" y2="1827.06" style="stroke:#F0F0F0;stroke-width:9.72"/>
	<line x1="2463.58" y1="1794.66" x2="2463.58" y2="1729.86" style="stroke:#F0F0F0;stroke-width:9.72"/>
	<line x1="2463.58" y1="1697.46" x2="2463.58" y2="1632.66" style="stroke:#F0F0F0;stroke-width:9.72"/>
	<line x1="2463.58" y1="1600.26" x2="2463.58" y2="1535.46" style="stroke:#F0F0F0;stroke-width:9.72"/>
	<line x1="2463.58" y1="1503.06" x2="2463.58" y2="1438.26" style="stroke:#F0F0F0;stroke-width:9.72"/>
	<line x1="2463.58" y1="1405.86" x2="2463.58" y2="1341.06" style="stroke:#F0F0F0;stroke-width:9.72"/>
	<line x1="2463.58" y1="1308.66" x2="2463.58" y2="1243.86" style="stroke:#F0F0F0;stroke-width:9.72"/>
	<line x1="2463.58" y1="1211.46" x2="2463.58" y2="1146.66" style="stroke:#F0F0F0;stroke-width:9.72"/>
	<line x1="2463.58" y1="1114.26" x2="2463.58" y2="1049.46" style="stroke:#F0F0F0;stroke-width:9.72"/>
	<line x1="2463.58" y1="1017.06" x2="2463.58" y2="952.26" style="stroke:#F0F0F0;stroke-width:9.72"/>
	<line x1="2463.58" y1="919.86" x2="2463.58" y2="855.06" style="stroke:#F0F0F0;stroke-width:9.72"/>
	<line x1="2463.58" y1="822.66" x2="2463.58" y2="757.86" style="stroke:#F0F0F0;stroke-width:9.72"/>
	<line x1="2463.58" y1="725.46" x2="2463.58" y2="660.66" style="stroke:#F0F0F0;stroke-width:9.72"/>
	<line x1="2463.58" y1="628.26" x2="2463.58" y2="563.46" style="stroke:#F0F0F0;stroke-width:9.72"/>
	<line x1="2463.58" y1="531.06" x2="2463.58" y2="466.26" style="stroke:#F0F0F0;stroke-width:9.72"/>
	<line x1="2463.58" y1="433.86" x2="2463.58" y2="369.06" style="stroke:#F0F0F0;stroke-width:9.72"/>
	<line x1="2463.58" y1="336.66" x2="2463.58" y2="271.86" style="stroke:#F0F0F0;stroke-width:9.72"/>
	<line x1="2463.58" y1="239.46" x2="2463.58" y2="174.66" style="stroke:#F0F0F0;stroke-width:9.72"/>
	<line x1="2463.58" y1="142.26" x2="2463.58" y2="113.40" style="stroke:#F0F0F0;stroke-width:9.72"/>
	<line x1="3380.74" y1="2766.66" x2="3380.74" y2="2701.86" style="stroke:#F0F0F0;stroke-width:9.72"/>
	<line x1="3380.74" y1="2669.46" x2="3380.74" y2="2604.66" style="stroke:#F0F0F0;stroke-width:9.72"/>
	<line x1="3380.74" y1="2572.26" x2="3380.74" y2="2507.46" style="stroke:#F0F0F0;stroke-width:9.72"/>
	<line x1="3380.74" y1="2475.06" x2="3380.74" y2="2410.26" style="stroke:#F0F0F0;stroke-width:9.72"/>
	<line x1="3380.74" y1="2377.86" x2="3380.74" y2="2313.06" style="stroke:#F0F0F0;stroke-width:9.72"/>
	<line x1="3380.74" y1="2280.66" x2="3380.74" y2="2215.86" style="stroke:#F0F0F0;stroke-width:9.72"/>
	<line x1="3380.74" y1="2183.46" x2="3380.74" y2="2118.66" style="stroke:#F0F0F0;stroke-width:9.72"/>
	<line x1="3380.74" y1="2086.26" x2="3380.74" y2="2021.46" style="stroke:#F0F0F0;stroke-width:9.72"/>
	<line x1="3380.74" y1="1989.06" x2="3380.74" y2="1924.26" style="stroke:#F0F0F0;stroke-width:9.72"/>
	<line x1="3380.74" y1="1891.86" x2="3380.74" y2="1827.06" style="stroke:#F0F0F0;stroke-width:9.72"/>
	<line x1="3380.74" y1="1794.66" x2="3380.74" y2="1729.86" style="stroke:#F0F0F0;stroke-width:9.72"/>
	<line x1="3380.74" y1="1697.46" x2="3380.74" y2="1632.66" style="stroke:#F0F0F0;stroke-width:9.72"/>
	<line x1="3380.74" y1="1600.26" x2="3380.74" y2="1535.46" style="stroke:#F0F0F0;stroke-width:9.72"/>
	<line x1="3380.74" y1="1503.06" x2="3380.74" y2="1438.26" style="stroke:#F0F0F0;stroke-width:9.72"/>
	<line x1="3380.74" y1="1405.86" x2="3380.74" y2="1341.06" style="stroke:#F0F0F0;stroke-width:9.72"/>
	<line x1="3380.74" y1="1308.66" x2="3380.74" y2="1243.86" style="stroke:#F0F0F0;stroke-width:9.72"/>
	<line x1="3380.74" y1="1211.46" x2="3380.74" y2="1146.66" style="stroke:#F0F0F0;stroke-width:9.72"/>
	<line x1="3380.74" y1="1114.26" x2="3380.74" y2="1049.46" style="stroke:#F0F0F0;stroke-width:9.72"/>
	<line x1="3380.74" y1="1017.06" x2="3380.74" y2="952.26" style="stroke:#F0F0F0;stroke-width:9.72"/>
	<line x1="3380.74" y1="919.86" x2="3380.74" y2="855.06" style="stroke:#F0F0F0;stroke-width:9.72"/>
	<line x1="3380.74" y1="822.66" x2="3380.74" y2="757.86" style="stroke:#F0F0F0;stroke-width:9.72"/>
	<line x1="3380.74" y1="725.46" x2="3380.74" y2="660.66" style="stroke:#F0F0F0;stroke-width:9.72"/>
	<line x1="3380.74" y1="628.26" x2="3380.74" y2="563.46" style="stroke:#F0F0F0;stroke-width:9.72"/>
	<line x1="3380.74" y1="531.06" x2="3380.74" y2="466.26" style="stroke:#F0F0F0;stroke-width:9.72"/>
	<line x1="3380.74" y1="433.86" x2="3380.74" y2="369.06" style="stroke:#F0F0F0;stroke-width:9.72"/>
	<line x1="3380.74" y1="336.66" x2="3380.74" y2="271.86" style="stroke:#F0F0F0;stroke-width:9.72"/>
	<line x1="3380.74" y1="239.46" x2="3380.74" y2="174.66" style="stroke:#F0F0F0;stroke-width:9.72"/>
	<line x1="3380.74" y1="142.26" x2="3380.74" y2="113.40" style="stroke:#F0F0F0;stroke-width:9.72"/>
	<line x1="4298.06" y1="2766.66" x2="4298.06" y2="2701.86" style="stroke:#F0F0F0;stroke-width:9.72"/>
	<line x1="4298.06" y1="2669.46" x2="4298.06" y2="2604.66" style="stroke:#F0F0F0;stroke-width:9.72"/>
	<line x1="4298.06" y1="2572.26" x2="4298.06" y2="2507.46" style="stroke:#F0F0F0;stroke-width:9.72"/>
	<line x1="4298.06" y1="2475.06" x2="4298.06" y2="2410.26" style="stroke:#F0F0F0;stroke-width:9.72"/>
	<line x1="4298.06" y1="2377.86" x2="4298.06" y2="2313.06" style="stroke:#F0F0F0;stroke-width:9.72"/>
	<line x1="4298.06" y1="2280.66" x2="4298.06" y2="2215.86" style="stroke:#F0F0F0;stroke-width:9.72"/>
	<line x1="4298.06" y1="2183.46" x2="4298.06" y2="2118.66" style="stroke:#F0F0F0;stroke-width:9.72"/>
	<line x1="4298.06" y1="2086.26" x2="4298.06" y2="2021.46" style="stroke:#F0F0F0;stroke-width:9.72"/>
	<line x1="4298.06" y1="1989.06" x2="4298.06" y2="1924.26" style="stroke:#F0F0F0;stroke-width:9.72"/>
	<line x1="4298.06" y1="1891.86" x2="4298.06" y2="1827.06" style="stroke:#F0F0F0;stroke-width:9.72"/>
	<line x1="4298.06" y1="1794.66" x2="4298.06" y2="1729.86" style="stroke:#F0F0F0;stroke-width:9.72"/>
	<line x1="4298.06" y1="1697.46" x2="4298.06" y2="1632.66" style="stroke:#F0F0F0;stroke-width:9.72"/>
	<line x1="4298.06" y1="1600.26" x2="4298.06" y2="1535.46" style="stroke:#F0F0F0;stroke-width:9.72"/>
	<line x1="4298.06" y1="1503.06" x2="4298.06" y2="1438.26" style="stroke:#F0F0F0;stroke-width:9.72"/>
	<line x1="4298.06" y1="1405.86" x2="4298.06" y2="1341.06" style="stroke:#F0F0F0;stroke-width:9.72"/>
	<line x1="4298.06" y1="1308.66" x2="4298.06" y2="1243.86" style="stroke:#F0F0F0;stroke-width:9.72"/>
	<line x1="4298.06" y1="1211.46" x2="4298.06" y2="1146.66" style="stroke:#F0F0F0;stroke-width:9.72"/>
	<line x1="4298.06" y1="1114.26" x2="4298.06" y2="1049.46" style="stroke:#F0F0F0;stroke-width:9.72"/>
	<line x1="4298.06" y1="1017.06" x2="4298.06" y2="952.26" style="stroke:#F0F0F0;stroke-width:9.72"/>
	<line x1="4298.06" y1="919.86" x2="4298.06" y2="855.06" style="stroke:#F0F0F0;stroke-width:9.72"/>
	<line x1="4298.06" y1="822.66" x2="4298.06" y2="757.86" style="stroke:#F0F0F0;stroke-width:9.72"/>
	<line x1="4298.06" y1="725.46" x2="4298.06" y2="660.66" style="stroke:#F0F0F0;stroke-width:9.72"/>
	<line x1="4298.06" y1="628.26" x2="4298.06" y2="563.46" style="stroke:#F0F0F0;stroke-width:9.72"/>
	<line x1="4298.06" y1="531.06" x2="4298.06" y2="466.26" style="stroke:#F0F0F0;stroke-width:9.72"/>
	<line x1="4298.06" y1="433.86" x2="4298.06" y2="369.06" style="stroke:#F0F0F0;stroke-width:9.72"/>
	<line x1="4298.06" y1="336.66" x2="4298.06" y2="271.86" style="stroke:#F0F0F0;stroke-width:9.72"/>
	<line x1="4298.06" y1="239.46" x2="4298.06" y2="174.66" style="stroke:#F0F0F0;stroke-width:9.72"/>
	<line x1="4298.06" y1="142.26" x2="4298.06" y2="113.40" style="stroke:#F0F0F0;stroke-width:9.72"/>
	<line x1="5215.39" y1="2766.66" x2="5215.39" y2="2701.86" style="stroke:#F0F0F0;stroke-width:9.72"/>
	<line x1="5215.39" y1="2669.46" x2="5215.39" y2="2604.66" style="stroke:#F0F0F0;stroke-width:9.72"/>
	<line x1="5215.39" y1="2572.26" x2="5215.39" y2="2507.46" style="stroke:#F0F0F0;stroke-width:9.72"/>
	<line x1="5215.39" y1="2475.06" x2="5215.39" y2="2410.26" style="stroke:#F0F0F0;stroke-width:9.72"/>
	<line x1="5215.39" y1="2377.86" x2="5215.39" y2="2313.06" style="stroke:#F0F0F0;stroke-width:9.72"/>
	<line x1="5215.39" y1="2280.66" x2="5215.39" y2="2215.86" style="stroke:#F0F0F0;stroke-width:9.72"/>
	<line x1="5215.39" y1="2183.46" x2="5215.39" y2="2118.66" style="stroke:#F0F0F0;stroke-width:9.72"/>
	<line x1="5215.39" y1="2086.26" x2="5215.39" y2="2021.46" style="stroke:#F0F0F0;stroke-width:9.72"/>
	<line x1="5215.39" y1="1989.06" x2="5215.39" y2="1924.26" style="stroke:#F0F0F0;stroke-width:9.72"/>
	<line x1="5215.39" y1="1891.86" x2="5215.39" y2="1827.06" style="stroke:#F0F0F0;stroke-width:9.72"/>
	<line x1="5215.39" y1="1794.66" x2="5215.39" y2="1729.86" style="stroke:#F0F0F0;stroke-width:9.72"/>
	<line x1="5215.39" y1="1697.46" x2="5215.39" y2="1632.66" style="stroke:#F0F0F0;stroke-width:9.72"/>
	<line x1="5215.39" y1="1600.26" x2="5215.39" y2="1535.46" style="stroke:#F0F0F0;stroke-width:9.72"/>
	<line x1="5215.39" y1="1503.06" x2="5215.39" y2="1438.26" style="stroke:#F0F0F0;stroke-width:9.72"/>
	<line x1="5215.39" y1="1405.86" x2="5215.39" y2="1341.06" style="stroke:#F0F0F0;stroke-width:9.72"/>
	<line x1="5215.39" y1="1308.66" x2="5215.39" y2="1243.86" style="stroke:#F0F0F0;stroke-width:9.72"/>
	<line x1="5215.39" y1="1211.46" x2="5215.39" y2="1146.66" style="stroke:#F0F0F0;stroke-width:9.72"/>
	<line x1="5215.39" y1="1114.26" x2="5215.39" y2="1049.46" style="stroke:#F0F0F0;stroke-width:9.72"/>
	<line x1="5215.39" y1="1017.06" x2="5215.39" y2="952.26" style="stroke:#F0F0F0;stroke-width:9.72"/>
	<line x1="5215.39" y1="919.86" x2="5215.39" y2="855.06" style="stroke:#F0F0F0;stroke-width:9.72"/>
	<line x1="5215.39" y1="822.66" x2="5215.39" y2="757.86" style="stroke:#F0F0F0;stroke-width:9.72"/>
	<line x1="5215.39" y1="725.46" x2="5215.39" y2="660.66" style="stroke:#F0F0F0;stroke-width:9.72"/>
	<line x1="5215.39" y1="628.26" x2="5215.39" y2="563.46" style="stroke:#F0F0F0;stroke-width:9.72"/>
	<line x1="5215.39" y1="531.06" x2="5215.39" y2="466.26" style="stroke:#F0F0F0;stroke-width:9.72"/>
	<line x1="5215.39" y1="433.86" x2="5215.39" y2="369.06" style="stroke:#F0F0F0;stroke-width:9.72"/>
	<line x1="5215.39" y1="336.66" x2="5215.39" y2="271.86" style="stroke:#F0F0F0;stroke-width:9.72"/>
	<line x1="5215.39" y1="239.46" x2="5215.39" y2="174.66" style="stroke:#F0F0F0;stroke-width:9.72"/>
	<line x1="5215.39" y1="142.26" x2="5215.39" y2="113.40" style="stroke:#F0F0F0;stroke-width:9.72"/>
	<defs>
		<path id="path_ZxpZtpbm" d="M629.10 188.66 L629.10 188.66 L675.34 189.34 L721.74 192.38 L767.98 198.28 L814.39 207.06 L860.63 218.87 L907.03 233.55 L953.27 251.10 L999.68 271.01 L1045.91 293.46 L1092.32 318.43 L1138.56 345.43 L1184.96 374.63 L1231.20 405.68 L1277.61 438.24 L1324.01 472.50 L1370.25 507.77 L1416.66 544.05 L1462.89 581.01 L1509.30 618.64 L1555.54 656.44 L1601.94 694.57 L1648.18 732.71 L1694.59 770.85 L1740.83 808.82 L1787.23 846.62 L1833.47 884.25 L1879.88 921.54 L1926.11 958.50 L1972.52 995.12 L2018.76 1031.40 L2065.16 1067.34 L2111.40 1102.78 L2157.81 1137.54 L2204.21 1171.97 L2250.45 1205.55 L2296.86 1238.63 L2343.09 1271.03 L2389.50 1302.58 L2435.74 1333.46 L2482.14 1363.67 L2528.38 1393.03 L2574.79 1421.72 L2621.03 1449.90 L2667.43 1477.41 L2713.67 1504.58 L2760.08 1531.07 L2806.31 1557.23 L2852.72 1582.88 L2898.96 1608.02 L2945.36 1632.99 L2991.60 1657.46 L3038.01 1681.59 L3084.24 1705.56 L3130.65 1729.01 L3177.06 1752.30 L3223.29 1775.08 L3269.70 1797.69 L3315.94 1819.97 L3362.34 1842.08 L3408.58 1863.68 L3454.99 1885.11 L3501.23 1906.20 L3547.63 1927.13 L3593.87 1947.71 L3640.28 1967.96 L3686.51 1988.04 L3732.92 2007.96 L3779.16 2027.53 L3825.56 2046.94 L3871.80 2066.18 L3918.21 2085.07 L3964.44 2103.81 L4010.85 2122.37 L4057.09 2140.93 L4103.49 2159.16 L4149.90 2177.21 L4196.14 2195.10 L4242.54 2212.99 L4288.78 2230.71 L4335.19 2248.26 L4381.43 2265.64 L4427.83 2283.02 L4474.07 2300.23 L4520.48 2317.28 L4566.71 2334.32 L4613.12 2351.19 L4659.36 2368.07 L4705.76 2384.78 L4752.00 2401.31 L4798.41 2417.85 L4844.64 2434.39 L4891.05 2450.76 L4937.29 2467.13 L4983.69 2483.32 L5030.10 2499.53 L5076.34 2515.56 L5122.74 2531.59 L5168.98 2547.45 L5215.39 2563.31 L5215.39 2371.61 L5168.98 2357.94 L5122.74 2343.94 L5076.34 2329.93 L5030.10 2315.59 L4983.69 2301.24 L4937.29 2286.73 L4891.05 2271.88 L4844.64 2257.03 L4798.41 2241.84 L4752.00 2226.66 L4705.76 2211.30 L4659.36 2195.61 L4613.12 2179.74 L4566.71 2163.71 L4520.48 2147.51 L4474.07 2131.14 L4427.83 2114.61 L4381.43 2097.90 L4335.19 2080.86 L4288.78 2063.64 L4242.54 2046.26 L4196.14 2028.71 L4149.90 2010.99 L4103.49 1993.11 L4057.09 1974.88 L4010.85 1956.49 L3964.44 1937.93 L3918.21 1919.36 L3871.80 1900.29 L3825.56 1881.23 L3779.16 1861.99 L3732.92 1842.41 L3686.51 1822.84 L3640.28 1802.93 L3593.87 1783.01 L3547.63 1762.76 L3501.23 1742.34 L3454.99 1721.76 L3408.58 1700.83 L3362.34 1679.91 L3315.94 1658.64 L3269.70 1637.21 L3223.29 1615.44 L3177.06 1593.51 L3130.65 1571.23 L3084.24 1548.62 L3038.01 1525.67 L2991.60 1502.38 L2945.36 1478.59 L2898.96 1454.46 L2852.72 1429.82 L2806.31 1404.84 L2760.08 1379.36 L2713.67 1353.38 L2667.43 1326.88 L2621.03 1299.88 L2574.79 1272.38 L2528.38 1244.36 L2482.14 1216.01 L2435.74 1186.99 L2389.50 1157.46 L2343.09 1127.59 L2296.86 1097.04 L2250.45 1065.99 L2204.21 1034.61 L2157.81 1002.54 L2111.40 969.97 L2065.16 936.90 L2018.76 903.32 L1972.52 869.23 L1926.11 834.81 L1879.88 800.04 L1833.47 764.94 L1787.23 729.68 L1740.83 694.57 L1694.59 659.47 L1648.18 624.54 L1601.94 590.12 L1555.54 556.20 L1509.30 522.96 L1462.89 490.39 L1416.66 458.49 L1370.25 427.78 L1324.01 397.91 L1277.61 369.39 L1231.20 342.22 L1184.96 316.57 L1138.56 292.61 L1092.32 270.84 L1045.91 251.10 L999.68 233.89 L953.27 219.38 L907.03 207.73 L860.63 198.96 L814.39 193.22 L767.98 189.84 L721.74 188.66 L675.34 188.66 L629.10 188.66 L629.10 188.66 Z" stroke-linejoin="round"/>
	</defs>
	<defs>
		<clipPath id="clipPath_RBxJdaKP">
			<use xlink:href="#path_ZxpZtpbm"/>
		</clipPath>
	</defs>
	<use xlink:href="#path_ZxpZtpbm" style="stroke:none;fill:#FF3333;fill-opacity:0.25"/>
	<use xlink:href="#path_ZxpZtpbm" style="fill:none;stroke:#FF0000;stroke-opacity:0.25;stroke-width:19.44" clip-path="url(#clipPath_RBxJdaKP)"/>
	<defs>
		<path id="path_uVTryvia" d="M629.10 188.66 L629.10 188.66 L675.34 194.40 L721.74 204.02 L767.98 215.49 L814.39 228.15 L860.63 241.99 L907.03 256.84 L953.27 272.87 L999.68 289.74 L1045.91 307.97 L1092.32 327.21 L1138.56 347.46 L1184.96 368.89 L1231.20 391.33 L1277.61 414.79 L1324.01 439.26 L1370.25 464.40 L1416.66 490.39 L1462.89 517.05 L1509.30 544.22 L1555.54 571.89 L1601.94 600.07 L1648.18 628.76 L1694.59 657.62 L1740.83 686.98 L1787.23 716.34 L1833.47 746.21 L1879.88 776.25 L1926.11 806.29 L1972.52 836.66 L2018.76 867.21 L2065.16 897.75 L2111.40 928.29 L2157.81 959.01 L2204.21 989.72 L2250.45 1020.26 L2296.86 1050.64 L2343.09 1081.01 L2389.50 1111.22 L2435.74 1141.09 L2482.14 1170.79 L2528.38 1200.15 L2574.79 1229.34 L2621.03 1258.20 L2667.43 1286.72 L2713.67 1315.07 L2760.08 1342.91 L2806.31 1370.59 L2852.72 1397.93 L2898.96 1424.76 L2945.36 1451.25 L2991.60 1477.41 L3038.01 1503.23 L3084.24 1528.71 L3130.65 1553.68 L3177.06 1578.32 L3223.29 1602.62 L3269.70 1626.58 L3315.94 1650.38 L3362.34 1673.83 L3408.58 1696.95 L3454.99 1719.73 L3501.23 1742.51 L3547.63 1764.96 L3593.87 1787.23 L3640.28 1809.34 L3686.51 1831.11 L3732.92 1852.88 L3779.16 1874.64 L3825.56 1896.08 L3871.80 1917.51 L3918.21 1938.77 L3964.44 1960.03 L4010.85 1981.13 L4057.09 2002.22 L4103.49 2023.31 L4149.90 2044.24 L4196.14 2065.33 L4242.54 2086.26 L4288.78 2107.18 L4335.19 2127.94 L4381.43 2148.86 L4427.83 2169.62 L4474.07 2190.54 L4520.48 2211.30 L4566.71 2232.06 L4613.12 2252.81 L4659.36 2273.57 L4705.76 2294.32 L4752.00 2314.91 L4798.41 2335.67 L4844.64 2356.26 L4891.05 2376.84 L4937.29 2397.43 L4983.69 2417.85 L5030.10 2438.27 L5076.34 2458.69 L5122.74 2478.94 L5168.98 2499.19 L5215.39 2519.44 L5215.39 1945.18 L5168.98 1934.21 L5122.74 1922.91 L5076.34 1911.60 L5030.10 1899.96 L4983.69 1888.14 L4937.29 1876.16 L4891.05 1864.01 L4844.64 1851.69 L4798.41 1839.04 L4752.00 1826.21 L4705.76 1813.05 L4659.36 1799.72 L4613.12 1786.05 L4566.71 1772.21 L4520.48 1758.04 L4474.07 1743.69 L4427.83 1729.01 L4381.43 1713.99 L4335.19 1698.81 L4288.78 1683.28 L4242.54 1667.42 L4196.14 1651.39 L4149.90 1634.85 L4103.49 1618.14 L4057.09 1601.27 L4010.85 1583.89 L3964.44 1566.34 L3918.21 1548.45 L3871.80 1530.39 L3825.56 1512.00 L3779.16 1493.27 L3732.92 1474.37 L3686.51 1455.30 L3640.28 1435.89 L3593.87 1416.32 L3547.63 1396.41 L3501.23 1376.33 L3454.99 1356.08 L3408.58 1335.83 L3362.34 1315.07 L3315.94 1294.31 L3269.70 1273.56 L3223.29 1252.46 L3177.06 1231.20 L3130.65 1209.77 L3084.24 1188.17 L3038.01 1166.40 L2991.60 1144.46 L2945.36 1122.36 L2898.96 1099.91 L2852.72 1077.47 L2806.31 1054.69 L2760.08 1031.57 L2713.67 1008.28 L2667.43 984.82 L2621.03 961.03 L2574.79 936.90 L2528.38 912.60 L2482.14 887.96 L2435.74 863.16 L2389.50 838.01 L2343.09 812.70 L2296.86 787.05 L2250.45 761.40 L2204.21 735.75 L2157.81 709.76 L2111.40 684.11 L2065.16 658.29 L2018.76 632.64 L1972.52 607.33 L1926.11 582.36 L1879.88 557.72 L1833.47 533.59 L1787.23 509.96 L1740.83 486.84 L1694.59 464.57 L1648.18 442.80 L1601.94 421.71 L1555.54 401.46 L1509.30 381.71 L1462.89 362.81 L1416.66 344.76 L1370.25 327.21 L1324.01 310.50 L1277.61 294.47 L1231.20 279.28 L1184.96 264.77 L1138.56 251.10 L1092.32 238.44 L1045.91 226.63 L999.68 215.83 L953.27 206.38 L907.03 198.45 L860.63 192.04 L814.39 187.48 L767.98 185.12 L721.74 184.61 L675.34 186.30 L629.10 188.66 L629.10 188.66 Z" stroke-linejoin="round"/>
	</defs>
	<defs>
		<clipPath id="clipPath_bCpBQotZ">
			<use xlink:href="#path_uVTryvia"/>
		</clipPath>
	</defs>
	<use xlink:href="#path_uVTryvia" style="stroke:none;fill:#3333FF;fill-opacity:0.25"/>
	<use xlink:href="#path_uVTryvia" style="fill:none;stroke:#0000FF;stroke-opacity:0.25;stroke-width:19.44" clip-path="url(#clipPath_bCpBQotZ)"/>
	<path d=" M628.93 188.83 L675.34 189.00 L721.58 190.52 L767.98 194.06 L814.22 200.14 L860.63 209.08 L906.86 220.72 L953.27 235.24 L999.51 252.62 L1045.91 272.36 L1092.15 294.81 L1138.56 319.28 L1184.79 345.77 L1231.20 374.12 L1277.61 404.16 L1323.84 435.38 L1370.25 467.94 L1416.49 501.53 L1462.89 535.95 L1509.13 571.05 L1555.54 606.66 L1601.78 642.77 L1648.18 679.05 L1694.42 715.67 L1740.83 752.12 L1787.06 788.74 L1833.47 825.02 L1879.71 861.30 L1926.11 897.07 L1972.35 932.68 L2018.76 967.95 L2064.99 1002.71 L2111.40 1036.97 L2157.64 1070.72 L2204.04 1103.96 L2250.45 1136.53 L2296.69 1168.59 L2343.09 1199.98 L2389.33 1230.86 L2435.74 1261.07 L2481.98 1290.60 L2528.38 1319.46 L2574.62 1347.81 L2621.03 1375.65 L2667.26 1402.99 L2713.67 1429.82 L2759.91 1455.98 L2806.31 1481.79 L2852.55 1507.28 L2898.96 1532.08 L2945.19 1556.72 L2991.60 1580.85 L3037.84 1604.64 L3084.24 1627.93 L3130.65 1651.05 L3176.89 1673.83 L3223.29 1696.28 L3269.53 1718.55 L3315.94 1740.32 L3362.18 1761.92 L3408.58 1783.35 L3454.82 1804.44 L3501.23 1825.37 L3547.46 1845.96 L3593.87 1866.38 L3640.11 1886.63 L3686.51 1906.54 L3732.75 1926.28 L3779.16 1945.86 L3825.39 1965.26 L3871.80 1984.33 L3918.04 2003.40 L3964.44 2022.13 L4010.68 2040.69 L4057.09 2059.09 L4103.49 2077.31 L4149.73 2095.37 L4196.14 2113.09 L4242.38 2130.81 L4288.78 2148.36 L4335.02 2165.74 L4381.43 2182.95 L4427.66 2199.99 L4474.07 2217.04 L4520.31 2233.74 L4566.71 2250.28 L4612.95 2266.82 L4659.36 2283.19 L4705.59 2299.39 L4752.00 2315.42 L4798.24 2331.28 L4844.64 2347.14 L4890.88 2362.84 L4937.29 2378.36 L4983.52 2393.89 L5029.93 2409.07 L5076.34 2424.26 L5122.58 2439.45 L5168.98 2454.47 L5215.22 2469.32" stroke-linejoin="round" style="fill:none;stroke:#FF0000;stroke-width:9.72"/>
	<path d=" M628.93 188.83 L675.34 190.52 L721.58 194.40 L767.98 200.31 L814.22 208.07 L860.63 217.18 L906.86 227.81 L953.27 239.79 L999.51 253.13 L1045.91 267.47 L1092.15 282.99 L1138.56 299.70 L1184.79 317.25 L1231.20 335.64 L1277.61 355.05 L1323.84 375.30 L1370.25 396.39 L1416.49 418.16 L1462.89 440.61 L1509.13 463.72 L1555.54 487.52 L1601.78 511.82 L1648.18 536.79 L1694.42 562.11 L1740.83 588.09 L1787.06 614.42 L1833.47 641.25 L1879.71 668.25 L1926.11 695.76 L1972.35 723.60 L2018.76 751.61 L2064.99 779.79 L2111.40 807.97 L2157.64 836.32 L2204.04 864.68 L2250.45 892.86 L2296.69 921.04 L2343.09 949.05 L2389.33 976.89 L2435.74 1004.40 L2481.98 1031.91 L2528.38 1058.91 L2574.62 1085.74 L2621.03 1112.40 L2667.26 1138.72 L2713.67 1164.71 L2759.91 1190.36 L2806.31 1215.84 L2852.55 1240.99 L2898.96 1265.79 L2945.19 1290.43 L2991.60 1314.56 L3037.84 1338.53 L3084.24 1362.32 L3130.65 1385.61 L3176.89 1408.73 L3223.29 1431.68 L3269.53 1454.29 L3315.94 1476.73 L3362.18 1498.84 L3408.58 1520.78 L3454.82 1542.54 L3501.23 1564.14 L3547.46 1585.41 L3593.87 1606.67 L3640.11 1627.59 L3686.51 1648.18 L3732.75 1668.77 L3779.16 1689.19 L3825.39 1709.44 L3871.80 1729.35 L3918.04 1749.26 L3964.44 1768.84 L4010.68 1788.41 L4057.09 1807.65 L4103.49 1826.89 L4149.73 1845.96 L4196.14 1864.86 L4242.38 1883.42 L4288.78 1901.98 L4335.02 1920.54 L4381.43 1938.77 L4427.66 1956.83 L4474.07 1974.88 L4520.31 1992.77 L4566.71 2010.49 L4612.95 2028.21 L4659.36 2045.59 L4705.59 2062.97 L4752.00 2080.18 L4798.24 2097.39 L4844.64 2114.27 L4890.88 2131.14 L4937.29 2148.02 L4983.52 2164.56 L5029.93 2181.26 L5076.34 2197.63 L5122.58 2214.00 L5168.98 2230.20 L5215.22 2246.40" stroke-linejoin="round" style="fill:none;stroke:#0000FF;stroke-width:9.72"/>
	<line x1="557.72" y1="2766.66" x2="557.72" y2="113.40" style="stroke:#000000;stroke-width:6.48"/>
	<line x1="557.72" y1="2695.28" x2="512.83" y2="2695.28" style="stroke:#000000;stroke-width:6.48"/>
	<text x="490.22" y="2734.71" style="font-family:'Helvetica';font-size:112.56px;fill:#000000" text-anchor="end">0.5</text>
	<line x1="557.72" y1="2194.09" x2="512.83" y2="2194.09" style="stroke:#000000;stroke-width:6.48"/>
	<text x="490.22" y="2233.52" style="font-family:'Helvetica';font-size:112.56px;fill:#000000" text-anchor="end">0.6</text>
	<line x1="557.72" y1="1692.73" x2="512.83" y2="1692.73" style="stroke:#000000;stroke-width:6.48"/>
	<text x="490.22" y="1732.17" style="font-family:'Helvetica';font-size:112.56px;fill:#000000" text-anchor="end">0.7</text>
	<line x1="557.72" y1="1191.38" x2="512.83" y2="1191.38" style="stroke:#000000;stroke-width:6.48"/>
	<text x="490.22" y="1230.81" style="font-family:'Helvetica';font-size:112.56px;fill:#000000" text-anchor="end">0.8</text>
	<line x1="557.72" y1="690.02" x2="512.83" y2="690.02" style="stroke:#000000;stroke-width:6.48"/>
	<text x="490.22" y="729.46" style="font-family:'Helvetica';font-size:112.56px;fill:#000000" text-anchor="end">0.9</text>
	<line x1="557.72" y1="188.66" x2="512.83" y2="188.66" style="stroke:#000000;stroke-width:6.48"/>
	<text x="490.22" y="228.10" style="font-family:'Helvetica';font-size:112.56px;fill:#000000" text-anchor="end">1.0</text>
	<text x="214.55" y="1439.94" style="font-family:'Helvetica';font-size:112.56px;fill:#000000" transform="rotate(-90 214.55,1439.94)" text-anchor="middle">S(t)</text>
	<line x1="557.72" y1="2766.66" x2="5286.60" y2="2766.66" style="stroke:#000000;stroke-width:6.48"/>
	<line x1="629.10" y1="2766.66" x2="629.10" y2="2811.54" style="stroke:#000000;stroke-width:6.48"/>
	<text x="629.10" y="2912.86" style="font-family:'Helvetica';font-size:112.56px;fill:#000000" text-anchor="middle">0</text>
	<line x1="1546.26" y1="2766.66" x2="1546.26" y2="2811.54" style="stroke:#000000;stroke-width:6.48"/>
	<text x="1546.26" y="2912.86" style="font-family:'Helvetica';font-size:112.56px;fill:#000000" text-anchor="middle">2</text>
	<line x1="2463.58" y1="2766.66" x2="2463.58" y2="2811.54" style="stroke:#000000;stroke-width:6.48"/>
	<text x="2463.58" y="2912.86" style="font-family:'Helvetica';font-size:112.56px;fill:#000000" text-anchor="middle">4</text>
	<line x1="3380.74" y1="2766.66" x2="3380.74" y2="2811.54" style="stroke:#000000;stroke-width:6.48"/>
	<text x="3380.74" y="2912.86" style="font-family:'Helvetica';font-size:112.56px;fill:#000000" text-anchor="middle">6</text>
	<line x1="4298.06" y1="2766.66" x2="4298.06" y2="2811.54" style="stroke:#000000;stroke-width:6.48"/>
	<text x="4298.06" y="2912.86" style="font-family:'Helvetica';font-size:112.56px;fill:#000000" text-anchor="middle">8</text>
	<line x1="5215.39" y1="2766.66" x2="5215.39" y2="2811.54" style="stroke:#000000;stroke-width:6.48"/>
	<text x="5215.39" y="2912.86" style="font-family:'Helvetica';font-size:112.56px;fill:#000000" text-anchor="middle">10</text>
	<text x="2922.24" y="3070.31" style="font-family:'Helvetica';font-size:112.56px;fill:#000000" text-anchor="middle">Years from surgery</text>
	<rect x="3622.89" y="152.21" width="1624.89" height="367.20" style="fill:#FFFFFF"/>
	<rect x="3626.13" y="155.45" width="1618.41" height="360.72" style="fill:none;stroke:#FFFFFF;stroke-width:6.48"/>
	<rect x="3671.49" y="200.81" width="259.20" height="112.56" style="fill:#FF3333;fill-opacity:0.25"/>
	<rect x="3676.35" y="205.67" width="249.48" height="102.84" style="fill:none;stroke:#FF0000;stroke-opacity:0.25;stroke-width:9.72"/>
	<rect x="3671.49" y="358.43" width="259.20" height="112.39" style="fill:#3333FF;fill-opacity:0.25"/>
	<rect x="3676.35" y="363.29" width="249.48" height="102.67" style="fill:none;stroke:#0000FF;stroke-opacity:0.25;stroke-width:9.72"/>
	<text x="3998.19" y="296.61" style="font-family:'Helvetica';font-size:112.56px;fill:#000000">No hormonal treatment</text>
	<text x="3998.19" y="454.06" style="font-family:'Helvetica';font-size:112.56px;fill:#000000">Hormonal treatment</text>
</svg>
