<?xml version="1.0" encoding="UTF-8" standalone="no"?>
<!-- This is a Stata 18.5 generated SVG file (http://www.stata.com) -->

<svg version="1.1" width="700px" height="509px" viewBox="0 0 3960 2880" xmlns="http://www.w3.org/2000/svg" xmlns:xlink="http://www.w3.org/1999/xlink">
	<desc>Stata Graph - Graph</desc>
	<rect x="0" y="0" width="3960" height="2880" style="fill:#FFFFFF;stroke:none"/>
	<rect x="0.00" y="0.00" width="3959.88" height="2880.00" style="fill:#FFFFFF"/>
	<rect x="2.88" y="2.88" width="3954.12" height="2874.24" style="fill:none;stroke:#FFFFFF;stroke-width:5.76"/>
	<line x1="465.80" y1="2489.19" x2="3859.02" y2="2489.19" style="stroke:#C0C0C0;stroke-width:5.76"/>
	<line x1="465.80" y1="2011.50" x2="3859.02" y2="2011.50" style="stroke:#C0C0C0;stroke-width:5.76"/>
	<line x1="465.80" y1="1533.81" x2="3859.02" y2="1533.81" style="stroke:#C0C0C0;stroke-width:5.76"/>
	<line x1="465.80" y1="1056.12" x2="3859.02" y2="1056.12" style="stroke:#C0C0C0;stroke-width:5.76"/>
	<line x1="465.80" y1="578.43" x2="3859.02" y2="578.43" style="stroke:#C0C0C0;stroke-width:5.76"/>
	<line x1="465.80" y1="100.86" x2="3859.02" y2="100.86" style="stroke:#C0C0C0;stroke-width:5.76"/>
	<line x1="465.80" y1="2489.19" x2="465.80" y2="100.86" style="stroke:#C0C0C0;stroke-width:5.76"/>
	<line x1="1132.93" y1="2489.19" x2="1132.93" y2="100.86" style="stroke:#C0C0C0;stroke-width:5.76"/>
	<line x1="1800.07" y1="2489.19" x2="1800.07" y2="100.86" style="stroke:#C0C0C0;stroke-width:5.76"/>
	<line x1="2467.20" y1="2489.19" x2="2467.20" y2="100.86" style="stroke:#C0C0C0;stroke-width:5.76"/>
	<line x1="3134.34" y1="2489.19" x2="3134.34" y2="100.86" style="stroke:#C0C0C0;stroke-width:5.76"/>
	<line x1="3801.48" y1="2489.19" x2="3801.48" y2="100.86" style="stroke:#C0C0C0;stroke-width:5.76"/>
	<line x1="465.80" y1="1294.96" x2="523.34" y2="1294.96" style="stroke:#000000;stroke-width:8.64"/>
	<line x1="552.17" y1="1294.96" x2="609.84" y2="1294.96" style="stroke:#000000;stroke-width:8.64"/>
	<line x1="638.55" y1="1294.96" x2="696.22" y2="1294.96" style="stroke:#000000;stroke-width:8.64"/>
	<line x1="724.93" y1="1294.96" x2="782.60" y2="1294.96" style="stroke:#000000;stroke-width:8.64"/>
	<line x1="811.43" y1="1294.96" x2="868.97" y2="1294.96" style="stroke:#000000;stroke-width:8.64"/>
	<line x1="897.81" y1="1294.96" x2="955.35" y2="1294.96" style="stroke:#000000;stroke-width:8.64"/>
	<line x1="984.18" y1="1294.96" x2="1041.73" y2="1294.96" style="stroke:#000000;stroke-width:8.64"/>
	<line x1="1070.56" y1="1294.96" x2="1128.11" y2="1294.96" style="stroke:#000000;stroke-width:8.64"/>
	<line x1="1156.94" y1="1294.96" x2="1214.48" y2="1294.96" style="stroke:#000000;stroke-width:8.64"/>
	<line x1="1243.32" y1="1294.96" x2="1300.86" y2="1294.96" style="stroke:#000000;stroke-width:8.64"/>
	<line x1="1329.69" y1="1294.96" x2="1387.24" y2="1294.96" style="stroke:#000000;stroke-width:8.64"/>
	<line x1="1416.07" y1="1294.96" x2="1473.62" y2="1294.96" style="stroke:#000000;stroke-width:8.64"/>
	<line x1="1502.45" y1="1294.96" x2="1560.12" y2="1294.96" style="stroke:#000000;stroke-width:8.64"/>
	<line x1="1588.83" y1="1294.96" x2="1646.49" y2="1294.96" style="stroke:#000000;stroke-width:8.64"/>
	<line x1="1675.20" y1="1294.96" x2="1732.87" y2="1294.96" style="stroke:#000000;stroke-width:8.64"/>
	<line x1="1761.71" y1="1294.96" x2="1819.25" y2="1294.96" style="stroke:#000000;stroke-width:8.64"/>
	<line x1="1848.08" y1="1294.96" x2="1905.63" y2="1294.96" style="stroke:#000000;stroke-width:8.64"/>
	<line x1="1934.46" y1="1294.96" x2="1992.00" y2="1294.96" style="stroke:#000000;stroke-width:8.64"/>
	<line x1="2020.84" y1="1294.96" x2="2078.38" y2="1294.96" style="stroke:#000000;stroke-width:8.64"/>
	<line x1="2107.22" y1="1294.96" x2="2164.76" y2="1294.96" style="stroke:#000000;stroke-width:8.64"/>
	<line x1="2193.59" y1="1294.96" x2="2251.14" y2="1294.96" style="stroke:#000000;stroke-width:8.64"/>
	<line x1="2279.97" y1="1294.96" x2="2337.51" y2="1294.96" style="stroke:#000000;stroke-width:8.64"/>
	<line x1="2366.35" y1="1294.96" x2="2423.89" y2="1294.96" style="stroke:#000000;stroke-width:8.64"/>
	<line x1="2452.73" y1="1294.96" x2="2510.39" y2="1294.96" style="stroke:#000000;stroke-width:8.64"/>
	<line x1="2539.10" y1="1294.96" x2="2596.77" y2="1294.96" style="stroke:#000000;stroke-width:8.64"/>
	<line x1="2625.48" y1="1294.96" x2="2683.15" y2="1294.96" style="stroke:#000000;stroke-width:8.64"/>
	<line x1="2711.98" y1="1294.96" x2="2769.53" y2="1294.96" style="stroke:#000000;stroke-width:8.64"/>
	<line x1="2798.36" y1="1294.96" x2="2855.90" y2="1294.96" style="stroke:#000000;stroke-width:8.64"/>
	<line x1="2884.74" y1="1294.96" x2="2942.28" y2="1294.96" style="stroke:#000000;stroke-width:8.64"/>
	<line x1="2971.11" y1="1294.96" x2="3028.66" y2="1294.96" style="stroke:#000000;stroke-width:8.64"/>
	<line x1="3057.49" y1="1294.96" x2="3115.04" y2="1294.96" style="stroke:#000000;stroke-width:8.64"/>
	<line x1="3143.87" y1="1294.96" x2="3201.41" y2="1294.96" style="stroke:#000000;stroke-width:8.64"/>
	<line x1="3230.25" y1="1294.96" x2="3287.79" y2="1294.96" style="stroke:#000000;stroke-width:8.64"/>
	<line x1="3316.62" y1="1294.96" x2="3374.17" y2="1294.96" style="stroke:#000000;stroke-width:8.64"/>
	<line x1="3403.00" y1="1294.96" x2="3460.67" y2="1294.96" style="stroke:#000000;stroke-width:8.64"/>
	<line x1="3489.38" y1="1294.96" x2="3547.05" y2="1294.96" style="stroke:#000000;stroke-width:8.64"/>
	<line x1="3575.88" y1="1294.96" x2="3633.42" y2="1294.96" style="stroke:#000000;stroke-width:8.64"/>
	<line x1="3662.26" y1="1294.96" x2="3719.80" y2="1294.96" style="stroke:#000000;stroke-width:8.64"/>
	<line x1="3748.64" y1="1294.96" x2="3806.18" y2="1294.96" style="stroke:#000000;stroke-width:8.64"/>
	<line x1="3835.01" y1="1294.96" x2="3859.02" y2="1294.96" style="stroke:#000000;stroke-width:8.64"/>
	<line x1="465.80" y1="1294.96" x2="523.34" y2="1294.96" style="stroke:#000000;stroke-width:8.64"/>
	<line x1="552.17" y1="1294.96" x2="609.84" y2="1294.96" style="stroke:#000000;stroke-width:8.64"/>
	<line x1="638.55" y1="1294.96" x2="696.22" y2="1294.96" style="stroke:#000000;stroke-width:8.64"/>
	<line x1="724.93" y1="1294.96" x2="782.60" y2="1294.96" style="stroke:#000000;stroke-width:8.64"/>
	<line x1="811.43" y1="1294.96" x2="868.97" y2="1294.96" style="stroke:#000000;stroke-width:8.64"/>
	<line x1="897.81" y1="1294.96" x2="955.35" y2="1294.96" style="stroke:#000000;stroke-width:8.64"/>
	<line x1="984.18" y1="1294.96" x2="1041.73" y2="1294.96" style="stroke:#000000;stroke-width:8.64"/>
	<line x1="1070.56" y1="1294.96" x2="1128.11" y2="1294.96" style="stroke:#000000;stroke-width:8.64"/>
	<line x1="1156.94" y1="1294.96" x2="1214.48" y2="1294.96" style="stroke:#000000;stroke-width:8.64"/>
	<line x1="1243.32" y1="1294.96" x2="1300.86" y2="1294.96" style="stroke:#000000;stroke-width:8.64"/>
	<line x1="1329.69" y1="1294.96" x2="1387.24" y2="1294.96" style="stroke:#000000;stroke-width:8.64"/>
	<line x1="1416.07" y1="1294.96" x2="1473.62" y2="1294.96" style="stroke:#000000;stroke-width:8.64"/>
	<line x1="1502.45" y1="1294.96" x2="1560.12" y2="1294.96" style="stroke:#000000;stroke-width:8.64"/>
	<line x1="1588.83" y1="1294.96" x2="1646.49" y2="1294.96" style="stroke:#000000;stroke-width:8.64"/>
	<line x1="1675.20" y1="1294.96" x2="1732.87" y2="1294.96" style="stroke:#000000;stroke-width:8.64"/>
	<line x1="1761.71" y1="1294.96" x2="1819.25" y2="1294.96" style="stroke:#000000;stroke-width:8.64"/>
	<line x1="1848.08" y1="1294.96" x2="1905.63" y2="1294.96" style="stroke:#000000;stroke-width:8.64"/>
	<line x1="1934.46" y1="1294.96" x2="1992.00" y2="1294.96" style="stroke:#000000;stroke-width:8.64"/>
	<line x1="2020.84" y1="1294.96" x2="2078.38" y2="1294.96" style="stroke:#000000;stroke-width:8.64"/>
	<line x1="2107.22" y1="1294.96" x2="2164.76" y2="1294.96" style="stroke:#000000;stroke-width:8.64"/>
	<line x1="2193.59" y1="1294.96" x2="2251.14" y2="1294.96" style="stroke:#000000;stroke-width:8.64"/>
	<line x1="2279.97" y1="1294.96" x2="2337.51" y2="1294.96" style="stroke:#000000;stroke-width:8.64"/>
	<line x1="2366.35" y1="1294.96" x2="2423.89" y2="1294.96" style="stroke:#000000;stroke-width:8.64"/>
	<line x1="2452.73" y1="1294.96" x2="2510.39" y2="1294.96" style="stroke:#000000;stroke-width:8.64"/>
	<line x1="2539.10" y1="1294.96" x2="2596.77" y2="1294.96" style="stroke:#000000;stroke-width:8.64"/>
	<line x1="2625.48" y1="1294.96" x2="2683.15" y2="1294.96" style="stroke:#000000;stroke-width:8.64"/>
	<line x1="2711.98" y1="1294.96" x2="2769.53" y2="1294.96" style="stroke:#000000;stroke-width:8.64"/>
	<line x1="2798.36" y1="1294.96" x2="2855.90" y2="1294.96" style="stroke:#000000;stroke-width:8.64"/>
	<line x1="2884.74" y1="1294.96" x2="2942.28" y2="1294.96" style="stroke:#000000;stroke-width:8.64"/>
	<line x1="2971.11" y1="1294.96" x2="3028.66" y2="1294.96" style="stroke:#000000;stroke-width:8.64"/>
	<line x1="3057.49" y1="1294.96" x2="3115.04" y2="1294.96" style="stroke:#000000;stroke-width:8.64"/>
	<line x1="3143.87" y1="1294.96" x2="3201.41" y2="1294.96" style="stroke:#000000;stroke-width:8.64"/>
	<line x1="3230.25" y1="1294.96" x2="3287.79" y2="1294.96" style="stroke:#000000;stroke-width:8.64"/>
	<line x1="3316.62" y1="1294.96" x2="3374.17" y2="1294.96" style="stroke:#000000;stroke-width:8.64"/>
	<line x1="3403.00" y1="1294.96" x2="3460.67" y2="1294.96" style="stroke:#000000;stroke-width:8.64"/>
	<line x1="3489.38" y1="1294.96" x2="3547.05" y2="1294.96" style="stroke:#000000;stroke-width:8.64"/>
	<line x1="3575.88" y1="1294.96" x2="3633.42" y2="1294.96" style="stroke:#000000;stroke-width:8.64"/>
	<line x1="3662.26" y1="1294.96" x2="3719.80" y2="1294.96" style="stroke:#000000;stroke-width:8.64"/>
	<line x1="3748.64" y1="1294.96" x2="3806.18" y2="1294.96" style="stroke:#000000;stroke-width:8.64"/>
	<line x1="3835.01" y1="1294.96" x2="3859.02" y2="1294.96" style="stroke:#000000;stroke-width:8.64"/>
	<path d=" M465.67 100.86 L499.46 254.44 L533.12 424.48 L566.78 556.15 L600.43 654.91 L634.22 733.12 L667.88 798.46 L701.54 855.26 L735.32 906.13 L768.98 952.53 L802.64 995.60 L836.30 1035.94 L870.09 1073.56 L903.75 1108.83 L937.41 1142.00 L971.07 1173.19 L1004.85 1202.52 L1038.51 1230.11 L1072.17 1256.23 L1105.95 1280.85 L1139.61 1304.12 L1173.27 1326.27 L1206.93 1347.18 L1240.72 1367.11 L1274.38 1386.17 L1308.04 1404.11 L1341.82 1421.31 L1375.48 1437.77 L1409.14 1453.49 L1442.80 1468.46 L1476.59 1482.82 L1510.25 1496.68 L1543.91 1510.04 L1577.57 1522.79 L1611.35 1535.17 L1645.01 1547.05 L1678.67 1558.56 L1712.45 1569.69 L1746.11 1580.46 L1779.77 1590.86 L1813.43 1601.00 L1847.22 1610.78 L1880.88 1620.19 L1914.54 1629.47 L1948.20 1638.50 L1981.98 1647.16 L2015.64 1655.70 L2049.30 1663.99 L2083.08 1672.04 L2116.74 1679.96 L2150.40 1687.63 L2184.06 1695.06 L2217.85 1702.36 L2251.51 1709.54 L2285.17 1716.47 L2318.83 1723.40 L2352.61 1730.08 L2386.27 1736.51 L2419.93 1742.95 L2453.72 1749.26 L2487.38 1755.45 L2521.04 1761.39 L2554.70 1767.33 L2588.48 1773.15 L2622.14 1778.84 L2655.80 1784.41 L2689.46 1789.85 L2723.24 1795.30 L2756.90 1800.50 L2790.56 1805.69 L2824.35 1810.89 L2858.01 1815.84 L2891.67 1820.79 L2925.33 1825.62 L2959.11 1830.44 L2992.77 1835.15 L3026.43 1839.72 L3060.21 1844.30 L3093.87 1848.76 L3127.53 1853.21 L3161.19 1857.55 L3194.98 1861.88 L3228.64 1866.08 L3262.30 1870.17 L3295.96 1874.38 L3329.74 1878.34 L3363.40 1882.42 L3397.06 1886.26 L3430.85 1890.22 L3464.51 1894.05 L3498.17 1897.77 L3531.83 1901.48 L3565.61 1905.19 L3599.27 1908.90 L3632.93 1912.49 L3666.59 1915.96 L3700.37 1919.55 L3734.03 1923.01 L3767.69 1926.35 L3801.48 1929.69" stroke-linejoin="round" style="fill:none;stroke:#E41A1C;stroke-width:8.64"/>
	<path d=" M465.67 100.86 L499.46 234.64 L533.12 385.25 L566.78 504.05 L600.43 594.27 L634.22 666.41 L667.88 727.30 L701.54 780.52 L735.32 828.41 L768.98 872.46 L802.64 913.55 L836.30 952.16 L870.09 988.42 L903.75 1022.45 L937.41 1054.63 L971.07 1084.95 L1004.85 1113.54 L1038.51 1140.64 L1072.17 1166.26 L1105.95 1190.51 L1139.61 1213.53 L1173.27 1235.43 L1206.93 1256.23 L1240.72 1276.03 L1274.38 1294.96 L1308.04 1312.90 L1341.82 1330.11 L1375.48 1346.57 L1409.14 1362.28 L1442.80 1377.26 L1476.59 1391.74 L1510.25 1405.72 L1543.91 1419.09 L1577.57 1431.96 L1611.35 1444.46 L1645.01 1456.46 L1678.67 1468.09 L1712.45 1479.35 L1746.11 1490.24 L1779.77 1500.76 L1813.43 1511.03 L1847.22 1520.94 L1880.88 1530.59 L1914.54 1539.99 L1948.20 1549.15 L1981.98 1558.06 L2015.64 1566.72 L2049.30 1575.14 L2083.08 1583.31 L2116.74 1591.35 L2150.40 1599.15 L2184.06 1606.82 L2217.85 1614.25 L2251.51 1621.55 L2285.17 1628.72 L2318.83 1635.78 L2352.61 1642.59 L2386.27 1649.27 L2419.93 1655.83 L2453.72 1662.26 L2487.38 1668.57 L2521.04 1674.76 L2554.70 1680.83 L2588.48 1686.77 L2622.14 1692.58 L2655.80 1698.40 L2689.46 1703.97 L2723.24 1709.54 L2756.90 1714.98 L2790.56 1720.30 L2824.35 1725.50 L2858.01 1730.70 L2891.67 1735.77 L2925.33 1740.85 L2959.11 1745.67 L2992.77 1750.62 L3026.43 1755.32 L3060.21 1760.03 L3093.87 1764.73 L3127.53 1769.19 L3161.19 1773.76 L3194.98 1778.10 L3228.64 1782.55 L3262.30 1786.88 L3295.96 1791.09 L3329.74 1795.30 L3363.40 1799.38 L3397.06 1803.47 L3430.85 1807.55 L3464.51 1811.51 L3498.17 1815.35 L3531.83 1819.31 L3565.61 1823.02 L3599.27 1826.85 L3632.93 1830.57 L3666.59 1834.28 L3700.37 1837.87 L3734.03 1841.46 L3767.69 1845.05 L3801.48 1848.51" stroke-linejoin="round" style="fill:none;stroke:#377EB8;stroke-width:8.64"/>
	<line x1="465.80" y1="2489.19" x2="465.80" y2="100.86" style="stroke:#000000;stroke-width:5.76"/>
	<line x1="465.80" y1="2489.19" x2="425.82" y2="2489.19" style="stroke:#000000;stroke-width:5.76"/>
	<text x="405.78" y="2524.21" style="font-family:'Helvetica';font-size:99.99px;fill:#000000" text-anchor="end">0.0</text>
	<line x1="465.80" y1="2011.50" x2="425.82" y2="2011.50" style="stroke:#000000;stroke-width:5.76"/>
	<text x="405.78" y="2046.52" style="font-family:'Helvetica';font-size:99.99px;fill:#000000" text-anchor="end">0.2</text>
	<line x1="465.80" y1="1533.81" x2="425.82" y2="1533.81" style="stroke:#000000;stroke-width:5.76"/>
	<text x="405.78" y="1568.83" style="font-family:'Helvetica';font-size:99.99px;fill:#000000" text-anchor="end">0.4</text>
	<line x1="465.80" y1="1056.12" x2="425.82" y2="1056.12" style="stroke:#000000;stroke-width:5.76"/>
	<text x="405.78" y="1091.14" style="font-family:'Helvetica';font-size:99.99px;fill:#000000" text-anchor="end">0.6</text>
	<line x1="465.80" y1="578.43" x2="425.82" y2="578.43" style="stroke:#000000;stroke-width:5.76"/>
	<text x="405.78" y="613.45" style="font-family:'Helvetica';font-size:99.99px;fill:#000000" text-anchor="end">0.8</text>
	<line x1="465.80" y1="100.86" x2="425.82" y2="100.86" style="stroke:#000000;stroke-width:5.76"/>
	<text x="405.78" y="135.89" style="font-family:'Helvetica';font-size:99.99px;fill:#000000" text-anchor="end">1.0</text>
	<text x="190.71" y="1294.96" style="font-family:'Helvetica';font-size:99.99px;fill:#000000" transform="rotate(-90 190.71,1294.96)" text-anchor="middle">S(t)</text>
	<line x1="465.80" y1="2489.19" x2="3859.02" y2="2489.19" style="stroke:#000000;stroke-width:5.76"/>
	<line x1="465.80" y1="2489.19" x2="465.80" y2="2529.16" style="stroke:#000000;stroke-width:5.76"/>
	<text x="465.80" y="2619.14" style="font-family:'Helvetica';font-size:99.99px;fill:#000000" text-anchor="middle">0</text>
	<line x1="1132.93" y1="2489.19" x2="1132.93" y2="2529.16" style="stroke:#000000;stroke-width:5.76"/>
	<text x="1132.93" y="2619.14" style="font-family:'Helvetica';font-size:99.99px;fill:#000000" text-anchor="middle">2</text>
	<line x1="1800.07" y1="2489.19" x2="1800.07" y2="2529.16" style="stroke:#000000;stroke-width:5.76"/>
	<text x="1800.07" y="2619.14" style="font-family:'Helvetica';font-size:99.99px;fill:#000000" text-anchor="middle">4</text>
	<line x1="2467.20" y1="2489.19" x2="2467.20" y2="2529.16" style="stroke:#000000;stroke-width:5.76"/>
	<text x="2467.20" y="2619.14" style="font-family:'Helvetica';font-size:99.99px;fill:#000000" text-anchor="middle">6</text>
	<line x1="3134.34" y1="2489.19" x2="3134.34" y2="2529.16" style="stroke:#000000;stroke-width:5.76"/>
	<text x="3134.34" y="2619.14" style="font-family:'Helvetica';font-size:99.99px;fill:#000000" text-anchor="middle">8</text>
	<line x1="3801.48" y1="2489.19" x2="3801.48" y2="2529.16" style="stroke:#000000;stroke-width:5.76"/>
	<text x="3801.48" y="2619.14" style="font-family:'Helvetica';font-size:99.99px;fill:#000000" text-anchor="middle">10</text>
	<text x="2162.41" y="2729.16" style="font-family:'Helvetica';font-size:99.99px;fill:#000000" text-anchor="middle">Years since diagnosis</text>
	<line x1="3171.34" y1="228.57" x2="3371.32" y2="228.57" style="stroke:#E41A1C;stroke-width:8.64"/>
	<line x1="3171.34" y1="368.54" x2="3371.32" y2="368.54" style="stroke:#377EB8;stroke-width:8.64"/>
	<text x="3431.34" y="263.60" style="font-family:'Helvetica';font-size:99.99px;fill:#000000">Male</text>
	<text x="3431.34" y="403.57" style="font-family:'Helvetica';font-size:99.99px;fill:#000000">Female</text>
</svg>
