<?xml version="1.0" encoding="UTF-8" standalone="no"?>
<!-- This is a Stata 18.5 generated SVG file (http://www.stata.com) -->

<svg version="1.1" width="700px" height="509px" viewBox="0 0 3960 2880" xmlns="http://www.w3.org/2000/svg" xmlns:xlink="http://www.w3.org/1999/xlink">
	<desc>Stata Graph - Graph</desc>
	<rect x="0" y="0" width="3960" height="2880" style="fill:#FFFFFF;stroke:none"/>
	<rect x="0.00" y="0.00" width="3959.88" height="2880.00" style="fill:#FFFFFF"/>
	<rect x="2.88" y="2.88" width="3954.12" height="2874.24" style="fill:none;stroke:#FFFFFF;stroke-width:5.76"/>
	<line x1="524.08" y1="2488.81" x2="3859.02" y2="2488.81" style="stroke:#C0C0C0;stroke-width:5.76"/>
	<line x1="524.08" y1="1402.26" x2="3859.02" y2="1402.26" style="stroke:#C0C0C0;stroke-width:5.76"/>
	<line x1="524.08" y1="315.57" x2="3859.02" y2="315.57" style="stroke:#C0C0C0;stroke-width:5.76"/>
	<line x1="524.08" y1="2489.19" x2="524.08" y2="100.86" style="stroke:#C0C0C0;stroke-width:5.76"/>
	<line x1="1179.59" y1="2489.19" x2="1179.59" y2="100.86" style="stroke:#C0C0C0;stroke-width:5.76"/>
	<line x1="1835.09" y1="2489.19" x2="1835.09" y2="100.86" style="stroke:#C0C0C0;stroke-width:5.76"/>
	<line x1="2490.59" y1="2489.19" x2="2490.59" y2="100.86" style="stroke:#C0C0C0;stroke-width:5.76"/>
	<line x1="3145.97" y1="2489.19" x2="3145.97" y2="100.86" style="stroke:#C0C0C0;stroke-width:5.76"/>
	<line x1="3801.48" y1="2489.19" x2="3801.48" y2="100.86" style="stroke:#C0C0C0;stroke-width:5.76"/>
	<defs>
		<path id="path_TXcGqlgq" d="M524.08 2488.81 L524.08 2488.81 L556.88 2489.06 L589.67 2489.19 L622.46 2488.81 L655.26 2487.45 L687.93 2485.35 L720.72 2482.26 L753.51 2478.42 L786.31 2473.96 L819.10 2468.77 L851.90 2463.07 L884.57 2457.01 L917.36 2450.45 L950.15 2443.52 L982.95 2436.34 L1015.74 2428.92 L1048.53 2421.24 L1081.20 2413.45 L1114.00 2405.53 L1146.79 2397.48 L1179.59 2389.44 L1212.38 2381.40 L1245.17 2373.23 L1277.97 2365.18 L1310.64 2357.26 L1343.43 2349.34 L1376.22 2341.55 L1409.02 2333.87 L1441.81 2326.33 L1474.61 2319.02 L1507.28 2311.85 L1540.07 2304.92 L1572.86 2298.11 L1605.66 2291.55 L1638.45 2285.24 L1671.24 2279.05 L1703.91 2272.99 L1736.71 2267.29 L1769.50 2261.60 L1802.30 2256.28 L1835.09 2250.96 L1867.88 2246.01 L1900.55 2241.06 L1933.35 2236.36 L1966.14 2231.90 L1998.93 2227.45 L2031.73 2223.24 L2064.52 2219.15 L2097.19 2215.19 L2129.99 2211.36 L2162.78 2207.65 L2195.57 2203.93 L2228.37 2200.47 L2261.16 2197.13 L2293.83 2193.78 L2326.62 2190.57 L2359.42 2187.47 L2392.21 2184.50 L2425.01 2181.53 L2457.80 2178.69 L2490.59 2175.84 L2523.26 2173.24 L2556.06 2170.52 L2588.85 2167.92 L2621.64 2165.45 L2654.44 2163.09 L2687.23 2160.62 L2719.90 2158.39 L2752.70 2156.16 L2785.49 2153.94 L2818.28 2151.83 L2851.08 2149.73 L2883.87 2147.62 L2916.54 2145.77 L2949.33 2143.79 L2982.13 2141.93 L3014.92 2140.08 L3047.72 2138.34 L3080.51 2136.61 L3113.18 2135.00 L3145.97 2133.27 L3178.77 2131.78 L3211.56 2130.18 L3244.35 2128.69 L3277.15 2127.21 L3309.82 2125.84 L3342.61 2124.48 L3375.41 2123.12 L3408.20 2121.76 L3440.99 2120.52 L3473.79 2119.28 L3506.46 2118.17 L3539.25 2116.93 L3572.04 2115.82 L3604.84 2114.71 L3637.63 2113.72 L3670.43 2112.73 L3703.22 2111.61 L3735.89 2110.75 L3768.68 2109.76 L3801.48 2108.89 L3801.48 100.86 L3768.68 108.78 L3735.89 116.95 L3703.22 125.36 L3670.43 133.90 L3637.63 142.56 L3604.84 151.35 L3572.04 160.39 L3539.25 169.67 L3506.46 179.07 L3473.79 188.60 L3440.99 198.38 L3408.20 208.40 L3375.41 218.55 L3342.61 228.94 L3309.82 239.59 L3277.15 250.35 L3244.35 261.49 L3211.56 272.75 L3178.77 284.26 L3145.97 296.02 L3113.18 307.90 L3080.51 320.15 L3047.72 332.65 L3014.92 345.40 L2982.13 358.51 L2949.33 371.76 L2916.54 385.37 L2883.87 399.23 L2851.08 413.46 L2818.28 427.94 L2785.49 442.79 L2752.70 457.89 L2719.90 473.36 L2687.23 489.20 L2654.44 505.41 L2621.64 521.87 L2588.85 538.82 L2556.06 556.15 L2523.26 573.85 L2490.59 591.91 L2457.80 610.48 L2425.01 629.54 L2392.21 648.97 L2359.42 668.89 L2326.62 689.31 L2293.83 710.22 L2261.16 731.63 L2228.37 753.78 L2195.57 776.31 L2162.78 799.57 L2129.99 823.46 L2097.19 848.09 L2064.52 873.33 L2031.73 899.32 L1998.93 926.17 L1966.14 953.77 L1933.35 982.23 L1900.55 1011.56 L1867.88 1041.88 L1835.09 1073.07 L1802.30 1105.37 L1769.50 1138.66 L1736.71 1173.06 L1703.91 1208.58 L1671.24 1245.21 L1638.45 1282.83 L1605.66 1321.57 L1572.86 1361.29 L1540.07 1402.01 L1507.28 1443.71 L1474.61 1486.41 L1441.81 1529.85 L1409.02 1574.15 L1376.22 1619.20 L1343.43 1664.86 L1310.64 1711.14 L1277.97 1757.68 L1245.17 1804.58 L1212.38 1851.73 L1179.59 1898.76 L1146.79 1945.66 L1114.00 1992.19 L1081.20 2038.23 L1048.53 2083.52 L1015.74 2127.82 L982.95 2170.89 L950.15 2212.35 L917.36 2251.95 L884.57 2289.32 L851.90 2324.35 L819.10 2356.52 L786.31 2385.60 L753.51 2411.47 L720.72 2433.62 L687.93 2451.94 L655.26 2466.54 L622.46 2477.30 L589.67 2484.36 L556.88 2487.95 L524.08 2488.81 L524.08 2488.81 Z" stroke-linejoin="round"/>
	</defs>
	<defs>
		<clipPath id="clipPath_CPIaPKWN">
			<use xlink:href="#path_TXcGqlgq"/>
		</clipPath>
	</defs>
	<use xlink:href="#path_TXcGqlgq" style="stroke:none;fill:#FF3333;fill-opacity:0.25"/>
	<use xlink:href="#path_TXcGqlgq" style="fill:none;stroke:#FF0000;stroke-opacity:0.25;stroke-width:17.28" clip-path="url(#clipPath_CPIaPKWN)"/>
	<path d=" M524.08 2488.94 L556.88 2488.57 L589.54 2486.83 L622.34 2483.12 L655.13 2477.06 L687.93 2468.77 L720.72 2458.00 L753.51 2445.01 L786.18 2429.91 L818.98 2412.71 L851.77 2393.77 L884.57 2373.23 L917.36 2351.20 L950.15 2327.93 L982.82 2303.68 L1015.62 2278.43 L1048.41 2252.44 L1081.20 2225.96 L1114.00 2198.98 L1146.79 2171.63 L1179.46 2144.16 L1212.26 2116.56 L1245.05 2088.97 L1277.84 2061.49 L1310.64 2034.27 L1343.43 2007.16 L1376.22 1980.43 L1408.89 1954.07 L1441.69 1928.21 L1474.48 1902.72 L1507.28 1877.84 L1540.07 1853.59 L1572.86 1829.82 L1605.53 1806.56 L1638.33 1784.04 L1671.12 1762.13 L1703.91 1740.85 L1736.71 1720.18 L1769.50 1700.25 L1802.17 1680.83 L1834.97 1662.14 L1867.76 1643.95 L1900.55 1626.37 L1933.35 1609.42 L1966.14 1592.84 L1998.81 1576.87 L2031.60 1561.40 L2064.40 1546.30 L2097.19 1531.70 L2129.99 1517.47 L2162.78 1503.61 L2195.45 1490.24 L2228.24 1477.13 L2261.04 1464.50 L2293.83 1452.13 L2326.62 1440.00 L2359.42 1428.24 L2392.09 1416.73 L2424.88 1405.60 L2457.68 1394.71 L2490.47 1383.94 L2523.26 1373.54 L2556.06 1363.40 L2588.85 1353.50 L2621.52 1343.72 L2654.31 1334.31 L2687.11 1325.03 L2719.90 1315.87 L2752.70 1307.09 L2785.49 1298.43 L2818.16 1289.89 L2850.95 1281.60 L2883.75 1273.55 L2916.54 1265.63 L2949.33 1257.83 L2982.13 1250.29 L3014.80 1242.86 L3047.59 1235.56 L3080.39 1228.50 L3113.18 1221.57 L3145.97 1214.77 L3178.77 1208.09 L3211.44 1201.53 L3244.23 1195.09 L3277.02 1188.90 L3309.82 1182.72 L3342.61 1176.78 L3375.41 1170.96 L3408.08 1165.14 L3440.87 1159.57 L3473.66 1154.00 L3506.46 1148.68 L3539.25 1143.36 L3572.04 1138.16 L3604.84 1133.09 L3637.51 1128.14 L3670.30 1123.31 L3703.10 1118.61 L3735.89 1113.91 L3768.68 1109.33 L3801.48 1104.87" stroke-linejoin="round" style="fill:none;stroke:#FF0000;stroke-width:8.64"/>
	<line x1="524.08" y1="2489.19" x2="524.08" y2="100.86" style="stroke:#000000;stroke-width:5.76"/>
	<line x1="524.08" y1="2488.81" x2="484.11" y2="2488.81" style="stroke:#000000;stroke-width:5.76"/>
	<text x="464.06" y="2523.84" style="font-family:'Helvetica';font-size:99.99px;fill:#000000" text-anchor="end">0.00</text>
	<line x1="524.08" y1="1402.26" x2="484.11" y2="1402.26" style="stroke:#000000;stroke-width:5.76"/>
	<text x="464.06" y="1437.28" style="font-family:'Helvetica';font-size:99.99px;fill:#000000" text-anchor="end">0.05</text>
	<line x1="524.08" y1="315.57" x2="484.11" y2="315.57" style="stroke:#000000;stroke-width:5.76"/>
	<text x="464.06" y="350.60" style="font-family:'Helvetica';font-size:99.99px;fill:#000000" text-anchor="end">0.10</text>
	<text x="190.71" y="1294.96" style="font-family:'Helvetica';font-size:99.99px;fill:#000000" transform="rotate(-90 190.71,1294.96)" text-anchor="middle">Difference in S(t)</text>
	<line x1="524.08" y1="2489.19" x2="3859.02" y2="2489.19" style="stroke:#000000;stroke-width:5.76"/>
	<line x1="524.08" y1="2489.19" x2="524.08" y2="2529.16" style="stroke:#000000;stroke-width:5.76"/>
	<text x="524.08" y="2619.14" style="font-family:'Helvetica';font-size:99.99px;fill:#000000" text-anchor="middle">0</text>
	<line x1="1179.59" y1="2489.19" x2="1179.59" y2="2529.16" style="stroke:#000000;stroke-width:5.76"/>
	<text x="1179.59" y="2619.14" style="font-family:'Helvetica';font-size:99.99px;fill:#000000" text-anchor="middle">2</text>
	<line x1="1835.09" y1="2489.19" x2="1835.09" y2="2529.16" style="stroke:#000000;stroke-width:5.76"/>
	<text x="1835.09" y="2619.14" style="font-family:'Helvetica';font-size:99.99px;fill:#000000" text-anchor="middle">4</text>
	<line x1="2490.59" y1="2489.19" x2="2490.59" y2="2529.16" style="stroke:#000000;stroke-width:5.76"/>
	<text x="2490.59" y="2619.14" style="font-family:'Helvetica';font-size:99.99px;fill:#000000" text-anchor="middle">6</text>
	<line x1="3145.97" y1="2489.19" x2="3145.97" y2="2529.16" style="stroke:#000000;stroke-width:5.76"/>
	<text x="3145.97" y="2619.14" style="font-family:'Helvetica';font-size:99.99px;fill:#000000" text-anchor="middle">8</text>
	<line x1="3801.48" y1="2489.19" x2="3801.48" y2="2529.16" style="stroke:#000000;stroke-width:5.76"/>
	<text x="3801.48" y="2619.14" style="font-family:'Helvetica';font-size:99.99px;fill:#000000" text-anchor="middle">10</text>
	<text x="2191.61" y="2729.16" style="font-family:'Helvetica';font-size:99.99px;fill:#000000" text-anchor="middle">Years from surgery</text>
</svg>
