<?xml version="1.0" encoding="UTF-8" standalone="no"?>
<!-- This is a Stata 18.5 generated SVG file (http://www.stata.com) -->

<svg version="1.1" width="700px" height="509px" viewBox="0 0 3960 2880" xmlns="http://www.w3.org/2000/svg" xmlns:xlink="http://www.w3.org/1999/xlink">
	<desc>Stata Graph - cif_relapse</desc>
	<rect x="0" y="0" width="3960" height="2880" style="fill:#FFFFFF;stroke:none"/>
	<rect x="0.00" y="0.00" width="3959.88" height="2880.00" style="fill:#FFFFFF"/>
	<rect x="2.88" y="2.88" width="3954.12" height="2874.24" style="fill:none;stroke:#FFFFFF;stroke-width:5.76"/>
	<line x1="465.80" y1="2489.19" x2="3859.02" y2="2489.19" style="stroke:#C0C0C0;stroke-opacity:0.50;stroke-width:5.76"/>
	<line x1="465.80" y1="2046.39" x2="3859.02" y2="2046.39" style="stroke:#C0C0C0;stroke-opacity:0.50;stroke-width:5.76"/>
	<line x1="465.80" y1="1603.73" x2="3859.02" y2="1603.73" style="stroke:#C0C0C0;stroke-opacity:0.50;stroke-width:5.76"/>
	<line x1="465.80" y1="1160.94" x2="3859.02" y2="1160.94" style="stroke:#C0C0C0;stroke-opacity:0.50;stroke-width:5.76"/>
	<line x1="465.80" y1="718.14" x2="3859.02" y2="718.14" style="stroke:#C0C0C0;stroke-opacity:0.50;stroke-width:5.76"/>
	<line x1="465.80" y1="275.35" x2="3859.02" y2="275.35" style="stroke:#C0C0C0;stroke-opacity:0.50;stroke-width:5.76"/>
	<line x1="465.80" y1="2489.19" x2="465.80" y2="275.35" style="stroke:#C0C0C0;stroke-opacity:0.50;stroke-width:5.76"/>
	<line x1="1254.83" y1="2489.19" x2="1254.83" y2="275.35" style="stroke:#C0C0C0;stroke-opacity:0.50;stroke-width:5.76"/>
	<line x1="2043.98" y1="2489.19" x2="2043.98" y2="275.35" style="stroke:#C0C0C0;stroke-opacity:0.50;stroke-width:5.76"/>
	<line x1="2833.01" y1="2489.19" x2="2833.01" y2="275.35" style="stroke:#C0C0C0;stroke-opacity:0.50;stroke-width:5.76"/>
	<line x1="3622.16" y1="2489.19" x2="3622.16" y2="275.35" style="stroke:#C0C0C0;stroke-opacity:0.50;stroke-width:5.76"/>
	<path d=" M465.67 2489.31 L465.67 2489.31 L465.67 2489.31 L465.67 2489.31 L465.67 2489.31 L493.76 2489.31 L493.76 2478.42 L497.10 2478.42 L497.10 2467.40 L499.21 2467.40 L499.21 2467.40 L502.43 2467.40 L502.43 2467.40 L503.54 2467.40 L503.54 2467.40 L504.65 2467.40 L504.65 2467.40 L509.97 2467.40 L509.97 2467.40 L515.42 2467.40 L515.42 2467.40 L516.53 2467.40 L516.53 2467.40 L517.52 2467.40 L517.52 2467.40 L529.40 2467.40 L529.40 2456.51 L530.52 2456.51 L530.52 2445.50 L545.61 2445.50 L545.61 2434.49 L547.84 2434.49 L547.84 2423.47 L549.95 2423.47 L549.95 2412.46 L551.06 2412.46 L551.06 2412.46 L555.39 2412.46 L555.39 2401.44 L556.50 2401.44 L556.50 2401.44 L559.72 2401.44 L559.72 2390.43 L560.84 2390.43 L560.84 2390.43 L561.83 2390.43 L561.83 2390.43 L562.94 2390.43 L562.94 2390.43 L568.38 2390.43 L568.38 2390.43 L573.71 2390.43 L573.71 2390.43 L574.82 2390.43 L574.82 2379.29 L576.92 2379.29 L576.92 2368.28 L580.26 2368.28 L580.26 2357.14 L584.60 2357.14 L584.60 2357.14 L585.59 2357.14 L585.59 2346.00 L594.25 2346.00 L594.25 2334.86 L607.24 2334.86 L607.24 2323.73 L612.69 2323.73 L612.69 2323.73 L625.56 2323.73 L625.56 2312.46 L628.77 2312.46 L628.77 2301.33 L631.00 2301.33 L631.00 2290.19 L633.11 2290.19 L633.11 2278.93 L641.77 2278.93 L641.77 2267.79 L648.33 2267.79 L648.33 2256.65 L659.09 2256.65 L659.09 2245.39 L672.09 2245.39 L672.09 2234.25 L673.08 2234.25 L673.08 2211.85 L677.41 2211.85 L677.41 2200.72 L679.64 2200.72 L679.64 2200.72 L682.85 2200.72 L682.85 2200.72 L683.97 2200.72 L683.97 2200.72 L690.40 2200.72 L690.40 2200.72 L691.52 2200.72 L691.52 2200.72 L700.18 2200.72 L700.18 2189.45 L703.40 2189.45 L703.40 2189.45 L704.39 2189.45 L704.39 2189.45 L730.37 2189.45 L730.37 2178.07 L745.47 2178.07 L745.47 2166.81 L747.70 2166.81 L747.70 2155.42 L752.03 2155.42 L752.03 2144.16 L769.23 2144.16 L769.23 2132.77 L782.22 2132.77 L782.22 2121.39 L789.77 2121.39 L789.77 2121.39 L812.42 2121.39 L812.42 2110.13 L819.97 2110.13 L819.97 2098.74 L828.63 2098.74 L828.63 2087.36 L834.08 2087.36 L834.08 2075.97 L849.17 2075.97 L849.17 2075.97 L850.29 2075.97 L850.29 2075.97 L852.39 2075.97 L852.39 2075.97 L856.72 2075.97 L856.72 2075.97 L858.95 2075.97 L858.95 2075.97 L859.94 2075.97 L859.94 2064.46 L868.60 2064.46 L868.60 2052.95 L872.93 2052.95 L872.93 2041.32 L876.15 2041.32 L876.15 2029.81 L877.26 2029.81 L877.26 2018.30 L892.36 2018.30 L892.36 2006.79 L901.02 2006.79 L901.02 1995.28 L907.58 1995.28 L907.58 1983.65 L908.57 1983.65 L908.57 1972.14 L923.67 1972.14 L923.67 1972.14 L929.12 1972.14 L929.12 1972.14 L951.76 1972.14 L951.76 1960.51 L956.09 1960.51 L956.09 1960.51 L973.42 1960.51 L973.42 1960.51 L988.52 1960.51 L988.52 1960.51 L996.06 1960.51 L996.06 1960.51 L1002.62 1960.51 L1002.62 1960.51 L1005.84 1960.51 L1005.84 1960.51 L1027.37 1960.51 L1027.37 1960.51 L1041.48 1960.51 L1041.48 1960.51 L1049.03 1960.51 L1049.03 1948.63 L1052.25 1948.63 L1052.25 1948.63 L1055.46 1948.63 L1055.46 1948.63 L1057.69 1948.63 L1057.69 1936.62 L1063.14 1936.62 L1063.14 1936.62 L1082.57 1936.62 L1082.57 1936.62 L1095.44 1936.62 L1095.44 1936.62 L1123.53 1936.62 L1123.53 1936.62 L1135.41 1936.62 L1135.41 1936.62 L1137.63 1936.62 L1137.63 1936.62 L1145.18 1936.62 L1145.18 1936.62 L1148.40 1936.62 L1148.40 1936.62 L1149.51 1936.62 L1149.51 1936.62 L1157.06 1936.62 L1157.06 1924.25 L1165.72 1924.25 L1165.72 1911.75 L1167.83 1911.75 L1167.83 1911.75 L1184.04 1911.75 L1184.04 1911.75 L1195.92 1911.75 L1195.92 1911.75 L1206.69 1911.75 L1206.69 1911.75 L1216.46 1911.75 L1216.46 1911.75 L1219.68 1911.75 L1219.68 1911.75 L1220.79 1911.75 L1220.79 1911.75 L1228.34 1911.75 L1228.34 1911.75 L1237.01 1911.75 L1237.01 1911.75 L1239.11 1911.75 L1239.11 1911.75 L1244.55 1911.75 L1244.55 1898.63 L1252.10 1898.63 L1252.10 1898.63 L1254.33 1898.63 L1254.33 1898.63 L1256.43 1898.63 L1256.43 1898.63 L1260.77 1898.63 L1260.77 1898.63 L1265.10 1898.63 L1265.10 1898.63 L1267.20 1898.63 L1267.20 1885.27 L1281.31 1885.27 L1281.31 1885.27 L1282.30 1885.27 L1282.30 1885.27 L1288.86 1885.27 L1288.86 1885.27 L1296.41 1885.27 L1296.41 1871.65 L1298.51 1871.65 L1298.51 1871.65 L1315.83 1871.65 L1315.83 1871.65 L1321.28 1871.65 L1321.28 1871.65 L1328.83 1871.65 L1328.83 1871.65 L1330.93 1871.65 L1330.93 1871.65 L1366.57 1871.65 L1366.57 1871.65 L1367.69 1871.65 L1367.69 1857.67 L1368.80 1857.67 L1368.80 1857.67 L1374.12 1857.67 L1374.12 1857.67 L1379.57 1857.67 L1379.57 1843.56 L1383.90 1843.56 L1383.90 1829.33 L1392.56 1829.33 L1392.56 1829.33 L1396.89 1829.33 L1396.89 1814.97 L1406.54 1814.97 L1406.54 1814.97 L1407.66 1814.97 L1407.66 1814.97 L1413.10 1814.97 L1413.10 1814.97 L1420.65 1814.97 L1420.65 1814.97 L1429.31 1814.97 L1429.31 1814.97 L1433.64 1814.97 L1433.64 1814.97 L1435.75 1814.97 L1435.75 1814.97 L1437.85 1814.97 L1437.85 1814.97 L1441.19 1814.97 L1441.19 1814.97 L1448.74 1814.97 L1448.74 1814.97 L1458.39 1814.97 L1458.39 1814.97 L1461.74 1814.97 L1461.74 1814.97 L1463.84 1814.97 L1463.84 1814.97 L1469.28 1814.97 L1469.28 1799.75 L1471.39 1799.75 L1471.39 1784.41 L1473.62 1784.41 L1473.62 1769.06 L1477.82 1769.06 L1477.82 1769.06 L1485.50 1769.06 L1485.50 1769.06 L1500.59 1769.06 L1500.59 1769.06 L1502.70 1769.06 L1502.70 1753.47 L1514.58 1753.47 L1514.58 1737.88 L1522.13 1737.88 L1522.13 1737.88 L1549.23 1737.88 L1549.23 1737.88 L1554.55 1737.88 L1554.55 1737.88 L1561.11 1737.88 L1561.11 1737.88 L1562.10 1737.88 L1562.10 1737.88 L1577.32 1737.88 L1577.32 1737.88 L1588.08 1737.88 L1588.08 1737.88 L1590.19 1737.88 L1590.19 1737.88 L1599.96 1737.88 L1599.96 1737.88 L1609.62 1737.88 L1609.62 1721.42 L1618.28 1721.42 L1618.28 1721.42 L1626.94 1721.42 L1626.94 1721.42 L1632.39 1721.42 L1632.39 1721.42 L1638.82 1721.42 L1638.82 1721.42 L1646.37 1721.42 L1646.37 1721.42 L1651.82 1721.42 L1651.82 1721.42 L1658.25 1721.42 L1658.25 1721.42 L1660.48 1721.42 L1660.48 1704.21 L1662.58 1704.21 L1662.58 1704.21 L1666.91 1704.21 L1666.91 1704.21 L1683.12 1704.21 L1683.12 1704.21 L1701.44 1704.21 L1701.44 1704.21 L1703.67 1704.21 L1703.67 1704.21 L1719.88 1704.21 L1719.88 1704.21 L1721.98 1704.21 L1721.98 1704.21 L1724.21 1704.21 L1724.21 1685.78 L1730.64 1685.78 L1730.64 1685.78 L1743.64 1685.78 L1743.64 1685.78 L1747.97 1685.78 L1747.97 1685.78 L1754.40 1685.78 L1754.40 1667.09 L1755.52 1667.09 L1755.52 1667.09 L1772.72 1667.09 L1772.72 1667.09 L1784.60 1667.09 L1784.60 1667.09 L1795.49 1667.09 L1795.49 1667.09 L1823.58 1667.09 L1823.58 1667.09 L1831.13 1667.09 L1831.13 1667.09 L1839.79 1667.09 L1839.79 1667.09 L1843.01 1667.09 L1843.01 1667.09 L1849.44 1667.09 L1849.44 1667.09 L1851.67 1667.09 L1851.67 1667.09 L1858.11 1667.09 L1858.11 1667.09 L1862.44 1667.09 L1862.44 1667.09 L1877.54 1667.09 L1877.54 1667.09 L1886.20 1667.09 L1886.20 1667.09 L1890.53 1667.09 L1890.53 1667.09 L1891.64 1667.09 L1891.64 1667.09 L1892.63 1667.09 L1892.63 1667.09 L1893.75 1667.09 L1893.75 1667.09 L1894.86 1667.09 L1894.86 1667.09 L1896.96 1667.09 L1896.96 1645.06 L1902.41 1645.06 L1902.41 1645.06 L1920.72 1645.06 L1920.72 1645.06 L1927.28 1645.06 L1927.28 1645.06 L1974.80 1645.06 L1974.80 1645.06 L1978.02 1645.06 L1978.02 1645.06 L1993.12 1645.06 L1993.12 1645.06 L1995.35 1645.06 L1995.35 1645.06 L1998.56 1645.06 L1998.56 1645.06 L2003.88 1645.06 L2003.88 1621.55 L2006.11 1621.55 L2006.11 1621.55 L2020.10 1621.55 L2020.10 1621.55 L2029.87 1621.55 L2029.87 1621.55 L2034.20 1621.55 L2034.20 1597.41 L2037.42 1597.41 L2037.42 1597.41 L2038.53 1597.41 L2038.53 1597.41 L2041.75 1597.41 L2041.75 1597.41 L2062.29 1597.41 L2062.29 1597.41 L2082.84 1597.41 L2082.84 1597.41 L2087.17 1597.41 L2087.17 1572.05 L2089.27 1572.05 L2089.27 1572.05 L2096.82 1572.05 L2096.82 1572.05 L2097.93 1572.05 L2097.93 1572.05 L2102.27 1572.05 L2102.27 1572.05 L2118.48 1572.05 L2118.48 1572.05 L2135.68 1572.05 L2135.68 1572.05 L2167.11 1572.05 L2167.11 1572.05 L2185.43 1572.05 L2185.43 1572.05 L2199.41 1572.05 L2199.41 1544.70 L2213.52 1544.70 L2213.52 1544.70 L2228.61 1544.70 L2228.61 1544.70 L2229.73 1544.70 L2229.73 1544.70 L2232.95 1544.70 L2232.95 1544.70 L2238.39 1544.70 L2238.39 1544.70 L2239.38 1544.70 L2239.38 1544.70 L2241.61 1544.70 L2241.61 1515.37 L2276.13 1515.37 L2276.13 1515.37 L2294.57 1515.37 L2294.57 1515.37 L2297.79 1515.37 L2297.79 1515.37 L2319.32 1515.37 L2319.32 1484.92 L2325.88 1484.92 L2325.88 1484.92 L2354.96 1484.92 L2354.96 1484.92 L2358.30 1484.92 L2358.30 1484.92 L2362.64 1484.92 L2362.64 1484.92 L2374.52 1484.92 L2374.52 1484.92 L2401.49 1484.92 L2401.49 1484.92 L2409.04 1484.92 L2409.04 1484.92 L2415.48 1484.92 L2415.48 1484.92 L2417.70 1484.92 L2417.70 1484.92 L2430.57 1484.92 L2430.57 1484.92 L2431.69 1484.92 L2431.69 1484.92 L2436.02 1484.92 L2436.02 1484.92 L2440.35 1484.92 L2440.35 1484.92 L2454.33 1484.92 L2454.33 1484.92 L2469.55 1484.92 L2469.55 1484.92 L2471.66 1484.92 L2471.66 1447.18 L2473.89 1447.18 L2473.89 1447.18 L2477.10 1447.18 L2477.10 1447.18 L2478.22 1447.18 L2478.22 1447.18 L2496.53 1447.18 L2496.53 1447.18 L2498.64 1447.18 L2498.64 1447.18 L2507.30 1447.18 L2507.30 1447.18 L2518.07 1447.18 L2518.07 1447.18 L2526.73 1447.18 L2526.73 1447.18 L2527.84 1447.18 L2527.84 1403.74 L2547.27 1403.74 L2547.27 1403.74 L2557.05 1403.74 L2557.05 1403.74 L2571.03 1403.74 L2571.03 1358.57 L2604.57 1358.57 L2604.57 1358.57 L2620.78 1358.57 L2620.78 1358.57 L2634.76 1358.57 L2634.76 1358.57 L2672.63 1358.57 L2672.63 1358.57 L2702.82 1358.57 L2702.82 1358.57 L2715.82 1358.57 L2715.82 1358.57 L2717.92 1358.57 L2717.92 1358.57 L2722.25 1358.57 L2722.25 1358.57 L2751.46 1358.57 L2751.46 1358.57 L2789.20 1358.57 L2789.20 1358.57 L2810.86 1358.57 L2810.86 1358.57 L2822.74 1358.57 L2822.74 1358.57 L2823.85 1358.57 L2823.85 1297.06 L2860.61 1297.06 L2860.61 1297.06 L2870.26 1297.06 L2870.26 1297.06 L2872.49 1297.06 L2872.49 1297.06 L2898.35 1297.06 L2898.35 1297.06 L2941.54 1297.06 L2941.54 1227.76 L2951.31 1227.76 L2951.31 1227.76 L2969.63 1227.76 L2969.63 1227.76 L2989.06 1227.76 L2989.06 1227.76 L3015.05 1227.76 L3015.05 1227.76 L3021.48 1227.76 L3021.48 1227.76 L3045.24 1227.76 L3045.24 1227.76 L3055.02 1227.76 L3055.02 1227.76 L3075.56 1227.76 L3075.56 1227.76 L3101.42 1227.76 L3101.42 1227.76 L3107.98 1227.76 L3107.98 1227.76 L3131.74 1227.76 L3131.74 1227.76 L3141.39 1227.76 L3141.39 1227.76 L3150.06 1227.76 L3150.06 1227.76 L3158.72 1227.76 L3158.72 1227.76 L3255.86 1227.76 L3255.86 1227.76 L3287.30 1227.76 L3287.30 1227.76 L3296.95 1227.76 L3296.95 1227.76 L3307.71 1227.76 L3307.71 1227.76 L3322.94 1227.76 L3322.94 1227.76 L3330.48 1227.76 L3330.48 1227.76 L3339.15 1227.76 L3339.15 1227.76 L3362.91 1227.76 L3362.91 1227.76 L3370.46 1227.76 L3370.46 1227.76 L3389.88 1227.76 L3389.88 1227.76 L3478.49 1227.76 L3478.49 1227.76 L3482.70 1227.76 L3482.70 1227.76 L3650.13 1227.76 L3650.13 1227.76 L3706.31 1227.76 L3706.31 1227.76" stroke-linejoin="round" style="fill:none;stroke:#E41A1C;stroke-width:8.64"/>
	<path d=" M465.67 2489.31 L465.67 2489.31 L465.67 2489.31 L465.67 2489.31 L465.67 2489.31 L466.29 2489.31 L466.29 2483.00 L466.79 2483.00 L466.79 2479.78 L480.89 2479.78 L480.89 2476.69 L485.10 2476.69 L485.10 2473.47 L486.21 2473.47 L486.21 2467.16 L487.33 2467.16 L487.33 2464.06 L490.55 2464.06 L490.55 2460.85 L495.99 2460.85 L495.99 2448.22 L498.09 2448.22 L498.09 2438.82 L499.21 2438.82 L499.21 2432.51 L500.32 2432.51 L500.32 2429.29 L501.31 2429.29 L501.31 2429.29 L502.43 2429.29 L502.43 2429.29 L503.54 2429.29 L503.54 2429.29 L511.09 2429.29 L511.09 2422.98 L512.20 2422.98 L512.20 2422.98 L513.19 2422.98 L513.19 2422.98 L514.30 2422.98 L514.30 2422.98 L515.42 2422.98 L515.42 2422.98 L516.53 2422.98 L516.53 2422.98 L517.52 2422.98 L517.52 2422.98 L518.64 2422.98 L518.64 2422.98 L519.75 2422.98 L519.75 2422.98 L521.85 2422.98 L521.85 2419.88 L525.07 2419.88 L525.07 2416.67 L526.18 2416.67 L526.18 2410.35 L527.30 2410.35 L527.30 2407.14 L528.41 2407.14 L528.41 2404.04 L529.40 2404.04 L529.40 2400.83 L532.74 2400.83 L532.74 2397.61 L533.73 2397.61 L533.73 2384.98 L535.96 2384.98 L535.96 2381.77 L536.95 2381.77 L536.95 2381.77 L538.07 2381.77 L538.07 2378.55 L539.18 2378.55 L539.18 2369.02 L540.29 2369.02 L540.29 2359.49 L542.40 2359.49 L542.40 2356.27 L543.51 2356.27 L543.51 2353.18 L544.62 2353.18 L544.62 2349.96 L545.61 2349.96 L545.61 2340.43 L546.73 2340.43 L546.73 2340.43 L547.84 2340.43 L547.84 2340.43 L548.83 2340.43 L548.83 2340.43 L551.06 2340.43 L551.06 2337.22 L552.17 2337.22 L552.17 2327.69 L553.16 2327.69 L553.16 2321.25 L554.28 2321.25 L554.28 2318.03 L555.39 2318.03 L555.39 2314.82 L558.61 2314.82 L558.61 2311.72 L559.72 2311.72 L559.72 2302.07 L560.84 2302.07 L560.84 2292.54 L561.83 2292.54 L561.83 2286.11 L562.94 2286.11 L562.94 2276.58 L564.05 2276.58 L564.05 2276.58 L565.04 2276.58 L565.04 2270.14 L567.27 2270.14 L567.27 2266.92 L569.37 2266.92 L569.37 2260.61 L570.49 2260.61 L570.49 2257.39 L571.60 2257.39 L571.60 2250.96 L573.71 2250.96 L573.71 2247.74 L574.82 2247.74 L574.82 2244.52 L575.93 2244.52 L575.93 2241.43 L576.92 2241.43 L576.92 2234.99 L578.04 2234.99 L578.04 2228.56 L580.26 2228.56 L580.26 2225.34 L581.25 2225.34 L581.25 2222.12 L582.37 2222.12 L582.37 2222.12 L583.48 2222.12 L583.48 2222.12 L584.60 2222.12 L584.60 2222.12 L585.59 2222.12 L585.59 2222.12 L586.70 2222.12 L586.70 2222.12 L587.81 2222.12 L587.81 2222.12 L588.80 2222.12 L588.80 2222.12 L589.92 2222.12 L589.92 2218.91 L593.13 2218.91 L593.13 2215.69 L595.36 2215.69 L595.36 2212.47 L596.48 2212.47 L596.48 2212.47 L597.47 2212.47 L597.47 2212.47 L598.58 2212.47 L598.58 2212.47 L600.68 2212.47 L600.68 2209.25 L601.80 2209.25 L601.80 2206.04 L604.02 2206.04 L604.02 2202.82 L605.01 2202.82 L605.01 2199.60 L606.13 2199.60 L606.13 2189.95 L607.24 2189.95 L607.24 2183.51 L609.35 2183.51 L609.35 2173.86 L610.46 2173.86 L610.46 2170.64 L613.68 2170.64 L613.68 2167.43 L614.79 2167.43 L614.79 2160.99 L615.90 2160.99 L615.90 2157.77 L616.89 2157.77 L616.89 2151.34 L623.45 2151.34 L623.45 2148.12 L624.57 2148.12 L624.57 2144.90 L626.67 2144.90 L626.67 2138.47 L628.77 2138.47 L628.77 2135.25 L629.89 2135.25 L629.89 2132.03 L631.00 2132.03 L631.00 2128.81 L632.12 2128.81 L632.12 2128.81 L633.11 2128.81 L633.11 2128.81 L634.22 2128.81 L634.22 2128.81 L635.33 2128.81 L635.33 2128.81 L637.44 2128.81 L637.44 2125.60 L639.66 2125.60 L639.66 2115.94 L644.00 2115.94 L644.00 2112.73 L644.99 2112.73 L644.99 2109.38 L647.21 2109.38 L647.21 2106.17 L650.43 2106.17 L650.43 2102.95 L651.54 2102.95 L651.54 2096.51 L654.76 2096.51 L654.76 2086.86 L657.98 2086.86 L657.98 2083.64 L659.09 2083.64 L659.09 2073.87 L660.21 2073.87 L660.21 2070.65 L661.20 2070.65 L661.20 2064.21 L662.31 2064.21 L662.31 2051.34 L663.42 2051.34 L663.42 2038.35 L664.54 2038.35 L664.54 2038.35 L665.53 2038.35 L665.53 2035.13 L666.64 2035.13 L666.64 2031.91 L667.76 2031.91 L667.76 2025.48 L668.75 2025.48 L668.75 2022.26 L669.86 2022.26 L669.86 2015.83 L670.97 2015.83 L670.97 2009.27 L674.19 2009.27 L674.19 2002.83 L675.30 2002.83 L675.30 1999.61 L677.41 1999.61 L677.41 1996.40 L680.63 1996.40 L680.63 1989.96 L682.85 1989.96 L682.85 1986.62 L683.97 1986.62 L683.97 1983.40 L684.96 1983.40 L684.96 1983.40 L686.07 1983.40 L686.07 1980.19 L687.18 1980.19 L687.18 1976.97 L688.30 1976.97 L688.30 1973.75 L689.29 1973.75 L689.29 1970.53 L691.52 1970.53 L691.52 1963.97 L693.62 1963.97 L693.62 1957.54 L696.84 1957.54 L696.84 1954.32 L697.95 1954.32 L697.95 1947.89 L699.06 1947.89 L699.06 1944.54 L700.18 1944.54 L700.18 1938.11 L701.17 1938.11 L701.17 1934.89 L704.39 1934.89 L704.39 1931.67 L705.50 1931.67 L705.50 1928.33 L706.61 1928.33 L706.61 1928.33 L708.72 1928.33 L708.72 1928.33 L709.83 1928.33 L709.83 1925.12 L717.38 1925.12 L717.38 1921.90 L718.49 1921.90 L718.49 1921.90 L719.61 1921.90 L719.61 1921.90 L720.60 1921.90 L720.60 1921.90 L722.82 1921.90 L722.82 1918.68 L723.94 1918.68 L723.94 1915.34 L726.04 1915.34 L726.04 1912.12 L728.27 1912.12 L728.27 1908.90 L729.26 1908.90 L729.26 1908.90 L730.37 1908.90 L730.37 1908.90 L731.49 1908.90 L731.49 1908.90 L740.15 1908.90 L740.15 1905.56 L743.37 1905.56 L743.37 1902.34 L744.36 1902.34 L744.36 1895.79 L748.69 1895.79 L748.69 1892.57 L749.80 1892.57 L749.80 1889.35 L753.02 1889.35 L753.02 1882.79 L754.13 1882.79 L754.13 1882.79 L756.24 1882.79 L756.24 1882.79 L757.35 1882.79 L757.35 1882.79 L759.58 1882.79 L759.58 1882.79 L764.90 1882.79 L764.90 1879.57 L767.13 1879.57 L767.13 1876.23 L768.12 1876.23 L768.12 1873.01 L773.56 1873.01 L773.56 1869.67 L775.79 1869.67 L775.79 1866.46 L777.89 1866.46 L777.89 1863.24 L779.01 1863.24 L779.01 1859.90 L780.12 1859.90 L780.12 1856.68 L782.22 1856.68 L782.22 1853.34 L786.56 1853.34 L786.56 1846.78 L790.89 1846.78 L790.89 1843.56 L794.10 1843.56 L794.10 1840.34 L795.22 1840.34 L795.22 1837.00 L796.21 1837.00 L796.21 1833.78 L797.32 1833.78 L797.32 1833.78 L804.87 1833.78 L804.87 1830.44 L810.32 1830.44 L810.32 1823.88 L811.43 1823.88 L811.43 1820.67 L812.42 1820.67 L812.42 1817.33 L813.53 1817.33 L813.53 1810.89 L817.86 1810.89 L817.86 1810.89 L818.98 1810.89 L818.98 1810.89 L819.97 1810.89 L819.97 1807.55 L821.08 1807.55 L821.08 1804.21 L826.53 1804.21 L826.53 1800.99 L830.86 1800.99 L830.86 1797.65 L834.08 1797.65 L834.08 1797.65 L835.19 1797.65 L835.19 1794.43 L836.18 1794.43 L836.18 1791.09 L843.85 1791.09 L843.85 1787.75 L849.17 1787.75 L849.17 1784.53 L853.50 1784.53 L853.50 1781.19 L856.72 1781.19 L856.72 1777.97 L857.84 1777.97 L857.84 1774.63 L858.95 1774.63 L858.95 1768.07 L859.94 1768.07 L859.94 1764.73 L861.05 1764.73 L861.05 1761.51 L863.28 1761.51 L863.28 1758.17 L864.27 1758.17 L864.27 1758.17 L868.60 1758.17 L868.60 1754.83 L869.72 1754.83 L869.72 1748.27 L870.83 1748.27 L870.83 1744.93 L872.93 1744.93 L872.93 1744.93 L877.26 1744.93 L877.26 1741.71 L884.81 1741.71 L884.81 1741.71 L887.04 1741.71 L887.04 1741.71 L890.26 1741.71 L890.26 1741.71 L892.36 1741.71 L892.36 1741.71 L896.69 1741.71 L896.69 1738.37 L903.25 1738.37 L903.25 1735.03 L904.24 1735.03 L904.24 1731.69 L905.36 1731.69 L905.36 1731.69 L911.79 1731.69 L911.79 1731.69 L914.02 1731.69 L914.02 1731.69 L915.13 1731.69 L915.13 1731.69 L922.68 1731.69 L922.68 1731.69 L924.78 1731.69 L924.78 1728.47 L927.01 1728.47 L927.01 1728.47 L928.00 1728.47 L928.00 1728.47 L929.12 1728.47 L929.12 1725.13 L930.23 1725.13 L930.23 1721.79 L932.33 1721.79 L932.33 1718.45 L935.55 1718.45 L935.55 1718.45 L939.88 1718.45 L939.88 1715.10 L941.00 1715.10 L941.00 1711.76 L949.66 1711.76 L949.66 1708.42 L952.88 1708.42 L952.88 1705.08 L953.99 1705.08 L953.99 1701.74 L955.10 1701.74 L955.10 1701.74 L956.09 1701.74 L956.09 1701.74 L959.43 1701.74 L959.43 1698.40 L963.64 1698.40 L963.64 1695.06 L964.76 1695.06 L964.76 1695.06 L967.97 1695.06 L967.97 1695.06 L969.09 1695.06 L969.09 1691.59 L975.52 1691.59 L975.52 1691.59 L979.85 1691.59 L979.85 1688.25 L985.30 1688.25 L985.30 1684.91 L990.74 1684.91 L990.74 1681.57 L993.96 1681.57 L993.96 1678.10 L996.06 1678.10 L996.06 1674.76 L999.28 1674.76 L999.28 1671.42 L1000.40 1671.42 L1000.40 1671.42 L1003.61 1671.42 L1003.61 1668.08 L1005.84 1668.08 L1005.84 1668.08 L1007.94 1668.08 L1007.94 1664.61 L1013.39 1664.61 L1013.39 1661.27 L1017.72 1661.27 L1017.72 1661.27 L1019.82 1661.27 L1019.82 1661.27 L1023.17 1661.27 L1023.17 1661.27 L1024.16 1661.27 L1024.16 1657.81 L1025.27 1657.81 L1025.27 1654.47 L1026.38 1654.47 L1026.38 1654.47 L1031.70 1654.47 L1031.70 1654.47 L1037.15 1654.47 L1037.15 1654.47 L1038.26 1654.47 L1038.26 1651.00 L1046.93 1651.00 L1046.93 1647.54 L1054.47 1647.54 L1054.47 1647.54 L1055.46 1647.54 L1055.46 1647.54 L1058.81 1647.54 L1058.81 1647.54 L1060.91 1647.54 L1060.91 1647.54 L1063.14 1647.54 L1063.14 1647.54 L1066.35 1647.54 L1066.35 1647.54 L1068.46 1647.54 L1068.46 1647.54 L1070.69 1647.54 L1070.69 1644.07 L1073.90 1644.07 L1073.90 1644.07 L1083.56 1644.07 L1083.56 1644.07 L1085.78 1644.07 L1085.78 1640.61 L1092.22 1640.61 L1092.22 1640.61 L1095.44 1640.61 L1095.44 1640.61 L1096.55 1640.61 L1096.55 1640.61 L1098.78 1640.61 L1098.78 1640.61 L1100.88 1640.61 L1100.88 1640.61 L1102.98 1640.61 L1102.98 1640.61 L1107.32 1640.61 L1107.32 1637.02 L1108.43 1637.02 L1108.43 1637.02 L1109.54 1637.02 L1109.54 1633.43 L1111.65 1633.43 L1111.65 1633.43 L1115.98 1633.43 L1115.98 1629.84 L1117.09 1629.84 L1117.09 1629.84 L1120.31 1629.84 L1120.31 1629.84 L1124.64 1629.84 L1124.64 1626.25 L1126.87 1626.25 L1126.87 1626.25 L1132.19 1626.25 L1132.19 1626.25 L1146.30 1626.25 L1146.30 1622.66 L1148.40 1622.66 L1148.40 1618.95 L1151.62 1618.95 L1151.62 1615.36 L1158.18 1615.36 L1158.18 1611.77 L1159.17 1611.77 L1159.17 1611.77 L1164.61 1611.77 L1164.61 1608.06 L1165.72 1608.06 L1165.72 1608.06 L1168.94 1608.06 L1168.94 1608.06 L1170.06 1608.06 L1170.06 1604.47 L1173.27 1604.47 L1173.27 1600.76 L1174.39 1600.76 L1174.39 1597.17 L1179.71 1597.17 L1179.71 1589.87 L1180.82 1589.87 L1180.82 1586.15 L1182.93 1586.15 L1182.93 1586.15 L1184.04 1586.15 L1184.04 1586.15 L1187.26 1586.15 L1187.26 1586.15 L1195.92 1586.15 L1195.92 1586.15 L1206.69 1586.15 L1206.69 1586.15 L1214.36 1586.15 L1214.36 1586.15 L1219.68 1586.15 L1219.68 1582.44 L1222.90 1582.44 L1222.90 1582.44 L1225.13 1582.44 L1225.13 1582.44 L1228.34 1582.44 L1228.34 1582.44 L1230.57 1582.44 L1230.57 1582.44 L1239.11 1582.44 L1239.11 1582.44 L1240.22 1582.44 L1240.22 1582.44 L1241.34 1582.44 L1241.34 1582.44 L1243.44 1582.44 L1243.44 1582.44 L1244.55 1582.44 L1244.55 1582.44 L1247.77 1582.44 L1247.77 1582.44 L1250.00 1582.44 L1250.00 1578.73 L1252.10 1578.73 L1252.10 1578.73 L1253.22 1578.73 L1253.22 1578.73 L1254.33 1578.73 L1254.33 1574.89 L1256.43 1574.89 L1256.43 1574.89 L1257.55 1574.89 L1257.55 1574.89 L1258.54 1574.89 L1258.54 1571.06 L1259.65 1571.06 L1259.65 1567.22 L1260.77 1567.22 L1260.77 1559.55 L1265.10 1559.55 L1265.10 1559.55 L1266.21 1559.55 L1266.21 1555.71 L1267.20 1555.71 L1267.20 1551.87 L1269.43 1551.87 L1269.43 1548.04 L1271.53 1548.04 L1271.53 1548.04 L1272.65 1548.04 L1272.65 1548.04 L1274.75 1548.04 L1274.75 1544.20 L1275.86 1544.20 L1275.86 1544.20 L1282.30 1544.20 L1282.30 1540.24 L1287.74 1540.24 L1287.74 1540.24 L1288.86 1540.24 L1288.86 1540.24 L1289.97 1540.24 L1289.97 1540.24 L1290.96 1540.24 L1290.96 1540.24 L1297.52 1540.24 L1297.52 1540.24 L1298.51 1540.24 L1298.51 1540.24 L1301.85 1540.24 L1301.85 1540.24 L1302.84 1540.24 L1302.84 1536.28 L1305.07 1536.28 L1305.07 1536.28 L1313.73 1536.28 L1313.73 1536.28 L1316.95 1536.28 L1316.95 1536.28 L1318.06 1536.28 L1318.06 1532.32 L1323.38 1532.32 L1323.38 1528.36 L1328.83 1528.36 L1328.83 1528.36 L1330.93 1528.36 L1330.93 1528.36 L1337.49 1528.36 L1337.49 1528.36 L1340.71 1528.36 L1340.71 1528.36 L1345.04 1528.36 L1345.04 1528.36 L1349.37 1528.36 L1349.37 1528.36 L1350.36 1528.36 L1350.36 1528.36 L1352.59 1528.36 L1352.59 1528.36 L1354.69 1528.36 L1354.69 1524.28 L1365.58 1524.28 L1365.58 1524.28 L1372.02 1524.28 L1372.02 1520.32 L1374.12 1520.32 L1374.12 1520.32 L1376.35 1520.32 L1376.35 1520.32 L1378.45 1520.32 L1378.45 1520.32 L1380.68 1520.32 L1380.68 1520.32 L1388.23 1520.32 L1388.23 1520.32 L1390.33 1520.32 L1390.33 1520.32 L1393.67 1520.32 L1393.67 1520.32 L1394.66 1520.32 L1394.66 1520.32 L1400.11 1520.32 L1400.11 1516.11 L1406.54 1516.11 L1406.54 1512.02 L1407.66 1512.02 L1407.66 1512.02 L1408.77 1512.02 L1408.77 1512.02 L1409.88 1512.02 L1409.88 1512.02 L1415.21 1512.02 L1415.21 1507.82 L1416.32 1507.82 L1416.32 1503.73 L1420.65 1503.73 L1420.65 1503.73 L1433.64 1503.73 L1433.64 1503.73 L1435.75 1503.73 L1435.75 1503.73 L1441.19 1503.73 L1441.19 1499.53 L1442.18 1499.53 L1442.18 1499.53 L1445.52 1499.53 L1445.52 1499.53 L1448.74 1499.53 L1448.74 1499.53 L1449.73 1499.53 L1449.73 1499.53 L1454.06 1499.53 L1454.06 1499.53 L1456.29 1499.53 L1456.29 1499.53 L1459.51 1499.53 L1459.51 1499.53 L1462.73 1499.53 L1462.73 1499.53 L1463.84 1499.53 L1463.84 1499.53 L1465.94 1499.53 L1465.94 1499.53 L1468.17 1499.53 L1468.17 1499.53 L1470.27 1499.53 L1470.27 1499.53 L1471.39 1499.53 L1471.39 1499.53 L1472.50 1499.53 L1472.50 1495.07 L1476.83 1495.07 L1476.83 1495.07 L1477.82 1495.07 L1477.82 1495.07 L1480.05 1495.07 L1480.05 1490.74 L1483.27 1490.74 L1483.27 1490.74 L1486.49 1490.74 L1486.49 1490.74 L1487.60 1490.74 L1487.60 1490.74 L1488.71 1490.74 L1488.71 1490.74 L1490.82 1490.74 L1490.82 1490.74 L1493.04 1490.74 L1493.04 1486.28 L1497.38 1486.28 L1497.38 1481.83 L1501.58 1481.83 L1501.58 1477.37 L1507.03 1477.37 L1507.03 1472.92 L1512.47 1472.92 L1512.47 1472.92 L1517.79 1472.92 L1517.79 1472.92 L1521.14 1472.92 L1521.14 1472.92 L1522.13 1472.92 L1522.13 1472.92 L1527.57 1472.92 L1527.57 1472.92 L1531.90 1472.92 L1531.90 1472.92 L1533.02 1472.92 L1533.02 1472.92 L1534.01 1472.92 L1534.01 1468.46 L1536.23 1468.46 L1536.23 1468.46 L1538.34 1468.46 L1538.34 1468.46 L1547.00 1468.46 L1547.00 1468.46 L1548.11 1468.46 L1548.11 1468.46 L1556.78 1468.46 L1556.78 1468.46 L1567.54 1468.46 L1567.54 1468.46 L1569.65 1468.46 L1569.65 1468.46 L1571.87 1468.46 L1571.87 1468.46 L1572.99 1468.46 L1572.99 1468.46 L1575.09 1468.46 L1575.09 1468.46 L1576.20 1468.46 L1576.20 1468.46 L1578.31 1468.46 L1578.31 1468.46 L1581.53 1468.46 L1581.53 1468.46 L1582.64 1468.46 L1582.64 1468.46 L1588.08 1468.46 L1588.08 1468.46 L1589.20 1468.46 L1589.20 1468.46 L1593.41 1468.46 L1593.41 1468.46 L1602.07 1468.46 L1602.07 1463.64 L1603.18 1463.64 L1603.18 1463.64 L1605.29 1463.64 L1605.29 1463.64 L1611.84 1463.64 L1611.84 1463.64 L1617.17 1463.64 L1617.17 1463.64 L1628.06 1463.64 L1628.06 1463.64 L1629.17 1463.64 L1629.17 1463.64 L1631.27 1463.64 L1631.27 1463.64 L1632.39 1463.64 L1632.39 1463.64 L1633.38 1463.64 L1633.38 1463.64 L1635.60 1463.64 L1635.60 1463.64 L1636.72 1463.64 L1636.72 1463.64 L1637.71 1463.64 L1637.71 1463.64 L1641.05 1463.64 L1641.05 1463.64 L1645.26 1463.64 L1645.26 1463.64 L1646.37 1463.64 L1646.37 1463.64 L1648.60 1463.64 L1648.60 1463.64 L1650.70 1463.64 L1650.70 1463.64 L1652.93 1463.64 L1652.93 1463.64 L1653.92 1463.64 L1653.92 1463.64 L1655.03 1463.64 L1655.03 1463.64 L1657.14 1463.64 L1657.14 1463.64 L1664.81 1463.64 L1664.81 1463.64 L1665.80 1463.64 L1665.80 1458.56 L1672.36 1458.56 L1672.36 1458.56 L1675.58 1458.56 L1675.58 1458.56 L1676.69 1458.56 L1676.69 1458.56 L1679.91 1458.56 L1679.91 1458.56 L1683.12 1458.56 L1683.12 1458.56 L1685.23 1458.56 L1685.23 1458.56 L1686.34 1458.56 L1686.34 1458.56 L1691.79 1458.56 L1691.79 1458.56 L1693.89 1458.56 L1693.89 1453.24 L1698.22 1453.24 L1698.22 1453.24 L1701.44 1453.24 L1701.44 1453.24 L1704.78 1453.24 L1704.78 1453.24 L1717.65 1453.24 L1717.65 1453.24 L1721.98 1453.24 L1721.98 1453.24 L1726.31 1453.24 L1726.31 1453.24 L1729.53 1453.24 L1729.53 1453.24 L1731.76 1453.24 L1731.76 1447.80 L1733.86 1447.80 L1733.86 1447.80 L1738.19 1447.80 L1738.19 1447.80 L1742.52 1447.80 L1742.52 1447.80 L1743.64 1447.80 L1743.64 1447.80 L1745.74 1447.80 L1745.74 1447.80 L1757.62 1447.80 L1757.62 1447.80 L1759.85 1447.80 L1759.85 1442.10 L1761.95 1442.10 L1761.95 1442.10 L1764.18 1442.10 L1764.18 1442.10 L1765.17 1442.10 L1765.17 1442.10 L1771.73 1442.10 L1771.73 1442.10 L1774.95 1442.10 L1774.95 1442.10 L1780.39 1442.10 L1780.39 1436.41 L1784.60 1436.41 L1784.60 1436.41 L1785.71 1436.41 L1785.71 1430.59 L1787.94 1430.59 L1787.94 1430.59 L1792.27 1430.59 L1792.27 1430.59 L1793.26 1430.59 L1793.26 1430.59 L1798.71 1430.59 L1798.71 1430.59 L1804.15 1430.59 L1804.15 1430.59 L1806.26 1430.59 L1806.26 1430.59 L1808.48 1430.59 L1808.48 1430.59 L1812.69 1430.59 L1812.69 1430.59 L1816.03 1430.59 L1816.03 1424.65 L1825.68 1424.65 L1825.68 1424.65 L1826.80 1424.65 L1826.80 1424.65 L1828.90 1424.65 L1828.90 1418.59 L1835.46 1418.59 L1835.46 1418.59 L1836.45 1418.59 L1836.45 1412.53 L1839.79 1412.53 L1839.79 1412.53 L1846.23 1412.53 L1846.23 1406.46 L1849.44 1406.46 L1849.44 1406.46 L1856.99 1406.46 L1856.99 1406.46 L1873.20 1406.46 L1873.20 1400.40 L1874.32 1400.40 L1874.32 1394.21 L1876.42 1394.21 L1876.42 1394.21 L1879.76 1394.21 L1879.76 1394.21 L1880.75 1394.21 L1880.75 1394.21 L1888.30 1394.21 L1888.30 1394.21 L1902.41 1394.21 L1902.41 1394.21 L1906.74 1394.21 L1906.74 1394.21 L1919.73 1394.21 L1919.73 1394.21 L1924.07 1394.21 L1924.07 1387.90 L1925.06 1387.90 L1925.06 1387.90 L1928.27 1387.90 L1928.27 1387.90 L1930.50 1387.90 L1930.50 1387.90 L1932.60 1387.90 L1932.60 1387.90 L1933.72 1387.90 L1933.72 1387.90 L1938.05 1387.90 L1938.05 1387.90 L1940.15 1387.90 L1940.15 1387.90 L1946.71 1387.90 L1946.71 1387.90 L1952.03 1387.90 L1952.03 1387.90 L1954.26 1387.90 L1954.26 1387.90 L1957.48 1387.90 L1957.48 1387.90 L1959.71 1387.90 L1959.71 1387.90 L1966.14 1387.90 L1966.14 1387.90 L1967.25 1387.90 L1967.25 1387.90 L1970.47 1387.90 L1970.47 1387.90 L1971.59 1387.90 L1971.59 1387.90 L1974.80 1387.90 L1974.80 1387.90 L1976.91 1387.90 L1976.91 1387.90 L1978.02 1387.90 L1978.02 1387.90 L1992.00 1387.90 L1992.00 1387.90 L1993.12 1387.90 L1993.12 1387.90 L2000.67 1387.90 L2000.67 1387.90 L2002.89 1387.90 L2002.89 1387.90 L2003.88 1387.90 L2003.88 1387.90 L2010.44 1387.90 L2010.44 1387.90 L2019.11 1387.90 L2019.11 1387.90 L2024.43 1387.90 L2024.43 1387.90 L2025.54 1387.90 L2025.54 1387.90 L2027.77 1387.90 L2027.77 1387.90 L2028.76 1387.90 L2028.76 1387.90 L2030.99 1387.90 L2030.99 1387.90 L2035.32 1387.90 L2035.32 1387.90 L2036.31 1387.90 L2036.31 1387.90 L2042.87 1387.90 L2042.87 1387.90 L2043.86 1387.90 L2043.86 1387.90 L2044.97 1387.90 L2044.97 1387.90 L2047.20 1387.90 L2047.20 1387.90 L2050.41 1387.90 L2050.41 1387.90 L2052.52 1387.90 L2052.52 1387.90 L2053.63 1387.90 L2053.63 1387.90 L2054.75 1387.90 L2054.75 1387.90 L2062.29 1387.90 L2062.29 1387.90 L2067.61 1387.90 L2067.61 1387.90 L2071.95 1387.90 L2071.95 1387.90 L2073.06 1387.90 L2073.06 1387.90 L2074.17 1387.90 L2074.17 1387.90 L2077.39 1387.90 L2077.39 1387.90 L2090.39 1387.90 L2090.39 1387.90 L2093.60 1387.90 L2093.60 1379.86 L2094.72 1379.86 L2094.72 1379.86 L2096.82 1379.86 L2096.82 1379.86 L2102.27 1379.86 L2102.27 1379.86 L2117.36 1379.86 L2117.36 1379.86 L2124.91 1379.86 L2124.91 1371.81 L2127.14 1371.81 L2127.14 1371.81 L2128.13 1371.81 L2128.13 1371.81 L2129.24 1371.81 L2129.24 1371.81 L2131.35 1371.81 L2131.35 1371.81 L2137.91 1371.81 L2137.91 1371.81 L2141.12 1371.81 L2141.12 1371.81 L2147.56 1371.81 L2147.56 1371.81 L2149.79 1371.81 L2149.79 1371.81 L2162.78 1371.81 L2162.78 1371.81 L2168.10 1371.81 L2168.10 1371.81 L2170.33 1371.81 L2170.33 1363.15 L2171.32 1363.15 L2171.32 1363.15 L2177.88 1363.15 L2177.88 1363.15 L2185.43 1363.15 L2185.43 1363.15 L2187.53 1363.15 L2187.53 1363.15 L2189.76 1363.15 L2189.76 1363.15 L2202.75 1363.15 L2202.75 1363.15 L2204.85 1363.15 L2204.85 1363.15 L2205.97 1363.15 L2205.97 1363.15 L2239.38 1363.15 L2239.38 1363.15 L2242.72 1363.15 L2242.72 1363.15 L2250.27 1363.15 L2250.27 1363.15 L2253.49 1363.15 L2253.49 1363.15 L2255.59 1363.15 L2255.59 1363.15 L2258.93 1363.15 L2258.93 1363.15 L2265.37 1363.15 L2265.37 1363.15 L2266.48 1363.15 L2266.48 1363.15 L2270.81 1363.15 L2270.81 1363.15 L2276.13 1363.15 L2276.13 1363.15 L2278.36 1363.15 L2278.36 1363.15 L2279.35 1363.15 L2279.35 1363.15 L2286.90 1363.15 L2286.90 1363.15 L2296.68 1363.15 L2296.68 1363.15 L2303.11 1363.15 L2303.11 1363.15 L2304.23 1363.15 L2304.23 1363.15 L2307.44 1363.15 L2307.44 1363.15 L2308.56 1363.15 L2308.56 1363.15 L2311.77 1363.15 L2311.77 1353.12 L2312.89 1353.12 L2312.89 1353.12 L2314.00 1353.12 L2314.00 1353.12 L2317.22 1353.12 L2317.22 1353.12 L2324.77 1353.12 L2324.77 1353.12 L2326.87 1353.12 L2326.87 1353.12 L2327.99 1353.12 L2327.99 1353.12 L2330.21 1353.12 L2330.21 1353.12 L2336.65 1353.12 L2336.65 1353.12 L2340.98 1353.12 L2340.98 1353.12 L2345.31 1353.12 L2345.31 1353.12 L2346.42 1353.12 L2346.42 1353.12 L2350.63 1353.12 L2350.63 1353.12 L2352.86 1353.12 L2352.86 1353.12 L2356.08 1353.12 L2356.08 1353.12 L2371.17 1353.12 L2371.17 1353.12 L2372.29 1353.12 L2372.29 1353.12 L2373.40 1353.12 L2373.40 1353.12 L2375.51 1353.12 L2375.51 1353.12 L2384.17 1353.12 L2384.17 1353.12 L2387.39 1353.12 L2387.39 1353.12 L2390.60 1353.12 L2390.60 1353.12 L2400.38 1353.12 L2400.38 1353.12 L2412.26 1353.12 L2412.26 1353.12 L2416.59 1353.12 L2416.59 1353.12 L2422.04 1353.12 L2422.04 1353.12 L2425.25 1353.12 L2425.25 1353.12 L2432.80 1353.12 L2432.80 1353.12 L2434.91 1353.12 L2434.91 1340.87 L2439.24 1340.87 L2439.24 1340.87 L2440.35 1340.87 L2440.35 1340.87 L2443.57 1340.87 L2443.57 1340.87 L2444.68 1340.87 L2444.68 1340.87 L2445.80 1340.87 L2445.80 1340.87 L2446.79 1340.87 L2446.79 1340.87 L2450.13 1340.87 L2450.13 1340.87 L2451.12 1340.87 L2451.12 1340.87 L2452.23 1340.87 L2452.23 1340.87 L2454.33 1340.87 L2454.33 1340.87 L2455.45 1340.87 L2455.45 1340.87 L2459.78 1340.87 L2459.78 1340.87 L2468.44 1340.87 L2468.44 1340.87 L2474.88 1340.87 L2474.88 1340.87 L2477.10 1340.87 L2477.10 1340.87 L2479.21 1340.87 L2479.21 1340.87 L2482.43 1340.87 L2482.43 1325.90 L2483.54 1325.90 L2483.54 1325.90 L2487.87 1325.90 L2487.87 1325.90 L2488.98 1325.90 L2488.98 1325.90 L2492.20 1325.90 L2492.20 1325.90 L2496.53 1325.90 L2496.53 1325.90 L2502.97 1325.90 L2502.97 1325.90 L2505.20 1325.90 L2505.20 1325.90 L2513.86 1325.90 L2513.86 1325.90 L2520.29 1325.90 L2520.29 1325.90 L2523.51 1325.90 L2523.51 1325.90 L2525.74 1325.90 L2525.74 1325.90 L2526.73 1325.90 L2526.73 1325.90 L2530.07 1325.90 L2530.07 1325.90 L2551.60 1325.90 L2551.60 1325.90 L2552.72 1325.90 L2552.72 1325.90 L2553.83 1325.90 L2553.83 1325.90 L2562.37 1325.90 L2562.37 1325.90 L2579.69 1325.90 L2579.69 1325.90 L2618.55 1325.90 L2618.55 1325.90 L2620.78 1325.90 L2620.78 1325.90 L2634.76 1325.90 L2634.76 1325.90 L2643.42 1325.90 L2643.42 1325.90 L2659.64 1325.90 L2659.64 1325.90 L2661.74 1325.90 L2661.74 1325.90 L2672.63 1325.90 L2672.63 1325.90 L2681.29 1325.90 L2681.29 1325.90 L2684.51 1325.90 L2684.51 1325.90 L2697.50 1325.90 L2697.50 1325.90 L2709.38 1325.90 L2709.38 1325.90 L2719.04 1325.90 L2719.04 1325.90 L2721.26 1325.90 L2721.26 1325.90 L2740.69 1325.90 L2740.69 1325.90 L2783.88 1325.90 L2783.88 1325.90 L2805.41 1325.90 L2805.41 1325.90 L2809.74 1325.90 L2809.74 1325.90 L2818.41 1325.90 L2818.41 1325.90 L2832.51 1325.90 L2832.51 1325.90 L2833.50 1325.90 L2833.50 1325.90 L2850.83 1325.90 L2850.83 1325.90 L2862.71 1325.90 L2862.71 1325.90 L2882.14 1325.90 L2882.14 1325.90 L2883.25 1325.90 L2883.25 1325.90 L2884.37 1325.90 L2884.37 1325.90 L2892.90 1325.90 L2892.90 1325.90 L2900.58 1325.90 L2900.58 1325.90 L2911.34 1325.90 L2911.34 1325.90 L2915.67 1325.90 L2915.67 1325.90 L2920.01 1325.90 L2920.01 1325.90 L2924.34 1325.90 L2924.34 1325.90 L2929.66 1325.90 L2929.66 1325.90 L2937.21 1325.90 L2937.21 1325.90 L2946.98 1325.90 L2946.98 1325.90 L2957.75 1325.90 L2957.75 1325.90 L2959.98 1325.90 L2959.98 1325.90 L2960.97 1325.90 L2960.97 1325.90 L2971.86 1325.90 L2971.86 1325.90 L2973.96 1325.90 L2973.96 1291.25 L2977.18 1291.25 L2977.18 1291.25 L3006.38 1291.25 L3006.38 1291.25 L3013.93 1291.25 L3013.93 1291.25 L3022.59 1291.25 L3022.59 1291.25 L3024.70 1291.25 L3024.70 1291.25 L3056.13 1291.25 L3056.13 1291.25 L3071.23 1291.25 L3071.23 1291.25 L3076.55 1291.25 L3076.55 1291.25 L3110.09 1291.25 L3110.09 1291.25 L3115.53 1291.25 L3115.53 1291.25 L3117.63 1291.25 L3117.63 1291.25 L3130.63 1291.25 L3130.63 1291.25 L3134.96 1291.25 L3134.96 1291.25 L3175.92 1291.25 L3175.92 1291.25 L3180.25 1291.25 L3180.25 1291.25 L3186.81 1291.25 L3186.81 1291.25 L3187.80 1291.25 L3187.80 1291.25 L3191.14 1291.25 L3191.14 1291.25 L3221.34 1291.25 L3221.34 1291.25 L3228.89 1291.25 L3228.89 1291.25 L3248.31 1291.25 L3248.31 1291.25 L3252.65 1291.25 L3252.65 1291.25 L3264.53 1291.25 L3264.53 1291.25 L3271.08 1291.25 L3271.08 1212.66 L3289.40 1212.66 L3289.40 1212.66 L3300.17 1212.66 L3300.17 1212.66 L3317.49 1212.66 L3317.49 1212.66 L3327.27 1212.66 L3327.27 1212.66 L3359.57 1212.66 L3359.57 1212.66 L3373.67 1212.66 L3373.67 1212.66 L3374.79 1212.66 L3374.79 1212.66 L3410.43 1212.66 L3410.43 1212.66 L3425.52 1212.66 L3425.52 1212.66 L3436.29 1212.66 L3436.29 1212.66 L3465.50 1212.66 L3465.50 1212.66 L3466.61 1212.66 L3466.61 1212.66 L3474.16 1212.66 L3474.16 1212.66 L3630.70 1212.66 L3630.70 1212.66 L3640.48 1212.66 L3640.48 1212.66 L3678.22 1212.66 L3678.22 1212.66 L3762.50 1212.66 L3762.50 1212.66 L3801.48 1212.66 L3801.48 1212.66" stroke-linejoin="round" style="fill:none;stroke:#377EB8;stroke-width:8.64"/>
	<path d=" M465.67 2489.31 L465.67 2489.31 L465.67 2489.31 L465.67 2489.31 L465.67 2489.31 L481.88 2489.31 L481.88 2462.70 L501.31 2462.70 L501.31 2436.22 L502.43 2436.22 L502.43 2409.74 L504.65 2409.74 L504.65 2409.74 L505.64 2409.74 L505.64 2409.74 L516.53 2409.74 L516.53 2382.88 L519.75 2382.88 L519.75 2356.03 L521.85 2356.03 L521.85 2329.05 L527.30 2329.05 L527.30 2302.19 L530.52 2302.19 L530.52 2275.34 L533.73 2275.34 L533.73 2221.63 L539.18 2221.63 L539.18 2221.63 L541.28 2221.63 L541.28 2194.53 L560.84 2194.53 L560.84 2167.43 L569.37 2167.43 L569.37 2140.32 L570.49 2140.32 L570.49 2113.22 L571.60 2113.22 L571.60 2086.12 L573.71 2086.12 L573.71 2059.02 L578.04 2059.02 L578.04 2031.91 L582.37 2031.91 L582.37 2004.81 L589.92 2004.81 L589.92 1977.46 L594.25 1977.46 L594.25 1950.11 L597.47 1950.11 L597.47 1922.76 L607.24 1922.76 L607.24 1895.29 L609.35 1895.29 L609.35 1867.94 L631.00 1867.94 L631.00 1840.59 L632.12 1840.59 L632.12 1813.24 L633.11 1813.24 L633.11 1785.89 L636.45 1785.89 L636.45 1758.54 L639.66 1758.54 L639.66 1731.07 L644.99 1731.07 L644.99 1703.72 L647.21 1703.72 L647.21 1676.37 L655.88 1676.37 L655.88 1676.37 L662.31 1676.37 L662.31 1676.37 L670.97 1676.37 L670.97 1648.65 L672.09 1648.65 L672.09 1648.65 L676.42 1648.65 L676.42 1620.56 L702.28 1620.56 L702.28 1592.34 L721.71 1592.34 L721.71 1564.25 L739.04 1564.25 L739.04 1564.25 L754.13 1564.25 L754.13 1564.25 L763.91 1564.25 L763.91 1535.66 L768.12 1535.66 L768.12 1535.66 L771.46 1535.66 L771.46 1506.58 L786.56 1506.58 L786.56 1477.37 L849.17 1477.37 L849.17 1448.29 L857.84 1448.29 L857.84 1419.21 L861.05 1419.21 L861.05 1390.13 L896.69 1390.13 L896.69 1390.13 L928.00 1390.13 L928.00 1390.13 L936.66 1390.13 L936.66 1390.13 L956.09 1390.13 L956.09 1390.13 L958.32 1390.13 L958.32 1360.30 L1078.23 1360.30 L1078.23 1330.60 L1081.45 1330.60 L1081.45 1330.60 L1115.98 1330.60 L1115.98 1330.60 L1147.29 1330.60 L1147.29 1299.17 L1190.60 1299.17 L1190.60 1267.73 L1213.24 1267.73 L1213.24 1267.73 L1217.58 1267.73 L1217.58 1267.73 L1253.22 1267.73 L1253.22 1267.73 L1269.43 1267.73 L1269.43 1267.73 L1294.30 1267.73 L1294.30 1233.21 L1320.17 1233.21 L1320.17 1233.21 L1332.05 1233.21 L1332.05 1233.21 L1350.36 1233.21 L1350.36 1233.21 L1385.01 1233.21 L1385.01 1193.23 L1398.99 1193.23 L1398.99 1193.23 L1418.42 1193.23 L1418.42 1151.53 L1425.97 1151.53 L1425.97 1151.53 L1430.30 1151.53 L1430.30 1151.53 L1434.63 1151.53 L1434.63 1151.53 L1442.18 1151.53 L1442.18 1151.53 L1488.71 1151.53 L1488.71 1151.53 L1526.46 1151.53 L1526.46 1097.45 L1556.78 1097.45 L1556.78 1097.45 L1580.54 1097.45 L1580.54 1097.45 L1596.75 1097.45 L1596.75 1097.45 L1645.26 1097.45 L1645.26 1097.45 L1657.14 1097.45 L1657.14 1025.55 L1673.35 1025.55 L1673.35 1025.55 L1729.53 1025.55 L1729.53 1025.55 L1907.85 1025.55 L1907.85 1025.55 L2001.78 1025.55 L2001.78 1025.55 L2075.29 1025.55 L2075.29 1025.55 L2219.95 1025.55 L2219.95 1025.55 L2605.68 1025.55 L2605.68 1025.55 L2775.22 1025.55 L2775.22 1025.55 L2820.63 1025.55 L2820.63 1025.55 L3143.62 1025.55 L3143.62 1025.55 L3614.49 1025.55 L3614.49 1025.55" stroke-linejoin="round" style="fill:none;stroke:#4DAF4A;stroke-width:8.64"/>
	<line x1="465.80" y1="2489.19" x2="465.80" y2="275.35" style="stroke:#000000;stroke-width:5.76"/>
	<line x1="465.80" y1="2489.19" x2="425.82" y2="2489.19" style="stroke:#000000;stroke-width:5.76"/>
	<text x="405.78" y="2524.21" style="font-family:'Helvetica';font-size:99.99px;fill:#000000" text-anchor="end">0.0</text>
	<line x1="465.80" y1="2046.39" x2="425.82" y2="2046.39" style="stroke:#000000;stroke-width:5.76"/>
	<text x="405.78" y="2081.42" style="font-family:'Helvetica';font-size:99.99px;fill:#000000" text-anchor="end">0.1</text>
	<line x1="465.80" y1="1603.73" x2="425.82" y2="1603.73" style="stroke:#000000;stroke-width:5.76"/>
	<text x="405.78" y="1638.75" style="font-family:'Helvetica';font-size:99.99px;fill:#000000" text-anchor="end">0.2</text>
	<line x1="465.80" y1="1160.94" x2="425.82" y2="1160.94" style="stroke:#000000;stroke-width:5.76"/>
	<text x="405.78" y="1195.96" style="font-family:'Helvetica';font-size:99.99px;fill:#000000" text-anchor="end">0.3</text>
	<line x1="465.80" y1="718.14" x2="425.82" y2="718.14" style="stroke:#000000;stroke-width:5.76"/>
	<text x="405.78" y="753.17" style="font-family:'Helvetica';font-size:99.99px;fill:#000000" text-anchor="end">0.4</text>
	<line x1="465.80" y1="275.35" x2="425.82" y2="275.35" style="stroke:#000000;stroke-width:5.76"/>
	<text x="405.78" y="310.38" style="font-family:'Helvetica';font-size:99.99px;fill:#000000" text-anchor="end">0.5</text>
	<text x="190.71" y="1382.33" style="font-family:'Helvetica';font-size:99.99px;fill:#000000" transform="rotate(-90 190.71,1382.33)" text-anchor="middle">Probability of Relapse</text>
	<line x1="465.80" y1="2489.19" x2="3859.02" y2="2489.19" style="stroke:#000000;stroke-width:5.76"/>
	<line x1="465.80" y1="2489.19" x2="465.80" y2="2529.16" style="stroke:#000000;stroke-width:5.76"/>
	<text x="465.80" y="2619.14" style="font-family:'Helvetica';font-size:99.99px;fill:#000000" text-anchor="middle">0</text>
	<line x1="1254.83" y1="2489.19" x2="1254.83" y2="2529.16" style="stroke:#000000;stroke-width:5.76"/>
	<text x="1254.83" y="2619.14" style="font-family:'Helvetica';font-size:99.99px;fill:#000000" text-anchor="middle">2</text>
	<line x1="2043.98" y1="2489.19" x2="2043.98" y2="2529.16" style="stroke:#000000;stroke-width:5.76"/>
	<text x="2043.98" y="2619.14" style="font-family:'Helvetica';font-size:99.99px;fill:#000000" text-anchor="middle">4</text>
	<line x1="2833.01" y1="2489.19" x2="2833.01" y2="2529.16" style="stroke:#000000;stroke-width:5.76"/>
	<text x="2833.01" y="2619.14" style="font-family:'Helvetica';font-size:99.99px;fill:#000000" text-anchor="middle">6</text>
	<line x1="3622.16" y1="2489.19" x2="3622.16" y2="2529.16" style="stroke:#000000;stroke-width:5.76"/>
	<text x="3622.16" y="2619.14" style="font-family:'Helvetica';font-size:99.99px;fill:#000000" text-anchor="middle">8</text>
	<text x="2162.41" y="2729.16" style="font-family:'Helvetica';font-size:99.99px;fill:#000000" text-anchor="middle">Years since transplanation</text>
	<rect x="2946.49" y="2057.41" width="878.01" height="397.25" style="fill:#FFFFFF"/>
	<rect x="2949.37" y="2060.29" width="872.25" height="391.49" style="fill:none;stroke:#FFFFFF;stroke-width:5.76"/>
	<line x1="2955.03" y1="2116.07" x2="3155.13" y2="2116.07" style="stroke:#E41A1C;stroke-width:8.64"/>
	<line x1="2955.03" y1="2256.03" x2="3155.13" y2="2256.03" style="stroke:#377EB8;stroke-width:8.64"/>
	<line x1="2955.03" y1="2396.00" x2="3155.13" y2="2396.00" style="stroke:#4DAF4A;stroke-width:8.64"/>
	<text x="3215.03" y="2151.10" style="font-family:'Helvetica';font-size:99.99px;fill:#000000">Low Risk</text>
	<text x="3215.03" y="2291.06" style="font-family:'Helvetica';font-size:99.99px;fill:#000000">Medium Risk</text>
	<text x="3215.03" y="2431.03" style="font-family:'Helvetica';font-size:99.99px;fill:#000000">High Risk</text>
	<text x="2162.41" y="215.98" style="font-family:'Helvetica';font-size:139.96px;fill:#000000" text-anchor="middle">Kaplan–Meier failure estimates</text>
</svg>
