<?xml version="1.0" encoding="UTF-8" standalone="no"?>
<!-- This is a Stata 18.5 generated SVG file (http://www.stata.com) -->

<svg version="1.1" width="5.500in" height="4.000in" viewBox="0 0 3960 2880" xmlns="http://www.w3.org/2000/svg" xmlns:xlink="http://www.w3.org/1999/xlink">
	<desc>Stata Graph - Graph</desc>
	<rect x="0" y="0" width="3960" height="2880" style="fill:#FFFFFF;stroke:none"/>
	<rect x="0.00" y="0.00" width="3959.88" height="2880.00" style="fill:#FFFFFF"/>
	<rect x="2.88" y="2.88" width="3954.12" height="2874.24" style="fill:none;stroke:#FFFFFF;stroke-width:5.76"/>
	<line x1="407.39" y1="2489.19" x2="3859.02" y2="2489.19" style="stroke:#C0C0C0;stroke-width:5.76"/>
	<line x1="407.39" y1="1892.07" x2="3859.02" y2="1892.07" style="stroke:#C0C0C0;stroke-width:5.76"/>
	<line x1="407.39" y1="1294.96" x2="3859.02" y2="1294.96" style="stroke:#C0C0C0;stroke-width:5.76"/>
	<line x1="407.39" y1="697.85" x2="3859.02" y2="697.85" style="stroke:#C0C0C0;stroke-width:5.76"/>
	<line x1="407.39" y1="100.86" x2="3859.02" y2="100.86" style="stroke:#C0C0C0;stroke-width:5.76"/>
	<line x1="407.39" y1="2489.19" x2="407.39" y2="100.86" style="stroke:#C0C0C0;stroke-width:5.76"/>
	<line x1="1086.28" y1="2489.19" x2="1086.28" y2="100.86" style="stroke:#C0C0C0;stroke-width:5.76"/>
	<line x1="1765.05" y1="2489.19" x2="1765.05" y2="100.86" style="stroke:#C0C0C0;stroke-width:5.76"/>
	<line x1="2443.82" y1="2489.19" x2="2443.82" y2="100.86" style="stroke:#C0C0C0;stroke-width:5.76"/>
	<line x1="3122.71" y1="2489.19" x2="3122.71" y2="100.86" style="stroke:#C0C0C0;stroke-width:5.76"/>
	<line x1="3801.48" y1="2489.19" x2="3801.48" y2="100.86" style="stroke:#C0C0C0;stroke-width:5.76"/>
	<path d=" M407.39 100.86 L475.32 101.60 L543.14 104.70 L611.08 110.64 L678.89 119.42 L746.83 131.30 L814.65 146.03 L882.59 163.73 L950.40 184.15 L1018.34 207.29 L1086.15 232.90 L1154.09 260.87 L1221.91 291.19 L1289.85 323.62 L1357.66 358.02 L1425.60 394.28 L1493.42 432.27 L1561.35 471.87 L1629.29 512.96 L1697.11 555.53 L1765.05 599.59 L1832.86 644.88 L1900.80 691.54 L1968.62 739.31 L2036.55 788.31 L2104.37 838.43 L2172.31 889.17 L2240.12 939.91 L2308.06 990.03 L2375.88 1038.91 L2443.82 1086.06 L2511.63 1130.74 L2579.57 1172.94 L2647.51 1212.79 L2715.32 1250.90 L2783.26 1287.41 L2851.08 1322.68 L2919.02 1357.21 L2986.83 1391.24 L3054.77 1425.15 L3122.58 1459.06 L3190.52 1493.21 L3258.34 1527.74 L3326.28 1562.39 L3394.09 1597.17 L3462.03 1632.07 L3529.85 1667.09 L3597.78 1701.99 L3665.60 1737.01 L3733.54 1771.91 L3801.48 1806.68" stroke-linejoin="round" style="fill:none;stroke:#E41A1C;stroke-width:8.64"/>
	<path d=" M407.39 100.86 L475.32 101.97 L543.14 106.55 L611.08 115.34 L678.89 128.46 L746.83 146.03 L814.65 167.93 L882.59 194.17 L950.40 224.37 L1018.34 258.40 L1086.15 296.14 L1154.09 337.23 L1221.91 381.66 L1289.85 428.93 L1357.66 479.05 L1425.60 531.77 L1493.42 586.84 L1561.35 644.02 L1629.29 703.17 L1697.11 764.18 L1765.05 827.05 L1832.86 891.52 L1900.80 957.48 L1968.62 1024.93 L2036.55 1093.86 L2104.37 1163.78 L2172.31 1234.44 L2240.12 1304.61 L2308.06 1373.67 L2375.88 1440.74 L2443.82 1504.97 L2511.63 1565.73 L2579.57 1622.91 L2647.51 1676.62 L2715.32 1727.60 L2783.26 1776.49 L2851.08 1823.51 L2919.02 1869.43 L2986.83 1914.47 L3054.77 1959.02 L3122.58 2003.58 L3190.52 2048.37 L3258.34 2093.30 L3326.28 2138.34 L3394.09 2183.39 L3462.03 2228.44 L3529.85 2273.36 L3597.78 2318.16 L3665.60 2362.71 L3733.54 2407.01 L3801.48 2450.95" stroke-linejoin="round" style="fill:none;stroke:#377EB8;stroke-width:8.64"/>
	<line x1="407.39" y1="2489.19" x2="407.39" y2="100.86" style="stroke:#000000;stroke-width:5.76"/>
	<line x1="407.39" y1="2489.19" x2="367.41" y2="2489.19" style="stroke:#000000;stroke-width:5.76"/>
	<text x="347.49" y="2524.21" style="font-family:'Helvetica';font-size:99.99px;fill:#000000" text-anchor="end">.6</text>
	<line x1="407.39" y1="1892.07" x2="367.41" y2="1892.07" style="stroke:#000000;stroke-width:5.76"/>
	<text x="347.49" y="1927.10" style="font-family:'Helvetica';font-size:99.99px;fill:#000000" text-anchor="end">.7</text>
	<line x1="407.39" y1="1294.96" x2="367.41" y2="1294.96" style="stroke:#000000;stroke-width:5.76"/>
	<text x="347.49" y="1329.99" style="font-family:'Helvetica';font-size:99.99px;fill:#000000" text-anchor="end">.8</text>
	<line x1="407.39" y1="697.85" x2="367.41" y2="697.85" style="stroke:#000000;stroke-width:5.76"/>
	<text x="347.49" y="732.88" style="font-family:'Helvetica';font-size:99.99px;fill:#000000" text-anchor="end">.9</text>
	<line x1="407.39" y1="100.86" x2="367.41" y2="100.86" style="stroke:#000000;stroke-width:5.76"/>
	<text x="347.49" y="135.89" style="font-family:'Helvetica';font-size:99.99px;fill:#000000" text-anchor="end">1</text>
	<text x="190.71" y="1294.96" style="font-family:'Helvetica';font-size:99.99px;fill:#000000" transform="rotate(-90 190.71,1294.96)" text-anchor="middle">S(t)</text>
	<line x1="407.39" y1="2489.19" x2="3859.02" y2="2489.19" style="stroke:#000000;stroke-width:5.76"/>
	<line x1="407.39" y1="2489.19" x2="407.39" y2="2529.16" style="stroke:#000000;stroke-width:5.76"/>
	<text x="407.39" y="2619.14" style="font-family:'Helvetica';font-size:99.99px;fill:#000000" text-anchor="middle">0</text>
	<line x1="1086.28" y1="2489.19" x2="1086.28" y2="2529.16" style="stroke:#000000;stroke-width:5.76"/>
	<text x="1086.28" y="2619.14" style="font-family:'Helvetica';font-size:99.99px;fill:#000000" text-anchor="middle">1</text>
	<line x1="1765.05" y1="2489.19" x2="1765.05" y2="2529.16" style="stroke:#000000;stroke-width:5.76"/>
	<text x="1765.05" y="2619.14" style="font-family:'Helvetica';font-size:99.99px;fill:#000000" text-anchor="middle">2</text>
	<line x1="2443.82" y1="2489.19" x2="2443.82" y2="2529.16" style="stroke:#000000;stroke-width:5.76"/>
	<text x="2443.82" y="2619.14" style="font-family:'Helvetica';font-size:99.99px;fill:#000000" text-anchor="middle">3</text>
	<line x1="3122.71" y1="2489.19" x2="3122.71" y2="2529.16" style="stroke:#000000;stroke-width:5.76"/>
	<text x="3122.71" y="2619.14" style="font-family:'Helvetica';font-size:99.99px;fill:#000000" text-anchor="middle">4</text>
	<line x1="3801.48" y1="2489.19" x2="3801.48" y2="2529.16" style="stroke:#000000;stroke-width:5.76"/>
	<text x="3801.48" y="2619.14" style="font-family:'Helvetica';font-size:99.99px;fill:#000000" text-anchor="middle">5</text>
	<text x="2133.20" y="2729.16" style="font-family:'Helvetica';font-size:99.99px;fill:#000000" text-anchor="middle">Years since surgery</text>
	<line x1="3048.83" y1="228.57" x2="3248.81" y2="228.57" style="stroke:#E41A1C;stroke-width:8.64"/>
	<line x1="3048.83" y1="368.54" x2="3248.81" y2="368.54" style="stroke:#377EB8;stroke-width:8.64"/>
	<text x="3308.83" y="263.60" style="font-family:'Helvetica';font-size:99.99px;fill:#000000">hormon=0</text>
	<text x="3308.83" y="403.57" style="font-family:'Helvetica';font-size:99.99px;fill:#000000">hormon=1</text>
</svg>
