<?xml version="1.0" encoding="UTF-8" standalone="no"?>
<!-- This is a Stata 18.5 generated SVG file (http://www.stata.com) -->

<svg version="1.1" width="5.500in" height="4.000in" viewBox="0 0 3960 2880" xmlns="http://www.w3.org/2000/svg" xmlns:xlink="http://www.w3.org/1999/xlink">
	<desc>Stata Graph - RS</desc>
	<rect x="0" y="0" width="3960" height="2880" style="fill:#FFFFFF;stroke:none"/>
	<rect x="0.00" y="0.00" width="3959.88" height="2880.00" style="fill:#FFFFFF"/>
	<rect x="2.88" y="2.88" width="3954.12" height="2874.24" style="fill:none;stroke:#FFFFFF;stroke-width:5.76"/>
	<line x1="407.39" y1="2489.19" x2="3859.02" y2="2489.19" style="stroke:#C0C0C0;stroke-width:5.76"/>
	<line x1="407.39" y1="1693.08" x2="3859.02" y2="1693.08" style="stroke:#C0C0C0;stroke-width:5.76"/>
	<line x1="407.39" y1="896.97" x2="3859.02" y2="896.97" style="stroke:#C0C0C0;stroke-width:5.76"/>
	<line x1="407.39" y1="100.86" x2="3859.02" y2="100.86" style="stroke:#C0C0C0;stroke-width:5.76"/>
	<line x1="407.39" y1="2489.19" x2="407.39" y2="100.86" style="stroke:#C0C0C0;stroke-width:5.76"/>
	<line x1="1086.28" y1="2489.19" x2="1086.28" y2="100.86" style="stroke:#C0C0C0;stroke-width:5.76"/>
	<line x1="1765.05" y1="2489.19" x2="1765.05" y2="100.86" style="stroke:#C0C0C0;stroke-width:5.76"/>
	<line x1="2443.82" y1="2489.19" x2="2443.82" y2="100.86" style="stroke:#C0C0C0;stroke-width:5.76"/>
	<line x1="3122.71" y1="2489.19" x2="3122.71" y2="100.86" style="stroke:#C0C0C0;stroke-width:5.76"/>
	<line x1="3801.48" y1="2489.19" x2="3801.48" y2="100.86" style="stroke:#C0C0C0;stroke-width:5.76"/>
	<path d=" M407.39 100.86 L441.29 297.13 L475.32 524.22 L509.23 677.68 L543.14 786.70 L577.05 874.82 L611.08 952.90 L644.99 1026.29 L678.89 1095.84 L712.80 1161.55 L746.83 1223.18 L780.74 1280.98 L814.65 1335.06 L848.55 1385.42 L882.59 1432.33 L916.49 1476.14 L950.40 1516.97 L984.43 1555.21 L1018.34 1591.10 L1052.25 1624.76 L1086.15 1656.45 L1120.19 1686.39 L1154.09 1714.49 L1188.00 1741.22 L1221.91 1766.46 L1255.94 1790.35 L1289.85 1812.99 L1323.75 1834.53 L1357.66 1854.95 L1391.69 1874.38 L1425.60 1892.94 L1459.51 1910.64 L1493.42 1927.47 L1527.45 1943.43 L1561.35 1958.90 L1595.26 1973.50 L1629.29 1987.61 L1663.20 2001.22 L1697.11 2014.22 L1731.02 2026.72 L1765.05 2038.72 L1798.95 2050.35 L1832.86 2061.49 L1866.77 2072.38 L1900.80 2082.78 L1934.71 2092.93 L1968.62 2102.70 L2002.52 2112.23 L2036.55 2121.39 L2070.46 2130.30 L2104.37 2138.96 L2138.40 2147.38 L2172.31 2155.67 L2206.22 2163.59 L2240.12 2171.39 L2274.15 2178.93 L2308.06 2186.36 L2341.97 2193.54 L2375.88 2200.59 L2409.91 2207.52 L2443.82 2214.20 L2477.72 2220.89 L2511.63 2227.32 L2545.66 2233.63 L2579.57 2239.70 L2613.48 2245.76 L2647.51 2251.70 L2681.42 2257.52 L2715.32 2263.21 L2749.23 2268.90 L2783.26 2274.35 L2817.17 2279.79 L2851.08 2285.12 L2884.98 2290.31 L2919.02 2295.51 L2952.92 2300.46 L2986.83 2305.53 L3020.74 2310.36 L3054.77 2315.19 L3088.68 2320.01 L3122.58 2324.59 L3156.49 2329.30 L3190.52 2333.87 L3224.43 2338.33 L3258.34 2342.78 L3292.37 2347.12 L3326.28 2351.45 L3360.18 2355.65 L3394.09 2359.86 L3428.12 2364.07 L3462.03 2368.15 L3495.94 2372.24 L3529.85 2376.20 L3563.88 2380.16 L3597.78 2384.12 L3631.69 2387.95 L3665.60 2391.91 L3699.63 2395.63 L3733.54 2399.46 L3767.45 2403.18 L3801.48 2406.89" stroke-linejoin="round" style="fill:none;stroke:#E41A1C;stroke-width:8.64"/>
	<path d=" M407.39 100.86 L441.29 270.15 L475.32 497.12 L509.23 662.08 L543.14 783.24 L577.05 881.99 L611.08 969.12 L644.99 1049.93 L678.89 1125.67 L712.80 1196.33 L746.83 1262.17 L780.74 1323.18 L814.65 1379.73 L848.55 1432.08 L882.59 1480.59 L916.49 1525.27 L950.40 1566.85 L984.43 1605.34 L1018.34 1641.22 L1052.25 1674.76 L1086.15 1706.07 L1120.19 1735.40 L1154.09 1763.00 L1188.00 1788.86 L1221.91 1813.12 L1255.94 1836.01 L1289.85 1857.67 L1323.75 1878.09 L1357.66 1897.39 L1391.69 1915.59 L1425.60 1932.79 L1459.51 1949.25 L1493.42 1964.72 L1527.45 1979.44 L1561.35 1993.43 L1595.26 2006.79 L1629.29 2019.54 L1663.20 2031.67 L1697.11 2043.30 L1731.02 2054.44 L1765.05 2065.08 L1798.95 2075.35 L1832.86 2085.13 L1866.77 2094.53 L1900.80 2103.69 L1934.71 2112.35 L1968.62 2120.89 L2002.52 2128.94 L2036.55 2136.86 L2070.46 2144.41 L2104.37 2151.83 L2138.40 2159.01 L2172.31 2165.82 L2206.22 2172.62 L2240.12 2179.06 L2274.15 2185.37 L2308.06 2191.56 L2341.97 2197.50 L2375.88 2203.31 L2409.91 2209.01 L2443.82 2214.58 L2477.72 2220.02 L2511.63 2225.22 L2545.66 2230.42 L2579.57 2235.37 L2613.48 2240.32 L2647.51 2245.14 L2681.42 2249.85 L2715.32 2254.42 L2749.23 2258.88 L2783.26 2263.33 L2817.17 2267.67 L2851.08 2271.87 L2884.98 2276.08 L2919.02 2280.17 L2952.92 2284.25 L2986.83 2288.21 L3020.74 2292.05 L3054.77 2295.88 L3088.68 2299.59 L3122.58 2303.31 L3156.49 2307.02 L3190.52 2310.61 L3224.43 2314.07 L3258.34 2317.54 L3292.37 2321.00 L3326.28 2324.47 L3360.18 2327.81 L3394.09 2331.03 L3428.12 2334.37 L3462.03 2337.59 L3495.94 2340.68 L3529.85 2343.90 L3563.88 2346.99 L3597.78 2350.09 L3631.69 2353.06 L3665.60 2356.15 L3699.63 2359.12 L3733.54 2361.97 L3767.45 2364.94 L3801.48 2367.78" stroke-linejoin="round" style="fill:none;stroke:#377EB8;stroke-width:8.64"/>
	<line x1="407.39" y1="2489.19" x2="407.39" y2="100.86" style="stroke:#000000;stroke-width:5.76"/>
	<line x1="407.39" y1="2489.19" x2="367.41" y2="2489.19" style="stroke:#000000;stroke-width:5.76"/>
	<text x="347.49" y="2524.21" style="font-family:'Helvetica';font-size:99.99px;fill:#000000" text-anchor="end">.4</text>
	<line x1="407.39" y1="1693.08" x2="367.41" y2="1693.08" style="stroke:#000000;stroke-width:5.76"/>
	<text x="347.49" y="1728.11" style="font-family:'Helvetica';font-size:99.99px;fill:#000000" text-anchor="end">.6</text>
	<line x1="407.39" y1="896.97" x2="367.41" y2="896.97" style="stroke:#000000;stroke-width:5.76"/>
	<text x="347.49" y="932.00" style="font-family:'Helvetica';font-size:99.99px;fill:#000000" text-anchor="end">.8</text>
	<line x1="407.39" y1="100.86" x2="367.41" y2="100.86" style="stroke:#000000;stroke-width:5.76"/>
	<text x="347.49" y="135.89" style="font-family:'Helvetica';font-size:99.99px;fill:#000000" text-anchor="end">1</text>
	<text x="190.71" y="1294.96" style="font-family:'Helvetica';font-size:99.99px;fill:#000000" transform="rotate(-90 190.71,1294.96)" text-anchor="middle">R(t)</text>
	<line x1="407.39" y1="2489.19" x2="3859.02" y2="2489.19" style="stroke:#000000;stroke-width:5.76"/>
	<line x1="407.39" y1="2489.19" x2="407.39" y2="2529.16" style="stroke:#000000;stroke-width:5.76"/>
	<text x="407.39" y="2619.14" style="font-family:'Helvetica';font-size:99.99px;fill:#000000" text-anchor="middle">0</text>
	<line x1="1086.28" y1="2489.19" x2="1086.28" y2="2529.16" style="stroke:#000000;stroke-width:5.76"/>
	<text x="1086.28" y="2619.14" style="font-family:'Helvetica';font-size:99.99px;fill:#000000" text-anchor="middle">2</text>
	<line x1="1765.05" y1="2489.19" x2="1765.05" y2="2529.16" style="stroke:#000000;stroke-width:5.76"/>
	<text x="1765.05" y="2619.14" style="font-family:'Helvetica';font-size:99.99px;fill:#000000" text-anchor="middle">4</text>
	<line x1="2443.82" y1="2489.19" x2="2443.82" y2="2529.16" style="stroke:#000000;stroke-width:5.76"/>
	<text x="2443.82" y="2619.14" style="font-family:'Helvetica';font-size:99.99px;fill:#000000" text-anchor="middle">6</text>
	<line x1="3122.71" y1="2489.19" x2="3122.71" y2="2529.16" style="stroke:#000000;stroke-width:5.76"/>
	<text x="3122.71" y="2619.14" style="font-family:'Helvetica';font-size:99.99px;fill:#000000" text-anchor="middle">8</text>
	<line x1="3801.48" y1="2489.19" x2="3801.48" y2="2529.16" style="stroke:#000000;stroke-width:5.76"/>
	<text x="3801.48" y="2619.14" style="font-family:'Helvetica';font-size:99.99px;fill:#000000" text-anchor="middle">10</text>
	<text x="2133.20" y="2729.16" style="font-family:'Helvetica';font-size:99.99px;fill:#000000" text-anchor="middle">Time since diagnosis</text>
	<line x1="3355.11" y1="228.57" x2="3555.09" y2="228.57" style="stroke:#E41A1C;stroke-width:8.64"/>
	<line x1="3355.11" y1="368.54" x2="3555.09" y2="368.54" style="stroke:#377EB8;stroke-width:8.64"/>
	<text x="3615.11" y="263.60" style="font-family:'Helvetica';font-size:99.99px;fill:#000000">Rm</text>
	<text x="3615.11" y="403.57" style="font-family:'Helvetica';font-size:99.99px;fill:#000000">Rf</text>
</svg>
