<?xml version="1.0" encoding="UTF-8" standalone="no"?>
<!-- This is a Stata 18.5 generated SVG file (http://www.stata.com) -->

<svg version="1.1" width="5.500in" height="4.000in" viewBox="0 0 3960 2880" xmlns="http://www.w3.org/2000/svg" xmlns:xlink="http://www.w3.org/1999/xlink">
	<desc>Stata Graph - Marginal</desc>
	<rect x="0" y="0" width="3960" height="2880" style="fill:#FFFFFF;stroke:none"/>
	<rect x="0.00" y="0.00" width="3959.88" height="2880.00" style="fill:#FFFFFF"/>
	<rect x="2.88" y="2.88" width="3954.12" height="2874.24" style="fill:none;stroke:#FFFFFF;stroke-width:5.76"/>
	<line x1="407.39" y1="2489.19" x2="3859.02" y2="2489.19" style="stroke:#C0C0C0;stroke-width:5.76"/>
	<line x1="407.39" y1="1892.07" x2="3859.02" y2="1892.07" style="stroke:#C0C0C0;stroke-width:5.76"/>
	<line x1="407.39" y1="1294.96" x2="3859.02" y2="1294.96" style="stroke:#C0C0C0;stroke-width:5.76"/>
	<line x1="407.39" y1="697.85" x2="3859.02" y2="697.85" style="stroke:#C0C0C0;stroke-width:5.76"/>
	<line x1="407.39" y1="100.86" x2="3859.02" y2="100.86" style="stroke:#C0C0C0;stroke-width:5.76"/>
	<line x1="407.39" y1="2489.19" x2="407.39" y2="100.86" style="stroke:#C0C0C0;stroke-width:5.76"/>
	<line x1="1086.28" y1="2489.19" x2="1086.28" y2="100.86" style="stroke:#C0C0C0;stroke-width:5.76"/>
	<line x1="1765.05" y1="2489.19" x2="1765.05" y2="100.86" style="stroke:#C0C0C0;stroke-width:5.76"/>
	<line x1="2443.82" y1="2489.19" x2="2443.82" y2="100.86" style="stroke:#C0C0C0;stroke-width:5.76"/>
	<line x1="3122.71" y1="2489.19" x2="3122.71" y2="100.86" style="stroke:#C0C0C0;stroke-width:5.76"/>
	<line x1="3801.48" y1="2489.19" x2="3801.48" y2="100.86" style="stroke:#C0C0C0;stroke-width:5.76"/>
	<path d=" M407.39 100.86 L441.29 323.86 L475.32 549.47 L509.23 693.27 L543.14 793.14 L577.05 873.58 L611.08 944.86 L644.99 1011.81 L678.89 1074.93 L712.80 1134.08 L746.83 1188.90 L780.74 1239.89 L814.65 1287.04 L848.55 1330.60 L882.59 1370.82 L916.49 1407.95 L950.40 1442.48 L984.43 1474.90 L1018.34 1505.22 L1052.25 1533.93 L1086.15 1561.03 L1120.19 1586.90 L1154.09 1611.52 L1188.00 1635.04 L1221.91 1657.68 L1255.94 1679.46 L1289.85 1700.38 L1323.75 1720.67 L1357.66 1740.23 L1391.69 1759.28 L1425.60 1777.72 L1459.51 1795.67 L1493.42 1813.12 L1527.45 1830.07 L1561.35 1846.66 L1595.26 1862.74 L1629.29 1878.46 L1663.20 1893.93 L1697.11 1908.90 L1731.02 1923.51 L1765.05 1937.86 L1798.95 1951.72 L1832.86 1965.46 L1866.77 1978.82 L1900.80 1991.82 L1934.71 2004.57 L1968.62 2017.06 L2002.52 2029.32 L2036.55 2041.32 L2070.46 2052.95 L2104.37 2064.46 L2138.40 2075.72 L2172.31 2086.74 L2206.22 2097.50 L2240.12 2108.15 L2274.15 2118.42 L2308.06 2128.69 L2341.97 2138.59 L2375.88 2148.37 L2409.91 2158.02 L2443.82 2167.43 L2477.72 2176.71 L2511.63 2185.74 L2545.66 2194.65 L2579.57 2203.44 L2613.48 2211.98 L2647.51 2220.39 L2681.42 2228.68 L2715.32 2236.85 L2749.23 2244.90 L2783.26 2252.82 L2817.17 2260.49 L2851.08 2268.16 L2884.98 2275.59 L2919.02 2282.89 L2952.92 2290.19 L2986.83 2297.24 L3020.74 2304.30 L3054.77 2311.23 L3088.68 2317.91 L3122.58 2324.59 L3156.49 2331.15 L3190.52 2337.59 L3224.43 2344.02 L3258.34 2350.21 L3292.37 2356.40 L3326.28 2362.46 L3360.18 2368.53 L3394.09 2374.34 L3428.12 2380.16 L3462.03 2385.85 L3495.94 2391.54 L3529.85 2396.99 L3563.88 2402.56 L3597.78 2407.88 L3631.69 2413.20 L3665.60 2418.40 L3699.63 2423.60 L3733.54 2428.67 L3767.45 2433.74 L3801.48 2438.69" stroke-linejoin="round" style="fill:none;stroke:#E41A1C;stroke-width:8.64"/>
	<path d=" M407.39 100.86 L441.29 276.34 L475.32 484.99 L509.23 629.04 L543.14 732.50 L577.05 816.40 L611.08 890.16 L644.99 958.60 L678.89 1022.58 L712.80 1081.61 L746.83 1136.06 L780.74 1185.93 L814.65 1231.72 L848.55 1273.80 L882.59 1312.16 L916.49 1347.43 L950.40 1379.98 L984.43 1410.18 L1018.34 1438.39 L1052.25 1464.75 L1086.15 1489.63 L1120.19 1513.14 L1154.09 1535.41 L1188.00 1556.58 L1221.91 1576.87 L1255.94 1596.30 L1289.85 1614.86 L1323.75 1632.81 L1357.66 1650.13 L1391.69 1666.84 L1425.60 1683.05 L1459.51 1698.77 L1493.42 1714.11 L1527.45 1728.97 L1561.35 1743.32 L1595.26 1757.43 L1629.29 1771.17 L1663.20 1784.53 L1697.11 1797.52 L1731.02 1810.27 L1765.05 1822.65 L1798.95 1834.77 L1832.86 1846.66 L1866.77 1858.16 L1900.80 1869.55 L1934.71 1880.56 L1968.62 1891.45 L2002.52 1901.97 L2036.55 1912.37 L2070.46 1922.52 L2104.37 1932.54 L2138.40 1942.32 L2172.31 1951.85 L2206.22 1961.25 L2240.12 1970.41 L2274.15 1979.44 L2308.06 1988.23 L2341.97 1996.89 L2375.88 2005.43 L2409.91 2013.85 L2443.82 2022.14 L2477.72 2030.18 L2511.63 2038.10 L2545.66 2045.90 L2579.57 2053.57 L2613.48 2061.12 L2647.51 2068.55 L2681.42 2075.85 L2715.32 2083.03 L2749.23 2090.08 L2783.26 2097.01 L2817.17 2103.82 L2851.08 2110.50 L2884.98 2117.18 L2919.02 2123.74 L2952.92 2130.18 L2986.83 2136.49 L3020.74 2142.67 L3054.77 2148.86 L3088.68 2154.93 L3122.58 2160.87 L3156.49 2166.68 L3190.52 2172.50 L3224.43 2178.19 L3258.34 2183.88 L3292.37 2189.45 L3326.28 2194.90 L3360.18 2200.34 L3394.09 2205.67 L3428.12 2210.86 L3462.03 2216.06 L3495.94 2221.26 L3529.85 2226.21 L3563.88 2231.28 L3597.78 2236.11 L3631.69 2241.06 L3665.60 2245.89 L3699.63 2250.59 L3733.54 2255.29 L3767.45 2259.87 L3801.48 2264.45" stroke-linejoin="round" style="fill:none;stroke:#377EB8;stroke-width:8.64"/>
	<line x1="407.39" y1="2489.19" x2="407.39" y2="100.86" style="stroke:#000000;stroke-width:5.76"/>
	<line x1="407.39" y1="2489.19" x2="367.41" y2="2489.19" style="stroke:#000000;stroke-width:5.76"/>
	<text x="347.49" y="2524.21" style="font-family:'Helvetica';font-size:99.99px;fill:#000000" text-anchor="end">.2</text>
	<line x1="407.39" y1="1892.07" x2="367.41" y2="1892.07" style="stroke:#000000;stroke-width:5.76"/>
	<text x="347.49" y="1927.10" style="font-family:'Helvetica';font-size:99.99px;fill:#000000" text-anchor="end">.4</text>
	<line x1="407.39" y1="1294.96" x2="367.41" y2="1294.96" style="stroke:#000000;stroke-width:5.76"/>
	<text x="347.49" y="1329.99" style="font-family:'Helvetica';font-size:99.99px;fill:#000000" text-anchor="end">.6</text>
	<line x1="407.39" y1="697.85" x2="367.41" y2="697.85" style="stroke:#000000;stroke-width:5.76"/>
	<text x="347.49" y="732.88" style="font-family:'Helvetica';font-size:99.99px;fill:#000000" text-anchor="end">.8</text>
	<line x1="407.39" y1="100.86" x2="367.41" y2="100.86" style="stroke:#000000;stroke-width:5.76"/>
	<text x="347.49" y="135.89" style="font-family:'Helvetica';font-size:99.99px;fill:#000000" text-anchor="end">1</text>
	<text x="190.71" y="1294.96" style="font-family:'Helvetica';font-size:99.99px;fill:#000000" transform="rotate(-90 190.71,1294.96)" text-anchor="middle">S(t)</text>
	<line x1="407.39" y1="2489.19" x2="3859.02" y2="2489.19" style="stroke:#000000;stroke-width:5.76"/>
	<line x1="407.39" y1="2489.19" x2="407.39" y2="2529.16" style="stroke:#000000;stroke-width:5.76"/>
	<text x="407.39" y="2619.14" style="font-family:'Helvetica';font-size:99.99px;fill:#000000" text-anchor="middle">0</text>
	<line x1="1086.28" y1="2489.19" x2="1086.28" y2="2529.16" style="stroke:#000000;stroke-width:5.76"/>
	<text x="1086.28" y="2619.14" style="font-family:'Helvetica';font-size:99.99px;fill:#000000" text-anchor="middle">2</text>
	<line x1="1765.05" y1="2489.19" x2="1765.05" y2="2529.16" style="stroke:#000000;stroke-width:5.76"/>
	<text x="1765.05" y="2619.14" style="font-family:'Helvetica';font-size:99.99px;fill:#000000" text-anchor="middle">4</text>
	<line x1="2443.82" y1="2489.19" x2="2443.82" y2="2529.16" style="stroke:#000000;stroke-width:5.76"/>
	<text x="2443.82" y="2619.14" style="font-family:'Helvetica';font-size:99.99px;fill:#000000" text-anchor="middle">6</text>
	<line x1="3122.71" y1="2489.19" x2="3122.71" y2="2529.16" style="stroke:#000000;stroke-width:5.76"/>
	<text x="3122.71" y="2619.14" style="font-family:'Helvetica';font-size:99.99px;fill:#000000" text-anchor="middle">8</text>
	<line x1="3801.48" y1="2489.19" x2="3801.48" y2="2529.16" style="stroke:#000000;stroke-width:5.76"/>
	<text x="3801.48" y="2619.14" style="font-family:'Helvetica';font-size:99.99px;fill:#000000" text-anchor="middle">10</text>
	<text x="2133.20" y="2729.16" style="font-family:'Helvetica';font-size:99.99px;fill:#000000" text-anchor="middle">Time since diagnosis</text>
	<line x1="3118.87" y1="228.57" x2="3318.85" y2="228.57" style="stroke:#E41A1C;stroke-width:8.64"/>
	<line x1="3118.87" y1="368.54" x2="3318.85" y2="368.54" style="stroke:#377EB8;stroke-width:8.64"/>
	<text x="3378.87" y="263.60" style="font-family:'Helvetica';font-size:99.99px;fill:#000000">Males</text>
	<text x="3378.87" y="403.57" style="font-family:'Helvetica';font-size:99.99px;fill:#000000">Females</text>
</svg>
