<?xml version="1.0" encoding="UTF-8" standalone="no"?>
<!-- This is a Stata 18.5 generated SVG file (http://www.stata.com) -->

<svg version="1.1" width="5.500in" height="4.000in" viewBox="0 0 3960 2880" xmlns="http://www.w3.org/2000/svg" xmlns:xlink="http://www.w3.org/1999/xlink">
	<desc>Stata Graph - Graph</desc>
	<rect x="0" y="0" width="3960" height="2880" style="fill:#FFFFFF;stroke:none"/>
	<rect x="0.00" y="0.00" width="3959.88" height="2880.00" style="fill:#FFFFFF"/>
	<rect x="2.88" y="2.88" width="3954.12" height="2874.24" style="fill:none;stroke:#FFFFFF;stroke-width:5.76"/>
	<line x1="524.08" y1="2489.19" x2="3859.02" y2="2489.19" style="stroke:#C0C0C0;stroke-width:5.76"/>
	<line x1="524.08" y1="1693.08" x2="3859.02" y2="1693.08" style="stroke:#C0C0C0;stroke-width:5.76"/>
	<line x1="524.08" y1="896.97" x2="3859.02" y2="896.97" style="stroke:#C0C0C0;stroke-width:5.76"/>
	<line x1="524.08" y1="100.86" x2="3859.02" y2="100.86" style="stroke:#C0C0C0;stroke-width:5.76"/>
	<line x1="524.08" y1="2489.19" x2="524.08" y2="100.86" style="stroke:#C0C0C0;stroke-width:5.76"/>
	<line x1="1179.59" y1="2489.19" x2="1179.59" y2="100.86" style="stroke:#C0C0C0;stroke-width:5.76"/>
	<line x1="1835.09" y1="2489.19" x2="1835.09" y2="100.86" style="stroke:#C0C0C0;stroke-width:5.76"/>
	<line x1="2490.59" y1="2489.19" x2="2490.59" y2="100.86" style="stroke:#C0C0C0;stroke-width:5.76"/>
	<line x1="3145.97" y1="2489.19" x2="3145.97" y2="100.86" style="stroke:#C0C0C0;stroke-width:5.76"/>
	<line x1="3801.48" y1="2489.19" x2="3801.48" y2="100.86" style="stroke:#C0C0C0;stroke-width:5.76"/>
	<path d=" M524.08 100.86 L589.54 101.23 L655.13 102.84 L720.72 105.93 L786.18 110.64 L851.77 116.82 L917.36 124.50 L982.82 133.78 L1048.41 144.54 L1114.00 156.67 L1179.46 170.16 L1245.05 184.89 L1310.64 200.85 L1376.22 217.93 L1441.69 236.00 L1507.28 255.18 L1572.86 275.35 L1638.33 296.39 L1703.91 318.17 L1769.50 340.82 L1834.97 364.33 L1900.55 388.46 L1966.14 413.34 L2031.60 439.08 L2097.19 465.31 L2162.78 492.29 L2228.24 519.64 L2293.83 546.99 L2359.42 574.09 L2424.88 600.70 L2490.47 626.19 L2556.06 650.57 L2621.52 673.59 L2687.11 695.50 L2752.70 716.29 L2818.16 736.21 L2883.75 755.64 L2949.33 774.70 L3014.80 793.39 L3080.39 812.07 L3145.97 830.88 L3211.44 849.82 L3277.02 868.88 L3342.61 888.18 L3408.08 907.49 L3473.66 927.04 L3539.25 946.47 L3604.84 966.02 L3670.30 985.70 L3735.89 1005.25 L3801.48 1024.81" stroke-linejoin="round" style="fill:none;stroke:#E41A1C;stroke-width:8.64"/>
	<path d=" M524.08 100.86 L589.54 101.23 L655.13 102.59 L720.72 105.19 L786.18 109.15 L851.77 114.47 L917.36 121.03 L982.82 128.95 L1048.41 138.11 L1114.00 148.38 L1179.46 159.89 L1245.05 172.51 L1310.64 186.13 L1376.22 200.73 L1441.69 216.32 L1507.28 232.66 L1572.86 249.98 L1638.33 267.93 L1703.91 286.74 L1769.50 306.17 L1834.97 326.34 L1900.55 347.13 L1966.14 368.54 L2031.60 390.69 L2097.19 413.46 L2162.78 436.73 L2228.24 460.36 L2293.83 484.13 L2359.42 507.64 L2424.88 530.66 L2490.47 552.93 L2556.06 574.09 L2621.52 594.14 L2687.11 613.08 L2752.70 631.27 L2818.16 648.84 L2883.75 665.80 L2949.33 682.38 L3014.80 698.84 L3080.39 715.17 L3145.97 731.63 L3211.44 748.22 L3277.02 765.05 L3342.61 782.00 L3408.08 798.95 L3473.66 816.16 L3539.25 833.36 L3604.84 850.68 L3670.30 867.89 L3735.89 885.21 L3801.48 902.54" stroke-linejoin="round" style="fill:none;stroke:#377EB8;stroke-width:8.64"/>
	<path d=" M524.08 100.86 L589.54 101.23 L655.13 102.72 L720.72 105.69 L786.18 110.02 L851.77 115.83 L917.36 123.14 L982.82 131.80 L1048.41 141.95 L1114.00 153.33 L1179.46 165.95 L1245.05 179.81 L1310.64 194.79 L1376.22 210.88 L1441.69 227.95 L1507.28 246.02 L1572.86 264.96 L1638.33 284.76 L1703.91 305.30 L1769.50 326.71 L1834.97 348.74 L1900.55 371.63 L1966.14 395.15 L2031.60 419.28 L2097.19 444.15 L2162.78 469.65 L2228.24 495.51 L2293.83 521.38 L2359.42 547.12 L2424.88 572.11 L2490.47 596.37 L2556.06 619.51 L2621.52 641.29 L2687.11 661.96 L2752.70 681.76 L2818.16 700.69 L2883.75 719.13 L2949.33 737.20 L3014.80 755.02 L3080.39 772.72 L3145.97 790.66 L3211.44 808.61 L3277.02 826.80 L3342.61 845.12 L3408.08 863.55 L3473.66 882.12 L3539.25 900.68 L3604.84 919.37 L3670.30 938.05 L3735.89 956.74 L3801.48 975.30" stroke-linejoin="round" style="fill:none;stroke:#4DAF4A;stroke-width:8.64"/>
	<path d=" M524.08 100.86 L589.54 101.35 L655.13 103.46 L720.72 107.42 L786.18 113.23 L851.77 121.16 L917.36 131.06 L982.82 142.81 L1048.41 156.42 L1114.00 171.77 L1179.46 188.85 L1245.05 207.54 L1310.64 227.71 L1376.22 249.36 L1441.69 272.26 L1507.28 296.39 L1572.86 321.76 L1638.33 348.12 L1703.91 375.59 L1769.50 404.06 L1834.97 433.39 L1900.55 463.58 L1966.14 494.64 L2031.60 526.57 L2097.19 559.24 L2162.78 592.66 L2228.24 626.44 L2293.83 660.23 L2359.42 693.64 L2424.88 726.19 L2490.47 757.62 L2556.06 787.45 L2621.52 815.54 L2687.11 842.15 L2752.70 867.51 L2818.16 891.89 L2883.75 915.41 L2949.33 938.43 L3014.80 961.07 L3080.39 983.72 L3145.97 1006.24 L3211.44 1029.14 L3277.02 1052.03 L3342.61 1075.17 L3408.08 1098.44 L3473.66 1121.71 L3539.25 1144.97 L3604.84 1168.36 L3670.30 1191.63 L3735.89 1214.89 L3801.48 1238.03" stroke-linejoin="round" style="fill:none;stroke:#984EA3;stroke-width:8.64"/>
	<path d=" M524.08 100.86 L589.54 101.73 L655.13 104.82 L720.72 111.01 L786.18 120.17 L851.77 132.42 L917.36 147.64 L982.82 165.95 L1048.41 186.99 L1114.00 210.75 L1179.46 237.11 L1245.05 265.70 L1310.64 296.64 L1376.22 329.68 L1441.69 364.58 L1507.28 401.21 L1572.86 439.45 L1638.33 479.17 L1703.91 520.26 L1769.50 562.71 L1834.97 606.27 L1900.55 651.07 L1966.14 696.73 L2031.60 743.51 L2097.19 791.16 L2162.78 839.67 L2228.24 888.43 L2293.83 936.94 L2359.42 984.59 L2424.88 1030.87 L2490.47 1075.17 L2556.06 1117.13 L2621.52 1156.48 L2687.11 1193.48 L2752.70 1228.50 L2818.16 1262.04 L2883.75 1294.47 L2949.33 1325.90 L3014.80 1356.84 L3080.39 1387.40 L3145.97 1417.97 L3211.44 1448.66 L3277.02 1479.48 L3342.61 1510.29 L3408.08 1541.11 L3473.66 1571.92 L3539.25 1602.61 L3604.84 1633.30 L3670.30 1663.62 L3735.89 1693.94 L3801.48 1723.89" stroke-linejoin="round" style="fill:none;stroke:#FF7F00;stroke-width:8.64"/>
	<path d=" M524.08 100.86 L589.54 102.22 L655.13 107.54 L720.72 117.69 L786.18 132.91 L851.77 153.33 L917.36 178.70 L982.82 208.90 L1048.41 243.55 L1114.00 282.53 L1179.46 325.47 L1245.05 372.13 L1310.64 422.12 L1376.22 475.09 L1441.69 530.90 L1507.28 589.07 L1572.86 649.46 L1638.33 711.71 L1703.91 775.69 L1769.50 841.03 L1834.97 907.73 L1900.55 975.55 L1966.14 1044.36 L2031.60 1114.03 L2097.19 1184.32 L2162.78 1255.24 L2228.24 1325.78 L2293.83 1395.32 L2359.42 1462.89 L2424.88 1527.87 L2490.47 1589.37 L2556.06 1647.04 L2621.52 1700.75 L2687.11 1750.75 L2752.70 1797.77 L2818.16 1842.45 L2883.75 1885.14 L2949.33 1926.35 L3014.80 1966.57 L3080.39 2006.05 L3145.97 2045.16 L3211.44 2084.14 L3277.02 2123.00 L3342.61 2161.49 L3408.08 2199.72 L3473.66 2237.72 L3539.25 2275.21 L3604.84 2312.22 L3670.30 2348.72 L3735.89 2384.74 L3801.48 2420.13" stroke-linejoin="round" style="fill:none;stroke:#FFFF33;stroke-width:8.64"/>
	<line x1="524.08" y1="2489.19" x2="524.08" y2="100.86" style="stroke:#000000;stroke-width:5.76"/>
	<line x1="524.08" y1="2489.19" x2="484.11" y2="2489.19" style="stroke:#000000;stroke-width:5.76"/>
	<text x="464.06" y="2524.21" style="font-family:'Helvetica';font-size:99.99px;fill:#000000" text-anchor="end">0.40</text>
	<line x1="524.08" y1="1693.08" x2="484.11" y2="1693.08" style="stroke:#000000;stroke-width:5.76"/>
	<text x="464.06" y="1728.11" style="font-family:'Helvetica';font-size:99.99px;fill:#000000" text-anchor="end">0.60</text>
	<line x1="524.08" y1="896.97" x2="484.11" y2="896.97" style="stroke:#000000;stroke-width:5.76"/>
	<text x="464.06" y="932.00" style="font-family:'Helvetica';font-size:99.99px;fill:#000000" text-anchor="end">0.80</text>
	<line x1="524.08" y1="100.86" x2="484.11" y2="100.86" style="stroke:#000000;stroke-width:5.76"/>
	<text x="464.06" y="135.89" style="font-family:'Helvetica';font-size:99.99px;fill:#000000" text-anchor="end">1.00</text>
	<text x="190.71" y="1294.96" style="font-family:'Helvetica';font-size:99.99px;fill:#000000" transform="rotate(-90 190.71,1294.96)" text-anchor="middle">S(t)</text>
	<line x1="524.08" y1="2489.19" x2="3859.02" y2="2489.19" style="stroke:#000000;stroke-width:5.76"/>
	<line x1="524.08" y1="2489.19" x2="524.08" y2="2529.16" style="stroke:#000000;stroke-width:5.76"/>
	<text x="524.08" y="2619.14" style="font-family:'Helvetica';font-size:99.99px;fill:#000000" text-anchor="middle">0</text>
	<line x1="1179.59" y1="2489.19" x2="1179.59" y2="2529.16" style="stroke:#000000;stroke-width:5.76"/>
	<text x="1179.59" y="2619.14" style="font-family:'Helvetica';font-size:99.99px;fill:#000000" text-anchor="middle">1</text>
	<line x1="1835.09" y1="2489.19" x2="1835.09" y2="2529.16" style="stroke:#000000;stroke-width:5.76"/>
	<text x="1835.09" y="2619.14" style="font-family:'Helvetica';font-size:99.99px;fill:#000000" text-anchor="middle">2</text>
	<line x1="2490.59" y1="2489.19" x2="2490.59" y2="2529.16" style="stroke:#000000;stroke-width:5.76"/>
	<text x="2490.59" y="2619.14" style="font-family:'Helvetica';font-size:99.99px;fill:#000000" text-anchor="middle">3</text>
	<line x1="3145.97" y1="2489.19" x2="3145.97" y2="2529.16" style="stroke:#000000;stroke-width:5.76"/>
	<text x="3145.97" y="2619.14" style="font-family:'Helvetica';font-size:99.99px;fill:#000000" text-anchor="middle">4</text>
	<line x1="3801.48" y1="2489.19" x2="3801.48" y2="2529.16" style="stroke:#000000;stroke-width:5.76"/>
	<text x="3801.48" y="2619.14" style="font-family:'Helvetica';font-size:99.99px;fill:#000000" text-anchor="middle">5</text>
	<text x="2191.61" y="2729.16" style="font-family:'Helvetica';font-size:99.99px;fill:#000000" text-anchor="middle">Years since surgery</text>
	<line x1="601.92" y1="1661.52" x2="801.90" y2="1661.52" style="stroke:#E41A1C;stroke-width:8.64"/>
	<line x1="601.92" y1="1801.49" x2="801.90" y2="1801.49" style="stroke:#377EB8;stroke-width:8.64"/>
	<line x1="601.92" y1="1941.45" x2="801.90" y2="1941.45" style="stroke:#4DAF4A;stroke-width:8.64"/>
	<line x1="601.92" y1="2081.42" x2="801.90" y2="2081.42" style="stroke:#984EA3;stroke-width:8.64"/>
	<line x1="601.92" y1="2221.51" x2="801.90" y2="2221.51" style="stroke:#FF7F00;stroke-width:8.64"/>
	<line x1="601.92" y1="2361.47" x2="801.90" y2="2361.47" style="stroke:#FFFF33;stroke-width:8.64"/>
	<text x="861.80" y="1696.55" style="font-family:'Helvetica';font-size:99.99px;fill:#000000">40</text>
	<text x="861.80" y="1836.51" style="font-family:'Helvetica';font-size:99.99px;fill:#000000">50</text>
	<text x="861.80" y="1976.48" style="font-family:'Helvetica';font-size:99.99px;fill:#000000">60</text>
	<text x="861.80" y="2116.44" style="font-family:'Helvetica';font-size:99.99px;fill:#000000">70</text>
	<text x="861.80" y="2256.53" style="font-family:'Helvetica';font-size:99.99px;fill:#000000">80</text>
	<text x="861.80" y="2396.50" style="font-family:'Helvetica';font-size:99.99px;fill:#000000">90</text>
</svg>
