<?xml version="1.0" encoding="UTF-8" standalone="no"?>
<!-- This is a Stata 18.5 generated SVG file (http://www.stata.com) -->

<svg version="1.1" width="700px" height="509px" viewBox="0 0 3960 2880" xmlns="http://www.w3.org/2000/svg" xmlns:xlink="http://www.w3.org/1999/xlink">
	<desc>Stata Graph - Graph</desc>
	<rect x="0" y="0" width="3960" height="2880" style="fill:#FFFFFF;stroke:none"/>
	<rect x="0.00" y="0.00" width="3959.88" height="2880.00" style="fill:#FFFFFF"/>
	<rect x="2.88" y="2.88" width="3954.12" height="2874.24" style="fill:none;stroke:#FFFFFF;stroke-width:5.76"/>
	<rect x="63.36" y="63.36" width="1916.64" height="1143.49" style="fill:#FFFFFF"/>
	<rect x="65.52" y="65.52" width="1912.32" height="1139.17" style="fill:none;stroke:#FFFFFF;stroke-width:4.32"/>
	<line x1="412.71" y1="913.67" x2="1904.39" y2="913.67" style="stroke:#C0C0C0;stroke-opacity:0.50;stroke-width:4.32"/>
	<line x1="412.71" y1="780.39" x2="1904.39" y2="780.39" style="stroke:#C0C0C0;stroke-opacity:0.50;stroke-width:4.32"/>
	<line x1="412.71" y1="647.23" x2="1904.39" y2="647.23" style="stroke:#C0C0C0;stroke-opacity:0.50;stroke-width:4.32"/>
	<line x1="412.71" y1="513.95" x2="1904.39" y2="513.95" style="stroke:#C0C0C0;stroke-opacity:0.50;stroke-width:4.32"/>
	<line x1="412.71" y1="380.67" x2="1904.39" y2="380.67" style="stroke:#C0C0C0;stroke-opacity:0.50;stroke-width:4.32"/>
	<line x1="412.71" y1="247.38" x2="1904.39" y2="247.38" style="stroke:#C0C0C0;stroke-opacity:0.50;stroke-width:4.32"/>
	<line x1="412.71" y1="913.67" x2="412.71" y2="247.38" style="stroke:#C0C0C0;stroke-opacity:0.50;stroke-width:4.32"/>
	<line x1="702.41" y1="913.67" x2="702.41" y2="247.38" style="stroke:#C0C0C0;stroke-opacity:0.50;stroke-width:4.32"/>
	<line x1="992.10" y1="913.67" x2="992.10" y2="247.38" style="stroke:#C0C0C0;stroke-opacity:0.50;stroke-width:4.32"/>
	<line x1="1281.80" y1="913.67" x2="1281.80" y2="247.38" style="stroke:#C0C0C0;stroke-opacity:0.50;stroke-width:4.32"/>
	<line x1="1571.50" y1="913.67" x2="1571.50" y2="247.38" style="stroke:#C0C0C0;stroke-opacity:0.50;stroke-width:4.32"/>
	<line x1="1861.20" y1="913.67" x2="1861.20" y2="247.38" style="stroke:#C0C0C0;stroke-opacity:0.50;stroke-width:4.32"/>
	<path d=" M412.58 247.38 L427.06 250.11 L441.54 251.96 L456.14 253.70 L470.62 255.30 L485.10 256.79 L499.58 258.27 L514.06 259.64 L528.54 261.00 L543.02 262.23 L557.49 263.60 L571.97 264.83 L586.45 266.07 L600.93 267.31 L615.41 268.42 L629.89 269.66 L644.37 270.77 L658.85 271.89 L673.32 273.00 L687.80 274.11 L702.28 275.23 L716.76 276.22 L731.24 277.33 L745.72 278.32 L760.20 279.31 L774.80 280.43 L789.28 281.42 L803.76 282.41 L818.24 283.40 L832.71 284.39 L847.19 285.25 L861.67 286.24 L876.15 287.23 L890.63 288.10 L905.11 289.09 L919.59 289.96 L934.07 290.95 L948.54 291.81 L963.02 292.80 L977.50 293.67 L991.98 294.53 L1006.46 295.40 L1020.94 296.27 L1035.42 297.13 L1049.90 298.00 L1064.37 298.87 L1078.98 299.73 L1093.46 300.60 L1107.93 301.46 L1122.41 302.33 L1136.89 303.07 L1151.37 303.94 L1165.85 304.81 L1180.33 305.55 L1194.81 306.41 L1209.29 307.16 L1223.76 308.02 L1238.24 308.77 L1252.72 309.63 L1267.20 310.37 L1281.68 311.24 L1296.16 311.98 L1310.64 312.73 L1325.12 313.47 L1339.59 314.33 L1354.07 315.08 L1368.55 315.82 L1383.03 316.56 L1397.63 317.30 L1412.11 318.05 L1426.59 318.91 L1441.07 319.66 L1455.55 320.40 L1470.03 321.14 L1484.51 321.88 L1498.98 322.50 L1513.46 323.25 L1527.94 323.99 L1542.42 324.73 L1556.90 325.47 L1571.38 326.22 L1585.86 326.96 L1600.34 327.58 L1614.81 328.32 L1629.29 329.06 L1643.77 329.68 L1658.25 330.42 L1672.73 331.17 L1687.21 331.78 L1701.81 332.53 L1716.29 333.27 L1730.77 333.89 L1745.25 334.63 L1759.73 335.25 L1774.20 335.99 L1788.68 336.61 L1803.16 337.35 L1817.64 337.97 L1832.12 338.71 L1846.60 339.33 L1861.08 339.95" stroke-linejoin="round" style="fill:none;stroke:#E41A1C;stroke-width:6.48"/>
	<path d=" M412.58 247.38 L427.06 248.99 L441.54 250.35 L456.14 251.59 L470.62 252.83 L485.10 254.07 L499.58 255.18 L514.06 256.29 L528.54 257.53 L543.02 258.65 L557.49 259.76 L571.97 260.87 L586.45 261.99 L600.93 263.10 L615.41 264.21 L629.89 265.33 L644.37 266.44 L658.85 267.56 L673.32 268.67 L687.80 269.66 L702.28 270.77 L716.76 271.76 L731.24 272.88 L745.72 273.87 L760.20 274.98 L774.80 275.97 L789.28 276.96 L803.76 277.95 L818.24 278.94 L832.71 279.93 L847.19 280.92 L861.67 281.91 L876.15 282.90 L890.63 283.89 L905.11 284.76 L919.59 285.75 L934.07 286.61 L948.54 287.60 L963.02 288.47 L977.50 289.34 L991.98 290.33 L1006.46 291.19 L1020.94 292.06 L1035.42 292.93 L1049.90 293.79 L1064.37 294.66 L1078.98 295.52 L1093.46 296.39 L1107.93 297.26 L1122.41 298.12 L1136.89 298.87 L1151.37 299.73 L1165.85 300.60 L1180.33 301.34 L1194.81 302.21 L1209.29 302.95 L1223.76 303.82 L1238.24 304.56 L1252.72 305.42 L1267.20 306.17 L1281.68 306.91 L1296.16 307.78 L1310.64 308.52 L1325.12 309.26 L1339.59 310.00 L1354.07 310.87 L1368.55 311.61 L1383.03 312.35 L1397.63 313.10 L1412.11 313.84 L1426.59 314.58 L1441.07 315.32 L1455.55 316.07 L1470.03 316.81 L1484.51 317.55 L1498.98 318.29 L1513.46 319.04 L1527.94 319.66 L1542.42 320.40 L1556.90 321.14 L1571.38 321.88 L1585.86 322.63 L1600.34 323.25 L1614.81 323.99 L1629.29 324.73 L1643.77 325.35 L1658.25 326.09 L1672.73 326.83 L1687.21 327.45 L1701.81 328.20 L1716.29 328.81 L1730.77 329.56 L1745.25 330.30 L1759.73 330.92 L1774.20 331.66 L1788.68 332.28 L1803.16 332.90 L1817.64 333.64 L1832.12 334.26 L1846.60 335.00 L1861.08 335.62" stroke-linejoin="round" style="fill:none;stroke:#377EB8;stroke-width:6.48"/>
	<path d=" M412.58 247.38 L427.06 248.75 L441.54 249.86 L456.14 250.85 L470.62 251.96 L485.10 252.95 L499.58 254.07 L514.06 255.06 L528.54 256.05 L543.02 257.16 L557.49 258.15 L571.97 259.14 L586.45 260.13 L600.93 261.24 L615.41 262.23 L629.89 263.22 L644.37 264.21 L658.85 265.20 L673.32 266.32 L687.80 267.31 L702.28 268.30 L716.76 269.29 L731.24 270.28 L745.72 271.27 L760.20 272.26 L774.80 273.25 L789.28 274.24 L803.76 275.23 L818.24 276.22 L832.71 277.21 L847.19 278.20 L861.67 279.06 L876.15 280.06 L890.63 280.92 L905.11 281.91 L919.59 282.90 L934.07 283.77 L948.54 284.63 L963.02 285.62 L977.50 286.49 L991.98 287.36 L1006.46 288.22 L1020.94 289.09 L1035.42 289.96 L1049.90 290.82 L1064.37 291.69 L1078.98 292.55 L1093.46 293.42 L1107.93 294.29 L1122.41 295.03 L1136.89 295.90 L1151.37 296.76 L1165.85 297.50 L1180.33 298.37 L1194.81 299.24 L1209.29 299.98 L1223.76 300.72 L1238.24 301.59 L1252.72 302.33 L1267.20 303.20 L1281.68 303.94 L1296.16 304.68 L1310.64 305.42 L1325.12 306.29 L1339.59 307.03 L1354.07 307.78 L1368.55 308.52 L1383.03 309.26 L1397.63 310.00 L1412.11 310.75 L1426.59 311.49 L1441.07 312.23 L1455.55 312.97 L1470.03 313.72 L1484.51 314.46 L1498.98 315.20 L1513.46 315.82 L1527.94 316.56 L1542.42 317.30 L1556.90 318.05 L1571.38 318.79 L1585.86 319.41 L1600.34 320.15 L1614.81 320.89 L1629.29 321.51 L1643.77 322.26 L1658.25 323.00 L1672.73 323.62 L1687.21 324.36 L1701.81 324.98 L1716.29 325.72 L1730.77 326.46 L1745.25 327.08 L1759.73 327.82 L1774.20 328.44 L1788.68 329.19 L1803.16 329.80 L1817.64 330.42 L1832.12 331.17 L1846.60 331.78 L1861.08 332.53" stroke-linejoin="round" style="fill:none;stroke:#4DAF4A;stroke-width:6.48"/>
	<line x1="412.71" y1="913.67" x2="412.71" y2="247.38" style="stroke:#000000;stroke-width:4.32"/>
	<line x1="412.71" y1="913.67" x2="382.64" y2="913.67" style="stroke:#000000;stroke-width:4.32"/>
	<text x="367.66" y="939.95" style="font-family:'Helvetica';font-size:74.99px;fill:#000000" text-anchor="end">0.0</text>
	<line x1="412.71" y1="780.39" x2="382.64" y2="780.39" style="stroke:#000000;stroke-width:4.32"/>
	<text x="367.66" y="806.67" style="font-family:'Helvetica';font-size:74.99px;fill:#000000" text-anchor="end">0.2</text>
	<line x1="412.71" y1="647.23" x2="382.64" y2="647.23" style="stroke:#000000;stroke-width:4.32"/>
	<text x="367.66" y="673.51" style="font-family:'Helvetica';font-size:74.99px;fill:#000000" text-anchor="end">0.4</text>
	<line x1="412.71" y1="513.95" x2="382.64" y2="513.95" style="stroke:#000000;stroke-width:4.32"/>
	<text x="367.66" y="540.23" style="font-family:'Helvetica';font-size:74.99px;fill:#000000" text-anchor="end">0.6</text>
	<line x1="412.71" y1="380.67" x2="382.64" y2="380.67" style="stroke:#000000;stroke-width:4.32"/>
	<text x="367.66" y="406.95" style="font-family:'Helvetica';font-size:74.99px;fill:#000000" text-anchor="end">0.8</text>
	<line x1="412.71" y1="247.38" x2="382.64" y2="247.38" style="stroke:#000000;stroke-width:4.32"/>
	<text x="367.66" y="273.66" style="font-family:'Helvetica';font-size:74.99px;fill:#000000" text-anchor="end">1.0</text>
	<text x="206.38" y="580.53" style="font-family:'Helvetica';font-size:74.99px;fill:#000000" transform="rotate(-90 206.38,580.53)" text-anchor="middle">Survival Proportion</text>
	<line x1="412.71" y1="913.67" x2="1904.39" y2="913.67" style="stroke:#000000;stroke-width:4.32"/>
	<line x1="412.71" y1="913.67" x2="412.71" y2="943.75" style="stroke:#000000;stroke-width:4.32"/>
	<text x="412.71" y="1011.16" style="font-family:'Helvetica';font-size:74.99px;fill:#000000" text-anchor="middle">0</text>
	<line x1="702.41" y1="913.67" x2="702.41" y2="943.75" style="stroke:#000000;stroke-width:4.32"/>
	<text x="702.41" y="1011.16" style="font-family:'Helvetica';font-size:74.99px;fill:#000000" text-anchor="middle">2</text>
	<line x1="992.10" y1="913.67" x2="992.10" y2="943.75" style="stroke:#000000;stroke-width:4.32"/>
	<text x="992.10" y="1011.16" style="font-family:'Helvetica';font-size:74.99px;fill:#000000" text-anchor="middle">4</text>
	<line x1="1281.80" y1="913.67" x2="1281.80" y2="943.75" style="stroke:#000000;stroke-width:4.32"/>
	<text x="1281.80" y="1011.16" style="font-family:'Helvetica';font-size:74.99px;fill:#000000" text-anchor="middle">6</text>
	<line x1="1571.50" y1="913.67" x2="1571.50" y2="943.75" style="stroke:#000000;stroke-width:4.32"/>
	<text x="1571.50" y="1011.16" style="font-family:'Helvetica';font-size:74.99px;fill:#000000" text-anchor="middle">8</text>
	<line x1="1861.20" y1="913.67" x2="1861.20" y2="943.75" style="stroke:#000000;stroke-width:4.32"/>
	<text x="1861.20" y="1011.16" style="font-family:'Helvetica';font-size:74.99px;fill:#000000" text-anchor="middle">10</text>
	<text x="1158.55" y="1093.70" style="font-family:'Helvetica';font-size:74.99px;fill:#000000" text-anchor="middle">Years since Diagnosis</text>
	<text x="1158.55" y="209.56" style="font-family:'Helvetica';font-size:82.54px;fill:#000000" text-anchor="middle">70, Male, Stage 1</text>
	<rect x="1980.00" y="63.36" width="1916.52" height="1143.49" style="fill:#FFFFFF"/>
	<rect x="1982.16" y="65.52" width="1912.20" height="1139.17" style="fill:none;stroke:#FFFFFF;stroke-width:4.32"/>
	<line x1="2329.22" y1="913.67" x2="3820.91" y2="913.67" style="stroke:#C0C0C0;stroke-opacity:0.50;stroke-width:4.32"/>
	<line x1="2329.22" y1="780.39" x2="3820.91" y2="780.39" style="stroke:#C0C0C0;stroke-opacity:0.50;stroke-width:4.32"/>
	<line x1="2329.22" y1="647.23" x2="3820.91" y2="647.23" style="stroke:#C0C0C0;stroke-opacity:0.50;stroke-width:4.32"/>
	<line x1="2329.22" y1="513.95" x2="3820.91" y2="513.95" style="stroke:#C0C0C0;stroke-opacity:0.50;stroke-width:4.32"/>
	<line x1="2329.22" y1="380.67" x2="3820.91" y2="380.67" style="stroke:#C0C0C0;stroke-opacity:0.50;stroke-width:4.32"/>
	<line x1="2329.22" y1="247.38" x2="3820.91" y2="247.38" style="stroke:#C0C0C0;stroke-opacity:0.50;stroke-width:4.32"/>
	<line x1="2329.22" y1="913.67" x2="2329.22" y2="247.38" style="stroke:#C0C0C0;stroke-opacity:0.50;stroke-width:4.32"/>
	<line x1="2618.92" y1="913.67" x2="2618.92" y2="247.38" style="stroke:#C0C0C0;stroke-opacity:0.50;stroke-width:4.32"/>
	<line x1="2908.62" y1="913.67" x2="2908.62" y2="247.38" style="stroke:#C0C0C0;stroke-opacity:0.50;stroke-width:4.32"/>
	<line x1="3198.32" y1="913.67" x2="3198.32" y2="247.38" style="stroke:#C0C0C0;stroke-opacity:0.50;stroke-width:4.32"/>
	<line x1="3488.02" y1="913.67" x2="3488.02" y2="247.38" style="stroke:#C0C0C0;stroke-opacity:0.50;stroke-width:4.32"/>
	<line x1="3777.72" y1="913.67" x2="3777.72" y2="247.38" style="stroke:#C0C0C0;stroke-opacity:0.50;stroke-width:4.32"/>
	<path d=" M2329.22 247.38 L2343.70 259.02 L2358.18 267.31 L2372.66 274.73 L2387.14 281.54 L2401.62 287.98 L2416.09 294.04 L2430.57 299.86 L2445.05 305.42 L2459.53 310.87 L2474.01 316.19 L2488.49 321.27 L2502.97 326.22 L2517.57 331.04 L2532.05 335.74 L2546.53 340.45 L2561.01 344.90 L2575.49 349.36 L2589.96 353.69 L2604.44 357.90 L2618.92 361.98 L2633.40 366.06 L2647.88 370.15 L2662.36 374.11 L2676.84 377.94 L2691.32 381.78 L2705.79 385.49 L2720.27 389.08 L2734.75 392.79 L2749.23 396.38 L2763.71 399.85 L2778.19 403.31 L2792.67 406.78 L2807.15 410.12 L2821.62 413.46 L2836.23 416.68 L2850.71 419.90 L2865.18 423.11 L2879.66 426.33 L2894.14 429.43 L2908.62 432.52 L2923.10 435.49 L2937.58 438.58 L2952.06 441.55 L2966.54 444.40 L2981.01 447.37 L2995.49 450.22 L3009.97 453.06 L3024.45 455.91 L3038.93 458.63 L3053.41 461.35 L3067.89 464.08 L3082.37 466.80 L3096.84 469.40 L3111.32 472.12 L3125.80 474.72 L3140.40 477.32 L3154.88 479.79 L3169.36 482.39 L3183.84 484.87 L3198.32 487.34 L3212.80 489.82 L3227.28 492.29 L3241.76 494.64 L3256.23 497.00 L3270.71 499.47 L3285.19 501.70 L3299.67 504.05 L3314.15 506.40 L3328.63 508.63 L3343.11 510.98 L3357.59 513.21 L3372.06 515.43 L3386.54 517.54 L3401.02 519.77 L3415.50 521.99 L3429.98 524.10 L3444.46 526.20 L3459.06 528.31 L3473.54 530.41 L3488.02 532.51 L3502.50 534.62 L3516.98 536.60 L3531.45 538.58 L3545.93 540.68 L3560.41 542.66 L3574.89 544.64 L3589.37 546.62 L3603.85 548.48 L3618.33 550.46 L3632.81 552.44 L3647.28 554.29 L3661.76 556.15 L3676.24 558.01 L3690.72 559.86 L3705.20 561.72 L3719.68 563.58 L3734.16 565.43 L3748.64 567.16 L3763.24 569.02 L3777.72 570.75" stroke-linejoin="round" style="fill:none;stroke:#E41A1C;stroke-width:6.48"/>
	<path d=" M2329.22 247.38 L2343.70 254.44 L2358.18 260.13 L2372.66 265.70 L2387.14 270.90 L2401.62 276.09 L2416.09 281.17 L2430.57 286.12 L2445.05 290.95 L2459.53 295.77 L2474.01 300.47 L2488.49 305.18 L2502.97 309.76 L2517.57 314.33 L2532.05 318.91 L2546.53 323.37 L2561.01 327.82 L2575.49 332.16 L2589.96 336.49 L2604.44 340.69 L2618.92 344.90 L2633.40 349.11 L2647.88 353.19 L2662.36 357.15 L2676.84 361.11 L2691.32 365.07 L2705.79 368.91 L2720.27 372.75 L2734.75 376.58 L2749.23 380.17 L2763.71 383.88 L2778.19 387.47 L2792.67 391.06 L2807.15 394.53 L2821.62 397.99 L2836.23 401.33 L2850.71 404.80 L2865.18 408.02 L2879.66 411.36 L2894.14 414.58 L2908.62 417.67 L2923.10 420.89 L2937.58 423.98 L2952.06 426.95 L2966.54 430.04 L2981.01 433.01 L2995.49 435.98 L3009.97 438.83 L3024.45 441.68 L3038.93 444.52 L3053.41 447.37 L3067.89 450.22 L3082.37 452.94 L3096.84 455.66 L3111.32 458.38 L3125.80 460.98 L3140.40 463.58 L3154.88 466.18 L3169.36 468.78 L3183.84 471.38 L3198.32 473.85 L3212.80 476.45 L3227.28 478.93 L3241.76 481.40 L3256.23 483.75 L3270.71 486.23 L3285.19 488.58 L3299.67 490.93 L3314.15 493.28 L3328.63 495.63 L3343.11 497.99 L3357.59 500.21 L3372.06 502.44 L3386.54 504.67 L3401.02 506.90 L3415.50 509.12 L3429.98 511.35 L3444.46 513.45 L3459.06 515.68 L3473.54 517.79 L3488.02 519.89 L3502.50 521.99 L3516.98 524.10 L3531.45 526.20 L3545.93 528.18 L3560.41 530.29 L3574.89 532.27 L3589.37 534.25 L3603.85 536.23 L3618.33 538.21 L3632.81 540.19 L3647.28 542.17 L3661.76 544.02 L3676.24 546.00 L3690.72 547.86 L3705.20 549.71 L3719.68 551.69 L3734.16 553.55 L3748.64 555.28 L3763.24 557.14 L3777.72 559.00" stroke-linejoin="round" style="fill:none;stroke:#377EB8;stroke-width:6.48"/>
	<path d=" M2329.22 247.38 L2343.70 253.08 L2358.18 258.03 L2372.66 262.61 L2387.14 267.18 L2401.62 271.76 L2416.09 276.22 L2430.57 280.55 L2445.05 285.01 L2459.53 289.34 L2474.01 293.54 L2488.49 297.88 L2502.97 302.08 L2517.57 306.29 L2532.05 310.50 L2546.53 314.71 L2561.01 318.91 L2575.49 323.00 L2589.96 327.08 L2604.44 331.17 L2618.92 335.13 L2633.40 339.21 L2647.88 343.17 L2662.36 347.01 L2676.84 350.97 L2691.32 354.80 L2705.79 358.51 L2720.27 362.35 L2734.75 366.06 L2749.23 369.65 L2763.71 373.37 L2778.19 376.95 L2792.67 380.42 L2807.15 384.01 L2821.62 387.47 L2836.23 390.81 L2850.71 394.16 L2865.18 397.50 L2879.66 400.84 L2894.14 404.06 L2908.62 407.27 L2923.10 410.49 L2937.58 413.59 L2952.06 416.68 L2966.54 419.77 L2981.01 422.74 L2995.49 425.71 L3009.97 428.68 L3024.45 431.53 L3038.93 434.38 L3053.41 437.22 L3067.89 440.07 L3082.37 442.92 L3096.84 445.64 L3111.32 448.36 L3125.80 450.96 L3140.40 453.68 L3154.88 456.28 L3169.36 458.88 L3183.84 461.48 L3198.32 464.08 L3212.80 466.55 L3227.28 469.15 L3241.76 471.63 L3256.23 474.10 L3270.71 476.45 L3285.19 478.93 L3299.67 481.28 L3314.15 483.63 L3328.63 485.98 L3343.11 488.33 L3357.59 490.68 L3372.06 492.91 L3386.54 495.26 L3401.02 497.49 L3415.50 499.72 L3429.98 501.95 L3444.46 504.17 L3459.06 506.28 L3473.54 508.50 L3488.02 510.61 L3502.50 512.71 L3516.98 514.82 L3531.45 516.92 L3545.93 519.02 L3560.41 521.13 L3574.89 523.11 L3589.37 525.21 L3603.85 527.19 L3618.33 529.17 L3632.81 531.15 L3647.28 533.13 L3661.76 535.11 L3676.24 537.09 L3690.72 538.95 L3705.20 540.93 L3719.68 542.78 L3734.16 544.76 L3748.64 546.62 L3763.24 548.48 L3777.72 550.33" stroke-linejoin="round" style="fill:none;stroke:#4DAF4A;stroke-width:6.48"/>
	<line x1="2329.22" y1="913.67" x2="2329.22" y2="247.38" style="stroke:#000000;stroke-width:4.32"/>
	<line x1="2329.22" y1="913.67" x2="2299.28" y2="913.67" style="stroke:#000000;stroke-width:4.32"/>
	<text x="2284.30" y="939.95" style="font-family:'Helvetica';font-size:74.99px;fill:#000000" text-anchor="end">0.0</text>
	<line x1="2329.22" y1="780.39" x2="2299.28" y2="780.39" style="stroke:#000000;stroke-width:4.32"/>
	<text x="2284.30" y="806.67" style="font-family:'Helvetica';font-size:74.99px;fill:#000000" text-anchor="end">0.2</text>
	<line x1="2329.22" y1="647.23" x2="2299.28" y2="647.23" style="stroke:#000000;stroke-width:4.32"/>
	<text x="2284.30" y="673.51" style="font-family:'Helvetica';font-size:74.99px;fill:#000000" text-anchor="end">0.4</text>
	<line x1="2329.22" y1="513.95" x2="2299.28" y2="513.95" style="stroke:#000000;stroke-width:4.32"/>
	<text x="2284.30" y="540.23" style="font-family:'Helvetica';font-size:74.99px;fill:#000000" text-anchor="end">0.6</text>
	<line x1="2329.22" y1="380.67" x2="2299.28" y2="380.67" style="stroke:#000000;stroke-width:4.32"/>
	<text x="2284.30" y="406.95" style="font-family:'Helvetica';font-size:74.99px;fill:#000000" text-anchor="end">0.8</text>
	<line x1="2329.22" y1="247.38" x2="2299.28" y2="247.38" style="stroke:#000000;stroke-width:4.32"/>
	<text x="2284.30" y="273.66" style="font-family:'Helvetica';font-size:74.99px;fill:#000000" text-anchor="end">1.0</text>
	<text x="2123.02" y="580.53" style="font-family:'Helvetica';font-size:74.99px;fill:#000000" transform="rotate(-90 2123.02,580.53)" text-anchor="middle">Survival Proportion</text>
	<line x1="2329.22" y1="913.67" x2="3820.91" y2="913.67" style="stroke:#000000;stroke-width:4.32"/>
	<line x1="2329.22" y1="913.67" x2="2329.22" y2="943.75" style="stroke:#000000;stroke-width:4.32"/>
	<text x="2329.22" y="1011.16" style="font-family:'Helvetica';font-size:74.99px;fill:#000000" text-anchor="middle">0</text>
	<line x1="2618.92" y1="913.67" x2="2618.92" y2="943.75" style="stroke:#000000;stroke-width:4.32"/>
	<text x="2618.92" y="1011.16" style="font-family:'Helvetica';font-size:74.99px;fill:#000000" text-anchor="middle">2</text>
	<line x1="2908.62" y1="913.67" x2="2908.62" y2="943.75" style="stroke:#000000;stroke-width:4.32"/>
	<text x="2908.62" y="1011.16" style="font-family:'Helvetica';font-size:74.99px;fill:#000000" text-anchor="middle">4</text>
	<line x1="3198.32" y1="913.67" x2="3198.32" y2="943.75" style="stroke:#000000;stroke-width:4.32"/>
	<text x="3198.32" y="1011.16" style="font-family:'Helvetica';font-size:74.99px;fill:#000000" text-anchor="middle">6</text>
	<line x1="3488.02" y1="913.67" x2="3488.02" y2="943.75" style="stroke:#000000;stroke-width:4.32"/>
	<text x="3488.02" y="1011.16" style="font-family:'Helvetica';font-size:74.99px;fill:#000000" text-anchor="middle">8</text>
	<line x1="3777.72" y1="913.67" x2="3777.72" y2="943.75" style="stroke:#000000;stroke-width:4.32"/>
	<text x="3777.72" y="1011.16" style="font-family:'Helvetica';font-size:74.99px;fill:#000000" text-anchor="middle">10</text>
	<text x="3075.06" y="1093.70" style="font-family:'Helvetica';font-size:74.99px;fill:#000000" text-anchor="middle">Years since Diagnosis</text>
	<text x="3075.06" y="209.56" style="font-family:'Helvetica';font-size:82.54px;fill:#000000" text-anchor="middle">82, Female, Stage 2</text>
	<rect x="63.36" y="1206.85" width="1916.64" height="1143.36" style="fill:#FFFFFF"/>
	<rect x="65.52" y="1209.01" width="1912.32" height="1139.04" style="fill:none;stroke:#FFFFFF;stroke-width:4.32"/>
	<line x1="412.71" y1="2057.16" x2="1904.39" y2="2057.16" style="stroke:#C0C0C0;stroke-opacity:0.50;stroke-width:4.32"/>
	<line x1="412.71" y1="1923.88" x2="1904.39" y2="1923.88" style="stroke:#C0C0C0;stroke-opacity:0.50;stroke-width:4.32"/>
	<line x1="412.71" y1="1790.59" x2="1904.39" y2="1790.59" style="stroke:#C0C0C0;stroke-opacity:0.50;stroke-width:4.32"/>
	<line x1="412.71" y1="1657.31" x2="1904.39" y2="1657.31" style="stroke:#C0C0C0;stroke-opacity:0.50;stroke-width:4.32"/>
	<line x1="412.71" y1="1524.03" x2="1904.39" y2="1524.03" style="stroke:#C0C0C0;stroke-opacity:0.50;stroke-width:4.32"/>
	<line x1="412.71" y1="1390.87" x2="1904.39" y2="1390.87" style="stroke:#C0C0C0;stroke-opacity:0.50;stroke-width:4.32"/>
	<line x1="412.71" y1="2057.16" x2="412.71" y2="1390.87" style="stroke:#C0C0C0;stroke-opacity:0.50;stroke-width:4.32"/>
	<line x1="702.41" y1="2057.16" x2="702.41" y2="1390.87" style="stroke:#C0C0C0;stroke-opacity:0.50;stroke-width:4.32"/>
	<line x1="992.10" y1="2057.16" x2="992.10" y2="1390.87" style="stroke:#C0C0C0;stroke-opacity:0.50;stroke-width:4.32"/>
	<line x1="1281.80" y1="2057.16" x2="1281.80" y2="1390.87" style="stroke:#C0C0C0;stroke-opacity:0.50;stroke-width:4.32"/>
	<line x1="1571.50" y1="2057.16" x2="1571.50" y2="1390.87" style="stroke:#C0C0C0;stroke-opacity:0.50;stroke-width:4.32"/>
	<line x1="1861.20" y1="2057.16" x2="1861.20" y2="1390.87" style="stroke:#C0C0C0;stroke-opacity:0.50;stroke-width:4.32"/>
	<path d=" M412.58 1390.87 L427.06 1422.06 L441.54 1443.84 L456.14 1462.77 L470.62 1479.85 L485.10 1495.69 L499.58 1510.42 L514.06 1524.40 L528.54 1537.52 L543.02 1550.14 L557.49 1562.02 L571.97 1573.53 L586.45 1584.54 L600.93 1595.06 L615.41 1605.21 L629.89 1614.99 L644.37 1624.39 L658.85 1633.55 L673.32 1642.34 L687.80 1650.75 L702.28 1659.04 L716.76 1666.96 L731.24 1674.76 L745.72 1682.31 L760.20 1689.49 L774.80 1696.67 L789.28 1703.47 L803.76 1710.15 L818.24 1716.71 L832.71 1723.03 L847.19 1729.21 L861.67 1735.15 L876.15 1740.97 L890.63 1746.66 L905.11 1752.23 L919.59 1757.68 L934.07 1763.00 L948.54 1768.20 L963.02 1773.27 L977.50 1778.10 L991.98 1782.92 L1006.46 1787.62 L1020.94 1792.20 L1035.42 1796.78 L1049.90 1801.11 L1064.37 1805.45 L1078.98 1809.65 L1093.46 1813.74 L1107.93 1817.82 L1122.41 1821.66 L1136.89 1825.62 L1151.37 1829.33 L1165.85 1833.04 L1180.33 1836.63 L1194.81 1840.22 L1209.29 1843.69 L1223.76 1847.15 L1238.24 1850.49 L1252.72 1853.71 L1267.20 1856.93 L1281.68 1860.02 L1296.16 1863.11 L1310.64 1866.21 L1325.12 1869.18 L1339.59 1872.02 L1354.07 1874.87 L1368.55 1877.72 L1383.03 1880.44 L1397.63 1883.16 L1412.11 1885.76 L1426.59 1888.36 L1441.07 1890.96 L1455.55 1893.43 L1470.03 1895.91 L1484.51 1898.38 L1498.98 1900.74 L1513.46 1903.09 L1527.94 1905.31 L1542.42 1907.54 L1556.90 1909.77 L1571.38 1912.00 L1585.86 1914.10 L1600.34 1916.20 L1614.81 1918.18 L1629.29 1920.29 L1643.77 1922.27 L1658.25 1924.25 L1672.73 1926.11 L1687.21 1927.96 L1701.81 1929.82 L1716.29 1931.67 L1730.77 1933.53 L1745.25 1935.26 L1759.73 1937.00 L1774.20 1938.73 L1788.68 1940.34 L1803.16 1942.07 L1817.64 1943.68 L1832.12 1945.29 L1846.60 1946.77 L1861.08 1948.38" stroke-linejoin="round" style="fill:none;stroke:#E41A1C;stroke-width:6.48"/>
	<path d=" M412.58 1390.87 L427.06 1409.68 L441.54 1425.03 L456.14 1439.38 L470.62 1453.12 L485.10 1466.24 L499.58 1478.86 L514.06 1491.11 L528.54 1502.99 L543.02 1514.62 L557.49 1525.89 L571.97 1536.90 L586.45 1547.67 L600.93 1558.06 L615.41 1568.33 L629.89 1578.23 L644.37 1588.01 L658.85 1597.41 L673.32 1606.70 L687.80 1615.73 L702.28 1624.39 L716.76 1633.06 L731.24 1641.35 L745.72 1649.39 L760.20 1657.31 L774.80 1664.98 L789.28 1672.53 L803.76 1679.83 L818.24 1686.89 L832.71 1693.82 L847.19 1700.63 L861.67 1707.18 L876.15 1713.62 L890.63 1719.81 L905.11 1725.87 L919.59 1731.81 L934.07 1737.63 L948.54 1743.20 L963.02 1748.77 L977.50 1754.09 L991.98 1759.28 L1006.46 1764.48 L1020.94 1769.43 L1035.42 1774.26 L1049.90 1779.09 L1064.37 1783.66 L1078.98 1788.24 L1093.46 1792.70 L1107.93 1797.03 L1122.41 1801.36 L1136.89 1805.45 L1151.37 1809.53 L1165.85 1813.49 L1180.33 1817.45 L1194.81 1821.29 L1209.29 1825.00 L1223.76 1828.71 L1238.24 1832.30 L1252.72 1835.76 L1267.20 1839.23 L1281.68 1842.70 L1296.16 1845.91 L1310.64 1849.25 L1325.12 1852.47 L1339.59 1855.57 L1354.07 1858.66 L1368.55 1861.63 L1383.03 1864.60 L1397.63 1867.45 L1412.11 1870.29 L1426.59 1873.14 L1441.07 1875.86 L1455.55 1878.58 L1470.03 1881.18 L1484.51 1883.78 L1498.98 1886.38 L1513.46 1888.86 L1527.94 1891.33 L1542.42 1893.81 L1556.90 1896.16 L1571.38 1898.51 L1585.86 1900.74 L1600.34 1903.09 L1614.81 1905.31 L1629.29 1907.42 L1643.77 1909.65 L1658.25 1911.75 L1672.73 1913.73 L1687.21 1915.83 L1701.81 1917.81 L1716.29 1919.79 L1730.77 1921.77 L1745.25 1923.63 L1759.73 1925.49 L1774.20 1927.34 L1788.68 1929.20 L1803.16 1930.93 L1817.64 1932.79 L1832.12 1934.52 L1846.60 1936.13 L1861.08 1937.86" stroke-linejoin="round" style="fill:none;stroke:#377EB8;stroke-width:6.48"/>
	<path d=" M412.58 1390.87 L427.06 1406.22 L441.54 1419.21 L456.14 1431.58 L470.62 1443.59 L485.10 1455.10 L499.58 1466.48 L514.06 1477.50 L528.54 1488.39 L543.02 1499.03 L557.49 1509.43 L571.97 1519.70 L586.45 1529.72 L600.93 1539.62 L615.41 1549.27 L629.89 1558.80 L644.37 1568.21 L658.85 1577.37 L673.32 1586.40 L687.80 1595.19 L702.28 1603.85 L716.76 1612.39 L731.24 1620.68 L745.72 1628.85 L760.20 1636.77 L774.80 1644.57 L789.28 1652.11 L803.76 1659.54 L818.24 1666.84 L832.71 1673.89 L847.19 1680.83 L861.67 1687.63 L876.15 1694.31 L890.63 1700.75 L905.11 1707.06 L919.59 1713.25 L934.07 1719.31 L948.54 1725.13 L963.02 1730.82 L977.50 1736.51 L991.98 1741.96 L1006.46 1747.28 L1020.94 1752.48 L1035.42 1757.68 L1049.90 1762.63 L1064.37 1767.45 L1078.98 1772.28 L1093.46 1776.98 L1107.93 1781.44 L1122.41 1785.89 L1136.89 1790.35 L1151.37 1794.55 L1165.85 1798.76 L1180.33 1802.85 L1194.81 1806.81 L1209.29 1810.77 L1223.76 1814.60 L1238.24 1818.44 L1252.72 1822.15 L1267.20 1825.74 L1281.68 1829.33 L1296.16 1832.79 L1310.64 1836.14 L1325.12 1839.60 L1339.59 1842.82 L1354.07 1846.04 L1368.55 1849.25 L1383.03 1852.35 L1397.63 1855.44 L1412.11 1858.41 L1426.59 1861.38 L1441.07 1864.23 L1455.55 1867.07 L1470.03 1869.80 L1484.51 1872.52 L1498.98 1875.24 L1513.46 1877.96 L1527.94 1880.56 L1542.42 1883.04 L1556.90 1885.51 L1571.38 1887.99 L1585.86 1890.46 L1600.34 1892.82 L1614.81 1895.17 L1629.29 1897.52 L1643.77 1899.75 L1658.25 1901.97 L1672.73 1904.20 L1687.21 1906.30 L1701.81 1908.41 L1716.29 1910.51 L1730.77 1912.62 L1745.25 1914.60 L1759.73 1916.58 L1774.20 1918.56 L1788.68 1920.54 L1803.16 1922.39 L1817.64 1924.25 L1832.12 1926.11 L1846.60 1927.96 L1861.08 1929.69" stroke-linejoin="round" style="fill:none;stroke:#4DAF4A;stroke-width:6.48"/>
	<line x1="412.71" y1="2057.16" x2="412.71" y2="1390.87" style="stroke:#000000;stroke-width:4.32"/>
	<line x1="412.71" y1="2057.16" x2="382.64" y2="2057.16" style="stroke:#000000;stroke-width:4.32"/>
	<text x="367.66" y="2083.44" style="font-family:'Helvetica';font-size:74.99px;fill:#000000" text-anchor="end">0.0</text>
	<line x1="412.71" y1="1923.88" x2="382.64" y2="1923.88" style="stroke:#000000;stroke-width:4.32"/>
	<text x="367.66" y="1950.16" style="font-family:'Helvetica';font-size:74.99px;fill:#000000" text-anchor="end">0.2</text>
	<line x1="412.71" y1="1790.59" x2="382.64" y2="1790.59" style="stroke:#000000;stroke-width:4.32"/>
	<text x="367.66" y="1816.87" style="font-family:'Helvetica';font-size:74.99px;fill:#000000" text-anchor="end">0.4</text>
	<line x1="412.71" y1="1657.31" x2="382.64" y2="1657.31" style="stroke:#000000;stroke-width:4.32"/>
	<text x="367.66" y="1683.59" style="font-family:'Helvetica';font-size:74.99px;fill:#000000" text-anchor="end">0.6</text>
	<line x1="412.71" y1="1524.03" x2="382.64" y2="1524.03" style="stroke:#000000;stroke-width:4.32"/>
	<text x="367.66" y="1550.31" style="font-family:'Helvetica';font-size:74.99px;fill:#000000" text-anchor="end">0.8</text>
	<line x1="412.71" y1="1390.87" x2="382.64" y2="1390.87" style="stroke:#000000;stroke-width:4.32"/>
	<text x="367.66" y="1417.15" style="font-family:'Helvetica';font-size:74.99px;fill:#000000" text-anchor="end">1.0</text>
	<text x="206.38" y="1724.02" style="font-family:'Helvetica';font-size:74.99px;fill:#000000" transform="rotate(-90 206.38,1724.02)" text-anchor="middle">Survival Proportion</text>
	<line x1="412.71" y1="2057.16" x2="1904.39" y2="2057.16" style="stroke:#000000;stroke-width:4.32"/>
	<line x1="412.71" y1="2057.16" x2="412.71" y2="2087.11" style="stroke:#000000;stroke-width:4.32"/>
	<text x="412.71" y="2154.64" style="font-family:'Helvetica';font-size:74.99px;fill:#000000" text-anchor="middle">0</text>
	<line x1="702.41" y1="2057.16" x2="702.41" y2="2087.11" style="stroke:#000000;stroke-width:4.32"/>
	<text x="702.41" y="2154.64" style="font-family:'Helvetica';font-size:74.99px;fill:#000000" text-anchor="middle">2</text>
	<line x1="992.10" y1="2057.16" x2="992.10" y2="2087.11" style="stroke:#000000;stroke-width:4.32"/>
	<text x="992.10" y="2154.64" style="font-family:'Helvetica';font-size:74.99px;fill:#000000" text-anchor="middle">4</text>
	<line x1="1281.80" y1="2057.16" x2="1281.80" y2="2087.11" style="stroke:#000000;stroke-width:4.32"/>
	<text x="1281.80" y="2154.64" style="font-family:'Helvetica';font-size:74.99px;fill:#000000" text-anchor="middle">6</text>
	<line x1="1571.50" y1="2057.16" x2="1571.50" y2="2087.11" style="stroke:#000000;stroke-width:4.32"/>
	<text x="1571.50" y="2154.64" style="font-family:'Helvetica';font-size:74.99px;fill:#000000" text-anchor="middle">8</text>
	<line x1="1861.20" y1="2057.16" x2="1861.20" y2="2087.11" style="stroke:#000000;stroke-width:4.32"/>
	<text x="1861.20" y="2154.64" style="font-family:'Helvetica';font-size:74.99px;fill:#000000" text-anchor="middle">10</text>
	<text x="1158.55" y="2237.06" style="font-family:'Helvetica';font-size:74.99px;fill:#000000" text-anchor="middle">Years since Diagnosis</text>
	<text x="1158.55" y="1353.05" style="font-family:'Helvetica';font-size:82.54px;fill:#000000" text-anchor="middle">53, Female, Stage 3</text>
	<rect x="1980.00" y="1206.85" width="1916.52" height="1143.36" style="fill:#FFFFFF"/>
	<rect x="1982.16" y="1209.01" width="1912.20" height="1139.04" style="fill:none;stroke:#FFFFFF;stroke-width:4.32"/>
	<line x1="2329.22" y1="2057.16" x2="3820.91" y2="2057.16" style="stroke:#C0C0C0;stroke-opacity:0.50;stroke-width:4.32"/>
	<line x1="2329.22" y1="1923.88" x2="3820.91" y2="1923.88" style="stroke:#C0C0C0;stroke-opacity:0.50;stroke-width:4.32"/>
	<line x1="2329.22" y1="1790.59" x2="3820.91" y2="1790.59" style="stroke:#C0C0C0;stroke-opacity:0.50;stroke-width:4.32"/>
	<line x1="2329.22" y1="1657.31" x2="3820.91" y2="1657.31" style="stroke:#C0C0C0;stroke-opacity:0.50;stroke-width:4.32"/>
	<line x1="2329.22" y1="1524.03" x2="3820.91" y2="1524.03" style="stroke:#C0C0C0;stroke-opacity:0.50;stroke-width:4.32"/>
	<line x1="2329.22" y1="1390.87" x2="3820.91" y2="1390.87" style="stroke:#C0C0C0;stroke-opacity:0.50;stroke-width:4.32"/>
	<line x1="2329.22" y1="2057.16" x2="2329.22" y2="1390.87" style="stroke:#C0C0C0;stroke-opacity:0.50;stroke-width:4.32"/>
	<line x1="2618.92" y1="2057.16" x2="2618.92" y2="1390.87" style="stroke:#C0C0C0;stroke-opacity:0.50;stroke-width:4.32"/>
	<line x1="2908.62" y1="2057.16" x2="2908.62" y2="1390.87" style="stroke:#C0C0C0;stroke-opacity:0.50;stroke-width:4.32"/>
	<line x1="3198.32" y1="2057.16" x2="3198.32" y2="1390.87" style="stroke:#C0C0C0;stroke-opacity:0.50;stroke-width:4.32"/>
	<line x1="3488.02" y1="2057.16" x2="3488.02" y2="1390.87" style="stroke:#C0C0C0;stroke-opacity:0.50;stroke-width:4.32"/>
	<line x1="3777.72" y1="2057.16" x2="3777.72" y2="1390.87" style="stroke:#C0C0C0;stroke-opacity:0.50;stroke-width:4.32"/>
	<path d=" M2329.22 1390.87 L2343.70 1472.79 L2358.18 1526.13 L2372.66 1569.94 L2387.14 1607.44 L2401.62 1640.48 L2416.09 1669.93 L2430.57 1696.29 L2445.05 1720.30 L2459.53 1742.21 L2474.01 1762.13 L2488.49 1780.45 L2502.97 1797.40 L2517.57 1812.99 L2532.05 1827.35 L2546.53 1840.72 L2561.01 1853.21 L2575.49 1864.72 L2589.96 1875.49 L2604.44 1885.51 L2618.92 1894.92 L2633.40 1903.71 L2647.88 1911.87 L2662.36 1919.55 L2676.84 1926.72 L2691.32 1933.53 L2705.79 1939.97 L2720.27 1945.91 L2734.75 1951.47 L2749.23 1956.80 L2763.71 1961.87 L2778.19 1966.57 L2792.67 1971.03 L2807.15 1975.24 L2821.62 1979.20 L2836.23 1982.91 L2850.71 1986.50 L2865.18 1989.84 L2879.66 1992.93 L2894.14 1996.03 L2908.62 1998.87 L2923.10 2001.60 L2937.58 2004.07 L2952.06 2006.55 L2966.54 2008.90 L2981.01 2011.00 L2995.49 2013.10 L3009.97 2015.08 L3024.45 2016.94 L3038.93 2018.80 L3053.41 2020.53 L3067.89 2022.14 L3082.37 2023.62 L3096.84 2025.11 L3111.32 2026.47 L3125.80 2027.83 L3140.40 2029.07 L3154.88 2030.31 L3169.36 2031.42 L3183.84 2032.53 L3198.32 2033.65 L3212.80 2034.64 L3227.28 2035.63 L3241.76 2036.49 L3256.23 2037.36 L3270.71 2038.23 L3285.19 2038.97 L3299.67 2039.71 L3314.15 2040.45 L3328.63 2041.20 L3343.11 2041.82 L3357.59 2042.43 L3372.06 2043.05 L3386.54 2043.55 L3401.02 2044.17 L3415.50 2044.66 L3429.98 2045.16 L3444.46 2045.65 L3459.06 2046.15 L3473.54 2046.52 L3488.02 2047.01 L3502.50 2047.38 L3516.98 2047.76 L3531.45 2048.13 L3545.93 2048.50 L3560.41 2048.87 L3574.89 2049.24 L3589.37 2049.49 L3603.85 2049.86 L3618.33 2050.11 L3632.81 2050.35 L3647.28 2050.60 L3661.76 2050.85 L3676.24 2051.10 L3690.72 2051.34 L3705.20 2051.59 L3719.68 2051.84 L3734.16 2051.96 L3748.64 2052.21 L3763.24 2052.46 L3777.72 2052.58" stroke-linejoin="round" style="fill:none;stroke:#E41A1C;stroke-width:6.48"/>
	<path d=" M2329.22 1390.87 L2343.70 1441.11 L2358.18 1480.59 L2372.66 1515.74 L2387.14 1547.91 L2401.62 1577.74 L2416.09 1605.34 L2430.57 1631.20 L2445.05 1655.33 L2459.53 1677.98 L2474.01 1699.14 L2488.49 1719.06 L2502.97 1737.88 L2517.57 1755.57 L2532.05 1772.16 L2546.53 1787.87 L2561.01 1802.60 L2575.49 1816.46 L2589.96 1829.45 L2604.44 1841.71 L2618.92 1853.21 L2633.40 1864.10 L2647.88 1874.38 L2662.36 1883.91 L2676.84 1892.94 L2691.32 1901.48 L2705.79 1909.52 L2720.27 1917.07 L2734.75 1924.25 L2749.23 1930.93 L2763.71 1937.24 L2778.19 1943.18 L2792.67 1948.88 L2807.15 1954.20 L2821.62 1959.15 L2836.23 1963.97 L2850.71 1968.43 L2865.18 1972.64 L2879.66 1976.60 L2894.14 1980.43 L2908.62 1984.02 L2923.10 1987.36 L2937.58 1990.58 L2952.06 1993.67 L2966.54 1996.52 L2981.01 1999.24 L2995.49 2001.84 L3009.97 2004.32 L3024.45 2006.67 L3038.93 2008.90 L3053.41 2011.12 L3067.89 2013.10 L3082.37 2014.96 L3096.84 2016.82 L3111.32 2018.55 L3125.80 2020.28 L3140.40 2021.77 L3154.88 2023.38 L3169.36 2024.74 L3183.84 2026.10 L3198.32 2027.46 L3212.80 2028.70 L3227.28 2029.93 L3241.76 2031.05 L3256.23 2032.04 L3270.71 2033.15 L3285.19 2034.14 L3299.67 2035.01 L3314.15 2036.00 L3328.63 2036.86 L3343.11 2037.61 L3357.59 2038.47 L3372.06 2039.22 L3386.54 2039.96 L3401.02 2040.58 L3415.50 2041.32 L3429.98 2041.94 L3444.46 2042.56 L3459.06 2043.05 L3473.54 2043.67 L3488.02 2044.17 L3502.50 2044.66 L3516.98 2045.16 L3531.45 2045.65 L3545.93 2046.15 L3560.41 2046.52 L3574.89 2047.01 L3589.37 2047.38 L3603.85 2047.76 L3618.33 2048.13 L3632.81 2048.50 L3647.28 2048.75 L3661.76 2049.12 L3676.24 2049.36 L3690.72 2049.74 L3705.20 2049.98 L3719.68 2050.23 L3734.16 2050.48 L3748.64 2050.73 L3763.24 2050.97 L3777.72 2051.22" stroke-linejoin="round" style="fill:none;stroke:#377EB8;stroke-width:6.48"/>
	<path d=" M2329.22 1390.87 L2343.70 1432.20 L2358.18 1465.86 L2372.66 1496.68 L2387.14 1525.51 L2401.62 1552.62 L2416.09 1578.23 L2430.57 1602.49 L2445.05 1625.38 L2459.53 1647.16 L2474.01 1667.83 L2488.49 1687.51 L2502.97 1706.07 L2517.57 1723.89 L2532.05 1740.72 L2546.53 1756.69 L2561.01 1771.91 L2575.49 1786.39 L2589.96 1800.12 L2604.44 1813.24 L2618.92 1825.49 L2633.40 1837.25 L2647.88 1848.39 L2662.36 1858.78 L2676.84 1868.81 L2691.32 1878.21 L2705.79 1887.12 L2720.27 1895.54 L2734.75 1903.46 L2749.23 1911.01 L2763.71 1918.18 L2778.19 1924.99 L2792.67 1931.30 L2807.15 1937.37 L2821.62 1943.18 L2836.23 1948.50 L2850.71 1953.70 L2865.18 1958.53 L2879.66 1963.23 L2894.14 1967.56 L2908.62 1971.65 L2923.10 1975.61 L2937.58 1979.32 L2952.06 1982.91 L2966.54 1986.25 L2981.01 1989.34 L2995.49 1992.44 L3009.97 1995.28 L3024.45 1998.01 L3038.93 2000.61 L3053.41 2003.08 L3067.89 2005.43 L3082.37 2007.66 L3096.84 2009.76 L3111.32 2011.74 L3125.80 2013.72 L3140.40 2015.58 L3154.88 2017.31 L3169.36 2018.92 L3183.84 2020.53 L3198.32 2022.14 L3212.80 2023.50 L3227.28 2024.86 L3241.76 2026.22 L3256.23 2027.46 L3270.71 2028.70 L3285.19 2029.93 L3299.67 2031.05 L3314.15 2032.04 L3328.63 2033.03 L3343.11 2034.02 L3357.59 2035.01 L3372.06 2035.87 L3386.54 2036.74 L3401.02 2037.48 L3415.50 2038.23 L3429.98 2038.97 L3444.46 2039.71 L3459.06 2040.45 L3473.54 2041.07 L3488.02 2041.69 L3502.50 2042.31 L3516.98 2042.93 L3531.45 2043.42 L3545.93 2043.92 L3560.41 2044.54 L3574.89 2044.91 L3589.37 2045.40 L3603.85 2045.90 L3618.33 2046.27 L3632.81 2046.77 L3647.28 2047.14 L3661.76 2047.51 L3676.24 2047.88 L3690.72 2048.25 L3705.20 2048.62 L3719.68 2048.87 L3734.16 2049.24 L3748.64 2049.49 L3763.24 2049.74 L3777.72 2050.11" stroke-linejoin="round" style="fill:none;stroke:#4DAF4A;stroke-width:6.48"/>
	<line x1="2329.22" y1="2057.16" x2="2329.22" y2="1390.87" style="stroke:#000000;stroke-width:4.32"/>
	<line x1="2329.22" y1="2057.16" x2="2299.28" y2="2057.16" style="stroke:#000000;stroke-width:4.32"/>
	<text x="2284.30" y="2083.44" style="font-family:'Helvetica';font-size:74.99px;fill:#000000" text-anchor="end">0.0</text>
	<line x1="2329.22" y1="1923.88" x2="2299.28" y2="1923.88" style="stroke:#000000;stroke-width:4.32"/>
	<text x="2284.30" y="1950.16" style="font-family:'Helvetica';font-size:74.99px;fill:#000000" text-anchor="end">0.2</text>
	<line x1="2329.22" y1="1790.59" x2="2299.28" y2="1790.59" style="stroke:#000000;stroke-width:4.32"/>
	<text x="2284.30" y="1816.87" style="font-family:'Helvetica';font-size:74.99px;fill:#000000" text-anchor="end">0.4</text>
	<line x1="2329.22" y1="1657.31" x2="2299.28" y2="1657.31" style="stroke:#000000;stroke-width:4.32"/>
	<text x="2284.30" y="1683.59" style="font-family:'Helvetica';font-size:74.99px;fill:#000000" text-anchor="end">0.6</text>
	<line x1="2329.22" y1="1524.03" x2="2299.28" y2="1524.03" style="stroke:#000000;stroke-width:4.32"/>
	<text x="2284.30" y="1550.31" style="font-family:'Helvetica';font-size:74.99px;fill:#000000" text-anchor="end">0.8</text>
	<line x1="2329.22" y1="1390.87" x2="2299.28" y2="1390.87" style="stroke:#000000;stroke-width:4.32"/>
	<text x="2284.30" y="1417.15" style="font-family:'Helvetica';font-size:74.99px;fill:#000000" text-anchor="end">1.0</text>
	<text x="2123.02" y="1724.02" style="font-family:'Helvetica';font-size:74.99px;fill:#000000" transform="rotate(-90 2123.02,1724.02)" text-anchor="middle">Survival Proportion</text>
	<line x1="2329.22" y1="2057.16" x2="3820.91" y2="2057.16" style="stroke:#000000;stroke-width:4.32"/>
	<line x1="2329.22" y1="2057.16" x2="2329.22" y2="2087.11" style="stroke:#000000;stroke-width:4.32"/>
	<text x="2329.22" y="2154.64" style="font-family:'Helvetica';font-size:74.99px;fill:#000000" text-anchor="middle">0</text>
	<line x1="2618.92" y1="2057.16" x2="2618.92" y2="2087.11" style="stroke:#000000;stroke-width:4.32"/>
	<text x="2618.92" y="2154.64" style="font-family:'Helvetica';font-size:74.99px;fill:#000000" text-anchor="middle">2</text>
	<line x1="2908.62" y1="2057.16" x2="2908.62" y2="2087.11" style="stroke:#000000;stroke-width:4.32"/>
	<text x="2908.62" y="2154.64" style="font-family:'Helvetica';font-size:74.99px;fill:#000000" text-anchor="middle">4</text>
	<line x1="3198.32" y1="2057.16" x2="3198.32" y2="2087.11" style="stroke:#000000;stroke-width:4.32"/>
	<text x="3198.32" y="2154.64" style="font-family:'Helvetica';font-size:74.99px;fill:#000000" text-anchor="middle">6</text>
	<line x1="3488.02" y1="2057.16" x2="3488.02" y2="2087.11" style="stroke:#000000;stroke-width:4.32"/>
	<text x="3488.02" y="2154.64" style="font-family:'Helvetica';font-size:74.99px;fill:#000000" text-anchor="middle">8</text>
	<line x1="3777.72" y1="2057.16" x2="3777.72" y2="2087.11" style="stroke:#000000;stroke-width:4.32"/>
	<text x="3777.72" y="2154.64" style="font-family:'Helvetica';font-size:74.99px;fill:#000000" text-anchor="middle">10</text>
	<text x="3075.06" y="2237.06" style="font-family:'Helvetica';font-size:74.99px;fill:#000000" text-anchor="middle">Years since Diagnosis</text>
	<text x="3075.06" y="1353.05" style="font-family:'Helvetica';font-size:82.54px;fill:#000000" text-anchor="middle">85, Male, Stage 3</text>
	<rect x="1107.69" y="2384.86" width="1744.50" height="397.25" style="fill:#FFFFFF"/>
	<rect x="1110.57" y="2387.74" width="1738.74" height="391.49" style="fill:none;stroke:#FFFFFF;stroke-width:5.76"/>
	<line x1="1116.35" y1="2443.40" x2="1316.33" y2="2443.40" style="stroke:#E41A1C;stroke-width:8.64"/>
	<line x1="1116.35" y1="2583.49" x2="1316.33" y2="2583.49" style="stroke:#377EB8;stroke-width:8.64"/>
	<line x1="1116.35" y1="2723.45" x2="1316.33" y2="2723.45" style="stroke:#4DAF4A;stroke-width:8.64"/>
	<text x="1376.35" y="2471.41" style="font-family:'Helvetica';font-size:79.94px;fill:#000000">Standard</text>
	<text x="1376.35" y="2611.50" style="font-family:'Helvetica';font-size:79.94px;fill:#000000">Temporal Recalibration: 5 Year Window</text>
	<text x="1376.35" y="2751.46" style="font-family:'Helvetica';font-size:79.94px;fill:#000000">Temporal Recalibration: 2 Year Window</text>
</svg>
