<?xml version="1.0" encoding="UTF-8" standalone="no"?>
<!-- This is a Stata 18.5 generated SVG file (http://www.stata.com) -->

<svg version="1.1" width="700px" height="509px" viewBox="0 0 3960 2880" xmlns="http://www.w3.org/2000/svg" xmlns:xlink="http://www.w3.org/1999/xlink">
	<desc>Stata Graph - Graph</desc>
	<rect x="0" y="0" width="3960" height="2880" style="fill:#FFFFFF;stroke:none"/>
	<rect x="0.00" y="0.00" width="3959.88" height="2880.00" style="fill:#FFFFFF"/>
	<rect x="2.88" y="2.88" width="3954.12" height="2874.24" style="fill:none;stroke:#FFFFFF;stroke-width:5.76"/>
	<rect x="63.36" y="63.36" width="1916.64" height="2753.28" style="fill:#FFFFFF"/>
	<rect x="65.52" y="65.52" width="1912.32" height="2748.96" style="fill:none;stroke:#FFFFFF;stroke-width:4.32"/>
	<line x1="412.71" y1="2523.59" x2="1904.39" y2="2523.59" style="stroke:#C0C0C0;stroke-opacity:0.50;stroke-width:4.32"/>
	<line x1="412.71" y1="1963.48" x2="1904.39" y2="1963.48" style="stroke:#C0C0C0;stroke-opacity:0.50;stroke-width:4.32"/>
	<line x1="412.71" y1="1403.49" x2="1904.39" y2="1403.49" style="stroke:#C0C0C0;stroke-opacity:0.50;stroke-width:4.32"/>
	<line x1="412.71" y1="843.51" x2="1904.39" y2="843.51" style="stroke:#C0C0C0;stroke-opacity:0.50;stroke-width:4.32"/>
	<line x1="412.71" y1="283.52" x2="1904.39" y2="283.52" style="stroke:#C0C0C0;stroke-opacity:0.50;stroke-width:4.32"/>
	<line x1="412.71" y1="2523.59" x2="412.71" y2="269.91" style="stroke:#C0C0C0;stroke-opacity:0.50;stroke-width:4.32"/>
	<line x1="702.41" y1="2523.59" x2="702.41" y2="269.91" style="stroke:#C0C0C0;stroke-opacity:0.50;stroke-width:4.32"/>
	<line x1="992.10" y1="2523.59" x2="992.10" y2="269.91" style="stroke:#C0C0C0;stroke-opacity:0.50;stroke-width:4.32"/>
	<line x1="1281.80" y1="2523.59" x2="1281.80" y2="269.91" style="stroke:#C0C0C0;stroke-opacity:0.50;stroke-width:4.32"/>
	<line x1="1571.50" y1="2523.59" x2="1571.50" y2="269.91" style="stroke:#C0C0C0;stroke-opacity:0.50;stroke-width:4.32"/>
	<line x1="1861.20" y1="2523.59" x2="1861.20" y2="269.91" style="stroke:#C0C0C0;stroke-opacity:0.50;stroke-width:4.32"/>
	<path d=" M412.58 2523.59 L441.54 2221.01 L470.62 2016.32 L499.58 1879.70 L528.54 1776.49 L557.49 1690.48 L586.45 1614.62 L615.41 1545.56 L644.37 1481.58 L673.32 1421.56 L702.28 1365.13 L731.24 1311.79 L760.20 1261.30 L789.28 1213.41 L818.24 1167.74 L847.19 1124.30 L876.15 1082.72 L905.11 1042.87 L934.07 1004.63 L963.02 967.76 L991.98 932.24 L1020.94 897.96 L1049.90 864.67 L1078.98 832.62 L1107.93 801.55 L1136.89 771.61 L1165.85 742.77 L1194.81 714.93 L1223.76 688.07 L1252.72 662.21 L1281.68 637.33 L1310.64 613.32 L1339.59 590.18 L1368.55 567.91 L1397.63 546.25 L1426.59 525.46 L1455.55 505.16 L1484.51 485.49 L1513.46 466.30 L1542.42 447.74 L1571.38 429.55 L1600.34 411.85 L1629.29 394.65 L1658.25 377.82 L1687.21 361.36 L1716.29 345.27 L1745.25 329.56 L1774.20 314.21 L1803.16 299.11 L1832.12 284.39 L1861.08 269.91" stroke-linejoin="round" style="fill:none;stroke:#E41A1C;stroke-width:6.48"/>
	<line x1="412.71" y1="2523.59" x2="412.71" y2="269.91" style="stroke:#000000;stroke-width:4.32"/>
	<line x1="412.71" y1="2523.59" x2="382.64" y2="2523.59" style="stroke:#000000;stroke-width:4.32"/>
	<text x="367.66" y="2549.87" style="font-family:'Helvetica';font-size:74.99px;fill:#000000" text-anchor="end">0.0</text>
	<line x1="412.71" y1="1963.48" x2="382.64" y2="1963.48" style="stroke:#000000;stroke-width:4.32"/>
	<text x="367.66" y="1989.76" style="font-family:'Helvetica';font-size:74.99px;fill:#000000" text-anchor="end">0.1</text>
	<line x1="412.71" y1="1403.49" x2="382.64" y2="1403.49" style="stroke:#000000;stroke-width:4.32"/>
	<text x="367.66" y="1429.77" style="font-family:'Helvetica';font-size:74.99px;fill:#000000" text-anchor="end">0.2</text>
	<line x1="412.71" y1="843.51" x2="382.64" y2="843.51" style="stroke:#000000;stroke-width:4.32"/>
	<text x="367.66" y="869.79" style="font-family:'Helvetica';font-size:74.99px;fill:#000000" text-anchor="end">0.3</text>
	<line x1="412.71" y1="283.52" x2="382.64" y2="283.52" style="stroke:#000000;stroke-width:4.32"/>
	<text x="367.66" y="309.80" style="font-family:'Helvetica';font-size:74.99px;fill:#000000" text-anchor="end">0.4</text>
	<text x="206.38" y="1396.69" style="font-family:'Helvetica';font-size:74.99px;fill:#000000" transform="rotate(-90 206.38,1396.69)" text-anchor="middle">Probability of Death</text>
	<line x1="412.71" y1="2523.59" x2="1904.39" y2="2523.59" style="stroke:#000000;stroke-width:4.32"/>
	<line x1="412.71" y1="2523.59" x2="412.71" y2="2553.54" style="stroke:#000000;stroke-width:4.32"/>
	<text x="412.71" y="2620.95" style="font-family:'Helvetica';font-size:74.99px;fill:#000000" text-anchor="middle">0</text>
	<line x1="702.41" y1="2523.59" x2="702.41" y2="2553.54" style="stroke:#000000;stroke-width:4.32"/>
	<text x="702.41" y="2620.95" style="font-family:'Helvetica';font-size:74.99px;fill:#000000" text-anchor="middle">1</text>
	<line x1="992.10" y1="2523.59" x2="992.10" y2="2553.54" style="stroke:#000000;stroke-width:4.32"/>
	<text x="992.10" y="2620.95" style="font-family:'Helvetica';font-size:74.99px;fill:#000000" text-anchor="middle">2</text>
	<line x1="1281.80" y1="2523.59" x2="1281.80" y2="2553.54" style="stroke:#000000;stroke-width:4.32"/>
	<text x="1281.80" y="2620.95" style="font-family:'Helvetica';font-size:74.99px;fill:#000000" text-anchor="middle">3</text>
	<line x1="1571.50" y1="2523.59" x2="1571.50" y2="2553.54" style="stroke:#000000;stroke-width:4.32"/>
	<text x="1571.50" y="2620.95" style="font-family:'Helvetica';font-size:74.99px;fill:#000000" text-anchor="middle">4</text>
	<line x1="1861.20" y1="2523.59" x2="1861.20" y2="2553.54" style="stroke:#000000;stroke-width:4.32"/>
	<text x="1861.20" y="2620.95" style="font-family:'Helvetica';font-size:74.99px;fill:#000000" text-anchor="middle">5</text>
	<text x="1158.55" y="2703.49" style="font-family:'Helvetica';font-size:74.99px;fill:#000000" text-anchor="middle">Years since Diagnosis</text>
	<text x="1158.55" y="225.37" style="font-family:'Helvetica';font-size:104.94px;fill:#000000" text-anchor="middle">Cancer</text>
	<rect x="1980.00" y="63.36" width="1916.52" height="2753.28" style="fill:#FFFFFF"/>
	<rect x="1982.16" y="65.52" width="1912.20" height="2748.96" style="fill:none;stroke:#FFFFFF;stroke-width:4.32"/>
	<line x1="2329.22" y1="2523.59" x2="3820.91" y2="2523.59" style="stroke:#C0C0C0;stroke-opacity:0.50;stroke-width:4.32"/>
	<line x1="2329.22" y1="1960.14" x2="3820.91" y2="1960.14" style="stroke:#C0C0C0;stroke-opacity:0.50;stroke-width:4.32"/>
	<line x1="2329.22" y1="1396.69" x2="3820.91" y2="1396.69" style="stroke:#C0C0C0;stroke-opacity:0.50;stroke-width:4.32"/>
	<line x1="2329.22" y1="833.23" x2="3820.91" y2="833.23" style="stroke:#C0C0C0;stroke-opacity:0.50;stroke-width:4.32"/>
	<line x1="2329.22" y1="269.91" x2="3820.91" y2="269.91" style="stroke:#C0C0C0;stroke-opacity:0.50;stroke-width:4.32"/>
	<line x1="2329.22" y1="2523.59" x2="2329.22" y2="269.91" style="stroke:#C0C0C0;stroke-opacity:0.50;stroke-width:4.32"/>
	<line x1="2618.92" y1="2523.59" x2="2618.92" y2="269.91" style="stroke:#C0C0C0;stroke-opacity:0.50;stroke-width:4.32"/>
	<line x1="2908.62" y1="2523.59" x2="2908.62" y2="269.91" style="stroke:#C0C0C0;stroke-opacity:0.50;stroke-width:4.32"/>
	<line x1="3198.32" y1="2523.59" x2="3198.32" y2="269.91" style="stroke:#C0C0C0;stroke-opacity:0.50;stroke-width:4.32"/>
	<line x1="3488.02" y1="2523.59" x2="3488.02" y2="269.91" style="stroke:#C0C0C0;stroke-opacity:0.50;stroke-width:4.32"/>
	<line x1="3777.72" y1="2523.59" x2="3777.72" y2="269.91" style="stroke:#C0C0C0;stroke-opacity:0.50;stroke-width:4.32"/>
	<path d=" M2329.22 2523.59 L2358.18 2504.65 L2387.14 2487.45 L2416.09 2471.36 L2445.05 2456.02 L2474.01 2441.29 L2502.97 2426.94 L2532.05 2413.08 L2561.01 2399.46 L2589.96 2386.22 L2618.92 2373.10 L2647.88 2359.00 L2676.84 2345.26 L2705.79 2331.77 L2734.75 2318.53 L2763.71 2305.53 L2792.67 2292.91 L2821.62 2280.41 L2850.71 2268.16 L2879.66 2256.03 L2908.62 2243.91 L2937.58 2230.91 L2966.54 2218.16 L2995.49 2205.67 L3024.45 2193.29 L3053.41 2181.16 L3082.37 2169.28 L3111.32 2157.52 L3140.40 2146.02 L3169.36 2134.63 L3198.32 2123.37 L3227.28 2110.99 L3256.23 2098.87 L3285.19 2086.86 L3314.15 2075.10 L3343.11 2063.47 L3372.06 2052.09 L3401.02 2040.83 L3429.98 2029.69 L3459.06 2018.67 L3488.02 2007.41 L3516.98 1995.41 L3545.93 1983.65 L3574.89 1972.14 L3603.85 1960.63 L3632.81 1949.37 L3661.76 1938.36 L3690.72 1927.34 L3719.68 1916.58 L3748.64 1905.93 L3777.72 1895.41" stroke-linejoin="round" style="fill:none;stroke:#377EB8;stroke-width:6.48"/>
	<line x1="2329.22" y1="2523.59" x2="2329.22" y2="269.91" style="stroke:#000000;stroke-width:4.32"/>
	<line x1="2329.22" y1="2523.59" x2="2299.28" y2="2523.59" style="stroke:#000000;stroke-width:4.32"/>
	<text x="2284.30" y="2549.87" style="font-family:'Helvetica';font-size:74.99px;fill:#000000" text-anchor="end">0.0</text>
	<line x1="2329.22" y1="1960.14" x2="2299.28" y2="1960.14" style="stroke:#000000;stroke-width:4.32"/>
	<text x="2284.30" y="1986.42" style="font-family:'Helvetica';font-size:74.99px;fill:#000000" text-anchor="end">0.1</text>
	<line x1="2329.22" y1="1396.69" x2="2299.28" y2="1396.69" style="stroke:#000000;stroke-width:4.32"/>
	<text x="2284.30" y="1422.97" style="font-family:'Helvetica';font-size:74.99px;fill:#000000" text-anchor="end">0.2</text>
	<line x1="2329.22" y1="833.23" x2="2299.28" y2="833.23" style="stroke:#000000;stroke-width:4.32"/>
	<text x="2284.30" y="859.51" style="font-family:'Helvetica';font-size:74.99px;fill:#000000" text-anchor="end">0.3</text>
	<line x1="2329.22" y1="269.91" x2="2299.28" y2="269.91" style="stroke:#000000;stroke-width:4.32"/>
	<text x="2284.30" y="296.19" style="font-family:'Helvetica';font-size:74.99px;fill:#000000" text-anchor="end">0.4</text>
	<text x="2123.02" y="1396.69" style="font-family:'Helvetica';font-size:74.99px;fill:#000000" transform="rotate(-90 2123.02,1396.69)" text-anchor="middle">Probability of Death</text>
	<line x1="2329.22" y1="2523.59" x2="3820.91" y2="2523.59" style="stroke:#000000;stroke-width:4.32"/>
	<line x1="2329.22" y1="2523.59" x2="2329.22" y2="2553.54" style="stroke:#000000;stroke-width:4.32"/>
	<text x="2329.22" y="2620.95" style="font-family:'Helvetica';font-size:74.99px;fill:#000000" text-anchor="middle">0</text>
	<line x1="2618.92" y1="2523.59" x2="2618.92" y2="2553.54" style="stroke:#000000;stroke-width:4.32"/>
	<text x="2618.92" y="2620.95" style="font-family:'Helvetica';font-size:74.99px;fill:#000000" text-anchor="middle">1</text>
	<line x1="2908.62" y1="2523.59" x2="2908.62" y2="2553.54" style="stroke:#000000;stroke-width:4.32"/>
	<text x="2908.62" y="2620.95" style="font-family:'Helvetica';font-size:74.99px;fill:#000000" text-anchor="middle">2</text>
	<line x1="3198.32" y1="2523.59" x2="3198.32" y2="2553.54" style="stroke:#000000;stroke-width:4.32"/>
	<text x="3198.32" y="2620.95" style="font-family:'Helvetica';font-size:74.99px;fill:#000000" text-anchor="middle">3</text>
	<line x1="3488.02" y1="2523.59" x2="3488.02" y2="2553.54" style="stroke:#000000;stroke-width:4.32"/>
	<text x="3488.02" y="2620.95" style="font-family:'Helvetica';font-size:74.99px;fill:#000000" text-anchor="middle">4</text>
	<line x1="3777.72" y1="2523.59" x2="3777.72" y2="2553.54" style="stroke:#000000;stroke-width:4.32"/>
	<text x="3777.72" y="2620.95" style="font-family:'Helvetica';font-size:74.99px;fill:#000000" text-anchor="middle">5</text>
	<text x="3075.06" y="2703.49" style="font-family:'Helvetica';font-size:74.99px;fill:#000000" text-anchor="middle">Years since Diagnosis</text>
	<text x="3075.06" y="225.37" style="font-family:'Helvetica';font-size:104.94px;fill:#000000" text-anchor="middle">Other Causes</text>
</svg>
