<?xml version="1.0" encoding="UTF-8" standalone="no"?>
<!-- This is a Stata 18.5 generated SVG file (http://www.stata.com) -->

<svg version="1.1" width="700px" height="509px" viewBox="0 0 3960 2880" xmlns="http://www.w3.org/2000/svg" xmlns:xlink="http://www.w3.org/1999/xlink">
	<desc>Stata Graph - Graph</desc>
	<rect x="0" y="0" width="3960" height="2880" style="fill:#FFFFFF;stroke:none"/>
	<rect x="0.00" y="0.00" width="3959.88" height="2880.00" style="fill:#FFFFFF"/>
	<rect x="2.88" y="2.88" width="3954.12" height="2874.24" style="fill:none;stroke:#FFFFFF;stroke-width:5.76"/>
	<rect x="63.36" y="63.36" width="1916.64" height="2753.28" style="fill:#FFFFFF"/>
	<rect x="65.52" y="65.52" width="1912.32" height="2748.96" style="fill:none;stroke:#FFFFFF;stroke-width:4.32"/>
	<line x1="456.39" y1="2362.96" x2="1904.39" y2="2362.96" style="stroke:#C0C0C0;stroke-opacity:0.50;stroke-width:4.32"/>
	<line x1="456.39" y1="2153.69" x2="1904.39" y2="2153.69" style="stroke:#C0C0C0;stroke-opacity:0.50;stroke-width:4.32"/>
	<line x1="456.39" y1="1944.42" x2="1904.39" y2="1944.42" style="stroke:#C0C0C0;stroke-opacity:0.50;stroke-width:4.32"/>
	<line x1="456.39" y1="1735.03" x2="1904.39" y2="1735.03" style="stroke:#C0C0C0;stroke-opacity:0.50;stroke-width:4.32"/>
	<line x1="456.39" y1="1525.76" x2="1904.39" y2="1525.76" style="stroke:#C0C0C0;stroke-opacity:0.50;stroke-width:4.32"/>
	<line x1="456.39" y1="1316.49" x2="1904.39" y2="1316.49" style="stroke:#C0C0C0;stroke-opacity:0.50;stroke-width:4.32"/>
	<line x1="456.39" y1="1107.10" x2="1904.39" y2="1107.10" style="stroke:#C0C0C0;stroke-opacity:0.50;stroke-width:4.32"/>
	<line x1="456.39" y1="897.83" x2="1904.39" y2="897.83" style="stroke:#C0C0C0;stroke-opacity:0.50;stroke-width:4.32"/>
	<line x1="456.39" y1="688.57" x2="1904.39" y2="688.57" style="stroke:#C0C0C0;stroke-opacity:0.50;stroke-width:4.32"/>
	<line x1="456.39" y1="479.17" x2="1904.39" y2="479.17" style="stroke:#C0C0C0;stroke-opacity:0.50;stroke-width:4.32"/>
	<line x1="456.39" y1="269.91" x2="1904.39" y2="269.91" style="stroke:#C0C0C0;stroke-opacity:0.50;stroke-width:4.32"/>
	<line x1="456.39" y1="2523.59" x2="456.39" y2="269.91" style="stroke:#C0C0C0;stroke-opacity:0.50;stroke-width:4.32"/>
	<line x1="737.43" y1="2523.59" x2="737.43" y2="269.91" style="stroke:#C0C0C0;stroke-opacity:0.50;stroke-width:4.32"/>
	<line x1="1018.34" y1="2523.59" x2="1018.34" y2="269.91" style="stroke:#C0C0C0;stroke-opacity:0.50;stroke-width:4.32"/>
	<line x1="1299.25" y1="2523.59" x2="1299.25" y2="269.91" style="stroke:#C0C0C0;stroke-opacity:0.50;stroke-width:4.32"/>
	<line x1="1580.16" y1="2523.59" x2="1580.16" y2="269.91" style="stroke:#C0C0C0;stroke-opacity:0.50;stroke-width:4.32"/>
	<line x1="1861.20" y1="2523.59" x2="1861.20" y2="269.91" style="stroke:#C0C0C0;stroke-opacity:0.50;stroke-width:4.32"/>
	<defs>
		<path id="path_vJROIjPM" d="M456.39 2362.96 L456.39 2362.96 L484.48 2272.62 L512.57 2058.03 L540.66 1926.72 L568.76 1836.88 L596.97 1770.79 L625.06 1721.17 L653.15 1685.40 L681.24 1661.02 L709.34 1646.55 L737.43 1640.11 L765.52 1640.61 L793.61 1646.42 L821.70 1656.57 L849.79 1669.93 L877.88 1685.65 L905.97 1703.35 L934.07 1722.41 L962.16 1742.45 L990.25 1763.25 L1018.34 1784.78 L1046.43 1806.68 L1074.52 1829.08 L1102.61 1851.85 L1130.70 1874.99 L1158.80 1898.38 L1186.89 1922.27 L1214.98 1946.28 L1243.07 1970.66 L1271.16 1995.41 L1299.25 2020.16 L1327.34 2045.28 L1355.43 2070.53 L1383.53 2095.90 L1411.62 2121.39 L1439.71 2147.01 L1467.80 2172.62 L1495.89 2198.36 L1523.98 2223.98 L1552.07 2249.72 L1580.16 2275.34 L1608.26 2300.96 L1636.35 2326.45 L1664.44 2351.69 L1692.53 2376.94 L1720.62 2401.94 L1748.71 2426.69 L1776.80 2451.32 L1804.89 2475.57 L1833.11 2499.70 L1861.20 2523.59 L1861.20 1261.05 L1833.11 1247.19 L1804.89 1233.08 L1776.80 1218.60 L1748.71 1203.75 L1720.62 1188.66 L1692.53 1173.06 L1664.44 1157.10 L1636.35 1140.64 L1608.26 1123.81 L1580.16 1106.61 L1552.07 1088.91 L1523.98 1070.72 L1495.89 1052.16 L1467.80 1033.10 L1439.71 1013.67 L1411.62 993.74 L1383.53 973.45 L1355.43 952.78 L1327.34 931.87 L1299.25 910.70 L1271.16 889.30 L1243.07 868.01 L1214.98 846.72 L1186.89 825.56 L1158.80 804.90 L1130.70 784.72 L1102.61 765.42 L1074.52 747.10 L1046.43 730.15 L1018.34 714.80 L990.25 701.44 L962.16 690.18 L934.07 681.39 L905.97 675.32 L877.88 672.23 L849.79 672.35 L821.70 676.07 L793.61 683.49 L765.52 695.00 L737.43 710.97 L709.34 732.00 L681.24 759.11 L653.15 794.00 L625.06 839.67 L596.97 901.42 L568.76 989.29 L540.66 1121.33 L512.57 1334.69 L484.48 1708.55 L456.39 2362.96 L456.39 2362.96 Z" stroke-linejoin="round"/>
	</defs>
	<defs>
		<clipPath id="clipPath_ViVhfyVy">
			<use xlink:href="#path_vJROIjPM"/>
		</clipPath>
	</defs>
	<use xlink:href="#path_vJROIjPM" style="stroke:none;fill:#E94849;fill-opacity:0.30"/>
	<use xlink:href="#path_vJROIjPM" style="fill:none;stroke:#E41A1C;stroke-opacity:0.30;stroke-width:12.96" clip-path="url(#clipPath_ViVhfyVy)"/>
	<path d=" M456.39 2363.08 L484.48 1990.58 L512.57 1696.42 L540.66 1524.03 L568.76 1413.15 L596.85 1336.17 L624.94 1280.48 L653.03 1239.77 L681.12 1210.19 L709.21 1189.27 L737.30 1175.54 L765.39 1167.87 L793.49 1165.02 L821.58 1166.38 L849.67 1171.21 L877.76 1179.00 L905.85 1189.40 L933.94 1202.02 L962.03 1216.38 L990.12 1232.46 L1018.22 1249.79 L1046.31 1268.48 L1074.40 1288.15 L1102.49 1308.70 L1130.58 1329.86 L1158.67 1351.76 L1186.76 1373.92 L1214.98 1396.56 L1243.07 1419.46 L1271.16 1442.35 L1299.25 1465.49 L1327.34 1488.64 L1355.43 1511.65 L1383.53 1534.67 L1411.62 1557.57 L1439.71 1580.34 L1467.80 1602.98 L1495.89 1625.26 L1523.98 1647.41 L1552.07 1669.32 L1580.16 1691.10 L1608.26 1712.51 L1636.35 1733.54 L1664.44 1754.46 L1692.53 1775.00 L1720.62 1795.30 L1748.71 1815.35 L1776.80 1835.02 L1804.89 1854.45 L1832.99 1873.51 L1861.08 1892.32" stroke-linejoin="round" style="fill:none;stroke:#E41A1C;stroke-width:6.48"/>
	<line x1="456.39" y1="2523.59" x2="456.39" y2="269.91" style="stroke:#000000;stroke-width:4.32"/>
	<line x1="456.39" y1="2362.96" x2="426.44" y2="2362.96" style="stroke:#000000;stroke-width:4.32"/>
	<text x="411.47" y="2389.24" style="font-family:'Helvetica';font-size:74.99px;fill:#000000" text-anchor="end">0.00</text>
	<line x1="456.39" y1="2153.69" x2="426.44" y2="2153.69" style="stroke:#000000;stroke-width:4.32"/>
	<text x="411.47" y="2179.97" style="font-family:'Helvetica';font-size:74.99px;fill:#000000" text-anchor="end">0.01</text>
	<line x1="456.39" y1="1944.42" x2="426.44" y2="1944.42" style="stroke:#000000;stroke-width:4.32"/>
	<text x="411.47" y="1970.70" style="font-family:'Helvetica';font-size:74.99px;fill:#000000" text-anchor="end">0.02</text>
	<line x1="456.39" y1="1735.03" x2="426.44" y2="1735.03" style="stroke:#000000;stroke-width:4.32"/>
	<text x="411.47" y="1761.31" style="font-family:'Helvetica';font-size:74.99px;fill:#000000" text-anchor="end">0.03</text>
	<line x1="456.39" y1="1525.76" x2="426.44" y2="1525.76" style="stroke:#000000;stroke-width:4.32"/>
	<text x="411.47" y="1552.04" style="font-family:'Helvetica';font-size:74.99px;fill:#000000" text-anchor="end">0.04</text>
	<line x1="456.39" y1="1316.49" x2="426.44" y2="1316.49" style="stroke:#000000;stroke-width:4.32"/>
	<text x="411.47" y="1342.77" style="font-family:'Helvetica';font-size:74.99px;fill:#000000" text-anchor="end">0.05</text>
	<line x1="456.39" y1="1107.10" x2="426.44" y2="1107.10" style="stroke:#000000;stroke-width:4.32"/>
	<text x="411.47" y="1133.38" style="font-family:'Helvetica';font-size:74.99px;fill:#000000" text-anchor="end">0.06</text>
	<line x1="456.39" y1="897.83" x2="426.44" y2="897.83" style="stroke:#000000;stroke-width:4.32"/>
	<text x="411.47" y="924.11" style="font-family:'Helvetica';font-size:74.99px;fill:#000000" text-anchor="end">0.07</text>
	<line x1="456.39" y1="688.57" x2="426.44" y2="688.57" style="stroke:#000000;stroke-width:4.32"/>
	<text x="411.47" y="714.85" style="font-family:'Helvetica';font-size:74.99px;fill:#000000" text-anchor="end">0.08</text>
	<line x1="456.39" y1="479.17" x2="426.44" y2="479.17" style="stroke:#000000;stroke-width:4.32"/>
	<text x="411.47" y="505.45" style="font-family:'Helvetica';font-size:74.99px;fill:#000000" text-anchor="end">0.09</text>
	<line x1="456.39" y1="269.91" x2="426.44" y2="269.91" style="stroke:#000000;stroke-width:4.32"/>
	<text x="411.47" y="296.19" style="font-family:'Helvetica';font-size:74.99px;fill:#000000" text-anchor="end">0.10</text>
	<text x="206.38" y="1396.69" style="font-family:'Helvetica';font-size:74.99px;fill:#000000" transform="rotate(-90 206.38,1396.69)" text-anchor="middle">Difference in Probability of Death</text>
	<line x1="456.39" y1="2523.59" x2="1904.39" y2="2523.59" style="stroke:#000000;stroke-width:4.32"/>
	<line x1="456.39" y1="2523.59" x2="456.39" y2="2553.54" style="stroke:#000000;stroke-width:4.32"/>
	<text x="456.39" y="2620.95" style="font-family:'Helvetica';font-size:74.99px;fill:#000000" text-anchor="middle">0</text>
	<line x1="737.43" y1="2523.59" x2="737.43" y2="2553.54" style="stroke:#000000;stroke-width:4.32"/>
	<text x="737.43" y="2620.95" style="font-family:'Helvetica';font-size:74.99px;fill:#000000" text-anchor="middle">1</text>
	<line x1="1018.34" y1="2523.59" x2="1018.34" y2="2553.54" style="stroke:#000000;stroke-width:4.32"/>
	<text x="1018.34" y="2620.95" style="font-family:'Helvetica';font-size:74.99px;fill:#000000" text-anchor="middle">2</text>
	<line x1="1299.25" y1="2523.59" x2="1299.25" y2="2553.54" style="stroke:#000000;stroke-width:4.32"/>
	<text x="1299.25" y="2620.95" style="font-family:'Helvetica';font-size:74.99px;fill:#000000" text-anchor="middle">3</text>
	<line x1="1580.16" y1="2523.59" x2="1580.16" y2="2553.54" style="stroke:#000000;stroke-width:4.32"/>
	<text x="1580.16" y="2620.95" style="font-family:'Helvetica';font-size:74.99px;fill:#000000" text-anchor="middle">4</text>
	<line x1="1861.20" y1="2523.59" x2="1861.20" y2="2553.54" style="stroke:#000000;stroke-width:4.32"/>
	<text x="1861.20" y="2620.95" style="font-family:'Helvetica';font-size:74.99px;fill:#000000" text-anchor="middle">5</text>
	<text x="1180.45" y="2703.49" style="font-family:'Helvetica';font-size:74.99px;fill:#000000" text-anchor="middle">Years since Diagnosis</text>
	<text x="1180.45" y="225.37" style="font-family:'Helvetica';font-size:104.94px;fill:#000000" text-anchor="middle">Cancer</text>
	<rect x="1980.00" y="63.36" width="1916.52" height="2753.28" style="fill:#FFFFFF"/>
	<rect x="1982.16" y="65.52" width="1912.20" height="2748.96" style="fill:none;stroke:#FFFFFF;stroke-width:4.32"/>
	<line x1="2373.03" y1="2362.96" x2="3820.91" y2="2362.96" style="stroke:#C0C0C0;stroke-opacity:0.50;stroke-width:4.32"/>
	<line x1="2373.03" y1="2153.69" x2="3820.91" y2="2153.69" style="stroke:#C0C0C0;stroke-opacity:0.50;stroke-width:4.32"/>
	<line x1="2373.03" y1="1944.42" x2="3820.91" y2="1944.42" style="stroke:#C0C0C0;stroke-opacity:0.50;stroke-width:4.32"/>
	<line x1="2373.03" y1="1735.03" x2="3820.91" y2="1735.03" style="stroke:#C0C0C0;stroke-opacity:0.50;stroke-width:4.32"/>
	<line x1="2373.03" y1="1525.76" x2="3820.91" y2="1525.76" style="stroke:#C0C0C0;stroke-opacity:0.50;stroke-width:4.32"/>
	<line x1="2373.03" y1="1316.49" x2="3820.91" y2="1316.49" style="stroke:#C0C0C0;stroke-opacity:0.50;stroke-width:4.32"/>
	<line x1="2373.03" y1="1107.10" x2="3820.91" y2="1107.10" style="stroke:#C0C0C0;stroke-opacity:0.50;stroke-width:4.32"/>
	<line x1="2373.03" y1="897.83" x2="3820.91" y2="897.83" style="stroke:#C0C0C0;stroke-opacity:0.50;stroke-width:4.32"/>
	<line x1="2373.03" y1="688.57" x2="3820.91" y2="688.57" style="stroke:#C0C0C0;stroke-opacity:0.50;stroke-width:4.32"/>
	<line x1="2373.03" y1="479.17" x2="3820.91" y2="479.17" style="stroke:#C0C0C0;stroke-opacity:0.50;stroke-width:4.32"/>
	<line x1="2373.03" y1="269.91" x2="3820.91" y2="269.91" style="stroke:#C0C0C0;stroke-opacity:0.50;stroke-width:4.32"/>
	<line x1="2373.03" y1="2523.59" x2="2373.03" y2="269.91" style="stroke:#C0C0C0;stroke-opacity:0.50;stroke-width:4.32"/>
	<line x1="2653.94" y1="2523.59" x2="2653.94" y2="269.91" style="stroke:#C0C0C0;stroke-opacity:0.50;stroke-width:4.32"/>
	<line x1="2934.86" y1="2523.59" x2="2934.86" y2="269.91" style="stroke:#C0C0C0;stroke-opacity:0.50;stroke-width:4.32"/>
	<line x1="3215.89" y1="2523.59" x2="3215.89" y2="269.91" style="stroke:#C0C0C0;stroke-opacity:0.50;stroke-width:4.32"/>
	<line x1="3496.80" y1="2523.59" x2="3496.80" y2="269.91" style="stroke:#C0C0C0;stroke-opacity:0.50;stroke-width:4.32"/>
	<line x1="3777.72" y1="2523.59" x2="3777.72" y2="269.91" style="stroke:#C0C0C0;stroke-opacity:0.50;stroke-width:4.32"/>
	<defs>
		<path id="path_WXRJHLLr" d="M2373.03 2362.96 L2373.03 2362.96 L2401.12 2334.62 L2429.21 2310.98 L2457.30 2289.82 L2485.40 2270.14 L2513.49 2251.58 L2541.58 2233.88 L2569.67 2216.80 L2597.76 2200.22 L2625.85 2184.13 L2653.94 2168.17 L2682.03 2151.58 L2710.13 2135.99 L2738.22 2120.77 L2766.31 2105.80 L2794.40 2091.32 L2822.49 2076.96 L2850.58 2062.98 L2878.67 2049.36 L2906.76 2035.87 L2934.86 2023.00 L2962.95 2009.89 L2991.04 1996.40 L3019.13 1983.28 L3047.22 1970.41 L3075.31 1957.66 L3103.53 1945.04 L3131.62 1932.66 L3159.71 1920.54 L3187.80 1908.41 L3215.89 1897.27 L3243.98 1885.39 L3272.07 1873.14 L3300.17 1861.26 L3328.26 1849.38 L3356.35 1837.74 L3384.44 1826.24 L3412.53 1814.85 L3440.62 1803.59 L3468.71 1792.57 L3496.80 1780.82 L3524.90 1769.56 L3552.99 1758.67 L3581.08 1747.90 L3609.17 1737.38 L3637.26 1726.86 L3665.35 1716.59 L3693.44 1706.32 L3721.53 1696.29 L3749.63 1686.27 L3777.72 1676.49 L3777.72 1472.79 L3749.63 1486.90 L3721.53 1501.01 L3693.44 1515.37 L3665.35 1529.97 L3637.26 1544.57 L3609.17 1559.42 L3581.08 1574.40 L3552.99 1589.49 L3524.90 1604.84 L3496.80 1620.68 L3468.71 1636.52 L3440.62 1651.74 L3412.53 1667.21 L3384.44 1682.68 L3356.35 1698.52 L3328.26 1714.36 L3300.17 1730.45 L3272.07 1746.79 L3243.98 1763.37 L3215.89 1779.70 L3187.80 1794.93 L3159.71 1811.01 L3131.62 1827.35 L3103.53 1843.81 L3075.31 1860.52 L3047.22 1877.47 L3019.13 1894.55 L2991.04 1912.00 L2962.95 1929.69 L2934.86 1947.02 L2906.76 1963.73 L2878.67 1981.05 L2850.58 1998.62 L2822.49 2016.45 L2794.40 2034.51 L2766.31 2052.95 L2738.22 2071.76 L2710.13 2090.95 L2682.03 2110.50 L2653.94 2131.04 L2625.85 2150.72 L2597.76 2170.52 L2569.67 2190.81 L2541.58 2211.85 L2513.49 2233.51 L2485.40 2256.16 L2457.30 2279.92 L2429.21 2305.04 L2401.12 2332.27 L2373.03 2362.96 L2373.03 2362.96 Z" stroke-linejoin="round"/>
	</defs>
	<defs>
		<clipPath id="clipPath_JHSqmLPF">
			<use xlink:href="#path_WXRJHLLr"/>
		</clipPath>
	</defs>
	<use xlink:href="#path_WXRJHLLr" style="stroke:none;fill:#E94849;fill-opacity:0.30"/>
	<use xlink:href="#path_WXRJHLLr" style="fill:none;stroke:#E41A1C;stroke-opacity:0.30;stroke-width:12.96" clip-path="url(#clipPath_JHSqmLPF)"/>
	<path d=" M2372.91 2363.08 L2401.00 2333.50 L2429.09 2308.01 L2457.18 2284.87 L2485.40 2263.21 L2513.49 2242.67 L2541.58 2222.87 L2569.67 2203.81 L2597.76 2185.37 L2625.85 2167.55 L2653.94 2149.60 L2682.03 2131.17 L2710.13 2113.59 L2738.22 2096.39 L2766.31 2079.44 L2794.40 2062.98 L2822.49 2046.77 L2850.58 2030.92 L2878.67 2015.21 L2906.76 1999.86 L2934.86 1985.14 L2962.95 1969.79 L2991.04 1954.20 L3019.13 1938.98 L3047.22 1924.00 L3075.31 1909.15 L3103.40 1894.55 L3131.49 1880.07 L3159.59 1865.84 L3187.68 1851.73 L3215.77 1838.49 L3243.86 1824.50 L3271.95 1810.02 L3300.04 1795.92 L3328.13 1781.93 L3356.22 1768.20 L3384.32 1754.58 L3412.41 1741.09 L3440.50 1727.73 L3468.59 1714.61 L3496.68 1700.87 L3524.77 1687.26 L3552.86 1674.14 L3580.95 1661.27 L3609.05 1648.40 L3637.14 1635.78 L3665.23 1623.28 L3693.32 1610.90 L3721.53 1598.78 L3749.63 1586.65 L3777.72 1574.77" stroke-linejoin="round" style="fill:none;stroke:#E41A1C;stroke-width:6.48"/>
	<line x1="2373.03" y1="2523.59" x2="2373.03" y2="269.91" style="stroke:#000000;stroke-width:4.32"/>
	<line x1="2373.03" y1="2362.96" x2="2343.08" y2="2362.96" style="stroke:#000000;stroke-width:4.32"/>
	<text x="2327.99" y="2389.24" style="font-family:'Helvetica';font-size:74.99px;fill:#000000" text-anchor="end">0.00</text>
	<line x1="2373.03" y1="2153.69" x2="2343.08" y2="2153.69" style="stroke:#000000;stroke-width:4.32"/>
	<text x="2327.99" y="2179.97" style="font-family:'Helvetica';font-size:74.99px;fill:#000000" text-anchor="end">0.01</text>
	<line x1="2373.03" y1="1944.42" x2="2343.08" y2="1944.42" style="stroke:#000000;stroke-width:4.32"/>
	<text x="2327.99" y="1970.70" style="font-family:'Helvetica';font-size:74.99px;fill:#000000" text-anchor="end">0.02</text>
	<line x1="2373.03" y1="1735.03" x2="2343.08" y2="1735.03" style="stroke:#000000;stroke-width:4.32"/>
	<text x="2327.99" y="1761.31" style="font-family:'Helvetica';font-size:74.99px;fill:#000000" text-anchor="end">0.03</text>
	<line x1="2373.03" y1="1525.76" x2="2343.08" y2="1525.76" style="stroke:#000000;stroke-width:4.32"/>
	<text x="2327.99" y="1552.04" style="font-family:'Helvetica';font-size:74.99px;fill:#000000" text-anchor="end">0.04</text>
	<line x1="2373.03" y1="1316.49" x2="2343.08" y2="1316.49" style="stroke:#000000;stroke-width:4.32"/>
	<text x="2327.99" y="1342.77" style="font-family:'Helvetica';font-size:74.99px;fill:#000000" text-anchor="end">0.05</text>
	<line x1="2373.03" y1="1107.10" x2="2343.08" y2="1107.10" style="stroke:#000000;stroke-width:4.32"/>
	<text x="2327.99" y="1133.38" style="font-family:'Helvetica';font-size:74.99px;fill:#000000" text-anchor="end">0.06</text>
	<line x1="2373.03" y1="897.83" x2="2343.08" y2="897.83" style="stroke:#000000;stroke-width:4.32"/>
	<text x="2327.99" y="924.11" style="font-family:'Helvetica';font-size:74.99px;fill:#000000" text-anchor="end">0.07</text>
	<line x1="2373.03" y1="688.57" x2="2343.08" y2="688.57" style="stroke:#000000;stroke-width:4.32"/>
	<text x="2327.99" y="714.85" style="font-family:'Helvetica';font-size:74.99px;fill:#000000" text-anchor="end">0.08</text>
	<line x1="2373.03" y1="479.17" x2="2343.08" y2="479.17" style="stroke:#000000;stroke-width:4.32"/>
	<text x="2327.99" y="505.45" style="font-family:'Helvetica';font-size:74.99px;fill:#000000" text-anchor="end">0.09</text>
	<line x1="2373.03" y1="269.91" x2="2343.08" y2="269.91" style="stroke:#000000;stroke-width:4.32"/>
	<text x="2327.99" y="296.19" style="font-family:'Helvetica';font-size:74.99px;fill:#000000" text-anchor="end">0.10</text>
	<text x="2123.02" y="1396.69" style="font-family:'Helvetica';font-size:74.99px;fill:#000000" transform="rotate(-90 2123.02,1396.69)" text-anchor="middle">Difference in Probability of Death</text>
	<line x1="2373.03" y1="2523.59" x2="3820.91" y2="2523.59" style="stroke:#000000;stroke-width:4.32"/>
	<line x1="2373.03" y1="2523.59" x2="2373.03" y2="2553.54" style="stroke:#000000;stroke-width:4.32"/>
	<text x="2373.03" y="2620.95" style="font-family:'Helvetica';font-size:74.99px;fill:#000000" text-anchor="middle">0</text>
	<line x1="2653.94" y1="2523.59" x2="2653.94" y2="2553.54" style="stroke:#000000;stroke-width:4.32"/>
	<text x="2653.94" y="2620.95" style="font-family:'Helvetica';font-size:74.99px;fill:#000000" text-anchor="middle">1</text>
	<line x1="2934.86" y1="2523.59" x2="2934.86" y2="2553.54" style="stroke:#000000;stroke-width:4.32"/>
	<text x="2934.86" y="2620.95" style="font-family:'Helvetica';font-size:74.99px;fill:#000000" text-anchor="middle">2</text>
	<line x1="3215.89" y1="2523.59" x2="3215.89" y2="2553.54" style="stroke:#000000;stroke-width:4.32"/>
	<text x="3215.89" y="2620.95" style="font-family:'Helvetica';font-size:74.99px;fill:#000000" text-anchor="middle">3</text>
	<line x1="3496.80" y1="2523.59" x2="3496.80" y2="2553.54" style="stroke:#000000;stroke-width:4.32"/>
	<text x="3496.80" y="2620.95" style="font-family:'Helvetica';font-size:74.99px;fill:#000000" text-anchor="middle">4</text>
	<line x1="3777.72" y1="2523.59" x2="3777.72" y2="2553.54" style="stroke:#000000;stroke-width:4.32"/>
	<text x="3777.72" y="2620.95" style="font-family:'Helvetica';font-size:74.99px;fill:#000000" text-anchor="middle">5</text>
	<text x="3096.97" y="2703.49" style="font-family:'Helvetica';font-size:74.99px;fill:#000000" text-anchor="middle">Years since Diagnosis</text>
	<text x="3096.97" y="225.37" style="font-family:'Helvetica';font-size:104.94px;fill:#000000" text-anchor="middle">Other Causes</text>
</svg>
