<?xml version="1.0" encoding="UTF-8" standalone="no"?>
<!-- This is a Stata 18.5 generated SVG file (http://www.stata.com) -->

<svg version="1.1" width="700px" height="509px" viewBox="0 0 3960 2880" xmlns="http://www.w3.org/2000/svg" xmlns:xlink="http://www.w3.org/1999/xlink">
	<desc>Stata Graph - Graph</desc>
	<rect x="0" y="0" width="3960" height="2880" style="fill:#FFFFFF;stroke:none"/>
	<rect x="0.00" y="0.00" width="3959.88" height="2880.00" style="fill:#FFFFFF"/>
	<rect x="2.88" y="2.88" width="3954.12" height="2874.24" style="fill:none;stroke:#FFFFFF;stroke-width:5.76"/>
	<line x1="465.80" y1="2489.19" x2="3859.02" y2="2489.19" style="stroke:#C0C0C0;stroke-opacity:0.50;stroke-width:5.76"/>
	<line x1="465.80" y1="2011.50" x2="3859.02" y2="2011.50" style="stroke:#C0C0C0;stroke-opacity:0.50;stroke-width:5.76"/>
	<line x1="465.80" y1="1533.81" x2="3859.02" y2="1533.81" style="stroke:#C0C0C0;stroke-opacity:0.50;stroke-width:5.76"/>
	<line x1="465.80" y1="1056.12" x2="3859.02" y2="1056.12" style="stroke:#C0C0C0;stroke-opacity:0.50;stroke-width:5.76"/>
	<line x1="465.80" y1="578.43" x2="3859.02" y2="578.43" style="stroke:#C0C0C0;stroke-opacity:0.50;stroke-width:5.76"/>
	<line x1="465.80" y1="100.86" x2="3859.02" y2="100.86" style="stroke:#C0C0C0;stroke-opacity:0.50;stroke-width:5.76"/>
	<line x1="465.80" y1="2489.19" x2="465.80" y2="100.86" style="stroke:#C0C0C0;stroke-opacity:0.50;stroke-width:5.76"/>
	<line x1="1132.93" y1="2489.19" x2="1132.93" y2="100.86" style="stroke:#C0C0C0;stroke-opacity:0.50;stroke-width:5.76"/>
	<line x1="1800.07" y1="2489.19" x2="1800.07" y2="100.86" style="stroke:#C0C0C0;stroke-opacity:0.50;stroke-width:5.76"/>
	<line x1="2467.20" y1="2489.19" x2="2467.20" y2="100.86" style="stroke:#C0C0C0;stroke-opacity:0.50;stroke-width:5.76"/>
	<line x1="3134.34" y1="2489.19" x2="3134.34" y2="100.86" style="stroke:#C0C0C0;stroke-opacity:0.50;stroke-width:5.76"/>
	<line x1="3801.48" y1="2489.19" x2="3801.48" y2="100.86" style="stroke:#C0C0C0;stroke-opacity:0.50;stroke-width:5.76"/>
	<path d=" M465.67 2489.31 L532.37 2267.91 L599.20 2122.50 L665.90 2023.25 L732.60 1946.28 L799.30 1880.69 L866.00 1821.53 L932.70 1766.83 L999.41 1715.10 L1066.11 1666.10 L1132.81 1619.20 L1199.63 1574.52 L1266.33 1531.70 L1333.04 1490.62 L1399.74 1451.14 L1466.44 1413.15 L1533.14 1376.64 L1599.84 1341.24 L1666.54 1307.09 L1733.24 1274.05 L1799.94 1241.87 L1866.77 1210.56 L1933.47 1180.24 L2000.17 1150.66 L2066.87 1122.08 L2133.57 1094.23 L2200.28 1067.25 L2266.98 1041.14 L2333.68 1015.90 L2400.38 991.52 L2467.08 967.88 L2533.91 945.11 L2600.61 923.08 L2667.31 901.67 L2734.01 880.88 L2800.71 860.71 L2867.41 841.16 L2934.11 822.10 L3000.81 803.53 L3067.52 785.47 L3134.34 767.77 L3201.04 750.57 L3267.74 733.74 L3334.44 717.28 L3401.15 701.19 L3467.85 685.47 L3534.55 670.00 L3601.25 654.91 L3667.95 640.18 L3734.65 625.58 L3801.48 611.47" stroke-linejoin="round" style="fill:none;stroke:#E41A1C;stroke-width:8.64"/>
	<line x1="465.67" y1="2489.31" x2="474.33" y2="2449.83" style="stroke:#E41A1C;stroke-width:8.64"/>
	<line x1="477.92" y1="2433.00" x2="486.59" y2="2393.52" style="stroke:#E41A1C;stroke-width:8.64"/>
	<line x1="490.17" y1="2376.69" x2="498.84" y2="2337.34" style="stroke:#E41A1C;stroke-width:8.64"/>
	<line x1="502.43" y1="2320.39" x2="510.96" y2="2281.03" style="stroke:#E41A1C;stroke-width:8.64"/>
	<line x1="514.68" y1="2264.20" x2="523.22" y2="2224.72" style="stroke:#E41A1C;stroke-width:8.64"/>
	<line x1="526.93" y1="2207.89" x2="532.37" y2="2182.89" style="stroke:#E41A1C;stroke-width:8.64"/>
	<line x1="532.37" y1="2182.89" x2="536.83" y2="2168.79" style="stroke:#E41A1C;stroke-width:8.64"/>
	<line x1="542.03" y1="2152.33" x2="554.15" y2="2113.84" style="stroke:#E41A1C;stroke-width:8.64"/>
	<line x1="559.23" y1="2097.38" x2="571.35" y2="2058.89" style="stroke:#E41A1C;stroke-width:8.64"/>
	<line x1="576.55" y1="2042.43" x2="588.68" y2="2003.95" style="stroke:#E41A1C;stroke-width:8.64"/>
	<line x1="593.88" y1="1987.49" x2="599.20" y2="1970.41" style="stroke:#E41A1C;stroke-width:8.64"/>
	<line x1="599.20" y1="1970.41" x2="608.97" y2="1950.11" style="stroke:#E41A1C;stroke-width:8.64"/>
	<line x1="616.40" y1="1934.64" x2="633.85" y2="1898.26" style="stroke:#E41A1C;stroke-width:8.64"/>
	<line x1="641.40" y1="1882.67" x2="658.85" y2="1846.41" style="stroke:#E41A1C;stroke-width:8.64"/>
	<line x1="666.39" y1="1830.94" x2="688.55" y2="1797.15" style="stroke:#E41A1C;stroke-width:8.64"/>
	<line x1="697.95" y1="1782.80" x2="719.98" y2="1748.89" style="stroke:#E41A1C;stroke-width:8.64"/>
	<line x1="729.38" y1="1734.53" x2="732.60" y2="1729.58" style="stroke:#E41A1C;stroke-width:8.64"/>
	<line x1="732.60" y1="1729.58" x2="754.13" y2="1702.73" style="stroke:#E41A1C;stroke-width:8.64"/>
	<line x1="764.90" y1="1689.24" x2="790.14" y2="1657.68" style="stroke:#E41A1C;stroke-width:8.64"/>
	<line x1="801.03" y1="1644.44" x2="828.51" y2="1614.86" style="stroke:#E41A1C;stroke-width:8.64"/>
	<line x1="840.26" y1="1602.24" x2="866.00" y2="1574.52" style="stroke:#E41A1C;stroke-width:8.64"/>
	<line x1="866.00" y1="1574.52" x2="867.86" y2="1572.79" style="stroke:#E41A1C;stroke-width:8.64"/>
	<line x1="880.23" y1="1560.91" x2="909.32" y2="1532.94" style="stroke:#E41A1C;stroke-width:8.64"/>
	<line x1="921.81" y1="1520.94" x2="932.70" y2="1510.42" style="stroke:#E41A1C;stroke-width:8.64"/>
	<line x1="932.70" y1="1510.42" x2="951.64" y2="1493.83" style="stroke:#E41A1C;stroke-width:8.64"/>
	<line x1="964.63" y1="1482.45" x2="994.95" y2="1455.84" style="stroke:#E41A1C;stroke-width:8.64"/>
	<line x1="1008.19" y1="1444.83" x2="1039.62" y2="1419.46" style="stroke:#E41A1C;stroke-width:8.64"/>
	<line x1="1053.11" y1="1408.69" x2="1066.11" y2="1398.17" style="stroke:#E41A1C;stroke-width:8.64"/>
	<line x1="1066.11" y1="1398.17" x2="1085.04" y2="1384.06" style="stroke:#E41A1C;stroke-width:8.64"/>
	<line x1="1098.78" y1="1373.67" x2="1130.95" y2="1349.54" style="stroke:#E41A1C;stroke-width:8.64"/>
	<line x1="1145.06" y1="1339.51" x2="1178.22" y2="1316.49" style="stroke:#E41A1C;stroke-width:8.64"/>
	<line x1="1192.33" y1="1306.72" x2="1199.63" y2="1301.64" style="stroke:#E41A1C;stroke-width:8.64"/>
	<line x1="1199.63" y1="1301.64" x2="1225.99" y2="1284.44" style="stroke:#E41A1C;stroke-width:8.64"/>
	<line x1="1240.47" y1="1275.04" x2="1266.33" y2="1258.21" style="stroke:#E41A1C;stroke-width:8.64"/>
	<line x1="1266.33" y1="1258.21" x2="1274.38" y2="1253.26" style="stroke:#E41A1C;stroke-width:8.64"/>
	<line x1="1289.10" y1="1244.35" x2="1323.51" y2="1223.31" style="stroke:#E41A1C;stroke-width:8.64"/>
	<line x1="1338.36" y1="1214.40" x2="1373.38" y2="1194.35" style="stroke:#E41A1C;stroke-width:8.64"/>
	<line x1="1388.23" y1="1185.69" x2="1399.74" y2="1179.13" style="stroke:#E41A1C;stroke-width:8.64"/>
	<line x1="1399.74" y1="1179.13" x2="1423.50" y2="1166.13" style="stroke:#E41A1C;stroke-width:8.64"/>
	<line x1="1438.72" y1="1157.96" x2="1466.44" y2="1142.99" style="stroke:#E41A1C;stroke-width:8.64"/>
	<line x1="1466.44" y1="1142.99" x2="1474.23" y2="1138.91" style="stroke:#E41A1C;stroke-width:8.64"/>
	<line x1="1489.58" y1="1131.11" x2="1525.47" y2="1112.67" style="stroke:#E41A1C;stroke-width:8.64"/>
	<line x1="1540.94" y1="1104.87" x2="1577.19" y2="1087.30" style="stroke:#E41A1C;stroke-width:8.64"/>
	<line x1="1592.79" y1="1079.75" x2="1599.84" y2="1076.29" style="stroke:#E41A1C;stroke-width:8.64"/>
	<line x1="1599.84" y1="1076.29" x2="1629.29" y2="1062.67" style="stroke:#E41A1C;stroke-width:8.64"/>
	<line x1="1645.01" y1="1055.37" x2="1666.54" y2="1045.47" style="stroke:#E41A1C;stroke-width:8.64"/>
	<line x1="1666.54" y1="1045.47" x2="1681.76" y2="1038.79" style="stroke:#E41A1C;stroke-width:8.64"/>
	<line x1="1697.48" y1="1031.86" x2="1733.24" y2="1016.02" style="stroke:#E41A1C;stroke-width:8.64"/>
	<line x1="1733.24" y1="1016.02" x2="1734.36" y2="1015.52" style="stroke:#E41A1C;stroke-width:8.64"/>
	<line x1="1750.32" y1="1008.84" x2="1787.45" y2="993.12" style="stroke:#E41A1C;stroke-width:8.64"/>
	<line x1="1803.29" y1="986.44" x2="1840.78" y2="971.34" style="stroke:#E41A1C;stroke-width:8.64"/>
	<line x1="1856.75" y1="964.91" x2="1866.77" y2="960.83" style="stroke:#E41A1C;stroke-width:8.64"/>
	<line x1="1866.77" y1="960.83" x2="1894.24" y2="950.18" style="stroke:#E41A1C;stroke-width:8.64"/>
	<line x1="1910.33" y1="943.87" x2="1933.47" y2="934.84" style="stroke:#E41A1C;stroke-width:8.64"/>
	<line x1="1933.47" y1="934.84" x2="1947.95" y2="929.52" style="stroke:#E41A1C;stroke-width:8.64"/>
	<line x1="1964.16" y1="923.58" x2="2000.17" y2="910.09" style="stroke:#E41A1C;stroke-width:8.64"/>
	<line x1="2000.17" y1="910.09" x2="2001.90" y2="909.47" style="stroke:#E41A1C;stroke-width:8.64"/>
	<line x1="2018.12" y1="903.77" x2="2056.11" y2="890.04" style="stroke:#E41A1C;stroke-width:8.64"/>
	<line x1="2072.32" y1="884.35" x2="2110.56" y2="871.35" style="stroke:#E41A1C;stroke-width:8.64"/>
	<line x1="2126.77" y1="865.78" x2="2133.57" y2="863.43" style="stroke:#E41A1C;stroke-width:8.64"/>
	<line x1="2133.57" y1="863.43" x2="2165.13" y2="853.04" style="stroke:#E41A1C;stroke-width:8.64"/>
	<line x1="2181.59" y1="847.71" x2="2200.28" y2="841.53" style="stroke:#E41A1C;stroke-width:8.64"/>
	<line x1="2200.28" y1="841.53" x2="2219.95" y2="835.34" style="stroke:#E41A1C;stroke-width:8.64"/>
	<line x1="2236.41" y1="830.14" x2="2266.98" y2="820.61" style="stroke:#E41A1C;stroke-width:8.64"/>
	<line x1="2266.98" y1="820.61" x2="2274.90" y2="818.26" style="stroke:#E41A1C;stroke-width:8.64"/>
	<line x1="2291.36" y1="813.31" x2="2329.97" y2="801.68" style="stroke:#E41A1C;stroke-width:8.64"/>
	<line x1="2346.55" y1="796.85" x2="2385.28" y2="785.71" style="stroke:#E41A1C;stroke-width:8.64"/>
	<line x1="2401.86" y1="781.01" x2="2440.72" y2="770.24" style="stroke:#E41A1C;stroke-width:8.64"/>
	<line x1="2457.43" y1="765.67" x2="2467.08" y2="763.07" style="stroke:#E41A1C;stroke-width:8.64"/>
	<line x1="2467.08" y1="763.07" x2="2496.41" y2="755.39" style="stroke:#E41A1C;stroke-width:8.64"/>
	<line x1="2513.11" y1="750.94" x2="2533.91" y2="745.49" style="stroke:#E41A1C;stroke-width:8.64"/>
	<line x1="2533.91" y1="745.49" x2="2552.10" y2="740.91" style="stroke:#E41A1C;stroke-width:8.64"/>
	<line x1="2568.93" y1="736.71" x2="2600.61" y2="728.79" style="stroke:#E41A1C;stroke-width:8.64"/>
	<line x1="2600.61" y1="728.79" x2="2608.03" y2="726.93" style="stroke:#E41A1C;stroke-width:8.64"/>
	<line x1="2624.74" y1="722.85" x2="2663.97" y2="713.44" style="stroke:#E41A1C;stroke-width:8.64"/>
	<line x1="2680.80" y1="709.48" x2="2720.03" y2="700.32" style="stroke:#E41A1C;stroke-width:8.64"/>
	<line x1="2736.86" y1="696.49" x2="2776.21" y2="687.58" style="stroke:#E41A1C;stroke-width:8.64"/>
	<line x1="2793.04" y1="683.86" x2="2800.71" y2="682.13" style="stroke:#E41A1C;stroke-width:8.64"/>
	<line x1="2800.71" y1="682.13" x2="2832.39" y2="675.20" style="stroke:#E41A1C;stroke-width:8.64"/>
	<line x1="2849.34" y1="671.61" x2="2867.41" y2="667.65" style="stroke:#E41A1C;stroke-width:8.64"/>
	<line x1="2867.41" y1="667.65" x2="2888.82" y2="663.20" style="stroke:#E41A1C;stroke-width:8.64"/>
	<line x1="2905.65" y1="659.73" x2="2934.11" y2="653.79" style="stroke:#E41A1C;stroke-width:8.64"/>
	<line x1="2934.11" y1="653.79" x2="2945.13" y2="651.56" style="stroke:#E41A1C;stroke-width:8.64"/>
	<line x1="2962.08" y1="648.10" x2="3000.81" y2="640.30" style="stroke:#E41A1C;stroke-width:8.64"/>
	<line x1="3000.81" y1="640.30" x2="3001.56" y2="640.18" style="stroke:#E41A1C;stroke-width:8.64"/>
	<line x1="3018.51" y1="636.84" x2="3058.11" y2="629.04" style="stroke:#E41A1C;stroke-width:8.64"/>
	<line x1="3075.06" y1="625.82" x2="3114.66" y2="618.27" style="stroke:#E41A1C;stroke-width:8.64"/>
	<line x1="3131.62" y1="614.93" x2="3134.34" y2="614.44" style="stroke:#E41A1C;stroke-width:8.64"/>
	<line x1="3134.34" y1="614.44" x2="3171.22" y2="607.63" style="stroke:#E41A1C;stroke-width:8.64"/>
	<line x1="3188.17" y1="604.41" x2="3201.04" y2="602.06" style="stroke:#E41A1C;stroke-width:8.64"/>
	<line x1="3201.04" y1="602.06" x2="3227.77" y2="597.24" style="stroke:#E41A1C;stroke-width:8.64"/>
	<line x1="3244.73" y1="594.27" x2="3267.74" y2="590.06" style="stroke:#E41A1C;stroke-width:8.64"/>
	<line x1="3267.74" y1="590.06" x2="3284.45" y2="587.09" style="stroke:#E41A1C;stroke-width:8.64"/>
	<line x1="3301.53" y1="584.12" x2="3334.44" y2="578.43" style="stroke:#E41A1C;stroke-width:8.64"/>
	<line x1="3334.44" y1="578.43" x2="3341.25" y2="577.31" style="stroke:#E41A1C;stroke-width:8.64"/>
	<line x1="3358.20" y1="574.34" x2="3397.93" y2="567.54" style="stroke:#E41A1C;stroke-width:8.64"/>
	<line x1="3415.01" y1="564.69" x2="3454.73" y2="558.13" style="stroke:#E41A1C;stroke-width:8.64"/>
	<line x1="3471.81" y1="555.28" x2="3511.53" y2="548.72" style="stroke:#E41A1C;stroke-width:8.64"/>
	<line x1="3528.48" y1="546.00" x2="3534.55" y2="545.01" style="stroke:#E41A1C;stroke-width:8.64"/>
	<line x1="3534.55" y1="545.01" x2="3568.33" y2="539.57" style="stroke:#E41A1C;stroke-width:8.64"/>
	<line x1="3585.41" y1="536.84" x2="3601.25" y2="534.37" style="stroke:#E41A1C;stroke-width:8.64"/>
	<line x1="3601.25" y1="534.37" x2="3625.26" y2="530.66" style="stroke:#E41A1C;stroke-width:8.64"/>
	<line x1="3642.33" y1="528.06" x2="3667.95" y2="524.10" style="stroke:#E41A1C;stroke-width:8.64"/>
	<line x1="3667.95" y1="524.10" x2="3682.18" y2="521.99" style="stroke:#E41A1C;stroke-width:8.64"/>
	<line x1="3699.14" y1="519.39" x2="3734.65" y2="513.95" style="stroke:#E41A1C;stroke-width:8.64"/>
	<line x1="3734.65" y1="513.95" x2="3738.98" y2="513.33" style="stroke:#E41A1C;stroke-width:8.64"/>
	<line x1="3756.06" y1="510.73" x2="3796.03" y2="504.79" style="stroke:#E41A1C;stroke-width:8.64"/>
	<path d="" stroke-linejoin="round" style="fill:none;stroke:#E41A1C;stroke-width:8.64"/>
	<path d=" M465.67 2489.31 L532.37 2475.82 L599.20 2463.57 L665.90 2452.06 L732.60 2440.92 L799.30 2430.28 L866.00 2419.88 L932.70 2409.74 L999.41 2399.96 L1066.11 2390.31 L1132.81 2380.90 L1199.63 2370.63 L1266.33 2360.48 L1333.04 2350.58 L1399.74 2340.93 L1466.44 2331.40 L1533.14 2321.99 L1599.84 2312.84 L1666.54 2303.93 L1733.24 2295.02 L1799.94 2286.23 L1866.77 2276.58 L1933.47 2267.17 L2000.17 2258.01 L2066.87 2248.86 L2133.57 2239.94 L2200.28 2231.16 L2266.98 2222.50 L2333.68 2213.96 L2400.38 2205.67 L2467.08 2197.13 L2533.91 2187.97 L2600.61 2178.93 L2667.31 2170.02 L2734.01 2161.36 L2800.71 2152.70 L2867.41 2144.28 L2934.11 2135.87 L3000.81 2127.70 L3067.52 2119.53 L3134.34 2111.49 L3201.04 2102.58 L3267.74 2093.79 L3334.44 2085.13 L3401.15 2076.59 L3467.85 2068.30 L3534.55 2060.01 L3601.25 2051.84 L3667.95 2043.80 L3734.65 2035.87 L3801.48 2028.08" stroke-linejoin="round" style="fill:none;stroke:#377EB8;stroke-width:8.64"/>
	<line x1="465.67" y1="2489.31" x2="504.28" y2="2477.55" style="stroke:#377EB8;stroke-width:8.64"/>
	<line x1="520.86" y1="2472.60" x2="532.37" y2="2469.14" style="stroke:#377EB8;stroke-width:8.64"/>
	<line x1="532.37" y1="2469.14" x2="559.72" y2="2461.71" style="stroke:#377EB8;stroke-width:8.64"/>
	<line x1="576.30" y1="2457.26" x2="599.20" y2="2451.07" style="stroke:#377EB8;stroke-width:8.64"/>
	<line x1="599.20" y1="2451.07" x2="615.41" y2="2446.99" style="stroke:#377EB8;stroke-width:8.64"/>
	<line x1="632.12" y1="2442.78" x2="665.90" y2="2434.24" style="stroke:#377EB8;stroke-width:8.64"/>
	<line x1="665.90" y1="2434.24" x2="671.22" y2="2432.88" style="stroke:#377EB8;stroke-width:8.64"/>
	<line x1="688.05" y1="2428.92" x2="727.28" y2="2419.39" style="stroke:#377EB8;stroke-width:8.64"/>
	<line x1="744.11" y1="2415.55" x2="783.34" y2="2406.39" style="stroke:#377EB8;stroke-width:8.64"/>
	<line x1="800.17" y1="2402.56" x2="839.52" y2="2393.77" style="stroke:#377EB8;stroke-width:8.64"/>
	<line x1="856.35" y1="2390.06" x2="866.00" y2="2387.95" style="stroke:#377EB8;stroke-width:8.64"/>
	<line x1="866.00" y1="2387.95" x2="895.70" y2="2381.52" style="stroke:#377EB8;stroke-width:8.64"/>
	<line x1="912.66" y1="2377.81" x2="932.70" y2="2373.48" style="stroke:#377EB8;stroke-width:8.64"/>
	<line x1="932.70" y1="2373.48" x2="952.01" y2="2369.39" style="stroke:#377EB8;stroke-width:8.64"/>
	<line x1="968.96" y1="2365.80" x2="999.41" y2="2359.37" style="stroke:#377EB8;stroke-width:8.64"/>
	<line x1="999.41" y1="2359.37" x2="1008.44" y2="2357.51" style="stroke:#377EB8;stroke-width:8.64"/>
	<line x1="1025.27" y1="2354.05" x2="1064.74" y2="2345.88" style="stroke:#377EB8;stroke-width:8.64"/>
	<line x1="1081.70" y1="2342.41" x2="1121.18" y2="2334.49" style="stroke:#377EB8;stroke-width:8.64"/>
	<line x1="1138.13" y1="2331.03" x2="1177.48" y2="2322.49" style="stroke:#377EB8;stroke-width:8.64"/>
	<line x1="1194.44" y1="2318.78" x2="1199.63" y2="2317.66" style="stroke:#377EB8;stroke-width:8.64"/>
	<line x1="1199.63" y1="2317.66" x2="1233.91" y2="2310.36" style="stroke:#377EB8;stroke-width:8.64"/>
	<line x1="1250.74" y1="2306.77" x2="1266.33" y2="2303.55" style="stroke:#377EB8;stroke-width:8.64"/>
	<line x1="1266.33" y1="2303.55" x2="1290.22" y2="2298.60" style="stroke:#377EB8;stroke-width:8.64"/>
	<line x1="1307.05" y1="2295.02" x2="1333.04" y2="2289.69" style="stroke:#377EB8;stroke-width:8.64"/>
	<line x1="1333.04" y1="2289.69" x2="1346.65" y2="2286.97" style="stroke:#377EB8;stroke-width:8.64"/>
	<line x1="1363.48" y1="2283.51" x2="1399.74" y2="2276.20" style="stroke:#377EB8;stroke-width:8.64"/>
	<line x1="1399.74" y1="2276.20" x2="1403.08" y2="2275.59" style="stroke:#377EB8;stroke-width:8.64"/>
	<line x1="1419.91" y1="2272.12" x2="1459.51" y2="2264.20" style="stroke:#377EB8;stroke-width:8.64"/>
	<line x1="1476.46" y1="2260.86" x2="1516.06" y2="2253.19" style="stroke:#377EB8;stroke-width:8.64"/>
	<line x1="1532.89" y1="2249.97" x2="1533.14" y2="2249.85" style="stroke:#377EB8;stroke-width:8.64"/>
	<line x1="1533.14" y1="2249.85" x2="1572.49" y2="2242.30" style="stroke:#377EB8;stroke-width:8.64"/>
	<line x1="1589.45" y1="2239.08" x2="1599.84" y2="2237.10" style="stroke:#377EB8;stroke-width:8.64"/>
	<line x1="1599.84" y1="2237.10" x2="1629.05" y2="2231.53" style="stroke:#377EB8;stroke-width:8.64"/>
	<line x1="1646.00" y1="2228.31" x2="1666.54" y2="2224.48" style="stroke:#377EB8;stroke-width:8.64"/>
	<line x1="1666.54" y1="2224.48" x2="1685.72" y2="2220.89" style="stroke:#377EB8;stroke-width:8.64"/>
	<line x1="1702.68" y1="2217.79" x2="1733.24" y2="2212.10" style="stroke:#377EB8;stroke-width:8.64"/>
	<line x1="1733.24" y1="2212.10" x2="1742.28" y2="2210.49" style="stroke:#377EB8;stroke-width:8.64"/>
	<line x1="1759.23" y1="2207.27" x2="1798.95" y2="2200.10" style="stroke:#377EB8;stroke-width:8.64"/>
	<line x1="1815.91" y1="2196.88" x2="1855.51" y2="2189.08" style="stroke:#377EB8;stroke-width:8.64"/>
	<line x1="1872.46" y1="2185.74" x2="1912.06" y2="2178.19" style="stroke:#377EB8;stroke-width:8.64"/>
	<line x1="1928.89" y1="2174.85" x2="1933.47" y2="2173.98" style="stroke:#377EB8;stroke-width:8.64"/>
	<line x1="1933.47" y1="2173.98" x2="1968.49" y2="2167.30" style="stroke:#377EB8;stroke-width:8.64"/>
	<line x1="1985.45" y1="2164.08" x2="2000.17" y2="2161.24" style="stroke:#377EB8;stroke-width:8.64"/>
	<line x1="2000.17" y1="2161.24" x2="2025.05" y2="2156.53" style="stroke:#377EB8;stroke-width:8.64"/>
	<line x1="2042.00" y1="2153.32" x2="2066.87" y2="2148.61" style="stroke:#377EB8;stroke-width:8.64"/>
	<line x1="2066.87" y1="2148.61" x2="2081.60" y2="2145.89" style="stroke:#377EB8;stroke-width:8.64"/>
	<line x1="2098.55" y1="2142.80" x2="2133.57" y2="2136.36" style="stroke:#377EB8;stroke-width:8.64"/>
	<line x1="2133.57" y1="2136.36" x2="2138.28" y2="2135.50" style="stroke:#377EB8;stroke-width:8.64"/>
	<line x1="2155.11" y1="2132.40" x2="2194.83" y2="2125.23" style="stroke:#377EB8;stroke-width:8.64"/>
	<line x1="2211.78" y1="2122.13" x2="2251.51" y2="2115.08" style="stroke:#377EB8;stroke-width:8.64"/>
	<line x1="2268.46" y1="2111.98" x2="2308.19" y2="2104.93" style="stroke:#377EB8;stroke-width:8.64"/>
	<line x1="2325.14" y1="2101.96" x2="2333.68" y2="2100.47" style="stroke:#377EB8;stroke-width:8.64"/>
	<line x1="2333.68" y1="2100.47" x2="2364.86" y2="2095.03" style="stroke:#377EB8;stroke-width:8.64"/>
	<line x1="2381.94" y1="2092.06" x2="2400.38" y2="2088.97" style="stroke:#377EB8;stroke-width:8.64"/>
	<line x1="2400.38" y1="2088.97" x2="2421.66" y2="2085.25" style="stroke:#377EB8;stroke-width:8.64"/>
	<line x1="2438.74" y1="2082.41" x2="2467.08" y2="2077.46" style="stroke:#377EB8;stroke-width:8.64"/>
	<line x1="2467.08" y1="2077.46" x2="2478.47" y2="2075.35" style="stroke:#377EB8;stroke-width:8.64"/>
	<line x1="2495.30" y1="2072.13" x2="2533.91" y2="2065.08" style="stroke:#377EB8;stroke-width:8.64"/>
	<line x1="2533.91" y1="2065.08" x2="2535.02" y2="2064.83" style="stroke:#377EB8;stroke-width:8.64"/>
	<line x1="2551.97" y1="2061.74" x2="2591.57" y2="2054.31" style="stroke:#377EB8;stroke-width:8.64"/>
	<line x1="2608.65" y1="2051.22" x2="2648.25" y2="2044.04" style="stroke:#377EB8;stroke-width:8.64"/>
	<line x1="2665.20" y1="2040.95" x2="2667.31" y2="2040.58" style="stroke:#377EB8;stroke-width:8.64"/>
	<line x1="2667.31" y1="2040.58" x2="2704.93" y2="2033.89" style="stroke:#377EB8;stroke-width:8.64"/>
	<line x1="2721.88" y1="2030.80" x2="2734.01" y2="2028.70" style="stroke:#377EB8;stroke-width:8.64"/>
	<line x1="2734.01" y1="2028.70" x2="2761.61" y2="2023.87" style="stroke:#377EB8;stroke-width:8.64"/>
	<line x1="2778.56" y1="2020.78" x2="2800.71" y2="2016.94" style="stroke:#377EB8;stroke-width:8.64"/>
	<line x1="2800.71" y1="2016.94" x2="2818.28" y2="2013.85" style="stroke:#377EB8;stroke-width:8.64"/>
	<line x1="2835.36" y1="2011.00" x2="2867.41" y2="2005.43" style="stroke:#377EB8;stroke-width:8.64"/>
	<line x1="2867.41" y1="2005.43" x2="2874.96" y2="2004.07" style="stroke:#377EB8;stroke-width:8.64"/>
	<line x1="2892.04" y1="2001.10" x2="2931.76" y2="1994.29" style="stroke:#377EB8;stroke-width:8.64"/>
	<line x1="2948.72" y1="1991.45" x2="2988.56" y2="1984.76" style="stroke:#377EB8;stroke-width:8.64"/>
	<line x1="3005.52" y1="1981.79" x2="3045.24" y2="1975.36" style="stroke:#377EB8;stroke-width:8.64"/>
	<line x1="3062.32" y1="1972.51" x2="3067.52" y2="1971.65" style="stroke:#377EB8;stroke-width:8.64"/>
	<line x1="3067.52" y1="1971.65" x2="3102.04" y2="1965.83" style="stroke:#377EB8;stroke-width:8.64"/>
	<line x1="3119.12" y1="1962.98" x2="3134.34" y2="1960.39" style="stroke:#377EB8;stroke-width:8.64"/>
	<line x1="3134.34" y1="1960.39" x2="3158.84" y2="1956.05" style="stroke:#377EB8;stroke-width:8.64"/>
	<line x1="3175.80" y1="1952.96" x2="3201.04" y2="1948.38" style="stroke:#377EB8;stroke-width:8.64"/>
	<line x1="3201.04" y1="1948.38" x2="3215.52" y2="1945.78" style="stroke:#377EB8;stroke-width:8.64"/>
	<line x1="3232.35" y1="1942.81" x2="3267.74" y2="1936.50" style="stroke:#377EB8;stroke-width:8.64"/>
	<line x1="3267.74" y1="1936.50" x2="3272.07" y2="1935.76" style="stroke:#377EB8;stroke-width:8.64"/>
	<line x1="3289.15" y1="1932.91" x2="3328.88" y2="1925.98" style="stroke:#377EB8;stroke-width:8.64"/>
	<line x1="3345.83" y1="1923.01" x2="3385.68" y2="1916.20" style="stroke:#377EB8;stroke-width:8.64"/>
	<line x1="3402.63" y1="1913.23" x2="3442.35" y2="1906.55" style="stroke:#377EB8;stroke-width:8.64"/>
	<line x1="3459.43" y1="1903.71" x2="3467.85" y2="1902.22" style="stroke:#377EB8;stroke-width:8.64"/>
	<line x1="3467.85" y1="1902.22" x2="3499.16" y2="1897.02" style="stroke:#377EB8;stroke-width:8.64"/>
	<line x1="3516.23" y1="1894.05" x2="3534.55" y2="1891.08" style="stroke:#377EB8;stroke-width:8.64"/>
	<line x1="3534.55" y1="1891.08" x2="3556.08" y2="1887.62" style="stroke:#377EB8;stroke-width:8.64"/>
	<line x1="3573.03" y1="1884.77" x2="3601.25" y2="1880.19" style="stroke:#377EB8;stroke-width:8.64"/>
	<line x1="3601.25" y1="1880.19" x2="3612.76" y2="1878.34" style="stroke:#377EB8;stroke-width:8.64"/>
	<line x1="3629.84" y1="1875.49" x2="3667.95" y2="1869.30" style="stroke:#377EB8;stroke-width:8.64"/>
	<line x1="3667.95" y1="1869.30" x2="3669.68" y2="1869.05" style="stroke:#377EB8;stroke-width:8.64"/>
	<line x1="3686.64" y1="1866.33" x2="3726.48" y2="1859.90" style="stroke:#377EB8;stroke-width:8.64"/>
	<line x1="3743.44" y1="1857.30" x2="3783.29" y2="1850.99" style="stroke:#377EB8;stroke-width:8.64"/>
	<line x1="3800.36" y1="1848.26" x2="3801.48" y2="1848.14" style="stroke:#377EB8;stroke-width:8.64"/>
	<path d="" stroke-linejoin="round" style="fill:none;stroke:#377EB8;stroke-width:8.64"/>
	<line x1="465.80" y1="2489.19" x2="465.80" y2="100.86" style="stroke:#000000;stroke-width:5.76"/>
	<line x1="465.80" y1="2489.19" x2="425.82" y2="2489.19" style="stroke:#000000;stroke-width:5.76"/>
	<text x="405.78" y="2524.21" style="font-family:'Helvetica';font-size:99.99px;fill:#000000" text-anchor="end">0.0</text>
	<line x1="465.80" y1="2011.50" x2="425.82" y2="2011.50" style="stroke:#000000;stroke-width:5.76"/>
	<text x="405.78" y="2046.52" style="font-family:'Helvetica';font-size:99.99px;fill:#000000" text-anchor="end">0.1</text>
	<line x1="465.80" y1="1533.81" x2="425.82" y2="1533.81" style="stroke:#000000;stroke-width:5.76"/>
	<text x="405.78" y="1568.83" style="font-family:'Helvetica';font-size:99.99px;fill:#000000" text-anchor="end">0.2</text>
	<line x1="465.80" y1="1056.12" x2="425.82" y2="1056.12" style="stroke:#000000;stroke-width:5.76"/>
	<text x="405.78" y="1091.14" style="font-family:'Helvetica';font-size:99.99px;fill:#000000" text-anchor="end">0.3</text>
	<line x1="465.80" y1="578.43" x2="425.82" y2="578.43" style="stroke:#000000;stroke-width:5.76"/>
	<text x="405.78" y="613.45" style="font-family:'Helvetica';font-size:99.99px;fill:#000000" text-anchor="end">0.4</text>
	<line x1="465.80" y1="100.86" x2="425.82" y2="100.86" style="stroke:#000000;stroke-width:5.76"/>
	<text x="405.78" y="135.89" style="font-family:'Helvetica';font-size:99.99px;fill:#000000" text-anchor="end">0.5</text>
	<text x="190.71" y="1294.96" style="font-family:'Helvetica';font-size:99.99px;fill:#000000" transform="rotate(-90 190.71,1294.96)" text-anchor="middle">Probability of Death</text>
	<line x1="465.80" y1="2489.19" x2="3859.02" y2="2489.19" style="stroke:#000000;stroke-width:5.76"/>
	<line x1="465.80" y1="2489.19" x2="465.80" y2="2529.16" style="stroke:#000000;stroke-width:5.76"/>
	<text x="465.80" y="2619.14" style="font-family:'Helvetica';font-size:99.99px;fill:#000000" text-anchor="middle">0</text>
	<line x1="1132.93" y1="2489.19" x2="1132.93" y2="2529.16" style="stroke:#000000;stroke-width:5.76"/>
	<text x="1132.93" y="2619.14" style="font-family:'Helvetica';font-size:99.99px;fill:#000000" text-anchor="middle">1</text>
	<line x1="1800.07" y1="2489.19" x2="1800.07" y2="2529.16" style="stroke:#000000;stroke-width:5.76"/>
	<text x="1800.07" y="2619.14" style="font-family:'Helvetica';font-size:99.99px;fill:#000000" text-anchor="middle">2</text>
	<line x1="2467.20" y1="2489.19" x2="2467.20" y2="2529.16" style="stroke:#000000;stroke-width:5.76"/>
	<text x="2467.20" y="2619.14" style="font-family:'Helvetica';font-size:99.99px;fill:#000000" text-anchor="middle">3</text>
	<line x1="3134.34" y1="2489.19" x2="3134.34" y2="2529.16" style="stroke:#000000;stroke-width:5.76"/>
	<text x="3134.34" y="2619.14" style="font-family:'Helvetica';font-size:99.99px;fill:#000000" text-anchor="middle">4</text>
	<line x1="3801.48" y1="2489.19" x2="3801.48" y2="2529.16" style="stroke:#000000;stroke-width:5.76"/>
	<text x="3801.48" y="2619.14" style="font-family:'Helvetica';font-size:99.99px;fill:#000000" text-anchor="middle">5</text>
	<text x="2162.41" y="2729.16" style="font-family:'Helvetica';font-size:99.99px;fill:#000000" text-anchor="middle">Years since Diagnosis</text>
	<rect x="500.32" y="135.39" width="1677.18" height="537.22" style="fill:#FFFFFF"/>
	<rect x="503.20" y="138.27" width="1671.42" height="531.46" style="fill:none;stroke:#FFFFFF;stroke-width:5.76"/>
	<line x1="508.98" y1="194.05" x2="708.96" y2="194.05" style="stroke:#E41A1C;stroke-width:8.64"/>
	<line x1="508.98" y1="334.01" x2="549.33" y2="334.01" style="stroke:#E41A1C;stroke-width:8.64"/>
	<line x1="566.53" y1="334.01" x2="606.87" y2="334.01" style="stroke:#E41A1C;stroke-width:8.64"/>
	<line x1="624.20" y1="334.01" x2="664.54" y2="334.01" style="stroke:#E41A1C;stroke-width:8.64"/>
	<line x1="681.74" y1="334.01" x2="708.96" y2="334.01" style="stroke:#E41A1C;stroke-width:8.64"/>
	<line x1="508.98" y1="473.98" x2="708.96" y2="473.98" style="stroke:#377EB8;stroke-width:8.64"/>
	<line x1="508.98" y1="613.94" x2="549.33" y2="613.94" style="stroke:#377EB8;stroke-width:8.64"/>
	<line x1="566.53" y1="613.94" x2="606.87" y2="613.94" style="stroke:#377EB8;stroke-width:8.64"/>
	<line x1="624.20" y1="613.94" x2="664.54" y2="613.94" style="stroke:#377EB8;stroke-width:8.64"/>
	<line x1="681.74" y1="613.94" x2="708.96" y2="613.94" style="stroke:#377EB8;stroke-width:8.64"/>
	<text x="768.98" y="229.07" style="font-family:'Helvetica';font-size:99.99px;fill:#000000">Cancer: Least Deprived</text>
	<text x="768.98" y="369.04" style="font-family:'Helvetica';font-size:99.99px;fill:#000000">Cancer: Most Deprived</text>
	<text x="768.98" y="509.01" style="font-family:'Helvetica';font-size:99.99px;fill:#000000">Other Causes: Least Deprived</text>
	<text x="768.98" y="648.97" style="font-family:'Helvetica';font-size:99.99px;fill:#000000">Other Causes: Most Deprived</text>
</svg>
