<?xml version="1.0" encoding="UTF-8" standalone="no"?>
<!-- This is a Stata 18.5 generated SVG file (http://www.stata.com) -->

<svg version="1.1" width="700px" height="509px" viewBox="0 0 3960 2880" xmlns="http://www.w3.org/2000/svg" xmlns:xlink="http://www.w3.org/1999/xlink">
	<desc>Stata Graph - Graph</desc>
	<rect x="0" y="0" width="3960" height="2880" style="fill:#FFFFFF;stroke:none"/>
	<rect x="0.00" y="0.00" width="3959.88" height="2880.00" style="fill:#FFFFFF"/>
	<rect x="2.88" y="2.88" width="3954.12" height="2874.24" style="fill:none;stroke:#FFFFFF;stroke-width:5.76"/>
	<line x1="524.08" y1="2005.93" x2="3859.02" y2="2005.93" style="stroke:#C0C0C0;stroke-opacity:0.50;stroke-width:5.76"/>
	<line x1="524.08" y1="1688.37" x2="3859.02" y2="1688.37" style="stroke:#C0C0C0;stroke-opacity:0.50;stroke-width:5.76"/>
	<line x1="524.08" y1="1370.82" x2="3859.02" y2="1370.82" style="stroke:#C0C0C0;stroke-opacity:0.50;stroke-width:5.76"/>
	<line x1="524.08" y1="1053.39" x2="3859.02" y2="1053.39" style="stroke:#C0C0C0;stroke-opacity:0.50;stroke-width:5.76"/>
	<line x1="524.08" y1="735.84" x2="3859.02" y2="735.84" style="stroke:#C0C0C0;stroke-opacity:0.50;stroke-width:5.76"/>
	<line x1="524.08" y1="418.29" x2="3859.02" y2="418.29" style="stroke:#C0C0C0;stroke-opacity:0.50;stroke-width:5.76"/>
	<line x1="524.08" y1="100.86" x2="3859.02" y2="100.86" style="stroke:#C0C0C0;stroke-opacity:0.50;stroke-width:5.76"/>
	<line x1="524.08" y1="2489.19" x2="524.08" y2="100.86" style="stroke:#C0C0C0;stroke-opacity:0.50;stroke-width:5.76"/>
	<line x1="1179.59" y1="2489.19" x2="1179.59" y2="100.86" style="stroke:#C0C0C0;stroke-opacity:0.50;stroke-width:5.76"/>
	<line x1="1835.09" y1="2489.19" x2="1835.09" y2="100.86" style="stroke:#C0C0C0;stroke-opacity:0.50;stroke-width:5.76"/>
	<line x1="2490.59" y1="2489.19" x2="2490.59" y2="100.86" style="stroke:#C0C0C0;stroke-opacity:0.50;stroke-width:5.76"/>
	<line x1="3145.97" y1="2489.19" x2="3145.97" y2="100.86" style="stroke:#C0C0C0;stroke-opacity:0.50;stroke-width:5.76"/>
	<line x1="3801.48" y1="2489.19" x2="3801.48" y2="100.86" style="stroke:#C0C0C0;stroke-opacity:0.50;stroke-width:5.76"/>
	<defs>
		<path id="path_lHNhwsVw" d="M556.88 2489.19 L556.88 2489.19 L589.67 2488.81 L622.46 2488.20 L655.26 2486.96 L687.93 2485.35 L720.72 2483.25 L753.51 2480.65 L786.31 2477.68 L819.10 2474.21 L851.90 2470.37 L884.57 2466.29 L917.36 2461.84 L950.15 2457.01 L982.95 2452.06 L1015.74 2446.74 L1048.53 2441.29 L1081.20 2435.72 L1114.00 2429.91 L1146.79 2424.09 L1179.59 2418.15 L1212.38 2412.09 L1245.17 2406.02 L1277.97 2399.83 L1310.64 2393.77 L1343.43 2387.58 L1376.22 2381.40 L1409.02 2375.33 L1441.81 2369.27 L1474.61 2363.33 L1507.28 2357.39 L1540.07 2351.69 L1572.86 2345.88 L1605.66 2340.31 L1638.45 2334.74 L1671.24 2329.42 L1703.91 2324.10 L1736.71 2319.02 L1769.50 2313.95 L1802.30 2309.12 L1835.09 2304.30 L1867.88 2299.72 L1900.55 2295.14 L1933.35 2290.68 L1966.14 2286.48 L1998.93 2282.27 L2031.73 2278.18 L2064.52 2274.22 L2097.19 2270.39 L2129.99 2266.55 L2162.78 2262.84 L2195.57 2259.25 L2228.37 2255.79 L2261.16 2252.32 L2293.83 2248.98 L2326.62 2245.64 L2359.42 2242.42 L2392.21 2239.33 L2425.01 2236.23 L2457.80 2233.14 L2490.59 2230.17 L2523.26 2227.32 L2556.06 2224.48 L2588.85 2221.63 L2621.64 2218.91 L2654.44 2216.31 L2687.23 2213.59 L2719.90 2210.99 L2752.70 2208.51 L2785.49 2206.04 L2818.28 2203.56 L2851.08 2201.21 L2883.87 2198.86 L2916.54 2196.63 L2949.33 2194.28 L2982.13 2192.18 L3014.92 2189.95 L3047.72 2187.84 L3080.51 2185.74 L3113.18 2183.64 L3145.97 2181.66 L3178.77 2179.68 L3211.56 2177.82 L3244.35 2175.84 L3277.15 2173.98 L3309.82 2172.13 L3342.61 2170.40 L3375.41 2168.54 L3408.20 2166.81 L3440.99 2165.07 L3473.79 2163.47 L3506.46 2161.73 L3539.25 2160.12 L3572.04 2158.51 L3604.84 2157.03 L3637.63 2155.42 L3670.43 2153.94 L3703.22 2152.45 L3735.89 2150.97 L3768.68 2149.60 L3801.48 2148.12 L3801.48 2017.06 L3768.68 2017.31 L3735.89 2017.56 L3703.22 2017.81 L3670.43 2018.05 L3637.63 2018.43 L3604.84 2018.67 L3572.04 2018.92 L3539.25 2019.29 L3506.46 2019.54 L3473.79 2019.91 L3440.99 2020.16 L3408.20 2020.53 L3375.41 2020.90 L3342.61 2021.15 L3309.82 2021.52 L3277.15 2021.89 L3244.35 2022.26 L3211.56 2022.63 L3178.77 2023.00 L3145.97 2023.38 L3113.18 2023.75 L3080.51 2024.12 L3047.72 2024.49 L3014.92 2024.98 L2982.13 2025.36 L2949.33 2025.85 L2916.54 2026.22 L2883.87 2026.72 L2851.08 2027.09 L2818.28 2027.58 L2785.49 2028.08 L2752.70 2028.57 L2719.90 2029.07 L2687.23 2029.56 L2654.44 2030.06 L2621.64 2030.55 L2588.85 2031.17 L2556.06 2031.67 L2523.26 2032.29 L2490.59 2032.78 L2457.80 2033.40 L2425.01 2034.02 L2392.21 2034.64 L2359.42 2035.26 L2326.62 2035.87 L2293.83 2036.62 L2261.16 2037.24 L2228.37 2037.98 L2195.57 2038.60 L2162.78 2039.34 L2129.99 2040.08 L2097.19 2040.83 L2064.52 2041.69 L2031.73 2042.43 L1998.93 2043.30 L1966.14 2044.17 L1933.35 2045.03 L1900.55 2045.90 L1867.88 2046.77 L1835.09 2047.76 L1802.30 2048.75 L1769.50 2049.74 L1736.71 2050.73 L1703.91 2051.84 L1671.24 2052.83 L1638.45 2053.94 L1605.66 2055.06 L1572.86 2056.29 L1540.07 2057.41 L1507.28 2058.65 L1474.61 2059.88 L1441.81 2061.12 L1409.02 2062.36 L1376.22 2063.60 L1343.43 2064.96 L1310.64 2066.19 L1277.97 2067.56 L1245.17 2068.79 L1212.38 2070.03 L1179.59 2071.39 L1146.79 2072.63 L1114.00 2073.87 L1081.20 2075.10 L1048.53 2076.22 L1015.74 2077.46 L982.95 2078.57 L950.15 2079.56 L917.36 2080.55 L884.57 2081.54 L851.90 2082.41 L819.10 2083.27 L786.31 2084.02 L753.51 2084.63 L720.72 2085.13 L687.93 2085.62 L655.26 2086.00 L622.46 2086.24 L589.67 2086.37 L556.88 2086.49 L556.88 2489.19 Z" stroke-linejoin="round"/>
	</defs>
	<defs>
		<clipPath id="clipPath_rnhpkgkx">
			<use xlink:href="#path_lHNhwsVw"/>
		</clipPath>
	</defs>
	<use xlink:href="#path_lHNhwsVw" style="stroke:none;fill:#FF3333;fill-opacity:0.30"/>
	<use xlink:href="#path_lHNhwsVw" style="fill:none;stroke:#FF0000;stroke-opacity:0.30;stroke-width:17.28" clip-path="url(#clipPath_rnhpkgkx)"/>
	<path d=" M556.88 2287.96 L589.54 2287.71 L622.34 2287.22 L655.13 2286.60 L687.93 2285.49 L720.72 2284.25 L753.51 2282.76 L786.18 2280.91 L818.98 2278.80 L851.77 2276.45 L884.57 2273.98 L917.36 2271.25 L950.15 2268.41 L982.82 2265.31 L1015.62 2262.10 L1048.41 2258.88 L1081.20 2255.41 L1114.00 2251.95 L1146.79 2248.36 L1179.46 2244.77 L1212.26 2241.18 L1245.05 2237.47 L1277.84 2233.76 L1310.64 2230.04 L1343.43 2226.33 L1376.22 2222.62 L1408.89 2218.91 L1441.69 2215.32 L1474.48 2211.73 L1507.28 2208.14 L1540.07 2204.55 L1572.86 2201.21 L1605.53 2197.74 L1638.33 2194.40 L1671.12 2191.19 L1703.91 2187.97 L1736.71 2184.87 L1769.50 2181.90 L1802.17 2178.93 L1834.97 2176.09 L1867.76 2173.24 L1900.55 2170.52 L1933.35 2167.92 L1966.14 2165.32 L1998.81 2162.85 L2031.60 2160.37 L2064.40 2158.02 L2097.19 2155.67 L2129.99 2153.44 L2162.78 2151.21 L2195.45 2148.99 L2228.24 2146.88 L2261.04 2144.78 L2293.83 2142.80 L2326.62 2140.82 L2359.42 2138.96 L2392.09 2136.98 L2424.88 2135.13 L2457.68 2133.39 L2490.47 2131.54 L2523.26 2129.80 L2556.06 2128.20 L2588.85 2126.46 L2621.52 2124.85 L2654.31 2123.25 L2687.11 2121.64 L2719.90 2120.15 L2752.70 2118.54 L2785.49 2117.18 L2818.16 2115.70 L2850.95 2114.21 L2883.75 2112.85 L2916.54 2111.49 L2949.33 2110.13 L2982.13 2108.77 L3014.80 2107.53 L3047.59 2106.29 L3080.39 2105.05 L3113.18 2103.82 L3145.97 2102.58 L3178.77 2101.46 L3211.44 2100.23 L3244.23 2099.11 L3277.02 2098.00 L3309.82 2096.89 L3342.61 2095.90 L3375.41 2094.78 L3408.08 2093.79 L3440.87 2092.68 L3473.66 2091.69 L3506.46 2090.70 L3539.25 2089.83 L3572.04 2088.84 L3604.84 2087.85 L3637.51 2086.99 L3670.30 2086.12 L3703.10 2085.25 L3735.89 2084.39 L3768.68 2083.52 L3801.48 2082.65" stroke-linejoin="round" style="fill:none;stroke:#FF0000;stroke-width:8.64"/>
	<line x1="524.08" y1="2489.19" x2="524.08" y2="100.86" style="stroke:#000000;stroke-width:5.76"/>
	<line x1="524.08" y1="2005.93" x2="484.11" y2="2005.93" style="stroke:#000000;stroke-width:5.76"/>
	<text x="464.06" y="2040.95" style="font-family:'Helvetica';font-size:99.99px;fill:#000000" text-anchor="end">0.00</text>
	<line x1="524.08" y1="1688.37" x2="484.11" y2="1688.37" style="stroke:#000000;stroke-width:5.76"/>
	<text x="464.06" y="1723.40" style="font-family:'Helvetica';font-size:99.99px;fill:#000000" text-anchor="end">0.05</text>
	<line x1="524.08" y1="1370.82" x2="484.11" y2="1370.82" style="stroke:#000000;stroke-width:5.76"/>
	<text x="464.06" y="1405.85" style="font-family:'Helvetica';font-size:99.99px;fill:#000000" text-anchor="end">0.10</text>
	<line x1="524.08" y1="1053.39" x2="484.11" y2="1053.39" style="stroke:#000000;stroke-width:5.76"/>
	<text x="464.06" y="1088.42" style="font-family:'Helvetica';font-size:99.99px;fill:#000000" text-anchor="end">0.15</text>
	<line x1="524.08" y1="735.84" x2="484.11" y2="735.84" style="stroke:#000000;stroke-width:5.76"/>
	<text x="464.06" y="770.87" style="font-family:'Helvetica';font-size:99.99px;fill:#000000" text-anchor="end">0.20</text>
	<line x1="524.08" y1="418.29" x2="484.11" y2="418.29" style="stroke:#000000;stroke-width:5.76"/>
	<text x="464.06" y="453.32" style="font-family:'Helvetica';font-size:99.99px;fill:#000000" text-anchor="end">0.25</text>
	<line x1="524.08" y1="100.86" x2="484.11" y2="100.86" style="stroke:#000000;stroke-width:5.76"/>
	<text x="464.06" y="135.89" style="font-family:'Helvetica';font-size:99.99px;fill:#000000" text-anchor="end">0.30</text>
	<text x="190.71" y="1294.96" style="font-family:'Helvetica';font-size:99.99px;fill:#000000" transform="rotate(-90 190.71,1294.96)" text-anchor="middle">AHF</text>
	<line x1="524.08" y1="2489.19" x2="3859.02" y2="2489.19" style="stroke:#000000;stroke-width:5.76"/>
	<line x1="524.08" y1="2489.19" x2="524.08" y2="2529.16" style="stroke:#000000;stroke-width:5.76"/>
	<text x="524.08" y="2619.14" style="font-family:'Helvetica';font-size:99.99px;fill:#000000" text-anchor="middle">0</text>
	<line x1="1179.59" y1="2489.19" x2="1179.59" y2="2529.16" style="stroke:#000000;stroke-width:5.76"/>
	<text x="1179.59" y="2619.14" style="font-family:'Helvetica';font-size:99.99px;fill:#000000" text-anchor="middle">2</text>
	<line x1="1835.09" y1="2489.19" x2="1835.09" y2="2529.16" style="stroke:#000000;stroke-width:5.76"/>
	<text x="1835.09" y="2619.14" style="font-family:'Helvetica';font-size:99.99px;fill:#000000" text-anchor="middle">4</text>
	<line x1="2490.59" y1="2489.19" x2="2490.59" y2="2529.16" style="stroke:#000000;stroke-width:5.76"/>
	<text x="2490.59" y="2619.14" style="font-family:'Helvetica';font-size:99.99px;fill:#000000" text-anchor="middle">6</text>
	<line x1="3145.97" y1="2489.19" x2="3145.97" y2="2529.16" style="stroke:#000000;stroke-width:5.76"/>
	<text x="3145.97" y="2619.14" style="font-family:'Helvetica';font-size:99.99px;fill:#000000" text-anchor="middle">8</text>
	<line x1="3801.48" y1="2489.19" x2="3801.48" y2="2529.16" style="stroke:#000000;stroke-width:5.76"/>
	<text x="3801.48" y="2619.14" style="font-family:'Helvetica';font-size:99.99px;fill:#000000" text-anchor="middle">10</text>
	<text x="2191.61" y="2729.16" style="font-family:'Helvetica';font-size:99.99px;fill:#000000" text-anchor="middle">Years from surgery</text>
</svg>
