<?xml version="1.0" encoding="UTF-8" standalone="no"?>
<!-- This is a Stata 18.0 generated SVG file (http://www.stata.com) -->

<svg version="1.1" width="700px" height="509px" viewBox="0 0 3960 2880" xmlns="http://www.w3.org/2000/svg" xmlns:xlink="http://www.w3.org/1999/xlink">
	<desc>Stata Graph - RS</desc>
	<rect x="0" y="0" width="3960" height="2880" style="fill:#FFFFFF;stroke:none"/>
	<rect x="0.00" y="0.00" width="3959.88" height="2880.00" style="fill:#FFFFFF"/>
	<rect x="2.88" y="2.88" width="3954.12" height="2874.24" style="fill:none;stroke:#FFFFFF;stroke-width:5.76"/>
	<line x1="465.80" y1="2489.19" x2="3859.02" y2="2489.19" style="stroke:#C0C0C0;stroke-opacity:0.50;stroke-width:5.76"/>
	<line x1="465.80" y1="2011.50" x2="3859.02" y2="2011.50" style="stroke:#C0C0C0;stroke-opacity:0.50;stroke-width:5.76"/>
	<line x1="465.80" y1="1533.81" x2="3859.02" y2="1533.81" style="stroke:#C0C0C0;stroke-opacity:0.50;stroke-width:5.76"/>
	<line x1="465.80" y1="1056.12" x2="3859.02" y2="1056.12" style="stroke:#C0C0C0;stroke-opacity:0.50;stroke-width:5.76"/>
	<line x1="465.80" y1="578.43" x2="3859.02" y2="578.43" style="stroke:#C0C0C0;stroke-opacity:0.50;stroke-width:5.76"/>
	<line x1="465.80" y1="100.86" x2="3859.02" y2="100.86" style="stroke:#C0C0C0;stroke-opacity:0.50;stroke-width:5.76"/>
	<line x1="465.80" y1="2489.19" x2="465.80" y2="100.86" style="stroke:#C0C0C0;stroke-opacity:0.50;stroke-width:5.76"/>
	<line x1="1132.93" y1="2489.19" x2="1132.93" y2="100.86" style="stroke:#C0C0C0;stroke-opacity:0.50;stroke-width:5.76"/>
	<line x1="1800.07" y1="2489.19" x2="1800.07" y2="100.86" style="stroke:#C0C0C0;stroke-opacity:0.50;stroke-width:5.76"/>
	<line x1="2467.20" y1="2489.19" x2="2467.20" y2="100.86" style="stroke:#C0C0C0;stroke-opacity:0.50;stroke-width:5.76"/>
	<line x1="3134.34" y1="2489.19" x2="3134.34" y2="100.86" style="stroke:#C0C0C0;stroke-opacity:0.50;stroke-width:5.76"/>
	<line x1="3801.48" y1="2489.19" x2="3801.48" y2="100.86" style="stroke:#C0C0C0;stroke-opacity:0.50;stroke-width:5.76"/>
	<defs>
		<path id="path_CthwmJWK" d="M465.80 100.86 L465.80 100.86 L499.08 174.25 L532.50 269.29 L565.91 358.14 L599.20 436.97 L632.61 507.27 L665.90 571.25 L699.31 629.78 L732.60 683.37 L766.01 732.25 L799.30 777.17 L832.71 818.76 L866.00 857.61 L899.42 893.63 L932.83 927.29 L966.12 958.60 L999.53 987.80 L1032.82 1015.15 L1066.23 1040.89 L1099.52 1065.15 L1132.93 1088.17 L1166.22 1110.20 L1199.63 1131.23 L1233.05 1151.41 L1266.33 1170.71 L1299.75 1189.52 L1333.04 1207.59 L1366.45 1225.16 L1399.74 1242.24 L1433.15 1258.82 L1466.44 1275.04 L1499.85 1290.75 L1533.26 1306.10 L1566.55 1321.20 L1599.96 1335.92 L1633.25 1350.53 L1666.67 1364.76 L1699.95 1378.74 L1733.37 1392.60 L1766.66 1406.22 L1800.07 1419.58 L1833.36 1432.95 L1866.77 1446.06 L1900.18 1459.06 L1933.47 1471.80 L1966.88 1484.55 L2000.17 1497.05 L2033.58 1509.43 L2066.87 1521.68 L2100.29 1533.81 L2133.57 1545.93 L2166.99 1557.81 L2200.40 1569.57 L2233.69 1581.20 L2267.10 1592.71 L2300.39 1604.22 L2333.80 1615.48 L2367.09 1626.62 L2400.50 1637.76 L2433.79 1648.77 L2467.20 1659.54 L2500.62 1670.31 L2533.91 1680.95 L2567.32 1691.59 L2600.61 1701.99 L2634.02 1712.38 L2667.31 1722.53 L2700.72 1732.80 L2734.01 1742.83 L2767.42 1752.73 L2800.71 1762.63 L2834.12 1772.40 L2867.54 1782.18 L2900.82 1791.71 L2934.24 1801.24 L2967.53 1810.77 L3000.94 1820.05 L3034.23 1829.33 L3067.64 1838.61 L3100.93 1847.77 L3134.34 1856.80 L3167.75 1865.71 L3201.04 1874.62 L3234.45 1883.41 L3267.74 1892.20 L3301.16 1900.86 L3334.44 1909.52 L3367.86 1918.06 L3401.15 1926.60 L3434.56 1935.02 L3467.97 1943.31 L3501.26 1951.60 L3534.67 1959.77 L3567.96 1967.93 L3601.37 1976.10 L3634.66 1984.15 L3668.07 1992.07 L3701.36 1999.99 L3734.78 2007.91 L3768.06 2015.70 L3801.48 2023.38 L3801.48 1805.57 L3768.06 1800.00 L3734.78 1794.31 L3701.36 1788.61 L3668.07 1782.92 L3634.66 1777.11 L3601.37 1771.29 L3567.96 1765.47 L3534.67 1759.53 L3501.26 1753.47 L3467.97 1747.53 L3434.56 1741.34 L3401.15 1735.28 L3367.86 1729.09 L3334.44 1722.78 L3301.16 1716.47 L3267.74 1710.15 L3234.45 1703.72 L3201.04 1697.16 L3167.75 1690.73 L3134.34 1684.04 L3100.93 1677.36 L3067.64 1670.68 L3034.23 1663.87 L3000.94 1656.94 L2967.53 1650.01 L2934.24 1642.96 L2900.82 1635.90 L2867.54 1628.72 L2834.12 1621.42 L2800.71 1614.12 L2767.42 1606.70 L2734.01 1599.27 L2700.72 1591.60 L2667.31 1583.93 L2634.02 1576.25 L2600.61 1568.33 L2567.32 1560.41 L2533.91 1552.24 L2500.62 1544.08 L2467.20 1535.91 L2433.79 1527.49 L2400.50 1518.95 L2367.09 1510.29 L2333.80 1501.63 L2300.39 1492.72 L2267.10 1483.69 L2233.69 1474.53 L2200.40 1465.25 L2166.99 1455.72 L2133.57 1446.19 L2100.29 1436.29 L2066.87 1426.39 L2033.58 1416.24 L2000.17 1405.84 L1966.88 1395.32 L1933.47 1384.56 L1900.18 1373.54 L1866.77 1362.41 L1833.36 1350.90 L1800.07 1339.14 L1766.66 1327.14 L1733.37 1314.76 L1699.95 1302.26 L1666.67 1289.27 L1633.25 1276.03 L1599.96 1262.54 L1566.55 1248.68 L1533.26 1234.44 L1499.85 1219.84 L1466.44 1204.87 L1433.15 1189.52 L1399.74 1173.81 L1366.45 1157.72 L1333.04 1141.13 L1299.75 1124.18 L1266.33 1106.48 L1233.05 1088.29 L1199.63 1069.36 L1166.22 1049.43 L1132.93 1028.52 L1099.52 1006.49 L1066.23 983.10 L1032.82 958.23 L999.53 931.62 L966.12 903.40 L932.83 873.33 L899.42 841.28 L866.00 806.88 L832.71 769.75 L799.30 729.53 L766.01 685.97 L732.60 638.69 L699.31 587.46 L665.90 531.89 L632.61 471.13 L599.20 404.06 L565.91 329.06 L532.50 246.39 L499.08 159.77 L465.80 100.86 L465.80 100.86 Z" stroke-linejoin="round"/>
	</defs>
	<defs>
		<clipPath id="clipPath_JZMeSkQR">
			<use xlink:href="#path_CthwmJWK"/>
		</clipPath>
	</defs>
	<use xlink:href="#path_CthwmJWK" style="stroke:none;fill:#E94849;fill-opacity:0.30"/>
	<use xlink:href="#path_CthwmJWK" style="fill:none;stroke:#E41A1C;stroke-opacity:0.30;stroke-width:17.28" clip-path="url(#clipPath_JZMeSkQR)"/>
	<path d=" M465.67 100.86 L499.08 167.07 L532.37 257.90 L565.79 343.66 L599.20 420.52 L632.49 489.32 L665.90 551.69 L699.19 608.75 L732.60 661.09 L765.89 709.23 L799.30 753.54 L832.59 794.38 L866.00 832.37 L899.42 867.64 L932.70 900.43 L966.12 931.12 L999.41 959.83 L1032.82 986.81 L1066.11 1012.18 L1099.52 1036.07 L1132.81 1058.59 L1166.22 1080.00 L1199.63 1100.42 L1232.92 1119.97 L1266.33 1138.91 L1299.62 1156.97 L1333.04 1174.67 L1366.32 1191.63 L1399.74 1208.33 L1433.03 1224.42 L1466.44 1240.14 L1499.73 1255.48 L1533.14 1270.46 L1566.55 1285.18 L1599.84 1299.54 L1633.25 1313.52 L1666.54 1327.26 L1699.95 1340.75 L1733.24 1353.99 L1766.66 1366.99 L1799.94 1379.73 L1833.36 1392.23 L1866.77 1404.48 L1900.06 1416.61 L1933.47 1428.49 L1966.76 1440.25 L2000.17 1451.88 L2033.46 1463.27 L2066.87 1474.40 L2100.16 1485.54 L2133.57 1496.43 L2166.99 1507.20 L2200.28 1517.84 L2233.69 1528.36 L2266.98 1538.76 L2300.39 1548.90 L2333.68 1559.05 L2367.09 1569.08 L2400.38 1578.98 L2433.79 1588.75 L2467.08 1598.40 L2500.49 1607.93 L2533.91 1617.34 L2567.19 1626.62 L2600.61 1635.90 L2633.90 1645.06 L2667.31 1654.09 L2700.60 1663.00 L2734.01 1671.91 L2767.30 1680.70 L2800.71 1689.36 L2834.12 1697.90 L2867.41 1706.44 L2900.82 1714.86 L2934.11 1723.15 L2967.53 1731.44 L3000.81 1739.61 L3034.23 1747.78 L3067.52 1755.82 L3100.93 1763.74 L3134.34 1771.66 L3167.63 1779.46 L3201.04 1787.25 L3234.33 1794.93 L3267.74 1802.60 L3301.03 1810.15 L3334.44 1817.70 L3367.73 1825.12 L3401.15 1832.42 L3434.43 1839.72 L3467.85 1847.03 L3501.26 1854.20 L3534.55 1861.38 L3567.96 1868.44 L3601.25 1875.49 L3634.66 1882.42 L3667.95 1889.35 L3701.36 1896.28 L3734.65 1903.09 L3768.06 1909.89 L3801.48 1916.58" stroke-linejoin="round" style="fill:none;stroke:#E41A1C;stroke-width:8.64"/>
	<defs>
		<path id="path_XQgFblKm" d="M465.80 100.86 L465.80 100.86 L499.08 190.33 L532.50 306.17 L565.91 410.99 L599.20 500.71 L632.61 579.42 L665.90 650.45 L699.31 715.42 L732.60 775.19 L766.01 830.64 L799.30 882.12 L832.71 930.26 L866.00 975.18 L899.42 1016.76 L932.83 1055.37 L966.12 1091.01 L999.53 1124.30 L1032.82 1155.49 L1066.23 1184.94 L1099.52 1212.91 L1132.93 1239.52 L1166.22 1265.14 L1199.63 1289.64 L1233.05 1313.28 L1266.33 1336.17 L1299.75 1358.20 L1333.04 1379.61 L1366.45 1400.28 L1399.74 1420.45 L1433.15 1440.00 L1466.44 1459.06 L1499.85 1477.74 L1533.26 1495.94 L1566.55 1513.76 L1599.96 1531.33 L1633.25 1548.53 L1666.67 1565.49 L1699.95 1582.19 L1733.37 1598.65 L1766.66 1614.86 L1800.07 1630.83 L1833.36 1646.67 L1866.77 1662.26 L1900.18 1677.61 L1933.47 1692.95 L1966.88 1708.05 L2000.17 1722.90 L2033.58 1737.63 L2066.87 1752.23 L2100.29 1766.71 L2133.57 1781.07 L2166.99 1795.17 L2200.40 1809.16 L2233.69 1822.89 L2267.10 1836.63 L2300.39 1850.12 L2333.80 1863.49 L2367.09 1876.73 L2400.50 1889.85 L2433.79 1902.84 L2467.20 1915.71 L2500.62 1928.33 L2533.91 1940.96 L2567.32 1953.33 L2600.61 1965.71 L2634.02 1977.83 L2667.31 1989.96 L2700.72 2001.84 L2734.01 2013.60 L2767.42 2025.36 L2800.71 2036.99 L2834.12 2048.37 L2867.54 2059.76 L2900.82 2071.02 L2934.24 2082.16 L2967.53 2093.17 L3000.94 2104.19 L3034.23 2114.95 L3067.64 2125.72 L3100.93 2136.36 L3134.34 2146.88 L3167.75 2157.28 L3201.04 2167.67 L3234.45 2177.94 L3267.74 2188.09 L3301.16 2198.12 L3334.44 2208.14 L3367.86 2218.04 L3401.15 2227.82 L3434.56 2237.59 L3467.97 2247.25 L3501.26 2256.78 L3534.67 2266.30 L3567.96 2275.71 L3601.37 2284.99 L3634.66 2294.27 L3668.07 2303.43 L3701.36 2312.46 L3734.78 2321.50 L3768.06 2330.53 L3801.48 2339.32 L3801.48 2053.32 L3768.06 2047.14 L3734.78 2040.83 L3701.36 2034.39 L3668.07 2028.08 L3634.66 2021.52 L3601.37 2015.08 L3567.96 2008.53 L3534.67 2001.84 L3501.26 1995.16 L3467.97 1988.35 L3434.56 1981.55 L3401.15 1974.74 L3367.86 1967.69 L3334.44 1960.76 L3301.16 1953.58 L3267.74 1946.52 L3234.45 1939.22 L3201.04 1931.92 L3167.75 1924.62 L3134.34 1917.07 L3100.93 1909.52 L3067.64 1901.97 L3034.23 1894.30 L3000.94 1886.50 L2967.53 1878.58 L2934.24 1870.66 L2900.82 1862.62 L2867.54 1854.45 L2834.12 1846.28 L2800.71 1837.87 L2767.42 1829.45 L2734.01 1820.91 L2700.72 1812.25 L2667.31 1803.47 L2634.02 1794.68 L2600.61 1785.64 L2567.32 1776.61 L2533.91 1767.33 L2500.62 1757.92 L2467.20 1748.39 L2433.79 1738.87 L2400.50 1729.09 L2367.09 1719.06 L2333.80 1709.04 L2300.39 1698.77 L2267.10 1688.37 L2233.69 1677.73 L2200.40 1666.96 L2166.99 1656.07 L2133.57 1644.81 L2100.29 1633.55 L2066.87 1621.92 L2033.58 1610.16 L2000.17 1598.03 L1966.88 1585.78 L1933.47 1573.16 L1900.18 1560.29 L1866.77 1547.17 L1833.36 1533.68 L1800.07 1519.82 L1766.66 1505.71 L1733.37 1491.23 L1699.95 1476.38 L1666.67 1461.16 L1633.25 1445.45 L1599.96 1429.48 L1566.55 1413.02 L1533.26 1396.19 L1499.85 1378.87 L1466.44 1361.17 L1433.15 1342.98 L1399.74 1324.41 L1366.45 1305.23 L1333.04 1285.68 L1299.75 1265.51 L1266.33 1244.84 L1233.05 1223.55 L1199.63 1201.40 L1166.22 1178.51 L1132.93 1154.50 L1099.52 1129.25 L1066.23 1102.65 L1032.82 1074.31 L999.53 1044.24 L966.12 1012.06 L932.83 977.78 L899.42 941.02 L866.00 901.55 L832.71 859.22 L799.30 813.43 L766.01 763.93 L732.60 710.59 L699.31 653.42 L665.90 592.41 L632.61 525.95 L599.20 451.95 L565.91 367.55 L532.50 271.76 L499.08 168.80 L465.80 100.86 L465.80 100.86 Z" stroke-linejoin="round"/>
	</defs>
	<defs>
		<clipPath id="clipPath_rEVRRmQT">
			<use xlink:href="#path_XQgFblKm"/>
		</clipPath>
	</defs>
	<use xlink:href="#path_XQgFblKm" style="stroke:none;fill:#5F98C6;fill-opacity:0.30"/>
	<use xlink:href="#path_XQgFblKm" style="fill:none;stroke:#377EB8;stroke-opacity:0.30;stroke-width:17.28" clip-path="url(#clipPath_rEVRRmQT)"/>
	<path d=" M465.67 100.86 L499.08 179.69 L532.37 289.09 L565.79 389.45 L599.20 476.45 L632.49 552.81 L665.90 621.62 L699.19 684.61 L732.60 743.14 L765.89 797.47 L799.30 847.96 L832.59 894.99 L866.00 938.55 L899.42 979.14 L932.70 1016.76 L966.12 1051.78 L999.41 1084.58 L1032.82 1115.15 L1066.11 1144.10 L1099.52 1171.33 L1132.81 1197.32 L1166.22 1222.07 L1199.63 1245.83 L1232.92 1268.72 L1266.33 1290.88 L1299.62 1312.16 L1333.04 1332.95 L1366.32 1353.12 L1399.74 1372.80 L1433.03 1391.86 L1466.44 1410.55 L1499.73 1428.74 L1533.14 1446.44 L1566.55 1463.88 L1599.84 1480.84 L1633.25 1497.42 L1666.54 1513.76 L1699.95 1529.72 L1733.24 1545.44 L1766.66 1560.78 L1799.94 1575.88 L1833.36 1590.73 L1866.77 1605.21 L1900.06 1619.57 L1933.47 1633.67 L1966.76 1647.54 L2000.17 1661.15 L2033.46 1674.64 L2066.87 1687.88 L2100.16 1700.87 L2133.57 1713.74 L2166.99 1726.37 L2200.28 1738.87 L2233.69 1751.24 L2266.98 1763.37 L2300.39 1775.50 L2333.68 1787.25 L2367.09 1799.01 L2400.38 1810.52 L2433.79 1822.03 L2467.08 1833.29 L2500.49 1844.43 L2533.91 1855.44 L2567.19 1866.33 L2600.61 1877.10 L2633.90 1887.74 L2667.31 1898.26 L2700.60 1908.66 L2734.01 1918.93 L2767.30 1929.08 L2800.71 1939.22 L2834.12 1949.12 L2867.41 1959.02 L2900.82 1968.80 L2934.11 1978.45 L2967.53 1987.98 L3000.81 1997.39 L3034.23 2006.79 L3067.52 2016.07 L3100.93 2025.23 L3134.34 2034.39 L3167.63 2043.42 L3201.04 2052.33 L3234.33 2061.12 L3267.74 2069.91 L3301.03 2078.57 L3334.44 2087.23 L3367.73 2095.77 L3401.15 2104.19 L3434.43 2112.60 L3467.85 2120.89 L3501.26 2129.19 L3534.55 2137.35 L3567.96 2145.40 L3601.25 2153.44 L3634.66 2161.36 L3667.95 2169.28 L3701.36 2177.08 L3734.65 2184.87 L3768.06 2192.55 L3801.48 2200.22" stroke-linejoin="round" style="fill:none;stroke:#377EB8;stroke-width:8.64"/>
	<line x1="465.80" y1="2489.19" x2="465.80" y2="100.86" style="stroke:#000000;stroke-width:5.76"/>
	<line x1="465.80" y1="2489.19" x2="425.82" y2="2489.19" style="stroke:#000000;stroke-width:5.76"/>
	<text x="405.78" y="2524.21" style="font-family:'Helvetica';font-size:99.99px;fill:#000000" text-anchor="end">0.5</text>
	<line x1="465.80" y1="2011.50" x2="425.82" y2="2011.50" style="stroke:#000000;stroke-width:5.76"/>
	<text x="405.78" y="2046.52" style="font-family:'Helvetica';font-size:99.99px;fill:#000000" text-anchor="end">0.6</text>
	<line x1="465.80" y1="1533.81" x2="425.82" y2="1533.81" style="stroke:#000000;stroke-width:5.76"/>
	<text x="405.78" y="1568.83" style="font-family:'Helvetica';font-size:99.99px;fill:#000000" text-anchor="end">0.7</text>
	<line x1="465.80" y1="1056.12" x2="425.82" y2="1056.12" style="stroke:#000000;stroke-width:5.76"/>
	<text x="405.78" y="1091.14" style="font-family:'Helvetica';font-size:99.99px;fill:#000000" text-anchor="end">0.8</text>
	<line x1="465.80" y1="578.43" x2="425.82" y2="578.43" style="stroke:#000000;stroke-width:5.76"/>
	<text x="405.78" y="613.45" style="font-family:'Helvetica';font-size:99.99px;fill:#000000" text-anchor="end">0.9</text>
	<line x1="465.80" y1="100.86" x2="425.82" y2="100.86" style="stroke:#000000;stroke-width:5.76"/>
	<text x="405.78" y="135.89" style="font-family:'Helvetica';font-size:99.99px;fill:#000000" text-anchor="end">1.0</text>
	<text x="190.71" y="1294.96" style="font-family:'Helvetica';font-size:99.99px;fill:#000000" transform="rotate(-90 190.71,1294.96)" text-anchor="middle">Marginal Relative Survival</text>
	<line x1="465.80" y1="2489.19" x2="3859.02" y2="2489.19" style="stroke:#000000;stroke-width:5.76"/>
	<line x1="465.80" y1="2489.19" x2="465.80" y2="2529.16" style="stroke:#000000;stroke-width:5.76"/>
	<text x="465.80" y="2619.14" style="font-family:'Helvetica';font-size:99.99px;fill:#000000" text-anchor="middle">0</text>
	<line x1="1132.93" y1="2489.19" x2="1132.93" y2="2529.16" style="stroke:#000000;stroke-width:5.76"/>
	<text x="1132.93" y="2619.14" style="font-family:'Helvetica';font-size:99.99px;fill:#000000" text-anchor="middle">2</text>
	<line x1="1800.07" y1="2489.19" x2="1800.07" y2="2529.16" style="stroke:#000000;stroke-width:5.76"/>
	<text x="1800.07" y="2619.14" style="font-family:'Helvetica';font-size:99.99px;fill:#000000" text-anchor="middle">4</text>
	<line x1="2467.20" y1="2489.19" x2="2467.20" y2="2529.16" style="stroke:#000000;stroke-width:5.76"/>
	<text x="2467.20" y="2619.14" style="font-family:'Helvetica';font-size:99.99px;fill:#000000" text-anchor="middle">6</text>
	<line x1="3134.34" y1="2489.19" x2="3134.34" y2="2529.16" style="stroke:#000000;stroke-width:5.76"/>
	<text x="3134.34" y="2619.14" style="font-family:'Helvetica';font-size:99.99px;fill:#000000" text-anchor="middle">8</text>
	<line x1="3801.48" y1="2489.19" x2="3801.48" y2="2529.16" style="stroke:#000000;stroke-width:5.76"/>
	<text x="3801.48" y="2619.14" style="font-family:'Helvetica';font-size:99.99px;fill:#000000" text-anchor="middle">10</text>
	<text x="2162.41" y="2729.16" style="font-family:'Helvetica';font-size:99.99px;fill:#000000" text-anchor="middle">Years from diagnosis</text>
	<rect x="3089.30" y="135.39" width="735.20" height="257.28" style="fill:#FFFFFF"/>
	<rect x="3092.17" y="138.27" width="729.44" height="251.52" style="fill:none;stroke:#FFFFFF;stroke-width:5.76"/>
	<line x1="3097.96" y1="194.05" x2="3297.94" y2="194.05" style="stroke:#E41A1C;stroke-width:8.64"/>
	<line x1="3097.96" y1="334.01" x2="3297.94" y2="334.01" style="stroke:#377EB8;stroke-width:8.64"/>
	<text x="3357.96" y="229.07" style="font-family:'Helvetica';font-size:99.99px;fill:#000000">Country A</text>
	<text x="3357.96" y="369.04" style="font-family:'Helvetica';font-size:99.99px;fill:#000000">Country B</text>
</svg>
