<?xml version="1.0" encoding="UTF-8" standalone="no"?>
<!-- This is a Stata 18.0 generated SVG file (http://www.stata.com) -->

<svg version="1.1" width="700px" height="509px" viewBox="0 0 3960 2880" xmlns="http://www.w3.org/2000/svg" xmlns:xlink="http://www.w3.org/1999/xlink">
	<desc>Stata Graph - RS_age</desc>
	<rect x="0" y="0" width="3960" height="2880" style="fill:#FFFFFF;stroke:none"/>
	<rect x="0.00" y="0.00" width="3959.88" height="2880.00" style="fill:#FFFFFF"/>
	<rect x="2.88" y="2.88" width="3954.12" height="2874.24" style="fill:none;stroke:#FFFFFF;stroke-width:5.76"/>
	<line x1="465.80" y1="2408.25" x2="3859.02" y2="2408.25" style="stroke:#C0C0C0;stroke-opacity:0.50;stroke-width:5.76"/>
	<line x1="465.80" y1="1831.43" x2="3859.02" y2="1831.43" style="stroke:#C0C0C0;stroke-opacity:0.50;stroke-width:5.76"/>
	<line x1="465.80" y1="1254.49" x2="3859.02" y2="1254.49" style="stroke:#C0C0C0;stroke-opacity:0.50;stroke-width:5.76"/>
	<line x1="465.80" y1="677.68" x2="3859.02" y2="677.68" style="stroke:#C0C0C0;stroke-opacity:0.50;stroke-width:5.76"/>
	<line x1="465.80" y1="100.86" x2="3859.02" y2="100.86" style="stroke:#C0C0C0;stroke-opacity:0.50;stroke-width:5.76"/>
	<line x1="465.80" y1="2489.19" x2="465.80" y2="100.86" style="stroke:#C0C0C0;stroke-opacity:0.50;stroke-width:5.76"/>
	<line x1="1577.69" y1="2489.19" x2="1577.69" y2="100.86" style="stroke:#C0C0C0;stroke-opacity:0.50;stroke-width:5.76"/>
	<line x1="2689.58" y1="2489.19" x2="2689.58" y2="100.86" style="stroke:#C0C0C0;stroke-opacity:0.50;stroke-width:5.76"/>
	<line x1="3801.48" y1="2489.19" x2="3801.48" y2="100.86" style="stroke:#C0C0C0;stroke-opacity:0.50;stroke-width:5.76"/>
	<defs>
		<path id="path_RchQxWuW" d="M465.80 824.08 L465.80 824.08 L576.92 837.44 L688.17 852.17 L799.30 868.38 L910.55 886.20 L1021.68 905.75 L1132.93 927.29 L1244.06 950.68 L1355.31 976.29 L1466.44 1004.14 L1577.69 1034.09 L1688.82 1066.39 L1800.07 1100.91 L1911.20 1137.55 L2022.45 1176.28 L2133.57 1216.87 L2244.82 1259.44 L2355.95 1303.62 L2467.20 1349.54 L2578.33 1397.30 L2689.58 1446.93 L2800.71 1498.78 L2911.96 1553.36 L3023.21 1611.65 L3134.34 1674.64 L3245.59 1742.70 L3356.72 1815.84 L3467.97 1893.43 L3579.10 1974.49 L3690.35 2057.78 L3801.48 2142.55 L3801.48 1912.49 L3690.35 1840.47 L3579.10 1772.53 L3467.97 1707.68 L3356.72 1645.18 L3245.59 1583.80 L3134.34 1523.16 L3023.21 1463.02 L2911.96 1403.74 L2800.71 1346.19 L2689.58 1291.12 L2578.33 1238.65 L2467.20 1189.03 L2355.95 1142.00 L2244.82 1097.57 L2133.57 1055.37 L2022.45 1015.15 L1911.20 976.79 L1800.07 939.91 L1688.82 904.27 L1577.69 869.74 L1466.44 836.08 L1355.31 803.29 L1244.06 771.23 L1132.93 739.92 L1021.68 709.36 L910.55 679.53 L799.30 650.45 L688.17 622.36 L576.92 595.13 L465.80 568.77 L465.80 824.08 Z" stroke-linejoin="round"/>
	</defs>
	<defs>
		<clipPath id="clipPath_hJgdncHK">
			<use xlink:href="#path_RchQxWuW"/>
		</clipPath>
	</defs>
	<use xlink:href="#path_RchQxWuW" style="stroke:none;fill:#E94849;fill-opacity:0.30"/>
	<use xlink:href="#path_RchQxWuW" style="fill:none;stroke:#E41A1C;stroke-opacity:0.30;stroke-width:17.28" clip-path="url(#clipPath_hJgdncHK)"/>
	<path d=" M465.67 683.37 L576.92 705.03 L688.05 727.55 L799.30 750.94 L910.43 775.57 L1021.68 801.18 L1132.81 828.04 L1244.06 856.13 L1355.19 885.46 L1466.44 916.27 L1577.57 948.33 L1688.82 981.99 L1799.94 1017.26 L1911.20 1054.26 L2022.32 1092.87 L2133.57 1133.46 L2244.70 1175.91 L2355.95 1220.34 L2467.08 1266.99 L2578.33 1315.87 L2689.46 1366.99 L2800.71 1420.69 L2911.96 1476.88 L3023.09 1535.79 L3134.34 1597.41 L3245.47 1661.77 L3356.72 1728.84 L3467.85 1798.64 L3579.10 1871.41 L3690.23 1946.77 L3801.48 2024.98" stroke-linejoin="round" style="fill:none;stroke:#E41A1C;stroke-width:8.64"/>
	<defs>
		<path id="path_DTokSwNf" d="M465.80 855.51 L465.80 855.51 L576.92 880.01 L688.17 905.88 L799.30 933.48 L910.55 962.81 L1021.68 994.11 L1132.93 1027.53 L1244.06 1063.29 L1355.31 1101.53 L1466.44 1142.74 L1577.69 1186.80 L1688.82 1233.95 L1800.07 1284.32 L1911.20 1337.53 L2022.45 1393.59 L2133.57 1451.76 L2244.82 1511.78 L2355.95 1572.79 L2467.20 1634.42 L2578.33 1696.17 L2689.58 1757.43 L2800.71 1818.07 L2911.96 1878.21 L3023.21 1938.60 L3134.34 2001.10 L3245.59 2067.68 L3356.72 2139.83 L3467.97 2218.29 L3579.10 2303.06 L3690.35 2393.52 L3801.48 2489.19 L3801.48 2169.90 L3690.35 2095.40 L3579.10 2027.09 L3467.97 1962.61 L3356.72 1899.62 L3245.59 1836.51 L3134.34 1772.28 L3023.21 1706.94 L2911.96 1641.10 L2800.71 1575.51 L2689.58 1511.03 L2578.33 1447.92 L2467.20 1386.29 L2355.95 1326.15 L2244.82 1267.24 L2133.57 1209.32 L2022.45 1152.15 L1911.20 1095.47 L1800.07 1039.16 L1688.82 983.35 L1577.69 927.91 L1466.44 873.21 L1355.31 819.50 L1244.06 767.03 L1132.93 716.29 L1021.68 667.40 L910.55 620.63 L799.30 576.32 L688.17 534.37 L576.92 494.89 L465.80 458.01 L465.80 855.51 Z" stroke-linejoin="round"/>
	</defs>
	<defs>
		<clipPath id="clipPath_XMZjSHbf">
			<use xlink:href="#path_DTokSwNf"/>
		</clipPath>
	</defs>
	<use xlink:href="#path_DTokSwNf" style="stroke:none;fill:#5F98C6;fill-opacity:0.30"/>
	<use xlink:href="#path_DTokSwNf" style="fill:none;stroke:#377EB8;stroke-opacity:0.30;stroke-width:17.28" clip-path="url(#clipPath_XMZjSHbf)"/>
	<path d=" M465.67 621.99 L576.92 656.76 L688.05 693.27 L799.30 731.63 L910.43 771.73 L1021.68 813.68 L1132.81 857.24 L1244.06 902.78 L1355.19 949.93 L1466.44 998.94 L1577.57 1049.56 L1688.82 1101.78 L1799.94 1155.49 L1911.20 1210.81 L2022.32 1267.49 L2133.57 1325.40 L2244.70 1384.56 L2355.95 1444.83 L2467.08 1505.96 L2578.33 1567.84 L2689.46 1630.33 L2800.71 1693.20 L2911.96 1756.44 L3023.09 1819.80 L3134.34 1883.91 L3245.47 1949.49 L3356.72 2017.06 L3467.85 2087.60 L3579.10 2161.86 L3690.23 2240.94 L3801.48 2325.83" stroke-linejoin="round" style="fill:none;stroke:#377EB8;stroke-width:8.64"/>
	<line x1="465.80" y1="2489.19" x2="465.80" y2="100.86" style="stroke:#000000;stroke-width:5.76"/>
	<line x1="465.80" y1="2408.25" x2="425.82" y2="2408.25" style="stroke:#000000;stroke-width:5.76"/>
	<text x="405.78" y="2443.28" style="font-family:'Helvetica';font-size:99.99px;fill:#000000" text-anchor="end">0.6</text>
	<line x1="465.80" y1="1831.43" x2="425.82" y2="1831.43" style="stroke:#000000;stroke-width:5.76"/>
	<text x="405.78" y="1866.46" style="font-family:'Helvetica';font-size:99.99px;fill:#000000" text-anchor="end">0.7</text>
	<line x1="465.80" y1="1254.49" x2="425.82" y2="1254.49" style="stroke:#000000;stroke-width:5.76"/>
	<text x="405.78" y="1289.52" style="font-family:'Helvetica';font-size:99.99px;fill:#000000" text-anchor="end">0.8</text>
	<line x1="465.80" y1="677.68" x2="425.82" y2="677.68" style="stroke:#000000;stroke-width:5.76"/>
	<text x="405.78" y="712.70" style="font-family:'Helvetica';font-size:99.99px;fill:#000000" text-anchor="end">0.9</text>
	<line x1="465.80" y1="100.86" x2="425.82" y2="100.86" style="stroke:#000000;stroke-width:5.76"/>
	<text x="405.78" y="135.89" style="font-family:'Helvetica';font-size:99.99px;fill:#000000" text-anchor="end">1.0</text>
	<text x="190.71" y="1294.96" style="font-family:'Helvetica';font-size:99.99px;fill:#000000" transform="rotate(-90 190.71,1294.96)" text-anchor="middle">Marginal 5-year Relative Survival</text>
	<line x1="465.80" y1="2489.19" x2="3859.02" y2="2489.19" style="stroke:#000000;stroke-width:5.76"/>
	<line x1="465.80" y1="2489.19" x2="465.80" y2="2529.16" style="stroke:#000000;stroke-width:5.76"/>
	<text x="465.80" y="2619.14" style="font-family:'Helvetica';font-size:99.99px;fill:#000000" text-anchor="middle">50</text>
	<line x1="1577.69" y1="2489.19" x2="1577.69" y2="2529.16" style="stroke:#000000;stroke-width:5.76"/>
	<text x="1577.69" y="2619.14" style="font-family:'Helvetica';font-size:99.99px;fill:#000000" text-anchor="middle">60</text>
	<line x1="2689.58" y1="2489.19" x2="2689.58" y2="2529.16" style="stroke:#000000;stroke-width:5.76"/>
	<text x="2689.58" y="2619.14" style="font-family:'Helvetica';font-size:99.99px;fill:#000000" text-anchor="middle">70</text>
	<line x1="3801.48" y1="2489.19" x2="3801.48" y2="2529.16" style="stroke:#000000;stroke-width:5.76"/>
	<text x="3801.48" y="2619.14" style="font-family:'Helvetica';font-size:99.99px;fill:#000000" text-anchor="middle">80</text>
	<text x="2162.41" y="2729.16" style="font-family:'Helvetica';font-size:99.99px;fill:#000000" text-anchor="middle">Years from diagnosis</text>
	<rect x="3089.30" y="135.39" width="735.20" height="257.28" style="fill:#FFFFFF"/>
	<rect x="3092.17" y="138.27" width="729.44" height="251.52" style="fill:none;stroke:#FFFFFF;stroke-width:5.76"/>
	<line x1="3097.96" y1="194.05" x2="3297.94" y2="194.05" style="stroke:#E41A1C;stroke-width:8.64"/>
	<line x1="3097.96" y1="334.01" x2="3297.94" y2="334.01" style="stroke:#377EB8;stroke-width:8.64"/>
	<text x="3357.96" y="229.07" style="font-family:'Helvetica';font-size:99.99px;fill:#000000">Country A</text>
	<text x="3357.96" y="369.04" style="font-family:'Helvetica';font-size:99.99px;fill:#000000">Country B</text>
</svg>
