<?xml version="1.0" encoding="UTF-8" standalone="no"?>
<!-- This is a Stata 18.5 generated SVG file (http://www.stata.com) -->

<svg version="1.1" width="700px" height="509px" viewBox="0 0 3960 2880" xmlns="http://www.w3.org/2000/svg" xmlns:xlink="http://www.w3.org/1999/xlink">
	<desc>Stata Graph - Graph</desc>
	<rect x="0" y="0" width="3960" height="2880" style="fill:#FFFFFF;stroke:none"/>
	<rect x="0.00" y="0.00" width="3959.88" height="2880.00" style="fill:#FFFFFF"/>
	<rect x="2.88" y="2.88" width="3954.12" height="2874.24" style="fill:none;stroke:#FFFFFF;stroke-width:5.76"/>
	<line x1="524.08" y1="2005.93" x2="3859.02" y2="2005.93" style="stroke:#C0C0C0;stroke-width:5.76"/>
	<line x1="524.08" y1="1688.37" x2="3859.02" y2="1688.37" style="stroke:#C0C0C0;stroke-width:5.76"/>
	<line x1="524.08" y1="1370.82" x2="3859.02" y2="1370.82" style="stroke:#C0C0C0;stroke-width:5.76"/>
	<line x1="524.08" y1="1053.39" x2="3859.02" y2="1053.39" style="stroke:#C0C0C0;stroke-width:5.76"/>
	<line x1="524.08" y1="735.84" x2="3859.02" y2="735.84" style="stroke:#C0C0C0;stroke-width:5.76"/>
	<line x1="524.08" y1="418.29" x2="3859.02" y2="418.29" style="stroke:#C0C0C0;stroke-width:5.76"/>
	<line x1="524.08" y1="100.86" x2="3859.02" y2="100.86" style="stroke:#C0C0C0;stroke-width:5.76"/>
	<line x1="524.08" y1="2489.19" x2="524.08" y2="100.86" style="stroke:#C0C0C0;stroke-width:5.76"/>
	<line x1="1179.59" y1="2489.19" x2="1179.59" y2="100.86" style="stroke:#C0C0C0;stroke-width:5.76"/>
	<line x1="1835.09" y1="2489.19" x2="1835.09" y2="100.86" style="stroke:#C0C0C0;stroke-width:5.76"/>
	<line x1="2490.59" y1="2489.19" x2="2490.59" y2="100.86" style="stroke:#C0C0C0;stroke-width:5.76"/>
	<line x1="3145.97" y1="2489.19" x2="3145.97" y2="100.86" style="stroke:#C0C0C0;stroke-width:5.76"/>
	<line x1="3801.48" y1="2489.19" x2="3801.48" y2="100.86" style="stroke:#C0C0C0;stroke-width:5.76"/>
	<defs>
		<path id="path_GRmnmTrI" d="M556.88 2489.19 L556.88 2489.19 L589.67 2488.94 L622.46 2488.32 L655.26 2487.45 L687.93 2486.22 L720.72 2484.61 L753.51 2482.50 L786.31 2480.28 L819.10 2477.55 L851.90 2474.71 L884.57 2471.49 L917.36 2468.02 L950.15 2464.31 L982.95 2460.47 L1015.74 2456.39 L1048.53 2452.18 L1081.20 2447.85 L1114.00 2443.40 L1146.79 2438.94 L1179.59 2434.36 L1212.38 2429.66 L1245.17 2424.96 L1277.97 2420.25 L1310.64 2415.55 L1343.43 2410.85 L1376.22 2406.02 L1409.02 2401.32 L1441.81 2396.74 L1474.61 2392.04 L1507.28 2387.46 L1540.07 2383.00 L1572.86 2378.55 L1605.66 2374.22 L1638.45 2369.89 L1671.24 2365.68 L1703.91 2361.47 L1736.71 2357.39 L1769.50 2353.43 L1802.30 2349.59 L1835.09 2345.88 L1867.88 2342.17 L1900.55 2338.58 L1933.35 2334.99 L1966.14 2331.52 L1998.93 2328.18 L2031.73 2324.84 L2064.52 2321.62 L2097.19 2318.40 L2129.99 2315.31 L2162.78 2312.34 L2195.57 2309.37 L2228.37 2306.40 L2261.16 2303.55 L2293.83 2300.71 L2326.62 2297.99 L2359.42 2295.26 L2392.21 2292.66 L2425.01 2289.94 L2457.80 2287.47 L2490.59 2284.87 L2523.26 2282.39 L2556.06 2279.92 L2588.85 2277.44 L2621.64 2275.09 L2654.44 2272.74 L2687.23 2270.39 L2719.90 2268.16 L2752.70 2265.93 L2785.49 2263.71 L2818.28 2261.48 L2851.08 2259.37 L2883.87 2257.27 L2916.54 2255.17 L2949.33 2253.06 L2982.13 2251.08 L3014.92 2248.98 L3047.72 2247.00 L3080.51 2245.14 L3113.18 2243.16 L3145.97 2241.31 L3178.77 2239.33 L3211.56 2237.47 L3244.35 2235.74 L3277.15 2233.88 L3309.82 2232.15 L3342.61 2230.29 L3375.41 2228.56 L3408.20 2226.83 L3440.99 2225.22 L3473.79 2223.49 L3506.46 2221.88 L3539.25 2220.14 L3572.04 2218.54 L3604.84 2216.93 L3637.63 2215.32 L3670.43 2213.83 L3703.22 2212.22 L3735.89 2210.74 L3768.68 2209.25 L3801.48 2207.77 L3801.48 2034.02 L3768.68 2034.27 L3735.89 2034.51 L3703.22 2034.76 L3670.43 2035.13 L3637.63 2035.38 L3604.84 2035.63 L3572.04 2036.00 L3539.25 2036.25 L3506.46 2036.49 L3473.79 2036.86 L3440.99 2037.11 L3408.20 2037.48 L3375.41 2037.73 L3342.61 2038.10 L3309.82 2038.35 L3277.15 2038.72 L3244.35 2039.09 L3211.56 2039.34 L3178.77 2039.71 L3145.97 2040.08 L3113.18 2040.45 L3080.51 2040.83 L3047.72 2041.20 L3014.92 2041.44 L2982.13 2041.82 L2949.33 2042.19 L2916.54 2042.68 L2883.87 2043.05 L2851.08 2043.42 L2818.28 2043.80 L2785.49 2044.17 L2752.70 2044.66 L2719.90 2045.03 L2687.23 2045.40 L2654.44 2045.90 L2621.64 2046.27 L2588.85 2046.77 L2556.06 2047.14 L2523.26 2047.63 L2490.59 2048.13 L2457.80 2048.62 L2425.01 2048.99 L2392.21 2049.49 L2359.42 2049.98 L2326.62 2050.48 L2293.83 2051.10 L2261.16 2051.59 L2228.37 2052.09 L2195.57 2052.58 L2162.78 2053.20 L2129.99 2053.70 L2097.19 2054.31 L2064.52 2054.93 L2031.73 2055.55 L1998.93 2056.17 L1966.14 2056.79 L1933.35 2057.41 L1900.55 2058.03 L1867.88 2058.77 L1835.09 2059.39 L1802.30 2060.13 L1769.50 2060.87 L1736.71 2061.62 L1703.91 2062.36 L1671.24 2063.10 L1638.45 2063.84 L1605.66 2064.71 L1572.86 2065.58 L1540.07 2066.32 L1507.28 2067.18 L1474.61 2068.05 L1441.81 2068.92 L1409.02 2069.78 L1376.22 2070.65 L1343.43 2071.64 L1310.64 2072.51 L1277.97 2073.37 L1245.17 2074.24 L1212.38 2075.10 L1179.59 2076.09 L1146.79 2076.96 L1114.00 2077.83 L1081.20 2078.57 L1048.53 2079.44 L1015.74 2080.18 L982.95 2081.05 L950.15 2081.79 L917.36 2082.41 L884.57 2083.15 L851.90 2083.64 L819.10 2084.26 L786.31 2084.76 L753.51 2085.25 L720.72 2085.62 L687.93 2085.87 L655.26 2086.12 L622.46 2086.37 L589.67 2086.37 L556.88 2086.49 L556.88 2489.19 Z" stroke-linejoin="round"/>
	</defs>
	<defs>
		<clipPath id="clipPath_LVCWMXRw">
			<use xlink:href="#path_GRmnmTrI"/>
		</clipPath>
	</defs>
	<use xlink:href="#path_GRmnmTrI" style="stroke:none;fill:#FF3333;fill-opacity:0.30"/>
	<use xlink:href="#path_GRmnmTrI" style="fill:none;stroke:#FF0000;stroke-opacity:0.30;stroke-width:17.28" clip-path="url(#clipPath_LVCWMXRw)"/>
	<path d=" M556.88 2287.96 L589.54 2287.71 L622.34 2287.47 L655.13 2286.85 L687.93 2286.11 L720.72 2285.12 L753.51 2284.00 L786.18 2282.52 L818.98 2281.03 L851.77 2279.17 L884.57 2277.32 L917.36 2275.21 L950.15 2273.11 L982.82 2270.76 L1015.62 2268.41 L1048.41 2265.93 L1081.20 2263.33 L1114.00 2260.61 L1146.79 2258.01 L1179.46 2255.29 L1212.26 2252.44 L1245.05 2249.72 L1277.84 2246.88 L1310.64 2244.03 L1343.43 2241.31 L1376.22 2238.46 L1408.89 2235.61 L1441.69 2232.89 L1474.48 2230.17 L1507.28 2227.45 L1540.07 2224.72 L1572.86 2222.12 L1605.53 2219.53 L1638.33 2216.93 L1671.12 2214.45 L1703.91 2211.98 L1736.71 2209.63 L1769.50 2207.27 L1802.17 2204.92 L1834.97 2202.70 L1867.76 2200.47 L1900.55 2198.36 L1933.35 2196.26 L1966.14 2194.16 L1998.81 2192.18 L2031.60 2190.20 L2064.40 2188.34 L2097.19 2186.48 L2129.99 2184.63 L2162.78 2182.77 L2195.45 2181.04 L2228.24 2179.31 L2261.04 2177.57 L2293.83 2175.96 L2326.62 2174.36 L2359.42 2172.75 L2392.09 2171.14 L2424.88 2169.53 L2457.68 2168.04 L2490.47 2166.56 L2523.26 2165.07 L2556.06 2163.59 L2588.85 2162.23 L2621.52 2160.74 L2654.31 2159.38 L2687.11 2158.02 L2719.90 2156.66 L2752.70 2155.30 L2785.49 2154.06 L2818.16 2152.70 L2850.95 2151.46 L2883.75 2150.22 L2916.54 2148.99 L2949.33 2147.75 L2982.13 2146.51 L3014.80 2145.27 L3047.59 2144.16 L3080.39 2143.05 L3113.18 2141.81 L3145.97 2140.69 L3178.77 2139.58 L3211.44 2138.47 L3244.23 2137.48 L3277.02 2136.36 L3309.82 2135.25 L3342.61 2134.26 L3375.41 2133.27 L3408.08 2132.28 L3440.87 2131.17 L3473.66 2130.18 L3506.46 2129.19 L3539.25 2128.32 L3572.04 2127.33 L3604.84 2126.34 L3637.51 2125.47 L3670.30 2124.48 L3703.10 2123.62 L3735.89 2122.63 L3768.68 2121.76 L3801.48 2120.89" stroke-linejoin="round" style="fill:none;stroke:#FF0000;stroke-width:8.64"/>
	<line x1="524.08" y1="2489.19" x2="524.08" y2="100.86" style="stroke:#000000;stroke-width:5.76"/>
	<line x1="524.08" y1="2005.93" x2="484.11" y2="2005.93" style="stroke:#000000;stroke-width:5.76"/>
	<text x="464.06" y="2040.95" style="font-family:'Helvetica';font-size:99.99px;fill:#000000" text-anchor="end">0.00</text>
	<line x1="524.08" y1="1688.37" x2="484.11" y2="1688.37" style="stroke:#000000;stroke-width:5.76"/>
	<text x="464.06" y="1723.40" style="font-family:'Helvetica';font-size:99.99px;fill:#000000" text-anchor="end">0.05</text>
	<line x1="524.08" y1="1370.82" x2="484.11" y2="1370.82" style="stroke:#000000;stroke-width:5.76"/>
	<text x="464.06" y="1405.85" style="font-family:'Helvetica';font-size:99.99px;fill:#000000" text-anchor="end">0.10</text>
	<line x1="524.08" y1="1053.39" x2="484.11" y2="1053.39" style="stroke:#000000;stroke-width:5.76"/>
	<text x="464.06" y="1088.42" style="font-family:'Helvetica';font-size:99.99px;fill:#000000" text-anchor="end">0.15</text>
	<line x1="524.08" y1="735.84" x2="484.11" y2="735.84" style="stroke:#000000;stroke-width:5.76"/>
	<text x="464.06" y="770.87" style="font-family:'Helvetica';font-size:99.99px;fill:#000000" text-anchor="end">0.20</text>
	<line x1="524.08" y1="418.29" x2="484.11" y2="418.29" style="stroke:#000000;stroke-width:5.76"/>
	<text x="464.06" y="453.32" style="font-family:'Helvetica';font-size:99.99px;fill:#000000" text-anchor="end">0.25</text>
	<line x1="524.08" y1="100.86" x2="484.11" y2="100.86" style="stroke:#000000;stroke-width:5.76"/>
	<text x="464.06" y="135.89" style="font-family:'Helvetica';font-size:99.99px;fill:#000000" text-anchor="end">0.30</text>
	<text x="190.71" y="1294.96" style="font-family:'Helvetica';font-size:99.99px;fill:#000000" transform="rotate(-90 190.71,1294.96)" text-anchor="middle">AF</text>
	<line x1="524.08" y1="2489.19" x2="3859.02" y2="2489.19" style="stroke:#000000;stroke-width:5.76"/>
	<line x1="524.08" y1="2489.19" x2="524.08" y2="2529.16" style="stroke:#000000;stroke-width:5.76"/>
	<text x="524.08" y="2619.14" style="font-family:'Helvetica';font-size:99.99px;fill:#000000" text-anchor="middle">0</text>
	<line x1="1179.59" y1="2489.19" x2="1179.59" y2="2529.16" style="stroke:#000000;stroke-width:5.76"/>
	<text x="1179.59" y="2619.14" style="font-family:'Helvetica';font-size:99.99px;fill:#000000" text-anchor="middle">2</text>
	<line x1="1835.09" y1="2489.19" x2="1835.09" y2="2529.16" style="stroke:#000000;stroke-width:5.76"/>
	<text x="1835.09" y="2619.14" style="font-family:'Helvetica';font-size:99.99px;fill:#000000" text-anchor="middle">4</text>
	<line x1="2490.59" y1="2489.19" x2="2490.59" y2="2529.16" style="stroke:#000000;stroke-width:5.76"/>
	<text x="2490.59" y="2619.14" style="font-family:'Helvetica';font-size:99.99px;fill:#000000" text-anchor="middle">6</text>
	<line x1="3145.97" y1="2489.19" x2="3145.97" y2="2529.16" style="stroke:#000000;stroke-width:5.76"/>
	<text x="3145.97" y="2619.14" style="font-family:'Helvetica';font-size:99.99px;fill:#000000" text-anchor="middle">8</text>
	<line x1="3801.48" y1="2489.19" x2="3801.48" y2="2529.16" style="stroke:#000000;stroke-width:5.76"/>
	<text x="3801.48" y="2619.14" style="font-family:'Helvetica';font-size:99.99px;fill:#000000" text-anchor="middle">10</text>
	<text x="2191.61" y="2729.16" style="font-family:'Helvetica';font-size:99.99px;fill:#000000" text-anchor="middle">Years from surgery</text>
</svg>
