<?xml version="1.0" encoding="UTF-8" standalone="no"?>
<!-- This is a Stata 18.5 generated SVG file (http://www.stata.com) -->

<svg version="1.1" width="700px" height="509px" viewBox="0 0 3960 2880" xmlns="http://www.w3.org/2000/svg" xmlns:xlink="http://www.w3.org/1999/xlink">
	<desc>Stata Graph - Graph</desc>
	<rect x="0" y="0" width="3960" height="2880" style="fill:#FFFFFF;stroke:none"/>
	<rect x="0.00" y="0.00" width="3959.88" height="2880.00" style="fill:#FFFFFF"/>
	<rect x="2.88" y="2.88" width="3954.12" height="2874.24" style="fill:none;stroke:#FFFFFF;stroke-width:5.76"/>
	<line x1="482.50" y1="2489.19" x2="3859.02" y2="2489.19" style="stroke:#C0C0C0;stroke-width:5.76"/>
	<line x1="482.50" y1="2011.50" x2="3859.02" y2="2011.50" style="stroke:#C0C0C0;stroke-width:5.76"/>
	<line x1="482.50" y1="1533.81" x2="3859.02" y2="1533.81" style="stroke:#C0C0C0;stroke-width:5.76"/>
	<line x1="482.50" y1="1056.12" x2="3859.02" y2="1056.12" style="stroke:#C0C0C0;stroke-width:5.76"/>
	<line x1="482.50" y1="578.43" x2="3859.02" y2="578.43" style="stroke:#C0C0C0;stroke-width:5.76"/>
	<line x1="482.50" y1="100.86" x2="3859.02" y2="100.86" style="stroke:#C0C0C0;stroke-width:5.76"/>
	<line x1="482.50" y1="2489.19" x2="482.50" y2="100.86" style="stroke:#C0C0C0;stroke-width:5.76"/>
	<line x1="1146.30" y1="2489.19" x2="1146.30" y2="100.86" style="stroke:#C0C0C0;stroke-width:5.76"/>
	<line x1="1810.09" y1="2489.19" x2="1810.09" y2="100.86" style="stroke:#C0C0C0;stroke-width:5.76"/>
	<line x1="2473.89" y1="2489.19" x2="2473.89" y2="100.86" style="stroke:#C0C0C0;stroke-width:5.76"/>
	<line x1="3137.68" y1="2489.19" x2="3137.68" y2="100.86" style="stroke:#C0C0C0;stroke-width:5.76"/>
	<line x1="3801.48" y1="2489.19" x2="3801.48" y2="100.86" style="stroke:#C0C0C0;stroke-width:5.76"/>
	<defs>
		<path id="path_eFHDurFl" d="M515.91 2479.66 L515.91 2479.66 L549.45 2437.58 L582.99 2359.99 L616.52 2254.80 L650.06 2132.28 L683.60 2002.34 L717.13 1872.89 L750.67 1749.26 L784.20 1633.80 L817.74 1527.00 L851.28 1428.49 L884.81 1337.53 L918.23 1253.26 L951.76 1175.17 L985.30 1102.89 L1018.83 1036.19 L1052.37 975.06 L1085.91 919.49 L1119.44 869.87 L1152.98 826.68 L1186.52 790.42 L1220.05 762.08 L1253.59 742.15 L1287.00 730.52 L1320.54 725.45 L1354.07 725.20 L1387.61 728.17 L1421.15 733.61 L1454.68 740.79 L1488.22 748.83 L1521.75 757.74 L1555.29 767.15 L1588.83 777.05 L1622.36 787.57 L1655.90 798.71 L1689.31 811.08 L1722.85 825.07 L1756.38 841.53 L1789.92 861.20 L1823.46 883.60 L1856.99 907.61 L1890.53 932.36 L1924.07 956.99 L1957.60 980.87 L1991.14 1003.64 L2024.67 1024.93 L2058.21 1044.61 L2091.62 1062.43 L2125.16 1078.39 L2158.70 1092.62 L2192.23 1104.87 L2225.77 1115.52 L2259.30 1124.43 L2292.84 1131.85 L2326.38 1137.67 L2359.91 1142.25 L2393.45 1145.71 L2426.99 1148.19 L2460.40 1150.29 L2493.93 1152.89 L2527.47 1156.60 L2561.01 1161.06 L2594.54 1166.50 L2628.08 1172.69 L2661.62 1179.75 L2695.15 1187.29 L2728.69 1195.46 L2762.22 1204.00 L2795.76 1212.79 L2829.30 1221.82 L2862.71 1230.98 L2896.25 1240.14 L2929.78 1249.30 L2963.32 1258.33 L2996.85 1267.24 L3030.39 1275.90 L3063.93 1284.57 L3097.46 1292.86 L3131.00 1301.02 L3164.54 1308.82 L3198.07 1316.49 L3231.61 1323.92 L3265.02 1330.97 L3298.56 1337.90 L3332.09 1344.46 L3365.63 1350.90 L3399.17 1356.96 L3432.70 1362.90 L3466.24 1368.47 L3499.77 1373.92 L3533.31 1378.99 L3566.85 1383.94 L3600.38 1388.64 L3633.80 1393.10 L3667.33 1397.43 L3700.87 1401.39 L3734.40 1405.23 L3767.94 1408.94 L3801.48 1412.40 L3801.48 966.15 L3767.94 964.79 L3734.40 963.67 L3700.87 962.43 L3667.33 961.44 L3633.80 960.45 L3600.38 959.46 L3566.85 958.60 L3533.31 957.73 L3499.77 956.99 L3466.24 956.37 L3432.70 955.75 L3399.17 955.26 L3365.63 954.76 L3332.09 954.27 L3298.56 953.89 L3265.02 953.52 L3231.61 953.15 L3198.07 952.90 L3164.54 952.53 L3131.00 952.29 L3097.46 951.91 L3063.93 951.42 L3030.39 950.92 L2996.85 950.31 L2963.32 949.56 L2929.78 948.57 L2896.25 947.21 L2862.71 945.60 L2829.30 943.50 L2795.76 940.90 L2762.22 937.68 L2728.69 933.60 L2695.15 928.65 L2661.62 922.71 L2628.08 915.65 L2594.54 907.24 L2561.01 897.34 L2527.47 885.95 L2493.93 873.08 L2460.40 858.48 L2426.99 842.52 L2393.45 825.69 L2359.91 808.36 L2326.38 790.91 L2292.84 773.34 L2259.30 756.01 L2225.77 738.81 L2192.23 721.98 L2158.70 705.64 L2125.16 689.56 L2091.62 674.09 L2058.21 658.87 L2024.67 643.89 L1991.14 629.04 L1957.60 613.94 L1924.07 598.35 L1890.53 581.64 L1856.99 563.08 L1823.46 541.79 L1789.92 516.80 L1756.38 487.71 L1722.85 456.78 L1689.31 425.84 L1655.90 396.01 L1622.36 368.42 L1588.83 344.16 L1555.29 323.86 L1521.75 308.15 L1488.22 297.38 L1454.68 292.06 L1421.15 292.31 L1387.61 298.12 L1354.07 309.14 L1320.54 324.98 L1287.00 344.53 L1253.59 366.68 L1220.05 389.45 L1186.52 413.46 L1152.98 440.19 L1119.44 471.38 L1085.91 509.00 L1052.37 554.42 L1018.83 608.87 L985.30 673.59 L951.76 749.33 L918.23 836.45 L884.81 934.96 L851.28 1044.36 L817.74 1163.53 L784.20 1290.26 L750.67 1422.30 L717.13 1556.82 L683.60 1691.96 L650.06 1826.98 L616.52 1962.12 L582.99 2097.75 L549.45 2234.00 L515.91 2368.65 L515.91 2479.66 Z" stroke-linejoin="round"/>
	</defs>
	<defs>
		<clipPath id="clipPath_nJRuCZZp">
			<use xlink:href="#path_eFHDurFl"/>
		</clipPath>
	</defs>
	<use xlink:href="#path_eFHDurFl" style="stroke:none;fill:#FF3333;fill-opacity:0.30"/>
	<use xlink:href="#path_eFHDurFl" style="fill:none;stroke:#FF0000;stroke-opacity:0.30;stroke-width:17.28" clip-path="url(#clipPath_nJRuCZZp)"/>
	<defs>
		<path id="path_vQPXYunW" d="M515.91 2467.65 L515.91 2467.65 L549.45 2414.93 L582.99 2346.99 L616.52 2275.21 L650.06 2206.41 L683.60 2143.79 L717.13 2087.60 L750.67 2036.86 L784.20 1990.09 L817.74 1946.03 L851.28 1903.71 L884.81 1862.37 L918.23 1821.78 L951.76 1781.31 L985.30 1741.22 L1018.83 1701.24 L1052.37 1661.52 L1085.91 1622.29 L1119.44 1583.68 L1152.98 1546.06 L1186.52 1509.67 L1220.05 1475.15 L1253.59 1442.72 L1287.00 1412.90 L1320.54 1385.42 L1354.07 1360.43 L1387.61 1338.03 L1421.15 1318.97 L1454.68 1303.50 L1488.22 1291.00 L1521.75 1281.10 L1555.29 1273.55 L1588.83 1267.98 L1622.36 1264.27 L1655.90 1262.17 L1689.31 1261.79 L1722.85 1262.91 L1756.38 1265.63 L1789.92 1270.09 L1823.46 1274.91 L1856.99 1279.99 L1890.53 1285.06 L1924.07 1289.89 L1957.60 1294.34 L1991.14 1298.55 L2024.67 1302.39 L2058.21 1305.97 L2091.62 1309.32 L2125.16 1312.53 L2158.70 1315.75 L2192.23 1319.22 L2225.77 1323.18 L2259.30 1327.88 L2292.84 1333.08 L2326.38 1339.02 L2359.91 1345.45 L2393.45 1352.51 L2426.99 1360.18 L2460.40 1368.35 L2493.93 1377.38 L2527.47 1387.16 L2561.01 1397.68 L2594.54 1408.69 L2628.08 1420.08 L2661.62 1431.71 L2695.15 1443.47 L2728.69 1455.22 L2762.22 1466.98 L2795.76 1478.61 L2829.30 1490.00 L2862.71 1501.26 L2896.25 1512.27 L2929.78 1522.92 L2963.32 1533.31 L2996.85 1543.46 L3030.39 1553.23 L3063.93 1562.76 L3097.46 1571.92 L3131.00 1580.71 L3164.54 1589.12 L3198.07 1597.29 L3231.61 1605.09 L3265.02 1612.64 L3298.56 1619.81 L3332.09 1626.74 L3365.63 1633.30 L3399.17 1639.49 L3432.70 1645.43 L3466.24 1651.12 L3499.77 1656.57 L3533.31 1661.77 L3566.85 1666.59 L3600.38 1671.17 L3633.80 1675.63 L3667.33 1679.71 L3700.87 1683.67 L3734.40 1687.26 L3767.94 1690.73 L3801.48 1693.94 L3801.48 407.40 L3767.94 412.47 L3734.40 417.79 L3700.87 423.36 L3667.33 429.18 L3633.80 435.24 L3600.38 441.55 L3566.85 448.11 L3533.31 454.92 L3499.77 462.10 L3466.24 469.40 L3432.70 477.07 L3399.17 484.99 L3365.63 493.16 L3332.09 501.45 L3298.56 510.11 L3265.02 519.02 L3231.61 528.06 L3198.07 537.34 L3164.54 546.87 L3131.00 556.52 L3097.46 566.42 L3063.93 576.32 L3030.39 586.47 L2996.85 596.62 L2963.32 606.89 L2929.78 617.16 L2896.25 627.31 L2862.71 637.46 L2829.30 647.48 L2795.76 657.26 L2762.22 666.66 L2728.69 675.70 L2695.15 684.36 L2661.62 692.28 L2628.08 699.46 L2594.54 705.77 L2561.01 710.97 L2527.47 714.93 L2493.93 717.40 L2460.40 718.14 L2426.99 717.03 L2393.45 713.94 L2359.91 708.74 L2326.38 701.44 L2292.84 692.03 L2259.30 680.40 L2225.77 666.54 L2192.23 650.82 L2158.70 634.61 L2125.16 618.52 L2091.62 602.93 L2058.21 588.08 L2024.67 574.47 L1991.14 562.09 L1957.60 551.20 L1924.07 542.04 L1890.53 534.62 L1856.99 528.80 L1823.46 524.72 L1789.92 521.99 L1756.38 520.88 L1722.85 522.49 L1689.31 527.19 L1655.90 535.36 L1622.36 547.12 L1588.83 562.59 L1555.29 581.89 L1521.75 604.91 L1488.22 631.14 L1454.68 660.47 L1421.15 692.28 L1387.61 725.82 L1354.07 759.35 L1320.54 791.78 L1287.00 823.71 L1253.59 855.14 L1220.05 885.71 L1186.52 915.65 L1152.98 945.73 L1119.44 976.67 L1085.91 1009.09 L1052.37 1043.86 L1018.83 1081.49 L985.30 1122.57 L951.76 1167.37 L918.23 1216.50 L884.81 1269.96 L851.28 1327.76 L817.74 1389.51 L784.20 1454.48 L750.67 1521.18 L717.13 1587.14 L683.60 1649.39 L650.06 1703.22 L616.52 1743.44 L582.99 1761.64 L549.45 1739.86 L515.91 1610.90 L515.91 2467.65 Z" stroke-linejoin="round"/>
	</defs>
	<defs>
		<clipPath id="clipPath_ripWlDXq">
			<use xlink:href="#path_vQPXYunW"/>
		</clipPath>
	</defs>
	<use xlink:href="#path_vQPXYunW" style="stroke:none;fill:#3333FF;fill-opacity:0.30"/>
	<use xlink:href="#path_vQPXYunW" style="fill:none;stroke:#0000FF;stroke-opacity:0.30;stroke-width:17.28" clip-path="url(#clipPath_ripWlDXq)"/>
	<path d=" M515.91 2455.28 L549.45 2374.47 L582.99 2264.45 L616.52 2137.72 L650.06 2003.08 L683.60 1866.21 L717.01 1731.19 L750.54 1600.76 L784.08 1476.51 L817.62 1359.81 L851.15 1251.40 L884.69 1151.41 L918.23 1060.08 L951.76 977.16 L985.30 902.78 L1018.83 836.33 L1052.37 777.67 L1085.78 726.19 L1119.32 681.64 L1152.86 643.52 L1186.39 611.47 L1219.93 584.98 L1253.46 563.58 L1287.00 547.24 L1320.54 535.48 L1354.07 528.18 L1387.61 524.96 L1421.15 525.46 L1454.68 529.30 L1488.09 536.23 L1521.63 546.00 L1555.17 558.25 L1588.70 572.86 L1622.24 589.56 L1655.78 608.13 L1689.31 628.42 L1722.85 650.20 L1756.38 673.22 L1789.92 697.35 L1823.46 720.99 L1856.99 743.88 L1890.41 765.91 L1923.94 787.20 L1957.48 807.49 L1991.01 826.92 L2024.55 845.49 L2058.09 863.18 L2091.62 880.01 L2125.16 895.85 L2158.70 910.95 L2192.23 925.18 L2225.77 938.67 L2259.18 951.30 L2292.72 963.18 L2326.25 974.19 L2359.79 984.59 L2393.32 994.24 L2426.86 1003.27 L2460.40 1011.69 L2493.93 1019.73 L2527.47 1027.53 L2561.01 1035.20 L2594.54 1042.75 L2628.08 1049.93 L2661.49 1056.98 L2695.03 1063.91 L2728.56 1070.59 L2762.10 1077.15 L2795.64 1083.47 L2829.17 1089.65 L2862.71 1095.59 L2896.25 1101.41 L2929.78 1107.10 L2963.32 1112.55 L2996.85 1117.99 L3030.39 1123.19 L3063.80 1128.14 L3097.34 1133.09 L3130.88 1137.92 L3164.41 1142.50 L3197.95 1146.95 L3231.48 1151.41 L3265.02 1155.61 L3298.56 1159.70 L3332.09 1163.78 L3365.63 1167.62 L3399.17 1171.45 L3432.58 1175.04 L3466.11 1178.63 L3499.65 1181.97 L3533.19 1185.31 L3566.72 1188.66 L3600.26 1191.75 L3633.80 1194.72 L3667.33 1197.69 L3700.87 1200.54 L3734.40 1203.38 L3767.94 1205.98 L3801.48 1208.58" stroke-linejoin="round" style="fill:none;stroke:#FF0000;stroke-width:8.64"/>
	<path d=" M515.91 2351.57 L549.45 2253.43 L582.99 2167.55 L616.52 2089.83 L650.06 2017.81 L683.60 1950.61 L717.01 1887.37 L750.54 1827.47 L784.08 1770.67 L817.62 1716.47 L851.15 1664.61 L884.69 1615.11 L918.23 1567.59 L951.76 1522.05 L985.30 1478.24 L1018.83 1436.04 L1052.37 1395.57 L1085.78 1356.47 L1119.32 1318.97 L1152.86 1282.71 L1186.39 1247.81 L1219.93 1214.15 L1253.46 1181.60 L1287.00 1150.42 L1320.54 1120.47 L1354.07 1091.88 L1387.61 1064.53 L1421.15 1039.16 L1454.68 1016.76 L1488.09 997.21 L1521.63 980.50 L1555.17 966.64 L1588.70 955.38 L1622.24 946.84 L1655.78 940.90 L1689.31 937.44 L1722.85 936.32 L1756.38 937.44 L1789.92 940.65 L1823.46 944.74 L1856.99 949.69 L1890.41 955.13 L1923.94 961.07 L1957.48 967.51 L1991.01 974.44 L2024.55 981.74 L2058.09 989.41 L2091.62 997.33 L2125.16 1005.62 L2158.70 1014.04 L2192.23 1022.70 L2225.77 1031.49 L2259.18 1039.90 L2292.72 1047.82 L2326.25 1055.25 L2359.79 1062.30 L2393.32 1068.74 L2426.86 1074.68 L2460.40 1080.25 L2493.93 1085.69 L2527.47 1090.89 L2561.01 1096.09 L2594.54 1101.16 L2628.08 1105.99 L2661.49 1110.81 L2695.03 1115.39 L2728.56 1119.97 L2762.10 1124.30 L2795.64 1128.51 L2829.17 1132.72 L2862.71 1136.68 L2896.25 1140.52 L2929.78 1144.35 L2963.32 1147.94 L2996.85 1151.41 L3030.39 1154.75 L3063.80 1158.09 L3097.34 1161.18 L3130.88 1164.15 L3164.41 1167.12 L3197.95 1169.85 L3231.48 1172.57 L3265.02 1175.04 L3298.56 1177.52 L3332.09 1179.87 L3365.63 1182.10 L3399.17 1184.32 L3432.58 1186.30 L3466.11 1188.28 L3499.65 1190.14 L3533.19 1191.87 L3566.72 1193.48 L3600.26 1195.09 L3633.80 1196.58 L3667.33 1197.94 L3700.87 1199.17 L3734.40 1200.41 L3767.94 1201.53 L3801.48 1202.52" stroke-linejoin="round" style="fill:none;stroke:#0000FF;stroke-width:8.64"/>
	<line x1="482.50" y1="2489.19" x2="482.50" y2="100.86" style="stroke:#000000;stroke-width:5.76"/>
	<line x1="482.50" y1="2489.19" x2="442.41" y2="2489.19" style="stroke:#000000;stroke-width:5.76"/>
	<text x="422.48" y="2524.21" style="font-family:'Helvetica';font-size:99.99px;fill:#000000" text-anchor="end">0.0</text>
	<line x1="482.50" y1="2011.50" x2="442.41" y2="2011.50" style="stroke:#000000;stroke-width:5.76"/>
	<text x="422.48" y="2046.52" style="font-family:'Helvetica';font-size:99.99px;fill:#000000" text-anchor="end">20.0</text>
	<line x1="482.50" y1="1533.81" x2="442.41" y2="1533.81" style="stroke:#000000;stroke-width:5.76"/>
	<text x="422.48" y="1568.83" style="font-family:'Helvetica';font-size:99.99px;fill:#000000" text-anchor="end">40.0</text>
	<line x1="482.50" y1="1056.12" x2="442.41" y2="1056.12" style="stroke:#000000;stroke-width:5.76"/>
	<text x="422.48" y="1091.14" style="font-family:'Helvetica';font-size:99.99px;fill:#000000" text-anchor="end">60.0</text>
	<line x1="482.50" y1="578.43" x2="442.41" y2="578.43" style="stroke:#000000;stroke-width:5.76"/>
	<text x="422.48" y="613.45" style="font-family:'Helvetica';font-size:99.99px;fill:#000000" text-anchor="end">80.0</text>
	<line x1="482.50" y1="100.86" x2="442.41" y2="100.86" style="stroke:#000000;stroke-width:5.76"/>
	<text x="422.48" y="135.89" style="font-family:'Helvetica';font-size:99.99px;fill:#000000" text-anchor="end">100.0</text>
	<line x1="482.50" y1="2489.19" x2="3859.02" y2="2489.19" style="stroke:#000000;stroke-width:5.76"/>
	<line x1="482.50" y1="2489.19" x2="482.50" y2="2529.16" style="stroke:#000000;stroke-width:5.76"/>
	<text x="482.50" y="2619.14" style="font-family:'Helvetica';font-size:99.99px;fill:#000000" text-anchor="middle">0</text>
	<line x1="1146.30" y1="2489.19" x2="1146.30" y2="2529.16" style="stroke:#000000;stroke-width:5.76"/>
	<text x="1146.30" y="2619.14" style="font-family:'Helvetica';font-size:99.99px;fill:#000000" text-anchor="middle">2</text>
	<line x1="1810.09" y1="2489.19" x2="1810.09" y2="2529.16" style="stroke:#000000;stroke-width:5.76"/>
	<text x="1810.09" y="2619.14" style="font-family:'Helvetica';font-size:99.99px;fill:#000000" text-anchor="middle">4</text>
	<line x1="2473.89" y1="2489.19" x2="2473.89" y2="2529.16" style="stroke:#000000;stroke-width:5.76"/>
	<text x="2473.89" y="2619.14" style="font-family:'Helvetica';font-size:99.99px;fill:#000000" text-anchor="middle">6</text>
	<line x1="3137.68" y1="2489.19" x2="3137.68" y2="2529.16" style="stroke:#000000;stroke-width:5.76"/>
	<text x="3137.68" y="2619.14" style="font-family:'Helvetica';font-size:99.99px;fill:#000000" text-anchor="middle">8</text>
	<line x1="3801.48" y1="2489.19" x2="3801.48" y2="2529.16" style="stroke:#000000;stroke-width:5.76"/>
	<text x="3801.48" y="2619.14" style="font-family:'Helvetica';font-size:99.99px;fill:#000000" text-anchor="middle">10</text>
	<text x="2170.82" y="2729.16" style="font-family:'Helvetica';font-size:99.99px;fill:#000000" text-anchor="middle">Years from surgery</text>
</svg>
