<?xml version="1.0" encoding="UTF-8" standalone="no"?>
<!-- This is a Stata 18.5 generated SVG file (http://www.stata.com) -->

<svg version="1.1" width="700px" height="509px" viewBox="0 0 3960 2880" xmlns="http://www.w3.org/2000/svg" xmlns:xlink="http://www.w3.org/1999/xlink">
	<desc>Stata Graph - Graph</desc>
	<rect x="0" y="0" width="3960" height="2880" style="fill:#FFFFFF;stroke:none"/>
	<rect x="0.00" y="0.00" width="3959.88" height="2880.00" style="fill:#FFFFFF"/>
	<rect x="2.88" y="2.88" width="3954.12" height="2874.24" style="fill:none;stroke:#FFFFFF;stroke-width:5.76"/>
	<line x1="465.80" y1="2489.19" x2="3859.02" y2="2489.19" style="stroke:#C0C0C0;stroke-width:5.76"/>
	<line x1="465.80" y1="2011.50" x2="3859.02" y2="2011.50" style="stroke:#C0C0C0;stroke-width:5.76"/>
	<line x1="465.80" y1="1533.93" x2="3859.02" y2="1533.93" style="stroke:#C0C0C0;stroke-width:5.76"/>
	<line x1="465.80" y1="1056.24" x2="3859.02" y2="1056.24" style="stroke:#C0C0C0;stroke-width:5.76"/>
	<line x1="465.80" y1="578.55" x2="3859.02" y2="578.55" style="stroke:#C0C0C0;stroke-width:5.76"/>
	<line x1="465.80" y1="100.98" x2="3859.02" y2="100.98" style="stroke:#C0C0C0;stroke-width:5.76"/>
	<line x1="465.80" y1="2489.19" x2="465.80" y2="100.86" style="stroke:#C0C0C0;stroke-width:5.76"/>
	<line x1="1132.93" y1="2489.19" x2="1132.93" y2="100.86" style="stroke:#C0C0C0;stroke-width:5.76"/>
	<line x1="1800.07" y1="2489.19" x2="1800.07" y2="100.86" style="stroke:#C0C0C0;stroke-width:5.76"/>
	<line x1="2467.20" y1="2489.19" x2="2467.20" y2="100.86" style="stroke:#C0C0C0;stroke-width:5.76"/>
	<line x1="3134.34" y1="2489.19" x2="3134.34" y2="100.86" style="stroke:#C0C0C0;stroke-width:5.76"/>
	<line x1="3801.48" y1="2489.19" x2="3801.48" y2="100.86" style="stroke:#C0C0C0;stroke-width:5.76"/>
	<defs>
		<path id="path_QfeeZLhV" d="M465.80 100.98 L465.80 100.98 L499.08 101.85 L532.50 105.19 L565.91 111.38 L599.20 120.17 L632.61 131.55 L665.90 145.41 L699.31 161.62 L732.60 180.06 L766.01 200.61 L799.30 223.25 L832.71 247.76 L866.00 274.11 L899.42 302.08 L932.83 331.54 L966.12 362.23 L999.53 394.03 L1032.82 426.83 L1066.23 460.24 L1099.52 494.40 L1132.93 528.80 L1166.22 563.58 L1199.63 598.60 L1233.05 633.74 L1266.33 668.77 L1299.75 703.91 L1333.04 738.93 L1366.45 773.96 L1399.74 808.73 L1433.15 843.26 L1466.44 877.66 L1499.85 911.69 L1533.26 945.48 L1566.55 978.77 L1599.96 1011.69 L1633.25 1043.99 L1666.67 1075.79 L1699.95 1106.98 L1733.37 1137.42 L1766.66 1167.25 L1800.07 1196.45 L1833.36 1224.92 L1866.77 1252.64 L1900.18 1279.86 L1933.47 1306.59 L1966.88 1332.71 L2000.17 1358.45 L2033.58 1383.69 L2066.87 1408.57 L2100.29 1433.07 L2133.57 1457.08 L2166.99 1480.84 L2200.40 1504.23 L2233.69 1527.37 L2267.10 1550.14 L2300.39 1572.66 L2333.80 1594.82 L2367.09 1616.72 L2400.50 1638.25 L2433.79 1659.66 L2467.20 1680.58 L2500.62 1701.37 L2533.91 1721.79 L2567.32 1742.08 L2600.61 1762.01 L2634.02 1781.68 L2667.31 1801.11 L2700.72 1820.30 L2734.01 1839.23 L2767.42 1857.92 L2800.71 1876.48 L2834.12 1894.80 L2867.54 1912.99 L2900.82 1930.93 L2934.24 1948.63 L2967.53 1966.20 L3000.94 1983.65 L3034.23 2000.98 L3067.64 2018.18 L3100.93 2035.13 L3134.34 2052.09 L3167.75 2068.79 L3201.04 2085.38 L3234.45 2101.96 L3267.74 2118.42 L3301.16 2134.75 L3334.44 2150.97 L3367.86 2167.05 L3401.15 2183.14 L3434.56 2198.98 L3467.97 2214.95 L3501.26 2230.66 L3534.67 2246.38 L3567.96 2261.97 L3601.37 2277.57 L3634.66 2293.04 L3668.07 2308.38 L3701.36 2323.73 L3734.78 2338.95 L3768.06 2354.05 L3801.48 2369.14 L3801.48 2187.60 L3768.06 2174.36 L3734.78 2160.99 L3701.36 2147.50 L3668.07 2133.89 L3634.66 2120.03 L3601.37 2106.04 L3567.96 2091.94 L3534.67 2077.70 L3501.26 2063.22 L3467.97 2048.62 L3434.56 2033.89 L3401.15 2018.92 L3367.86 2003.82 L3334.44 1988.60 L3301.16 1973.13 L3267.74 1957.41 L3234.45 1941.57 L3201.04 1925.61 L3167.75 1909.40 L3134.34 1893.06 L3100.93 1876.48 L3067.64 1859.65 L3034.23 1842.82 L3000.94 1825.62 L2967.53 1808.42 L2934.24 1790.84 L2900.82 1773.27 L2867.54 1755.32 L2834.12 1737.38 L2800.71 1719.19 L2767.42 1700.75 L2734.01 1682.19 L2700.72 1663.50 L2667.31 1644.57 L2634.02 1625.51 L2600.61 1606.20 L2567.32 1586.77 L2533.91 1567.10 L2500.62 1547.29 L2467.20 1527.25 L2433.79 1506.95 L2400.50 1486.53 L2367.09 1465.86 L2333.80 1444.95 L2300.39 1423.66 L2267.10 1402.26 L2233.69 1380.35 L2200.40 1358.20 L2166.99 1335.68 L2133.57 1312.66 L2100.29 1289.39 L2066.87 1265.63 L2033.58 1241.38 L2000.17 1216.75 L1966.88 1191.75 L1933.47 1166.13 L1900.18 1140.14 L1866.77 1113.66 L1833.36 1086.81 L1800.07 1059.46 L1766.66 1031.61 L1733.37 1003.40 L1699.95 974.81 L1666.67 945.60 L1633.25 916.03 L1599.96 886.08 L1566.55 855.63 L1533.26 824.82 L1499.85 793.51 L1466.44 761.95 L1433.15 729.90 L1399.74 697.60 L1366.45 665.18 L1333.04 632.51 L1299.75 599.83 L1266.33 567.29 L1233.05 534.99 L1199.63 503.06 L1166.22 471.50 L1132.93 440.44 L1099.52 410.12 L1066.23 380.54 L1032.82 351.71 L999.53 323.86 L966.12 296.89 L932.83 271.02 L899.42 246.52 L866.00 223.25 L832.71 201.47 L799.30 181.42 L766.01 163.11 L732.60 147.02 L699.31 133.16 L665.90 121.65 L632.61 112.86 L599.20 106.55 L565.91 102.84 L532.50 101.11 L499.08 100.86 L465.80 100.98 L465.80 100.98 Z" stroke-linejoin="round"/>
	</defs>
	<defs>
		<clipPath id="clipPath_LglFnInY">
			<use xlink:href="#path_QfeeZLhV"/>
		</clipPath>
	</defs>
	<use xlink:href="#path_QfeeZLhV" style="stroke:none;fill:#FF3333;fill-opacity:0.25"/>
	<use xlink:href="#path_QfeeZLhV" style="fill:none;stroke:#FF0000;stroke-opacity:0.25;stroke-width:17.28" clip-path="url(#clipPath_LglFnInY)"/>
	<defs>
		<path id="path_AwfKZxfy" d="M465.80 100.98 L465.80 100.98 L499.08 101.60 L532.50 104.32 L565.91 109.27 L599.20 116.33 L632.61 125.61 L665.90 136.87 L699.31 150.24 L732.60 165.46 L766.01 182.66 L799.30 201.60 L832.71 222.26 L866.00 244.66 L899.42 268.42 L932.83 293.54 L966.12 319.78 L999.53 347.13 L1032.82 375.35 L1066.23 404.30 L1099.52 434.00 L1132.93 464.08 L1166.22 494.52 L1199.63 525.34 L1233.05 556.40 L1266.33 587.58 L1299.75 618.89 L1333.04 650.33 L1366.45 681.64 L1399.74 712.95 L1433.15 744.13 L1466.44 775.19 L1499.85 805.89 L1533.26 836.45 L1566.55 866.65 L1599.96 896.47 L1633.25 925.80 L1666.67 954.76 L1699.95 983.22 L1733.37 1011.19 L1766.66 1038.67 L1800.07 1065.52 L1833.36 1091.88 L1866.77 1117.74 L1900.18 1143.11 L1933.47 1167.99 L1966.88 1192.49 L2000.17 1216.50 L2033.58 1240.26 L2066.87 1263.53 L2100.29 1286.55 L2133.57 1309.07 L2166.99 1331.47 L2200.40 1353.50 L2233.69 1375.15 L2267.10 1396.56 L2300.39 1417.72 L2333.80 1438.64 L2367.09 1459.31 L2400.50 1479.72 L2433.79 1499.90 L2467.20 1519.82 L2500.62 1539.62 L2533.91 1559.05 L2567.32 1578.36 L2600.61 1597.41 L2634.02 1616.23 L2667.31 1634.91 L2700.72 1653.35 L2734.01 1671.67 L2767.42 1689.74 L2800.71 1707.68 L2834.12 1725.38 L2867.54 1742.95 L2900.82 1760.40 L2934.24 1777.60 L2967.53 1794.68 L3000.94 1811.63 L3034.23 1828.46 L3067.64 1845.17 L3100.93 1861.63 L3134.34 1878.09 L3167.75 1894.30 L3201.04 1910.51 L3234.45 1926.48 L3267.74 1942.44 L3301.16 1958.16 L3334.44 1973.87 L3367.86 1989.47 L3401.15 2004.81 L3434.56 2020.28 L3467.97 2035.50 L3501.26 2050.60 L3534.67 2065.70 L3567.96 2080.67 L3601.37 2095.52 L3634.66 2110.25 L3668.07 2124.98 L3701.36 2139.58 L3734.78 2154.06 L3768.06 2168.54 L3801.48 2182.89 L3801.48 1752.85 L3768.06 1740.97 L3734.78 1729.09 L3701.36 1716.96 L3668.07 1704.96 L3634.66 1692.71 L3601.37 1680.45 L3567.96 1668.08 L3534.67 1655.58 L3501.26 1642.96 L3467.97 1630.33 L3434.56 1617.59 L3401.15 1604.72 L3367.86 1591.72 L3334.44 1578.60 L3301.16 1565.36 L3267.74 1552.12 L3234.45 1538.63 L3201.04 1525.14 L3167.75 1511.53 L3134.34 1497.67 L3100.93 1483.81 L3067.64 1469.82 L3034.23 1455.72 L3000.94 1441.49 L2967.53 1427.13 L2934.24 1412.65 L2900.82 1398.05 L2867.54 1383.44 L2834.12 1368.59 L2800.71 1353.62 L2767.42 1338.52 L2734.01 1323.30 L2700.72 1307.95 L2667.31 1292.49 L2634.02 1276.77 L2600.61 1261.05 L2567.32 1245.21 L2533.91 1229.12 L2500.62 1213.04 L2467.20 1196.70 L2433.79 1180.24 L2400.50 1163.66 L2367.09 1146.83 L2333.80 1129.87 L2300.39 1112.67 L2267.10 1095.35 L2233.69 1077.77 L2200.40 1059.95 L2166.99 1041.88 L2133.57 1023.57 L2100.29 1005.01 L2066.87 986.19 L2033.58 967.01 L2000.17 947.58 L1966.88 927.91 L1933.47 907.86 L1900.18 887.44 L1866.77 866.77 L1833.36 845.73 L1800.07 824.45 L1766.66 802.79 L1733.37 780.76 L1699.95 758.49 L1666.67 735.96 L1633.25 713.07 L1599.96 689.93 L1566.55 666.41 L1533.26 642.78 L1499.85 618.89 L1466.44 594.76 L1433.15 570.51 L1399.74 546.00 L1366.45 521.50 L1333.04 497.00 L1299.75 472.49 L1266.33 448.11 L1233.05 423.98 L1199.63 400.10 L1166.22 376.58 L1132.93 353.44 L1099.52 330.92 L1066.23 308.89 L1032.82 287.48 L999.53 266.69 L966.12 246.77 L932.83 227.58 L899.42 209.39 L866.00 192.19 L832.71 176.10 L799.30 161.13 L766.01 147.64 L732.60 135.63 L699.31 125.24 L665.90 116.70 L632.61 110.02 L599.20 105.19 L565.91 102.34 L532.50 100.98 L499.08 100.86 L465.80 100.98 L465.80 100.98 Z" stroke-linejoin="round"/>
	</defs>
	<defs>
		<clipPath id="clipPath_zkvNluGH">
			<use xlink:href="#path_AwfKZxfy"/>
		</clipPath>
	</defs>
	<use xlink:href="#path_AwfKZxfy" style="stroke:none;fill:#3333FF;fill-opacity:0.25"/>
	<use xlink:href="#path_AwfKZxfy" style="fill:none;stroke:#0000FF;stroke-opacity:0.25;stroke-width:17.28" clip-path="url(#clipPath_zkvNluGH)"/>
	<path d=" M465.67 100.98 L499.08 101.35 L532.37 103.21 L565.79 107.17 L599.20 113.48 L632.49 122.27 L665.90 133.65 L699.19 147.39 L732.60 163.60 L765.89 181.92 L799.30 202.34 L832.59 224.74 L866.00 248.75 L899.42 274.49 L932.70 301.46 L966.12 329.80 L999.41 359.13 L1032.82 389.45 L1066.11 420.64 L1099.52 452.57 L1132.81 484.99 L1166.22 517.91 L1199.63 551.08 L1232.92 584.74 L1266.33 618.40 L1299.62 652.31 L1333.04 686.09 L1366.32 720.00 L1399.74 753.66 L1433.03 787.07 L1466.44 820.24 L1499.73 853.16 L1533.14 885.71 L1566.55 917.76 L1599.84 949.44 L1633.25 980.63 L1666.54 1011.32 L1699.95 1041.51 L1733.24 1071.09 L1766.66 1100.17 L1799.94 1128.64 L1833.36 1156.48 L1866.77 1183.95 L1900.06 1210.81 L1933.47 1237.17 L1966.76 1263.03 L2000.17 1288.40 L2033.46 1313.28 L2066.87 1337.90 L2100.16 1362.04 L2133.57 1385.67 L2166.99 1409.06 L2200.28 1432.08 L2233.69 1454.73 L2266.98 1477.00 L2300.39 1499.03 L2333.68 1520.81 L2367.09 1542.22 L2400.38 1563.38 L2433.79 1584.30 L2467.08 1604.84 L2500.49 1625.26 L2533.91 1645.43 L2567.19 1665.36 L2600.61 1685.16 L2633.90 1704.59 L2667.31 1723.89 L2700.60 1742.95 L2734.01 1761.76 L2767.30 1780.45 L2800.71 1798.89 L2834.12 1817.20 L2867.41 1835.27 L2900.82 1853.09 L2934.11 1870.91 L2967.53 1888.36 L3000.81 1905.81 L3034.23 1923.01 L3067.52 1940.09 L3100.93 1956.92 L3134.34 1973.63 L3167.63 1990.21 L3201.04 2006.67 L3234.33 2023.00 L3267.74 2039.09 L3301.03 2055.06 L3334.44 2071.02 L3367.73 2086.74 L3401.15 2102.33 L3434.43 2117.80 L3467.85 2133.15 L3501.26 2148.37 L3534.55 2163.47 L3567.96 2178.44 L3601.25 2193.29 L3634.66 2208.02 L3667.95 2222.62 L3701.36 2237.10 L3734.65 2251.58 L3768.06 2265.81 L3801.48 2280.04" stroke-linejoin="round" style="fill:none;stroke:#FF0000;stroke-width:8.64"/>
	<path d=" M465.67 100.98 L499.08 101.23 L532.37 102.72 L565.79 105.81 L599.20 110.88 L632.49 117.81 L665.90 126.85 L699.19 137.74 L732.60 150.61 L765.89 165.21 L799.30 181.55 L832.59 199.24 L866.00 218.55 L899.42 239.09 L932.70 260.75 L966.12 283.52 L999.41 307.16 L1032.82 331.66 L1066.11 356.91 L1099.52 382.77 L1132.81 409.13 L1166.22 435.98 L1199.63 463.21 L1232.92 490.81 L1266.33 518.53 L1299.62 546.37 L1333.04 574.34 L1366.32 602.43 L1399.74 630.40 L1433.03 658.25 L1466.44 685.97 L1499.73 713.44 L1533.14 740.79 L1566.55 767.77 L1599.84 794.50 L1633.25 820.86 L1666.54 846.97 L1699.95 872.59 L1733.24 897.71 L1766.66 922.59 L1799.94 946.84 L1833.36 970.85 L1866.77 994.36 L1900.06 1017.38 L1933.47 1040.15 L1966.76 1062.55 L2000.17 1084.46 L2033.46 1106.11 L2066.87 1127.52 L2100.16 1148.44 L2133.57 1169.23 L2166.99 1189.52 L2200.28 1209.69 L2233.69 1229.62 L2266.98 1249.17 L2300.39 1268.48 L2333.68 1287.66 L2367.09 1306.59 L2400.38 1325.28 L2433.79 1343.72 L2467.08 1362.04 L2500.49 1380.10 L2533.91 1398.05 L2567.19 1415.87 L2600.61 1433.44 L2633.90 1450.77 L2667.31 1468.09 L2700.60 1485.05 L2734.01 1502.00 L2767.30 1518.71 L2800.71 1535.41 L2834.12 1551.75 L2867.41 1568.09 L2900.82 1584.30 L2934.11 1600.26 L2967.53 1616.23 L3000.81 1631.94 L3034.23 1647.54 L3067.52 1663.00 L3100.93 1678.35 L3134.34 1693.57 L3167.63 1708.79 L3201.04 1723.77 L3234.33 1738.62 L3267.74 1753.34 L3301.03 1768.07 L3334.44 1782.55 L3367.73 1797.03 L3401.15 1811.39 L3434.43 1825.62 L3467.85 1839.72 L3501.26 1853.71 L3534.55 1867.69 L3567.96 1881.55 L3601.25 1895.29 L3634.66 1908.90 L3667.95 1922.52 L3701.36 1935.88 L3734.65 1949.37 L3768.06 1962.61 L3801.48 1975.85" stroke-linejoin="round" style="fill:none;stroke:#0000FF;stroke-width:8.64"/>
	<line x1="465.80" y1="2489.19" x2="465.80" y2="100.86" style="stroke:#000000;stroke-width:5.76"/>
	<line x1="465.80" y1="2489.19" x2="425.82" y2="2489.19" style="stroke:#000000;stroke-width:5.76"/>
	<text x="405.78" y="2524.21" style="font-family:'Helvetica';font-size:99.99px;fill:#000000" text-anchor="end">0.5</text>
	<line x1="465.80" y1="2011.50" x2="425.82" y2="2011.50" style="stroke:#000000;stroke-width:5.76"/>
	<text x="405.78" y="2046.52" style="font-family:'Helvetica';font-size:99.99px;fill:#000000" text-anchor="end">0.6</text>
	<line x1="465.80" y1="1533.93" x2="425.82" y2="1533.93" style="stroke:#000000;stroke-width:5.76"/>
	<text x="405.78" y="1568.96" style="font-family:'Helvetica';font-size:99.99px;fill:#000000" text-anchor="end">0.7</text>
	<line x1="465.80" y1="1056.24" x2="425.82" y2="1056.24" style="stroke:#000000;stroke-width:5.76"/>
	<text x="405.78" y="1091.27" style="font-family:'Helvetica';font-size:99.99px;fill:#000000" text-anchor="end">0.8</text>
	<line x1="465.80" y1="578.55" x2="425.82" y2="578.55" style="stroke:#000000;stroke-width:5.76"/>
	<text x="405.78" y="613.58" style="font-family:'Helvetica';font-size:99.99px;fill:#000000" text-anchor="end">0.9</text>
	<line x1="465.80" y1="100.98" x2="425.82" y2="100.98" style="stroke:#000000;stroke-width:5.76"/>
	<text x="405.78" y="136.01" style="font-family:'Helvetica';font-size:99.99px;fill:#000000" text-anchor="end">1.0</text>
	<text x="190.71" y="1294.96" style="font-family:'Helvetica';font-size:99.99px;fill:#000000" transform="rotate(-90 190.71,1294.96)" text-anchor="middle">S(t)</text>
	<line x1="465.80" y1="2489.19" x2="3859.02" y2="2489.19" style="stroke:#000000;stroke-width:5.76"/>
	<line x1="465.80" y1="2489.19" x2="465.80" y2="2529.16" style="stroke:#000000;stroke-width:5.76"/>
	<text x="465.80" y="2619.14" style="font-family:'Helvetica';font-size:99.99px;fill:#000000" text-anchor="middle">0</text>
	<line x1="1132.93" y1="2489.19" x2="1132.93" y2="2529.16" style="stroke:#000000;stroke-width:5.76"/>
	<text x="1132.93" y="2619.14" style="font-family:'Helvetica';font-size:99.99px;fill:#000000" text-anchor="middle">2</text>
	<line x1="1800.07" y1="2489.19" x2="1800.07" y2="2529.16" style="stroke:#000000;stroke-width:5.76"/>
	<text x="1800.07" y="2619.14" style="font-family:'Helvetica';font-size:99.99px;fill:#000000" text-anchor="middle">4</text>
	<line x1="2467.20" y1="2489.19" x2="2467.20" y2="2529.16" style="stroke:#000000;stroke-width:5.76"/>
	<text x="2467.20" y="2619.14" style="font-family:'Helvetica';font-size:99.99px;fill:#000000" text-anchor="middle">6</text>
	<line x1="3134.34" y1="2489.19" x2="3134.34" y2="2529.16" style="stroke:#000000;stroke-width:5.76"/>
	<text x="3134.34" y="2619.14" style="font-family:'Helvetica';font-size:99.99px;fill:#000000" text-anchor="middle">8</text>
	<line x1="3801.48" y1="2489.19" x2="3801.48" y2="2529.16" style="stroke:#000000;stroke-width:5.76"/>
	<text x="3801.48" y="2619.14" style="font-family:'Helvetica';font-size:99.99px;fill:#000000" text-anchor="middle">10</text>
	<text x="2162.41" y="2729.16" style="font-family:'Helvetica';font-size:99.99px;fill:#000000" text-anchor="middle">Years from surgery</text>
	<rect x="2453.84" y="178.58" width="199.98" height="99.99" style="fill:#FF3333;fill-opacity:0.25"/>
	<rect x="2458.16" y="182.90" width="191.34" height="91.35" style="fill:none;stroke:#FF0000;stroke-opacity:0.25;stroke-width:8.64"/>
	<rect x="2453.84" y="318.54" width="199.98" height="99.99" style="fill:#3333FF;fill-opacity:0.25"/>
	<rect x="2458.16" y="322.86" width="191.34" height="91.35" style="fill:none;stroke:#0000FF;stroke-opacity:0.25;stroke-width:8.64"/>
	<text x="2713.84" y="263.60" style="font-family:'Helvetica';font-size:99.99px;fill:#000000">No hormonal treatment</text>
	<text x="2713.84" y="403.57" style="font-family:'Helvetica';font-size:99.99px;fill:#000000">Hormonal treatment</text>
</svg>
