<?xml version="1.0" encoding="UTF-8" standalone="no"?>
<!-- This is a Stata 18.5 generated SVG file (http://www.stata.com) -->

<svg version="1.1" width="700px" height="509px" viewBox="0 0 3960 2880" xmlns="http://www.w3.org/2000/svg" xmlns:xlink="http://www.w3.org/1999/xlink">
	<desc>Stata Graph - RS_ICSS</desc>
	<rect x="0" y="0" width="3960" height="2880" style="fill:#FFFFFF;stroke:none"/>
	<rect x="0.00" y="0.00" width="3959.88" height="2880.00" style="fill:#FFFFFF"/>
	<rect x="2.88" y="2.88" width="3954.12" height="2874.24" style="fill:none;stroke:#FFFFFF;stroke-width:5.76"/>
	<line x1="465.80" y1="2489.19" x2="3859.02" y2="2489.19" style="stroke:#C0C0C0;stroke-opacity:0.50;stroke-width:5.76"/>
	<line x1="465.80" y1="1693.08" x2="3859.02" y2="1693.08" style="stroke:#C0C0C0;stroke-opacity:0.50;stroke-width:5.76"/>
	<line x1="465.80" y1="896.97" x2="3859.02" y2="896.97" style="stroke:#C0C0C0;stroke-opacity:0.50;stroke-width:5.76"/>
	<line x1="465.80" y1="100.86" x2="3859.02" y2="100.86" style="stroke:#C0C0C0;stroke-opacity:0.50;stroke-width:5.76"/>
	<line x1="465.80" y1="2489.19" x2="465.80" y2="100.86" style="stroke:#C0C0C0;stroke-opacity:0.50;stroke-width:5.76"/>
	<line x1="1132.93" y1="2489.19" x2="1132.93" y2="100.86" style="stroke:#C0C0C0;stroke-opacity:0.50;stroke-width:5.76"/>
	<line x1="1800.07" y1="2489.19" x2="1800.07" y2="100.86" style="stroke:#C0C0C0;stroke-opacity:0.50;stroke-width:5.76"/>
	<line x1="2467.20" y1="2489.19" x2="2467.20" y2="100.86" style="stroke:#C0C0C0;stroke-opacity:0.50;stroke-width:5.76"/>
	<line x1="3134.34" y1="2489.19" x2="3134.34" y2="100.86" style="stroke:#C0C0C0;stroke-opacity:0.50;stroke-width:5.76"/>
	<line x1="3801.48" y1="2489.19" x2="3801.48" y2="100.86" style="stroke:#C0C0C0;stroke-opacity:0.50;stroke-width:5.76"/>
	<defs>
		<path id="path_qLbdceds" d="M465.80 100.86 L465.80 100.86 L499.08 129.32 L532.50 175.98 L565.91 227.34 L599.20 279.56 L632.61 330.92 L665.90 380.54 L699.31 427.94 L732.60 473.11 L766.01 516.18 L799.30 557.51 L832.71 596.99 L866.00 635.10 L899.42 671.74 L932.83 707.01 L966.12 741.04 L999.53 773.59 L1032.82 805.02 L1066.23 835.34 L1099.52 864.54 L1132.93 892.76 L1166.22 920.11 L1199.63 946.59 L1233.05 972.33 L1266.33 997.33 L1299.75 1021.59 L1333.04 1045.10 L1366.45 1067.87 L1399.74 1090.02 L1433.15 1111.56 L1466.44 1132.47 L1499.85 1152.77 L1533.26 1172.44 L1566.55 1191.75 L1599.96 1210.44 L1633.25 1228.63 L1666.67 1246.33 L1699.95 1263.65 L1733.37 1280.48 L1766.66 1296.94 L1800.07 1313.15 L1833.36 1328.99 L1866.77 1344.46 L1900.18 1359.68 L1933.47 1374.53 L1966.88 1389.26 L2000.17 1403.74 L2033.58 1417.85 L2066.87 1431.83 L2100.29 1445.57 L2133.57 1459.18 L2166.99 1472.55 L2200.40 1485.67 L2233.69 1498.66 L2267.10 1511.53 L2300.39 1524.28 L2333.80 1536.78 L2367.09 1549.15 L2400.50 1561.40 L2433.79 1573.53 L2467.20 1585.53 L2500.62 1597.41 L2533.91 1609.17 L2567.32 1620.80 L2600.61 1632.31 L2634.02 1643.70 L2667.31 1654.96 L2700.72 1666.22 L2734.01 1677.36 L2767.42 1688.37 L2800.71 1699.26 L2834.12 1710.15 L2867.54 1720.92 L2900.82 1731.69 L2934.24 1742.21 L2967.53 1752.85 L3000.94 1763.37 L3034.23 1773.76 L3067.64 1784.04 L3100.93 1794.43 L3134.34 1804.58 L3167.75 1814.85 L3201.04 1824.87 L3234.45 1835.02 L3267.74 1845.05 L3301.16 1854.95 L3334.44 1864.85 L3367.86 1874.75 L3401.15 1884.52 L3434.56 1894.30 L3467.97 1903.95 L3501.26 1913.61 L3534.67 1923.26 L3567.96 1932.79 L3601.37 1942.32 L3634.66 1951.72 L3668.07 1961.13 L3701.36 1970.53 L3734.78 1979.94 L3768.06 1989.22 L3801.48 1998.38 L3801.48 1825.49 L3768.06 1817.94 L3734.78 1810.40 L3701.36 1802.72 L3668.07 1794.93 L3634.66 1787.13 L3601.37 1779.33 L3567.96 1771.41 L3534.67 1763.37 L3501.26 1755.32 L3467.97 1747.16 L3434.56 1738.99 L3401.15 1730.70 L3367.86 1722.28 L3334.44 1713.87 L3301.16 1705.33 L3267.74 1696.67 L3234.45 1688.00 L3201.04 1679.22 L3167.75 1670.31 L3134.34 1661.40 L3100.93 1652.36 L3067.64 1643.20 L3034.23 1633.92 L3000.94 1624.52 L2967.53 1615.11 L2934.24 1605.58 L2900.82 1595.93 L2867.54 1586.15 L2834.12 1576.38 L2800.71 1566.35 L2767.42 1556.33 L2734.01 1546.18 L2700.72 1535.91 L2667.31 1525.51 L2634.02 1514.99 L2600.61 1504.35 L2567.32 1493.71 L2533.91 1482.82 L2500.62 1471.80 L2467.20 1460.79 L2433.79 1449.53 L2400.50 1438.27 L2367.09 1426.76 L2333.80 1415.13 L2300.39 1403.49 L2267.10 1391.61 L2233.69 1379.61 L2200.40 1367.48 L2166.99 1355.10 L2133.57 1342.73 L2100.29 1330.11 L2066.87 1317.36 L2033.58 1304.37 L2000.17 1291.12 L1966.88 1277.63 L1933.47 1264.02 L1900.18 1250.04 L1866.77 1235.93 L1833.36 1221.45 L1800.07 1206.60 L1766.66 1191.50 L1733.37 1176.03 L1699.95 1160.19 L1666.67 1143.86 L1633.25 1127.27 L1599.96 1110.20 L1566.55 1092.62 L1533.26 1074.55 L1499.85 1055.99 L1466.44 1037.06 L1433.15 1017.50 L1399.74 997.46 L1366.45 976.91 L1333.04 955.75 L1299.75 933.97 L1266.33 911.45 L1233.05 888.18 L1199.63 864.17 L1166.22 839.30 L1132.93 813.56 L1099.52 786.83 L1066.23 759.23 L1032.82 730.64 L999.53 701.07 L966.12 670.37 L932.83 638.69 L899.42 605.90 L866.00 571.87 L832.71 536.72 L799.30 500.21 L766.01 462.10 L732.60 422.37 L699.31 380.79 L665.90 337.48 L632.61 292.43 L599.20 246.27 L565.91 199.74 L532.50 154.94 L499.08 117.32 L465.80 100.86 L465.80 100.86 Z" stroke-linejoin="round"/>
	</defs>
	<defs>
		<clipPath id="clipPath_ieCTRrqX">
			<use xlink:href="#path_qLbdceds"/>
		</clipPath>
	</defs>
	<use xlink:href="#path_qLbdceds" style="stroke:none;fill:#E94849;fill-opacity:0.30"/>
	<use xlink:href="#path_qLbdceds" style="fill:none;stroke:#E41A1C;stroke-opacity:0.30;stroke-width:17.28" clip-path="url(#clipPath_ieCTRrqX)"/>
	<path d=" M465.67 100.86 L499.08 123.38 L532.37 165.46 L565.79 213.60 L599.20 262.98 L632.49 311.74 L665.90 359.13 L699.19 404.43 L732.60 447.87 L765.89 489.32 L799.30 528.92 L832.59 567.04 L866.00 603.67 L899.42 638.94 L932.70 672.97 L966.12 705.89 L999.41 737.45 L1032.82 768.02 L1066.11 797.47 L1099.52 825.81 L1132.81 853.28 L1166.22 879.89 L1199.63 905.51 L1232.92 930.38 L1266.33 954.51 L1299.62 977.90 L1333.04 1000.55 L1366.32 1022.58 L1399.74 1043.99 L1433.03 1064.78 L1466.44 1084.95 L1499.73 1104.63 L1533.14 1123.81 L1566.55 1142.37 L1599.84 1160.56 L1633.25 1178.14 L1666.54 1195.34 L1699.95 1212.17 L1733.24 1228.50 L1766.66 1244.47 L1799.94 1260.19 L1833.36 1275.41 L1866.77 1290.51 L1900.06 1305.11 L1933.47 1319.59 L1966.76 1333.82 L2000.17 1347.68 L2033.46 1361.42 L2066.87 1374.91 L2100.16 1388.15 L2133.57 1401.27 L2166.99 1414.14 L2200.28 1426.88 L2233.69 1439.50 L2266.98 1451.88 L2300.39 1464.13 L2333.68 1476.26 L2367.09 1488.26 L2400.38 1500.14 L2433.79 1511.90 L2467.08 1523.53 L2500.49 1535.04 L2533.91 1546.30 L2567.19 1557.57 L2600.61 1568.70 L2633.90 1579.72 L2667.31 1590.61 L2700.60 1601.50 L2734.01 1612.14 L2767.30 1622.78 L2800.71 1633.30 L2834.12 1643.70 L2867.41 1653.97 L2900.82 1664.24 L2934.11 1674.39 L2967.53 1684.41 L3000.81 1694.44 L3034.23 1704.21 L3067.52 1714.11 L3100.93 1723.77 L3134.34 1733.42 L3167.63 1743.07 L3201.04 1752.60 L3234.33 1762.01 L3267.74 1771.29 L3301.03 1780.69 L3334.44 1789.85 L3367.73 1799.01 L3401.15 1808.17 L3434.43 1817.20 L3467.85 1826.11 L3501.26 1835.02 L3534.55 1843.93 L3567.96 1852.72 L3601.25 1861.38 L3634.66 1870.04 L3667.95 1878.71 L3701.36 1887.25 L3734.65 1895.79 L3768.06 1904.20 L3801.48 1912.62" stroke-linejoin="round" style="fill:none;stroke:#E41A1C;stroke-width:8.64"/>
	<defs>
		<path id="path_xIGPJtbV" d="M465.80 100.86 L465.80 100.86 L499.08 139.72 L532.50 199.86 L565.91 264.59 L599.20 329.06 L632.61 391.19 L665.90 449.72 L699.31 504.42 L732.60 555.90 L766.01 604.54 L799.30 650.82 L832.71 695.25 L866.00 737.94 L899.42 779.03 L932.83 818.76 L966.12 857.12 L999.53 894.25 L1032.82 930.26 L1066.23 965.16 L1099.52 999.06 L1132.93 1032.11 L1166.22 1064.16 L1199.63 1095.22 L1233.05 1125.42 L1266.33 1154.75 L1299.75 1183.21 L1333.04 1210.68 L1366.45 1237.29 L1399.74 1263.03 L1433.15 1287.91 L1466.44 1312.04 L1499.85 1335.43 L1533.26 1358.07 L1566.55 1380.10 L1599.96 1401.64 L1633.25 1422.43 L1666.67 1442.85 L1699.95 1462.77 L1733.37 1482.20 L1766.66 1501.13 L1800.07 1519.82 L1833.36 1538.01 L1866.77 1555.96 L1900.18 1573.53 L1933.47 1590.73 L1966.88 1607.81 L2000.17 1624.39 L2033.58 1640.85 L2066.87 1657.06 L2100.29 1673.03 L2133.57 1688.62 L2166.99 1704.21 L2200.40 1719.44 L2233.69 1734.53 L2267.10 1749.38 L2300.39 1763.99 L2333.80 1778.47 L2367.09 1792.82 L2400.50 1806.93 L2433.79 1820.91 L2467.20 1834.77 L2500.62 1848.51 L2533.91 1862.00 L2567.32 1875.49 L2600.61 1888.73 L2634.02 1901.85 L2667.31 1914.97 L2700.72 1927.84 L2734.01 1940.71 L2767.42 1953.45 L2800.71 1966.08 L2834.12 1978.58 L2867.54 1990.95 L2900.82 2003.33 L2934.24 2015.58 L2967.53 2027.71 L3000.94 2039.83 L3034.23 2051.84 L3067.64 2063.72 L3100.93 2075.60 L3134.34 2087.48 L3167.75 2099.11 L3201.04 2110.75 L3234.45 2122.38 L3267.74 2133.89 L3301.16 2145.40 L3334.44 2156.78 L3367.86 2168.04 L3401.15 2179.31 L3434.56 2190.57 L3467.97 2201.71 L3501.26 2212.84 L3534.67 2223.86 L3567.96 2234.87 L3601.37 2245.76 L3634.66 2256.65 L3668.07 2267.42 L3701.36 2278.18 L3734.78 2288.95 L3768.06 2299.59 L3801.48 2310.11 L3801.48 2068.92 L3768.06 2060.50 L3734.78 2052.09 L3701.36 2043.55 L3668.07 2035.01 L3634.66 2026.22 L3601.37 2017.44 L3567.96 2008.65 L3534.67 1999.74 L3501.26 1990.70 L3467.97 1981.55 L3434.56 1972.39 L3401.15 1962.98 L3367.86 1953.70 L3334.44 1944.17 L3301.16 1934.52 L3267.74 1924.87 L3234.45 1915.09 L3201.04 1905.19 L3167.75 1895.17 L3134.34 1885.02 L3100.93 1874.75 L3067.64 1864.48 L3034.23 1853.96 L3000.94 1843.31 L2967.53 1832.67 L2934.24 1821.78 L2900.82 1810.89 L2867.54 1799.75 L2834.12 1788.61 L2800.71 1777.23 L2767.42 1765.84 L2734.01 1754.21 L2700.72 1742.45 L2667.31 1730.57 L2634.02 1718.57 L2600.61 1706.44 L2567.32 1694.19 L2533.91 1681.69 L2500.62 1669.19 L2467.20 1656.45 L2433.79 1643.58 L2400.50 1630.46 L2367.09 1617.34 L2333.80 1603.97 L2300.39 1590.48 L2267.10 1576.87 L2233.69 1563.01 L2200.40 1549.03 L2166.99 1534.92 L2133.57 1520.56 L2100.29 1506.08 L2066.87 1491.36 L2033.58 1476.51 L2000.17 1461.41 L1966.88 1446.06 L1933.47 1430.47 L1900.18 1414.63 L1866.77 1398.54 L1833.36 1382.08 L1800.07 1365.25 L1766.66 1348.05 L1733.37 1330.60 L1699.95 1312.66 L1666.67 1294.22 L1633.25 1275.41 L1599.96 1255.98 L1566.55 1236.18 L1533.26 1215.63 L1499.85 1194.72 L1466.44 1173.06 L1433.15 1150.79 L1399.74 1127.89 L1366.45 1104.26 L1333.04 1079.88 L1299.75 1054.75 L1266.33 1028.89 L1233.05 1002.16 L1199.63 974.56 L1166.22 945.97 L1132.93 916.40 L1099.52 885.83 L1066.23 854.27 L1032.82 821.60 L999.53 788.06 L966.12 753.54 L932.83 718.14 L899.42 681.76 L866.00 644.26 L832.71 605.53 L799.30 565.43 L766.01 523.48 L732.60 479.42 L699.31 433.01 L665.90 383.76 L632.61 331.91 L599.20 277.70 L565.91 222.14 L532.50 167.44 L499.08 120.78 L465.80 100.86 L465.80 100.86 Z" stroke-linejoin="round"/>
	</defs>
	<defs>
		<clipPath id="clipPath_ydwHhWLD">
			<use xlink:href="#path_xIGPJtbV"/>
		</clipPath>
	</defs>
	<use xlink:href="#path_xIGPJtbV" style="stroke:none;fill:#5F98C6;fill-opacity:0.30"/>
	<use xlink:href="#path_xIGPJtbV" style="fill:none;stroke:#377EB8;stroke-opacity:0.30;stroke-width:17.28" clip-path="url(#clipPath_ydwHhWLD)"/>
	<path d=" M465.67 100.86 L499.08 130.31 L532.37 183.77 L565.79 243.42 L599.20 303.44 L632.49 361.61 L665.90 416.93 L699.19 468.90 L732.60 517.79 L765.89 564.19 L799.30 608.25 L832.59 650.57 L866.00 691.29 L899.42 730.64 L932.70 768.64 L966.12 805.51 L999.41 841.40 L1032.82 876.18 L1066.11 909.96 L1099.52 942.76 L1132.81 974.56 L1166.22 1005.38 L1199.63 1035.20 L1232.92 1064.16 L1266.33 1092.25 L1299.62 1119.35 L1333.04 1145.71 L1366.32 1171.21 L1399.74 1195.83 L1433.03 1219.72 L1466.44 1242.98 L1499.73 1265.51 L1533.14 1287.29 L1566.55 1308.57 L1599.84 1329.24 L1633.25 1349.41 L1666.54 1368.97 L1699.95 1388.15 L1733.24 1406.83 L1766.66 1425.15 L1799.94 1442.97 L1833.36 1460.54 L1866.77 1477.74 L1900.06 1494.58 L1933.47 1511.16 L1966.76 1527.49 L2000.17 1543.46 L2033.46 1559.30 L2066.87 1574.77 L2100.16 1590.11 L2133.57 1605.21 L2166.99 1620.19 L2200.28 1634.91 L2233.69 1649.39 L2266.98 1663.75 L2300.39 1677.85 L2333.68 1691.96 L2367.09 1705.70 L2400.38 1719.44 L2433.79 1732.93 L2467.08 1746.29 L2500.49 1759.53 L2533.91 1772.53 L2567.19 1785.52 L2600.61 1798.27 L2633.90 1811.01 L2667.31 1823.51 L2700.60 1835.89 L2734.01 1848.26 L2767.30 1860.39 L2800.71 1872.40 L2834.12 1884.40 L2867.41 1896.16 L2900.82 1907.91 L2934.11 1919.55 L2967.53 1931.06 L3000.81 1942.44 L3034.23 1953.70 L3067.52 1964.96 L3100.93 1976.10 L3134.34 1987.12 L3167.63 1998.01 L3201.04 2008.90 L3234.33 2019.66 L3267.74 2030.31 L3301.03 2040.95 L3334.44 2051.47 L3367.73 2061.86 L3401.15 2072.26 L3434.43 2082.53 L3467.85 2092.68 L3501.26 2102.83 L3534.55 2112.85 L3567.96 2122.87 L3601.25 2132.77 L3634.66 2142.67 L3667.95 2152.45 L3701.36 2162.10 L3734.65 2171.76 L3768.06 2181.29 L3801.48 2190.81" stroke-linejoin="round" style="fill:none;stroke:#377EB8;stroke-width:8.64"/>
	<line x1="465.80" y1="2489.19" x2="465.80" y2="100.86" style="stroke:#000000;stroke-width:5.76"/>
	<line x1="465.80" y1="2489.19" x2="425.82" y2="2489.19" style="stroke:#000000;stroke-width:5.76"/>
	<text x="405.78" y="2524.21" style="font-family:'Helvetica';font-size:99.99px;fill:#000000" text-anchor="end">0.7</text>
	<line x1="465.80" y1="1693.08" x2="425.82" y2="1693.08" style="stroke:#000000;stroke-width:5.76"/>
	<text x="405.78" y="1728.11" style="font-family:'Helvetica';font-size:99.99px;fill:#000000" text-anchor="end">0.8</text>
	<line x1="465.80" y1="896.97" x2="425.82" y2="896.97" style="stroke:#000000;stroke-width:5.76"/>
	<text x="405.78" y="932.00" style="font-family:'Helvetica';font-size:99.99px;fill:#000000" text-anchor="end">0.9</text>
	<line x1="465.80" y1="100.86" x2="425.82" y2="100.86" style="stroke:#000000;stroke-width:5.76"/>
	<text x="405.78" y="135.89" style="font-family:'Helvetica';font-size:99.99px;fill:#000000" text-anchor="end">1.0</text>
	<text x="190.71" y="1294.96" style="font-family:'Helvetica';font-size:99.99px;fill:#000000" transform="rotate(-90 190.71,1294.96)" text-anchor="middle">Marginal Relative Survival</text>
	<line x1="465.80" y1="2489.19" x2="3859.02" y2="2489.19" style="stroke:#000000;stroke-width:5.76"/>
	<line x1="465.80" y1="2489.19" x2="465.80" y2="2529.16" style="stroke:#000000;stroke-width:5.76"/>
	<text x="465.80" y="2619.14" style="font-family:'Helvetica';font-size:99.99px;fill:#000000" text-anchor="middle">0</text>
	<line x1="1132.93" y1="2489.19" x2="1132.93" y2="2529.16" style="stroke:#000000;stroke-width:5.76"/>
	<text x="1132.93" y="2619.14" style="font-family:'Helvetica';font-size:99.99px;fill:#000000" text-anchor="middle">1</text>
	<line x1="1800.07" y1="2489.19" x2="1800.07" y2="2529.16" style="stroke:#000000;stroke-width:5.76"/>
	<text x="1800.07" y="2619.14" style="font-family:'Helvetica';font-size:99.99px;fill:#000000" text-anchor="middle">2</text>
	<line x1="2467.20" y1="2489.19" x2="2467.20" y2="2529.16" style="stroke:#000000;stroke-width:5.76"/>
	<text x="2467.20" y="2619.14" style="font-family:'Helvetica';font-size:99.99px;fill:#000000" text-anchor="middle">3</text>
	<line x1="3134.34" y1="2489.19" x2="3134.34" y2="2529.16" style="stroke:#000000;stroke-width:5.76"/>
	<text x="3134.34" y="2619.14" style="font-family:'Helvetica';font-size:99.99px;fill:#000000" text-anchor="middle">4</text>
	<line x1="3801.48" y1="2489.19" x2="3801.48" y2="2529.16" style="stroke:#000000;stroke-width:5.76"/>
	<text x="3801.48" y="2619.14" style="font-family:'Helvetica';font-size:99.99px;fill:#000000" text-anchor="middle">5</text>
	<text x="2162.41" y="2729.16" style="font-family:'Helvetica';font-size:99.99px;fill:#000000" text-anchor="middle">Years from diagnosis</text>
	<rect x="3089.30" y="135.39" width="735.20" height="257.28" style="fill:#FFFFFF"/>
	<rect x="3092.17" y="138.27" width="729.44" height="251.52" style="fill:none;stroke:#FFFFFF;stroke-width:5.76"/>
	<line x1="3097.96" y1="194.05" x2="3297.94" y2="194.05" style="stroke:#E41A1C;stroke-width:8.64"/>
	<line x1="3097.96" y1="334.01" x2="3297.94" y2="334.01" style="stroke:#377EB8;stroke-width:8.64"/>
	<text x="3357.96" y="229.07" style="font-family:'Helvetica';font-size:99.99px;fill:#000000">Country A</text>
	<text x="3357.96" y="369.04" style="font-family:'Helvetica';font-size:99.99px;fill:#000000">Country B</text>
</svg>
