<?xml version="1.0" encoding="UTF-8" standalone="no"?>
<!-- This is a Stata 18.5 generated SVG file (http://www.stata.com) -->

<svg version="1.1" width="5.500in" height="4.000in" viewBox="0 0 3960 2880" xmlns="http://www.w3.org/2000/svg" xmlns:xlink="http://www.w3.org/1999/xlink">
	<desc>Stata Graph - Graph</desc>
	<rect x="0" y="0" width="3960" height="2880" style="fill:#FFFFFF;stroke:none"/>
	<rect x="0.00" y="0.00" width="3959.88" height="2880.00" style="fill:#FFFFFF"/>
	<rect x="2.88" y="2.88" width="3954.12" height="2874.24" style="fill:none;stroke:#FFFFFF;stroke-width:5.76"/>
	<line x1="436.59" y1="2489.19" x2="3859.02" y2="2489.19" style="stroke:#C0C0C0;stroke-width:5.76"/>
	<line x1="436.59" y1="1750.25" x2="3859.02" y2="1750.25" style="stroke:#C0C0C0;stroke-width:5.76"/>
	<line x1="436.59" y1="1011.32" x2="3859.02" y2="1011.32" style="stroke:#C0C0C0;stroke-width:5.76"/>
	<line x1="436.59" y1="272.38" x2="3859.02" y2="272.38" style="stroke:#C0C0C0;stroke-width:5.76"/>
	<line x1="436.59" y1="2489.19" x2="436.59" y2="100.86" style="stroke:#C0C0C0;stroke-width:5.76"/>
	<line x1="1109.54" y1="2489.19" x2="1109.54" y2="100.86" style="stroke:#C0C0C0;stroke-width:5.76"/>
	<line x1="1782.62" y1="2489.19" x2="1782.62" y2="100.86" style="stroke:#C0C0C0;stroke-width:5.76"/>
	<line x1="2455.57" y1="2489.19" x2="2455.57" y2="100.86" style="stroke:#C0C0C0;stroke-width:5.76"/>
	<line x1="3128.52" y1="2489.19" x2="3128.52" y2="100.86" style="stroke:#C0C0C0;stroke-width:5.76"/>
	<line x1="3801.48" y1="2489.19" x2="3801.48" y2="100.86" style="stroke:#C0C0C0;stroke-width:5.76"/>
	<path d=" M436.59 1366.86 L503.79 1402.01 L571.11 1434.18 L638.43 1468.09 L705.75 1500.14 L773.07 1531.95 L840.39 1564.50 L907.58 1595.31 L974.90 1626.50 L1042.22 1656.82 L1109.54 1686.77 L1176.86 1716.34 L1244.06 1746.04 L1311.38 1774.51 L1378.70 1803.71 L1446.02 1831.06 L1513.34 1859.53 L1580.66 1886.63 L1647.86 1912.74 L1715.18 1940.21 L1782.50 1965.95 L1849.82 1992.07 L1917.14 2017.81 L1984.33 2043.42 L2051.65 2068.05 L2118.97 2093.05 L2186.29 2117.30 L2253.61 2141.68 L2320.93 2164.33 L2388.13 2187.47 L2455.45 2210.86 L2522.77 2231.90 L2590.09 2252.94 L2657.41 2272.99 L2724.60 2291.43 L2791.92 2308.01 L2859.24 2324.10 L2926.56 2338.95 L2993.88 2353.18 L3061.20 2366.05 L3128.40 2373.60 L3195.72 2382.26 L3263.04 2388.08 L3330.36 2394.64 L3397.68 2399.46 L3464.88 2403.42 L3532.20 2406.39 L3599.52 2408.99 L3666.84 2410.11 L3734.16 2412.33" stroke-linejoin="round" style="fill:none;stroke:#E41A1C;stroke-width:8.64"/>
	<path d=" M436.59 100.86 L503.79 169.30 L571.11 236.25 L638.43 304.81 L705.75 371.63 L773.07 439.08 L840.39 507.02 L907.58 574.47 L974.90 642.28 L1042.22 708.74 L1109.54 774.33 L1176.86 840.66 L1244.06 907.12 L1311.38 972.33 L1378.70 1037.18 L1446.02 1100.54 L1513.34 1164.65 L1580.66 1226.65 L1647.86 1285.68 L1715.18 1347.80 L1782.50 1406.09 L1849.82 1464.13 L1917.14 1520.81 L1984.33 1576.87 L2051.65 1629.84 L2118.97 1682.68 L2186.29 1733.17 L2253.61 1781.93 L2320.93 1827.10 L2388.13 1872.15 L2455.45 1917.44 L2522.77 1956.80 L2590.09 1995.65 L2657.41 2032.53 L2724.60 2065.33 L2791.92 2094.29 L2859.24 2121.88 L2926.56 2146.63 L2993.88 2171.76 L3061.20 2192.30 L3128.40 2212.84 L3195.72 2235.49 L3263.04 2251.21 L3330.36 2268.53 L3397.68 2281.90 L3464.88 2291.67 L3532.20 2300.21 L3599.52 2306.90 L3666.84 2309.49 L3734.16 2315.31" stroke-linejoin="round" style="fill:none;stroke:#377EB8;stroke-width:8.64"/>
	<path d=" M436.59 1223.18 L503.79 1256.47 L571.11 1291.37 L638.43 1326.02 L705.75 1360.80 L773.07 1396.44 L840.39 1431.71 L907.58 1468.46 L974.90 1505.09 L1042.22 1541.11 L1109.54 1576.87 L1176.86 1613.63 L1244.06 1650.38 L1311.38 1687.14 L1378.70 1722.65 L1446.02 1758.79 L1513.34 1794.31 L1580.66 1829.21 L1647.86 1862.25 L1715.18 1896.90 L1782.50 1929.45 L1849.82 1961.38 L1917.14 1992.31 L1984.33 2022.63 L2051.65 2050.97 L2118.97 2078.82 L2186.29 2105.18 L2253.61 2129.56 L2320.93 2152.20 L2388.13 2173.98 L2455.45 2195.89 L2522.77 2214.20 L2590.09 2232.02 L2657.41 2248.86 L2724.60 2263.21 L2791.92 2275.46 L2859.24 2287.10 L2926.56 2297.00 L2993.88 2307.76 L3061.20 2315.43 L3128.40 2328.55 L3195.72 2342.54 L3263.04 2352.44 L3330.36 2363.20 L3397.68 2371.62 L3464.88 2377.56 L3532.20 2383.13 L3599.52 2387.09 L3666.84 2388.70 L3734.16 2392.29" stroke-linejoin="round" style="fill:none;stroke:#4DAF4A;stroke-width:8.64"/>
	<line x1="436.59" y1="2489.19" x2="436.59" y2="100.86" style="stroke:#000000;stroke-width:5.76"/>
	<line x1="436.59" y1="2489.19" x2="396.62" y2="2489.19" style="stroke:#000000;stroke-width:5.76"/>
	<text x="376.57" y="2524.21" style="font-family:'Helvetica';font-size:99.99px;fill:#000000" text-anchor="end">0</text>
	<line x1="436.59" y1="1750.25" x2="396.62" y2="1750.25" style="stroke:#000000;stroke-width:5.76"/>
	<text x="376.57" y="1785.28" style="font-family:'Helvetica';font-size:99.99px;fill:#000000" text-anchor="end">10</text>
	<line x1="436.59" y1="1011.32" x2="396.62" y2="1011.32" style="stroke:#000000;stroke-width:5.76"/>
	<text x="376.57" y="1046.35" style="font-family:'Helvetica';font-size:99.99px;fill:#000000" text-anchor="end">20</text>
	<line x1="436.59" y1="272.38" x2="396.62" y2="272.38" style="stroke:#000000;stroke-width:5.76"/>
	<text x="376.57" y="307.41" style="font-family:'Helvetica';font-size:99.99px;fill:#000000" text-anchor="end">30</text>
	<text x="190.71" y="1294.96" style="font-family:'Helvetica';font-size:99.99px;fill:#000000" transform="rotate(-90 190.71,1294.96)" text-anchor="middle">Life Expectency</text>
	<line x1="436.59" y1="2489.19" x2="3859.02" y2="2489.19" style="stroke:#000000;stroke-width:5.76"/>
	<line x1="436.59" y1="2489.19" x2="436.59" y2="2529.16" style="stroke:#000000;stroke-width:5.76"/>
	<text x="436.59" y="2619.14" style="font-family:'Helvetica';font-size:99.99px;fill:#000000" text-anchor="middle">50</text>
	<line x1="1109.54" y1="2489.19" x2="1109.54" y2="2529.16" style="stroke:#000000;stroke-width:5.76"/>
	<text x="1109.54" y="2619.14" style="font-family:'Helvetica';font-size:99.99px;fill:#000000" text-anchor="middle">60</text>
	<line x1="1782.62" y1="2489.19" x2="1782.62" y2="2529.16" style="stroke:#000000;stroke-width:5.76"/>
	<text x="1782.62" y="2619.14" style="font-family:'Helvetica';font-size:99.99px;fill:#000000" text-anchor="middle">70</text>
	<line x1="2455.57" y1="2489.19" x2="2455.57" y2="2529.16" style="stroke:#000000;stroke-width:5.76"/>
	<text x="2455.57" y="2619.14" style="font-family:'Helvetica';font-size:99.99px;fill:#000000" text-anchor="middle">80</text>
	<line x1="3128.52" y1="2489.19" x2="3128.52" y2="2529.16" style="stroke:#000000;stroke-width:5.76"/>
	<text x="3128.52" y="2619.14" style="font-family:'Helvetica';font-size:99.99px;fill:#000000" text-anchor="middle">90</text>
	<line x1="3801.48" y1="2489.19" x2="3801.48" y2="2529.16" style="stroke:#000000;stroke-width:5.76"/>
	<text x="3801.48" y="2619.14" style="font-family:'Helvetica';font-size:99.99px;fill:#000000" text-anchor="middle">100</text>
	<text x="2147.80" y="2729.16" style="font-family:'Helvetica';font-size:99.99px;fill:#000000" text-anchor="middle">Age at diagnosis</text>
	<line x1="2197.18" y1="228.57" x2="2397.16" y2="228.57" style="stroke:#E41A1C;stroke-width:8.64"/>
	<line x1="2197.18" y1="368.54" x2="2397.16" y2="368.54" style="stroke:#377EB8;stroke-width:8.64"/>
	<line x1="2197.18" y1="508.50" x2="2397.16" y2="508.50" style="stroke:#4DAF4A;stroke-width:8.64"/>
	<text x="2457.18" y="263.60" style="font-family:'Helvetica';font-size:99.99px;fill:#000000">Life Expectancy</text>
	<text x="2457.18" y="403.57" style="font-family:'Helvetica';font-size:99.99px;fill:#000000">Expected Life Expectancy</text>
	<text x="2457.18" y="543.53" style="font-family:'Helvetica';font-size:99.99px;fill:#000000">Reduction in Life Expectancy</text>
</svg>
