<?xml version="1.0" encoding="UTF-8" standalone="no"?>
<!-- This is a Stata 18.5 generated SVG file (http://www.stata.com) -->

<svg version="1.1" width="5.500in" height="4.000in" viewBox="0 0 3960 2880" xmlns="http://www.w3.org/2000/svg" xmlns:xlink="http://www.w3.org/1999/xlink">
	<desc>Stata Graph - RSdiff</desc>
	<rect x="0" y="0" width="3960" height="2880" style="fill:#FFFFFF;stroke:none"/>
	<rect x="0.00" y="0.00" width="3959.88" height="2880.00" style="fill:#FFFFFF"/>
	<rect x="2.88" y="2.88" width="3954.12" height="2874.24" style="fill:none;stroke:#FFFFFF;stroke-width:5.76"/>
	<line x1="500.82" y1="2489.19" x2="3859.02" y2="2489.19" style="stroke:#C0C0C0;stroke-width:5.76"/>
	<line x1="500.82" y1="1937.99" x2="3859.02" y2="1937.99" style="stroke:#C0C0C0;stroke-width:5.76"/>
	<line x1="500.82" y1="1386.91" x2="3859.02" y2="1386.91" style="stroke:#C0C0C0;stroke-width:5.76"/>
	<line x1="500.82" y1="835.71" x2="3859.02" y2="835.71" style="stroke:#C0C0C0;stroke-width:5.76"/>
	<line x1="500.82" y1="284.51" x2="3859.02" y2="284.51" style="stroke:#C0C0C0;stroke-width:5.76"/>
	<line x1="500.82" y1="2489.19" x2="500.82" y2="100.86" style="stroke:#C0C0C0;stroke-width:5.76"/>
	<line x1="1160.90" y1="2489.19" x2="1160.90" y2="100.86" style="stroke:#C0C0C0;stroke-width:5.76"/>
	<line x1="1821.11" y1="2489.19" x2="1821.11" y2="100.86" style="stroke:#C0C0C0;stroke-width:5.76"/>
	<line x1="2481.19" y1="2489.19" x2="2481.19" y2="100.86" style="stroke:#C0C0C0;stroke-width:5.76"/>
	<line x1="3141.39" y1="2489.19" x2="3141.39" y2="100.86" style="stroke:#C0C0C0;stroke-width:5.76"/>
	<line x1="3801.48" y1="2489.19" x2="3801.48" y2="100.86" style="stroke:#C0C0C0;stroke-width:5.76"/>
	<defs>
		<path id="path_pfNdtJHq" d="M533.73 1407.82 L533.73 1407.82 L566.78 1524.52 L599.82 1650.51 L632.86 1761.27 L665.78 1856.56 L698.82 1939.10 L731.86 2011.12 L764.78 2073.37 L797.82 2126.22 L830.86 2170.40 L863.90 2207.03 L896.82 2237.22 L929.86 2261.73 L962.90 2281.40 L995.94 2296.87 L1028.86 2309.12 L1061.90 2318.28 L1094.94 2325.21 L1127.86 2330.04 L1160.90 2333.13 L1193.94 2334.86 L1226.98 2335.36 L1259.90 2334.86 L1292.94 2333.63 L1325.98 2331.65 L1358.90 2329.17 L1391.94 2326.20 L1424.98 2322.86 L1458.02 2319.27 L1490.94 2315.43 L1523.98 2311.47 L1557.02 2307.27 L1590.06 2302.94 L1622.98 2298.60 L1656.02 2294.27 L1689.06 2289.94 L1721.98 2285.49 L1755.02 2281.16 L1788.06 2276.82 L1821.11 2272.62 L1854.02 2268.28 L1887.06 2264.20 L1920.11 2260.12 L1953.15 2256.03 L1986.06 2252.20 L2019.11 2248.24 L2052.15 2244.52 L2085.06 2240.81 L2118.11 2237.22 L2151.15 2233.63 L2184.19 2230.17 L2217.11 2226.83 L2250.15 2223.49 L2283.19 2220.27 L2316.11 2217.17 L2349.15 2214.08 L2382.19 2211.11 L2415.23 2208.26 L2448.15 2205.42 L2481.19 2202.57 L2514.23 2199.85 L2547.27 2197.25 L2580.19 2194.65 L2613.23 2192.18 L2646.27 2189.70 L2679.19 2187.35 L2712.23 2185.00 L2745.27 2182.77 L2778.31 2180.54 L2811.23 2178.44 L2844.27 2176.21 L2877.31 2174.23 L2910.35 2172.25 L2943.27 2170.27 L2976.31 2168.29 L3009.35 2166.44 L3042.27 2164.70 L3075.31 2162.85 L3108.35 2161.11 L3141.39 2159.50 L3174.31 2157.77 L3207.35 2156.16 L3240.39 2154.68 L3273.31 2153.07 L3306.35 2151.58 L3339.39 2150.10 L3372.44 2148.61 L3405.35 2147.25 L3438.39 2145.89 L3471.44 2144.53 L3504.48 2143.29 L3537.39 2141.93 L3570.44 2140.69 L3603.48 2139.46 L3636.39 2138.34 L3669.44 2137.11 L3702.48 2135.99 L3735.52 2134.88 L3768.44 2133.76 L3801.48 2132.77 L3801.48 100.86 L3768.44 110.88 L3735.52 121.03 L3702.48 131.30 L3669.44 141.57 L3636.39 152.09 L3603.48 162.49 L3570.44 173.13 L3537.39 183.77 L3504.48 194.54 L3471.44 205.43 L3438.39 216.32 L3405.35 227.46 L3372.44 238.60 L3339.39 249.74 L3306.35 261.12 L3273.31 272.51 L3240.39 284.02 L3207.35 295.52 L3174.31 307.28 L3141.39 319.04 L3108.35 330.92 L3075.31 342.92 L3042.27 355.05 L3009.35 367.18 L2976.31 379.43 L2943.27 391.80 L2910.35 404.30 L2877.31 416.93 L2844.27 429.55 L2811.23 442.30 L2778.31 455.17 L2745.27 468.16 L2712.23 481.28 L2679.19 494.40 L2646.27 507.76 L2613.23 521.13 L2580.19 534.49 L2547.27 548.11 L2514.23 561.72 L2481.19 575.58 L2448.15 589.32 L2415.23 603.30 L2382.19 617.41 L2349.15 631.52 L2316.11 645.62 L2283.19 659.98 L2250.15 674.33 L2217.11 688.81 L2184.19 703.29 L2151.15 717.90 L2118.11 732.50 L2085.06 747.23 L2052.15 761.95 L2019.11 776.80 L1986.06 791.65 L1953.15 806.50 L1920.11 821.35 L1887.06 836.33 L1854.02 851.18 L1821.11 866.03 L1788.06 881.00 L1755.02 895.85 L1721.98 910.58 L1689.06 925.31 L1656.02 939.91 L1622.98 954.51 L1590.06 968.87 L1557.02 983.10 L1523.98 997.21 L1490.94 1010.95 L1458.02 1024.56 L1424.98 1037.92 L1391.94 1050.92 L1358.90 1063.54 L1325.98 1075.79 L1292.94 1087.43 L1259.90 1098.69 L1226.98 1109.21 L1193.94 1119.11 L1160.90 1128.14 L1127.86 1136.31 L1094.94 1143.49 L1061.90 1149.55 L1028.86 1154.25 L995.94 1157.47 L962.90 1159.08 L929.86 1158.71 L896.82 1156.11 L863.90 1150.79 L830.86 1142.25 L797.82 1129.87 L764.78 1112.55 L731.86 1089.03 L698.82 1057.97 L665.78 1017.01 L632.86 965.28 L599.82 907.12 L566.78 873.95 L533.73 992.51 L533.73 1407.82 Z" stroke-linejoin="round"/>
	</defs>
	<defs>
		<clipPath id="clipPath_xNmZHsBr">
			<use xlink:href="#path_pfNdtJHq"/>
		</clipPath>
	</defs>
	<use xlink:href="#path_pfNdtJHq" style="stroke:none;fill:#FF3333;fill-opacity:0.30"/>
	<use xlink:href="#path_pfNdtJHq" style="fill:none;stroke:#FF0000;stroke-opacity:0.30;stroke-width:17.28" clip-path="url(#clipPath_xNmZHsBr)"/>
	<path d=" M533.73 1200.29 L566.78 1199.30 L599.69 1278.87 L632.73 1363.27 L665.78 1436.91 L698.82 1498.66 L731.73 1550.14 L764.78 1593.08 L797.82 1628.11 L830.73 1656.45 L863.78 1678.97 L896.82 1696.67 L929.86 1710.28 L962.78 1720.30 L995.82 1727.23 L1028.86 1731.69 L1061.78 1734.04 L1094.82 1734.41 L1127.86 1733.17 L1160.90 1730.70 L1193.82 1726.99 L1226.86 1722.28 L1259.90 1716.84 L1292.94 1710.65 L1325.86 1703.72 L1358.90 1696.42 L1391.94 1688.62 L1424.86 1680.45 L1457.90 1672.04 L1490.94 1663.25 L1523.98 1654.34 L1556.90 1645.18 L1589.94 1636.03 L1622.98 1626.62 L1656.02 1617.22 L1688.94 1607.69 L1721.98 1598.16 L1755.02 1588.50 L1787.94 1578.98 L1820.98 1569.32 L1854.02 1559.79 L1887.06 1550.26 L1919.98 1540.86 L1953.02 1531.33 L1986.06 1521.93 L2018.98 1512.64 L2052.02 1503.36 L2085.06 1494.08 L2118.11 1484.92 L2151.02 1475.76 L2184.06 1466.85 L2217.11 1457.82 L2250.15 1449.03 L2283.06 1440.25 L2316.11 1431.46 L2349.15 1422.80 L2382.06 1414.26 L2415.11 1405.84 L2448.15 1397.43 L2481.19 1389.14 L2514.11 1380.85 L2547.15 1372.80 L2580.19 1364.63 L2613.11 1356.71 L2646.15 1348.79 L2679.19 1341.00 L2712.23 1333.20 L2745.15 1325.53 L2778.19 1317.98 L2811.23 1310.43 L2844.27 1303.00 L2877.19 1295.58 L2910.23 1288.28 L2943.27 1281.10 L2976.19 1273.92 L3009.23 1266.87 L3042.27 1259.94 L3075.31 1253.01 L3108.23 1246.08 L3141.27 1239.27 L3174.31 1232.59 L3207.35 1225.91 L3240.27 1219.35 L3273.31 1212.79 L3306.35 1206.35 L3339.27 1200.04 L3372.31 1193.73 L3405.35 1187.42 L3438.39 1181.23 L3471.31 1175.04 L3504.35 1168.98 L3537.39 1162.92 L3570.31 1156.97 L3603.35 1151.03 L3636.39 1145.22 L3669.44 1139.40 L3702.35 1133.71 L3735.39 1128.02 L3768.44 1122.45 L3801.48 1116.88" stroke-linejoin="round" style="fill:none;stroke:#FF0000;stroke-width:8.64"/>
	<line x1="500.82" y1="2489.19" x2="500.82" y2="100.86" style="stroke:#000000;stroke-width:5.76"/>
	<line x1="500.82" y1="2489.19" x2="460.72" y2="2489.19" style="stroke:#000000;stroke-width:5.76"/>
	<text x="440.80" y="2524.21" style="font-family:'Helvetica';font-size:99.99px;fill:#000000" text-anchor="end">-.04</text>
	<line x1="500.82" y1="1937.99" x2="460.72" y2="1937.99" style="stroke:#000000;stroke-width:5.76"/>
	<text x="440.80" y="1973.01" style="font-family:'Helvetica';font-size:99.99px;fill:#000000" text-anchor="end">-.02</text>
	<line x1="500.82" y1="1386.91" x2="460.72" y2="1386.91" style="stroke:#000000;stroke-width:5.76"/>
	<text x="440.80" y="1421.94" style="font-family:'Helvetica';font-size:99.99px;fill:#000000" text-anchor="end">0</text>
	<line x1="500.82" y1="835.71" x2="460.72" y2="835.71" style="stroke:#000000;stroke-width:5.76"/>
	<text x="440.80" y="870.74" style="font-family:'Helvetica';font-size:99.99px;fill:#000000" text-anchor="end">.02</text>
	<line x1="500.82" y1="284.51" x2="460.72" y2="284.51" style="stroke:#000000;stroke-width:5.76"/>
	<text x="440.80" y="319.54" style="font-family:'Helvetica';font-size:99.99px;fill:#000000" text-anchor="end">.04</text>
	<text x="190.71" y="1294.96" style="font-family:'Helvetica';font-size:99.99px;fill:#000000" transform="rotate(-90 190.71,1294.96)" text-anchor="middle">Difference in R(t)</text>
	<line x1="500.82" y1="2489.19" x2="3859.02" y2="2489.19" style="stroke:#000000;stroke-width:5.76"/>
	<line x1="500.82" y1="2489.19" x2="500.82" y2="2529.16" style="stroke:#000000;stroke-width:5.76"/>
	<text x="500.82" y="2619.14" style="font-family:'Helvetica';font-size:99.99px;fill:#000000" text-anchor="middle">0</text>
	<line x1="1160.90" y1="2489.19" x2="1160.90" y2="2529.16" style="stroke:#000000;stroke-width:5.76"/>
	<text x="1160.90" y="2619.14" style="font-family:'Helvetica';font-size:99.99px;fill:#000000" text-anchor="middle">2</text>
	<line x1="1821.11" y1="2489.19" x2="1821.11" y2="2529.16" style="stroke:#000000;stroke-width:5.76"/>
	<text x="1821.11" y="2619.14" style="font-family:'Helvetica';font-size:99.99px;fill:#000000" text-anchor="middle">4</text>
	<line x1="2481.19" y1="2489.19" x2="2481.19" y2="2529.16" style="stroke:#000000;stroke-width:5.76"/>
	<text x="2481.19" y="2619.14" style="font-family:'Helvetica';font-size:99.99px;fill:#000000" text-anchor="middle">6</text>
	<line x1="3141.39" y1="2489.19" x2="3141.39" y2="2529.16" style="stroke:#000000;stroke-width:5.76"/>
	<text x="3141.39" y="2619.14" style="font-family:'Helvetica';font-size:99.99px;fill:#000000" text-anchor="middle">8</text>
	<line x1="3801.48" y1="2489.19" x2="3801.48" y2="2529.16" style="stroke:#000000;stroke-width:5.76"/>
	<text x="3801.48" y="2619.14" style="font-family:'Helvetica';font-size:99.99px;fill:#000000" text-anchor="middle">10</text>
	<text x="2179.98" y="2729.16" style="font-family:'Helvetica';font-size:99.99px;fill:#000000" text-anchor="middle">Time since diagnosis</text>
</svg>
