<?xml version="1.0" encoding="UTF-8" standalone="no"?>
<!-- This is a Stata 18.5 generated SVG file (http://www.stata.com) -->

<svg version="1.1" width="5.500in" height="4.000in" viewBox="0 0 3960 2880" xmlns="http://www.w3.org/2000/svg" xmlns:xlink="http://www.w3.org/1999/xlink">
	<desc>Stata Graph - Graph</desc>
	<rect x="0" y="0" width="3960" height="2880" style="fill:#FFFFFF;stroke:none"/>
	<rect x="0.00" y="0.00" width="3959.88" height="2880.00" style="fill:#FFFFFF"/>
	<rect x="2.88" y="2.88" width="3954.12" height="2874.24" style="fill:none;stroke:#FFFFFF;stroke-width:5.76"/>
	<line x1="559.10" y1="2247.62" x2="3859.02" y2="2247.62" style="stroke:#C0C0C0;stroke-width:5.76"/>
	<line x1="559.10" y1="1532.32" x2="3859.02" y2="1532.32" style="stroke:#C0C0C0;stroke-width:5.76"/>
	<line x1="559.10" y1="816.90" x2="3859.02" y2="816.90" style="stroke:#C0C0C0;stroke-width:5.76"/>
	<line x1="559.10" y1="101.60" x2="3859.02" y2="101.60" style="stroke:#C0C0C0;stroke-width:5.76"/>
	<line x1="559.10" y1="2489.19" x2="559.10" y2="100.86" style="stroke:#C0C0C0;stroke-width:5.76"/>
	<line x1="1207.55" y1="2489.19" x2="1207.55" y2="100.86" style="stroke:#C0C0C0;stroke-width:5.76"/>
	<line x1="1856.00" y1="2489.19" x2="1856.00" y2="100.86" style="stroke:#C0C0C0;stroke-width:5.76"/>
	<line x1="2504.58" y1="2489.19" x2="2504.58" y2="100.86" style="stroke:#C0C0C0;stroke-width:5.76"/>
	<line x1="3153.03" y1="2489.19" x2="3153.03" y2="100.86" style="stroke:#C0C0C0;stroke-width:5.76"/>
	<line x1="3801.48" y1="2489.19" x2="3801.48" y2="100.86" style="stroke:#C0C0C0;stroke-width:5.76"/>
	<defs>
		<path id="path_FlApZKRR" d="M623.95 104.08 L623.95 104.08 L688.79 111.50 L753.64 123.51 L818.48 140.46 L883.33 162.37 L948.17 189.47 L1013.02 221.52 L1077.86 258.52 L1142.71 299.98 L1207.55 345.77 L1272.40 395.52 L1337.24 448.61 L1402.09 504.92 L1466.93 563.95 L1531.78 625.33 L1596.62 689.06 L1661.47 754.65 L1726.31 821.97 L1791.16 890.78 L1856.00 960.95 L1920.85 1032.35 L1985.69 1104.63 L2050.54 1177.64 L2115.51 1251.03 L2180.35 1324.79 L2245.20 1398.17 L2310.04 1470.20 L2374.89 1539.99 L2439.73 1606.94 L2504.58 1670.18 L2569.42 1729.21 L2634.27 1783.91 L2699.11 1834.65 L2763.96 1882.30 L2828.80 1927.34 L2893.65 1970.16 L2958.49 2011.37 L3023.34 2051.47 L3088.18 2090.70 L3153.03 2129.31 L3217.87 2167.67 L3282.72 2205.67 L3347.56 2243.16 L3412.41 2280.29 L3477.25 2316.67 L3542.10 2352.56 L3606.94 2387.83 L3671.79 2422.36 L3736.63 2456.14 L3801.48 2489.19 L3801.48 801.55 L3736.63 790.42 L3671.79 779.15 L3606.94 767.65 L3542.10 756.01 L3477.25 744.26 L3412.41 732.25 L3347.56 720.12 L3282.72 708.00 L3217.87 695.74 L3153.03 683.49 L3088.18 671.12 L3023.34 658.74 L2958.49 646.12 L2893.65 633.12 L2828.80 619.76 L2763.96 605.78 L2699.11 591.05 L2634.27 575.33 L2569.42 558.62 L2504.58 540.68 L2439.73 521.62 L2374.89 501.57 L2310.04 480.66 L2245.20 459.25 L2180.35 437.59 L2115.51 415.81 L2050.54 394.40 L1985.69 373.37 L1920.85 352.57 L1856.00 332.28 L1791.16 312.35 L1726.31 292.68 L1661.47 273.62 L1596.62 254.93 L1531.78 236.99 L1466.93 219.79 L1402.09 203.45 L1337.24 188.11 L1272.40 173.63 L1207.55 160.39 L1142.71 148.13 L1077.86 137.12 L1013.02 127.34 L948.17 118.68 L883.33 111.63 L818.48 106.06 L753.64 102.34 L688.79 100.86 L623.95 100.98 L623.95 104.08 Z" stroke-linejoin="round"/>
	</defs>
	<defs>
		<clipPath id="clipPath_VWWZCEoF">
			<use xlink:href="#path_FlApZKRR"/>
		</clipPath>
	</defs>
	<use xlink:href="#path_FlApZKRR" style="stroke:none;fill:#FF3333;fill-opacity:0.30"/>
	<use xlink:href="#path_FlApZKRR" style="fill:none;stroke:#FF0000;stroke-opacity:0.30;stroke-width:17.28" clip-path="url(#clipPath_VWWZCEoF)"/>
	<path d=" M623.95 102.59 L688.79 106.18 L753.64 112.99 L818.48 123.26 L883.33 137.00 L948.17 154.07 L1013.02 174.49 L1077.86 197.88 L1142.71 224.12 L1207.55 253.20 L1272.40 284.63 L1337.24 318.42 L1402.09 354.18 L1466.93 391.93 L1531.78 431.28 L1596.62 472.12 L1661.47 514.20 L1726.31 557.39 L1791.16 601.57 L1856.00 646.74 L1920.85 692.53 L1985.69 739.06 L2050.54 786.08 L2115.38 833.48 L2180.23 881.25 L2245.07 928.77 L2309.92 975.55 L2374.76 1020.85 L2439.61 1064.41 L2504.45 1105.49 L2569.30 1143.98 L2634.14 1179.75 L2698.99 1212.91 L2763.83 1244.10 L2828.68 1273.55 L2893.52 1301.77 L2958.37 1328.87 L3023.21 1355.23 L3088.06 1380.97 L3152.90 1406.46 L3217.75 1431.83 L3282.59 1456.95 L3347.44 1481.71 L3412.28 1506.33 L3477.13 1530.59 L3541.97 1554.35 L3606.82 1577.86 L3671.66 1600.88 L3736.63 1623.40 L3801.48 1645.43" stroke-linejoin="round" style="fill:none;stroke:#FF0000;stroke-width:8.64"/>
	<line x1="559.10" y1="2489.19" x2="559.10" y2="100.86" style="stroke:#000000;stroke-width:5.76"/>
	<line x1="559.10" y1="2247.62" x2="519.13" y2="2247.62" style="stroke:#000000;stroke-width:5.76"/>
	<text x="499.08" y="2282.65" style="font-family:'Helvetica';font-size:99.99px;fill:#000000" text-anchor="end">-0.15</text>
	<line x1="559.10" y1="1532.32" x2="519.13" y2="1532.32" style="stroke:#000000;stroke-width:5.76"/>
	<text x="499.08" y="1567.35" style="font-family:'Helvetica';font-size:99.99px;fill:#000000" text-anchor="end">-0.10</text>
	<line x1="559.10" y1="816.90" x2="519.13" y2="816.90" style="stroke:#000000;stroke-width:5.76"/>
	<text x="499.08" y="851.93" style="font-family:'Helvetica';font-size:99.99px;fill:#000000" text-anchor="end">-0.05</text>
	<line x1="559.10" y1="101.60" x2="519.13" y2="101.60" style="stroke:#000000;stroke-width:5.76"/>
	<text x="499.08" y="136.63" style="font-family:'Helvetica';font-size:99.99px;fill:#000000" text-anchor="end">0.00</text>
	<text x="190.71" y="1294.96" style="font-family:'Helvetica';font-size:99.99px;fill:#000000" transform="rotate(-90 190.71,1294.96)" text-anchor="middle">Difference in S(t)</text>
	<line x1="559.10" y1="2489.19" x2="3859.02" y2="2489.19" style="stroke:#000000;stroke-width:5.76"/>
	<line x1="559.10" y1="2489.19" x2="559.10" y2="2529.16" style="stroke:#000000;stroke-width:5.76"/>
	<text x="559.10" y="2619.14" style="font-family:'Helvetica';font-size:99.99px;fill:#000000" text-anchor="middle">0</text>
	<line x1="1207.55" y1="2489.19" x2="1207.55" y2="2529.16" style="stroke:#000000;stroke-width:5.76"/>
	<text x="1207.55" y="2619.14" style="font-family:'Helvetica';font-size:99.99px;fill:#000000" text-anchor="middle">1</text>
	<line x1="1856.00" y1="2489.19" x2="1856.00" y2="2529.16" style="stroke:#000000;stroke-width:5.76"/>
	<text x="1856.00" y="2619.14" style="font-family:'Helvetica';font-size:99.99px;fill:#000000" text-anchor="middle">2</text>
	<line x1="2504.58" y1="2489.19" x2="2504.58" y2="2529.16" style="stroke:#000000;stroke-width:5.76"/>
	<text x="2504.58" y="2619.14" style="font-family:'Helvetica';font-size:99.99px;fill:#000000" text-anchor="middle">3</text>
	<line x1="3153.03" y1="2489.19" x2="3153.03" y2="2529.16" style="stroke:#000000;stroke-width:5.76"/>
	<text x="3153.03" y="2619.14" style="font-family:'Helvetica';font-size:99.99px;fill:#000000" text-anchor="middle">4</text>
	<line x1="3801.48" y1="2489.19" x2="3801.48" y2="2529.16" style="stroke:#000000;stroke-width:5.76"/>
	<text x="3801.48" y="2619.14" style="font-family:'Helvetica';font-size:99.99px;fill:#000000" text-anchor="middle">5</text>
	<text x="2209.06" y="2729.16" style="font-family:'Helvetica';font-size:99.99px;fill:#000000" text-anchor="middle">Years since surgery</text>
</svg>
